<svg width="70" height="28" viewBox="0 0 70 28" fill="none" xmlns="http://www.w3.org/2000/svg">
<path d="M22.43 0L17.2584 3.47021L12.0869 0H0V28H12.0869V24.5298L17.2584 28L22.43 24.5298V28H70V0H22.43Z" fill="#02A39F"/>
<path d="M45.6953 16.4717H66.03" stroke="white" stroke-width="0.630631"/>
<path d="M53.1396 15.0024H54.9086V4.01367H53.1396V15.0024Z" fill="white"/>
<path d="M47.4808 10.1439H51.6083V8.375H47.4808V6.64392H51.911V4.875H45.7119V13.6408H52.0844V11.875H47.4808V10.1439Z" fill="white"/>
<path d="M64.261 4.01074V7.51074H62.1357V9.27651H64.261V15.0026H66.0299V4.01074H64.261Z" fill="white"/>
<path d="M58.752 3.8125V4.90349H56.2327V6.66926H58.752V8.85755L55.8984 13.1238L57.3678 14.1044L59.6349 10.7148L61.9052 14.1044L63.3746 13.1238L60.521 8.85755V6.66926H63.0372V4.90349H60.521V3.8125H58.752Z" fill="white"/>
<path d="M38.4301 14.1322H42.3463V15.2957H38.4301V14.1322ZM36.6611 17.0615H44.112V12.3633H36.6611V17.0615Z" fill="white"/>
<path d="M42.3027 11.8243H44.0717V4.02344H42.3027V11.8243Z" fill="white"/>
<path d="M35.508 7.7124C35.508 7.10384 36.003 6.6088 36.6147 6.6088C37.2233 6.6088 37.7215 7.10384 37.7215 7.7124C37.7215 8.32096 37.2264 8.81916 36.6147 8.81916C36.003 8.81601 35.508 8.32096 35.508 7.7124ZM39.3485 8.59529H40.0674V11.8241H41.8363V4.02637H40.0674V6.82952H39.3485C38.9764 5.67547 37.8917 4.83988 36.6147 4.83988C35.0318 4.83988 33.7422 6.12952 33.7422 7.7124C33.7422 9.29529 35.0287 10.5849 36.6147 10.5849C37.8886 10.5849 38.9733 9.74934 39.3485 8.59529Z" fill="white"/>
</svg>
