<svg width="20" height="20" viewBox="0 0 20 20" fill="none" xmlns="http://www.w3.org/2000/svg">
<path fill-rule="evenodd" clip-rule="evenodd" d="M7.5013 1.66699H2.5013H1.66797L1.66797 2.50033L1.66797 7.50033H3.33464L3.33464 4.51217L6.91205 8.08958L8.09056 6.91107L4.51315 3.33366L7.5013 3.33366V1.66699ZM12.5013 18.3337H17.5013H18.3346V17.5003L18.3346 12.5003H16.668L16.668 15.4885L13.0906 11.9111L11.912 13.0896L15.4895 16.667H12.5013V18.3337ZM18.3346 2.50033V7.50033H16.668V4.51217L13.0906 8.08958L11.912 6.91107L15.4895 3.33366L12.5013 3.33366L12.5013 1.66699L17.5013 1.66699L18.3346 1.66699V2.50033ZM4.51315 16.667H7.5013L7.5013 18.3337H2.5013H1.66797V17.5003L1.66797 12.5003H3.33464L3.33464 15.4885L6.91205 11.9111L8.09056 13.0896L4.51315 16.667Z" fill="black"/>
</svg>
