<svg width="32" height="32" viewBox="0 0 32 32" fill="none" xmlns="http://www.w3.org/2000/svg">
<path d="M25.6011 28.8V0L0.000240326 0V28.8H25.6011Z" fill="#D984CF"/>
<path fill-rule="evenodd" clip-rule="evenodd" d="M21.9211 5.59785H12.4712V7.31625H21.9211V5.59785ZM17.6255 9.03359H12.4712V10.752H17.6255V9.03359Z" fill="white"/>
<path fill-rule="evenodd" clip-rule="evenodd" d="M7.31531 16.4096L5.48912 14.5867L4.27734 15.7984L6.10034 17.6213L4.27841 19.4464L5.48912 20.6613L7.31104 18.8395L9.13297 20.6613L10.3479 19.4464L8.52601 17.6245L10.3522 15.7984L9.13724 14.5867L7.31531 16.4096Z" fill="white"/>
<path d="M6.93335 10.6667C8.40616 10.6667 9.60011 9.47275 9.60011 7.99999C9.60011 6.52724 8.40616 5.33333 6.93335 5.33333C5.46055 5.33333 4.2666 6.52724 4.2666 7.99999C4.2666 9.47275 5.46055 10.6667 6.93335 10.6667Z" stroke="white" stroke-width="1.5"/>
<path d="M32.0012 24.5333C32.0012 20.4096 28.6582 17.0667 24.5343 17.0667C20.4104 17.0667 17.0674 20.4096 17.0674 24.5333C17.0674 28.6571 20.4104 32 24.5343 32C28.6582 32 32.0012 28.6571 32.0012 24.5333Z" fill="#9973EF"/>
<path fill-rule="evenodd" clip-rule="evenodd" d="M24.0004 20.2667H25.0674V24.7463L26.8802 22.9333L27.6341 23.6872L25.3716 25.95L24.6177 26.7039L23.8638 25.95L21.6012 23.6872L22.3551 22.9333L24.0004 24.5787V20.2667ZM21.334 26.6669V27.7339H27.7338V26.6669H28.8007V28.8H20.2671V26.6669H21.334Z" fill="white"/>
</svg>
