<svg width="32" height="32" viewBox="0 0 32 32" fill="none" xmlns="http://www.w3.org/2000/svg">
<g clip-path="url(#clip0_1175_2802)">
<path d="M14.5 30C21.4036 30 27 24.4036 27 17.5C27 10.5964 21.4036 5 14.5 5C7.59644 5 2 10.5964 2 17.5C2 24.4036 7.59644 30 14.5 30Z" fill="#D984CF"/>
<path d="M19.4449 12.6172L16.5709 18.7362L13.3259 15.4912L19.4449 12.6172Z" fill="white"/>
<path d="M9.7019 22.3592L12.5769 16.2402L15.8219 19.4852L9.7019 22.3592Z" fill="white"/>
<path d="M18 2H11V4H18V2Z" fill="#D984CF"/>
<path d="M23.4541 17.7879C23.5361 17.6517 23.6519 17.539 23.7903 17.4607C23.9288 17.3824 24.0851 17.3413 24.2441 17.3413C24.4031 17.3413 24.5594 17.3824 24.6978 17.4607C24.8363 17.539 24.9521 17.6517 25.0341 17.7879L26.9261 20.9309C26.9897 21.0369 27.0741 21.1289 27.1741 21.2016C27.2741 21.2743 27.3876 21.3261 27.5081 21.3539L31.0821 22.1819C31.2365 22.2181 31.379 22.2934 31.4958 22.4007C31.6125 22.508 31.6997 22.6436 31.7487 22.7944C31.7978 22.9452 31.8071 23.1061 31.7758 23.2616C31.7445 23.4171 31.6737 23.5619 31.5701 23.6819L29.1701 26.4519C29.0891 26.5453 29.0278 26.6539 28.9896 26.7714C28.9515 26.8889 28.9374 27.0129 28.9481 27.1359L29.2651 30.7909C29.2789 30.9493 29.2515 31.1086 29.1855 31.2533C29.1195 31.398 29.0173 31.5232 28.8887 31.6167C28.7601 31.7102 28.6094 31.7688 28.4515 31.7869C28.2935 31.805 28.1335 31.7819 27.9871 31.7199L24.6041 30.2899C24.4904 30.2417 24.3681 30.2169 24.2446 30.2169C24.1211 30.2169 23.9988 30.2417 23.8851 30.2899L20.5071 31.7209C20.3607 31.7829 20.2007 31.806 20.0427 31.7879C19.8847 31.7698 19.7341 31.7112 19.6055 31.6177C19.4769 31.5242 19.3746 31.399 19.3087 31.2543C19.2427 31.1096 19.2153 30.9503 19.2291 30.7919L19.5461 27.1369C19.5568 27.0139 19.5427 26.8899 19.5045 26.7724C19.4664 26.6549 19.405 26.5463 19.3241 26.4529L16.9241 23.6829C16.8205 23.5629 16.7496 23.4181 16.7183 23.2626C16.687 23.1071 16.6964 22.9462 16.7454 22.7954C16.7945 22.6446 16.8816 22.509 16.9984 22.4017C17.1152 22.2944 17.2577 22.2191 17.4121 22.1829L20.9861 21.3549C21.1065 21.3271 21.2201 21.2753 21.3201 21.2026C21.4201 21.1299 21.5044 21.0379 21.5681 20.9319L23.4541 17.7879Z" fill="#62DBCD"/>
</g>
<defs>
<clipPath id="clip0_1175_2802">
<rect width="32" height="32" fill="white"/>
</clipPath>
</defs>
</svg>
