<svg width="120" height="54" viewBox="0 0 120 54" fill="none" xmlns="http://www.w3.org/2000/svg">
<rect x="44" y="4" width="71" height="44" fill="white"/>
<path d="M38.7812 0.122925L29.9647 7.42051L21.1518 0.122925H0V53.4486H21.1765V46.1437L30 53.4486L38.8235 46.1437V53.4486H120V0.122925H38.7812Z" fill="#C43CB4"/>
<path d="M112.941 29.3425H77.647V30.4382H112.941V29.3425Z" fill="white"/>
<path d="M93.5295 7.4278H90.353V27.151H93.5295V7.4278Z" fill="white"/>
<path d="M80.8234 18.3851H87.8823V14.7327H80.8234V12.176H88.5881V8.88879H77.647V24.2291H88.5881V20.9419H80.8234V18.3851Z" fill="white"/>
<path d="M110.118 7.4278V13.637H106.588V16.9242H110.118V27.151H113.294V7.4278H110.118Z" fill="white"/>
<path d="M100.235 7.4278V9.25402H95.9999V12.176H100.235V16.1937L95.647 23.8638L98.1176 25.69L102 19.1156L105.882 25.69L108.353 23.8638L103.765 16.1937V12.176H108V9.25402H103.765V7.4278H100.235Z" fill="white"/>
<path d="M64.5882 25.3248H71.9999V27.8815H64.5882V25.3248ZM61.7646 30.8035H74.8235V22.4028H61.7646V30.8035Z" fill="white"/>
<path d="M74.8234 7.4278H71.647V21.3071H74.8234V7.4278Z" fill="white"/>
<path d="M66.353 15.8284H67.7648V21.3071H70.9413V7.4278H67.7648V12.9065H66.353V15.8284Z" fill="white"/>
<path d="M61.7649 9.25403C59.0367 9.25403 56.8237 11.5441 56.8237 14.3675C56.8237 17.1908 59.0367 19.4809 61.7649 19.4809C64.4931 19.4809 66.7061 17.1908 66.7061 14.3675C66.7061 11.5441 64.4931 9.25403 61.7649 9.25403ZM61.7649 16.1937C60.7908 16.1937 60.0002 15.3755 60.0002 14.3675C60.0002 13.3594 60.7908 12.5412 61.7649 12.5412C62.739 12.5412 63.5296 13.3594 63.5296 14.3675C63.5296 15.3755 62.739 16.1937 61.7649 16.1937Z" fill="white"/>
<path d="M97.0586 42.4913H100.588V43.2291C98.1527 43.2875 97.4115 43.7843 97.4115 44.8617C97.4115 45.9392 98.1598 46.509 101.117 46.509C104.075 46.509 104.823 46.0196 104.823 44.8617C104.823 43.8573 104.167 43.2948 101.647 43.2291V42.4913H105.176V41.3956H97.0586V42.4913ZM103.588 44.8581C103.588 45.2306 103.263 45.4133 101.117 45.4133C98.9715 45.4133 98.6468 45.216 98.6468 44.8581C98.6468 44.5001 98.9715 44.3175 101.117 44.3175C103.263 44.3175 103.588 44.5075 103.588 44.8581Z" fill="white"/>
<path d="M97.4116 39.752L97.7646 40.6651C97.7646 40.6651 99.8963 40.2487 101.118 39.9346C102.328 40.2304 104.47 40.6651 104.47 40.6651L104.823 39.752L101.647 39.0215V38.4736H104.47V37.3779H97.7646V38.4736H100.588V39.0215L97.4116 39.752Z" fill="white"/>
<path d="M111.889 43.2218H105.889V44.3175H111.889V46.509H112.948V43.2218H111.889Z" fill="white"/>
<path d="M109.764 39.3283C109.729 39.321 109.143 39.2041 108.547 39.2041H108.519C107.922 39.2041 107.336 39.321 107.301 39.3283C106.503 39.5146 106.104 39.8396 105.956 40.3291C105.91 40.4825 105.889 40.6578 105.889 40.8404V40.8477C105.889 41.034 105.91 41.2093 105.956 41.359C106.104 41.8485 106.503 42.1772 107.301 42.3598C107.336 42.3671 107.922 42.484 108.519 42.484H108.547C109.143 42.484 109.729 42.3671 109.764 42.3598C110.562 42.1735 110.961 41.8485 111.109 41.359C111.155 41.2056 111.176 41.0303 111.176 40.8477V40.8404C111.176 40.6541 111.155 40.4788 111.109 40.3291C110.961 39.8396 110.562 39.5109 109.764 39.3283ZM109.941 40.855C109.941 40.9682 109.913 41.0668 109.814 41.1435C109.814 41.1435 109.514 41.4138 108.529 41.4138C107.544 41.4138 107.244 41.1435 107.244 41.1435C107.146 41.0632 107.117 40.9682 107.117 40.855C107.117 40.855 107.117 40.8514 107.117 40.8477V40.8404C107.117 40.7272 107.146 40.6286 107.244 40.5519C107.244 40.5519 107.544 40.2816 108.529 40.2816C109.514 40.2816 109.814 40.5519 109.814 40.5519C109.913 40.6322 109.941 40.7272 109.941 40.8404C109.941 40.8404 109.941 40.844 109.941 40.8477V40.855Z" fill="white"/>
<path d="M111.536 37.7431H109.066V36.7387H108.007V37.7431H105.536V38.8389H111.536V37.7431Z" fill="white"/>
<path d="M112.941 39.2041V37.0126H111.882V42.0384V42.4V42.4913H112.941V42.4V42.0384V40.5738V40.2998H114V39.2041H112.941Z" fill="white"/>
</svg>
