
<svg xmlns="http://www.w3.org/2000/svg">
  <symbol id="bg-recently" viewBox="0 0 40 19">
    <path fill-rule="evenodd" clip-rule="evenodd" d="M12.0288 0C10.9998 0 10.0103 0.396572 9.26615 1.10727L1.52641 8.49894C0.669764 9.31705 0.707909 10.6963 1.60846 11.4658L9.30327 18.041C10.0276 18.6599 10.9491 19 11.9018 19H35.9999C38.209 19 39.9999 17.2091 39.9999 15V4C39.9999 1.79086 38.209 0 35.9999 0H12.0288ZM8.49991 12C9.88062 12 10.9999 10.8807 10.9999 9.5C10.9999 8.11929 9.88062 7 8.49991 7C7.1192 7 5.99991 8.11929 5.99991 9.5C5.99991 10.8807 7.1192 12 8.49991 12Z" fill="red"/>
  </symbol>
	</svg>