<svg width="42" height="42" viewBox="0 0 42 42" fill="none" xmlns="http://www.w3.org/2000/svg">
<circle cx="21" cy="21" r="21" fill="url(#paint0_linear_1175_2511)"/>
<path fill-rule="evenodd" clip-rule="evenodd" d="M29.4623 26.3316C30.8146 24.5576 31.6176 22.3426 31.6176 19.9401C31.6176 17.6641 30.897 15.5559 29.6712 13.8319H29.6708V13.8312L29.6698 13.8312C29.5996 13.8229 29.5248 13.8163 29.4518 13.8098C29.4264 13.8076 29.4012 13.8053 29.3765 13.8031C29.2154 13.7886 29.0529 13.7791 28.8896 13.7728C28.762 13.7678 28.6344 13.7646 28.5057 13.7646C28.0806 13.765 27.6621 13.7932 27.2517 13.8471C26.3408 13.9659 25.4647 14.2103 24.656 14.5568C24.1074 14.792 23.3152 15.2552 22.9162 15.5274C22.1445 16.0537 21.1965 16.7792 20.3814 17.4367C19.2166 18.3759 17.8879 19.3295 16.4851 19.3845C14.1611 19.4755 12.2356 17.5583 12.2324 15.2333C12.232 14.8519 12.2821 14.4824 12.3766 14.1313C12.408 14.015 12.4443 13.9004 12.4852 13.7883L12.4894 13.7735C11.2379 15.5083 10.5004 17.638 10.5004 19.9401C10.5004 20.9036 10.6304 21.8368 10.8726 22.7238C10.874 22.7291 10.8757 22.7342 10.8774 22.7393C10.8791 22.7444 10.8807 22.7495 10.8822 22.7548C10.9438 22.978 11.0129 23.198 11.0884 23.4148C11.1017 23.453 11.1164 23.4908 11.131 23.5285C11.1396 23.5506 11.1481 23.5727 11.1564 23.5949C11.2178 23.7613 11.2816 23.9263 11.351 24.0888C11.3725 24.1389 11.3952 24.1883 11.4179 24.2377C11.428 24.2596 11.438 24.2816 11.448 24.3035C11.5153 24.4512 11.5848 24.5979 11.6585 24.7417C11.6965 24.8158 11.736 24.8891 11.7755 24.9621C11.8509 25.1006 11.9289 25.2374 12.0099 25.3724C12.0533 25.4444 12.0967 25.5156 12.1414 25.5864C12.2267 25.7207 12.3159 25.8526 12.4069 25.9827C12.4204 26.0019 12.4339 26.0213 12.4473 26.0406C12.4794 26.0867 12.5114 26.1328 12.5447 26.178C12.6456 26.3155 12.751 26.4491 12.8585 26.5813C12.8764 26.6033 12.894 26.6255 12.9115 26.6478C12.9354 26.6781 12.9592 26.7084 12.984 26.7378C13.1219 26.9014 13.2646 27.0601 13.412 27.2148C13.4194 27.2226 13.4266 27.2306 13.4337 27.2386C13.4417 27.2476 13.4497 27.2566 13.4582 27.2652C13.6267 27.4397 13.8012 27.6086 13.9813 27.7715C13.9842 27.774 13.9866 27.7768 13.9891 27.7792L13.9888 27.7796L13.9884 27.7799C13.0094 28.7533 11.8227 29.518 10.5 30.001C11.3902 30.3207 12.4862 30.4956 13.4867 30.4956C14.7171 30.4956 15.9101 30.1815 16.9741 29.6763C16.9743 29.6762 16.9744 29.676 16.9746 29.6759C17.9804 30.0981 19.0652 30.3693 20.2009 30.4608C20.4837 30.4838 20.7698 30.4956 21.0586 30.4956C24.3388 30.4956 27.2696 29.0003 29.2062 26.6544C29.2936 26.5485 29.379 26.4409 29.4623 26.3316Z" fill="white"/>
<path fill-rule="evenodd" clip-rule="evenodd" d="M28.8892 13.7735C29.0524 13.7795 29.2149 13.789 29.376 13.8035L29.3764 13.8038C29.4014 13.8061 29.427 13.8084 29.4528 13.8107C29.5254 13.8171 29.6001 13.8237 29.6701 13.832L29.6619 13.8334L29.6606 13.8337C29.6024 13.8452 27.6843 14.223 26.0516 15.6649C24.633 16.9176 23.6558 19.4899 23.1412 20.8446C23.1135 20.9177 23.0871 20.9872 23.062 21.0528C23.0387 21.1139 23.015 21.1761 22.9909 21.2395C22.7956 21.7524 22.5736 22.3355 22.31 22.9188C21.648 24.5341 20.7067 26.5842 19.7485 27.64C19.0282 28.4336 18.0697 29.1567 16.9743 29.6767C15.9103 30.1819 14.7173 30.496 13.487 30.496C12.4865 30.496 11.3904 30.3211 10.5002 30.0014C11.823 29.5184 13.0096 28.7537 13.9886 27.7803L13.989 27.78L13.9893 27.7796C11.8473 25.8481 10.5002 23.0521 10.5002 19.9409C10.5002 17.6388 11.2378 15.5091 12.4893 13.7742L12.4851 13.789C12.4442 13.9011 12.4078 14.0157 12.3765 14.132C12.2816 14.4832 12.2316 14.8526 12.2319 15.2341C12.2351 17.5591 14.1607 19.4762 16.4846 19.3853C17.8874 19.3303 19.2161 18.3767 20.3809 17.4375C21.196 16.78 22.144 16.0545 22.9157 15.5281C23.3148 15.256 24.1069 14.7927 24.6555 14.5576C25.4642 14.211 26.3403 13.9667 27.2513 13.8479C27.6616 13.794 28.0801 13.7658 28.5053 13.7654C28.6339 13.7651 28.7616 13.7686 28.8892 13.7735Z" fill="white"/>
<path d="M20.9858 19.93C21.3049 19.93 21.5636 19.6401 21.5636 19.2824C21.5636 18.9247 21.3049 18.6348 20.9858 18.6348C20.6667 18.6348 20.408 18.9247 20.408 19.2824C20.408 19.6401 20.6667 19.93 20.9858 19.93Z" fill="url(#paint1_linear_1175_2511)"/>
<path d="M31.1248 12.7507C29.9998 13.0007 27.4023 13.6223 26.6248 17.2507C25.2587 23.6257 23.9998 24.7507 20.6248 27.3757L15.7498 30.7507" stroke="#1D2B7D" stroke-width="1.125"/>
<defs>
<linearGradient id="paint0_linear_1175_2511" x1="3.50068" y1="3.50068" x2="39.1814" y2="39.1814" gradientUnits="userSpaceOnUse">
<stop stop-color="#2032AC"/>
<stop offset="0.24" stop-color="#1D2E91"/>
<stop offset="0.49" stop-color="#1C2B7D"/>
<stop offset="0.74" stop-color="#1B2971"/>
<stop offset="0.99" stop-color="#1B296D"/>
</linearGradient>
<linearGradient id="paint1_linear_1175_2511" x1="20.9858" y1="15.9657" x2="20.9858" y2="23.662" gradientUnits="userSpaceOnUse">
<stop stop-color="#21CCB4"/>
<stop offset="0.13" stop-color="#1F5CB6"/>
<stop offset="0.19" stop-color="#1F2DB7"/>
<stop offset="0.24" stop-color="#1E2BA9"/>
<stop offset="0.37" stop-color="#1B288A"/>
<stop offset="0.51" stop-color="#1A2671"/>
<stop offset="0.65" stop-color="#182460"/>
<stop offset="0.81" stop-color="#182356"/>
<stop offset="0.99" stop-color="#182353"/>
</linearGradient>
</defs>
</svg>
