<svg width="44" height="44" viewBox="0 0 44 44" fill="none" xmlns="http://www.w3.org/2000/svg">
<g filter="url(#filter0_d_3436_186558)">
<rect x="2" y="3.72095" width="29.7674" height="29.7674" fill="#EDEDED"/>
</g>
<path d="M12.5724 26.382C11.9884 26.382 11.4524 26.282 10.9644 26.082C10.4764 25.874 10.0644 25.578 9.7284 25.194L10.9404 23.982C11.0924 24.206 11.3124 24.39 11.6004 24.534C11.8964 24.67 12.2084 24.738 12.5364 24.738C12.8324 24.738 13.0884 24.686 13.3044 24.582C13.5204 24.478 13.6884 24.33 13.8084 24.138C13.9364 23.946 14.0004 23.718 14.0004 23.454C14.0004 23.19 13.9364 22.966 13.8084 22.782C13.6884 22.59 13.5084 22.442 13.2684 22.338C13.0364 22.234 12.7564 22.182 12.4284 22.182C12.2764 22.182 12.1164 22.194 11.9484 22.218C11.7884 22.234 11.6524 22.262 11.5404 22.302L12.3684 21.258C12.5924 21.194 12.8044 21.142 13.0044 21.102C13.2124 21.054 13.4044 21.03 13.5804 21.03C14.0124 21.03 14.4004 21.134 14.7444 21.342C15.0884 21.542 15.3604 21.83 15.5604 22.206C15.7684 22.574 15.8724 23.014 15.8724 23.526C15.8724 24.086 15.7324 24.582 15.4524 25.014C15.1804 25.446 14.7964 25.782 14.3004 26.022C13.8124 26.262 13.2364 26.382 12.5724 26.382ZM11.5404 22.302V21.258L13.6044 18.834L15.7164 18.822L13.5684 21.27L11.5404 22.302ZM10.2564 19.374V17.778H15.7164V18.822L14.2404 19.374H10.2564ZM20.2475 26.382C19.5675 26.382 18.9515 26.198 18.3995 25.83C17.8475 25.462 17.4115 24.95 17.0915 24.294C16.7795 23.63 16.6235 22.866 16.6235 22.002C16.6235 21.13 16.7795 20.37 17.0915 19.722C17.4035 19.066 17.8315 18.558 18.3755 18.198C18.9195 17.83 19.5355 17.646 20.2235 17.646C20.9195 17.646 21.5395 17.83 22.0835 18.198C22.6275 18.558 23.0555 19.066 23.3675 19.722C23.6875 20.378 23.8475 21.142 23.8475 22.014C23.8475 22.886 23.6875 23.65 23.3675 24.306C23.0555 24.962 22.6275 25.474 22.0835 25.842C21.5475 26.202 20.9355 26.382 20.2475 26.382ZM20.2355 24.714C20.5875 24.714 20.8915 24.614 21.1475 24.414C21.4035 24.206 21.5995 23.902 21.7355 23.502C21.8795 23.094 21.9515 22.598 21.9515 22.014C21.9515 21.422 21.8795 20.926 21.7355 20.526C21.5995 20.126 21.4035 19.826 21.1475 19.626C20.8915 19.418 20.5835 19.314 20.2235 19.314C19.8795 19.314 19.5755 19.414 19.3115 19.614C19.0555 19.814 18.8595 20.114 18.7235 20.514C18.5875 20.914 18.5195 21.41 18.5195 22.002C18.5195 22.594 18.5875 23.09 18.7235 23.49C18.8595 23.89 19.0555 24.194 19.3115 24.402C19.5755 24.61 19.8835 24.714 20.2355 24.714Z" fill="#C8C8C8"/>
<rect x="2" y="2.79071" width="29.7674" height="6.51163" fill="#24A29E"/>
<g filter="url(#filter1_d_3436_186558)">
<circle cx="29.907" cy="27.907" r="12.093" fill="#6BBFE5"/>
</g>
<path d="M28.5815 29.6333V28.1532H30.4385C30.6747 28.1532 30.8905 28.1046 31.086 28.0076C31.2815 27.9105 31.4362 27.769 31.5502 27.583C31.6643 27.3969 31.7213 27.1705 31.7213 26.9036C31.7213 26.6447 31.6643 26.4223 31.5502 26.2363C31.4362 26.0503 31.2815 25.9087 31.086 25.8117C30.8905 25.7146 30.6747 25.6661 30.4385 25.6661H28.5815V24.186H30.7195C31.2652 24.186 31.7579 24.2952 32.1977 24.5135C32.6375 24.7319 32.9837 25.0474 33.2362 25.4598C33.4968 25.8642 33.6271 26.3455 33.6271 26.9036C33.6271 27.4616 33.4968 27.9469 33.2362 28.3594C32.9837 28.7638 32.6375 29.0793 32.1977 29.3057C31.7579 29.5241 31.2652 29.6333 30.7195 29.6333H28.5815ZM27.1155 32.1446L27.1155 24.186H29.0335L29.0335 32.1446H27.1155Z" fill="white"/>
<path d="M8.51196 0L8.51196 5.5814" stroke="#258481" stroke-width="4"/>
<path d="M25.2551 0L25.2551 5.5814" stroke="#258481" stroke-width="4"/>
<defs>
<filter id="filter0_d_3436_186558" x="0" y="3.72095" width="33.7673" height="33.7675" filterUnits="userSpaceOnUse" color-interpolation-filters="sRGB">
<feFlood flood-opacity="0" result="BackgroundImageFix"/>
<feColorMatrix in="SourceAlpha" type="matrix" values="0 0 0 0 0 0 0 0 0 0 0 0 0 0 0 0 0 0 127 0" result="hardAlpha"/>
<feOffset dy="2"/>
<feGaussianBlur stdDeviation="1"/>
<feComposite in2="hardAlpha" operator="out"/>
<feColorMatrix type="matrix" values="0 0 0 0 0 0 0 0 0 0 0 0 0 0 0 0 0 0 0.1 0"/>
<feBlend mode="normal" in2="BackgroundImageFix" result="effect1_dropShadow_3436_186558"/>
<feBlend mode="normal" in="SourceGraphic" in2="effect1_dropShadow_3436_186558" result="shape"/>
</filter>
<filter id="filter1_d_3436_186558" x="15.814" y="15.814" width="28.186" height="28.186" filterUnits="userSpaceOnUse" color-interpolation-filters="sRGB">
<feFlood flood-opacity="0" result="BackgroundImageFix"/>
<feColorMatrix in="SourceAlpha" type="matrix" values="0 0 0 0 0 0 0 0 0 0 0 0 0 0 0 0 0 0 127 0" result="hardAlpha"/>
<feOffset dy="2"/>
<feGaussianBlur stdDeviation="1"/>
<feComposite in2="hardAlpha" operator="out"/>
<feColorMatrix type="matrix" values="0 0 0 0 0 0 0 0 0 0 0 0 0 0 0 0 0 0 0.05 0"/>
<feBlend mode="normal" in2="BackgroundImageFix" result="effect1_dropShadow_3436_186558"/>
<feBlend mode="normal" in="SourceGraphic" in2="effect1_dropShadow_3436_186558" result="shape"/>
</filter>
</defs>
</svg>
