<svg width="20" height="20" viewBox="0 0 20 20" fill="none" xmlns="http://www.w3.org/2000/svg">
<rect width="20" height="20" fill="#B6B6B6"/>
<rect width="1407" height="6275" transform="translate(-409 -1723)" fill="white"/>
<rect x="-307.5" y="-19.5" width="341" height="59" rx="4.5" stroke="#9747FF" stroke-dasharray="10 5"/>
<path d="M20 0H0V20H20V0Z" fill="#8FA7C5"/>
<path d="M8.85866 5.63492C8.42097 5.63492 8.06079 5.65697 7.77812 5.70106C7.50456 5.74515 7.2766 5.83774 7.09422 5.97884C6.92097 6.11993 6.77964 6.31834 6.67021 6.57407C6.56991 6.82099 6.47416 7.15168 6.38298 7.56614H6L6.09574 5H14.9043L15 7.56614H14.617C14.5258 7.15168 14.4255 6.82099 14.3161 6.57407C14.2158 6.31834 14.079 6.11993 13.9058 5.97884C13.7325 5.83774 13.5046 5.74515 13.2219 5.70106C12.9392 5.65697 12.5745 5.63492 12.1277 5.63492H11.2933V13.373C11.2933 13.6464 11.3116 13.8668 11.348 14.0344C11.3845 14.2019 11.4529 14.3342 11.5532 14.4312C11.6626 14.5282 11.8131 14.5988 12.0046 14.6429C12.2052 14.6781 12.465 14.7046 12.7842 14.7222V15H8.24316V14.7222C8.56231 14.7046 8.81763 14.6781 9.00912 14.6429C9.20061 14.5988 9.3465 14.5238 9.44681 14.418C9.55623 14.3034 9.62462 14.149 9.65198 13.955C9.68845 13.761 9.70669 13.5053 9.70669 13.1878V5.63492H8.85866Z" fill="white"/>
</svg>
