<svg width="48" height="48" viewBox="0 0 48 48" fill="none" xmlns="http://www.w3.org/2000/svg">
<path d="M29.1244 6H2.8756C1.28745 6 0 7.28724 0 8.87513V39.2539C0 40.8418 1.28745 42.129 2.8756 42.129H29.1244C30.7125 42.129 32 40.8418 32 39.2539V8.87513C32 7.28724 30.7125 6 29.1244 6Z" fill="#DBE5EA"/>
<path d="M27.4003 19.3031H4.59991C3.95767 19.3031 3.43115 18.7882 3.43115 18.1577V10.3036C3.43115 9.67307 3.95767 9.1582 4.59991 9.1582H27.4003C28.0425 9.1582 28.569 9.67307 28.569 10.3036V18.1596C28.569 18.7882 28.0425 19.305 27.4003 19.305V19.3031Z" fill="#315764"/>
<path d="M8.5554 25.5259C8.5554 25.8074 8.34132 26.035 8.0771 26.035H3.90738C3.64316 26.035 3.42908 25.8074 3.42908 25.5259V22.6006C3.42908 22.3191 3.64316 22.0916 3.90738 22.0916H8.0771C8.34132 22.0916 8.5554 22.3191 8.5554 22.6006V25.5259Z" fill="#315764"/>
<path d="M15.2267 25.5259C15.2267 25.8074 15.0126 26.035 14.7503 26.035H10.5825C10.3183 26.035 10.1042 25.8074 10.1042 25.5259V22.6006C10.1042 22.3191 10.3183 22.0916 10.5825 22.0916H14.7503C15.0145 22.0916 15.2267 22.3191 15.2267 22.6006V25.5259Z" fill="#315764"/>
<path d="M21.8978 25.5259C21.8978 25.8074 21.6837 26.035 21.4195 26.035H17.2498C16.9856 26.035 16.7715 25.8074 16.7715 25.5259V22.6006C16.7715 22.3191 16.9856 22.0916 17.2498 22.0916H21.4195C21.6837 22.0916 21.8978 22.3191 21.8978 22.6006V25.5259Z" fill="#315764"/>
<path d="M8.55553 31.4802C8.55553 31.7618 8.34145 31.9893 8.07722 31.9893H3.9075C3.64328 31.9893 3.4292 31.7618 3.4292 31.4802V28.555C3.4292 28.2734 3.64328 28.0459 3.9075 28.0459H8.07722C8.34145 28.0459 8.55553 28.2734 8.55553 28.555V31.4802Z" fill="#315764"/>
<path d="M15.2265 31.4802C15.2265 31.7618 15.0124 31.9893 14.7501 31.9893H10.5823C10.3181 31.9893 10.104 31.7618 10.104 31.4802V28.555C10.104 28.2734 10.3181 28.0459 10.5823 28.0459H14.7501C15.0143 28.0459 15.2265 28.2734 15.2265 28.555V31.4802Z" fill="#315764"/>
<path d="M21.8978 31.4802C21.8978 31.7618 21.6837 31.9893 21.4195 31.9893H17.2498C16.9856 31.9893 16.7715 31.7618 16.7715 31.4802V28.555C16.7715 28.2734 16.9856 28.0459 17.2498 28.0459H21.4195C21.6837 28.0459 21.8978 28.2734 21.8978 28.555V31.4802Z" fill="#315764"/>
<path d="M8.55553 37.4353C8.55553 37.7169 8.34145 37.9444 8.07722 37.9444H3.9075C3.64328 37.9444 3.4292 37.7169 3.4292 37.4353V34.5101C3.4292 34.2285 3.64328 34.001 3.9075 34.001H8.07722C8.34145 34.001 8.55553 34.2285 8.55553 34.5101V37.4353Z" fill="#315764"/>
<path d="M15.2265 37.4353C15.2265 37.7169 15.0124 37.9444 14.7501 37.9444H10.5823C10.3181 37.9444 10.104 37.7169 10.104 37.4353V34.5101C10.104 34.2285 10.3181 34.001 10.5823 34.001H14.7501C15.0143 34.001 15.2265 34.2285 15.2265 34.5101V37.4353Z" fill="#315764"/>
<path d="M21.8978 37.4353C21.8978 37.7169 21.6837 37.9444 21.4195 37.9444H17.2498C16.9856 37.9444 16.7715 37.7169 16.7715 37.4353V34.5101C16.7715 34.2285 16.9856 34.001 17.2498 34.001H21.4195C21.6837 34.001 21.8978 34.2285 21.8978 34.5101V37.4353Z" fill="#315764"/>
<path d="M28.0907 22.0938H23.9229C23.6587 22.0938 23.4446 22.3213 23.4446 22.6028V37.4355C23.4446 37.717 23.6587 37.9446 23.9229 37.9446H28.0907C28.3549 37.9446 28.569 37.717 28.569 37.4355V22.6028C28.569 22.3213 28.3549 22.0938 28.0907 22.0938Z" fill="#FFD54D"/>
</svg>