<svg width="17" height="15" viewBox="0 0 17 15" fill="none" xmlns="http://www.w3.org/2000/svg">
<path fill-rule="evenodd" clip-rule="evenodd" d="M11.7328 0C11.5137 8.11711e-05 11.2899 0.0672725 11.0684 0.199179L5.7274 3.38444C5.48583 3.52843 5.11387 3.66281 4.75311 3.7476V10.3845C5.11387 10.4693 5.48583 10.6029 5.7274 10.7477L11.0676 13.9329C11.2892 14.0649 11.5132 14.1321 11.7324 14.1321C12.3211 14.1321 12.7323 13.6618 12.7323 12.9874V1.14468C12.7323 0.470504 12.3213 0.00021471 11.7328 0ZM3.58627 3.83964H1.95444C1.10173 3.83964 0.408203 4.53316 0.408203 5.38587V8.74472C0.408203 9.59743 1.10173 10.291 1.95444 10.291H3.58627V3.83964ZM14.6286 9.13209C14.5239 9.13209 14.4207 9.1253 14.3196 9.11214V4.40972C14.4207 4.39656 14.5239 4.38977 14.6286 4.38977C15.9382 4.38977 16.9998 5.45137 16.9998 6.76093C16.9998 8.07048 15.9382 9.13209 14.6286 9.13209Z" fill="#36BAC1"/>
</svg>
