<svg width="48" height="48" viewBox="0 0 48 48" fill="none" xmlns="http://www.w3.org/2000/svg">
<g clip-path="url(#clip0_4119_673)">
<path d="M4.5 1.50073H34.5C36.1569 1.50073 37.5 2.84388 37.5 4.50073V40.5007C37.5 42.1576 36.1569 43.5007 34.5 43.5007H4.5V1.50073Z" fill="#D984CF"/>
<path d="M0 6.00073C0 3.51545 2.01472 1.50073 4.5 1.50073V43.5007C2.01472 43.5007 0 41.486 0 39.0007V6.00073Z" fill="#6BBFE5"/>
<path fill-rule="evenodd" clip-rule="evenodd" d="M10.5 12.9382C10.5 11.592 11.5913 10.5007 12.9375 10.5007C13.6168 10.5007 14.2313 10.7786 14.6733 11.227L14.6758 11.2245L26.748 24.0752V15.3757C26.748 12.6833 28.9307 10.5007 31.623 10.5007V27.5632C31.623 28.9094 30.5317 30.0007 29.1855 30.0007C28.5127 30.0007 27.9036 29.7281 27.4625 29.2874L27.46 29.2899L15.375 16.4257V25.1257C15.375 27.8181 13.1924 30.0007 10.5 30.0007V12.9382Z" fill="white"/>
<path d="M35.0794 26.0881C34.738 26.4373 34.5469 26.9062 34.5469 27.3946C34.5469 27.8829 34.738 28.3519 35.0794 28.7011L38.8444 32.5216C39.012 32.6932 39.2123 32.8297 39.4335 32.9228C39.6546 33.0159 39.8922 33.0639 40.1321 33.0639C40.3721 33.0639 40.6096 33.0159 40.8308 32.9228C41.0519 32.8297 41.2522 32.6932 41.4199 32.5216L47.3779 26.4766C47.7192 26.1274 47.9104 25.6584 47.9104 25.1701C47.9104 24.6817 47.7192 24.2128 47.3779 23.8636L43.6024 20.0431C43.4347 19.8714 43.2344 19.735 43.0133 19.6418C42.7921 19.5487 42.5546 19.5007 42.3146 19.5007C42.0747 19.5007 41.8371 19.5487 41.616 19.6418C41.3948 19.735 41.1945 19.8714 41.0269 20.0431L35.0689 26.0836L35.0794 26.0881Z" fill="#F56A3C"/>
<path d="M38.6119 22.0052L45.4444 28.9337L43.2544 31.1567L36.4219 24.2282L38.6119 22.0052Z" fill="#F1F1F1"/>
<path d="M28.6264 32.1332L32.0389 35.5952L35.4559 39.0617L29.6299 40.5407L27.1699 38.0447L28.6264 32.1332Z" fill="#FAE4D4"/>
<path d="M27.1701 38.0446L29.6301 40.5406L26.3496 41.3716L27.1701 38.0446Z" fill="black"/>
<path fill-rule="evenodd" clip-rule="evenodd" d="M36.423 24.2236L38.5785 26.4121L30.7785 34.3231L28.623 32.1346L36.423 24.2236ZM41.0955 28.9621L43.2525 31.1506L35.4525 39.0616L33.2955 36.8731L30.7785 34.3231L38.5785 26.4121L41.0955 28.9621Z" fill="#3E6CF2"/>
</g>
<defs>
<clipPath id="clip0_4119_673">
<rect width="48" height="48" fill="white" transform="translate(0 0.000732422)"/>
</clipPath>
</defs>
</svg>
