<svg width="32" height="32" viewBox="0 0 32 32" fill="none" xmlns="http://www.w3.org/2000/svg">
<rect x="1.33325" y="1.3335" width="28" height="28" rx="2" fill="#316361"/>
<path opacity="0.6" d="M5.33325 4.5C5.33325 4.22386 5.55711 4 5.83325 4H24.8333C25.1094 4 25.3333 4.22386 25.3333 4.5V18C25.3333 19.1046 24.4378 20 23.3333 20H7.33325C6.22868 20 5.33325 19.1046 5.33325 18V4.5Z" fill="#D8DFEE"/>
<path d="M4 7.1665C4 6.89036 4.22386 6.6665 4.5 6.6665H26.1667C26.4428 6.6665 26.6667 6.89036 26.6667 7.1665V24.6665C26.6667 25.7711 25.7712 26.6665 24.6667 26.6665H6C4.89543 26.6665 4 25.7711 4 24.6665V7.1665Z" fill="white"/>
<path d="M1.33325 9.3335H29.3333V27.3335C29.3333 28.4381 28.4378 29.3335 27.3333 29.3335H3.33325C2.22868 29.3335 1.33325 28.4381 1.33325 27.3335V9.3335Z" fill="#24A29E"/>
<path fill-rule="evenodd" clip-rule="evenodd" d="M14.75 14.6665H15.9169V19.5661L17.8996 17.5831L18.7242 18.4077L16.2496 20.8826L15.425 21.7073L14.6005 20.8826L12.1259 18.4077L12.9504 17.5831L14.75 19.3828V14.6665ZM11.8337 21.6667V22.8338H18.8332V21.6667H20.0001V23.9998H10.6667V21.6667H11.8337Z" fill="white"/>
</svg>
