<svg width="20" height="20" viewBox="0 0 20 20" fill="none" xmlns="http://www.w3.org/2000/svg">
<path d="M20 0H0V20H20V0Z" fill="#CC5EC8"/>
<path d="M9.42857 10.8531V5H14V6.66675H10.5714V12.7782C10.5713 13.2674 10.4052 13.7428 10.0988 14.1309C9.79245 14.5189 9.36295 14.7978 8.87693 14.9244C8.39091 15.0509 7.87553 15.018 7.41072 14.8307C6.9459 14.6434 6.55762 14.3123 6.3061 13.8886C6.05458 13.4649 5.95387 12.9724 6.01958 12.4874C6.0853 12.0024 6.31377 11.552 6.66956 11.2062C7.02536 10.8603 7.4886 10.6382 7.98743 10.5743C8.48627 10.5105 8.99284 10.6085 9.42857 10.8531Z" fill="white"/>
</svg>
