<svg width="40" height="40" viewBox="0 0 40 40" fill="none" xmlns="http://www.w3.org/2000/svg">
<path d="M10.3532 35C4.88296 35 2 30.9286 2 23.8571C2 16.8524 5.23136 11.3238 11.9036 7.37235C13.3053 6.54227 15.0782 7.16113 15.8116 8.61572L15.8892 8.76966C16.6589 10.2963 15.9736 12.1245 14.5391 13.0547C11.4149 15.0805 9.78795 17.653 9.5663 21.0387C9.53906 21.4549 9.93606 21.7857 10.3532 21.7857C14.0493 21.7857 17.0801 24.2143 17.0801 28.0714C17.0801 32.2857 14.271 35 10.3532 35ZM31.0513 35C25.5811 35 22.6982 30.9286 22.6982 23.8571C22.6982 16.8524 25.9295 11.3238 32.6018 7.37235C34.0034 6.54227 35.7764 7.16113 36.5098 8.61572L36.5874 8.76966C37.3571 10.2963 36.6718 12.1245 35.2373 13.0547C32.113 15.0805 30.4861 17.653 30.2645 21.0387C30.2372 21.4549 30.6342 21.7857 31.0513 21.7857C34.7474 21.7857 37.7782 24.2143 37.7782 28.0714C37.7782 32.2857 34.9692 35 31.0513 35Z" fill="#DFE6EA"/>
</svg>
