<svg width="48" height="48" viewBox="0 0 48 48" fill="none" xmlns="http://www.w3.org/2000/svg">
<rect x="4.75" y="11.75" width="38.5" height="24.5" rx="5.25" stroke="black" stroke-width="1.5"/>
<path d="M11.9508 26.2141L12.0245 26.2679L12.0848 26.1995L13.1778 24.9591L14.2582 26.199L14.3185 26.2682L14.3926 26.2141L15.2197 25.6102L15.2933 25.5565L15.2466 25.4782L14.4113 24.0779L15.8844 23.415L15.9662 23.3782L15.9385 23.2929L15.6234 22.3214L15.5952 22.2344L15.5061 22.2548L13.9494 22.6102L13.7898 20.9902L13.7809 20.9H13.6903H12.6531H12.5625L12.5536 20.9902L12.394 22.6102L10.8374 22.2548L10.7482 22.2344L10.72 22.3214L10.4049 23.2929L10.3774 23.3777L10.4584 23.4147L11.9075 24.0779L11.0962 25.4793L11.0511 25.5572L11.1237 25.6102L11.9508 26.2141Z" fill="#02A39F" stroke="#02A39F" stroke-width="0.2"/>
<path d="M19.1696 26.2141L19.2433 26.2679L19.3036 26.1995L20.3966 24.9591L21.477 26.199L21.5372 26.2682L21.6113 26.2141L22.4384 25.6102L22.512 25.5565L22.4653 25.4782L21.6301 24.0779L23.1032 23.415L23.1849 23.3782L23.1573 23.2929L22.8422 22.3214L22.814 22.2344L22.7248 22.2548L21.1681 22.6102L21.0086 20.9902L20.9997 20.9H20.909H19.8719H19.7812L19.7723 20.9902L19.6128 22.6102L18.0561 22.2548L17.9669 22.2344L17.9387 22.3214L17.6236 23.2929L17.5962 23.3777L17.6771 23.4147L19.1263 24.0779L18.3149 25.4793L18.2698 25.5572L18.3425 25.6102L19.1696 26.2141Z" fill="#02A39F" stroke="#02A39F" stroke-width="0.2"/>
<path d="M26.3883 26.2141L26.462 26.2679L26.5223 26.1995L27.6153 24.9591L28.6957 26.199L28.756 26.2682L28.8301 26.2141L29.6572 25.6102L29.7308 25.5565L29.6841 25.4782L28.8488 24.0779L30.3219 23.415L30.4037 23.3782L30.376 23.2929L30.0609 22.3214L30.0327 22.2344L29.9436 22.2548L28.3869 22.6102L28.2273 20.9902L28.2184 20.9H28.1278H27.0906H27L26.9911 20.9902L26.8315 22.6102L25.2749 22.2548L25.1857 22.2344L25.1575 22.3214L24.8424 23.2929L24.8149 23.3777L24.8959 23.4147L26.345 24.0779L25.5337 25.4793L25.4886 25.5572L25.5612 25.6102L26.3883 26.2141Z" fill="#02A39F" stroke="#02A39F" stroke-width="0.2"/>
<path d="M33.6081 26.2141L33.6817 26.2679L33.7421 26.1995L34.8351 24.9591L35.9154 26.199L35.9757 26.2682L36.0498 26.2141L36.8769 25.6102L36.9505 25.5565L36.9038 25.4782L36.0685 24.0779L37.5417 23.415L37.6234 23.3782L37.5958 23.2929L37.2807 22.3214L37.2524 22.2344L37.1633 22.2548L35.6066 22.6102L35.447 20.9902L35.4382 20.9H35.3475H34.3103H34.2197L34.2108 20.9902L34.0513 22.6102L32.4946 22.2548L32.4054 22.2344L32.3772 22.3214L32.0621 23.2929L32.0346 23.3777L32.1156 23.4147L33.5647 24.0779L32.7534 25.4793L32.7083 25.5572L32.781 25.6102L33.6081 26.2141Z" fill="#02A39F" stroke="#02A39F" stroke-width="0.2"/>
</svg>
