<svg width="48" height="48" viewBox="0 0 48 48" fill="none" xmlns="http://www.w3.org/2000/svg">
<path d="M38.4013 43.2014V0L0 0V43.2014H38.4013Z" fill="#D984CF"/>
<path fill-rule="evenodd" clip-rule="evenodd" d="M32.8817 8.39709H18.7069V10.9748H32.8817V8.39709ZM26.4383 13.5509H18.7069V16.1285H26.4383V13.5509Z" fill="white"/>
<path fill-rule="evenodd" clip-rule="evenodd" d="M10.9728 24.6152L8.23349 21.8807L6.41583 23.6984L9.15032 26.4329L6.41743 29.1706L8.23349 30.993L10.9664 28.2601L13.6993 30.993L15.5217 29.1706L12.7888 26.4377L15.5281 23.6984L13.7057 21.8807L10.9728 24.6152Z" fill="white"/>
<path d="M10.4003 16.0005C12.6095 16.0005 14.4005 14.2096 14.4005 12.0004C14.4005 9.79116 12.6095 8.00024 10.4003 8.00024C8.19113 8.00024 6.40021 9.79116 6.40021 12.0004C6.40021 14.2096 8.19113 16.0005 10.4003 16.0005Z" stroke="white" stroke-width="2.40008"/>
<path d="M48.0016 36.8012C48.0016 30.6154 42.987 25.6008 36.8012 25.6008C30.6154 25.6008 25.6008 30.6154 25.6008 36.8012C25.6008 42.987 30.6154 48.0016 36.8012 48.0016C42.987 48.0016 48.0016 42.987 48.0016 36.8012Z" fill="#9973EF"/>
<path fill-rule="evenodd" clip-rule="evenodd" d="M36.001 30.401H37.6014V37.1207L40.3207 34.401L41.4516 35.532L38.0577 38.9262L36.9268 40.0572L35.796 38.9262L32.4021 35.532L33.533 34.401L36.001 36.8693V30.401ZM32.0014 40.0016V41.6022H41.601V40.0016H43.2014V43.2014H30.401V40.0016H32.0014Z" fill="white"/>
</svg>
