<svg width="42" height="42" viewBox="0 0 42 42" fill="none" xmlns="http://www.w3.org/2000/svg">
<circle cx="21" cy="21" r="20.625" fill="white" stroke="#E6E6E6" stroke-width="0.75"/>
<path fill-rule="evenodd" clip-rule="evenodd" d="M25.92 11.25H20.8997V14.9414H25.92L24.7146 13.0957L25.92 11.25ZM11.804 20.4934H16.7959L20.7621 15.5857C20.8338 15.4971 20.9689 15.497 21.0405 15.5856L25.01 20.4934H29.9935C30.0924 20.4934 30.1725 20.5735 30.1725 20.6724V29.5918C30.1725 29.6907 30.0924 29.7708 29.9935 29.7708H23.6207V26.9495C23.6207 25.4424 22.3988 24.2206 20.8916 24.2206C19.3845 24.2206 18.1626 25.4424 18.1626 26.9495V29.7708H11.804C11.7051 29.7708 11.625 29.6907 11.625 29.5918V20.6724C11.625 20.5735 11.7051 20.4934 11.804 20.4934Z" fill="#2EC971"/>
</svg>
