<svg width="24" height="24" viewBox="0 0 24 24" fill="none" xmlns="http://www.w3.org/2000/svg">
<path d="M16.8 0H7.2C3.22355 0 0 3.22355 0 7.2V16.8C0 20.7764 3.22355 24 7.2 24H16.8C20.7764 24 24 20.7764 24 16.8V7.2C24 3.22355 20.7764 0 16.8 0Z" fill="#FB647D"/>
<path d="M17.1834 12C17.1834 14.4156 15.484 16.4342 13.2156 16.9257C12.6327 17.052 12.1434 17.5235 12.1434 18.12C12.1434 18.7165 12.6298 19.2085 13.2197 19.1201C16.6856 18.6006 19.3434 15.6107 19.3434 12C19.3434 8.02354 16.1199 4.8 12.1434 4.8C8.66011 4.8 5.75456 7.27354 5.08747 10.5601H4.32267C3.84671 10.5601 3.56022 11.0877 3.8195 11.4869L5.52025 14.1053C5.75683 14.4696 6.29003 14.4696 6.5266 14.1053L8.22736 11.4869C8.48664 11.0877 8.20015 10.5601 7.72418 10.5601H7.31212C7.93175 8.47808 9.86029 6.96006 12.1434 6.96006C14.9269 6.96006 17.1834 9.21651 17.1834 12Z" fill="white"/>
<path d="M11.0998 14.598L14.6998 12.5196C15.0998 12.2887 15.0998 11.7113 14.6998 11.4804L11.0998 9.40196C10.6998 9.17095 10.1998 9.45967 10.1998 9.92154V14.0785C10.1998 14.5403 10.6998 14.8291 11.0998 14.598Z" fill="white"/>
</svg>
