<svg width="48" height="48" viewBox="0 0 48 48" fill="none" xmlns="http://www.w3.org/2000/svg">
<path d="M19.696 7.53442H13.8252C13.5851 7.53442 13.3904 7.72905 13.3904 7.96914V24.571C13.3904 24.8111 13.5851 25.0057 13.8252 25.0057H19.696C19.9361 25.0057 20.1308 24.8111 20.1308 24.571V7.96914C20.1308 7.72905 19.9361 7.53442 19.696 7.53442Z" fill="white"/>
<path d="M34.6568 40.1267L22.1325 19.4058V7.42285H12.8687V19.4037L0.344411 40.1267C-0.633707 41.7438 0.587853 43.7652 2.54409 43.7652H32.4571C34.4112 43.7652 35.6327 41.7438 34.6568 40.1267Z" fill="#DBE9F0"/>
<path d="M22.1327 7.68865C22.1327 6.93659 21.9523 6.22582 21.6328 5.59766H13.3666C13.0471 6.22582 12.8667 6.93659 12.8667 7.68865V8.59721H22.1306V7.68865H22.1327Z" fill="#B3DDE1"/>
<path d="M11.9296 4H23.0714C23.2866 4 23.4627 4.17606 23.4627 4.39125V6.80175C23.4627 7.01694 23.2866 7.193 23.0714 7.193H11.9296C11.7144 7.193 11.5383 7.01694 11.5383 6.80175V4.39125C11.5383 4.17606 11.7144 4 11.9296 4Z" fill="#DBE9F0"/>
<path d="M30.4765 37.9997L20.654 21.4848V13.499H14.3462V21.4848L4.52377 37.9997C3.78475 39.2234 4.70853 40.7515 6.18657 40.7515H28.8115C30.2896 40.7515 31.2133 39.2234 30.4743 37.9997H30.4765Z" fill="url(#paint0_linear_523_340)"/>
<path d="M15.0881 28.0206C15.0881 27.3446 14.5403 26.7969 13.8644 26.7969C13.1884 26.7969 12.6406 27.3446 12.6406 28.0206C12.6406 28.6966 13.1884 29.2443 13.8644 29.2443C14.5403 29.2443 15.0881 28.6966 15.0881 28.0206Z" fill="white"/>
<path d="M15.7746 30.6829C15.7746 30.3026 15.4659 29.9961 15.0877 29.9961C14.7095 29.9961 14.4009 30.3047 14.4009 30.6829C14.4009 31.0612 14.7095 31.3698 15.0877 31.3698C15.4659 31.3698 15.7746 31.0633 15.7746 30.6829Z" fill="white"/>
<path d="M20.3285 38.2982H18.0462C17.9006 38.2982 17.7832 38.1809 17.7832 38.0352C17.7832 37.8896 17.9006 37.7722 18.0462 37.7722H20.0655V28.7301H18.0462C17.9006 28.7301 17.7832 28.6127 17.7832 28.4671C17.7832 28.3215 17.9006 28.2041 18.0462 28.2041H20.3285C20.4741 28.2041 20.5915 28.3215 20.5915 28.4671V38.0352C20.5915 38.1809 20.4741 38.2982 20.3285 38.2982Z" fill="white"/>
<path d="M20.3284 31.0572H18.0462C17.9744 31.0572 17.9136 30.9985 17.9136 30.9246C17.9136 30.8507 17.9723 30.792 18.0462 30.792H20.3284C20.4002 30.792 20.4589 30.8507 20.4589 30.9246C20.4589 30.9985 20.4002 31.0572 20.3284 31.0572Z" fill="white"/>
<path d="M20.3284 33.3824H18.0462C17.9744 33.3824 17.9136 33.3237 17.9136 33.2498C17.9136 33.1759 17.9723 33.1172 18.0462 33.1172H20.3284C20.4002 33.1172 20.4589 33.1759 20.4589 33.2498C20.4589 33.3237 20.4002 33.3824 20.3284 33.3824Z" fill="white"/>
<path d="M20.3284 35.8382H18.0462C17.9744 35.8382 17.9136 35.7795 17.9136 35.7078C17.9136 35.6361 17.9723 35.5752 18.0462 35.5752H20.3284C20.4002 35.5752 20.4589 35.6339 20.4589 35.7078C20.4589 35.7817 20.4002 35.8382 20.3284 35.8382Z" fill="white"/>
<defs>
<linearGradient id="paint0_linear_523_340" x1="17.499" y1="13.499" x2="17.499" y2="40.7515" gradientUnits="userSpaceOnUse">
<stop stop-color="#F5FABD"/>
<stop offset="0.8" stop-color="#FCABCD"/>
</linearGradient>
</defs>
</svg>