<svg width="48" height="48" viewBox="0 0 48 48" fill="none" xmlns="http://www.w3.org/2000/svg">
<rect y="10" width="28" height="28" rx="2.89655" fill="#315764"/>
<path fill-rule="evenodd" clip-rule="evenodd" d="M17.3795 14.1836V20.6207H23.8165V22.5518H15.4487V22.5514H15.4485V14.1836H17.3795ZM4.18427 14.1837H12.5521V16.4366H12.5517V22.5518H10.6207V16.4366H4.18427V14.1837ZM15.4482 27.3789H22.2071V28.6662H15.4483V30.2754H15.4483V31.5626H15.4482V33.8154H15.4483H17.3794H23.816V31.5626H17.3794V30.2754H22.2071H23.8161H23.8163V25.7696H23.816V25.4479H15.4482V27.3789ZM12.5518 33.8154H4.18402V31.5626H4.18422V27.3789H4.18402V25.4479H4.18422V25.4473H6.43709V25.4479H12.5518V27.3789H6.43709V31.5626H12.5518V33.8154Z" fill="white"/>
</svg>