<svg width="34" height="35" viewBox="0 0 34 35" fill="none" xmlns="http://www.w3.org/2000/svg">
<rect x="0.631134" width="33.1103" height="34.7679" rx="4.8797" fill="#29313F"/>
<path fill-rule="evenodd" clip-rule="evenodd" d="M5.97099 5.30273H7.1082C7.44508 5.30273 7.71817 5.57582 7.71817 5.9127V7.13177C7.71817 7.46864 7.44508 7.74173 7.1082 7.74173H5.97099C5.63411 7.74173 5.36102 7.46864 5.36102 7.13177V5.9127C5.36102 5.57582 5.63411 5.30273 5.97099 5.30273ZM27.8475 5.30273H28.9847C29.3216 5.30273 29.5947 5.57582 29.5947 5.9127V7.13177C29.5947 7.46864 29.3216 7.74173 28.9847 7.74173H27.8475C27.5106 7.74173 27.2375 7.46864 27.2375 7.13177V5.9127C27.2375 5.57582 27.5106 5.30273 27.8475 5.30273ZM27.8475 10.792H28.9847C29.3216 10.792 29.5947 11.0651 29.5947 11.402V12.621C29.5947 12.9579 29.3216 13.231 28.9847 13.231H27.8475C27.5106 13.231 27.2375 12.9579 27.2375 12.621V11.402C27.2375 11.0651 27.5106 10.792 27.8475 10.792ZM28.9847 16.2804H27.8475C27.5106 16.2804 27.2375 16.5534 27.2375 16.8903V18.1094C27.2375 18.4463 27.5106 18.7193 27.8475 18.7193H28.9847C29.3216 18.7193 29.5947 18.4463 29.5947 18.1094V16.8903C29.5947 16.5534 29.3216 16.2804 28.9847 16.2804ZM27.8475 21.7695H28.9847C29.3216 21.7695 29.5947 22.0426 29.5947 22.3795V23.5986C29.5947 23.9354 29.3216 24.2085 28.9847 24.2085H27.8475C27.5106 24.2085 27.2375 23.9354 27.2375 23.5986V22.3795C27.2375 22.0426 27.5106 21.7695 27.8475 21.7695ZM28.9847 27.258H27.8475C27.5106 27.258 27.2375 27.5311 27.2375 27.8679V29.087C27.2375 29.4239 27.5106 29.697 27.8475 29.697H28.9847C29.3216 29.697 29.5947 29.4239 29.5947 29.087V27.8679C29.5947 27.5311 29.3216 27.258 28.9847 27.258ZM7.1082 10.792H5.97099C5.63411 10.792 5.36102 11.0651 5.36102 11.402V12.621C5.36102 12.9579 5.63411 13.231 5.97099 13.231H7.1082C7.44508 13.231 7.71817 12.9579 7.71817 12.621V11.402C7.71817 11.0651 7.44508 10.792 7.1082 10.792ZM5.97099 16.2804H7.1082C7.44508 16.2804 7.71817 16.5534 7.71817 16.8903V18.1094C7.71817 18.4463 7.44508 18.7193 7.1082 18.7193H5.97099C5.63411 18.7193 5.36102 18.4463 5.36102 18.1094V16.8903C5.36102 16.5534 5.63411 16.2804 5.97099 16.2804ZM7.1082 21.7695H5.97099C5.63411 21.7695 5.36102 22.0426 5.36102 22.3795V23.5986C5.36102 23.9354 5.63411 24.2085 5.97099 24.2085H7.1082C7.44508 24.2085 7.71817 23.9354 7.71817 23.5986V22.3795C7.71817 22.0426 7.44508 21.7695 7.1082 21.7695ZM5.97099 27.258H7.1082C7.44508 27.258 7.71817 27.5311 7.71817 27.8679V29.087C7.71817 29.4239 7.44508 29.697 7.1082 29.697H5.97099C5.63411 29.697 5.36102 29.4239 5.36102 29.087V27.8679C5.36102 27.5311 5.63411 27.258 5.97099 27.258Z" fill="white"/>
<path d="M21.5742 16.5681C22.4691 17.0375 22.4691 18.3186 21.5742 18.788L14.2919 22.608C13.4574 23.0458 12.4563 22.4404 12.4563 21.498L12.4563 13.858C12.4563 12.9156 13.4574 12.3103 14.2919 12.7481L21.5742 16.5681Z" fill="white"/>
</svg>
