<svg width="48" height="48" viewBox="0 0 48 48" fill="none" xmlns="http://www.w3.org/2000/svg">
<path fill-rule="evenodd" clip-rule="evenodd" d="M17.0041 40.3469C16.6046 40.91 15.8243 41.0426 15.2613 40.6431L11.4758 37.9573L10.7627 38.9622C10.3633 39.5253 9.583 39.6579 9.01997 39.2584C8.45693 38.8589 8.32433 38.0786 8.72381 37.5156L19.7182 22.0197L20.4415 21.0002L22.4804 22.4468L21.7571 23.4663L15.8155 31.8407L17.9696 33.369C18.5327 33.7685 18.6653 34.5488 18.2658 35.1118C17.8663 35.6748 17.086 35.8074 16.523 35.408L14.3689 33.8796L12.9224 35.9183L16.7079 38.6041C17.271 39.0036 17.4035 39.7839 17.0041 40.3469Z" fill="#02A39F"/>
<circle cx="27.0123" cy="15.0181" r="9" transform="rotate(125.356 27.0123 15.0181)" stroke="black" stroke-width="1.5" stroke-linecap="round"/>
<circle cx="29.7611" cy="11.7606" r="1.98001" transform="rotate(125.356 29.7611 11.7606)" stroke="black" stroke-width="1.3" stroke-linecap="round"/>
</svg>
