<svg xmlns="http://www.w3.org/2000/svg" width="20" height="20" viewBox="0 0 20 20" fill="none">
  <rect width="20" height="20" fill="#E92F30"/>
  <path d="M4.57422 13.8174H4.57672V13.8149L4.57422 13.8174Z" fill="white"/>
  <path d="M15.7397 11.9919C15.5767 11.8024 15.3538 11.6486 15.071 11.5267C14.6964 11.3636 14.2713 11.2641 13.8236 11.2004C13.3741 11.1366 12.9003 11.1122 12.4283 11.1122C12.299 11.1122 12.1698 11.1141 12.0406 11.1178C11.7109 10.7502 11.357 10.3282 10.9767 9.8462C10.6789 9.47108 10.4092 9.15599 10.1751 8.86527C10.0965 8.76774 10.0215 8.67208 9.95037 8.58018C9.96722 8.53704 9.98408 8.49766 9.99906 8.45452C10.2763 7.69303 10.4729 6.86777 10.4729 5.92248C10.4729 5.76868 10.4654 5.60925 10.4561 5.44795V5.41794C10.4561 5.41232 10.4561 5.40669 10.4561 5.39919H10.4467C10.4149 5.0297 10.3324 4.72398 10.1864 4.48015C10.1002 4.33948 9.99157 4.21944 9.85859 4.13317C9.72374 4.04877 9.56267 4 9.40534 4C9.21617 4 9.03824 4.06565 8.89215 4.16693C8.67114 4.32073 8.50632 4.54955 8.39207 4.82901C8.27782 5.11035 8.21227 5.44608 8.21227 5.8287C8.21227 5.86621 8.21227 5.9056 8.21414 5.94498V5.94873C8.23662 6.49641 8.30592 6.9578 8.42017 7.36668C8.56251 7.87871 8.7779 8.30259 9.03824 8.69272C8.81723 9.21788 8.56064 9.74304 8.30779 10.2982C8.12611 10.7015 7.84704 11.2716 7.52489 11.8793C7.29452 11.9619 7.07164 12.05 6.85625 12.1475C5.98346 12.5433 5.22678 13.0835 4.57687 13.8149C4.3877 14.025 4.24536 14.2351 4.14984 14.4433C4.05244 14.6533 4 14.8615 4 15.0641C4 15.1879 4.0206 15.3117 4.06368 15.4261C4.12736 15.5986 4.24723 15.7524 4.40268 15.8518C4.55814 15.9531 4.74169 16 4.92524 16C5.12564 16 5.32605 15.9475 5.52458 15.8518C5.72124 15.7562 5.9179 15.6174 6.10894 15.4336C6.10894 15.4336 6.10894 15.4336 6.11082 15.4317C6.38989 15.1691 6.66708 14.8203 6.94615 14.4208C7.33947 13.8562 7.73092 13.1922 8.08116 12.5489C8.64679 12.3707 9.27049 12.2319 9.96535 12.1194C10.4467 12.0444 11.0573 11.975 11.6941 11.9431C11.9151 12.1776 12.1267 12.3895 12.3328 12.5789C12.9321 13.1247 13.4734 13.4867 14.024 13.6386C14.2338 13.6949 14.4361 13.7212 14.6271 13.7212C14.9886 13.7212 15.3108 13.6274 15.5636 13.4473C15.6891 13.3573 15.7958 13.2429 15.8726 13.1078C15.9494 12.9728 15.9944 12.8153 15.9944 12.654C15.9944 12.4158 15.897 12.1832 15.734 11.9956L15.7397 11.9919ZM9.21055 4.99031C9.26112 4.90778 9.31169 4.85714 9.34915 4.83276C9.38661 4.80838 9.40346 4.80838 9.40534 4.80838L9.42032 4.814C9.43905 4.82526 9.49711 4.87777 9.54768 5.00719C9.60012 5.13661 9.6432 5.33917 9.65257 5.613C9.65819 5.71616 9.66381 5.82119 9.66381 5.9206C9.66381 6.56393 9.56079 7.13973 9.39785 7.69303C9.38661 7.66865 9.3735 7.64426 9.36226 7.61988C9.17309 7.18099 9.05135 6.66333 9.01951 5.91497C9.01951 5.88496 9.01951 5.85683 9.01951 5.82682C9.01951 5.4367 9.10941 5.15161 9.21055 4.98843V4.99031ZM5.5583 14.8428H5.55642L5.55455 14.8465C5.41408 14.9816 5.28297 15.0716 5.17434 15.1241C5.06571 15.1766 4.97955 15.1935 4.92524 15.1916C4.89152 15.1916 4.87092 15.186 4.85781 15.1804C4.83908 15.171 4.83534 15.1691 4.82784 15.1579C4.82035 15.1466 4.80911 15.1203 4.80724 15.0641C4.80724 15.0022 4.8241 14.9065 4.88029 14.7846C4.93648 14.6627 5.032 14.5164 5.17621 14.357V14.3551C5.67442 13.7962 6.22881 13.3723 6.87311 13.0384C6.67832 13.3629 6.47979 13.6761 6.285 13.9556C6.02466 14.3307 5.76807 14.6458 5.55642 14.8446L5.5583 14.8428ZM9.84361 11.3185C9.40721 11.3879 8.99329 11.4705 8.5981 11.5661C8.77415 11.2135 8.92774 10.8928 9.04573 10.6339C9.22741 10.2326 9.41658 9.83682 9.59825 9.43357C9.8305 9.71866 10.0777 10.0113 10.3456 10.3489C10.5797 10.6452 10.8044 10.919 11.0236 11.1779C10.5928 11.2154 10.1901 11.266 9.84735 11.3185H9.84361ZM15.1759 12.7046C15.1572 12.7384 15.1103 12.7909 15.0186 12.834C14.9287 12.8771 14.7957 12.9109 14.6309 12.9109C14.5147 12.9109 14.3818 12.894 14.2376 12.8565C13.8892 12.7646 13.4266 12.4833 12.8815 11.9806C12.8628 11.9637 12.8441 11.945 12.8272 11.9281C13.1325 11.9394 13.4322 11.9619 13.7113 12.0013C14.1102 12.0575 14.4698 12.1475 14.7507 12.2695C14.9493 12.3557 15.0691 12.4495 15.1291 12.5189C15.189 12.5902 15.1928 12.6296 15.1946 12.6521C15.1946 12.6671 15.1909 12.6821 15.1796 12.7046H15.1759Z" fill="white"/>
</svg>