<svg xmlns="http://www.w3.org/2000/svg" width="14" height="14" viewBox="0 0 14 14" fill="none">
<path fill-rule="evenodd" clip-rule="evenodd" d="M5.24984 1.16663H1.74984H1.1665L1.1665 1.74996L1.1665 5.24996H2.33317L2.33317 3.15825L4.83736 5.66244L5.66232 4.83748L3.15813 2.33329L5.24984 2.33329V1.16663ZM8.74984 12.8333H12.2498H12.8332V12.25L12.8332 8.74996H11.6665L11.6665 10.8417L9.16232 8.33748L8.33736 9.16244L10.8415 11.6666H8.74984V12.8333ZM12.8332 1.74996V5.24996H11.6665V3.15825L9.16232 5.66244L8.33736 4.83748L10.8415 2.33329L8.74984 2.33329L8.74984 1.16663L12.2498 1.16663L12.8332 1.16663V1.74996ZM3.15813 11.6666H5.24984L5.24984 12.8333H1.74984H1.1665V12.25L1.1665 8.74996H2.33317L2.33317 10.8417L4.83736 8.33748L5.66232 9.16244L3.15813 11.6666Z" fill="white"/>
</svg>