<svg width="48" height="48" viewBox="0 0 48 48" fill="none" xmlns="http://www.w3.org/2000/svg">
<g clip-path="url(#clip0_523_440)">
<path d="M16.4356 -0.445312H15.3873V6.53125H16.4356V-0.445312Z" fill="#D9D9D9"/>
<path d="M14.8086 4.90737H17.0653C17.0632 4.6742 16.9196 4.6515 16.6975 4.52051H15.1774C14.9553 4.65063 14.8117 4.67333 14.8096 4.90737H14.8086Z" fill="#C7C7C7"/>
<path d="M14.9907 3.31362H16.8317C16.8297 3.08045 16.686 3.05775 16.4639 2.92676H15.3585C15.1364 3.05775 14.9928 3.08045 14.9907 3.31362Z" fill="#C7C7C7"/>
<path d="M14.9909 1.85732H16.8319C16.8299 1.62415 16.6862 1.60145 16.4641 1.47046H15.3587C15.1366 1.60058 14.9929 1.62328 14.9909 1.85732Z" fill="#C7C7C7"/>
<path d="M19.2109 20.4375H12.7485V25.5592H19.2109V20.4375Z" fill="#B3B3B3"/>
<path d="M19.5542 19.9639H12.4052V20.4241H19.5542V19.9639Z" fill="#A6A6A6"/>
<path d="M19.434 20.4109H12.5254V20.8711H19.434V20.4109Z" fill="#969696"/>
<path d="M19.2602 20.8691H12.7245V21.3294H19.2602V20.8691Z" fill="#8A8A8A"/>
<path d="M19.1723 15.4863H12.71V19.3261H19.1723V15.4863Z" fill="#B3B3B3"/>
<path d="M18.4365 11.6582H13.4097V13.9069H18.4365V11.6582Z" fill="#B3B3B3"/>
<path d="M17.378 8.84448H14.3602V10.1247H17.378V8.84448Z" fill="#B3B3B3"/>
<path d="M16.8389 7.06637H14.9693L14.7421 6.45508L15.4115 6.62624H16.4252L17.1088 6.45508L16.8389 7.06637Z" fill="#C7C7C7"/>
<path d="M19.6091 14.1426H12.3001V14.8849H19.6091V14.1426Z" fill="#D9D9D9"/>
<path d="M19.6091 13.8438H12.3001V14.1642H19.6091V13.8438Z" fill="#EDEDED"/>
<path d="M19.9977 19.752H11.9429V19.9598H19.9977V19.752Z" fill="#C7C7C7"/>
<path d="M19.9977 19.3145H11.9429V19.7502H19.9977V19.3145Z" fill="#D9D9D9"/>
<path d="M13.8752 48.3189H29.0496L23.5815 38.5121L13.8752 37.4912V48.3189Z" fill="#B3B3B3"/>
<path d="M23.5846 37.4912L30.3638 48.3163L28.5615 48.325L23.5815 40.1372L23.5846 37.4912Z" fill="#D9D9D9"/>
<path d="M29.4375 48.3183H31.9998L30.8659 40.5078H29.4375V48.3183Z" fill="#D9D9D9"/>
<path d="M18.1248 48.3189H2.95044L8.41845 38.5121L18.1248 37.4912V48.3189Z" fill="#B3B3B3"/>
<path d="M23.5888 37.4912H8.41553V48.3189H23.5888V37.4912Z" fill="#D6D6D6"/>
<path d="M10.0833 37.4912H8.41553V48.3189H10.0833V37.4912Z" fill="#DEDEDE"/>
<path d="M15.1793 30.2969H10.6665V37.3298H15.1793V30.2969Z" fill="#E6E6E6"/>
<path d="M20.9234 30.2969H16.8208V37.3298H20.9234V30.2969Z" fill="#E6E6E6"/>
<path d="M17.479 30.3457H14.7944V37.386H17.479V30.3457Z" fill="#878787"/>
<path d="M23.5888 37.4912H21.921V48.3189H23.5888V37.4912Z" fill="#DEDEDE"/>
<path d="M14.2176 11.6415C14.2176 12.0432 13.8376 12.3689 13.3689 12.3689C12.9003 12.3689 12.5203 12.0432 12.5203 11.6415C12.5203 11.2398 12.9003 10.9141 13.3689 10.9141C13.8376 10.9141 14.2176 11.2398 14.2176 11.6415Z" fill="#B3B3B3"/>
<path d="M19.2751 11.6415C19.2751 12.0432 18.8951 12.3689 18.4264 12.3689C17.9578 12.3689 17.5778 12.0432 17.5778 11.6415C17.5778 11.2398 17.9578 10.9141 18.4264 10.9141C18.8951 10.9141 19.2751 11.2398 19.2751 11.6415Z" fill="#B3B3B3"/>
<path d="M23.5888 37.4912H8.41553V38.857H23.5888V37.4912Z" fill="#E6E6E6"/>
<path d="M21.8047 36.5645H10.1178V37.429H21.8047V36.5645Z" fill="#9E9E9E"/>
<path d="M8.41546 37.4912L1.63623 48.3163L3.43852 48.325L8.41852 40.1372L8.41546 37.4912Z" fill="#D9D9D9"/>
<path d="M2.56233 48.3183H0L1.13395 40.5078H2.56233V48.3183Z" fill="#D9D9D9"/>
<path d="M19.9688 38.6443H12.0841V39.1473H19.9688V38.6443Z" fill="#E0E0E0"/>
<path d="M20.638 39.1479H11.4258V40.25H20.638V39.1479Z" fill="#9E9E9E"/>
<path d="M19.9687 40.2498H12.084V40.7528H19.9687V40.2498Z" fill="#E0E0E0"/>
<path d="M20.638 40.7527H11.4258V41.8548H20.638V40.7527Z" fill="#9E9E9E"/>
<path d="M19.9688 41.8545H12.0841V42.3575H19.9688V41.8545Z" fill="#E0E0E0"/>
<path d="M20.638 42.3572H11.4258V43.4592H20.638V42.3572Z" fill="#9E9E9E"/>
<path d="M19.9687 43.4597H12.084V43.9627H19.9687V43.4597Z" fill="#E0E0E0"/>
<path d="M20.638 43.9636H11.4258V45.0657H20.638V43.9636Z" fill="#9E9E9E"/>
<path d="M19.9688 45.0652H12.0842V45.5682H19.9688V45.0652Z" fill="#E0E0E0"/>
<path d="M20.638 45.5681H11.4258V46.6702H20.638V45.5681Z" fill="#9E9E9E"/>
<path d="M19.9687 46.6707H12.084V47.1737H19.9687V46.6707Z" fill="#E0E0E0"/>
<path d="M20.638 47.1733H11.4258V48.2754H20.638V47.1733Z" fill="#9E9E9E"/>
<g style="mix-blend-mode:multiply">
<path d="M12.2764 39.1472L13.1332 40.2484H12.2764V39.1472Z" fill="#DEDEDE"/>
</g>
<g style="mix-blend-mode:multiply">
<path d="M12.2457 40.7527L13.1025 41.8539H12.2457V40.7527Z" fill="#DEDEDE"/>
</g>
<g style="mix-blend-mode:multiply">
<path d="M12.2256 42.3562L13.0825 43.4591H12.2256V42.3562Z" fill="#DEDEDE"/>
</g>
<g style="mix-blend-mode:multiply">
<path d="M12.1998 43.9626L13.0566 45.0647H12.1998V43.9626Z" fill="#DEDEDE"/>
</g>
<g style="mix-blend-mode:multiply">
<path d="M12.1695 45.5671L13.0263 46.6692H12.1695V45.5671Z" fill="#DEDEDE"/>
</g>
<g style="mix-blend-mode:multiply">
<path d="M12.1696 47.1499L13.0264 48.2511H12.1696V47.1499Z" fill="#DEDEDE"/>
</g>
<path d="M19.8688 48.2729H21.0975L20.5677 37.5046H19.6732L19.8688 48.2729Z" fill="white"/>
<path d="M12.138 48.2729H10.9083L11.4381 37.5046H12.3336L12.138 48.2729Z" fill="white"/>
<path d="M22.1298 29.8565C22.1298 30.1666 21.8363 30.4172 21.4757 30.4172H10.4143C10.0527 30.4172 9.76025 30.1657 9.76025 29.8565C9.76025 29.5465 10.0527 29.2959 10.4143 29.2959H21.4757C21.8374 29.2959 22.1298 29.5465 22.1298 29.8565Z" fill="#9E9E9E"/>
<path d="M22.9701 28.9229C22.9701 29.233 22.6777 29.4836 22.316 29.4836H9.76004C9.39836 29.4836 9.10596 29.2321 9.10596 28.9229C9.10596 28.6129 9.39938 28.3623 9.76004 28.3623H22.316C22.6777 28.3623 22.9701 28.6138 22.9701 28.9229Z" fill="#E6E6E6"/>
<path d="M23.3626 28.5762H8.74459L7.92139 27.4951H24.1858L23.3626 28.5762Z" fill="#BDBDBD"/>
<path d="M15.9915 27.4913H24.1237L20.3714 26.2373H16.023H11.6737L7.92139 27.4913H16.0536H15.9915Z" fill="#EDEDED"/>
<path d="M20.6076 11.6826H11.2844L10.4612 11.0154H21.4308L20.6076 11.6826Z" fill="#BDBDBD"/>
<path d="M18.5313 11.0128H21.3687L17.5613 10.1404H14.0994L10.4612 11.0128H18.5934H18.5313Z" fill="#EDEDED"/>
<path d="M20.2358 25.5381H11.6318V26.2227H20.2358V25.5381Z" fill="#9E9E9E"/>
<path d="M20.5699 23.4307H11.4086V23.8961H20.5699V23.4307Z" fill="#D9D9D9"/>
<path d="M12.2054 23.4307H11.6318V25.5422H12.2054V23.4307Z" fill="#D9D9D9"/>
<path d="M20.2358 23.4307H19.6622V25.5422H20.2358V23.4307Z" fill="#D9D9D9"/>
<path d="M16.357 23.4307H15.7834V25.5422H16.357V23.4307Z" fill="#D9D9D9"/>
<path d="M19.5491 18.2148H12.3979V18.5345H19.5491V18.2148Z" fill="#D9D9D9"/>
<path d="M12.8748 18.2148H12.3979V19.3562H12.8748V18.2148Z" fill="#D9D9D9"/>
<path d="M19.5501 18.2148H19.0733V19.3562H19.5501V18.2148Z" fill="#D9D9D9"/>
<path d="M15.0602 18.2148H14.5834V19.3562H15.0602V18.2148Z" fill="#D9D9D9"/>
<path d="M17.4667 18.2148H16.9899V19.3562H17.4667V18.2148Z" fill="#D9D9D9"/>
<path d="M14.3602 8.02957H17.4625C17.4595 7.44273 17.216 7.38597 16.8421 7.05762H14.9797C14.6057 7.38597 14.3633 7.44273 14.3592 8.02957H14.3602Z" fill="#D9D9D9"/>
<path d="M20.2703 24.3281H11.6368L11.4942 24.6722H20.4007L20.2703 24.3281Z" fill="#C7C7C7"/>
<path d="M11.4943 24.6719L11.3527 25.0125H20.5302L20.4008 24.6719H11.4943Z" fill="#A8A8A8"/>
<path d="M14.998 15.4862C14.998 15.4862 14.0729 14.585 14.8309 14.585C15.5889 14.585 15.7631 15.487 15.7631 15.487H14.998V15.4862Z" fill="#A6A6A6"/>
<path d="M14.2328 15.4862C14.2328 15.4862 13.3077 14.585 14.0657 14.585C14.8237 14.585 14.9979 15.487 14.9979 15.487H14.2328V15.4862Z" fill="#8A8A8A"/>
<path d="M13.4677 15.4862C13.4677 15.4862 12.5426 14.585 13.2996 14.585C14.0566 14.585 14.2318 15.487 14.2318 15.487H13.4667L13.4677 15.4862Z" fill="#A6A6A6"/>
<path d="M12.7096 15.4862C12.7096 15.4862 11.7845 14.585 12.5425 14.585C13.3005 14.585 13.4747 15.487 13.4747 15.487H12.7096V15.4862Z" fill="#8A8A8A"/>
<path d="M16.8767 15.4862C16.8767 15.4862 17.8018 14.585 17.0438 14.585C16.2858 14.585 16.1105 15.487 16.1105 15.487H16.8757L16.8767 15.4862Z" fill="#A6A6A6"/>
<path d="M17.6418 15.4862C17.6418 15.4862 18.5669 14.585 17.8089 14.585C17.0509 14.585 16.8766 15.487 16.8766 15.487H17.6418V15.4862Z" fill="#8A8A8A"/>
<path d="M18.4069 15.4862C18.4069 15.4862 19.332 14.585 18.574 14.585C17.816 14.585 17.6418 15.487 17.6418 15.487H18.4069V15.4862Z" fill="#A6A6A6"/>
<path d="M19.1649 15.4862C19.1649 15.4862 20.09 14.585 19.332 14.585C18.574 14.585 18.3987 15.487 18.3987 15.487H19.1639L19.1649 15.4862Z" fill="#8A8A8A"/>
<path d="M15.9332 14.5527C15.6724 14.5527 15.4615 14.7352 15.4615 14.9606V15.488H16.4049V14.9606C16.4049 14.7352 16.194 14.5527 15.9332 14.5527Z" fill="#8A8A8A"/>
<path d="M17.6521 8.01587H14.0994V8.29968H17.6521V8.01587Z" fill="#A6A6A6"/>
<path d="M17.5909 8.29126H14.1585V8.57507H17.5909V8.29126Z" fill="#969696"/>
<path d="M17.5046 8.57251H14.2576V8.85632H17.5046V8.57251Z" fill="#8A8A8A"/>
<path d="M15.7899 6.61366C15.7899 6.74901 15.6065 6.85817 15.3803 6.85817C15.1541 6.85817 14.9697 6.74901 14.9697 6.61366C14.9697 6.4783 15.1531 6.36914 15.3803 6.36914C15.6075 6.36914 15.7899 6.4783 15.7899 6.61366Z" fill="#C7C7C7"/>
<path d="M16.286 6.61366C16.286 6.74901 16.1026 6.85817 15.8764 6.85817C15.6502 6.85817 15.4658 6.74901 15.4658 6.61366C15.4658 6.4783 15.6492 6.36914 15.8764 6.36914C16.1036 6.36914 16.286 6.4783 16.286 6.61366Z" fill="#C7C7C7"/>
<path d="M16.8309 6.61366C16.8309 6.74901 16.6475 6.85817 16.4203 6.85817C16.1931 6.85817 16.0107 6.74901 16.0107 6.61366C16.0107 6.4783 16.1941 6.36914 16.4203 6.36914C16.6465 6.36914 16.8309 6.4783 16.8309 6.61366Z" fill="#C7C7C7"/>
<path d="M16.8819 6.9353H14.936V7.04621H16.8819V6.9353Z" fill="#ADADAD"/>
<path d="M16.8248 1.84863H14.9909V1.98312H16.8248V1.84863Z" fill="#8A8A8A"/>
<path d="M16.8246 3.31348H14.9907V3.44796H16.8246V3.31348Z" fill="#8A8A8A"/>
<path d="M17.0652 4.88599H14.8167V5.02047H17.0652V4.88599Z" fill="#8A8A8A"/>
</g>
<defs>
<clipPath id="clip0_523_440">
<rect width="48" height="48" fill="white"/>
</clipPath>
</defs>
</svg>
