<svg width="48" height="48" viewBox="0 0 48 48" fill="none" xmlns="http://www.w3.org/2000/svg">
<g clip-path="url(#clip0_4119_682)">
<path d="M13.5 21.0007C18.4706 21.0007 22.5 16.9713 22.5 12.0007C22.5 7.03017 18.4706 3.00073 13.5 3.00073C8.52944 3.00073 4.5 7.03017 4.5 12.0007C4.5 16.9713 8.52944 21.0007 13.5 21.0007Z" fill="#6BBFE5"/>
<path d="M29.25 19.5007C32.1495 19.5007 34.5 17.1502 34.5 14.2507C34.5 11.3512 32.1495 9.00073 29.25 9.00073C26.3505 9.00073 24 11.3512 24 14.2507C24 17.1502 26.3505 19.5007 29.25 19.5007Z" fill="#6BBFE5"/>
<path d="M3 43.5007V16.5007H36.3525V24.3562L43.5 21.4102V38.5912L36.3525 35.6452V43.5007H3Z" fill="#D984CF"/>
<path d="M25.2305 33.6405V27.0007H26.707V33.6405H25.2305ZM26.359 33.6405V32.3615H29.9987V33.6405H26.359ZM26.359 30.8661V29.6341H29.6695V30.8661H26.359ZM26.359 28.2704V27.0007H29.9517V28.2704H26.359Z" fill="white"/>
<path d="M20.5962 33.6405L18.0381 27.0007H19.6181L21.5649 32.3709H20.916L22.891 27.0007H24.4522L21.8658 33.6405H20.5962Z" fill="white"/>
<path d="M15.7705 33.6405V27.0007H17.2471V33.6405H15.7705Z" fill="white"/>
<path d="M10.5 33.6405V27.0007H11.9766V33.6405H10.5ZM11.638 33.6405V32.3427H14.9203V33.6405H11.638Z" fill="white"/>
</g>
<defs>
<clipPath id="clip0_4119_682">
<rect width="48" height="48" fill="white" transform="translate(0 0.000732422)"/>
</clipPath>
</defs>
</svg>
