<svg width="20" height="20" viewBox="0 0 20 20" fill="none" xmlns="http://www.w3.org/2000/svg">
<rect width="20" height="20" fill="#9478E5"/>
<path d="M8.82031 8.28885L11.4666 5.53409C12.1924 4.80824 13.3852 4.82425 14.1307 5.5698C14.8763 6.31535 14.8923 7.50814 14.1664 8.23394L13.2114 9.24535" stroke="white" stroke-linecap="round" stroke-linejoin="round"/>
<path d="M6.33455 11.1094C6.0794 11.3645 5.5518 11.874 5.5518 11.874C4.82595 12.5998 4.80625 13.8935 5.5518 14.6391C6.29735 15.3846 7.4901 15.4006 8.21595 14.6748L10.798 12.3306" stroke="white" stroke-linecap="round" stroke-linejoin="round"/>
<path d="M8.93306 10.8985C8.58676 10.5522 8.39786 10.1094 8.36761 9.66173C8.33271 9.14563 8.50866 8.62303 8.89736 8.23438" stroke="white" stroke-linecap="round" stroke-linejoin="round"/>
<path d="M10.7617 9.66406C11.5073 10.4096 11.5233 11.6024 10.7974 12.3282" stroke="white" stroke-linecap="round" stroke-linejoin="round"/>
</svg>
