<svg width="69" height="68" viewBox="0 0 69 68" fill="none" xmlns="http://www.w3.org/2000/svg">
<rect x="0.458496" width="68" height="68" rx="4" fill="#32AEEF"/>
<path fill-rule="evenodd" clip-rule="evenodd" d="M36.4517 18.4286V21.774H44.4586V25.3901H24.8223V21.774H32.8292V18.4286H36.4517ZM24.8223 41.5667H28.4479V45.6665H44.4586V49.2857H24.8223V48.3595V45.6665V41.5667ZM40.4976 32.5428C40.4976 28.9649 37.5926 26.0651 34.0085 26.0651C30.4243 26.0651 27.5193 28.9649 27.5193 32.5428C27.5193 36.1206 30.4243 39.0204 34.0085 39.0204C37.5926 39.0204 40.4976 36.1206 40.4976 32.5428ZM34.0085 35.519C32.3631 35.519 31.027 34.1821 31.027 32.5428C31.027 30.9035 32.3662 29.5665 34.0085 29.5665C35.6507 29.5665 36.9899 30.9035 36.9899 32.5428C36.9899 34.1821 35.6507 35.519 34.0085 35.519ZM36.3845 41.824C36.5975 43.1342 35.7063 44.3686 34.3938 44.5813C33.0813 44.794 31.8447 43.9043 31.6316 42.5942C31.4186 41.284 32.3099 40.0496 33.6223 39.8369C34.9348 39.6242 36.1714 40.5139 36.3845 41.824Z" fill="white"/>
</svg>
