<svg xmlns="http://www.w3.org/2000/svg" width="32" height="32" fill="none" viewBox="0 0 32 32"><mask id="a" width="21" height="10" x="6" y="11" maskUnits="userSpaceOnUse" style="mask-type:luminance"><path fill="#fff" d="M26.354 11.874H6v9.037h20.354v-9.037z"/></mask><g fill="#202020" mask="url(#a)"><path d="M17.514 13.593a2.647 2.647 0 1 0 2.686 2.646 2.665 2.665 0 0 0-2.683-2.646m0 3.913a1.267 1.267 0 1 1 1.283-1.267 1.278 1.278 0 0 1-1.286 1.267m-8.487-3.912a2.278 2.278 0 0 0-1.537.605V12.01H6v6.754h1.49v-.475c.42.384.968.6 1.537.605a2.537 2.537 0 0 0 2.413-2.645 2.54 2.54 0 0 0-2.413-2.655zm-.3 3.968a1.334 1.334 0 0 1-1.341-1.322c0-.18.038-.358.114-.522a1.335 1.335 0 1 1 1.23 1.844m16.115-3.857v.419a2.44 2.44 0 0 0-1.5-.521 2.517 2.517 0 0 0-2.478 2.552 2.517 2.517 0 0 0 2.478 2.553 2.4 2.4 0 0 0 1.5-.522v.708s-.149.7-1.192.7v1.312a2.789 2.789 0 0 0 2.133-.876c.289-.324.485-.72.569-1.145v-5.18h-1.51zm-1.22 3.745a1.332 1.332 0 0 1-1.36-1.3 1.34 1.34 0 0 1 1.36-1.3 1.377 1.377 0 0 1 1.22.726c.094.178.142.377.14.578-.002.2-.05.398-.14.577a1.359 1.359 0 0 1-1.22.727m-12.017-5.584v1.356a1 1 0 0 1 .82.764v4.769h1.537v-4.807a2.682 2.682 0 0 0-.494-1.173 2.235 2.235 0 0 0-1.863-.909z"/></g></svg>