<svg width="42" height="42" viewBox="0 0 42 42" fill="none" xmlns="http://www.w3.org/2000/svg">
<circle cx="21" cy="21" r="21" fill="#FEE500"/>
<path d="M20.992 10.5C14.7687 10.5 9.75 14.554 9.75 19.4757C9.75 22.6703 11.8378 25.4676 14.9695 27.0649L13.9095 31.0622C13.8895 31.1221 13.8865 31.1864 13.9007 31.248C13.9148 31.3096 13.9457 31.366 13.9898 31.4108C14.0542 31.4681 14.1369 31.4998 14.2227 31.5C14.2938 31.4942 14.3613 31.4659 14.4154 31.4189L18.9764 28.3136C19.6497 28.4074 20.3284 28.4561 21.008 28.4594C27.2232 28.4594 32.25 24.4054 32.25 19.4757C32.25 14.5459 27.2072 10.5 20.992 10.5Z" fill="#392020"/>
</svg>
