<svg xmlns="http://www.w3.org/2000/svg" width="32" height="32" fill="none" viewBox="0 0 32 32">
<mask id="a" width="20" height="20" x="6" y="6" maskUnits="userSpaceOnUse" style="mask-type:luminance">
<path fill="#fff" d="M26 6.629H6v18.487h20V6.629z"/>
</mask>
<g fill="#202020" mask="url(#a)">
<path d="M15.993 6.629c-5.532 0-9.993 3.569-9.993 7.9 0 2.813 1.856 5.275 4.64 6.681l-.94 3.519a.3.3 0 0 0 .071.307c.057.05.13.078.207.078a.3.3 0 0 0 .172-.071l4.05-2.732c.599.083 1.202.125 1.806.128 5.526 0 9.994-3.568 9.994-7.91 0-4.342-4.482-7.9-10.007-7.9zm-5.346 10.407a.58.58 0 0 1-.353.562.553.553 0 0 1-.225.038.578.578 0 0 1-.371-.122.533.533 0 0 1-.193-.321.583.583 0 0 1 0-.157L9.5 13.281H8.406a.723.723 0 0 1-.386-.1.44.44 0 0 1-.2-.293.608.608 0 0 1 0-.114.448.448 0 0 1 .172-.371.718.718 0 0 1 .429-.135h3.289a.672.672 0 0 1 .386.107.422.422 0 0 1 .199.293.531.531 0 0 1 0 .107.449.449 0 0 1-.171.379.658.658 0 0 1-.421.128h-1.056v3.754zm4.94.072a.48.48 0 0 1-.157.368.517.517 0 0 1-.385.157.493.493 0 0 1-.514-.329l-.301-.875h-1.876l-.3.877a.487.487 0 0 1-.522.329.538.538 0 0 1-.332-.106.494.494 0 0 1-.179-.3.68.68 0 0 1 0-.121.668.668 0 0 1 0-.214.799.799 0 0 1 .079-.243l1.513-4.1a.488.488 0 0 1 .207-.285.658.658 0 0 1 .356-.085h.271a.708.708 0 0 1 .379.092.59.59 0 0 1 .243.349l1.427 4.033c.037.105.068.212.093.321.003.045.003.09 0 .136m3.847-.072a.45.45 0 0 1-.172.371.711.711 0 0 1-.429.135h-2.414a.7.7 0 0 1-.435-.114.547.547 0 0 1-.214-.356 1.721 1.721 0 0 1 0-.236l-.021-4.065a.61.61 0 0 1 .156-.436.562.562 0 0 1 .422-.163.608.608 0 0 1 .372.121.542.542 0 0 1 .184.481v3.751h1.963a.714.714 0 0 1 .386.108.439.439 0 0 1 .2.292l.002.111zm4.262.229a.509.509 0 0 1-.143.2.675.675 0 0 1-.414.136.567.567 0 0 1-.285-.065.708.708 0 0 1-.228-.25L21.3 15.145l-.635.664V17a.632.632 0 0 1-.157.436.584.584 0 0 1-.431.164.567.567 0 0 1-.364-.122.537.537 0 0 1-.193-.321.581.581 0 0 1 0-.157l.043-4.225a.64.64 0 0 1 .157-.436.63.63 0 0 1 .792-.043.55.55 0 0 1 .188.333c.003.05.003.1 0 .149v1.745l1.81-2.083c.07-.07.144-.138.221-.2a.459.459 0 0 1 .243-.064c.125 0 .247.037.35.107a.44.44 0 0 1 .185.285.091.091 0 0 1 0 .044.117.117 0 0 0 0 .05c0 .075-.02.149-.057.214a1.112 1.112 0 0 1-.135.192l-1.185 1.3 1.427 2.213v.071c.075.102.133.215.172.335v.036a.519.519 0 0 1-.035.244"/>
<path d="M12.646 15.623h1.35l-.671-2.14-.678 2.14z"/>
</g>
</svg>