<svg width="60" height="60" viewBox="0 0 60 60" fill="none" xmlns="http://www.w3.org/2000/svg">
<circle cx="30" cy="30" r="30" fill="url(#paint0_linear_3384_264)"/>
<path d="M31 20.743C29.8926 20.743 28.8253 20.8755 27.7981 21.1328V18.7396C27.7981 18.685 27.7981 18.6305 27.7821 18.5759C27.5815 15.9488 25.471 14 22.9031 14C20.3352 14 18.2247 15.941 18.016 18.5759C18.008 18.6305 18 27.5639 18 27.5639V33.3715C18 33.4105 18 33.4495 18 33.4962C18.0642 40.4107 23.858 46 31 46C38.142 46 44 40.3484 44 33.3715C44 26.3946 38.1821 20.743 31 20.743ZM31 44.0512C24.9253 44.0512 19.9981 39.2648 19.9981 33.3637V18.8253C19.9981 17.2507 21.2981 15.98 22.9031 15.98C24.508 15.98 25.808 17.2507 25.808 18.8253V33.239C25.808 36.0297 28.1272 38.4307 31.008 38.4307C33.8889 38.4307 36.216 36.1622 36.216 33.3715C36.216 30.5808 33.8809 28.3123 31.008 28.3123C29.8043 28.3123 28.6889 28.7099 27.8062 29.3803V27.2132C28.7691 26.7376 29.8525 26.4726 31.008 26.4726C34.9321 26.4726 38.1099 29.5596 38.1099 33.3715C38.1099 37.1834 34.9321 40.2704 31.008 40.2704C27.0839 40.2704 23.9062 37.1834 23.9062 33.3715V18.7318C23.9062 18.2563 23.4568 17.8041 22.9111 17.8041C22.3654 17.8041 21.916 18.2563 21.916 18.7318V33.3637C21.916 33.5898 21.9241 33.808 21.9401 34.0263C22.2852 38.6022 26.2173 42.2037 31.008 42.2037C35.7988 42.2037 40.108 38.2436 40.108 33.3637C40.108 28.4838 36.0315 24.5238 31.008 24.5238C29.8846 24.5238 28.8012 24.7264 27.8062 25.085V23.1362C28.8173 22.84 29.8926 22.6762 31.008 22.6762C37.0827 22.6762 42.0099 27.4626 42.0099 33.3637C42.0099 39.2648 37.0827 44.0512 31.008 44.0512H31ZM27.7981 33.3715C27.7981 31.6565 29.2346 30.2611 31 30.2611C32.7654 30.2611 34.2019 31.6565 34.2019 33.3715C34.2019 35.0865 32.7654 36.4819 31 36.4819C29.2346 36.4819 27.7981 35.0865 27.7981 33.3715Z" fill="white"/>
<defs>
<linearGradient id="paint0_linear_3384_264" x1="30" y1="0" x2="30" y2="60" gradientUnits="userSpaceOnUse">
<stop stop-color="#86E02B"/>
<stop offset="1" stop-color="#35BF63"/>
</linearGradient>
</defs>
</svg>
