<svg width="48" height="48" viewBox="0 0 48 48" fill="none" xmlns="http://www.w3.org/2000/svg">
<rect y="10" width="28" height="28" rx="2.89655" fill="#315764"/>
<path fill-rule="evenodd" clip-rule="evenodd" d="M17.3795 14.1836V20.6207H23.8165V22.5518H15.4487V22.5514H15.4485V14.1836H17.3795ZM4.18427 14.1837H12.5521V16.4366H12.5517V22.5518H10.6207V16.4366H4.18427V14.1837ZM15.4482 27.3789H22.2071V28.6662H15.4483V30.2754H15.4483V31.5626H15.4482V33.8154H15.4483H17.3794H23.816V31.5626H17.3794V30.2754H22.2071H23.8161H23.8163V25.7696H23.816V25.4479H15.4482V27.3789ZM12.5518 33.8154H4.18402V31.5626H4.18422V27.3789H4.18402V25.4479H4.18422V25.4473H6.43709V25.4479H12.5518V27.3789H6.43709V31.5626H12.5518V33.8154Z" fill="white"/>
<circle cx="28.0931" cy="9.09405" r="7.54132" fill="#AE3FA6"/>
<path d="M27.9954 17.0023C27.9654 17.0023 27.9354 17.0023 27.9054 17.0023C25.8731 16.9792 23.9446 16.188 22.4706 14.7785C22.2145 14.534 21.9746 14.271 21.7555 13.9965C20.6228 12.5848 20 10.8108 20 9.00231C20 7.19377 20.5582 5.58593 21.6148 4.188C21.8224 3.91119 22.0577 3.63898 22.3114 3.38293C23.8016 1.87428 25.7855 1.02768 27.8985 1C27.9331 1 27.9654 1 27.9954 1H28.0046C28.0346 1 28.0669 1 28.0969 1C30.2145 1.02768 32.1984 1.87197 33.6886 3.38062C33.9377 3.63206 34.1707 3.90427 34.3852 4.1857C35.4418 5.58132 36 7.24683 36 9C36 10.7532 35.3772 12.5825 34.2445 13.9965C34.0231 14.271 33.7809 14.534 33.5271 14.7785C32.0554 16.188 30.1269 16.9769 28.0992 17C28.0646 17.0023 28.0323 17.0023 28.0023 17.0023H27.9908H27.9954ZM28 1.87659C27.331 1.87659 26.669 1.96886 26.03 2.1534C24.8835 2.48328 23.827 3.10611 22.9758 3.95502C22.7151 4.21338 22.4752 4.4925 22.263 4.78316C21.4671 5.85813 20.9942 7.13149 20.895 8.46482C20.8812 8.64014 20.8743 8.81546 20.8743 9.00231C20.8743 9.18916 20.8812 9.36448 20.8973 9.53979C21.0012 10.9677 21.5317 12.3172 22.4314 13.4406C22.669 13.7382 22.925 14.0104 23.188 14.248C24 14.9954 24.9827 15.549 26.03 15.8512C26.6713 16.0358 27.3333 16.128 28 16.128C28.6667 16.128 29.331 16.0358 29.97 15.8512C31.0173 15.549 32.0023 14.9954 32.8143 14.248C33.0796 14.0081 33.3333 13.7359 33.5686 13.4406C34.4683 12.3172 34.9988 10.9677 35.1027 9.53749C35.1165 9.36217 35.1234 9.18224 35.1234 9.00231C35.1234 8.82238 35.1165 8.64475 35.1027 8.46482C35.0058 7.13379 34.5329 5.86044 33.7347 4.78085C33.5202 4.48558 33.2803 4.20877 33.0219 3.95271C32.1707 3.10611 31.1142 2.48328 29.9677 2.1534C29.3287 1.96886 28.6667 1.87659 27.9977 1.87659H28Z" fill="white"/>
<path d="M27.9957 17.0023C27.9657 17.0023 27.9357 17.0023 27.9057 17.0023C27.2414 16.9608 26.6462 16.5294 26.1341 15.7151C25.7512 15.1061 25.4305 14.308 25.1837 13.346C25.0984 13.0208 25.0222 12.6701 24.9553 12.3033C24.7962 11.4175 24.7016 10.4833 24.6762 9.52826C24.6693 9.35294 24.667 9.17532 24.667 9.00231C24.667 8.8293 24.667 8.65167 24.6762 8.47636C24.697 7.63437 24.7731 6.80854 24.9023 6.0173C24.9646 5.64129 25.0338 5.28604 25.1076 4.9654C25.3613 3.87889 25.7166 2.95386 26.1341 2.2895C26.6439 1.4752 27.2391 1.04152 27.9034 1C27.9334 1 27.9657 1 27.9957 1H28.0072C28.0372 1 28.0695 1 28.0995 1C28.7639 1.04152 29.3567 1.4729 29.8688 2.2872C30.2887 2.95156 30.6439 3.87659 30.8954 4.96309C30.9715 5.28604 31.0384 5.62976 31.103 6.01499C31.2322 6.81084 31.3083 7.63668 31.329 8.47174C31.336 8.64706 31.3383 8.82468 31.3383 9C31.3383 9.17532 31.3383 9.35063 31.329 9.52595C31.3037 10.4833 31.2091 11.4175 31.0499 12.301C30.983 12.6632 30.9069 13.0138 30.8215 13.3437C30.5724 14.3103 30.2541 15.1061 29.8711 15.7128C29.3613 16.5271 28.7662 16.9608 28.1018 17C28.0718 17 28.0395 17 28.0096 17H27.9957V17.0023ZM28.0003 1.87659C27.2368 1.87659 26.4132 3.20069 25.9496 5.17532C25.8711 5.5098 25.8019 5.86505 25.7466 6.23183C25.6335 6.94925 25.569 7.70127 25.5505 8.47174C25.5436 8.64706 25.5413 8.82238 25.5413 9.00461C25.5413 9.18685 25.5413 9.36217 25.5505 9.53749C25.5736 10.4394 25.6566 11.3022 25.7996 12.1003C25.8665 12.474 25.9427 12.8293 26.0303 13.1499C26.5055 14.9585 27.2806 16.128 28.0003 16.128C28.72 16.128 29.4951 14.9585 29.9703 13.1476C30.0557 12.8293 30.1341 12.474 30.201 12.098C30.344 11.3022 30.4294 10.4394 30.4502 9.53287C30.4571 9.35986 30.4594 9.18224 30.4594 9.00231C30.4594 8.82238 30.4594 8.64475 30.4502 8.46944C30.4317 7.69896 30.3671 6.94464 30.2541 6.22953C30.1964 5.85582 30.1272 5.50058 30.0511 5.17301C29.5874 3.20069 28.7639 1.87428 28.0003 1.87428V1.87659Z" fill="white"/>
<path d="M33.5939 14.7162C33.3679 14.497 33.1026 14.2917 32.8027 14.1026C32.2606 13.7635 31.6308 13.4866 30.9342 13.2813C30.6181 13.1868 30.2698 13.1037 29.8984 13.0368C29.2756 12.9261 28.6389 12.8707 27.9999 12.8707C27.3609 12.8707 26.7243 12.9261 26.1037 13.0368C25.7346 13.1037 25.3886 13.1868 25.068 13.2813C24.369 13.4866 23.7393 13.7635 23.1995 14.1026C22.9019 14.2917 22.6343 14.497 22.4059 14.7162C22.1937 14.5086 21.993 14.2894 21.8062 14.061C22.0299 13.8465 22.2814 13.6435 22.5536 13.459C23.211 13.0114 23.9976 12.6585 24.888 12.4094C25.2018 12.3171 25.5455 12.2387 25.9053 12.1741C26.5766 12.0541 27.2825 11.9941 27.9999 11.9941C28.7173 11.9941 29.4232 12.0541 30.0945 12.1741C30.4521 12.2387 30.7958 12.3171 31.1095 12.4094C32.0022 12.6608 32.7889 13.0137 33.4463 13.459C33.7208 13.6458 33.9699 13.8488 34.1937 14.061C34.0045 14.2894 33.8038 14.5086 33.5939 14.7162Z" fill="white"/>
<path d="M27.9997 6.34453C27.2685 6.34453 26.5465 6.27994 25.8521 6.15306C25.5061 6.08847 25.1624 6.01004 24.8348 5.91316C23.9029 5.64557 23.0586 5.24649 22.3919 4.76206C22.1174 4.56367 21.8729 4.35145 21.6606 4.12769C21.8383 3.89701 22.032 3.67094 22.242 3.4541C22.4496 3.68017 22.701 3.8947 22.9894 4.09539C23.543 4.47832 24.235 4.80358 24.9917 5.03426C25.3285 5.13807 25.6768 5.22342 26.0228 5.2857C26.6595 5.40797 27.3262 5.47025 27.9997 5.47025C28.6733 5.47025 29.34 5.40797 29.979 5.2857C30.3273 5.22111 30.6733 5.13576 31.0101 5.03426C31.7691 4.80358 32.4611 4.47832 33.0124 4.09539C33.3008 3.89239 33.5522 3.67786 33.7598 3.4541C33.9651 3.66863 34.1612 3.8947 34.3412 4.13C34.1289 4.35376 33.8844 4.56829 33.6099 4.76437C32.9409 5.2511 32.0966 5.64787 31.167 5.91546C30.8394 6.01004 30.4957 6.09078 30.1474 6.15537C29.4553 6.28224 28.7333 6.34684 27.9997 6.34684V6.34453Z" fill="white"/>
<path d="M35.6306 8.56348H20.2119V9.44006H35.6306V8.56348Z" fill="white"/>
</svg>