<svg width="37" height="41" viewBox="0 0 37 41" fill="none" xmlns="http://www.w3.org/2000/svg">
<path d="M18.8137 14.3571C18.8137 14.2736 18.8224 14.1904 18.8397 14.1088L20.6367 5.61228C20.7859 4.90719 21.8237 5.01574 21.8237 5.73643V21.4163C21.8237 21.5381 21.8052 21.6591 21.7688 21.7753L21.1588 23.7209C20.7478 25.0316 18.8137 24.7356 18.8137 23.3619V14.3571Z" fill="#E4E4E4"/>
<g filter="url(#filter0_f_3926_1067)">
<path d="M19.4158 12.3064L22.4259 8.39941V24.6713L19.4158 32.3994L19.4158 12.3064Z" fill="#CCCCCC"/>
</g>
<path d="M19.4158 14.3571C19.4158 14.2736 19.4071 14.1904 19.3899 14.1088L17.5928 5.61228C17.4437 4.90719 16.4058 5.01574 16.4058 5.73643V21.4163C16.4058 21.5381 16.4243 21.6591 16.4608 21.7753L17.0708 23.7209C17.4818 25.0316 19.4158 24.7356 19.4158 23.3619V14.3571Z" fill="#E4E4E4"/>
<g filter="url(#filter1_f_3926_1067)">
<path d="M18.8137 12.3064L15.8037 8.39941V24.6713L18.8137 32.3994L18.8137 12.3064Z" fill="#CCCCCC"/>
</g>
<path d="M19.4158 12.3918L23.8499 5.95929C24.5183 4.98965 26.0379 5.46266 26.0379 6.64035V22.3082L19.4158 30.9852V12.3918Z" fill="#E4E4E4"/>
<g filter="url(#filter2_f_3926_1067)">
<path d="M19.4158 14.5973L26.0379 6.59961V24.0919L19.4158 32.3996V14.5973Z" fill="#CCCCCC"/>
</g>
<path d="M19.4158 13.1822L27.6478 5.78378C28.4202 5.08958 29.6499 5.63776 29.6499 6.67629V22.6767L19.4158 30.9844V13.1822Z" fill="#E4E4E4"/>
<g filter="url(#filter3_f_3926_1067)">
<path d="M19.4158 14.5973L29.6499 6.59961V24.0918L19.4158 32.3995V14.5973Z" fill="#CCCCCC"/>
</g>
<path d="M18.8179 39.5961L31.4751 31.4532C32.9432 30.508 33.8638 28.9849 33.8638 27.5047V7.47734C33.8638 6.12995 32.263 5.54413 30.9276 6.40333L18.8137 14.1948V39.6L18.8179 39.5961Z" fill="#E4E4E4"/>
<path d="M22.4582 40.3182L34.5861 33.9994C35.9955 33.2658 36.8737 31.8153 36.8737 30.2314V8.86141C36.8737 7.42341 35.3389 6.49809 34.0592 7.16499L22.4582 13.2088V40.3224V40.3182Z" fill="#02A39F"/>
<path d="M18.2116 12.3918L13.7776 5.95929C13.1092 4.98965 11.5896 5.46266 11.5896 6.64035V22.3082L18.2116 30.9852V12.3918Z" fill="#E4E4E4"/>
<g filter="url(#filter4_f_3926_1067)">
<path d="M18.2116 14.5973L11.5896 6.59961V24.0919L18.2116 32.3996V14.5973Z" fill="#CCCCCC"/>
</g>
<path d="M18.2116 13.1822L9.97968 5.78378C9.20726 5.08958 7.97754 5.63776 7.97754 6.67629V22.6767L18.2116 30.9844V13.1822Z" fill="#E4E4E4"/>
<g filter="url(#filter5_f_3926_1067)">
<path d="M18.2116 14.5973L7.97754 6.59961V24.0918L18.2116 32.3995V14.5973Z" fill="#CCCCCC"/>
</g>
<path d="M18.8096 39.5961L6.15237 31.4532C4.68427 30.508 3.7636 28.9849 3.7636 27.5047V7.47734C3.7636 6.12995 5.36441 5.54413 6.6998 6.40333L18.8137 14.1948V39.6L18.8096 39.5961Z" fill="#E4E4E4"/>
<path d="M15.1693 40.3182L3.04132 33.9994C1.63197 33.2658 0.753736 31.8153 0.753736 30.2314V8.86141C0.753736 7.42341 2.28855 6.49809 3.56826 7.16499L15.1693 13.2088V40.3224V40.3182Z" fill="#02A39F"/>
<path d="M34.3813 13.2334L27.1589 17.0056V20.3651L34.3813 16.5929V13.2334Z" fill="#F1F1F1"/>
<path d="M23.5832 33.0244H14.5667V34.6917H23.5832V33.0244Z" fill="#FDDF7B"/>
<path d="M23.5832 36.0088H14.5667V37.676H23.5832V36.0088Z" fill="#FDDF7B"/>
<path d="M22.2993 12.6211H15.8506C15.1415 12.6211 14.5667 13.194 14.5667 13.9007V39.6264C14.5667 40.3331 15.1415 40.906 15.8506 40.906H22.2993C23.0084 40.906 23.5832 40.3331 23.5832 39.6264V13.9007C23.5832 13.194 23.0084 12.6211 22.2993 12.6211Z" fill="#02A39F"/>
<g clip-path="url(#clip0_3926_1067)">
<path d="M18.185 34.4045C18.186 34.4677 18.1619 34.5286 18.1178 34.574C18.0737 34.6194 18.0134 34.6456 17.95 34.6467L17.8502 34.6467C17.787 34.6448 17.7271 34.6184 17.6832 34.5732C17.6393 34.528 17.6149 34.4675 17.6151 34.4045L17.6151 34.381C17.6149 34.3181 17.6394 34.2577 17.6833 34.2125C17.7272 34.1673 17.7871 34.141 17.8502 34.1391L17.95 34.1391C18.0134 34.1402 18.0737 34.1663 18.1177 34.2116C18.1618 34.257 18.186 34.3179 18.185 34.381L18.185 34.4045Z" fill="white"/>
<path d="M20.5866 35.3885C20.5866 35.4502 20.5621 35.5094 20.5184 35.5531C20.4747 35.5969 20.4154 35.6215 20.3535 35.6216L18.4629 35.6216C18.7533 35.7827 19.331 36.105 19.331 36.105C19.3967 36.1369 19.4516 36.1872 19.489 36.2498C19.5263 36.3123 19.5446 36.3844 19.5414 36.4572C19.5441 36.53 19.5255 36.602 19.488 36.6645C19.4504 36.727 19.3955 36.7773 19.3298 36.8093L18.4628 37.2916L20.3535 37.2916C20.3841 37.2917 20.4145 37.2978 20.4428 37.3096C20.4711 37.3213 20.4969 37.3386 20.5185 37.3602C20.5401 37.3819 20.5573 37.4076 20.569 37.4359C20.5807 37.4642 20.5866 37.4945 20.5866 37.5251L20.5866 37.5669C20.5865 37.6285 20.5619 37.6877 20.5182 37.7313C20.4745 37.7749 20.4153 37.7995 20.3535 37.7997L17.9536 37.7997C17.906 37.7999 17.8588 37.79 17.8153 37.7708C17.7717 37.7516 17.7327 37.7234 17.7007 37.6882C17.6688 37.6529 17.6447 37.6113 17.63 37.5661C17.6152 37.5209 17.6102 37.4732 17.6153 37.4259C17.6132 37.3581 17.6302 37.2911 17.6644 37.2324C17.6986 37.1738 17.7486 37.1258 17.8088 37.0941C17.8088 37.0941 18.7182 36.5849 18.9467 36.4573C18.685 36.3103 17.8094 35.8203 17.8094 35.8203C17.749 35.7885 17.6988 35.7406 17.6644 35.6818C17.63 35.623 17.6128 35.5558 17.6148 35.4878C17.6098 35.4406 17.6148 35.3929 17.6295 35.3478C17.6443 35.3026 17.6684 35.2611 17.7003 35.2259C17.7323 35.1907 17.7713 35.1626 17.8149 35.1435C17.8584 35.1243 17.9055 35.1146 17.9531 35.1148L20.3526 35.1148C20.4144 35.1149 20.4737 35.1395 20.5174 35.1832C20.5611 35.2269 20.5857 35.286 20.5857 35.3477L20.5866 35.3885Z" fill="white"/>
<path d="M20.5862 34.4053C20.5865 34.4679 20.5623 34.5281 20.5188 34.5732C20.4752 34.6183 20.4158 34.6447 20.3531 34.6467L18.5927 34.6467C18.5301 34.6445 18.4709 34.618 18.4276 34.5729C18.3842 34.5279 18.3602 34.4677 18.3605 34.4053L18.3605 34.3802C18.3601 34.3178 18.3842 34.2577 18.4275 34.2126C18.4709 34.1676 18.5301 34.1412 18.5927 34.139L20.354 34.139C20.4167 34.141 20.4762 34.1673 20.5197 34.2124C20.5632 34.2574 20.5874 34.3177 20.5871 34.3802L20.5862 34.4053Z" fill="white"/>
<path d="M20.6063 31.4164C20.6063 31.9157 20.3318 32.2139 19.8729 32.2139L19.8267 32.2139C19.21 32.2139 19.1181 31.7404 19.1181 31.4584L19.1181 30.8724C18.8801 30.8769 18.8102 30.9326 18.8102 31.231L18.8102 31.7298L18.8102 31.8361C18.8127 31.8665 18.8089 31.897 18.7991 31.9258C18.7893 31.9546 18.7737 31.9811 18.7532 32.0037C18.7327 32.0263 18.7078 32.0444 18.68 32.057C18.6523 32.0697 18.6222 32.0765 18.5917 32.077L18.5705 32.077C18.5381 32.0781 18.5059 32.0721 18.476 32.0595C18.4462 32.0469 18.4194 32.028 18.3976 32.0041C18.3758 31.9802 18.3595 31.9518 18.3498 31.921C18.34 31.8902 18.3371 31.8576 18.3413 31.8256L18.3413 31.231C18.3413 30.6558 18.6158 30.364 19.1563 30.364L19.9436 30.364C20.3395 30.364 20.6063 30.6698 20.6063 31.125L20.6063 31.4164ZM19.5861 31.4615C19.5861 31.6257 19.6481 31.7058 19.776 31.7058L19.904 31.7058C20.0323 31.7058 20.1381 31.6838 20.1381 31.4163L20.1381 31.0648C20.139 31.0396 20.1349 31.0145 20.1258 30.991C20.1167 30.9675 20.103 30.9461 20.0854 30.928C20.0678 30.9099 20.0468 30.8956 20.0235 30.8858C20.0002 30.8761 19.9752 30.8711 19.9499 30.8712L19.5861 30.8712L19.5861 31.4615Z" fill="white"/>
<path d="M18.3408 29.073C18.3408 28.52 18.6149 28.2037 19.074 28.2037L19.1202 28.2037C19.7363 28.2037 19.8284 28.6769 19.8284 28.9592L19.8284 29.5448C20.0668 29.5405 20.1367 29.4846 20.1367 29.1862L20.1367 28.583L20.1367 28.502C20.1342 28.4716 20.1379 28.4411 20.1477 28.4122C20.1574 28.3833 20.1731 28.3568 20.1935 28.3342C20.214 28.3116 20.239 28.2935 20.2668 28.2809C20.2946 28.2683 20.3247 28.2616 20.3553 28.2611L20.376 28.2611C20.4084 28.2599 20.4407 28.2659 20.4706 28.2784C20.5005 28.291 20.5273 28.3098 20.5491 28.3337C20.5709 28.3576 20.5873 28.386 20.5971 28.4168C20.6068 28.4476 20.6098 28.4802 20.6057 28.5123L20.6057 29.1862C20.6057 29.7618 20.3311 30.0536 19.7902 30.0536L19.1131 30.0536C18.6821 30.0536 18.3408 29.726 18.3408 29.2223L18.3408 29.073ZM19.3607 28.9558C19.3637 28.9239 19.3598 28.8917 19.3492 28.8613C19.3386 28.831 19.3216 28.8033 19.2993 28.7801C19.2771 28.757 19.25 28.7388 19.2201 28.727C19.1902 28.7151 19.158 28.7098 19.1259 28.7115L19.0819 28.7115C18.9279 28.7115 18.8087 28.7907 18.8087 29.0578L18.8087 29.258C18.8055 29.2954 18.8103 29.3331 18.8228 29.3685C18.8353 29.404 18.8552 29.4363 18.8812 29.4635C18.9073 29.4907 18.9388 29.512 18.9737 29.5261C19.0086 29.5402 19.0462 29.5468 19.0838 29.5453L19.3607 29.5453L19.3607 28.9558Z" fill="white"/>
<path d="M20.5866 33.4297C20.5868 33.4923 20.5626 33.5524 20.5191 33.5974C20.4756 33.6424 20.4162 33.6687 20.3535 33.6708L19.0736 33.6708C18.5888 33.6708 18.3429 33.4164 18.3429 32.866L18.3429 32.5799C18.3429 32.3186 18.5249 32.3051 18.5614 32.3051L18.5897 32.3051C18.6264 32.3051 18.8113 32.318 18.8113 32.5799L18.8113 32.8932C18.8113 33.0802 18.9079 33.1633 19.1244 33.1633L20.3539 33.1633C20.4166 33.1653 20.476 33.1917 20.5195 33.2367C20.5631 33.2818 20.5873 33.342 20.587 33.4045L20.5866 33.4297Z" fill="white"/>
<path d="M17.0064 25.5105C17.0064 27.3298 17.8732 27.6201 18.9421 27.6201C19.6808 27.6201 20.3232 27.4809 20.6488 26.793L18.1231 26.793C18.0793 26.7981 18.0349 26.7934 17.9932 26.7792C17.9515 26.7651 17.9135 26.7418 17.8819 26.7112C17.8503 26.6805 17.826 26.6432 17.8107 26.602C17.7953 26.5608 17.7894 26.5168 17.7933 26.473C17.7933 26.3019 17.7865 26.2274 17.9525 26.1001L19.5751 24.8596L18.084 24.8596C17.8629 24.8596 17.7928 24.7687 17.7928 24.5929L17.7928 24.4764C17.7928 24.335 17.8936 24.2276 18.084 24.2276L20.6489 24.2276C20.3229 23.5398 19.6814 23.4009 18.9422 23.4009C17.8732 23.4004 17.0064 23.69 17.0064 25.5105Z" fill="white"/>
<path d="M18.7491 26.1954L20.826 26.1954C20.8619 25.9685 20.8792 25.7391 20.8776 25.5094C20.8815 25.2252 20.8539 24.9413 20.7955 24.6631L18.7491 26.1954Z" fill="white"/>
</g>
<path d="M23.5832 15.8262H14.5667V17.4934H23.5832V15.8262Z" fill="#FDDF7B"/>
<path d="M23.5832 18.8105H14.5667V20.4778H23.5832V18.8105Z" fill="#FDDF7B"/>
<defs>
<filter id="filter0_f_3926_1067" x="17.0158" y="5.99941" width="7.81003" height="28.8" filterUnits="userSpaceOnUse" color-interpolation-filters="sRGB">
<feFlood flood-opacity="0" result="BackgroundImageFix"/>
<feBlend mode="normal" in="SourceGraphic" in2="BackgroundImageFix" result="shape"/>
<feGaussianBlur stdDeviation="1.2" result="effect1_foregroundBlur_3926_1067"/>
</filter>
<filter id="filter1_f_3926_1067" x="13.4037" y="5.99941" width="7.81003" height="28.8" filterUnits="userSpaceOnUse" color-interpolation-filters="sRGB">
<feFlood flood-opacity="0" result="BackgroundImageFix"/>
<feBlend mode="normal" in="SourceGraphic" in2="BackgroundImageFix" result="shape"/>
<feGaussianBlur stdDeviation="1.2" result="effect1_foregroundBlur_3926_1067"/>
</filter>
<filter id="filter2_f_3926_1067" x="17.0158" y="4.19961" width="11.4221" height="30.6001" filterUnits="userSpaceOnUse" color-interpolation-filters="sRGB">
<feFlood flood-opacity="0" result="BackgroundImageFix"/>
<feBlend mode="normal" in="SourceGraphic" in2="BackgroundImageFix" result="shape"/>
<feGaussianBlur stdDeviation="1.2" result="effect1_foregroundBlur_3926_1067"/>
</filter>
<filter id="filter3_f_3926_1067" x="17.0158" y="4.19961" width="15.0341" height="30.5998" filterUnits="userSpaceOnUse" color-interpolation-filters="sRGB">
<feFlood flood-opacity="0" result="BackgroundImageFix"/>
<feBlend mode="normal" in="SourceGraphic" in2="BackgroundImageFix" result="shape"/>
<feGaussianBlur stdDeviation="1.2" result="effect1_foregroundBlur_3926_1067"/>
</filter>
<filter id="filter4_f_3926_1067" x="9.18957" y="4.19961" width="11.4221" height="30.6001" filterUnits="userSpaceOnUse" color-interpolation-filters="sRGB">
<feFlood flood-opacity="0" result="BackgroundImageFix"/>
<feBlend mode="normal" in="SourceGraphic" in2="BackgroundImageFix" result="shape"/>
<feGaussianBlur stdDeviation="1.2" result="effect1_foregroundBlur_3926_1067"/>
</filter>
<filter id="filter5_f_3926_1067" x="5.57754" y="4.19961" width="15.0341" height="30.5998" filterUnits="userSpaceOnUse" color-interpolation-filters="sRGB">
<feFlood flood-opacity="0" result="BackgroundImageFix"/>
<feBlend mode="normal" in="SourceGraphic" in2="BackgroundImageFix" result="shape"/>
<feGaussianBlur stdDeviation="1.2" result="effect1_foregroundBlur_3926_1067"/>
</filter>
<clipPath id="clip0_3926_1067">
<rect width="14.4" height="3.87003" fill="white" transform="translate(17.0069 37.7998) rotate(-90)"/>
</clipPath>
</defs>
</svg>
