<svg width="60" height="60" viewBox="0 0 60 60" fill="none" xmlns="http://www.w3.org/2000/svg">
<circle cx="30" cy="30" r="30" fill="#32B24A"/>
<path d="M42.3134 16H17.6866C14.5426 16 12 18.5339 12 21.6561V35.0649C12 38.187 14.5426 40.7134 17.6866 40.7134H26.1747L29.0675 45.3816C29.0675 45.3816 29.0979 45.4419 29.1588 45.5173C29.3263 45.8039 29.6384 46 30.0038 46C30.3692 46 30.6737 45.8039 30.8412 45.5249C30.9173 45.4419 30.9402 45.3816 30.9402 45.3816L33.8329 40.7134H42.3134C45.4498 40.7134 48 38.187 48 35.0649V21.6561C48 18.5339 45.4498 16 42.3134 16Z" fill="white"/>
<path d="M19.9933 25.8267C19.9933 25.8267 19.0113 25.8267 18.113 26.6864V23.2249H15.913V32.3199H18.1358V31.611C18.1358 31.611 18.6611 32.5537 19.9857 32.5537C19.9857 32.5537 23.0916 32.4405 23.0916 29.1525C23.0916 29.1525 22.9775 25.8267 19.9857 25.8267M19.5061 30.623C18.722 30.623 18.0902 29.9971 18.0902 29.2203C18.0902 28.4436 18.722 27.8176 19.5061 27.8176C20.2902 27.8176 20.9221 28.4436 20.9221 29.2203C20.9221 29.9971 20.2902 30.623 19.5061 30.623Z" fill="#F27629"/>
<path d="M23.8071 23.0129V25.1246C23.8071 25.1246 24.812 25.0793 24.812 26.9345V32.3191H26.9359V26.4368C26.9359 26.4368 27.0273 23.0129 23.8071 23.0129Z" fill="#F27629"/>
<path d="M32.1353 25.8572C32.1353 25.8572 28.4889 25.8572 28.4889 29.2207C28.4889 29.2207 28.3747 32.5465 32.1353 32.5465C32.1353 32.5465 35.8579 32.5465 35.8579 29.2207C35.8579 29.2207 35.9797 25.8572 32.1353 25.8572ZM32.1353 30.6234C31.3512 30.6234 30.7194 29.9974 30.7194 29.2207C30.7194 28.4439 31.3512 27.818 32.1353 27.818C32.9194 27.818 33.5513 28.4439 33.5513 29.2207C33.5513 29.9974 32.9194 30.6234 32.1353 30.6234Z" fill="#F27629"/>
<path d="M41.9404 26.0682V26.6866C41.9404 26.6866 41.3085 25.857 40.0905 25.857C40.0905 25.857 36.9769 25.7213 36.9769 29.1979C36.9769 29.1979 36.9465 32.4407 40.0068 32.4407C40.0068 32.4407 41.2552 32.486 41.9404 31.6112V32.1165C41.9404 32.1165 42.1002 33.7153 40.5396 33.7153H40.0068V35.6459H40.867C40.867 35.6459 44.0871 35.6836 44.0871 32.2371V26.0682H41.9404ZM40.6234 30.6232C39.8393 30.6232 39.2074 29.9973 39.2074 29.2205C39.2074 28.4438 39.8393 27.8178 40.6234 27.8178C41.4075 27.8178 42.0393 28.4438 42.0393 29.2205C42.0393 29.9973 41.4075 30.6232 40.6234 30.6232Z" fill="#F27629"/>
</svg>
