<svg width="42" height="42" viewBox="0 0 42 42" fill="none" xmlns="http://www.w3.org/2000/svg">
<circle cx="21" cy="21" r="20.625" fill="white" stroke="#E6E6E6" stroke-width="0.75"/>
<path d="M30.2682 21.2176C30.2682 20.5226 30.2056 19.8575 30.0893 19.218H21.0928V22.882L26.2741 22.8831C26.0639 24.1022 25.3876 25.1414 24.3513 25.8342V28.2113H27.4355C29.2364 26.5559 30.2682 24.1088 30.2682 21.2176Z" fill="#4285F4"/>
<path d="M24.3526 25.8343C23.494 26.4094 22.3885 26.7458 21.0951 26.7458C18.5967 26.7458 16.4772 25.0737 15.7182 22.8198H12.5367V25.2713C14.1129 28.3779 17.3525 30.5097 21.0951 30.5097C23.6818 30.5097 25.855 29.6648 27.4368 28.2103L24.3526 25.8343Z" fill="#34A853"/>
<path d="M15.4188 21.0005C15.4188 20.3677 15.525 19.7559 15.7184 19.1808V16.7292H12.5369C11.8852 18.0139 11.5186 19.4639 11.5186 21.0005C11.5186 22.5372 11.8863 23.9872 12.5369 25.2718L15.7184 22.8203C15.525 22.2452 15.4188 21.6334 15.4188 21.0005Z" fill="#FABB05"/>
<path d="M21.0957 15.2541C22.5076 15.2541 23.7719 15.7371 24.7701 16.6808L27.5033 13.9684C25.8433 12.4329 23.6791 11.4902 21.0957 11.4902C17.3542 11.4902 14.1135 13.622 12.5374 16.7286L15.7188 19.1801C16.4778 16.9262 18.5973 15.2541 21.0957 15.2541Z" fill="#E94235"/>
</svg>
