<svg width="20" height="20" viewBox="0 0 20 20" fill="none" xmlns="http://www.w3.org/2000/svg">
<rect width="20" height="20" fill="#5EC4C1"/>
<path d="M12.3996 10.912V10.024H13.7036C13.8743 10.024 14.0289 9.98934 14.1676 9.92001C14.3063 9.85067 14.4156 9.75201 14.4956 9.62401C14.5756 9.49067 14.6156 9.33067 14.6156 9.14401C14.6156 8.96267 14.5756 8.80534 14.4956 8.67201C14.4156 8.53867 14.3063 8.43734 14.1676 8.36801C14.0289 8.29867 13.8743 8.26401 13.7036 8.26401H12.3996V7.37601H13.8156C14.1729 7.37601 14.4929 7.44801 14.7756 7.59201C15.0636 7.73601 15.2903 7.94134 15.4556 8.20801C15.6209 8.46934 15.7036 8.78134 15.7036 9.14401C15.7036 9.50667 15.6209 9.82134 15.4556 10.088C15.2903 10.3493 15.0636 10.552 14.7756 10.696C14.4929 10.84 14.1729 10.912 13.8156 10.912H12.3996ZM11.5996 13V7.37601H12.6876V13H11.5996Z" fill="white"/>
<path d="M9.35742 13V7.37601H10.4454V13H9.35742Z" fill="white"/>
<path d="M4.25586 12.24L7.20786 8.13601H8.50386L5.55186 12.24H4.25586ZM4.25586 13V12.24L5.07186 12.04H8.43986V13H4.25586ZM4.42386 8.33601V7.37601H8.50386V8.13601L7.67986 8.33601H4.42386Z" fill="white"/>
</svg>
