<svg width="16" height="16" viewBox="0 0 16 16" fill="none" xmlns="http://www.w3.org/2000/svg">
<path d="M9.81838 12.4463V11.3627L10.3177 11.0739C11.689 10.2809 12.5409 8.80523 12.5409 7.22283C12.5409 4.77185 10.5469 2.77783 8.09588 2.77783C5.6449 2.77783 3.65088 4.77185 3.65088 7.22283C3.65088 8.80492 4.50277 10.2805 5.87409 11.0738L6.37338 11.3626V12.4463H9.81838ZM10.8184 13.4463H5.37338V11.9394C3.746 10.998 2.65088 9.23856 2.65088 7.22283C2.65088 4.21593 5.08898 1.77783 8.09588 1.77783C11.1037 1.77783 13.5409 4.21593 13.5409 7.22283C13.5409 9.23874 12.446 10.9983 10.8184 11.9396V13.4463Z" fill="black"/>
<path d="M10.818 14.2241H5.37305V15.0021H10.818V14.2241Z" fill="black"/>
</svg>
