<svg width="32" height="32" viewBox="0 0 32 32" fill="none" xmlns="http://www.w3.org/2000/svg">
<g clip-path="url(#clip0_1175_2776)">
<path d="M9 14C12.3137 14 15 11.3137 15 8C15 4.68629 12.3137 2 9 2C5.68629 2 3 4.68629 3 8C3 11.3137 5.68629 14 9 14Z" fill="#6BBFE5"/>
<path d="M19.5 13C21.433 13 23 11.433 23 9.5C23 7.567 21.433 6 19.5 6C17.567 6 16 7.567 16 9.5C16 11.433 17.567 13 19.5 13Z" fill="#6BBFE5"/>
<path d="M2 29V11H24.235V16.237L29 14.273V25.727L24.235 23.763V29H2Z" fill="#606576"/>
<path fill-rule="evenodd" clip-rule="evenodd" d="M13.1041 15.3218H14.3141V20.4018L16.3701 18.3458L17.2251 19.2008L14.6591 21.7668L13.8041 22.6218L12.9491 21.7668L10.3831 19.2008L11.2381 18.3458L13.1041 20.2118V15.3218ZM10.0801 22.5798V23.7898H17.3381V22.5798H18.5481V24.9988H8.87012V22.5798H10.0801Z" fill="white"/>
</g>
<defs>
<clipPath id="clip0_1175_2776">
<rect width="32" height="32" fill="white"/>
</clipPath>
</defs>
</svg>
