<svg xmlns="http://www.w3.org/2000/svg" width="13" height="14" viewBox="0 0 13 14" fill="none">
<g clip-path="url(#clip0_4911_35769)">
<path d="M6.68088 0.0390857C6.50055 -0.0407422 6.29365 0.00293719 6.15664 0.15205L2.4087 4.18863H0.480901C0.215287 4.18863 0 4.42058 0 4.70676V9.29008C0 9.57626 0.215287 9.80821 0.480901 9.80821H2.4087L6.15664 13.8463C6.24891 13.9457 6.37193 13.9984 6.49635 13.9984C6.55786 13.9984 6.62077 13.9849 6.68088 13.9593C6.86122 13.8794 6.97865 13.6897 6.97865 13.4803V0.518053C6.97865 0.308693 6.86122 0.118914 6.68088 0.0390857Z" fill="white"/>
<path d="M8.62245 9.87461C8.48406 9.87461 8.34566 9.81738 8.23941 9.70441C8.02832 9.47698 8.02692 9.10796 8.23941 8.87902C8.70493 8.37596 8.96216 7.70872 8.96216 6.9993C8.96216 6.28989 8.70633 5.62114 8.24081 5.12109C8.02972 4.89365 8.02972 4.52313 8.24081 4.2957C8.4519 4.06826 8.7944 4.06826 9.00689 4.2957C9.67652 5.01716 10.0456 5.97811 10.0456 6.9993C10.0456 8.0205 9.67652 8.97994 9.00689 9.70291C8.90065 9.81738 8.76225 9.87461 8.62385 9.87461H8.62245Z" fill="white"/>
<path d="M10.5296 12.1654C10.2305 12.1654 9.98863 11.9048 9.98863 11.5825C9.98863 11.4259 10.0459 11.2783 10.1466 11.1683C11.1811 10.0537 11.7501 8.57316 11.7501 6.9992C11.7501 5.42523 11.1811 3.94314 10.1466 2.83007C9.93551 2.60264 9.93551 2.23362 10.1466 2.00468C10.3577 1.77725 10.7002 1.77725 10.9127 2.00468C12.1513 3.33766 12.8335 5.11194 12.8335 6.9992C12.8335 8.88645 12.1555 10.6487 10.9239 11.9817C10.8246 12.0946 10.6848 12.1639 10.531 12.1639L10.5296 12.1654Z" fill="white"/>
</g>
<defs>
<clipPath id="clip0_4911_35769">
<rect width="12.8333" height="14" fill="white"/>
</clipPath>
</defs>
</svg>