<svg width="20" height="20" viewBox="0 0 20 20" fill="none" xmlns="http://www.w3.org/2000/svg">
<path fill-rule="evenodd" clip-rule="evenodd" d="M13.9583 8.75C13.9583 11.6265 11.6265 13.9583 8.75 13.9583C5.87352 13.9583 3.54167 11.6265 3.54167 8.75C3.54167 5.87352 5.87352 3.54167 8.75 3.54167C11.6265 3.54167 13.9583 5.87352 13.9583 8.75ZM12.9865 14.165C11.819 15.0797 10.3482 15.625 8.75 15.625C4.95304 15.625 1.875 12.547 1.875 8.75C1.875 4.95304 4.95304 1.875 8.75 1.875C12.547 1.875 15.625 4.95304 15.625 8.75C15.625 10.3482 15.0797 11.819 14.165 12.9865L18.4018 17.2233L17.2233 18.4018L12.9865 14.165Z" fill="#A4A4A4"/>
</svg>
