<svg xmlns="http://www.w3.org/2000/svg" width="24" height="24" fill="none" viewBox="0 0 24 24"><path fill="#A4A4A4" fill-rule="evenodd" d="M20.5 5.51l-.113-.129c-1.523-1.744-4.04-1.843-5.675-.257l-2.713 2.634-2.711-2.632-.001-.001C7.646 3.538 5.13 3.639 3.609 5.38c-1.574 1.803-1.454 4.64.243 6.285L12 19.568l8.148-7.902c1.657-1.606 1.81-4.348.352-6.155zm1.398-1.444c2.269 2.6 2.108 6.645-.358 9.036l-8.908 8.64a.9.9 0 0 1-1.264 0l-8.908-8.64c-2.466-2.391-2.627-6.437-.358-9.036 2.27-2.6 6.108-2.767 8.577-.377l1.32 1.281 1.32-1.281c2.464-2.392 6.305-2.223 8.574.377h.005z" clip-rule="evenodd"/></svg>