<svg width="20" height="20" viewBox="0 0 20 20" fill="none" xmlns="http://www.w3.org/2000/svg">
<path d="M0 9.98579C0 12.6556 1.03745 15.1634 2.92049 17.0475C4.80637 18.9329 7.31472 19.9716 9.98224 19.9716C11.6009 19.9716 13.2097 19.5752 14.6365 18.825L14.7303 18.7752L20 20L18.775 14.7315L18.8247 14.6377C20.8428 10.8056 20.1123 5.98892 17.0468 2.92413C15.1595 1.03865 12.6512 0 9.98366 0C7.31614 0 4.80779 1.03865 2.92049 2.92555C1.03745 4.80818 0 7.316 0 9.98579ZM13.8961 15.8227L12.9624 16.4223C12.6938 16.5942 12.3783 16.6823 12.023 16.6823C10.1755 16.6823 7.50799 14.2711 6.42649 11.6255C5.51695 9.39045 5.50131 6.45212 6.38954 4.78971C6.73488 4.1418 7.20387 3.74112 7.74533 3.62887L8.83252 3.4058C8.86094 3.40011 8.88936 3.39727 8.91779 3.39727C9.20628 3.39727 9.50046 3.69707 9.70511 4.19722C10.0718 5.09662 10.0718 6.38107 9.70511 6.94516C9.63263 7.05598 9.55589 7.12418 9.47346 7.14976L8.41043 7.48508L8.35501 7.55754C7.76238 8.3447 7.71548 9.62063 8.23137 10.888C8.74156 12.1398 9.69232 13.0435 10.663 13.1927L10.7553 13.2069L11.7359 12.7011C11.8113 12.6627 11.9179 12.657 12.0443 12.6854C12.7706 12.8474 13.6403 13.8491 13.9672 14.649C14.1931 15.2018 14.1661 15.6522 13.8961 15.8255V15.8227Z" fill="black"/>
</svg>
