<svg width="20" height="20" viewBox="0 0 20 20" fill="none" xmlns="http://www.w3.org/2000/svg">
<path d="M20 0H0V20H20V0Z" fill="#8BC766"/>
<path fill-rule="evenodd" clip-rule="evenodd" d="M12.1698 12.7934C12.0079 12.9892 11.7053 12.9746 11.5627 12.764L8.18143 7.77106C8.03015 7.54767 7.70357 7.54767 7.55229 7.77106L3.06708 14.3941C2.89428 14.6493 3.07537 14.9955 3.38165 14.9955H10.3456C10.3468 14.9955 10.3474 14.9968 10.3467 14.9977C10.3462 14.9982 10.3463 14.9989 10.3465 14.9993L10.3472 14.9999L10.3477 15H16.6183C16.9414 15 17.1178 14.6196 16.9108 14.3692L14.1812 11.069C14.0288 10.8848 13.7484 10.8848 13.5961 11.069L12.1698 12.7934ZM15.0345 7.41898C15.6965 7.41898 16.2331 6.87747 16.2331 6.20949C16.2331 5.54151 15.6965 5 15.0345 5C14.3725 5 13.8358 5.54151 13.8358 6.20949C13.8358 6.87747 14.3725 7.41898 15.0345 7.41898Z" fill="white"/>
</svg>
