<svg xmlns="http://www.w3.org/2000/svg" width="15" height="14" viewBox="0 0 15 14" fill="none">
<g clip-path="url(#clip0_4911_35765)">
<path d="M7.19806 0.0392077C7.00377 -0.0406201 6.78085 0.00305926 6.63324 0.152172L2.59666 4.18875H0.518128C0.231953 4.18875 0 4.4207 0 4.70688V9.2902C0 9.57638 0.231953 9.80833 0.518128 9.80833H2.59516L6.63174 13.8464C6.73115 13.9458 6.86369 13.9985 6.99925 13.9985C7.06552 13.9985 7.1333 13.985 7.19806 13.9594C7.39236 13.8796 7.51737 13.6898 7.51737 13.4804V0.518175C7.51737 0.308815 7.39086 0.119036 7.19806 0.0392077Z" fill="white"/>
<path d="M12.4246 6.98715L14.2998 5.12099C14.5288 4.89355 14.5288 4.52454 14.3014 4.2956C14.0739 4.06816 13.7049 4.06666 13.476 4.29409L11.5962 6.16478L9.71652 4.29409C9.48758 4.06666 9.11857 4.06816 8.89113 4.2956C8.6637 4.52454 8.6652 4.89355 8.89264 5.12099L10.7678 6.98715L8.89113 8.85332C8.66219 9.08075 8.66219 9.44977 8.88963 9.67871C9.0041 9.79318 9.15321 9.85041 9.30383 9.85041C9.45445 9.85041 9.60205 9.79318 9.71502 9.68021L11.5947 7.80953L13.4745 9.68021C13.5889 9.79318 13.7365 9.85041 13.8856 9.85041C14.0348 9.85041 14.1854 9.79318 14.2983 9.67871C14.5258 9.44977 14.5243 9.08075 14.2968 8.85332L12.4216 6.98715H12.4246Z" fill="white"/>
</g>
<defs>
<clipPath id="clip0_4911_35765">
<rect width="14.4714" height="14" fill="white"/>
</clipPath>
</defs>
</svg>