<svg xmlns="http://www.w3.org/2000/svg" width="14" height="14" viewBox="0 0 14 14" fill="none">
<path fill-rule="evenodd" clip-rule="evenodd" d="M12.8332 4.6667L9.86651 4.6667L12.6624 1.87086L11.8374 1.0459L9.33317 3.55013L9.33317 1.1667L8.1665 1.1667L8.16651 5.83337L12.8332 5.83337V4.6667ZM1.1665 4.6667V5.83337H5.83317V1.1667H4.6665V3.8418L2.16227 1.33757L1.33731 2.16252L3.84149 4.6667H1.1665ZM12.8332 9.33337V8.1667H8.1665L8.1665 12.8334H9.33317L9.33317 10.1583L11.9832 12.8083L12.8082 11.9834L10.1582 9.33337H12.8332ZM4.6665 12.8334H5.83317L5.83317 8.1667H1.1665L1.1665 9.33337H3.84149L1.19148 11.9834L2.01644 12.8083L4.6665 10.1583L4.6665 12.8334Z" fill="white"/>
</svg>