<svg width="32" height="32" viewBox="0 0 32 32" fill="none" xmlns="http://www.w3.org/2000/svg">
<path d="M0.99992 10.6665H25.3333V27.5865C25.3333 28.1388 24.8855 28.5865 24.3333 28.5865H4.22214L-8.01086e-05 31.9998V11.6665C-8.01086e-05 11.1142 0.447636 10.6665 0.99992 10.6665Z" fill="#A7D0E2"/>
<path d="M30.9999 2.6665H6.33325C5.78097 2.6665 5.33325 3.11422 5.33325 3.6665V22.0524C5.33325 22.6047 5.78097 23.0524 6.33325 23.0524H26.3597C26.5597 23.0524 26.7551 23.1124 26.9207 23.2246L31.9999 26.6665V23.0524V3.6665C31.9999 3.11422 31.5522 2.6665 30.9999 2.6665Z" fill="#3797D7"/>
<circle cx="12.6666" cy="12.6668" r="1.33333" fill="white"/>
<circle cx="18.6666" cy="12.6668" r="1.33333" fill="white"/>
<circle cx="24.6666" cy="12.6668" r="1.33333" fill="white"/>
</svg>
