<svg width="20" height="20" viewBox="0 0 20 20" fill="none" xmlns="http://www.w3.org/2000/svg">
<g clip-path="url(#clip0_4835_1894)">
<path d="M0.253392 6.63985L8.97501 11.8327C9.62026 12.1668 10.3797 12.1668 11.025 11.8327L19.7466 6.63985C20.0845 6.4649 20.0845 5.96557 19.7466 5.79062L11.025 1.91722C10.3797 1.58309 9.62026 1.58309 8.97501 1.91722L0.253393 5.79062C-0.0844639 5.96557 -0.0844644 6.4649 0.253392 6.63985Z" fill="#3E3D4D"/>
<path d="M3.54166 8.1619C3.54166 7.91663 3.61394 7.6765 3.7933 7.50921C4.37077 6.97058 6.0569 5.83337 10 5.83337C13.9431 5.83337 15.6292 6.97058 16.2067 7.50921C16.3861 7.6765 16.4583 7.91663 16.4583 8.1619V14.1667C16.4583 14.8571 15.8987 15.4167 15.2083 15.4167H4.79166C4.10131 15.4167 3.54166 14.8571 3.54166 14.1667V8.1619Z" fill="#5F5F6D"/>
<path d="M18.3333 10.6094C18.3333 10.0165 17.9713 9.49229 17.4115 9.27414L17.2223 9.20029L17.1952 5.26624V4.65495L16.5044 4.35059L16.5078 5.5714L16.5328 9.19859L16.3406 9.27329C15.7795 9.49102 15.4167 10.0156 15.4167 10.6094C15.4167 11.2032 15.7955 11.7426 16.3591 11.9527L16.5527 12.0249L16.5557 12.4578L15.7097 15.9865C15.6653 16.1749 15.6658 16.3714 15.7097 16.5556C15.8446 17.1116 16.3432 17.5 16.9228 17.5C17.0202 17.5 17.1181 17.489 17.2142 17.4665C17.5382 17.3901 17.8132 17.194 17.9877 16.9143C18.1627 16.6342 18.2161 16.3044 18.1385 15.9848L17.2435 12.2897L17.2413 12.0142L17.4296 11.9378C17.9782 11.715 18.3329 11.1938 18.3329 10.6094H18.3333Z" fill="#FFBF43"/>
<g filter="url(#filter0_d_4835_1894)">
<path fill-rule="evenodd" clip-rule="evenodd" d="M8.41103 12.0056C7.95907 11.5536 7.22622 11.5536 6.77427 12.0056L5.1817 13.5982L5.04941 13.4659L1.2271 17.2882C0.702081 17.8132 0.702081 18.6645 1.2271 19.1895C1.75211 19.7145 2.60343 19.7145 3.12844 19.1895L6.95076 15.3672L6.81847 15.2349L8.41103 13.6424C8.86299 13.1904 8.86299 12.4576 8.41103 12.0056Z" fill="#CBD3DD"/>
<path d="M4.13745 10.3874C2.50974 12.0151 2.50974 14.6532 4.13745 16.2792C5.76517 17.9069 8.4032 17.9069 10.0292 16.2792C11.6569 14.6515 11.6569 12.0134 10.0292 10.3874C8.40149 8.7597 5.76347 8.7597 4.13745 10.3874Z" fill="#989DAF"/>
<path d="M5.02065 11.2706C3.88201 12.4093 3.88201 14.2573 5.02065 15.396C6.1593 16.5346 8.00575 16.5346 9.14602 15.396C10.2847 14.2573 10.2847 12.4093 9.14602 11.2706C8.00737 10.132 6.1593 10.132 5.02065 11.2706Z" fill="#C6EEFF"/>
</g>
</g>
<defs>
<filter id="filter0_d_4835_1894" x="0.833336" y="6.49996" width="14.4167" height="14.4166" filterUnits="userSpaceOnUse" color-interpolation-filters="sRGB">
<feFlood flood-opacity="0" result="BackgroundImageFix"/>
<feColorMatrix in="SourceAlpha" type="matrix" values="0 0 0 0 0 0 0 0 0 0 0 0 0 0 0 0 0 0 127 0" result="hardAlpha"/>
<feOffset dx="2" dy="-0.666667"/>
<feGaussianBlur stdDeviation="1"/>
<feComposite in2="hardAlpha" operator="out"/>
<feColorMatrix type="matrix" values="0 0 0 0 0.183892 0 0 0 0 0.182773 0 0 0 0 0.190762 0 0 0 0.02 0"/>
<feBlend mode="normal" in2="BackgroundImageFix" result="effect1_dropShadow_4835_1894"/>
<feBlend mode="normal" in="SourceGraphic" in2="effect1_dropShadow_4835_1894" result="shape"/>
</filter>
<clipPath id="clip0_4835_1894">
<rect width="20" height="20" fill="white"/>
</clipPath>
</defs>
</svg>
