<svg width="32" height="32" viewBox="0 0 32 32" fill="none" xmlns="http://www.w3.org/2000/svg">
<g clip-path="url(#clip0_1175_2792)">
<path d="M24.999 2H0.999023V30H24.999V2Z" fill="#CBD3DD"/>
<path fill-rule="evenodd" clip-rule="evenodd" d="M5.68594 12.0331L3.99194 10.3401L5.12094 9.21005L6.81494 10.9041L9.63794 8.08105L10.7669 9.21005L7.94394 12.0331L6.81494 13.1601L5.68594 12.0331ZM3.99194 15.1701H14.3709V16.7701H3.99194V15.1701ZM3.99194 18.3601H8.78194V19.9601H3.99194V18.3601Z" fill="white"/>
<path d="M23.386 13.1718C23.1584 13.4046 23.031 13.7173 23.031 14.0428C23.031 14.3684 23.1584 14.681 23.386 14.9138L25.896 17.4608C26.0078 17.5753 26.1413 17.6662 26.2887 17.7283C26.4362 17.7904 26.5945 17.8224 26.7545 17.8224C26.9145 17.8224 27.0728 17.7904 27.2203 17.7283C27.3677 17.6662 27.5012 17.5753 27.613 17.4608L31.585 13.4308C31.8126 13.198 31.94 12.8854 31.94 12.5598C31.94 12.2343 31.8126 11.9216 31.585 11.6888L29.068 9.14184C28.9562 9.02739 28.8227 8.93644 28.6753 8.87435C28.5278 8.81226 28.3695 8.78027 28.2095 8.78027C28.0495 8.78027 27.8912 8.81226 27.7437 8.87435C27.5963 8.93644 27.4628 9.02739 27.351 9.14184L23.379 13.1688L23.386 13.1718Z" fill="#F56A3C"/>
<path d="M25.74 10.4502L30.295 15.0692L28.835 16.5512L24.28 11.9322L25.74 10.4502Z" fill="#F1F1F1"/>
<path d="M19.084 17.2021L21.359 19.5101L23.637 21.8211L19.753 22.8071L18.113 21.1431L19.084 17.2021Z" fill="#FAE4D4"/>
<path d="M18.1119 21.1431L19.7519 22.8071L17.5649 23.3611L18.1119 21.1431Z" fill="black"/>
<path fill-rule="evenodd" clip-rule="evenodd" d="M24.282 11.9292L25.719 13.3882L20.519 18.6622L19.082 17.2032L24.282 11.9292ZM27.397 15.0882L28.835 16.5472L23.635 21.8212L22.197 20.3622L20.519 18.6622L25.719 13.3882L27.397 15.0882Z" fill="#3E6CF2"/>
</g>
<defs>
<clipPath id="clip0_1175_2792">
<rect width="32" height="32" fill="white"/>
</clipPath>
</defs>
</svg>
