<svg width="53" height="33" viewBox="0 0 53 33" fill="none" xmlns="http://www.w3.org/2000/svg">
<g filter="url(#filter0_i_3989_86813)">
<path d="M35.8008 9.74725C35.8008 8.51686 30.6018 7.51489 24.1871 7.51489C17.7725 7.51489 12.5734 8.51686 12.5734 9.74725L10.4738 21.3607C10.2738 22.4821 11.1474 23.51 12.2998 23.51H14.3205C17.0516 23.51 19.6722 24.5794 21.6087 26.4899L22.8768 27.7411C23.603 28.4575 24.7765 28.4575 25.4974 27.7411L26.7656 26.4899C28.6969 24.5846 31.3174 23.51 34.0538 23.51H36.0745C37.2269 23.51 38.1057 22.4821 37.9005 21.3607L35.8008 9.74725Z" fill="#292929"/>
</g>
<path d="M47.8079 9.69623L27.0358 14.951C25.5022 15.3415 23.8917 15.3415 22.3526 14.951L1.58045 9.69623C-0.129031 9.2624 -0.129031 6.86548 1.58045 6.43165L22.3526 1.17687C23.8862 0.786421 25.4967 0.786421 27.0358 1.17687L47.8079 6.43165C49.5174 6.86548 49.5174 9.2624 47.8079 9.69623Z" fill="#292929"/>
<path d="M27.6183 6.52074C27.6183 7.0793 26.3101 7.53482 24.694 7.53482C23.078 7.53482 21.7698 7.0793 21.7698 6.52074C21.7698 5.96218 23.078 4.57935 24.694 4.57935C26.3101 4.57935 27.6183 5.96218 27.6183 6.52074Z" fill="#FDDF7B"/>
<path d="M24.6941 6.05591L37.5839 9.19576C39.2879 9.61332 40.5467 11.045 40.6951 12.7694C41.0139 16.3865 42.1792 22.5795 46.3402 26.0609" stroke="#FDDF7B" stroke-width="1.901" stroke-miterlimit="10"/>
<path d="M52.2822 28.3489L48.6928 25.3284C48.1981 24.8132 47.4945 24.618 46.8404 24.7373C46.8734 24.5909 46.8954 24.439 46.8954 24.2818C46.8954 23.1647 45.9774 22.259 44.8451 22.259C43.7128 22.259 42.7948 23.1647 42.7948 24.2818C42.7948 25.3989 43.7128 26.3045 44.8451 26.3045C44.9715 26.3045 45.0924 26.2882 45.2134 26.2665C45.065 26.9064 45.2299 27.6114 45.7246 28.1212L48.6103 31.8033C49.3524 32.7523 50.7651 32.8554 51.6445 32.0311L52.3646 31.3532C53.2441 30.5289 53.2056 29.1298 52.2822 28.3489Z" fill="#FDDF7B"/>
<defs>
<filter id="filter0_i_3989_86813" x="10.4452" y="6.33314" width="27.4851" height="21.9453" filterUnits="userSpaceOnUse" color-interpolation-filters="sRGB">
<feFlood flood-opacity="0" result="BackgroundImageFix"/>
<feBlend mode="normal" in="SourceGraphic" in2="BackgroundImageFix" result="shape"/>
<feColorMatrix in="SourceAlpha" type="matrix" values="0 0 0 0 0 0 0 0 0 0 0 0 0 0 0 0 0 0 127 0" result="hardAlpha"/>
<feOffset dy="-1.18175"/>
<feGaussianBlur stdDeviation="1.18175"/>
<feComposite in2="hardAlpha" operator="arithmetic" k2="-1" k3="1"/>
<feColorMatrix type="matrix" values="0 0 0 0 0 0 0 0 0 0 0 0 0 0 0 0 0 0 0.3 0"/>
<feBlend mode="normal" in2="shape" result="effect1_innerShadow_3989_86813"/>
</filter>
</defs>
</svg>
