<svg width="60" height="60" viewBox="0 0 60 60" fill="none" xmlns="http://www.w3.org/2000/svg">
<circle cx="30" cy="30" r="30" fill="#FEE500"/>
<g clip-path="url(#clip0_3384_256)">
<path d="M30 14C19.5053 14 11 20.6984 11 28.9653C11 34.286 14.5272 38.9393 19.818 41.5997L18.0283 48.2634C17.9588 48.4627 18.011 48.688 18.1674 48.8354C18.2716 48.9393 18.4019 48.9913 18.5583 48.9913C18.6712 48.9913 18.7842 48.9393 18.8884 48.8614L26.5857 43.6794C27.6978 43.8354 28.8445 43.9307 30.0087 43.9307C40.5034 43.9307 49.0087 37.2322 49.0087 28.9653C49.0087 20.6984 40.4861 14 30 14Z" fill="#392020"/>
<path d="M17.6634 26.5996H15.5958C15.3091 26.5996 15.0658 26.5303 14.8573 26.4003C14.6488 26.279 14.5272 26.0884 14.4751 25.8457C14.4664 25.7851 14.449 25.7071 14.4403 25.6378C14.4403 25.3345 14.5446 25.1005 14.7618 24.9359C14.9789 24.7712 15.2483 24.6846 15.5784 24.6846H21.903C22.1897 24.6846 22.433 24.7539 22.6328 24.8752C22.8413 25.0052 22.9629 25.1872 23.0151 25.4298C23.0238 25.4991 23.0324 25.5598 23.0324 25.6378C23.0324 25.9497 22.9282 26.175 22.7197 26.3483C22.5112 26.513 22.2419 26.5996 21.9117 26.5996H19.8441V33.7054C19.8441 34.0433 19.7398 34.3206 19.54 34.5286C19.3489 34.7366 19.0709 34.8405 18.7407 34.8405C18.4627 34.8405 18.2368 34.7626 18.037 34.6152C17.8459 34.4593 17.7243 34.2513 17.6721 34C17.6548 33.9047 17.6461 33.8094 17.6548 33.7054V26.5996H17.6634Z" fill="#FFE600"/>
<path d="M23.5798 25.1958C23.6667 24.9445 23.8057 24.7712 23.9795 24.6672C24.1532 24.5632 24.3791 24.5112 24.6484 24.5112H25.1784C25.4651 24.5112 25.6996 24.5719 25.8908 24.6845C26.0819 24.7972 26.2383 25.0225 26.3425 25.3431L28.9836 32.9774C29.0705 33.2114 29.1313 33.4194 29.166 33.584C29.1834 33.6967 29.2008 33.7833 29.2095 33.844C29.2095 34.1213 29.1052 34.3553 28.8967 34.5459C28.6969 34.7452 28.4536 34.8319 28.1669 34.8319C27.6631 34.8319 27.3329 34.6239 27.1852 34.2079L26.6205 32.5442H23.102L22.5373 34.2079C22.3983 34.6239 22.0769 34.8319 21.5556 34.8319C21.3037 34.8319 21.0865 34.7712 20.9127 34.6325C20.739 34.5026 20.626 34.3119 20.5739 34.0693C20.5565 34 20.5565 33.922 20.5565 33.8353C20.5565 33.7227 20.5652 33.5927 20.6173 33.4367C20.6608 33.2807 20.7129 33.1247 20.765 32.9688L23.5972 25.1958H23.5798ZM24.9004 26.9636H24.8743L23.5885 30.967H26.1514L24.9091 26.9636H24.9004Z" fill="#FFE600"/>
<path d="M29.5309 25.6377C29.5309 25.2998 29.6352 25.0225 29.8263 24.8145C30.0174 24.6065 30.2867 24.5026 30.6256 24.5026C30.9036 24.5026 31.1381 24.5806 31.3293 24.7279C31.5204 24.8838 31.642 25.0832 31.6941 25.3431C31.7115 25.4384 31.7202 25.5338 31.7115 25.6291V32.7348H35.3604C35.6557 32.7348 35.899 32.7955 36.0988 32.9254C36.2986 33.0554 36.4203 33.2461 36.4724 33.48C36.4898 33.5407 36.4984 33.6187 36.5071 33.688C36.5071 33.9913 36.4029 34.2253 36.1857 34.3899C35.9685 34.5546 35.6992 34.6412 35.369 34.6412H30.808C30.4692 34.6412 30.1912 34.5719 29.9827 34.4332C29.7742 34.3033 29.6352 34.0693 29.5657 33.7573C29.5396 33.6273 29.5222 33.48 29.5222 33.3154V25.6204L29.5309 25.6377Z" fill="#FFE600"/>
<path d="M36.733 25.6377C36.733 25.2998 36.8285 25.0225 37.0283 24.8145C37.2282 24.6065 37.4888 24.5026 37.8276 24.5026C38.1056 24.5026 38.3402 24.5806 38.5226 24.7279C38.7138 24.8838 38.8354 25.0832 38.8875 25.3431C38.9049 25.4384 38.9136 25.5338 38.9049 25.6291V28.9306L42.3452 24.9878C42.5016 24.8232 42.6406 24.6932 42.7622 24.6152C42.8925 24.5372 43.0402 24.4939 43.214 24.4939C43.4572 24.4939 43.6744 24.5632 43.8656 24.6932C44.0654 24.8232 44.1783 24.9965 44.2304 25.2218C44.2304 25.2218 44.2304 25.2651 44.2478 25.3085C44.2478 25.3431 44.2478 25.3778 44.2478 25.4038C44.2478 25.5598 44.2131 25.6984 44.1436 25.8197C44.0741 25.941 43.9872 26.0624 43.8829 26.1837L41.6328 28.636L44.2913 32.8388L44.3695 32.9688C44.5519 33.2547 44.6561 33.4627 44.6822 33.6013C44.6822 33.61 44.6822 33.636 44.6996 33.6707C44.6996 33.7053 44.6996 33.7313 44.6996 33.74C44.6996 34.1299 44.5866 34.4072 44.3695 34.5806C44.1523 34.7452 43.8829 34.8319 43.5702 34.8319C43.3443 34.8319 43.1705 34.7972 43.0229 34.7105C42.8839 34.6239 42.7362 34.4679 42.5972 34.2339L40.0777 30.1871L38.8788 31.435V33.6967C38.8788 34.0346 38.7919 34.3119 38.5921 34.5199C38.3923 34.7279 38.123 34.8319 37.7929 34.8319C37.5149 34.8319 37.2803 34.7539 37.0892 34.6065C36.898 34.4506 36.7764 34.2426 36.7243 33.9913C36.7069 33.896 36.6982 33.8007 36.7069 33.6967V25.6291L36.733 25.6377Z" fill="#FFE600"/>
</g>
<defs>
<clipPath id="clip0_3384_256">
<rect width="38" height="35" fill="white" transform="translate(11 14)"/>
</clipPath>
</defs>
</svg>
