<svg width="12" height="12" viewBox="0 0 12 12" fill="none" xmlns="http://www.w3.org/2000/svg">
<g clip-path="url(#clip0_1175_4636)">
<path fill-rule="evenodd" clip-rule="evenodd" d="M6 0.5C5.33696 0.5 4.70107 0.763392 4.23223 1.23223C3.76339 1.70107 3.5 2.33696 3.5 3C3.5 3.49445 3.64662 3.9778 3.92133 4.38892C4.19603 4.80005 4.58648 5.12048 5.04329 5.3097C5.50011 5.49892 6.00277 5.54843 6.48773 5.45196C6.97268 5.3555 7.41813 5.1174 7.76777 4.76777C8.1174 4.41813 8.3555 3.97268 8.45196 3.48773C8.54843 3.00277 8.49892 2.50011 8.3097 2.04329C8.12048 1.58648 7.80005 1.19603 7.38893 0.921326C6.9778 0.646622 6.49445 0.5 6 0.5ZM4.93934 1.93934C5.22064 1.65804 5.60217 1.5 6 1.5C6.29667 1.5 6.58668 1.58797 6.83335 1.7528C7.08003 1.91762 7.27229 2.15189 7.38582 2.42597C7.49935 2.70006 7.52905 3.00166 7.47118 3.29264C7.4133 3.58361 7.27044 3.85088 7.06066 4.06066C6.85088 4.27044 6.58361 4.4133 6.29263 4.47118C6.00166 4.52905 5.70006 4.49935 5.42597 4.38582C5.15189 4.27229 4.91762 4.08003 4.7528 3.83335C4.58797 3.58668 4.5 3.29667 4.5 3C4.5 2.60218 4.65804 2.22064 4.93934 1.93934ZM3.14536 6.5H2.94019L2.79415 6.64412L0.648787 8.76136L0.5 8.90819V9.11723V12H1.5V9.32628L3.35054 7.5H8.89285L10.5 8.92528V12H11.5V8.7004V8.47552L11.3318 8.32631L9.41437 6.62591L9.27239 6.5H9.08262H3.14536Z" fill="#A4A4A4"/>
</g>
<defs>
<clipPath id="clip0_1175_4636">
<rect width="12" height="12" fill="white"/>
</clipPath>
</defs>
</svg>
