<svg width="20" height="24" viewBox="0 0 20 24" fill="none" xmlns="http://www.w3.org/2000/svg">
<path fill-rule="evenodd" clip-rule="evenodd" d="M2.85811 22.3924C1.53105 23.0227 0 22.055 0 20.5858V3.4375V2C0 0.89543 0.895431 0 2 0H3.125H18C19.1046 0 20 0.89543 20 2V11.875V20.5858C20 22.055 18.4689 23.0228 17.1419 22.3924L10.8581 19.4076C10.3151 19.1497 9.68489 19.1497 9.14189 19.4076L2.85811 22.3924Z" fill="#FAFAFA"/>
<path d="M2.64359 21.9408C1.64829 22.4135 0.5 21.6877 0.5 20.5858V3.4375V2C0.5 1.17157 1.17157 0.5 2 0.5H3.125H18C18.8284 0.5 19.5 1.17157 19.5 2V11.875V20.5858C19.5 21.6877 18.3517 22.4135 17.3564 21.9408L11.0726 18.956C10.3939 18.6336 9.60611 18.6336 8.92736 18.956L2.64359 21.9408Z" stroke="black" stroke-opacity="0.06"/>
<path d="M11 6C11 5.44772 10.5523 5 10 5C9.44771 5 9 5.44772 9 6V9H6C5.44772 9 5 9.44771 5 10C5 10.5523 5.44772 11 6 11H9V14C9 14.5523 9.44771 15 10 15C10.5523 15 11 14.5523 11 14V11H14C14.5523 11 15 10.5523 15 10C15 9.44771 14.5523 9 14 9H11V6Z" fill="#D9D9D9"/>
</svg>
