<svg width="20" height="20" viewBox="0 0 20 20" fill="none" xmlns="http://www.w3.org/2000/svg">
<path d="M20 0H0V20H20V0Z" fill="#D24628"/>
<path d="M8.18 11.4022V9.69421H10.308C10.5787 9.69421 10.826 9.63821 11.05 9.52621C11.274 9.41421 11.4513 9.25088 11.582 9.03621C11.7127 8.82154 11.778 8.56021 11.778 8.25221C11.778 7.95354 11.7127 7.69688 11.582 7.48221C11.4513 7.26754 11.274 7.10421 11.05 6.99221C10.826 6.88021 10.5787 6.82421 10.308 6.82421H8.18V5.11621H10.63C11.2553 5.11621 11.82 5.24221 12.324 5.49421C12.828 5.74621 13.2247 6.11021 13.514 6.58621C13.8127 7.05288 13.962 7.60821 13.962 8.25221C13.962 8.89621 13.8127 9.45621 13.514 9.93221C13.2247 10.3989 12.828 10.7629 12.324 11.0242C11.82 11.2762 11.2553 11.4022 10.63 11.4022H8.18ZM6.5 15.0002V5.11621H8.698V15.0002H6.5Z" fill="white"/>
</svg>
