<svg width="48" height="48" viewBox="0 0 48 48" fill="none" xmlns="http://www.w3.org/2000/svg">
<path d="M16 36.247C24.8366 36.247 32 30.819 32 24.1234C32 17.4277 24.8366 11.9998 16 11.9998C7.16344 11.9998 0 17.4277 0 24.1234C0 30.819 7.16344 36.247 16 36.247Z" fill="#DBE9F0"/>
<path d="M16.0001 31.3134C12.6753 31.3134 9.501 30.0702 7.06122 27.8121L6.51227 27.3047C5.62591 26.4845 5.11719 25.3204 5.11719 24.1122C5.11719 21.714 7.06771 19.7634 9.46596 19.7634H22.5369C24.9352 19.7634 26.8857 21.714 26.8857 24.1122C26.8857 25.3204 26.377 26.4832 25.4906 27.3047L24.9417 27.8121C22.5019 30.0702 19.3263 31.3134 16.0027 31.3134H16.0001Z" fill="url(#paint0_radial_523_552)"/>
<path d="M16.0001 20.1482H9.46464C7.27533 20.1482 5.5 21.9235 5.5 24.1128C5.5 25.2172 5.9607 26.2723 6.7718 27.0224L7.32075 27.5298C9.68266 29.7152 12.7817 30.9286 15.9988 30.9286C19.216 30.9286 22.315 29.7152 24.6769 27.5298L25.2258 27.0224C26.0369 26.2723 26.4976 25.2172 26.4976 24.1128C26.4976 21.9235 24.7223 20.1482 22.533 20.1482H15.9975H16.0001Z" fill="url(#paint1_radial_523_552)"/>
<path d="M13.5952 26.1609L14.9908 22.6941H15.5382L16.9289 26.1609H16.2138L15.1388 23.3154H15.3853L14.2955 26.1609H13.5952ZM14.3349 25.5149V24.9527H16.199V25.5149H14.3349ZM17.2397 26.1609V22.6941H17.9104V26.1609H17.2397Z" fill="white"/>
<path d="M1.83762 18.4832C0.665747 20.1689 0 22.087 0 24.1245C0 26.162 0.665747 28.08 1.83762 29.7658C2.95109 28.398 3.65707 26.38 3.65707 24.1245C3.65707 21.869 2.95109 19.851 1.83762 18.4832Z" fill="#9594BB"/>
<path d="M30.1625 18.4832C29.049 19.851 28.343 21.869 28.343 24.1245C28.343 26.38 29.049 28.398 30.1625 29.7658C31.3343 28.08 32.0001 26.162 32.0001 24.1245C32.0001 22.087 31.3343 20.1689 30.1625 18.4832Z" fill="#9594BB"/>
<defs>
<radialGradient id="paint0_radial_523_552" cx="0" cy="0" r="1" gradientUnits="userSpaceOnUse" gradientTransform="translate(19.9479 32.9395) scale(43.4527 43.4527)">
<stop offset="0.47" stop-color="#BEBDC7"/>
<stop offset="1" stop-color="#D6D6D6"/>
</radialGradient>
<radialGradient id="paint1_radial_523_552" cx="0" cy="0" r="1" gradientUnits="userSpaceOnUse" gradientTransform="translate(22.0502 33.6591) scale(16.6229 16.6229)">
<stop stop-color="#15152E"/>
<stop offset="0.250594" stop-color="#414168"/>
<stop offset="1" stop-color="#1B203C"/>
</radialGradient>
</defs>
</svg>