<svg width="69" height="68" viewBox="0 0 69 68" fill="none" xmlns="http://www.w3.org/2000/svg">
<rect x="0.458496" width="68" height="68" rx="4" fill="#E92F30"/>
<path d="M50.7789 38.3117C50.3442 37.8065 49.7496 37.3964 48.995 37.0713C47.9957 36.6361 46.8614 36.3711 45.6671 36.201C44.4679 36.0309 43.2037 35.9659 41.9444 35.9659C41.5997 35.9659 41.2549 35.9709 40.9101 35.9809C40.0306 35.0006 39.0862 33.8753 38.0719 32.5899C37.2774 31.5896 36.5578 30.7493 35.9332 29.9741C35.7233 29.714 35.5235 29.4589 35.3336 29.2138C35.3785 29.0988 35.4235 28.9937 35.4635 28.8787C36.203 26.8481 36.7277 24.6474 36.7277 22.1266C36.7277 21.7165 36.7077 21.2913 36.6827 20.8612V20.7812C36.6827 20.7662 36.6827 20.7512 36.6827 20.7312H36.6577C36.5728 19.7459 36.3529 18.9306 35.9632 18.2804C35.7333 17.9053 35.4435 17.5852 35.0887 17.3551C34.729 17.13 34.2992 17 33.8795 17C33.3748 17 32.9001 17.1751 32.5103 17.4451C31.9207 17.8553 31.481 18.4655 31.1762 19.2107C30.8714 19.9609 30.6965 20.8562 30.6965 21.8765C30.6965 21.9766 30.6965 22.0816 30.7015 22.1866V22.1966C30.7614 23.6571 30.9463 24.8875 31.2511 25.9778C31.6309 27.3432 32.2055 28.4736 32.9001 29.5139C32.3105 30.9143 31.6259 32.3148 30.9513 33.7952C30.4666 34.8706 29.7221 36.3911 28.8626 38.0116C28.248 38.2316 27.6534 38.4667 27.0787 38.7268C24.7502 39.7821 22.7315 41.2226 20.9975 43.1732C20.4928 43.7334 20.1131 44.2935 19.8582 44.8487C19.5984 45.4089 19.4585 45.9641 19.4585 46.5042C19.4585 46.8343 19.5135 47.1644 19.6284 47.4695C19.7983 47.9297 20.1181 48.3398 20.5328 48.6049C20.9476 48.875 21.4373 49 21.927 49C22.4616 49 22.9963 48.86 23.526 48.6049C24.0506 48.3498 24.5753 47.9797 25.085 47.4895C25.085 47.4895 25.085 47.4895 25.09 47.4845C25.8345 46.7843 26.574 45.854 27.3186 44.7887C28.3679 43.2832 29.4123 41.5127 30.3467 39.7971C31.8558 39.322 33.5197 38.9519 35.3736 38.6518C36.6577 38.4517 38.2867 38.2666 39.9857 38.1816C40.5753 38.8068 41.1399 39.372 41.6896 39.8771C43.2886 41.3326 44.7327 42.2979 46.2018 42.703C46.7614 42.8531 47.3011 42.9231 47.8108 42.9231C48.7752 42.9231 49.6346 42.673 50.3092 42.1929C50.644 41.9528 50.9288 41.6477 51.1337 41.2876C51.3386 40.9275 51.4585 40.5073 51.4585 40.0772C51.4585 39.442 51.1987 38.8218 50.7639 38.3217L50.7789 38.3117ZM33.3598 19.6408C33.4947 19.4208 33.6296 19.2857 33.7296 19.2207C33.8295 19.1557 33.8745 19.1557 33.8795 19.1557L33.9195 19.1707C33.9694 19.2007 34.1243 19.3407 34.2592 19.6858C34.3992 20.0309 34.5141 20.5711 34.5391 21.3013C34.5541 21.5764 34.5691 21.8565 34.5691 22.1216C34.5691 23.8371 34.2942 25.3726 33.8595 26.8481C33.8295 26.7831 33.7945 26.718 33.7646 26.653C33.2599 25.4826 32.9351 24.1022 32.8501 22.1066C32.8501 22.0266 32.8501 21.9515 32.8501 21.8715C32.8501 20.8312 33.09 20.071 33.3598 19.6358V19.6408ZM23.6159 45.914H23.6109L23.6059 45.924C23.2311 46.2842 22.8814 46.5242 22.5915 46.6643C22.3017 46.8043 22.0719 46.8493 21.927 46.8443C21.837 46.8443 21.782 46.8293 21.7471 46.8143C21.6971 46.7893 21.6871 46.7843 21.6671 46.7543C21.6471 46.7243 21.6171 46.6543 21.6122 46.5042C21.6122 46.3392 21.6571 46.0841 21.807 45.759C21.9569 45.4339 22.2118 45.0438 22.5965 44.6186V44.6136C23.9257 43.1232 25.4048 41.9928 27.1237 41.1025C26.604 41.9678 26.0744 42.8031 25.5547 43.5483C24.8601 44.5486 24.1755 45.3889 23.6109 45.919L23.6159 45.914ZM35.0488 36.5161C33.8845 36.7012 32.7802 36.9212 31.7258 37.1763C32.1955 36.236 32.6053 35.3807 32.9201 34.6905C33.4048 33.6202 33.9095 32.5649 34.3942 31.4895C35.0138 32.2498 35.6734 33.03 36.3879 33.9303C37.0125 34.7205 37.6122 35.4508 38.1968 36.141C37.0475 36.241 35.9732 36.3761 35.0587 36.5161H35.0488ZM49.2749 40.2123C49.2249 40.3023 49.1 40.4423 48.8551 40.5574C48.6153 40.6724 48.2605 40.7624 47.8208 40.7624C47.511 40.7624 47.1562 40.7174 46.7714 40.6174C45.842 40.3723 44.6078 39.6221 43.1537 38.2816C43.1037 38.2366 43.0538 38.1866 43.0088 38.1416C43.8233 38.1716 44.6228 38.2316 45.3673 38.3367C46.4316 38.4867 47.391 38.7268 48.1406 39.0519C48.6702 39.282 48.99 39.532 49.1499 39.7171C49.3098 39.9072 49.3198 40.0122 49.3248 40.0722C49.3248 40.1122 49.3148 40.1522 49.2849 40.2123H49.2749Z" fill="white"/>
</svg>
