<svg width="39" height="37" viewBox="0 0 39 37" fill="none" xmlns="http://www.w3.org/2000/svg">
<rect x="2.93342" y="4.89453" width="33.1267" height="31.1475" rx="5.15254" fill="#212938"/>
<path d="M25.15 29.7274C25.048 29.7274 24.9653 29.6448 24.9653 29.5428V22.6466C24.9653 22.5446 25.048 22.4619 25.15 22.4619H26.4053C26.5073 22.4619 26.59 22.5446 26.59 22.6466V29.5428C26.59 29.6448 26.5073 29.7274 26.4053 29.7274H25.15ZM26.3918 29.7274C26.2898 29.7274 26.2071 29.6448 26.2071 29.5428V28.5125C26.2071 28.4105 26.2898 28.3278 26.3918 28.3278H30.0271C30.1291 28.3278 30.2118 28.4105 30.2118 28.5125V29.5428C30.2118 29.6448 30.1291 29.7274 30.0271 29.7274H26.3918ZM26.3918 26.6916C26.2898 26.6916 26.2071 26.6089 26.2071 26.5069V25.5281C26.2071 25.4261 26.2898 25.3434 26.3918 25.3434H29.665C29.767 25.3434 29.8496 25.4261 29.8496 25.5281V26.5069C29.8496 26.6089 29.767 26.6916 29.665 26.6916H26.3918ZM26.3918 23.8512C26.2898 23.8512 26.2071 23.7685 26.2071 23.6665V22.6466C26.2071 22.5446 26.2898 22.4619 26.3918 22.4619H29.9754C30.0774 22.4619 30.1601 22.5446 30.1601 22.6466V23.6665C30.1601 23.7685 30.0774 23.8512 29.9754 23.8512H26.3918Z" fill="white"/>
<path d="M19.967 29.7284C19.8907 29.7284 19.8223 29.6816 19.7948 29.6104L17.1232 22.7143C17.0763 22.5933 17.1656 22.4629 17.2954 22.4629H18.635C18.7126 22.4629 18.782 22.5114 18.8085 22.5843L20.816 28.0912C20.8599 28.2117 20.7707 28.3391 20.6424 28.3391H20.4575C20.3289 28.3391 20.2397 28.211 20.2843 28.0904L22.3208 22.5835C22.3476 22.511 22.4168 22.4629 22.494 22.4629H23.8126C23.9426 22.4629 24.032 22.5938 23.9845 22.7149L21.2834 29.6111C21.2557 29.6819 21.1875 29.7284 21.1115 29.7284H19.967Z" fill="white"/>
<path d="M14.7036 29.7274C14.6016 29.7274 14.5189 29.6448 14.5189 29.5428V22.6466C14.5189 22.5446 14.6016 22.4619 14.7036 22.4619H15.9592C16.0612 22.4619 16.1439 22.5446 16.1439 22.6466V29.5428C16.1439 29.6448 16.0612 29.7274 15.9592 29.7274H14.7036Z" fill="white"/>
<path d="M8.95983 29.7284C8.85783 29.7284 8.77514 29.6457 8.77514 29.5437V22.6476C8.77514 22.5456 8.85783 22.4629 8.95983 22.4629H10.2155C10.3175 22.4629 10.4002 22.5456 10.4002 22.6476V29.5437C10.4002 29.6457 10.3175 29.7284 10.2155 29.7284H8.95983ZM10.2123 29.7284C10.1103 29.7284 10.0276 29.6457 10.0276 29.5437V28.4929C10.0276 28.3909 10.1103 28.3082 10.2123 28.3082H13.4553C13.5573 28.3082 13.6399 28.3909 13.6399 28.4929V29.5437C13.6399 29.6457 13.5573 29.7284 13.4553 29.7284H10.2123Z" fill="white"/>
<ellipse cx="15.3222" cy="19.4845" rx="1.51663" ry="1.50792" fill="white"/>
<mask id="mask0_3926_1182" style="mask-type:alpha" maskUnits="userSpaceOnUse" x="0" y="0" width="39" height="13">
<rect x="0.433229" y="0.533203" width="38.1269" height="11.8361" rx="5.15254" fill="#212938"/>
</mask>
<g mask="url(#mask0_3926_1182)">
<path d="M38.5526 11.9905V2.65703C38.5526 1.49101 37.6083 0.549826 36.4384 0.549826H2.54748C1.37756 0.544597 0.433229 1.49101 0.433229 2.65703V11.9957H38.5526V11.9905Z" fill="white"/>
<path d="M7.24907 0.533936H2.54787C1.37782 0.533936 0.43338 1.48035 0.43338 2.64637V7.33138C2.70528 5.06731 4.97717 2.79801 7.24907 0.533936Z" fill="#212938"/>
<path d="M22.4628 0.53418H13.5231L2.02855 11.9905H10.9682C14.798 8.17346 18.633 4.35644 22.4628 0.53418Z" fill="#212938"/>
<path d="M37.4252 0.790045C37.1314 0.633181 36.8009 0.539062 36.4389 0.539062H28.7321C28.7321 0.539062 28.7164 0.559978 28.7059 0.570435C24.8866 4.377 21.0621 8.1888 17.2428 11.9954H26.1824C29.9283 8.26201 33.6794 4.52864 37.4252 0.790045Z" fill="#212938"/>
<path d="M32.4566 11.9899H38.5601V5.91406C36.5291 7.94284 34.4928 9.96639 32.4566 11.9899Z" fill="#212938"/>
<g opacity="0.3">
<path opacity="0.2" d="M38.5526 6.21655H0.433241V6.53028H38.5526V6.21655Z" fill="black"/>
<path d="M38.5526 6.13965H0.433229V6.45338H38.5526V6.13965Z" fill="#212938"/>
</g>
</g>
<path d="M36.0601 11.7471H2.93342V12.3911H36.0601V11.7471Z" fill="#131A26"/>
</svg>
