<svg width="48" height="48" viewBox="0 0 48 48" fill="none" xmlns="http://www.w3.org/2000/svg">
<path d="M11.24 0.72362L9.81641 1.36133L23.4908 31.8879L24.9144 31.2502L11.24 0.72362Z" fill="white"/>
<path d="M13.0204 2.36087L9.62599 3.93795C9.47 4.00971 9.28437 3.94263 9.21105 3.78664L9.15802 3.67432C9.08626 3.51833 9.15334 3.3327 9.30933 3.25939L12.7037 1.68231C12.8597 1.61055 13.0453 1.67763 13.1186 1.83362L13.1717 1.94593C13.2434 2.10193 13.1764 2.28756 13.0204 2.36087Z" fill="#097885"/>
<path d="M25.1831 29.0589L21.7887 30.6359C21.6327 30.7077 21.4471 30.6406 21.3738 30.4846L21.3207 30.3723C21.249 30.2163 21.3161 30.0307 21.472 29.9574L24.8664 28.3803C25.0224 28.3085 25.2081 28.3756 25.2814 28.5316L25.3344 28.6439C25.4062 28.7999 25.3391 28.9856 25.1831 29.0589Z" fill="#097885"/>
<path d="M18.2135 32.5254H16.6084C16.4361 32.5254 16.2964 32.6651 16.2964 32.8374V37.305C16.2964 37.4773 16.4361 37.617 16.6084 37.617H18.2135C18.3858 37.617 18.5255 37.4773 18.5255 37.305V32.8374C18.5255 32.6651 18.3858 32.5254 18.2135 32.5254Z" fill="#097885"/>
<path d="M18.9622 34.5586H15.6567C15.4844 34.5586 15.3447 34.6983 15.3447 34.8706V35.8689C15.3447 36.0412 15.4844 36.1809 15.6567 36.1809H18.9622C19.1345 36.1809 19.2742 36.0412 19.2742 35.8689V34.8706C19.2742 34.6983 19.1345 34.5586 18.9622 34.5586Z" fill="#D1EEED"/>
<path d="M19.3567 36.0566H15.2635C15.0912 36.0566 14.9515 36.1963 14.9515 36.3686V38.6133C14.9515 38.7857 15.0912 38.9253 15.2635 38.9253H19.3567C19.5291 38.9253 19.6687 38.7857 19.6687 38.6133V36.3686C19.6687 36.1963 19.5291 36.0566 19.3567 36.0566Z" fill="#D1EEED"/>
<path d="M17.3103 37.4922C11.7555 37.4922 7.16461 41.4419 6.43457 46.5678H28.1876C27.456 41.4419 22.8668 37.4922 17.3119 37.4922H17.3103Z" fill="#097885"/>
<path d="M17.4664 30.5665C25.4932 30.5665 32.0001 24.0596 32.0001 16.0328C32.0001 8.00601 25.4932 1.49902 17.4664 1.49902C9.4396 1.49902 2.93262 8.00601 2.93262 16.0328C2.93262 24.0596 9.4396 30.5665 17.4664 30.5665Z" fill="#0CB4C7"/>
<mask id="mask0_523_300" style="mask-type:luminance" maskUnits="userSpaceOnUse" x="2" y="1" width="31" height="30">
<path d="M17.4664 30.5665C25.4932 30.5665 32.0001 24.0596 32.0001 16.0328C32.0001 8.00601 25.4932 1.49902 17.4664 1.49902C9.4396 1.49902 2.93262 8.00601 2.93262 16.0328C2.93262 24.0596 9.4396 30.5665 17.4664 30.5665Z" fill="white"/>
</mask>
<g mask="url(#mask0_523_300)">
<path d="M4.29408 22.1832V19.4003L3.49229 18.3692C3.49229 18.3692 4.30344 19.0743 3.99146 17.5845L3.67947 16.0948C3.67947 16.0948 2.68113 15.1589 3.42989 14.9093C4.17865 14.6597 5.23939 14.6597 5.23939 14.6597L6.17534 15.7204C6.17534 15.7204 5.80096 18.1523 7.98485 19.4627L8.54642 18.0276L7.86006 16.75C7.86006 16.75 7.67287 16.7671 8.04725 16.3054C8.42163 15.8437 8.54642 14.6597 8.54642 14.6597C8.54642 14.6597 8.49026 14.4725 9.11111 14.0981C9.73196 13.7237 9.35758 13.4118 10.1063 13.7861C10.8551 14.1605 11.1671 14.9717 11.1671 14.9717C11.1671 14.9717 11.1047 15.5332 11.8534 15.4708L12.6022 15.4085C12.6022 15.4085 13.9063 16.4723 13.2231 16.7515C12.5398 17.0308 14.1621 17.4519 14.4741 17.5845C14.7861 17.7171 14.9343 18.6531 14.9343 18.6531L12.9142 18.3692C12.9142 18.3692 13.6006 19.5875 14.0997 19.6499C14.5989 19.7123 14.5599 19.6499 14.953 19.8371L15.3461 20.0243C15.3461 20.0243 15.5333 19.5875 15.8453 20.2738L16.1573 20.9602C16.1573 20.9602 16.7812 19.8371 16.594 19.4003C16.4069 18.9635 16.2977 18.5891 16.2977 18.5891L15.3461 18.3676C15.3461 18.3676 15.7829 17.4956 15.3461 17.0744C14.9093 16.6548 14.7221 15.9061 14.4726 16.0309C14.223 16.1557 13.9734 16.3054 13.9734 16.3054L13.7238 15.5941L13.4742 14.6581L14.0982 14.7829C14.0982 14.7829 14.2854 15.9061 14.5973 15.6565C14.9093 15.4069 15.0575 15.0325 14.953 14.8453C14.8469 14.6581 14.9343 13.6161 14.9343 13.6161L13.7877 12.9703C13.7877 12.9703 12.9095 12.8502 13.2231 12.4758C13.5382 12.1014 13.9749 11.387 13.9749 11.387C13.9749 11.387 14.6457 11.167 14.953 11.387C15.2603 11.6069 16.2977 10.4807 16.2977 10.4807C16.2977 10.4807 15.9701 9.8567 16.0325 9.41992C16.0949 8.98315 16.0325 8.35918 16.0325 8.35918C16.0325 8.35918 14.7221 7.29843 14.5349 7.17364C14.3478 7.04885 14.0982 6.61207 14.0982 6.61207C14.0982 6.61207 13.599 6.48728 14.0982 6.17529L14.5973 5.86331C14.5973 5.86331 14.5583 5.86331 14.953 6.17529L15.3461 6.48728L16.2977 6.67447V6.30009L15.3461 5.55133L15.8453 4.84156C15.8453 4.84156 16.2509 5.06775 16.2977 4.84156C16.3445 4.61537 16.6284 3.55463 16.6284 3.55463L16.2977 2.80587L15.3461 3.24265V2.80587L16.2977 2.30669L16.6284 1.62813V1.04004H13.4742L1.29436 6.48572C1.29436 6.48572 -2.49468 14.0357 -2.43385 14.2229C-2.37301 14.4101 0.739029 23.0801 0.930899 23.7665C1.12277 24.4529 4.29408 22.1816 4.29408 22.1816V22.1832Z" fill="#067280"/>
<path d="M17.4661 2.80756L17.8405 3.49393L18.5268 4.19589H17.8405C17.9029 4.99145 17.9965 5.49062 17.9965 5.49062L17.4661 6.48897C17.2789 7.05054 17.9029 7.8617 17.9965 7.67451C18.0901 7.48732 18.5268 6.80095 18.5268 6.80095C18.5268 6.80095 18.2149 6.05219 18.5268 5.55302C18.8388 5.05385 18.0901 5.36583 18.8388 5.05385C19.5876 4.74186 19.6687 3.36913 19.6687 3.36913L19.2756 3.11954L18.5268 2.18359H17.4661V2.80756Z" fill="#067280"/>
<path d="M17.3411 11.0423L17.3099 11.7286L17.4659 12.4696C17.4659 12.4696 17.2163 12.9048 17.7155 12.9719C18.2147 13.0389 17.8247 12.8518 18.5501 13.4133C19.2754 13.9749 18.4019 12.9766 19.2754 13.9749C20.149 14.9732 20.149 15.2852 20.5858 15.2852C21.0225 15.2852 20.4672 15.2228 21.2752 15.2852C22.0833 15.3476 23.0192 14.8485 22.2705 14.0997C21.5217 13.3509 21.7713 13.1559 20.9601 12.9719C20.149 12.7894 20.8915 12.961 19.9275 12.4696C18.9635 11.9782 18.7139 11.8534 18.5267 11.6662C18.3395 11.479 18.4019 10.8551 18.1523 10.7303C17.9027 10.6055 17.4659 10.7303 17.4659 10.7303L17.3411 11.0423Z" fill="#067280"/>
<path d="M27.3216 14.7222C27.3216 14.7222 25.3873 14.5974 25.1377 14.7222C24.8882 14.847 24.2018 14.7222 23.9522 14.7222C23.7026 14.7222 23.3282 14.9094 23.3282 14.9094C23.3282 14.9094 23.2658 15.5958 23.8274 15.6582C24.389 15.7206 23.765 15.7206 24.7634 16.0325C25.7617 16.3445 25.2625 17.1588 25.9489 16.7517C26.6353 16.3445 26.3233 16.2821 26.7601 16.0325C27.1968 15.783 26.5729 15.8454 27.1968 15.783C27.8208 15.7206 27.9456 15.5443 27.8832 15.2885C27.8208 15.0342 27.3216 14.7222 27.3216 14.7222Z" fill="#067280"/>
<path d="M28.1859 18.3691C28.1859 18.3691 26.8849 16.7484 26.6977 17.0759C26.5105 17.4035 26.1985 17.3427 26.5105 17.9651C26.8225 18.5891 27.4465 19.1506 26.6977 19.213C25.949 19.2754 26.5105 19.3378 25.949 19.2754C25.3874 19.213 24.9506 19.213 24.7634 19.213C24.5762 19.213 24.1987 19.302 24.1987 19.302V18.3691L23.3267 19.302C23.3267 19.302 22.6919 19.9618 22.5421 20.5858C22.3923 21.2097 21.8308 21.8602 21.8308 21.8602C21.8308 21.8602 21.1507 21.6855 21.2723 22.6012C21.394 23.5169 22.018 23.8959 22.018 23.8959C22.018 23.8959 22.5125 24.7024 23.3252 24.64C24.1379 24.5776 25.6105 22.6012 25.6105 22.6012C25.6105 22.6012 25.7602 22.5591 26.197 22.6012C26.6338 22.6433 27.1329 22.9553 27.1329 22.9553L27.6321 23.1425L28.1843 21.8602C28.1843 21.8602 27.2406 21.0834 28.1843 20.5858C29.1281 20.0866 29.4401 19.7746 29.4401 19.7746V19.2754L28.5041 18.6515L28.1843 18.3676L28.1859 18.3691Z" fill="#067280"/>
<path d="M18.5251 14.6656C18.3379 14.4098 17.1695 13.9871 17.4098 14.6656C17.6516 15.3442 17.4644 16.0306 17.4644 16.0306L17.3084 17.3362C17.0276 17.8385 15.4755 17.5265 16.6267 18.0881C17.7764 18.6497 17.09 18.5374 17.7764 18.6497L18.4627 18.7604L19.2739 17.5811C19.2739 17.5811 19.2505 17.199 19.667 17.5811L20.085 17.9633L20.8962 16.5282H19.9259L19.2739 16.7481L18.8371 16.3036C18.8371 16.3036 18.5251 16.653 18.8995 16.029C19.2739 15.405 19.2739 15.0307 19.2739 15.0307L18.5251 14.6641V14.6656Z" fill="#067280"/>
</g>
<path d="M28.4742 47.5349H6.20641C5.67448 47.5349 5.23926 47.0997 5.23926 46.5677C5.23926 46.0358 5.67448 45.6006 6.20641 45.6006H28.4758C29.0077 45.6006 29.443 46.0358 29.443 46.5677C29.443 47.0997 29.0077 47.5349 28.4758 47.5349H28.4742Z" fill="#FF773D"/>
<path d="M17.4724 33.5091C15.3618 33.5091 13.2481 33.1223 11.2171 32.3439C6.86026 30.6748 3.4144 27.4098 1.51442 23.1481C-2.40878 14.3533 1.55497 4.00482 10.3498 0.0816232C10.8209 -0.128966 11.3747 0.0816246 11.5852 0.55584C11.7958 1.0285 11.5852 1.58071 11.111 1.7913C3.2584 5.29487 -0.281051 14.5327 3.22253 22.3853C6.72454 30.238 15.9639 33.7774 23.8166 30.2738C24.2892 30.0633 24.843 30.2739 25.052 30.7481C25.2626 31.2207 25.052 31.7729 24.5778 31.9835C22.3019 32.999 19.8887 33.5076 17.4693 33.5076L17.4724 33.5091Z" fill="#D1EEED"/>
</svg>