<svg width="48" height="48" viewBox="0 0 48 48" fill="none" xmlns="http://www.w3.org/2000/svg">
<g clip-path="url(#clip0_523_405)">
<path d="M1.74162 9.50994C2.21784 9.18933 2.81854 9.11543 3.35826 9.31107L14.5744 13.3767C14.5744 13.3767 14.5755 13.3774 14.5763 13.3774L14.5827 13.3797C14.5827 13.3797 14.5823 13.3797 14.5816 13.3797C14.7104 13.4265 14.8343 13.4899 14.9529 13.565C15.5557 13.9464 16.0001 14.6551 16.0001 15.3074V18.5237L2.49941 13.6299V10.6271L0.921753 10.0619L1.74162 9.50994Z" fill="#DBE9F0"/>
<path d="M30.2583 9.51009C29.782 9.18939 29.1813 9.11545 28.6415 9.31111L17.4255 13.3767C17.4255 13.3767 17.4243 13.3774 17.4236 13.3774L17.4172 13.3797C17.4172 13.3797 17.4175 13.3797 17.4183 13.3797C17.2895 13.4265 17.1656 13.4899 17.0474 13.565C16.4442 13.9464 15.9998 14.6551 15.9998 15.3074V18.5237L29.5001 13.6302V10.6271L31.0777 10.0619L30.2583 9.51009Z" fill="#DBE9F0"/>
<path d="M15.9996 15.2814C15.2536 15.2814 14.5076 15.1293 13.8051 14.8259V16.8397C14.5076 17.1434 15.2536 17.2951 15.9996 17.2951C16.7456 17.2951 17.4916 17.1434 18.1941 16.8397V14.8259C17.4916 15.1297 16.7456 15.2814 15.9996 15.2814Z" fill="white"/>
<path d="M31.5236 9.90248L18.7965 15.174H18.0752C16.6465 15.7634 15.3537 15.7634 13.925 15.174V15.0291C13.925 14.7254 13.7342 14.4545 13.4484 14.3521L1.89549 10.2131L0.476196 9.90248L0.719042 11.3593L0.719043 11.7188L0.476196 31.3585L13.7685 36.1765V36.6297C15.1973 37.219 16.8026 37.219 18.2313 36.6297V36.1765L31.5236 31.3585V10.3375L31.8201 10.2806L31.5236 9.9021V9.90248Z" fill="#A9BAE8"/>
<path d="M0.476067 9.90248L13.6627 14.9548L13.9245 15.174C15.3532 15.7634 16.646 15.7634 18.0747 15.174V15.0291C18.0747 14.7254 18.2654 14.4545 18.5513 14.3521L30.1042 10.2131L31.5235 9.90248L31.2807 11.3593L31.2807 11.7188L31.5235 31.3585L18.2312 36.1765V36.6297C16.8024 37.219 15.1971 37.219 13.7684 36.6297V36.1765L0.476067 31.3585V10.3375L-0.000188828 10.1647L0.476067 9.9021V9.90248Z" fill="#A9BAE8"/>
<path d="M18.2997 15.5984V37.2312C18.2997 37.5224 18.1252 37.7888 17.8479 37.878C17.2472 38.0713 16.6236 38.1679 15.9999 38.1679V16.0542C16.7816 16.0542 17.5636 15.9021 18.2997 15.5988V15.5984Z" fill="#5D76B8"/>
<path d="M31.0358 9.86291C31.5047 9.69297 31.9999 10.0403 31.9999 10.539L31.9999 31.0181C31.9999 31.7747 31.5262 32.4504 30.8148 32.7082L25.4207 34.6633V11.8981L31.0358 9.86291Z" fill="#A9BAE8"/>
<path d="M18.8413 14.9342L25.4206 12.5496V34.6636L18.8413 37.0483V14.9342Z" fill="#A9BAE8"/>
<path d="M18.5109 14.5642L18.8413 14.9344V37.0484L18.2999 37.245V15.5981L18.0748 15.174H18.4887L18.5109 14.5642Z" fill="#A9BAE8"/>
<path d="M13.6996 15.5984V37.2312C13.6996 37.5224 13.8742 37.7888 14.1514 37.878C14.7522 38.0713 15.3758 38.1679 15.9995 38.1679V16.0542C15.2178 16.0542 14.4358 15.9021 13.6996 15.5988V15.5984Z" fill="#A9BAE8"/>
<path d="M18.8413 14.9342V37.0483L25.4206 34.6636V12.5496L18.8413 14.9342Z" fill="#A9BAE8"/>
<path d="M32.0001 10.6404L25.4208 12.55V34.664L30.815 32.7089C31.5263 32.4511 32.0001 31.7754 32.0001 31.0188V10.6404Z" fill="#A9BAE8"/>
<path d="M0.964079 9.86291C0.495215 9.69297 -6.10352e-05 10.0403 -6.10352e-05 10.539L-6.10352e-05 31.0181C-6.10352e-05 31.7747 0.473719 32.4504 1.18509 32.7082L6.57921 34.6633V11.8981L0.964079 9.86291Z" fill="#A9BAE8"/>
<path d="M13.1586 14.9342L6.57928 12.5496V34.6636L13.1586 37.0483V14.9342Z" fill="#A9BAE8"/>
<path d="M20.8538 18.3252V19.2126L23.7674 18.1565V17.269L20.8538 18.3252Z" fill="#5D76B8"/>
<path d="M26.6815 16.2126L23.7675 17.2688V18.1562L26.6815 17.1001V16.2126Z" fill="#5D76B8"/>
<path d="M20.8539 33.4778V34.0845L22.8465 33.3623V32.7556L20.8539 33.4778Z" fill="#5D76B8"/>
<path d="M24.839 32.0332L22.8464 32.7554V33.3621L24.839 32.6399V32.0332Z" fill="#5D76B8"/>
<path d="M20.8032 21.4187V22.8246L25.4206 21.1508V19.7449L20.8032 21.4187Z" fill="#5D76B8"/>
<path d="M30.0378 18.0701L25.4203 19.7439V21.1498L30.0378 19.476V18.0701Z" fill="#5D76B8"/>
<path d="M13.6998 15.5979L13.9249 15.1738C13.9249 15.1738 15.0001 15.6157 16 15.6157C16.9999 15.6157 18.0752 15.1738 18.0752 15.1738L18.3002 15.5979C18.3002 15.5979 17.3822 16.0534 16 16.0534C14.6179 16.0534 13.7002 15.5979 13.7002 15.5979H13.6998Z" fill="#A9BAE8"/>
<path d="M13.4888 14.5642L13.1584 14.9344V37.0484L13.6999 37.245V15.5981L13.9249 15.174H13.5111L13.4888 14.5642Z" fill="#A9BAE8"/>
<path d="M18.511 14.5642L18.5168 14.9547L18.0753 15.174L18.2999 15.5981V37.245L18.8414 37.0484V14.9344L18.511 14.5642Z" fill="#A9BAE8"/>
</g>
<defs>
<clipPath id="clip0_523_405">
<rect width="48" height="48" fill="white"/>
</clipPath>
</defs>
</svg>