<svg width="20" height="20" viewBox="0 0 20 20" fill="none" xmlns="http://www.w3.org/2000/svg">
<rect width="20" height="20" fill="#32AEEF"/>
<path d="M11.0225 5.30101V4H9.61382V5.30101H6.5V6.70724H14.1364V5.30101H11.0225Z" fill="white"/>
<path d="M7.90996 12.9981H6.5V14.5925V15.6398V16H14.1364V14.5925H7.90996V12.9981Z" fill="white"/>
<path d="M12.5959 9.48875C12.5959 8.09737 11.4662 6.96967 10.0724 6.96967C8.67853 6.96967 7.54883 8.09737 7.54883 9.48875C7.54883 10.8801 8.67853 12.0078 10.0724 12.0078C11.4662 12.0078 12.5959 10.8801 12.5959 9.48875ZM10.0724 10.6462C9.4325 10.6462 8.91291 10.1263 8.91291 9.48875C8.91291 8.85124 9.43374 8.33133 10.0724 8.33133C10.711 8.33133 11.2318 8.85124 11.2318 9.48875C11.2318 10.1263 10.711 10.6462 10.0724 10.6462Z" fill="white"/>
<path d="M10.2222 14.1706C10.7326 14.0878 11.0792 13.6078 10.9964 13.0983C10.9135 12.5888 10.4326 12.2428 9.92221 12.3255C9.41181 12.4082 9.06521 12.8883 9.14806 13.3978C9.23091 13.9073 9.71183 14.2533 10.2222 14.1706Z" fill="white"/>
</svg>
