<svg width="69" height="68" viewBox="0 0 69 68" fill="none" xmlns="http://www.w3.org/2000/svg">
<rect x="0.382324" width="68" height="68" rx="4" fill="#D24628"/>
<path d="M30.1103 38.8074V33.9688H36.099C36.8607 33.9688 37.5568 33.8102 38.1872 33.4929C38.8176 33.1756 39.3167 32.7129 39.6844 32.1048C40.0521 31.4967 40.236 30.7564 40.236 29.8839C40.236 29.0378 40.0521 28.3107 39.6844 27.7025C39.3167 27.0944 38.8176 26.6317 38.1872 26.3144C37.5568 25.9972 36.8607 25.8385 36.099 25.8385H30.1103V21H37.0052C38.7651 21 40.3542 21.3569 41.7726 22.0708C43.191 22.7847 44.3073 23.8159 45.1215 25.1643C45.9621 26.4863 46.3823 28.0595 46.3823 29.8839C46.3823 31.7082 45.9621 33.2946 45.1215 34.6431C44.3073 35.9651 43.191 36.9962 41.7726 37.7365C40.3542 38.4504 38.7651 38.8074 37.0052 38.8074H30.1103ZM25.3823 49V21H31.5681V49H25.3823Z" fill="white"/>
</svg>
