<svg width="308" height="174" viewBox="0 0 308 174" fill="none" xmlns="http://www.w3.org/2000/svg">
<mask id="path-1-inside-1_4218_73078" fill="white">
<path d="M0 -0.00317383L308 -0.00317383V173.997L0 173.997L0 -0.00317383Z"/>
</mask>
<path d="M0 -0.00317383L308 -0.00317383V173.997L0 173.997L0 -0.00317383Z" fill="#E8F6F6"/>
<path d="M0 -0.00317383L0 -1.00317H-1V-0.00317383L0 -0.00317383ZM308 -0.00317383L309 -0.00317383V-1.00317H308V-0.00317383ZM0 0.996826L308 0.996826V-1.00317L0 -1.00317L0 0.996826ZM307 -0.00317383V173.997H309V-0.00317383L307 -0.00317383ZM1 173.997L1 -0.00317383L-1 -0.00317383L-1 173.997H1Z" fill="#D1EEED" mask="url(#path-1-inside-1_4218_73078)"/>
<mask id="mask0_4218_73078" style="mask-type:alpha" maskUnits="userSpaceOnUse" x="0" y="-1" width="308" height="175">
<path d="M0 -0.00317383L308 -0.00317383V173.997L0 173.997L0 -0.00317383Z" fill="#E8F6F6"/>
</mask>
<g mask="url(#mask0_4218_73078)">
<path d="M118 122.997L190.078 48.9967L338 176.497L252 234.997L118 122.997Z" fill="url(#paint0_linear_4218_73078)"/>
<rect x="115.5" y="47.4968" width="78" height="78" rx="8.06897" fill="#315764"/>
<path fill-rule="evenodd" clip-rule="evenodd" d="M158.535 77.0831V82.4623V82.4624H181.845V77.0831H163.914V59.152H158.535V77.0831ZM145.086 59.1521V59.1521H150.466V59.1521H150.466V65.428H150.466V82.4624H145.086V65.428H127.155V59.1521H145.086ZM181.845 95.9106H181.845V99.4969H181.845V103.98H181.845H177.362H163.914V107.566H181.845V113.842H163.914H158.535H158.535V100.393H158.535V99.4969H177.362V95.9106H158.535V90.5313H181.845V95.9106ZM150.466 113.842H127.155V113.842H127.155V90.5312H133.431V90.5313H150.466V95.9106H133.431V107.566H150.466V113.842Z" fill="white"/>
</g>
<defs>
<linearGradient id="paint0_linear_4218_73078" x1="158.627" y1="83.9941" x2="313.245" y2="207.255" gradientUnits="userSpaceOnUse">
<stop stop-color="#02A39F" stop-opacity="0.3"/>
<stop offset="1" stop-color="#D9D9D9" stop-opacity="0"/>
</linearGradient>
</defs>
</svg>
