<svg width="308" height="174" viewBox="0 0 308 174" fill="none" xmlns="http://www.w3.org/2000/svg">
<mask id="path-1-inside-1_4218_73137" fill="white">
<path d="M0 -0.00317383L308 -0.00317383V173.997L0 173.997L0 -0.00317383Z"/>
</mask>
<path d="M0 -0.00317383L308 -0.00317383V173.997L0 173.997L0 -0.00317383Z" fill="#E8F6F6"/>
<path d="M0 -0.00317383L0 -1.00317H-1V-0.00317383L0 -0.00317383ZM308 -0.00317383L309 -0.00317383V-1.00317H308V-0.00317383ZM0 0.996826L308 0.996826V-1.00317L0 -1.00317L0 0.996826ZM307 -0.00317383V173.997H309V-0.00317383L307 -0.00317383ZM1 173.997L1 -0.00317383L-1 -0.00317383L-1 173.997H1Z" fill="#D1EEED" mask="url(#path-1-inside-1_4218_73137)"/>
<mask id="mask0_4218_73137" style="mask-type:alpha" maskUnits="userSpaceOnUse" x="0" y="-1" width="308" height="175">
<path d="M0 -0.00317383L308 -0.00317383V173.997L0 173.997L0 -0.00317383Z" fill="#E8F6F6"/>
</mask>
<g mask="url(#mask0_4218_73137)">
<path d="M129 144.497L157.5 119.997L157.5 111.997L172.5 105.497L181.638 46.3419L301.5 144.497L236.185 228.144L129 144.497Z" fill="url(#paint0_linear_4218_73137)"/>
<path d="M142.654 34.7122L139.278 36.2245L171.706 108.615L175.082 107.103L142.654 34.7122Z" fill="white"/>
<path d="M146.877 38.5949L138.827 42.3348C138.457 42.505 138.017 42.3459 137.843 41.976L137.718 41.7096C137.547 41.3397 137.706 40.8995 138.076 40.7257L146.126 36.9858C146.496 36.8156 146.936 36.9747 147.11 37.3446L147.236 37.6109C147.406 37.9809 147.247 38.4211 146.877 38.5949Z" fill="#097885"/>
<path d="M175.719 101.907L167.67 105.647C167.3 105.817 166.859 105.658 166.686 105.288L166.56 105.021C166.39 104.652 166.549 104.211 166.919 104.037L174.968 100.298C175.338 100.127 175.778 100.286 175.952 100.656L176.078 100.923C176.248 101.293 176.089 101.733 175.719 101.907Z" fill="#097885"/>
<path d="M159.191 110.126H155.385C154.976 110.126 154.645 110.458 154.645 110.866V121.461C154.645 121.869 154.976 122.201 155.385 122.201H159.191C159.6 122.201 159.931 121.869 159.931 121.461V110.866C159.931 110.458 159.6 110.126 159.191 110.126Z" fill="#097885"/>
<path d="M160.967 114.95H153.128C152.719 114.95 152.388 115.281 152.388 115.69V118.057C152.388 118.466 152.719 118.797 153.128 118.797H160.967C161.375 118.797 161.706 118.466 161.706 118.057V115.69C161.706 115.281 161.375 114.95 160.967 114.95Z" fill="#D1EEED"/>
<path d="M161.903 118.501H152.196C151.787 118.501 151.456 118.833 151.456 119.241V124.564C151.456 124.973 151.787 125.304 152.196 125.304H161.903C162.311 125.304 162.642 124.973 162.642 124.564V119.241C162.642 118.833 162.311 118.501 161.903 118.501Z" fill="#D1EEED"/>
<path d="M157.05 121.905C143.877 121.905 132.99 131.271 131.259 143.427H182.844C181.109 131.271 170.226 121.905 157.053 121.905H157.05Z" fill="#097885"/>
<path d="M157.42 105.484C176.454 105.484 191.885 90.0532 191.885 71.0184C191.885 51.9837 176.454 36.553 157.42 36.553C138.385 36.553 122.954 51.9837 122.954 71.0184C122.954 90.0532 138.385 105.484 157.42 105.484Z" fill="#0CB4C7"/>
<mask id="mask1_4218_73137" style="mask-type:luminance" maskUnits="userSpaceOnUse" x="122" y="36" width="70" height="70">
<path d="M157.42 105.484C176.454 105.484 191.885 90.0532 191.885 71.0184C191.885 51.9837 176.454 36.553 157.42 36.553C138.385 36.553 122.954 51.9837 122.954 71.0184C122.954 90.0532 138.385 105.484 157.42 105.484Z" fill="white"/>
</mask>
<g mask="url(#mask1_4218_73137)">
<path d="M126.183 85.6044V79.005L124.282 76.5598C124.282 76.5598 126.206 78.2319 125.466 74.6991L124.726 71.1664C124.726 71.1664 122.358 68.9469 124.134 68.355C125.91 67.7631 128.425 67.7631 128.425 67.7631L130.645 70.2786C130.645 70.2786 129.757 76.0456 134.936 79.153L136.267 75.7497L134.64 72.7201C134.64 72.7201 134.196 72.7607 135.084 71.6658C135.972 70.5708 136.267 67.7631 136.267 67.7631C136.267 67.7631 136.134 67.3192 137.607 66.4314C139.079 65.5436 138.191 64.8038 139.967 65.6916C141.742 66.5794 142.482 68.503 142.482 68.503C142.482 68.503 142.334 69.8347 144.11 69.6867L145.885 69.5387C145.885 69.5387 148.978 72.0616 147.358 72.7238C145.737 73.3859 149.585 74.3847 150.324 74.6991C151.064 75.0136 151.416 77.2331 151.416 77.2331L146.625 76.5598C146.625 76.5598 148.253 79.4489 149.437 79.5969C150.62 79.7448 150.528 79.5969 151.46 80.0408L152.392 80.4847C152.392 80.4847 152.836 79.4489 153.576 81.0766L154.316 82.7042C154.316 82.7042 155.796 80.0408 155.352 79.005C154.908 77.9692 154.649 77.0814 154.649 77.0814L152.392 76.5561C152.392 76.5561 153.428 74.4883 152.392 73.4895C151.356 72.4944 150.913 70.7188 150.321 71.0147C149.729 71.3107 149.137 71.6658 149.137 71.6658L148.545 69.9789L147.953 67.7594L149.433 68.0554C149.433 68.0554 149.877 70.7188 150.617 70.1269C151.356 69.535 151.708 68.6472 151.46 68.2033C151.209 67.7594 151.416 65.2884 151.416 65.2884L148.697 63.7569C148.697 63.7569 146.614 63.4721 147.358 62.5842C148.105 61.6964 149.141 60.0022 149.141 60.0022C149.141 60.0022 150.731 59.4806 151.46 60.0022C152.189 60.5238 154.649 57.853 154.649 57.853C154.649 57.853 153.872 56.3733 154.02 55.3375C154.168 54.3017 154.02 52.8221 154.02 52.8221C154.02 52.8221 150.913 50.3066 150.469 50.0107C150.025 49.7147 149.433 48.6789 149.433 48.6789C149.433 48.6789 148.249 48.383 149.433 47.6432L150.617 46.9033C150.617 46.9033 150.524 46.9033 151.46 47.6432L152.392 48.383L154.649 48.8269V47.9391L152.392 46.1635L153.576 44.4804C153.576 44.4804 154.538 45.0167 154.649 44.4804C154.76 43.944 155.433 41.4285 155.433 41.4285L154.649 39.6529L152.392 40.6887V39.6529L154.649 38.4691L155.433 36.86V35.4654H147.953L119.07 48.3793C119.07 48.3793 110.085 66.2834 110.229 66.7273C110.373 67.1713 117.753 87.7314 118.208 89.3591C118.663 90.9867 126.183 85.6007 126.183 85.6007V85.6044Z" fill="#067280"/>
<path d="M157.42 39.6566L158.307 41.2843L159.935 42.9489H158.307C158.455 44.8355 158.677 46.0193 158.677 46.0193L157.42 48.3867C156.976 49.7185 158.455 51.642 158.677 51.1981C158.899 50.7542 159.935 49.1266 159.935 49.1266C159.935 49.1266 159.195 47.351 159.935 46.1672C160.675 44.9835 158.899 45.7233 160.675 44.9835C162.45 44.2436 162.643 40.9883 162.643 40.9883L161.711 40.3965L159.935 38.1769H157.42V39.6566Z" fill="#067280"/>
<path d="M157.123 59.1847L157.049 60.8124L157.419 62.5695C157.419 62.5695 156.827 63.6016 158.011 63.7606C159.195 63.9197 158.27 63.4758 159.99 64.8075C161.71 66.1392 159.639 63.7717 161.71 66.1392C163.782 68.5067 163.782 69.2465 164.818 69.2465C165.853 69.2465 164.537 69.0986 166.453 69.2465C168.369 69.3945 170.588 68.2108 168.813 66.4352C167.037 64.6595 167.629 64.1971 165.705 63.7606C163.782 63.3278 165.543 63.7347 163.257 62.5695C160.97 61.4042 160.379 61.1083 159.935 60.6644C159.491 60.2205 159.639 58.7408 159.047 58.4449C158.455 58.1489 157.419 58.4449 157.419 58.4449L157.123 59.1847Z" fill="#067280"/>
<path d="M180.791 67.9111C180.791 67.9111 176.204 67.6151 175.612 67.9111C175.021 68.207 173.393 67.9111 172.801 67.9111C172.209 67.9111 171.321 68.355 171.321 68.355C171.321 68.355 171.173 69.9826 172.505 70.1306C173.837 70.2786 172.357 70.2786 174.725 71.0184C177.092 71.7582 175.908 73.6892 177.536 72.7237C179.164 71.7582 178.424 71.6103 179.46 71.0184C180.495 70.4265 179.016 70.5745 180.495 70.4265C181.975 70.2786 182.271 69.8605 182.123 69.2539C181.975 68.6509 180.791 67.9111 180.791 67.9111Z" fill="#067280"/>
<path d="M182.841 76.5598C182.841 76.5598 179.755 72.7164 179.312 73.4932C178.868 74.27 178.128 74.1258 178.868 75.6017C179.607 77.0814 181.087 78.4131 179.312 78.5611C177.536 78.7091 178.868 78.857 177.536 78.7091C176.204 78.5611 175.168 78.5611 174.725 78.5611C174.281 78.5611 173.385 78.772 173.385 78.772V76.5598L171.318 78.772C171.318 78.772 169.812 80.3367 169.457 81.8164C169.102 83.2961 167.77 84.8387 167.77 84.8387C167.77 84.8387 166.157 84.4243 166.446 86.5958C166.734 88.7672 168.214 89.6661 168.214 89.6661C168.214 89.6661 169.387 91.5786 171.314 91.4306C173.241 91.2827 176.733 86.5958 176.733 86.5958C176.733 86.5958 177.088 86.4959 178.124 86.5958C179.16 86.6957 180.344 87.4355 180.344 87.4355L181.527 87.8794L182.837 84.8387C182.837 84.8387 180.599 82.9965 182.837 81.8164C185.075 80.6327 185.815 79.8928 185.815 79.8928V78.7091L183.595 77.2294L182.837 76.5561L182.841 76.5598Z" fill="#067280"/>
<path d="M159.931 67.778C159.487 67.1713 156.717 66.1688 157.286 67.778C157.86 69.3871 157.416 71.0148 157.416 71.0148L157.046 74.111C156.38 75.3021 152.699 74.5623 155.429 75.894C158.156 77.2257 156.528 76.9594 158.156 77.2257L159.783 77.4884L161.707 74.6918C161.707 74.6918 161.651 73.7855 162.639 74.6918L163.63 75.5981L165.554 72.1948H163.253L161.707 72.7164L160.671 71.6621C160.671 71.6621 159.931 72.4907 160.819 71.0111C161.707 69.5314 161.707 68.6436 161.707 68.6436L159.931 67.7743V67.778Z" fill="#067280"/>
</g>
<path d="M183.524 145.72H130.718C129.457 145.72 128.425 144.688 128.425 143.427C128.425 142.165 129.457 141.133 130.718 141.133H183.528C184.79 141.133 185.822 142.165 185.822 143.427C185.822 144.688 184.79 145.72 183.528 145.72H183.524Z" fill="#FF773D"/>
<path d="M157.434 112.461C152.429 112.461 147.417 111.543 142.6 109.697C132.268 105.739 124.097 97.9967 119.591 87.8905C110.288 67.0344 119.687 42.4939 140.544 33.1904C141.661 32.691 142.974 33.1904 143.473 34.3149C143.973 35.4358 143.473 36.7453 142.349 37.2447C123.727 45.5531 115.334 67.4598 123.642 86.0816C131.947 104.703 153.857 113.097 172.479 104.788C173.6 104.289 174.913 104.788 175.409 105.913C175.908 107.034 175.409 108.343 174.284 108.843C168.887 111.251 163.164 112.457 157.427 112.457L157.434 112.461Z" fill="#D1EEED"/>
</g>
<defs>
<linearGradient id="paint0_linear_4218_73137" x1="133.776" y1="74.9097" x2="276.411" y2="188.617" gradientUnits="userSpaceOnUse">
<stop stop-color="#02A39F" stop-opacity="0.3"/>
<stop offset="1" stop-color="#D9D9D9" stop-opacity="0"/>
</linearGradient>
</defs>
</svg>
