<svg width="124" height="85" viewBox="0 0 124 85" fill="none" xmlns="http://www.w3.org/2000/svg">
<path fill-rule="evenodd" clip-rule="evenodd" d="M38.3654 0C48.657 0 57 8.343 57 18.6346C57 28.9262 48.657 37.2692 38.3654 37.2692H20.9425C19.6458 38.8212 17.2 41.0604 14.1182 42.3304C12.5331 42.9836 11.1086 40.9317 11.4621 39.2541C11.6897 38.1742 11.8391 37.0504 11.9313 36.0272C4.95172 33.3354 0 26.5633 0 18.6346C0 8.343 8.34301 0 18.6346 0H38.3654Z" fill="#E6E4DB"/>
<circle cx="4.38462" cy="4.38462" r="4.38462" transform="matrix(-1 0 0 1 47.1348 14.25)" fill="#CDC9BB"/>
<circle cx="4.38462" cy="4.38462" r="4.38462" transform="matrix(-1 0 0 1 32.8848 14.25)" fill="#CDC9BB"/>
<circle cx="4.38462" cy="4.38462" r="4.38462" transform="matrix(-1 0 0 1 18.6348 14.25)" fill="#CDC9BB"/>
<path fill-rule="evenodd" clip-rule="evenodd" d="M54 9C35.2223 9 20 24.2223 20 43C20 61.7777 35.2223 77 54 77H88.6689C91.8322 79.9129 96.3754 83.047 101.669 84.3693C103.332 84.7847 104.579 82.7319 104.025 81.1095C103.346 79.1222 102.876 76.8298 102.561 74.6044C115.121 69.608 124 57.3409 124 43C124 24.2223 108.778 9 90 9H54Z" fill="white"/>
<circle cx="46" cy="43" r="8" fill="#96C6FF"/>
<circle cx="72" cy="43" r="8" fill="#96C6FF"/>
<circle cx="98" cy="43" r="8" fill="#96C6FF"/>
</svg>
