<svg width="308" height="174" viewBox="0 0 308 174" fill="none" xmlns="http://www.w3.org/2000/svg">
<mask id="path-1-inside-1_4218_73209" fill="white">
<path d="M0 0L308 0V174L0 174L0 0Z"/>
</mask>
<path d="M0 0L308 0V174L0 174L0 0Z" fill="#F7EBF6"/>
<path d="M0 0L0 -1L-1 -1V0L0 0ZM308 0L309 0V-1H308V0ZM0 1L308 1V-1L0 -1L0 1ZM307 0V174H309V0L307 0ZM1 174L1 0L-1 0L-1 174H1Z" fill="#F1E4F4" mask="url(#path-1-inside-1_4218_73209)"/>
<mask id="mask0_4218_73209" style="mask-type:alpha" maskUnits="userSpaceOnUse" x="0" y="0" width="308" height="174">
<mask id="path-3-inside-2_4218_73209" fill="white">
<path d="M0 0L308 0V174L0 174L0 0Z"/>
</mask>
<path d="M0 0L308 0V174L0 174L0 0Z" fill="#F7EBF6"/>
<path d="M0 0L0 -1L-1 -1V0L0 0ZM308 0L309 0V-1H308V0ZM0 1L308 1V-1L0 -1L0 1ZM307 0V174H309V0L307 0ZM1 174L1 0L-1 0L-1 174H1Z" fill="#F1E4F4" mask="url(#path-3-inside-2_4218_73209)"/>
</mask>
<g mask="url(#mask0_4218_73209)">
<path d="M118.315 123.853L181.865 43L301.726 141.155L225.5 207.5L118.315 123.853Z" fill="url(#paint0_linear_4218_73209)"/>
<rect x="115" y="48" width="78" height="78" rx="8.06897" fill="#315764"/>
<path d="M149.966 59.6553H126.655V65.9311H149.966V59.6553Z" fill="white"/>
<path d="M144.586 59.6551V82.9655H149.965V59.6551H144.586Z" fill="white"/>
<path d="M158.034 82.9655H181.345V77.5861H158.034V82.9655Z" fill="white"/>
<path d="M158.034 96.4138H181.345V91.0345H158.034V96.4138Z" fill="white"/>
<path d="M158.034 104.483H181.345V100H158.034V104.483Z" fill="white"/>
<path d="M158.035 100.897L158.035 114.345L163.414 114.345L163.414 100.897L158.035 100.897Z" fill="white"/>
<path d="M176.862 91.9311L176.862 104.483L181.345 104.483L181.345 91.9311L176.862 91.9311Z" fill="white"/>
<path d="M158.034 114.345H181.345V108.069H158.034V114.345Z" fill="white"/>
<path d="M163.414 82.9655V59.6552H158.035V82.9655H163.414Z" fill="white"/>
<path d="M126.655 114.345H149.965V108.069H126.655V114.345Z" fill="white"/>
<path d="M126.655 96.4138H149.965V91.0345H126.655V96.4138Z" fill="white"/>
<path d="M132.931 114.345V91.0345H126.655V114.345H132.931Z" fill="white"/>
<circle cx="193.207" cy="47.2068" r="16.9655" fill="#AE3FA6"/>
<path d="M192.987 65C192.92 65 192.852 65 192.785 65C188.213 64.9481 183.874 63.1681 180.558 59.9973C179.982 59.4472 179.442 58.8556 178.949 58.238C176.401 55.062 175 51.0712 175 47.0026C175 42.934 176.256 39.3169 178.633 36.172C179.1 35.5492 179.629 34.9369 180.2 34.3608C183.552 30.9668 188.015 29.0623 192.769 29C192.847 29 192.92 29 192.987 29H193.008C193.075 29 193.148 29 193.215 29C197.979 29.0623 202.442 30.9617 205.795 34.3556C206.355 34.9213 206.879 35.5337 207.362 36.1668C209.739 39.3065 210.995 43.0533 210.995 46.9974C210.995 50.9415 209.594 55.0568 207.046 58.238C206.547 58.8556 206.002 59.4472 205.432 59.9973C202.121 63.1681 197.782 64.9429 193.221 64.9948C193.143 65 193.07 65 193.003 65H192.977H192.987ZM192.997 30.972C191.492 30.972 190.003 31.1796 188.566 31.5948C185.986 32.3369 183.609 33.7381 181.695 35.6478C181.108 36.2291 180.568 36.857 180.091 37.5109C178.301 39.9292 177.237 42.7939 177.014 45.7934C176.982 46.1878 176.967 46.5822 176.967 47.0026C176.967 47.4229 176.982 47.8174 177.019 48.2118C177.252 51.4241 178.446 54.46 180.47 56.9873C181.004 57.6568 181.58 58.2691 182.172 58.8037C183.999 60.4851 186.209 61.7306 188.566 62.4104C190.008 62.8256 191.498 63.0332 192.997 63.0332C194.497 63.0332 195.992 62.8256 197.429 62.4104C199.785 61.7306 202.001 60.4851 203.828 58.8037C204.425 58.2639 204.996 57.6516 205.525 56.9873C207.549 54.46 208.743 51.4241 208.976 48.2066C209.007 47.8122 209.023 47.4074 209.023 47.0026C209.023 46.5978 209.007 46.1982 208.976 45.7934C208.758 42.799 207.694 39.9344 205.899 37.5057C205.416 36.8414 204.876 36.2187 204.295 35.6426C202.38 33.7381 200.003 32.3369 197.424 31.5948C195.987 31.1796 194.497 30.972 192.992 30.972H192.997Z" fill="white"/>
<path d="M192.987 65C192.92 65 192.852 65 192.785 65C191.29 64.9066 189.951 63.9361 188.799 62.1042C187.938 60.7342 187.216 58.9386 186.661 56.7745C186.469 56.0428 186.298 55.254 186.147 54.4289C185.789 52.4361 185.576 50.3343 185.519 48.1858C185.504 47.7914 185.499 47.3918 185.499 47.0026C185.499 46.6134 185.499 46.2138 185.519 45.8194C185.566 43.9252 185.737 42.0673 186.028 40.2873C186.168 39.4414 186.324 38.6422 186.49 37.9209C187.061 35.4766 187.86 33.3956 188.799 31.901C189.946 30.0691 191.285 29.0934 192.779 29C192.847 29 192.92 29 192.987 29H193.013C193.08 29 193.153 29 193.221 29C194.715 29.0934 196.049 30.0639 197.201 31.8958C198.146 33.3904 198.945 35.4714 199.51 37.9157C199.682 38.6422 199.832 39.4155 199.977 40.2821C200.268 42.0725 200.439 43.9304 200.486 45.809C200.502 46.2034 200.507 46.603 200.507 46.9974C200.507 47.3918 200.507 47.7862 200.486 48.1806C200.429 50.3343 200.216 52.4361 199.858 54.4237C199.708 55.2384 199.536 56.0272 199.344 56.7694C198.784 58.9438 198.068 60.7342 197.206 62.099C196.059 63.9309 194.72 64.9066 193.226 64.9948C193.158 64.9948 193.086 64.9948 193.018 64.9948H192.987V65ZM192.997 30.972C191.28 30.972 189.427 33.9508 188.384 38.3931C188.207 39.1456 188.052 39.9448 187.927 40.7699C187.673 42.3839 187.528 44.0757 187.486 45.809C187.471 46.2034 187.465 46.5978 187.465 47.0078C187.465 47.4178 187.465 47.8122 187.486 48.2066C187.538 50.2357 187.725 52.1766 188.047 53.9722C188.197 54.8129 188.368 55.6121 188.566 56.3334C189.635 60.402 191.378 63.0332 192.997 63.0332C194.617 63.0332 196.36 60.402 197.429 56.3282C197.621 55.6121 197.798 54.8129 197.948 53.967C198.27 52.1766 198.462 50.2357 198.509 48.1962C198.524 47.807 198.53 47.4074 198.53 47.0026C198.53 46.5978 198.53 46.1982 198.509 45.8038C198.467 44.0705 198.322 42.3735 198.068 40.7647C197.938 39.924 197.782 39.1248 197.611 38.3879C196.568 33.9508 194.715 30.9668 192.997 30.9668V30.972Z" fill="white"/>
<path d="M205.582 59.8571C205.074 59.3641 204.477 58.9022 203.802 58.4767C202.583 57.7138 201.166 57.091 199.599 56.6292C198.888 56.4164 198.104 56.2296 197.268 56.0791C195.867 55.83 194.435 55.7054 192.997 55.7054C191.56 55.7054 190.128 55.83 188.732 56.0791C187.901 56.2296 187.123 56.4164 186.402 56.6292C184.829 57.091 183.412 57.7138 182.198 58.4767C181.529 58.9022 180.927 59.3641 180.413 59.8571C179.935 59.39 179.484 58.897 179.063 58.3832C179.567 57.9006 180.133 57.4439 180.745 57.0288C182.224 56.022 183.994 55.228 185.997 54.6675C186.703 54.4599 187.476 54.2835 188.285 54.1382C189.795 53.8683 191.383 53.7334 192.997 53.7334C194.611 53.7334 196.199 53.8683 197.71 54.1382C198.514 54.2835 199.287 54.4599 199.993 54.6675C202.001 55.2332 203.771 56.0272 205.25 57.0288C205.868 57.4491 206.428 57.9058 206.931 58.3832C206.506 58.897 206.054 59.39 205.582 59.8571Z" fill="white"/>
<path d="M192.997 41.0243C191.352 41.0243 189.728 40.8789 188.166 40.5935C187.387 40.4482 186.614 40.2718 185.877 40.0538C183.781 39.4518 181.881 38.554 180.381 37.4642C179.764 37.0179 179.214 36.5405 178.736 36.0371C179.136 35.5181 179.572 35.0095 180.044 34.5217C180.511 35.0303 181.077 35.5129 181.726 35.9644C182.971 36.8259 184.528 37.5576 186.23 38.0766C186.988 38.3101 187.771 38.5021 188.55 38.6422C189.982 38.9173 191.482 39.0574 192.997 39.0574C194.513 39.0574 196.012 38.9173 197.45 38.6422C198.234 38.4969 199.012 38.3049 199.77 38.0766C201.477 37.5576 203.034 36.8259 204.274 35.9644C204.923 35.5077 205.489 35.0251 205.956 34.5217C206.417 35.0044 206.859 35.5129 207.263 36.0423C206.786 36.5457 206.236 37.0283 205.618 37.4694C204.113 38.5644 202.214 39.457 200.123 40.059C199.386 40.2718 198.612 40.4534 197.829 40.5987C196.272 40.8841 194.648 41.0294 192.997 41.0294V41.0243Z" fill="white"/>
<path d="M210.165 46.0166H175.478V47.9886H210.165V46.0166Z" fill="white"/>
</g>
<defs>
<linearGradient id="paint0_linear_4218_73209" x1="128.39" y1="85.5675" x2="271.025" y2="199.275" gradientUnits="userSpaceOnUse">
<stop stop-color="#AE3FA6" stop-opacity="0.3"/>
<stop offset="1" stop-color="#D9D9D9" stop-opacity="0"/>
</linearGradient>
</defs>
</svg>
