<svg width="308" height="174" viewBox="0 0 308 174" fill="none" xmlns="http://www.w3.org/2000/svg">
<mask id="path-1-inside-1_4218_73302" fill="white">
<path d="M0 0L308 0V174L0 174L0 0Z"/>
</mask>
<path d="M0 0L308 0V174L0 174L0 0Z" fill="#F2EEFB"/>
<path d="M0 0L0 -1L-1 -1V0L0 0ZM308 0L309 0V-1H308V0ZM0 1L308 1V-1L0 -1L0 1ZM307 0V174H309V0L307 0ZM1 174L1 0L-1 0L-1 174H1Z" fill="#F3ECFB" mask="url(#path-1-inside-1_4218_73302)"/>
<mask id="mask0_4218_73302" style="mask-type:alpha" maskUnits="userSpaceOnUse" x="0" y="0" width="308" height="174">
<path d="M0 0L308 0V174L0 174L0 0Z" fill="#F0ECF9"/>
</mask>
<g mask="url(#mask0_4218_73302)">
<path d="M108.5 153L163.5 123.5L154 26.4999L329.016 177.5L241 267.5L108.5 153Z" fill="url(#paint0_linear_4218_73302)"/>
<path d="M154.739 14.577H151.758V34.4167H154.739V14.577Z" fill="#D9D9D9"/>
<path d="M150.112 29.8H156.529C156.523 29.1369 156.115 29.0723 155.483 28.6998H151.161C150.529 29.0699 150.121 29.1344 150.115 29.8H150.112Z" fill="#C7C7C7"/>
<path d="M150.63 25.2679H155.866C155.86 24.6048 155.451 24.5402 154.82 24.1677H151.676C151.045 24.5402 150.636 24.6048 150.63 25.2679Z" fill="#C7C7C7"/>
<path d="M150.63 21.1255H155.866C155.86 20.4625 155.451 20.3979 154.82 20.0254H151.676C151.045 20.3954 150.636 20.46 150.63 21.1255Z" fill="#C7C7C7"/>
<path d="M153.994 14.2963C153.994 15.0115 153.661 15.5926 153.249 15.5926C152.838 15.5926 152.505 15.014 152.505 14.2963C152.505 13.5786 152.838 13 153.249 13C153.661 13 153.994 13.5811 153.994 14.2963Z" fill="#D9D9D9"/>
<path d="M154.695 15.7193C157.277 15.6746 158.102 14.0381 158.102 14.0381C158.102 14.0381 156.914 14.6564 155.987 14.4354C155.057 14.2144 153.716 14.3038 153.716 14.3038H152.786C152.786 14.3038 151.444 14.2144 150.514 14.4354C149.584 14.6564 148.399 14.0381 148.399 14.0381C148.399 14.0381 149.225 15.6746 151.807 15.7193H154.698H154.695Z" fill="#C7C7C7"/>
<path d="M162.631 73.9642H144.254V88.5292H162.631V73.9642Z" fill="#B3B3B3"/>
<path d="M163.608 72.6158H143.277V73.9246H163.608V72.6158Z" fill="#A6A6A6"/>
<path d="M163.266 73.8873H143.619V75.1961H163.266V73.8873Z" fill="#969696"/>
<path d="M162.771 75.1887H144.185V76.4975H162.771V75.1887Z" fill="#8A8A8A"/>
<path d="M162.521 59.8835H144.144V70.8029H162.521V59.8835Z" fill="#B3B3B3"/>
<path d="M160.429 48.9965H146.134V55.3911H160.429V48.9965Z" fill="#B3B3B3"/>
<path d="M157.419 40.995H148.837V44.6356H157.419V40.995Z" fill="#B3B3B3"/>
<path d="M155.885 35.9389H150.569L149.923 34.2006L151.826 34.6873H154.709L156.653 34.2006L155.885 35.9389Z" fill="#C7C7C7"/>
<path d="M163.764 56.0616H142.979V58.1725H163.764V56.0616Z" fill="#D9D9D9"/>
<path d="M163.764 55.2123H142.979V56.1237H163.764V55.2123Z" fill="#EDEDED"/>
<path d="M164.868 72.0123H141.962V72.6034H164.868V72.0123Z" fill="#C7C7C7"/>
<path d="M164.868 70.7706H141.962V72.0098H164.868V70.7706Z" fill="#D9D9D9"/>
<path d="M147.458 153.251H190.61L175.06 125.363L147.458 122.459V153.251Z" fill="#B3B3B3"/>
<path d="M175.069 122.459L194.347 153.243L189.222 153.268L175.06 129.984L175.069 122.459Z" fill="#D9D9D9"/>
<path d="M191.713 153.251H199L195.775 131.04H191.713V153.251Z" fill="#D9D9D9"/>
<path d="M159.543 153.251H116.391L131.94 125.363L159.543 122.459V153.251Z" fill="#B3B3B3"/>
<path d="M175.081 122.459H131.932V153.251H175.081V122.459Z" fill="#D6D6D6"/>
<path d="M136.674 122.459H131.932V153.251H136.674V122.459Z" fill="#DEDEDE"/>
<path d="M151.167 102H138.333V122H151.167V102Z" fill="#E6E6E6"/>
<path d="M167.5 102H155.833V122H167.5V102Z" fill="#E6E6E6"/>
<path d="M157.706 102.141H150.071V122.162H157.706V102.141Z" fill="#878787"/>
<path d="M175.081 122.459H170.338V153.251H175.081V122.459Z" fill="#DEDEDE"/>
<path d="M148.431 48.9493C148.431 50.0916 147.351 51.0179 146.018 51.0179C144.685 51.0179 143.604 50.0916 143.604 48.9493C143.604 47.8069 144.685 46.8806 146.018 46.8806C147.351 46.8806 148.431 47.8069 148.431 48.9493Z" fill="#B3B3B3"/>
<path d="M162.814 48.9493C162.814 50.0916 161.733 51.0179 160.4 51.0179C159.067 51.0179 157.987 50.0916 157.987 48.9493C157.987 47.8069 159.067 46.8806 160.4 46.8806C161.733 46.8806 162.814 47.8069 162.814 48.9493Z" fill="#B3B3B3"/>
<path d="M175.081 122.459H131.932V126.343H175.081V122.459Z" fill="#E6E6E6"/>
<path d="M170.007 119.825H136.772V122.283H170.007V119.825Z" fill="#9E9E9E"/>
<path d="M131.932 122.459L112.653 153.243L117.779 153.268L131.94 129.984L131.932 122.459Z" fill="#D9D9D9"/>
<path d="M115.287 153.251H108L111.225 131.04H115.287V153.251Z" fill="#D9D9D9"/>
<path d="M164.787 125.735H142.365V127.166H164.787V125.735Z" fill="#E0E0E0"/>
<path d="M166.69 127.168H140.493V130.302H166.69V127.168Z" fill="#9E9E9E"/>
<path d="M164.787 130.3H142.365V131.73H164.787V130.3Z" fill="#E0E0E0"/>
<path d="M166.69 131.732H140.493V134.866H166.69V131.732Z" fill="#9E9E9E"/>
<path d="M164.787 134.864H142.365V136.294H164.787V134.864Z" fill="#E0E0E0"/>
<path d="M166.69 136.294H140.493V139.428H166.69V136.294Z" fill="#9E9E9E"/>
<path d="M164.787 139.431H142.365V140.861H164.787V139.431Z" fill="#E0E0E0"/>
<path d="M166.69 140.861H140.493V143.995H166.69V140.861Z" fill="#9E9E9E"/>
<path d="M164.787 143.995H142.365V145.426H164.787V143.995Z" fill="#E0E0E0"/>
<path d="M166.69 145.426H140.493V148.56H166.69V145.426Z" fill="#9E9E9E"/>
<path d="M164.787 148.56H142.365V149.99H164.787V148.56Z" fill="#E0E0E0"/>
<path d="M166.69 149.99H140.493V153.124H166.69V149.99Z" fill="#9E9E9E"/>
<g style="mix-blend-mode:multiply">
<path d="M142.912 127.168L145.348 130.299H142.912V127.168Z" fill="#DEDEDE"/>
</g>
<g style="mix-blend-mode:multiply">
<path d="M142.825 131.732L145.261 134.864H142.825V131.732Z" fill="#DEDEDE"/>
</g>
<g style="mix-blend-mode:multiply">
<path d="M142.767 136.294L145.204 139.431H142.767V136.294Z" fill="#DEDEDE"/>
</g>
<g style="mix-blend-mode:multiply">
<path d="M142.694 140.861L145.131 143.995H142.694V140.861Z" fill="#DEDEDE"/>
</g>
<g style="mix-blend-mode:multiply">
<path d="M142.608 145.426L145.045 148.56H142.608V145.426Z" fill="#DEDEDE"/>
</g>
<g style="mix-blend-mode:multiply">
<path d="M142.608 149.926L145.045 153.057H142.608V149.926Z" fill="#DEDEDE"/>
</g>
<path d="M164.503 153.119H167.997L166.49 122.497H163.946L164.503 153.119Z" fill="white"/>
<path d="M142.518 153.119H139.021L140.528 122.497H143.074L142.518 153.119Z" fill="white"/>
<path d="M170.932 100.75C170.932 101.631 170.097 102.344 169.072 102.344H137.616C136.587 102.344 135.756 101.629 135.756 100.75C135.756 99.8682 136.587 99.1555 137.616 99.1555H169.072C170.1 99.1555 170.932 99.8682 170.932 100.75Z" fill="#9E9E9E"/>
<path d="M173.322 98.0926C173.322 98.9742 172.49 99.6869 171.462 99.6869H135.756C134.727 99.6869 133.896 98.9717 133.896 98.0926C133.896 97.211 134.73 96.4983 135.756 96.4983H171.462C172.49 96.4983 173.322 97.2135 173.322 98.0926Z" fill="#E6E6E6"/>
<path d="M174.437 97.1068H132.867L130.526 94.0323H176.778L174.437 97.1068Z" fill="#BDBDBD"/>
<path d="M153.476 94.0224H176.602L165.931 90.4563H153.565H141.197L130.526 94.0224H153.652H153.476Z" fill="#EDEDED"/>
<path d="M166.603 49.066H140.09L137.749 47.1687H168.944L166.603 49.066Z" fill="#BDBDBD"/>
<path d="M160.698 47.1613H168.767L157.94 44.6804H148.095L137.749 47.1613H160.875H160.698Z" fill="#EDEDED"/>
<path d="M165.546 88.4672H141.078V90.4141H165.546V88.4672Z" fill="#9E9E9E"/>
<path d="M166.496 82.4747H140.443V83.7984H166.496V82.4747Z" fill="#D9D9D9"/>
<path d="M142.709 82.4747H141.078V88.4795H142.709V82.4747Z" fill="#D9D9D9"/>
<path d="M165.546 82.4747H163.915V88.4795H165.546V82.4747Z" fill="#D9D9D9"/>
<path d="M154.515 82.4747H152.884V88.4795H154.515V82.4747Z" fill="#D9D9D9"/>
<path d="M163.593 67.644H143.257V68.553H163.593V67.644Z" fill="#D9D9D9"/>
<path d="M144.613 67.644H143.257V70.8898H144.613V67.644Z" fill="#D9D9D9"/>
<path d="M163.596 67.644H162.24V70.8898H163.596V67.644Z" fill="#D9D9D9"/>
<path d="M150.828 67.644H149.472V70.8898H150.828V67.644Z" fill="#D9D9D9"/>
<path d="M157.671 67.644H156.315V70.8898H157.671V67.644Z" fill="#D9D9D9"/>
<path d="M148.837 38.6781H157.659C157.65 37.0092 156.958 36.8478 155.895 35.9141H150.598C149.535 36.8478 148.846 37.0092 148.834 38.6781H148.837Z" fill="#D9D9D9"/>
<path d="M165.644 85.0276H141.092L140.687 86.006H166.014L165.644 85.0276Z" fill="#C7C7C7"/>
<path d="M140.687 86.006L140.284 86.9745H166.383L166.015 86.006H140.687Z" fill="#A8A8A8"/>
<path d="M150.65 59.8835C150.65 59.8835 148.02 57.3207 150.175 57.3207C152.331 57.3207 152.826 59.886 152.826 59.886H150.65V59.8835Z" fill="#A6A6A6"/>
<path d="M148.475 59.8835C148.475 59.8835 145.844 57.3207 148 57.3207C150.155 57.3207 150.651 59.886 150.651 59.886H148.475V59.8835Z" fill="#8A8A8A"/>
<path d="M146.299 59.8835C146.299 59.8835 143.668 57.3207 145.821 57.3207C147.974 57.3207 148.472 59.886 148.472 59.886H146.296L146.299 59.8835Z" fill="#A6A6A6"/>
<path d="M144.143 59.8835C144.143 59.8835 141.512 57.3207 143.668 57.3207C145.824 57.3207 146.319 59.886 146.319 59.886H144.143V59.8835Z" fill="#8A8A8A"/>
<path d="M155.993 59.8835C155.993 59.8835 158.624 57.3207 156.468 57.3207C154.313 57.3207 153.814 59.886 153.814 59.886H155.99L155.993 59.8835Z" fill="#A6A6A6"/>
<path d="M158.169 59.8835C158.169 59.8835 160.8 57.3207 158.644 57.3207C156.489 57.3207 155.993 59.886 155.993 59.886H158.169V59.8835Z" fill="#8A8A8A"/>
<path d="M160.345 59.8835C160.345 59.8835 162.976 57.3207 160.82 57.3207C158.664 57.3207 158.169 59.886 158.169 59.886H160.345V59.8835Z" fill="#A6A6A6"/>
<path d="M162.501 59.8835C162.501 59.8835 165.131 57.3207 162.976 57.3207C160.82 57.3207 160.322 59.886 160.322 59.886H162.498L162.501 59.8835Z" fill="#8A8A8A"/>
<path d="M153.31 57.2288C152.568 57.2288 151.969 57.7478 151.969 58.3885V59.8884H154.652V58.3885C154.652 57.7478 154.052 57.2288 153.31 57.2288Z" fill="#8A8A8A"/>
<path d="M158.198 38.6383H148.095V39.4454H158.198V38.6383Z" fill="#A6A6A6"/>
<path d="M158.024 39.4205H148.263V40.2276H158.024V39.4205Z" fill="#969696"/>
<path d="M157.778 40.2227H148.544V41.0298H157.778V40.2227Z" fill="#8A8A8A"/>
<path d="M152.902 34.6525C152.902 35.0374 152.381 35.3478 151.737 35.3478C151.094 35.3478 150.57 35.0374 150.57 34.6525C150.57 34.2676 151.091 33.9572 151.737 33.9572C152.384 33.9572 152.902 34.2676 152.902 34.6525Z" fill="#C7C7C7"/>
<path d="M154.313 34.6525C154.313 35.0374 153.791 35.3478 153.148 35.3478C152.505 35.3478 151.98 35.0374 151.98 34.6525C151.98 34.2676 152.502 33.9572 153.148 33.9572C153.794 33.9572 154.313 34.2676 154.313 34.6525Z" fill="#C7C7C7"/>
<path d="M155.863 34.6525C155.863 35.0374 155.341 35.3478 154.695 35.3478C154.049 35.3478 153.53 35.0374 153.53 34.6525C153.53 34.2676 154.052 33.9572 154.695 33.9572C155.338 33.9572 155.863 34.2676 155.863 34.6525Z" fill="#C7C7C7"/>
<path d="M156.008 35.5664H150.474V35.8818H156.008V35.5664Z" fill="#ADADAD"/>
<path d="M155.845 21.1007H150.63V21.4831H155.845V21.1007Z" fill="#8A8A8A"/>
<path d="M155.845 25.2678H150.63V25.6503H155.845V25.2678Z" fill="#8A8A8A"/>
<path d="M156.529 29.7379H150.135V30.1204H156.529V29.7379Z" fill="#8A8A8A"/>
</g>
<defs>
<linearGradient id="paint0_linear_4218_73302" x1="143.627" y1="96.9973" x2="298.245" y2="220.258" gradientUnits="userSpaceOnUse">
<stop stop-color="#6740CC" stop-opacity="0.3"/>
<stop offset="1" stop-color="#D9D9D9" stop-opacity="0"/>
</linearGradient>
</defs>
</svg>
