<svg width="166" height="43" viewBox="0 0 166 43" fill="none" xmlns="http://www.w3.org/2000/svg">
<g clip-path="url(#clip0_523_1639)">
<rect x="6.86646e-05" width="40" height="42.3529" rx="5.88416" fill="#02A39F"/>
<path fill-rule="evenodd" clip-rule="evenodd" d="M32.8788 6.46191H34.2501C34.6563 6.46191 34.9856 6.79122 34.9856 7.19743V8.66745C34.9856 9.07366 34.6563 9.40297 34.2501 9.40297H32.8788C32.4726 9.40297 32.1433 9.07366 32.1433 8.66745V7.19743C32.1433 6.79122 32.4726 6.46191 32.8788 6.46191ZM32.8788 13.0811H34.2501C34.6563 13.0811 34.9856 13.4104 34.9856 13.8166V15.2866C34.9856 15.6928 34.6563 16.0221 34.2501 16.0221H32.8788C32.4726 16.0221 32.1433 15.6928 32.1433 15.2866V13.8166C32.1433 13.4104 32.4726 13.0811 32.8788 13.0811ZM34.2501 19.6992H32.8788C32.4726 19.6992 32.1433 20.0285 32.1433 20.4347V21.9048C32.1433 22.311 32.4726 22.6403 32.8788 22.6403H34.2501C34.6563 22.6403 34.9856 22.311 34.9856 21.9048V20.4347C34.9856 20.0285 34.6563 19.6992 34.2501 19.6992ZM32.8788 26.3193H34.2501C34.6563 26.3193 34.9856 26.6486 34.9856 27.0549V28.5249C34.9856 28.9311 34.6563 29.2604 34.2501 29.2604H32.8788C32.4726 29.2604 32.1433 28.9311 32.1433 28.5249V27.0549C32.1433 26.6486 32.4726 26.3193 32.8788 26.3193ZM34.2501 32.9365H32.8788C32.4726 32.9365 32.1433 33.2658 32.1433 33.672V35.1421C32.1433 35.5483 32.4726 35.8776 32.8788 35.8776H34.2501C34.6563 35.8776 34.9856 35.5483 34.9856 35.1421V33.672C34.9856 33.2658 34.6563 32.9365 34.2501 32.9365ZM6.45011 6.46203H7.82142C8.22763 6.46203 8.55694 6.79133 8.55694 7.19755V8.66756C8.55694 9.07378 8.22763 9.40308 7.82142 9.40308H6.45011C6.04389 9.40308 5.71459 9.07378 5.71459 8.66756V7.19755C5.71459 6.79133 6.04389 6.46203 6.45011 6.46203ZM7.82142 13.0811H6.45011C6.04389 13.0811 5.71459 13.4104 5.71459 13.8166V15.2866C5.71459 15.6929 6.04389 16.0222 6.45011 16.0222H7.82142C8.22763 16.0222 8.55694 15.6929 8.55694 15.2866V13.8166C8.55694 13.4104 8.22763 13.0811 7.82142 13.0811ZM6.44994 19.6995H7.82125C8.22747 19.6995 8.55677 20.0288 8.55677 20.435V21.905C8.55677 22.3112 8.22747 22.6406 7.82125 22.6406H6.44994C6.04373 22.6406 5.71442 22.3112 5.71442 21.905V20.435C5.71442 20.0288 6.04373 19.6995 6.44994 19.6995ZM7.82142 26.3194H6.45011C6.04389 26.3194 5.71459 26.6487 5.71459 27.0549V28.5249C5.71459 28.9311 6.04389 29.2604 6.45011 29.2604H7.82142C8.22763 29.2604 8.55694 28.9311 8.55694 28.5249V27.0549C8.55694 26.6487 8.22763 26.3194 7.82142 26.3194ZM6.44994 32.9368H7.82125C8.22747 32.9368 8.55677 33.2661 8.55677 33.6723V35.1423C8.55677 35.5486 8.22747 35.8779 7.82125 35.8779H6.44994C6.04373 35.8779 5.71442 35.5486 5.71442 35.1423V33.6723C5.71442 33.2661 6.04373 32.9368 6.44994 32.9368Z" fill="white"/>
<path d="M25.3321 20.1999C26.4051 20.7674 26.4051 22.3044 25.3321 22.8719L16.5046 27.5411C15.4981 28.0735 14.2866 27.3438 14.2866 26.2051L14.2866 16.8667C14.2866 15.728 15.4981 14.9982 16.5046 15.5307L25.3321 20.1999Z" fill="white"/>
</g>
<path d="M54.1761 33V10.408H57.7601L66.6561 24.264H64.8321L73.6961 10.408H77.3121V33H72.2881V18.888L73.1841 19.112L67.3921 28.136H64.0641L58.3041 19.112L59.1681 18.888V33H54.1761ZM81.9008 9.096H95.4368C95.4368 18.184 93.2928 25.768 82.3168 31.368L80.0768 28.104C84.9088 25.704 87.7568 22.952 89.4208 19.72L80.8768 20.552L80.3328 16.968L90.6368 16.36C90.9248 15.144 91.1488 13.864 91.2448 12.456H81.9008V9.096ZM107.405 17.512V21H103.277V35.688H99.0528V6.248H103.277V17.512H107.405ZM129.194 6.248H133.418V35.816H129.194V6.248ZM117.578 8.328C122.026 8.328 125.322 12.36 125.322 18.824C125.322 25.32 122.026 29.384 117.578 29.384C113.13 29.384 109.834 25.32 109.834 18.824C109.834 12.36 113.13 8.328 117.578 8.328ZM117.578 12.136C115.402 12.136 113.898 14.472 113.898 18.824C113.898 23.208 115.402 25.544 117.578 25.544C119.754 25.544 121.258 23.208 121.258 18.824C121.258 14.472 119.754 12.136 117.578 12.136ZM137.8 28.808H164.488V32.264H137.8V28.808ZM140.616 8.2H144.808V12.968H157.416V8.2H161.576V23.912H140.616V8.2ZM144.808 16.264V20.552H157.416V16.264H144.808Z" fill="black"/>
<defs>
<clipPath id="clip0_523_1639">
<rect width="40" height="43" fill="white"/>
</clipPath>
</defs>
</svg>
