<svg width="308" height="174" viewBox="0 0 308 174" fill="none" xmlns="http://www.w3.org/2000/svg">
<mask id="path-1-inside-1_4218_73182" fill="white">
<path d="M0 0L308 0V174L0 174L0 0Z"/>
</mask>
<path d="M0 0L308 0V174L0 174L0 0Z" fill="#E8F6F6"/>
<path d="M0 0L0 -1L-1 -1V0L0 0ZM308 0L309 0V-1H308V0ZM0 1L308 1V-1L0 -1L0 1ZM307 0V174H309V0L307 0ZM1 174L1 0L-1 0L-1 174H1Z" fill="#D1EEED" mask="url(#path-1-inside-1_4218_73182)"/>
<mask id="mask0_4218_73182" style="mask-type:alpha" maskUnits="userSpaceOnUse" x="0" y="0" width="308" height="174">
<path d="M0 0L308 0V174L0 174L0 0Z" fill="#E8F6F6"/>
</mask>
<g mask="url(#mask0_4218_73182)">
<path d="M108 136.5L170.078 33L318 160.5L242 248.5L108 136.5Z" fill="url(#paint0_linear_4218_73182)"/>
<path d="M160.458 42.2358H144.524C143.872 42.2358 143.344 42.7641 143.344 43.4157V88.476C143.344 89.1276 143.872 89.6559 144.524 89.6559H160.458C161.11 89.6559 161.638 89.1276 161.638 88.476V43.4157C161.638 42.7641 161.11 42.2358 160.458 42.2358Z" fill="white"/>
<path d="M201.064 130.699L167.071 74.4588V41.9349H141.928V74.4529L107.935 130.699C105.28 135.088 108.596 140.574 113.905 140.574H195.094C200.397 140.574 203.713 135.088 201.064 130.699Z" fill="white"/>
<path d="M167.071 42.6547C167.071 40.6135 166.582 38.6843 165.714 36.9794H143.279C142.412 38.6843 141.922 40.6135 141.922 42.6547V45.1207H167.065V42.6547H167.071Z" fill="#DAEEF0"/>
<path d="M139.379 32.6433H169.62C170.204 32.6433 170.682 33.1212 170.682 33.7052V40.2477C170.682 40.8318 170.204 41.3097 169.62 41.3097H139.379C138.795 41.3097 138.317 40.8318 138.317 40.2477V33.7052C138.317 33.1212 138.795 32.6433 139.379 32.6433Z" fill="white"/>
<path d="M189.719 124.923L163.059 80.0988V58.4241H145.939V80.0988L119.279 124.923C117.273 128.244 119.781 132.392 123.792 132.392H185.2C189.212 132.392 191.719 128.244 189.713 124.923H189.719Z" fill="url(#paint1_linear_4218_73182)"/>
<path d="M147.951 97.8386C147.951 96.0039 146.464 94.5172 144.63 94.5172C142.795 94.5172 141.308 96.0039 141.308 97.8386C141.308 99.6734 142.795 101.16 144.63 101.16C146.464 101.16 147.951 99.6734 147.951 97.8386Z" fill="white"/>
<path d="M149.815 105.065C149.815 104.033 148.978 103.201 147.951 103.201C146.925 103.201 146.087 104.039 146.087 105.065C146.087 106.092 146.925 106.93 147.951 106.93C148.978 106.93 149.815 106.098 149.815 105.065Z" fill="white"/>
<path d="M162.174 125.737H155.98C155.585 125.737 155.266 125.419 155.266 125.023C155.266 124.628 155.585 124.31 155.98 124.31H161.461V99.7676H155.98C155.585 99.7676 155.266 99.4491 155.266 99.0538C155.266 98.6585 155.585 98.34 155.98 98.34H162.174C162.57 98.34 162.888 98.6585 162.888 99.0538V125.023C162.888 125.419 162.57 125.737 162.174 125.737Z" fill="white"/>
<path d="M162.174 106.08H155.98C155.785 106.08 155.62 105.921 155.62 105.72C155.62 105.52 155.779 105.36 155.98 105.36H162.174C162.369 105.36 162.528 105.52 162.528 105.72C162.528 105.921 162.369 106.08 162.174 106.08Z" fill="white"/>
<path d="M162.174 112.392H155.98C155.785 112.392 155.62 112.233 155.62 112.033C155.62 111.832 155.779 111.673 155.98 111.673H162.174C162.369 111.673 162.528 111.832 162.528 112.033C162.528 112.233 162.369 112.392 162.174 112.392Z" fill="white"/>
<path d="M162.174 119.059H155.98C155.785 119.059 155.62 118.9 155.62 118.705C155.62 118.51 155.779 118.345 155.98 118.345H162.174C162.369 118.345 162.528 118.505 162.528 118.705C162.528 118.906 162.369 119.059 162.174 119.059Z" fill="white"/>
</g>
<defs>
<linearGradient id="paint0_linear_4218_73182" x1="132.612" y1="79.9973" x2="287.23" y2="203.258" gradientUnits="userSpaceOnUse">
<stop stop-color="#02A39F" stop-opacity="0.3"/>
<stop offset="1" stop-color="#D9D9D9" stop-opacity="0"/>
</linearGradient>
<linearGradient id="paint1_linear_4218_73182" x1="154.496" y1="58.4241" x2="154.496" y2="132.392" gradientUnits="userSpaceOnUse">
<stop stop-color="#E8F6F6"/>
<stop offset="0.8" stop-color="#FCABCD"/>
</linearGradient>
</defs>
</svg>
