<svg width="444" height="113" viewBox="0 0 444 113" fill="none" xmlns="http://www.w3.org/2000/svg">
<g clip-path="url(#clip0_36_1277)">
<path d="M60.1049 49.8433H15.8948C9.86868 49.8433 4.98352 54.7284 4.98352 60.7546V102.089C4.98352 108.115 9.86868 113 15.8948 113H60.1049C66.1311 113 71.0162 108.115 71.0162 102.089V60.7546C71.0162 54.7284 66.1311 49.8433 60.1049 49.8433Z" fill="#02A39F"/>
<path d="M49.2916 100.196C49.0756 100.196 48.9005 100.021 48.9005 99.8048V85.855C48.9005 85.639 49.0756 85.4639 49.2916 85.4639H51.7479C51.9639 85.4639 52.139 85.639 52.139 85.855V99.8048C52.139 100.021 51.9639 100.196 51.7479 100.196H49.2916ZM51.7669 100.196C51.5509 100.196 51.3758 100.021 51.3758 99.8048V97.7491C51.3758 97.5331 51.5509 97.358 51.7669 97.358H58.9675C59.1835 97.358 59.3586 97.5331 59.3586 97.7491V99.8048C59.3586 100.021 59.1835 100.196 58.9675 100.196H51.7669ZM51.7669 94.0402C51.5509 94.0402 51.3758 93.8651 51.3758 93.6491V91.6977C51.3758 91.4817 51.5509 91.3066 51.7669 91.3066H58.2456C58.4616 91.3066 58.6367 91.4817 58.6367 91.6977V93.6491C58.6367 93.8651 58.4616 94.0402 58.2456 94.0402H51.7669ZM51.7669 88.2809C51.5509 88.2809 51.3758 88.1058 51.3758 87.8898V85.855C51.3758 85.639 51.5509 85.4639 51.7669 85.4639H58.8644C59.0804 85.4639 59.2555 85.639 59.2555 85.855V87.8898C59.2555 88.1058 59.0804 88.2809 58.8644 88.2809H51.7669Z" fill="white"/>
<path d="M38.9546 100.198C38.7923 100.198 38.6468 100.098 38.5891 99.9462L33.2763 85.9964C33.1788 85.7404 33.3679 85.4661 33.6418 85.4661H36.2645C36.4296 85.4661 36.5769 85.5698 36.6326 85.7252L40.6222 96.858C40.7135 97.1128 40.5247 97.3811 40.254 97.3811H39.9447C39.6733 97.3811 39.4844 97.1114 39.5771 96.8563L43.6245 85.7235C43.6807 85.569 43.8276 85.4661 43.9921 85.4661H46.5726C46.8471 85.4661 47.0362 85.7415 46.9376 85.9977L41.5662 99.9475C41.5081 100.098 41.363 100.198 41.2012 100.198H38.9546Z" fill="white"/>
<path d="M28.4682 100.196C28.2522 100.196 28.0771 100.021 28.0771 99.8048V85.855C28.0771 85.639 28.2522 85.4639 28.4682 85.4639H30.9253C31.1413 85.4639 31.3164 85.639 31.3164 85.855V99.8048C31.3164 100.021 31.1413 100.196 30.9253 100.196H28.4682Z" fill="white"/>
<path d="M17.019 100.198C16.803 100.198 16.6279 100.023 16.6279 99.807V85.8572C16.6279 85.6412 16.803 85.4661 17.019 85.4661H19.4761C19.6921 85.4661 19.8672 85.6412 19.8672 85.8572V99.807C19.8672 100.023 19.6921 100.198 19.4761 100.198H17.019ZM19.5155 100.198C19.2995 100.198 19.1244 100.023 19.1244 99.807V97.7096C19.1244 97.4936 19.2995 97.3185 19.5155 97.3185H25.934C26.15 97.3185 26.3251 97.4936 26.3251 97.7096V99.807C26.3251 100.023 26.15 100.198 25.934 100.198H19.5155Z" fill="white"/>
<path d="M29.6786 82.4844C31.3482 82.4844 32.7018 81.1155 32.7018 79.4269C32.7018 77.7383 31.3482 76.3694 29.6786 76.3694C28.0089 76.3694 26.6554 77.7383 26.6554 79.4269C26.6554 81.1155 28.0089 82.4844 29.6786 82.4844Z" fill="white"/>
<mask id="mask0_36_1277" style="mask-type:alpha" maskUnits="userSpaceOnUse" x="-1" y="41" width="77" height="24">
<path d="M65.0884 41H10.9112C4.88503 41 -0.00012207 45.8852 -0.00012207 51.9113V54.0882C-0.00012207 60.1143 4.88503 64.9995 10.9112 64.9995H65.0884C71.1145 64.9995 75.9997 60.1143 75.9997 54.0882V51.9113C75.9997 45.8852 71.1145 41 65.0884 41Z" fill="#212938"/>
</mask>
<g mask="url(#mask0_36_1277)">
<path d="M75.9848 64.2312V45.3062C75.9848 42.9419 74.1024 41.0335 71.7704 41.0335H4.21429C1.88225 41.0229 -0.00012207 42.9419 -0.00012207 45.3062V64.2418H75.9848V64.2312Z" fill="white"/>
<path d="M13.5861 41.0015H4.21502C1.88271 41.0015 0.00012207 42.9205 0.00012207 45.2848V54.7844C4.52878 50.1936 9.05744 45.5922 13.5861 41.0015Z" fill="#02A39F"/>
<path d="M43.912 41.002H26.0923L3.17969 64.2315H20.9994C28.6335 56.4918 36.278 48.7522 43.912 41.002Z" fill="#02A39F"/>
<path d="M73.7375 41.5206C73.1518 41.2026 72.493 41.0117 71.7714 41.0117H56.4092C56.4092 41.0117 56.3778 41.0541 56.3569 41.0753C48.7438 48.7938 41.1202 56.5228 33.5071 64.2412H51.3268C58.7935 56.6712 66.2707 49.1012 73.7375 41.5206Z" fill="#02A39F"/>
<path d="M63.8333 64.2305H75.9997V51.9106C71.9512 56.0243 67.8922 60.1274 63.8333 64.2305Z" fill="#02A39F"/>
<g opacity="0.3">
<path opacity="0.2" d="M75.9848 52.5239H-0.00012207V53.1601H75.9848V52.5239Z" fill="black"/>
<path d="M75.9848 52.3677H-0.00012207V53.0038H75.9848V52.3677Z" fill="#02A39F"/>
</g>
</g>
<path d="M71.0162 63.7378H4.98352V65.0437H71.0162V63.7378Z" fill="#008F8C"/>
<path d="M114.461 74.7407V85.7804C123.306 85.7158 130.472 85.393 138.607 84.1664L139.381 90.9452C130.085 92.3655 121.757 92.6237 111.104 92.6237H105.939V51.4992H136.024V58.4071H114.461V68.091H133.571V74.7407H114.461ZM143.707 46.5927H152.293V106.117H143.707V46.5927ZM183.083 63.0554V65.1213C183.083 73.6432 187.667 83.3271 197.222 87.5881L192.703 94.1086C186.182 91.2034 181.534 85.6513 178.951 78.9371C176.434 86.0386 171.785 92.0427 165.071 95.077L160.552 88.5565C170.107 84.1018 174.561 74.0305 174.561 65.1213V63.0554H162.553V56.2766H174.561V48.013H183.083V56.2766H194.898V63.0554H183.083ZM202.257 46.5927H210.779V106.181H202.257V76.2256H191.734V69.3177H202.257V46.5927ZM220.587 100.5V54.9209H230.723V100.5H220.587ZM228.399 100.5V91.5908H250.93V100.5H228.399ZM255.485 100.5V54.9209H265.621V100.5H255.485ZM287.311 100.5L269.751 54.9209H280.597L293.96 91.7844H289.506L303.063 54.9209H313.78L296.026 100.5H287.311ZM317.84 100.5V54.9209H327.976V100.5H317.84ZM325.588 100.5V91.7199H350.572V100.5H325.588ZM325.588 81.4549V72.9976H348.313V81.4549H325.588ZM325.588 63.6364V54.9209H350.249V63.6364H325.588Z" fill="black"/>
</g>
<defs>
<clipPath id="clip0_36_1277">
<rect width="444" height="113" fill="white"/>
</clipPath>
</defs>
</svg>
