<svg width="200" height="189" viewBox="0 0 200 189" fill="none" xmlns="http://www.w3.org/2000/svg">
<g opacity="0.34">
<path d="M75.7812 29.3105L29.269 75.8227C13.2923 91.7994 13.2923 117.703 29.269 133.679C45.2456 149.656 71.1488 149.656 87.1255 133.679L133.638 87.167C149.614 71.1904 149.614 45.2871 133.638 29.3105C117.661 13.3338 91.7578 13.3338 75.7812 29.3105Z" fill="url(#paint0_linear_4119_86)"/>
<path d="M154.971 104.779L116.08 143.67C107.918 151.832 107.918 165.065 116.08 173.227L116.206 173.354C124.368 181.516 137.602 181.516 145.764 173.354L184.655 134.463C192.817 126.301 192.817 113.067 184.655 104.905L184.528 104.779C176.366 96.6167 163.133 96.6167 154.971 104.779Z" fill="url(#paint1_linear_4119_86)"/>
</g>
<defs>
<linearGradient id="paint0_linear_4119_86" x1="38.8187" y1="161.389" x2="123.567" y2="40.5049" gradientUnits="userSpaceOnUse">
<stop stop-color="#D9F3F2"/>
<stop offset="1" stop-color="#CAEBE9"/>
</linearGradient>
<linearGradient id="paint1_linear_4119_86" x1="119.746" y1="188.803" x2="171.055" y2="107.766" gradientUnits="userSpaceOnUse">
<stop stop-color="#D9F3F2"/>
<stop offset="1" stop-color="#CAEBE9"/>
</linearGradient>
</defs>
</svg>
