<svg width="308" height="174" viewBox="0 0 308 174" fill="none" xmlns="http://www.w3.org/2000/svg">
<mask id="path-1-inside-1_4218_73108" fill="white">
<path d="M0 0L308 0V174L0 174L0 0Z"/>
</mask>
<path d="M0 0L308 0V174L0 174L0 0Z" fill="#E8F6F6"/>
<path d="M0 0L0 -1L-1 -1V0L0 0ZM308 0L309 0V-1H308V0ZM0 1L308 1V-1L0 -1L0 1ZM307 0V174H309V0L307 0ZM1 174L1 0L-1 0L-1 174H1Z" fill="#D1EEED" mask="url(#path-1-inside-1_4218_73108)"/>
<mask id="mask0_4218_73108" style="mask-type:alpha" maskUnits="userSpaceOnUse" x="0" y="0" width="308" height="174">
<path d="M0 0L308 0V174L0 174L0 0Z" fill="#E8F6F6"/>
</mask>
<g mask="url(#mask0_4218_73108)">
<path d="M114 139L196.093 37L344.015 164.5L248 251L114 139Z" fill="url(#paint0_linear_4218_73108)"/>
<path d="M191.643 35H115.357C110.742 35 107 38.741 107 43.3558V131.644C107 136.259 110.742 140 115.357 140H191.643C196.258 140 200 136.259 200 131.644V43.3558C200 38.741 196.258 35 191.643 35Z" fill="white"/>
<path d="M186.632 73.6633H120.368C118.502 73.6633 116.972 72.167 116.972 70.3344V47.5086C116.972 45.676 118.502 44.1797 120.368 44.1797H186.632C188.499 44.1797 190.029 45.676 190.029 47.5086V70.34C190.029 72.167 188.499 73.6689 186.632 73.6689V73.6633Z" fill="#315764"/>
<path d="M129.616 64V63.244C132.626 60.248 134.32 58.456 134.32 56.818C134.32 55.684 133.704 54.872 132.43 54.872C131.59 54.872 130.862 55.404 130.302 56.062L129.56 55.348C130.4 54.438 131.282 53.836 132.584 53.836C134.418 53.836 135.566 54.998 135.566 56.762C135.566 58.638 133.858 60.5 131.492 62.992C132.024 62.95 132.64 62.894 133.172 62.894H136.07V64H129.616ZM136.696 64L139.202 60.038L136.892 56.398H138.264L139.286 58.064C139.524 58.498 139.79 58.918 140.042 59.338H140.098C140.336 58.918 140.56 58.498 140.784 58.064L141.722 56.398H143.052L140.742 60.164L143.248 64H141.848L140.728 62.222C140.476 61.76 140.196 61.298 139.916 60.864H139.846C139.58 61.298 139.328 61.76 139.062 62.222L138.04 64H136.696ZM146.832 64.182C145.236 64.182 144.256 63.51 143.57 62.824L144.2 61.984C144.788 62.572 145.53 63.118 146.72 63.118C147.924 63.118 148.904 62.236 148.904 60.85C148.904 59.464 148.064 58.638 146.776 58.638C146.09 58.638 145.656 58.862 145.068 59.254L144.382 58.82L144.704 54.018H149.702V55.11H145.824L145.572 58.092C146.034 57.84 146.482 57.672 147.098 57.672C148.806 57.672 150.192 58.652 150.192 60.808C150.192 62.964 148.568 64.182 146.832 64.182ZM154.047 57.63V56.678H160.753V57.63H154.047ZM154.047 60.99V60.038H160.753V60.99H154.047ZM165.083 64V62.936H167.365V55.572H165.545V54.746C166.455 54.592 167.113 54.354 167.673 54.018H168.653V62.936H170.711V64H165.083ZM175.229 64.182C173.241 64.182 172.023 62.32 172.023 58.974C172.023 55.628 173.241 53.836 175.229 53.836C177.217 53.836 178.421 55.642 178.421 58.974C178.421 62.32 177.217 64.182 175.229 64.182ZM175.229 63.16C176.391 63.16 177.175 61.9 177.175 58.974C177.175 56.048 176.391 54.858 175.229 54.858C174.053 54.858 173.269 56.048 173.269 58.974C173.269 61.9 174.053 63.16 175.229 63.16Z" fill="white"/>
<path d="M131.864 91.748C131.864 92.5662 131.242 93.2275 130.474 93.2275H118.356C117.588 93.2275 116.966 92.5662 116.966 91.748V83.2465C116.966 82.4283 117.588 81.767 118.356 81.767H130.474C131.242 81.767 131.864 82.4283 131.864 83.2465V91.748Z" fill="#315764"/>
<path d="M151.252 91.748C151.252 92.5662 150.63 93.2275 149.868 93.2275H137.755C136.987 93.2275 136.365 92.5662 136.365 91.748V83.2465C136.365 82.4283 136.987 81.767 137.755 81.767H149.868C150.636 81.767 151.252 82.4283 151.252 83.2465V91.748Z" fill="#315764"/>
<path d="M170.641 91.748C170.641 92.5662 170.018 93.2275 169.251 93.2275H157.132C156.364 93.2275 155.742 92.5662 155.742 91.748V83.2465C155.742 82.4283 156.364 81.767 157.132 81.767H169.251C170.018 81.767 170.641 82.4283 170.641 83.2465V91.748Z" fill="#315764"/>
<path d="M131.864 109.054C131.864 109.872 131.242 110.533 130.474 110.533H118.356C117.588 110.533 116.966 109.872 116.966 109.054V100.552C116.966 99.7339 117.588 99.0726 118.356 99.0726H130.474C131.242 99.0726 131.864 99.7339 131.864 100.552V109.054Z" fill="#315764"/>
<path d="M151.252 109.054C151.252 109.872 150.63 110.533 149.868 110.533H137.755C136.987 110.533 136.365 109.872 136.365 109.054V100.552C136.365 99.7339 136.987 99.0726 137.755 99.0726H149.868C150.636 99.0726 151.252 99.7339 151.252 100.552V109.054Z" fill="#315764"/>
<path d="M170.641 109.054C170.641 109.872 170.018 110.533 169.251 110.533H157.132C156.364 110.533 155.742 109.872 155.742 109.054V100.552C155.742 99.7339 156.364 99.0726 157.132 99.0726H169.251C170.018 99.0726 170.641 99.7339 170.641 100.552V109.054Z" fill="#315764"/>
<path d="M131.864 126.359C131.864 127.178 131.242 127.839 130.474 127.839H118.356C117.588 127.839 116.966 127.178 116.966 126.359V117.858C116.966 117.04 117.588 116.378 118.356 116.378H130.474C131.242 116.378 131.864 117.04 131.864 117.858V126.359Z" fill="#315764"/>
<path d="M151.252 126.359C151.252 127.178 150.63 127.839 149.868 127.839H137.755C136.987 127.839 136.365 127.178 136.365 126.359V117.858C136.365 117.04 136.987 116.378 137.755 116.378H149.868C150.636 116.378 151.252 117.04 151.252 117.858V126.359Z" fill="#315764"/>
<path d="M170.641 126.359C170.641 127.178 170.018 127.839 169.251 127.839H157.132C156.364 127.839 155.742 127.178 155.742 126.359V117.858C155.742 117.04 156.364 116.378 157.132 116.378H169.251C170.018 116.378 170.641 117.04 170.641 117.858V126.359Z" fill="#315764"/>
<path d="M188.638 81.7725H176.526C175.758 81.7725 175.136 82.4338 175.136 83.252V126.359C175.136 127.178 175.758 127.839 176.526 127.839H188.638C189.406 127.839 190.029 127.178 190.029 126.359V83.252C190.029 82.4338 189.406 81.7725 188.638 81.7725Z" fill="#FFD54D"/>
</g>
<defs>
<linearGradient id="paint0_linear_4218_73108" x1="158.627" y1="83.9973" x2="313.245" y2="207.258" gradientUnits="userSpaceOnUse">
<stop stop-color="#02A39F" stop-opacity="0.3"/>
<stop offset="1" stop-color="#D9D9D9" stop-opacity="0"/>
</linearGradient>
</defs>
</svg>
