<svg width="88" height="94" viewBox="0 0 88 94" fill="none" xmlns="http://www.w3.org/2000/svg">
<path d="M7.91497 72.4579V86.1444H85.3728C86.8241 86.1444 87.9999 87.3202 87.9999 88.7715V90.5617C87.9999 92.013 86.8241 93.1889 85.3728 93.1889H6.98276C3.60352 93.1889 0.859863 90.4452 0.859863 87.066V71.5045C0.859863 68.1252 3.60352 65.3816 6.98276 65.3816H85.3728C86.8241 65.3816 87.9999 66.5574 87.9999 68.0087V69.799C87.9999 71.2503 86.8241 72.4261 85.3728 72.4261H7.91497V72.4579Z" fill="#6ACB91"/>
<path d="M82.2585 72.4573H7.91504V86.1438H82.2585V72.4573Z" fill="white"/>
<path d="M10.7856 44.6613V58.3477H81.1777C82.629 58.3477 83.8048 59.5236 83.8048 60.9749V62.7651C83.8048 64.2164 82.629 65.3922 81.1777 65.3922H9.85337C6.47412 65.3922 3.73047 62.6486 3.73047 59.2693V43.7079C3.73047 40.3286 6.47412 37.585 9.85337 37.585H81.1883C82.6396 37.585 83.8154 38.7608 83.8154 40.2121V42.0023C83.8154 43.4536 82.6396 44.6295 81.1883 44.6295H10.7856V44.6613Z" fill="#EBCD68"/>
<path d="M78.074 44.6626H10.7856V58.3491H78.074V44.6626Z" fill="white"/>
<path d="M60.2878 24.3223C58.7835 32.6062 51.5589 38.4961 44.1437 37.4897C43.9742 37.4685 43.8259 37.4156 43.667 37.3944C43.4975 37.4156 43.3492 37.4685 43.1797 37.4897C35.7538 38.5067 28.5398 32.6062 27.0356 24.3223C26.0398 18.7926 27.8512 13.602 31.3682 10.4663C33.1267 8.88795 35.3089 7.82863 37.7771 7.48964C38.1585 7.43668 38.5292 7.4049 38.9 7.3943C40.5314 7.32015 42.1309 7.58499 43.6776 8.12524C45.5526 7.46846 47.5441 7.21422 49.5568 7.48964C56.9827 8.5066 61.792 16.0384 60.2984 24.3117L60.2878 24.3223Z" fill="#F78071"/>
<g style="mix-blend-mode:multiply" opacity="0.3">
<path d="M43.6565 11.3255C43.6565 11.3255 39.4934 13.3276 35.2137 12.2789C33.7201 11.9081 32.4065 11.2196 31.3472 10.478C33.1056 8.89965 35.2879 7.84033 37.7561 7.50135C38.1374 7.44838 38.5082 7.4166 38.879 7.40601C41.8345 8.88906 43.6565 11.3255 43.6565 11.3255Z" fill="#FD6769"/>
</g>
<path d="M41.2838 2.42663C44.3982 5.54104 43.6461 11.325 43.6461 11.325C43.6461 11.325 37.8622 12.0665 34.7478 8.96266C32.8092 7.0241 32.3749 4.0474 32.3113 2.08764C32.2795 0.922386 33.2329 -0.0310076 34.3982 0.00077214C36.3685 0.0537384 39.3452 0.498656 41.2732 2.43722L41.2838 2.42663Z" fill="#56CB86"/>
</svg>
