<svg width="64" height="102" viewBox="0 0 64 102" fill="none" xmlns="http://www.w3.org/2000/svg">
<path d="M64 53.5927C64 36.1526 49.6779 22 32.0083 22C14.3388 22 0 36.1526 0 53.5927C0 63.2085 4.36326 71.8217 11.2412 77.6241C11.2412 77.6241 11.2745 77.6406 11.2912 77.657C11.8574 78.1337 12.4403 78.5939 13.0398 79.0377C17.8694 83.3115 18.7853 88.7687 18.7853 88.7687V92.2041H45.2313V88.7687C45.2313 88.7687 46.1473 83.295 50.9768 79.0377C51.5764 78.5939 52.1592 78.1337 52.7255 77.657C52.7255 77.657 52.7588 77.6406 52.7588 77.6241C59.6367 71.8217 64 63.2085 64 53.5927Z" fill="#FFE07F"/>
<path d="M47.1581 92.1968C47.1581 93.1081 46.3136 93.8371 45.245 93.8371H18.7553C17.704 93.8371 16.8423 93.1081 16.8423 92.1968C16.8423 91.3008 17.704 90.5718 18.7553 90.5718H45.245C46.2963 90.5718 47.1581 91.3008 47.1581 92.1968Z" fill="#C3DEFF"/>
<path d="M18.5264 92.2036C19.3368 97.7241 25.0606 102 32.0001 102C38.9395 102 44.6633 97.7241 45.4737 92.2036H18.5264Z" fill="#C3DEFF"/>
<path fill-rule="evenodd" clip-rule="evenodd" d="M51.4274 52.4196L51.4297 52.3985C51.6714 50.2084 51.0545 47.9036 50.2884 46.04C49.5899 44.341 48.8398 43.1749 48.7067 42.9686C44.9723 37.0996 38.6415 35.7347 37.9457 35.5962C36.8717 35.4132 36.0698 34.3038 36.2324 33.0503C36.4037 31.7301 37.4877 31.0295 38.4789 31.1334L38.5089 31.1366L38.5387 31.141C38.9595 31.2042 47.0983 32.6051 52.0254 40.3373C52.2248 40.6306 53.1953 42.1247 54.0687 44.2762C54.9786 46.5177 55.8498 49.635 55.4874 52.9142C55.3584 54.1746 54.3384 55.0205 53.2507 54.9065C52.031 54.7786 51.3274 53.5753 51.4256 52.4407L51.4274 52.4196Z" fill="white"/>
<path opacity="0.7" d="M32 3V13" stroke="white" stroke-width="5" stroke-linecap="round" stroke-linejoin="round"/>
<path opacity="0.7" d="M3 11L10.0711 18.0711" stroke="white" stroke-width="5" stroke-linecap="round" stroke-linejoin="round"/>
<path opacity="0.7" d="M61 11L53.9289 18.0711" stroke="white" stroke-width="5" stroke-linecap="round" stroke-linejoin="round"/>
</svg>
