<svg width="45" height="40" viewBox="0 0 45 40" fill="none" xmlns="http://www.w3.org/2000/svg">
<path fill-rule="evenodd" clip-rule="evenodd" d="M32.0306 5.25446C33.8116 3.93073 37.0454 4.30691 39.1446 7.13123C41.2443 9.95615 40.6712 13.1609 38.8935 14.4822L28.1977 22.4321C26.4199 23.7534 23.1861 23.3782 21.0864 20.5533C20.3451 19.556 18.9357 19.3484 17.9384 20.0897C16.9411 20.831 16.7335 22.2404 17.4748 23.2377C20.6454 27.5035 26.5977 29.2282 30.8821 26.0437L41.5779 18.0938C45.8623 14.9094 45.9269 8.71261 42.7562 4.44681C39.5851 0.180403 33.6328 -1.54326 29.3462 1.64282L22.3985 6.80684C21.4012 7.54812 21.1936 8.95754 21.9349 9.95487C22.6762 10.9522 24.0856 11.1598 25.0829 10.4185L32.0306 5.25446ZM12.9516 33.7635C11.1706 35.0872 7.93684 34.711 5.83762 31.8867C3.73794 29.0618 4.31096 25.8571 6.08873 24.5357L16.7845 16.5859C18.5623 15.2645 21.7961 15.6397 23.8958 18.4646C24.6371 19.4619 26.0465 19.6695 27.0438 18.9282C28.0412 18.1869 28.2487 16.7775 27.5074 15.7802C24.3368 11.5144 18.3845 9.78974 14.1001 12.9742L3.40431 20.9241C-0.880119 24.1085 -0.944653 30.3053 2.22598 34.5711C5.39707 38.8375 11.3494 40.5612 15.636 37.3751L22.5837 32.2111C23.581 31.4698 23.7886 30.0604 23.0473 29.063C22.306 28.0657 20.8966 27.8582 19.8993 28.5994L12.9516 33.7635Z" fill="#C1D8D8"/>
</svg>
