<svg width="491" height="442" viewBox="0 0 491 442" fill="none" xmlns="http://www.w3.org/2000/svg">
<rect x="155" y="60" width="251" height="250" rx="20" fill="#D1EEED"/>
<path d="M395.272 79.8967L390.176 80.418L389.498 56.5973L448.858 44.1204V0L322.916 36.6745V139.595L448.858 141.29V77.748L395.367 83.2235L395.272 79.8967Z" fill="#D5E2EE"/>
<path d="M395.272 79.8965L395.367 83.2234L448.858 77.7478V74.4097L395.272 79.8965Z" fill="#4464EA"/>
<path fill-rule="evenodd" clip-rule="evenodd" d="M463.078 41.1321V45.0298V45.03V72.956L448.859 74.4096V48.0183L448.859 48.0183V74.4098L395.273 79.8966L395.272 79.8966L390.176 80.4179L389.499 56.5972L448.859 44.1204L448.859 44.1204L463.078 41.1321Z" fill="#FB9CCF"/>
<path d="M404.885 148.106L375.433 146.551V90.6018L404.885 87.8438V148.106Z" fill="white"/>
<path d="M462.401 283.411L399.43 280.086V160.461L462.401 160.186V283.411Z" fill="#4464EA"/>
<path d="M322.989 209.326L300.5 208.137V165.413L322.989 165.314V209.326Z" fill="#92CAA3"/>
<path d="M350.073 293.378L327.584 292.191V249.465L350.073 249.366V293.378Z" fill="#5878E8"/>
<path d="M404.885 148.106L375.433 146.551V90.6015L404.885 87.8434V148.106Z" fill="white"/>
<path fill-rule="evenodd" clip-rule="evenodd" d="M318.852 170.807L303.956 170.634L303.959 170.408L318.855 170.582L318.852 170.807Z" fill="#F0CAA3"/>
<path fill-rule="evenodd" clip-rule="evenodd" d="M318.847 176.45L303.951 176.276L303.964 175.148L318.86 175.322L318.847 176.45Z" fill="#F0CAA3"/>
<path fill-rule="evenodd" clip-rule="evenodd" d="M318.852 181.19L303.956 181.016L303.959 180.79L318.855 180.964L318.852 181.19Z" fill="#F0CAA3"/>
<path fill-rule="evenodd" clip-rule="evenodd" d="M318.847 186.832L303.951 186.659L303.964 185.53L318.86 185.704L318.847 186.832Z" fill="#F0CAA3"/>
<path fill-rule="evenodd" clip-rule="evenodd" d="M318.852 191.572L303.956 191.398L303.959 191.173L318.855 191.347L318.852 191.572Z" fill="#F0CAA3"/>
<path fill-rule="evenodd" clip-rule="evenodd" d="M318.852 196.763L303.956 196.589L303.959 196.364L318.855 196.538L318.852 196.763Z" fill="#F0CAA3"/>
<path fill-rule="evenodd" clip-rule="evenodd" d="M318.852 201.955L303.956 201.781L303.959 201.555L318.855 201.729L318.852 201.955Z" fill="#F0CAA3"/>
<path d="M439.774 191.866C440.225 183.056 436.278 175.693 430.957 175.421C425.636 175.149 420.957 182.07 420.506 190.88C420.055 199.69 424.003 207.053 429.324 207.325C434.645 207.598 439.323 200.676 439.774 191.866Z" fill="#FB9CCF"/>
<path d="M421.826 361.362H401.587V377.895H421.826V361.362Z" fill="#F8ECEF"/>
<path d="M404.289 360.637H352.208V378.619H404.289V360.637Z" fill="#8EB9FA"/>
<path d="M422.945 360.637H400.531V362.088H422.945V360.637Z" fill="#8EB9FA"/>
<path d="M422.945 377.17H400.531V378.621H422.945V377.17Z" fill="#8EB9FA"/>
<path d="M392.818 367.849H359.922V371.408H392.818V367.849Z" fill="#E8A8BA"/>
<path d="M354.58 360.637H353.855V378.619H354.58V360.637Z" fill="#E8A8BA"/>
<path d="M355.9 360.637H355.176V378.619H355.9V360.637Z" fill="#E8A8BA"/>
<path d="M398.883 360.637H398.158V378.619H398.883V360.637Z" fill="#E8A8BA"/>
<path d="M400.201 360.637H399.477V378.619H400.201V360.637Z" fill="#E8A8BA"/>
<path d="M421.825 363.962H404.288V364.298H421.825V363.962Z" fill="#E495AA"/>
<path d="M421.825 365.413H404.288V365.749H421.825V365.413Z" fill="#E495AA"/>
<path d="M421.825 366.862H404.288V367.198H421.825V366.862Z" fill="#E495AA"/>
<path d="M421.825 368.313H404.288V368.65H421.825V368.313Z" fill="#E495AA"/>
<path d="M421.825 369.762H404.288V370.099H421.825V369.762Z" fill="#E495AA"/>
<path d="M421.825 371.214H404.288V371.55H421.825V371.214Z" fill="#E495AA"/>
<path d="M421.825 372.665H404.288V373.001H421.825V372.665Z" fill="#E495AA"/>
<path d="M421.825 374.114H404.288V374.45H421.825V374.114Z" fill="#E495AA"/>
<path d="M421.825 375.565H404.288V375.902H421.825V375.565Z" fill="#E495AA"/>
<path d="M429.538 352.126H409.299V360.391H429.538V352.126Z" fill="#F8ECEF"/>
<path d="M412.003 351.763H359.922V360.755H412.003V351.763Z" fill="#E8A8BA"/>
<path d="M430.66 351.763H408.246V352.487H430.66V351.763Z" fill="#E8A8BA"/>
<path d="M430.66 360.028H408.246V360.752H430.66V360.028Z" fill="#E8A8BA"/>
<path d="M429.541 353.34H412.003V353.677H429.541V353.34Z" fill="#E495AA"/>
<path d="M429.541 354.067H412.003V354.403H429.541V354.067Z" fill="#E495AA"/>
<path d="M429.541 354.792H412.003V355.128H429.541V354.792Z" fill="#E495AA"/>
<path d="M429.541 355.516H412.003V355.852H429.541V355.516Z" fill="#E495AA"/>
<path d="M429.541 356.243H412.003V356.579H429.541V356.243Z" fill="#E495AA"/>
<path d="M429.541 356.967H412.003V357.304H429.541V356.967Z" fill="#E495AA"/>
<path d="M429.541 357.692H412.003V358.028H429.541V357.692Z" fill="#E495AA"/>
<path d="M429.541 358.416H412.003V358.752H429.541V358.416Z" fill="#E495AA"/>
<path d="M429.541 359.143H412.003V359.479H429.541V359.143Z" fill="#E495AA"/>
<path d="M422.352 336.934H402.113V351.14H422.352V336.934Z" fill="#F8ECEF"/>
<path d="M404.817 336.311H352.736V351.763H404.817V336.311Z" fill="#EFCBD5"/>
<path d="M423.473 336.311H401.058V337.557H423.473V336.311Z" fill="#EFCBD5"/>
<path d="M423.473 350.517H401.058V351.763H423.473V350.517Z" fill="#EFCBD5"/>
<path d="M422.354 339.144H404.816V339.48H422.354V339.144Z" fill="#E495AA"/>
<path d="M422.354 340.39H404.816V340.726H422.354V340.39Z" fill="#E495AA"/>
<path d="M422.354 341.638H404.816V341.974H422.354V341.638Z" fill="#E495AA"/>
<path d="M422.354 342.883H404.816V343.22H422.354V342.883Z" fill="#E495AA"/>
<path d="M422.354 344.13H404.816V344.466H422.354V344.13Z" fill="#E495AA"/>
<path d="M422.354 345.375H404.816V345.712H422.354V345.375Z" fill="#E495AA"/>
<path d="M422.354 346.621H404.816V346.958H422.354V346.621Z" fill="#E495AA"/>
<path d="M422.354 347.867H404.816V348.203H422.354V347.867Z" fill="#E495AA"/>
<path d="M422.354 349.115H404.816V349.452H422.354V349.115Z" fill="#E495AA"/>
<path d="M399.678 342.031H355.9V345.475H399.678V342.031Z" fill="#F8ECEF"/>
<path fill-rule="evenodd" clip-rule="evenodd" d="M490.613 379.082H0.38623V378.405H490.613V379.082Z" fill="#CF98A8"/>
<path d="M287.136 303.584H214.777C210.568 303.584 206.783 306.148 205.221 310.057L181.665 369.038H271.456V369.137L293.742 313.337C295.609 308.665 292.167 303.584 287.136 303.584Z" fill="url(#paint0_radial_4119_882)"/>
<path d="M249.609 345.103C253.261 339.799 253.064 333.325 249.169 330.643C245.273 327.961 239.155 330.086 235.503 335.39C231.851 340.694 232.048 347.167 235.944 349.85C239.839 352.532 245.957 350.406 249.609 345.103Z" fill="#FB9CCF"/>
<path d="M108.186 255L86.1821 263.85C74.432 268.576 65.1217 277.9 60.4136 289.659L33.4195 357.07C23.7729 382.296 36.5703 376.654 46.6728 376.654H60.3346L80.8736 325.194L75.6824 376.654H163.255L155.821 296.992L147.456 255.226L108.184 255H108.186Z" fill="#FFD6CE"/>
<path d="M194.448 162.072C195.915 161.736 197.396 162.609 197.906 164.026L203.214 180.261C203.237 180.324 203.255 180.39 203.273 180.455C203.799 181.047 204.343 181.606 204.889 182.132C204.562 180.64 205.44 179.088 206.97 178.657C208.478 178.232 210.049 179.112 210.577 180.586L210.9 181.485C210.997 180.446 211.676 179.501 212.719 179.124L213.055 179.002C214.491 178.485 216.086 179.239 216.603 180.672L218.011 184.588L218.406 184.448L218.282 183.744C218.086 182.638 218.831 181.573 219.937 181.379L220.196 181.333C221.302 181.137 222.368 181.882 222.562 182.988C228.396 190.565 229.158 195.157 229.158 202.157C229.158 206.965 228.686 210.121 228.39 211.627C228.257 212.306 228.243 213.011 228.407 213.683L243.834 277.28C245.403 285.753 237.672 293.002 229.317 290.894L214.285 286.586L205.722 216.679C205.68 216.337 205.55 216.011 205.345 215.734L200.313 208.918C198.733 206.778 197.712 204.277 197.341 201.643L192.843 169.657L192.158 165.657C191.569 164.018 192.697 162.469 194.448 162.067V162.072Z" fill="#FFD6CE"/>
<path d="M210.736 181.318L214.138 190.78C214.686 192.308 213.887 194.007 212.359 194.556C210.831 195.104 209.131 194.305 208.583 192.777L204.83 182.336" fill="#FFD6CE"/>
<path fill-rule="evenodd" clip-rule="evenodd" d="M213.926 190.856L210.524 181.395L210.949 181.242L214.35 190.704C214.941 192.349 214.081 194.178 212.436 194.768C210.791 195.359 208.962 194.499 208.371 192.854C208.371 192.854 208.371 192.854 208.371 192.854L204.618 182.413L205.042 182.26L208.796 192.701C209.302 194.111 210.872 194.85 212.283 194.343C213.694 193.837 214.432 192.267 213.926 190.856Z" fill="#E8AB9F"/>
<path fill-rule="evenodd" clip-rule="evenodd" d="M217.541 184.236L217.966 184.083L219.844 189.304C220.403 190.857 219.588 192.582 218.038 193.141C218.038 193.141 218.038 193.141 218.038 193.141L217.701 193.263C216.955 193.531 216.204 193.611 215.558 193.416C214.901 193.218 214.379 192.743 214.099 191.962L214.524 191.81C214.759 192.464 215.176 192.83 215.688 192.984C216.211 193.142 216.859 193.086 217.548 192.838C217.548 192.838 217.548 192.838 217.548 192.838L217.885 192.716C219.201 192.241 219.894 190.775 219.419 189.457L217.541 184.236Z" fill="#E8AB9F"/>
<path fill-rule="evenodd" clip-rule="evenodd" d="M222.824 183.857L223.229 183.722L225.018 188.34C225.551 189.714 224.775 191.239 223.297 191.734C223.297 191.734 223.298 191.734 223.297 191.734L222.977 191.842C222.266 192.079 221.55 192.15 220.934 191.978C220.308 191.802 219.811 191.382 219.544 190.691L219.949 190.556C220.172 191.135 220.57 191.459 221.058 191.595C221.557 191.735 222.174 191.686 222.831 191.466C222.831 191.466 222.831 191.466 222.831 191.466L223.151 191.358C224.406 190.938 225.066 189.641 224.614 188.475L222.824 183.857Z" fill="#E8AB9F"/>
<path d="M212.355 186.622C212.746 188.198 211.775 189.807 210.2 190.198L202.754 192.042C201.178 192.432 199.569 191.462 199.179 189.886C198.788 188.311 199.759 186.701 201.334 186.311L208.78 184.467C210.355 184.077 211.965 185.047 212.355 186.622Z" fill="#FFD6CE"/>
<path d="M206.421 202.149C206.421 202.149 209.491 195.077 206.701 191.062L210.199 190.195C210.199 190.195 213.443 189.153 212.093 185.945C212.093 185.945 211.125 183.131 206.649 184.991L203.385 185.799" fill="#FFD6CE"/>
<path fill-rule="evenodd" clip-rule="evenodd" d="M212.303 185.863C212.303 185.862 212.302 185.86 212.301 185.858C212.299 185.851 212.295 185.841 212.29 185.829C212.28 185.805 212.266 185.771 212.246 185.73C212.207 185.648 212.146 185.535 212.058 185.407C211.883 185.151 211.599 184.832 211.164 184.576C210.285 184.06 208.851 183.835 206.578 184.776L203.331 185.579L203.44 186.018L206.72 185.206L206.736 185.199C208.93 184.287 210.212 184.54 210.935 184.965C211.301 185.18 211.539 185.449 211.685 185.662C211.758 185.769 211.808 185.861 211.839 185.926C211.855 185.958 211.865 185.983 211.872 185.999C211.875 186.007 211.877 186.013 211.879 186.016L211.88 186.019L211.88 186.019C211.88 186.019 211.88 186.02 211.88 186.02L211.882 186.026L211.885 186.033C212.208 186.8 212.249 187.419 212.145 187.916C212.042 188.414 211.788 188.809 211.49 189.116C211.191 189.424 210.85 189.641 210.58 189.782C210.446 189.852 210.332 189.902 210.251 189.935C210.211 189.951 210.18 189.963 210.159 189.97C210.149 189.974 210.141 189.977 210.136 189.978L206.329 190.922L206.516 191.191C207.856 193.12 207.802 195.812 207.385 198.07C207.178 199.192 206.885 200.19 206.643 200.909C206.522 201.268 206.415 201.556 206.337 201.755C206.299 201.854 206.267 201.93 206.246 201.982C206.236 202.008 206.227 202.027 206.222 202.04L206.216 202.054L206.214 202.058L206.214 202.059C206.214 202.059 206.214 202.059 206.421 202.149C206.628 202.238 206.628 202.238 206.628 202.238L206.628 202.238L206.629 202.237L206.631 202.232L206.638 202.216C206.644 202.202 206.652 202.181 206.663 202.154C206.686 202.1 206.718 202.021 206.758 201.919C206.837 201.715 206.948 201.419 207.071 201.053C207.318 200.32 207.617 199.3 207.829 198.152C208.232 195.967 208.328 193.262 207.064 191.205L210.261 190.412L210.268 190.41L210.199 190.195C210.268 190.41 210.268 190.41 210.269 190.41L210.269 190.41L210.27 190.41L210.272 190.409L210.281 190.406C210.288 190.403 210.299 190.4 210.312 190.395C210.338 190.386 210.375 190.372 210.421 190.353C210.512 190.316 210.641 190.26 210.789 190.182C211.086 190.027 211.471 189.783 211.814 189.43C212.158 189.076 212.463 188.608 212.587 188.008C212.712 187.409 212.653 186.698 212.303 185.863Z" fill="#E8AB9F"/>
<path d="M147.093 255.058L236.697 259.572L239.966 265.005C245.762 274.638 239.582 291.527 228.346 291.171L150.253 286.657L140.548 255.284" fill="#FFD6CE"/>
<path d="M80.3976 325.126C80.3976 325.126 100.372 298.271 94.5041 260.189L107.821 254.833H135.808L154.428 288.562C158.008 295.455 160.33 305.803 160.61 313.565L166.278 376.487H75.3193L80.3976 325.126Z" fill="#F95F6F"/>
<path fill-rule="evenodd" clip-rule="evenodd" d="M212.103 268.658L209.377 258.264L209.814 258.149L212.54 268.543L212.103 268.658Z" fill="#E8AB9F"/>
<path d="M181.664 369.038H137.162V381H263.662C267.966 381 271.455 377.511 271.455 373.207V369.038H181.664Z" fill="#786CD8"/>
<path d="M65.7615 354.86C97 352 120 358 120 358C122.096 358.624 123.526 358.97 125.5 360.024C126.159 360.375 131 360 133 360C134 360 134.5 360 137.5 360.5L147.854 362.549C149.856 362.919 151.19 364.858 150.822 366.86C150.452 368.862 148.513 370.196 146.511 369.828L146.006 369.736C148.987 372.749 151.222 375.466 152.407 376.981L154.452 379.035C155.964 380.398 156.083 382.75 154.72 384.262C154.014 385.045 153.043 385.451 152.059 385.474L152.863 386.106C154.463 387.363 154.743 389.701 153.486 391.302C152.228 392.902 149.89 393.182 148.29 391.924L147.927 391.64C149.13 392.949 149.247 394.987 148.114 396.427C146.857 398.028 144.518 398.307 142.918 397.05L141.313 395.789C141.535 396.827 141.313 397.953 140.609 398.849C139.352 400.449 137.014 400.729 135.414 399.472L126.765 392.676L111.94 383.14C110.918 382.619 108.5 379 109 376C102.5 376 96 376.981 71.0003 383.14C57.4839 386.47 41.2459 382.443 34.5 378.5C28.7689 375.15 31.4999 370.5 31.4999 370.5C30.798 351.638 65.7593 354.857 65.7593 354.857L65.7615 354.86Z" fill="#FFD6CE"/>
<path fill-rule="evenodd" clip-rule="evenodd" d="M112.384 383.303C112.384 383.303 112.384 383.303 112.222 383.461C112.061 383.619 112.061 383.619 112.06 383.618L112.06 383.618L112.06 383.618L112.059 383.617L112.055 383.612C112.051 383.609 112.046 383.603 112.039 383.596C112.025 383.582 112.005 383.561 111.98 383.533C111.928 383.478 111.854 383.397 111.761 383.291C111.575 383.081 111.314 382.774 111.014 382.385C110.412 381.609 109.648 380.507 109 379.201L109.404 379C110.036 380.272 110.782 381.349 111.37 382.109C111.665 382.489 111.919 382.788 112.099 382.993C112.19 383.095 112.261 383.173 112.31 383.225C112.334 383.252 112.353 383.271 112.366 383.284C112.372 383.291 112.376 383.296 112.379 383.299L112.383 383.302L112.383 383.303L112.384 383.303L112.384 383.303Z" fill="#E8AB9F"/>
<path fill-rule="evenodd" clip-rule="evenodd" d="M140.214 374.136L152.214 385.309L151.907 385.639L139.906 374.467L140.214 374.136Z" fill="#E8AB9F"/>
<path fill-rule="evenodd" clip-rule="evenodd" d="M136.224 380.311L148.224 391.484L147.917 391.814L135.916 380.642L136.224 380.311Z" fill="#E8AB9F"/>
<path fill-rule="evenodd" clip-rule="evenodd" d="M129.52 384.634L141.521 395.804L141.213 396.134L129.212 384.964L129.52 384.634Z" fill="#E8AB9F"/>
<path fill-rule="evenodd" clip-rule="evenodd" d="M51.5908 355.569L68.4531 354.343L68.4858 354.793L51.6235 356.019L51.5908 355.569Z" fill="#E8AB9F"/>
<path fill-rule="evenodd" clip-rule="evenodd" d="M146.069 369.169C146.073 369.147 146.066 369.135 146.046 369.131C146.055 369.142 146.046 369.167 146.069 369.169Z" fill="#EBB096"/>
<path fill-rule="evenodd" clip-rule="evenodd" d="M146.008 369.167C145.994 369.158 146.008 369.131 145.985 369.128C145.99 369.144 145.981 369.169 146.008 369.167Z" fill="#EBB096"/>
<path fill-rule="evenodd" clip-rule="evenodd" d="M146.006 369.022C146.006 369.002 145.992 369.013 145.974 368.997C145.97 369.011 145.976 369.016 145.979 369.025C145.99 369.027 145.995 369.018 146.006 369.022Z" fill="#EBB096"/>
<path fill-rule="evenodd" clip-rule="evenodd" d="M146.035 368.404V368.377C146.017 368.381 146.019 368.366 146.001 368.366C145.999 368.391 146.01 368.404 146.035 368.404Z" fill="#EBB096"/>
<path fill-rule="evenodd" clip-rule="evenodd" d="M145.96 369.097C145.976 369.095 145.969 369.058 145.951 369.061C145.937 369.072 145.953 369.074 145.946 369.095C145.953 369.092 145.96 369.088 145.96 369.095V369.097Z" fill="#EBB096"/>
<path fill-rule="evenodd" clip-rule="evenodd" d="M145.996 368.343C145.983 368.329 145.996 368.318 145.996 368.3C145.978 368.305 145.969 368.318 145.967 368.339H145.994L145.996 368.343Z" fill="#EBB096"/>
<path fill-rule="evenodd" clip-rule="evenodd" d="M145.877 368.79C145.895 368.783 145.877 368.751 145.852 368.758C145.843 368.783 145.881 368.767 145.877 368.79Z" fill="#EBB096"/>
<path fill-rule="evenodd" clip-rule="evenodd" d="M145.897 368.171C145.897 368.171 145.877 368.158 145.89 368.155C145.89 368.14 145.865 368.149 145.856 368.144C145.865 368.126 145.856 368.108 145.85 368.088C145.82 368.115 145.8 368.088 145.773 368.074C145.782 368.086 145.798 368.095 145.793 368.117C145.814 368.099 145.811 368.113 145.836 368.119C145.832 368.124 145.829 368.131 145.829 368.14C145.847 368.142 145.856 368.151 145.856 368.169C145.875 368.171 145.89 368.174 145.899 368.167L145.897 368.171Z" fill="#EBB096"/>
<path fill-rule="evenodd" clip-rule="evenodd" d="M145.847 368.731V368.704C145.847 368.704 145.829 368.713 145.829 368.702C145.813 368.704 145.827 368.738 145.847 368.731Z" fill="#EBB096"/>
<path fill-rule="evenodd" clip-rule="evenodd" d="M145.706 368.77C145.701 368.754 145.687 368.747 145.667 368.745C145.674 368.758 145.687 368.785 145.706 368.77Z" fill="#EBB096"/>
<path fill-rule="evenodd" clip-rule="evenodd" d="M145.681 367.783C145.681 367.763 145.66 367.747 145.645 367.761C145.656 367.77 145.663 367.781 145.681 367.783Z" fill="#EBB096"/>
<path fill-rule="evenodd" clip-rule="evenodd" d="M145.617 368.652C145.608 368.639 145.617 368.609 145.585 368.616C145.592 368.632 145.597 368.65 145.617 368.652Z" fill="#EBB096"/>
<path fill-rule="evenodd" clip-rule="evenodd" d="M145.5 368.059C145.491 368.036 145.477 368.054 145.45 368.043C145.455 368.05 145.457 368.054 145.457 368.063C145.484 368.047 145.484 368.084 145.5 368.059Z" fill="#EBB096"/>
<path fill-rule="evenodd" clip-rule="evenodd" d="M145.459 368.573C145.444 368.58 145.466 368.605 145.457 368.627C145.482 368.625 145.464 368.589 145.459 368.573Z" fill="#EBB096"/>
<path fill-rule="evenodd" clip-rule="evenodd" d="M145.369 368.424C145.355 368.413 145.351 368.395 145.328 368.395C145.335 368.415 145.351 368.429 145.353 368.451C145.371 368.458 145.349 368.42 145.367 368.424H145.369Z" fill="#EBB096"/>
<path fill-rule="evenodd" clip-rule="evenodd" d="M145.36 367.646C145.385 367.63 145.342 367.621 145.337 367.609C145.317 367.623 145.356 367.634 145.36 367.646Z" fill="#EBB096"/>
<path fill-rule="evenodd" clip-rule="evenodd" d="M145.265 367.691C145.261 367.711 145.29 367.7 145.281 367.725C145.297 367.722 145.306 367.713 145.308 367.697C145.281 367.704 145.283 367.672 145.265 367.691Z" fill="#EBB096"/>
<path fill-rule="evenodd" clip-rule="evenodd" d="M145.247 367.289C145.24 367.269 145.233 367.248 145.208 367.246C145.22 367.262 145.227 367.28 145.247 367.289Z" fill="#EBB096"/>
<path fill-rule="evenodd" clip-rule="evenodd" d="M145.247 368.698C145.254 368.679 145.238 368.679 145.242 368.664C145.222 368.659 145.22 368.677 145.22 368.698H145.247Z" fill="#EBB096"/>
<path fill-rule="evenodd" clip-rule="evenodd" d="M145.249 368.521C145.256 368.499 145.242 368.492 145.238 368.48C145.224 368.487 145.227 368.53 145.249 368.521Z" fill="#EBB096"/>
<path fill-rule="evenodd" clip-rule="evenodd" d="M145.191 368.614C145.191 368.614 145.189 368.607 145.184 368.607C145.175 368.562 145.132 368.551 145.121 368.51C145.094 368.505 145.092 368.526 145.074 368.528C145.078 368.553 145.099 368.528 145.108 368.542C145.11 368.564 145.094 368.562 145.108 368.575C145.128 368.557 145.141 368.582 145.162 368.584C145.155 368.605 145.169 368.609 145.166 368.625C145.187 368.634 145.173 368.603 145.193 368.612L145.191 368.614Z" fill="#EBB096"/>
<path fill-rule="evenodd" clip-rule="evenodd" d="M145.118 367.497C145.123 367.508 145.093 367.497 145.091 367.49C145.066 367.501 145.107 367.501 145.1 367.517C145.123 367.524 145.121 367.506 145.134 367.504C145.132 367.488 145.125 367.474 145.118 367.463C145.098 367.463 145.109 367.488 145.118 367.497Z" fill="#EBB096"/>
<path fill-rule="evenodd" clip-rule="evenodd" d="M145.087 369.144C145.087 369.126 145.092 369.099 145.064 369.103C145.071 369.119 145.069 369.14 145.087 369.144Z" fill="#EBB096"/>
<path fill-rule="evenodd" clip-rule="evenodd" d="M145.065 369.17C145.084 369.163 145.063 369.14 145.047 369.142C145.033 369.167 145.063 369.156 145.065 369.17Z" fill="#EBB096"/>
<path fill-rule="evenodd" clip-rule="evenodd" d="M145.051 369.094C145.035 369.094 145.031 369.104 145.017 369.106C145.017 369.115 145.028 369.117 145.028 369.126C145.042 369.122 145.049 369.108 145.051 369.094Z" fill="#EBB096"/>
<path fill-rule="evenodd" clip-rule="evenodd" d="M145.067 367.461C145.089 367.44 145.044 367.427 145.044 367.404C145.012 367.418 145.053 367.449 145.067 367.461Z" fill="#EBB096"/>
<path fill-rule="evenodd" clip-rule="evenodd" d="M144.924 369.424C144.92 369.41 144.897 369.404 144.861 369.404C144.881 369.41 144.89 369.428 144.924 369.424Z" fill="#EBB096"/>
<path fill-rule="evenodd" clip-rule="evenodd" d="M144.947 367.309C144.936 367.32 144.94 367.352 144.963 367.35C144.972 367.339 144.972 367.302 144.947 367.309Z" fill="#EBB096"/>
<path fill-rule="evenodd" clip-rule="evenodd" d="M144.967 368.794C144.97 368.769 144.924 368.742 144.922 368.781C144.951 368.774 144.951 368.792 144.967 368.794Z" fill="#EBB096"/>
<path fill-rule="evenodd" clip-rule="evenodd" d="M144.963 368.343C144.979 368.323 144.949 368.291 144.915 368.296C144.918 368.307 144.911 368.309 144.902 368.309C144.902 368.341 144.958 368.318 144.963 368.343Z" fill="#EBB096"/>
<path fill-rule="evenodd" clip-rule="evenodd" d="M144.884 369.142C144.891 369.113 144.877 369.101 144.854 369.094C144.87 369.104 144.859 369.14 144.884 369.142Z" fill="#EBB096"/>
<path fill-rule="evenodd" clip-rule="evenodd" d="M144.888 367.235C144.888 367.235 144.879 367.223 144.888 367.221C144.85 367.217 144.847 367.171 144.809 367.167C144.845 367.196 144.825 367.253 144.89 367.235H144.888Z" fill="#EBB096"/>
<path fill-rule="evenodd" clip-rule="evenodd" d="M144.841 368.632C144.848 368.609 144.821 368.62 144.807 368.618C144.812 368.623 144.814 368.629 144.814 368.639C144.821 368.634 144.83 368.632 144.841 368.632Z" fill="#EBB096"/>
<path fill-rule="evenodd" clip-rule="evenodd" d="M144.798 367.161C144.818 367.156 144.791 367.147 144.798 367.133C144.784 367.161 144.784 367.124 144.755 367.129C144.746 367.156 144.787 367.129 144.777 367.156C144.787 367.156 144.798 367.156 144.798 367.163V367.161Z" fill="#EBB096"/>
<path fill-rule="evenodd" clip-rule="evenodd" d="M144.76 367.113C144.742 367.086 144.76 367.054 144.728 367.052C144.742 367.084 144.701 367.07 144.71 367.102C144.733 367.077 144.737 367.117 144.76 367.113Z" fill="#EBB096"/>
<path fill-rule="evenodd" clip-rule="evenodd" d="M144.683 368.765C144.672 368.747 144.64 368.733 144.638 368.765C144.66 368.765 144.663 368.774 144.683 368.765Z" fill="#EBB096"/>
<path fill-rule="evenodd" clip-rule="evenodd" d="M144.633 367C144.633 366.971 144.606 366.971 144.595 366.953C144.595 366.937 144.611 366.937 144.629 366.937C144.611 366.905 144.581 366.941 144.55 366.905C144.543 366.928 144.55 366.921 144.554 366.946C144.584 366.946 144.554 366.937 144.559 366.919C144.588 366.941 144.595 366.987 144.636 366.998L144.633 367Z" fill="#EBB096"/>
<path fill-rule="evenodd" clip-rule="evenodd" d="M144.561 367.826C144.554 367.801 144.523 367.801 144.504 367.808C144.518 367.824 144.536 367.84 144.561 367.826Z" fill="#EBB096"/>
<path fill-rule="evenodd" clip-rule="evenodd" d="M144.553 368.287C144.541 368.273 144.553 368.278 144.553 368.26C144.539 368.262 144.534 368.273 144.525 368.28C144.525 368.289 144.541 368.285 144.553 368.287Z" fill="#EBB096"/>
<path fill-rule="evenodd" clip-rule="evenodd" d="M144.274 367.946C144.263 367.928 144.249 367.912 144.22 367.914C144.24 367.921 144.254 367.962 144.274 367.946Z" fill="#EBB096"/>
<path fill-rule="evenodd" clip-rule="evenodd" d="M144.107 368.557C144.107 368.542 144.096 368.537 144.094 368.526C144.076 368.521 144.098 368.557 144.08 368.553C144.08 368.562 144.096 368.557 144.107 368.557Z" fill="#EBB096"/>
<path fill-rule="evenodd" clip-rule="evenodd" d="M144.099 368.907C144.094 368.887 144.074 368.882 144.046 368.885C144.062 368.894 144.08 368.921 144.099 368.907Z" fill="#EBB096"/>
<path fill-rule="evenodd" clip-rule="evenodd" d="M143.999 367.508V367.481C143.999 367.481 143.985 367.49 143.983 367.481C143.967 367.485 143.983 367.515 143.999 367.508Z" fill="#EBB096"/>
<path fill-rule="evenodd" clip-rule="evenodd" d="M143.956 368.56C143.951 368.535 143.924 368.535 143.929 368.501C143.915 368.503 143.915 368.519 143.908 368.528C143.893 368.528 143.89 368.501 143.875 368.517C143.877 368.53 143.899 368.521 143.895 368.542C143.924 368.521 143.924 368.56 143.954 368.557L143.956 368.56Z" fill="#EBB096"/>
<path fill-rule="evenodd" clip-rule="evenodd" d="M143.859 367.533C143.859 367.533 143.855 367.515 143.843 367.512C143.823 367.512 143.821 367.537 143.832 367.546C143.855 367.553 143.837 367.524 143.857 367.53L143.859 367.533Z" fill="#EBB096"/>
<path fill-rule="evenodd" clip-rule="evenodd" d="M143.748 368.395C143.764 368.377 143.723 368.331 143.701 368.352C143.719 368.363 143.744 368.368 143.748 368.395Z" fill="#EBB096"/>
<path fill-rule="evenodd" clip-rule="evenodd" d="M143.667 368.546C143.667 368.526 143.651 368.519 143.626 368.524C143.64 368.53 143.647 368.546 143.667 368.546Z" fill="#EBB096"/>
<path fill-rule="evenodd" clip-rule="evenodd" d="M143.629 368.183C143.62 368.169 143.617 368.149 143.595 368.151C143.602 368.167 143.611 368.181 143.629 368.183Z" fill="#EBB096"/>
<path fill-rule="evenodd" clip-rule="evenodd" d="M143.528 368.046C143.526 368.032 143.51 368.034 143.507 368.02C143.498 368.023 143.503 368.039 143.503 368.048H143.53L143.528 368.046Z" fill="#EBB096"/>
<path fill-rule="evenodd" clip-rule="evenodd" d="M143.467 368.009C143.467 367.989 143.448 367.993 143.444 367.977C143.433 367.982 143.444 368.02 143.467 368.009Z" fill="#EBB096"/>
<path fill-rule="evenodd" clip-rule="evenodd" d="M143.363 367.059C143.363 367.059 143.356 367.061 143.356 367.066C143.347 367.066 143.349 367.054 143.347 367.045C143.335 367.043 143.319 367.068 143.313 367.047C143.288 367.05 143.328 367.068 143.308 367.068C143.322 367.075 143.367 367.091 143.363 367.056V367.059Z" fill="#EBB096"/>
<path fill-rule="evenodd" clip-rule="evenodd" d="M143.299 367.05C143.299 367.039 143.293 367.038 143.283 367.038C143.283 367.029 143.281 367.02 143.288 367.018C143.286 367.009 143.27 367.014 143.261 367.014V367.048C143.283 367.041 143.283 367.054 143.299 367.052V367.05Z" fill="#EBB096"/>
<path fill-rule="evenodd" clip-rule="evenodd" d="M143.273 366.91C143.266 366.896 143.252 366.894 143.236 366.892C143.236 366.912 143.252 366.912 143.273 366.91Z" fill="#EBB096"/>
<path fill-rule="evenodd" clip-rule="evenodd" d="M143.311 367.795C143.299 367.776 143.279 367.804 143.279 367.817C143.297 367.833 143.299 367.801 143.311 367.795Z" fill="#EBB096"/>
<path fill-rule="evenodd" clip-rule="evenodd" d="M143.301 367.862C143.288 367.84 143.27 367.808 143.238 367.828C143.263 367.835 143.261 367.873 143.301 367.862Z" fill="#EBB096"/>
<path fill-rule="evenodd" clip-rule="evenodd" d="M143.284 367.776C143.268 367.77 143.263 367.754 143.241 367.754C143.25 367.767 143.266 367.774 143.27 367.792C143.277 367.79 143.275 367.779 143.282 367.779L143.284 367.776Z" fill="#EBB096"/>
<path fill-rule="evenodd" clip-rule="evenodd" d="M143.275 367.664C143.236 367.643 143.239 367.625 143.229 367.682C143.254 367.682 143.261 367.671 143.275 367.664Z" fill="#EBB096"/>
<path fill-rule="evenodd" clip-rule="evenodd" d="M143.155 366.826C143.151 366.806 143.139 366.795 143.117 366.797C143.126 366.81 143.13 366.831 143.155 366.826Z" fill="#EBB096"/>
<path fill-rule="evenodd" clip-rule="evenodd" d="M142.997 366.643C142.945 366.637 142.927 366.594 142.884 366.607C142.914 366.628 142.941 366.648 142.979 366.659C142.979 366.668 142.968 366.666 142.959 366.668C142.975 366.702 142.999 366.673 142.997 366.643Z" fill="#EBB096"/>
<path fill-rule="evenodd" clip-rule="evenodd" d="M143.024 367.519C143.013 367.492 142.994 367.542 142.99 367.524C142.97 367.546 143.024 367.533 143.024 367.519Z" fill="#EBB096"/>
<path fill-rule="evenodd" clip-rule="evenodd" d="M142.997 367.515C142.99 367.501 142.979 367.492 142.954 367.499C142.961 367.513 142.977 367.517 142.997 367.515Z" fill="#EBB096"/>
<path fill-rule="evenodd" clip-rule="evenodd" d="M142.803 366.533V366.506C142.787 366.506 142.787 366.515 142.773 366.515C142.785 366.519 142.785 366.535 142.803 366.533Z" fill="#EBB096"/>
<path fill-rule="evenodd" clip-rule="evenodd" d="M142.826 367.219C142.812 367.223 142.814 367.239 142.794 367.237C142.808 367.255 142.853 367.244 142.826 367.219Z" fill="#EBB096"/>
<path fill-rule="evenodd" clip-rule="evenodd" d="M142.04 367.135C142.04 367.099 142.004 367.113 141.99 367.126C142.002 367.135 142.022 367.135 142.04 367.135Z" fill="#EBB096"/>
<path fill-rule="evenodd" clip-rule="evenodd" d="M141.669 366.817C141.665 366.79 141.64 366.824 141.633 366.795C141.638 366.774 141.656 366.795 141.667 366.792C141.658 366.772 141.638 366.772 141.617 366.783C141.626 366.792 141.626 366.799 141.62 366.81C141.588 366.817 141.595 366.774 141.561 366.781C141.57 366.788 141.581 366.792 141.579 366.813C141.615 366.813 141.629 366.835 141.631 366.856C141.642 366.842 141.636 366.815 141.667 366.817H141.669Z" fill="#EBB096"/>
<path fill-rule="evenodd" clip-rule="evenodd" d="M141.523 366.709V366.682C141.496 366.682 141.5 366.675 141.48 366.686C141.482 366.711 141.53 366.695 141.496 366.711C141.498 366.727 141.519 366.711 141.523 366.709Z" fill="#EBB096"/>
<path fill-rule="evenodd" clip-rule="evenodd" d="M141.48 366.645C141.48 366.645 141.451 366.655 141.433 366.657V366.677C141.433 366.677 141.446 366.677 141.449 366.682C141.46 366.668 141.453 366.668 141.476 366.673C141.476 366.661 141.483 366.657 141.48 366.645Z" fill="#EBB096"/>
<path fill-rule="evenodd" clip-rule="evenodd" d="M141.433 366.582C141.408 366.587 141.406 366.564 141.383 366.567C141.392 366.589 141.424 366.585 141.424 366.617C141.444 366.605 141.424 366.603 141.433 366.58V366.582Z" fill="#EBB096"/>
<path fill-rule="evenodd" clip-rule="evenodd" d="M141.343 366.572C141.361 366.572 141.373 366.567 141.368 366.549C141.361 366.546 141.357 366.542 141.347 366.544C141.343 366.551 141.343 366.56 141.343 366.572Z" fill="#EBB096"/>
<path fill-rule="evenodd" clip-rule="evenodd" d="M141.341 366.551C141.341 366.54 141.348 366.535 141.345 366.524C141.334 366.524 141.329 366.538 141.325 366.524C141.315 366.526 141.32 366.542 141.32 366.551H141.341Z" fill="#EBB096"/>
<path fill-rule="evenodd" clip-rule="evenodd" d="M141.295 366.563C141.295 366.563 141.295 366.51 141.27 366.517C141.277 366.535 141.279 366.556 141.295 366.563Z" fill="#EBB096"/>
<path fill-rule="evenodd" clip-rule="evenodd" d="M141.108 366.348C141.087 366.355 141.083 366.343 141.067 366.346C141.065 366.366 141.087 366.357 141.085 366.377C141.101 366.373 141.117 366.37 141.11 366.348H141.108Z" fill="#EBB096"/>
<path fill-rule="evenodd" clip-rule="evenodd" d="M140.984 366.264C140.981 366.246 140.97 366.239 140.954 366.239V366.267L140.984 366.264Z" fill="#EBB096"/>
<path fill-rule="evenodd" clip-rule="evenodd" d="M140.914 366.204C140.903 366.188 140.887 366.174 140.875 366.16C140.857 366.16 140.884 366.197 140.866 366.197C140.873 366.208 140.88 366.197 140.887 366.197C140.898 366.197 140.896 366.217 140.916 366.208L140.914 366.204Z" fill="#EBB096"/>
<path fill-rule="evenodd" clip-rule="evenodd" d="M140.833 366.206C140.83 366.192 140.808 366.201 140.803 366.187C140.794 366.203 140.803 366.212 140.814 366.228C140.828 366.228 140.817 366.206 140.833 366.206Z" fill="#EBB096"/>
<path fill-rule="evenodd" clip-rule="evenodd" d="M140.791 366.079C140.751 366.081 140.746 366.043 140.724 366.025C140.69 366.036 140.73 366.072 140.724 366.099C140.744 366.081 140.739 366.075 140.771 366.088C140.773 366.118 140.762 366.127 140.785 366.142C140.805 366.124 140.8 366.113 140.791 366.079Z" fill="#EBB096"/>
<path fill-rule="evenodd" clip-rule="evenodd" d="M140.749 366.125C140.738 366.106 140.713 366.102 140.703 366.081C140.697 366.093 140.717 366.136 140.749 366.125Z" fill="#EBB096"/>
<path fill-rule="evenodd" clip-rule="evenodd" d="M140.657 366.079C140.657 366.068 140.648 366.066 140.648 366.052C140.627 366.054 140.638 366.081 140.616 366.081C140.62 366.091 140.632 366.093 140.645 366.093C140.638 366.068 140.632 366.077 140.657 366.077V366.079Z" fill="#EBB096"/>
<path fill-rule="evenodd" clip-rule="evenodd" d="M140.544 365.996C140.544 365.982 140.537 365.978 140.535 365.969C140.53 365.98 140.514 365.98 140.516 365.998C140.528 365.985 140.525 365.998 140.544 365.996Z" fill="#EBB096"/>
<path fill-rule="evenodd" clip-rule="evenodd" d="M139.309 364.872C139.3 364.844 139.273 364.84 139.243 364.838C139.254 364.856 139.261 364.881 139.277 364.896C139.291 364.892 139.297 364.881 139.309 364.874V364.872Z" fill="#EBB096"/>
<path fill-rule="evenodd" clip-rule="evenodd" d="M138.89 364.646C138.894 364.623 138.871 364.635 138.867 364.621C138.853 364.628 138.871 364.658 138.89 364.646Z" fill="#EBB096"/>
<path fill-rule="evenodd" clip-rule="evenodd" d="M138.519 364.321C138.53 364.305 138.499 364.28 138.474 364.285C138.485 364.303 138.503 364.31 138.519 364.321Z" fill="#EBB096"/>
<path fill-rule="evenodd" clip-rule="evenodd" d="M138.34 364.17C138.313 364.165 138.282 364.14 138.264 364.149C138.282 364.165 138.318 364.185 138.34 364.17Z" fill="#EBB096"/>
<path fill-rule="evenodd" clip-rule="evenodd" d="M137.944 363.91C137.937 363.89 137.917 363.888 137.905 363.874C137.894 363.885 137.919 363.919 137.944 363.91Z" fill="#EBB096"/>
<path fill-rule="evenodd" clip-rule="evenodd" d="M137.589 363.549C137.589 363.549 137.564 363.558 137.558 363.565C137.562 363.574 137.574 363.576 137.587 363.576C137.587 363.565 137.594 363.56 137.592 363.549H137.589Z" fill="#EBB096"/>
<path fill-rule="evenodd" clip-rule="evenodd" d="M137.264 361.26C137.242 361.226 137.185 361.236 137.163 361.202C137.156 361.242 137.228 361.249 137.264 361.26Z" fill="#EBB096"/>
<path fill-rule="evenodd" clip-rule="evenodd" d="M137.149 361.211C137.147 361.188 137.131 361.181 137.106 361.188C137.117 361.202 137.131 361.208 137.149 361.211Z" fill="#EBB096"/>
<path fill-rule="evenodd" clip-rule="evenodd" d="M136.822 363.066C136.822 363.066 136.808 363.075 136.811 363.089C136.786 363.068 136.781 363.062 136.745 363.048C136.763 363.077 136.788 363.098 136.82 363.109C136.813 363.089 136.824 363.084 136.822 363.068V363.066Z" fill="#EBB096"/>
<path fill-rule="evenodd" clip-rule="evenodd" d="M136.743 362.917C136.734 362.928 136.709 362.926 136.711 362.946C136.727 362.958 136.745 362.937 136.743 362.917Z" fill="#EBB096"/>
<path fill-rule="evenodd" clip-rule="evenodd" d="M136.72 363.014C136.72 363.014 136.724 362.996 136.724 362.987C136.709 362.987 136.7 362.992 136.69 362.998C136.693 363.012 136.72 362.998 136.72 363.017V363.014Z" fill="#EBB096"/>
<path fill-rule="evenodd" clip-rule="evenodd" d="M135.752 362.389C135.743 362.371 135.725 362.382 135.711 362.387C135.716 362.396 135.727 362.398 135.741 362.398C135.741 362.391 135.748 362.391 135.755 362.389H135.752Z" fill="#EBB096"/>
<path fill-rule="evenodd" clip-rule="evenodd" d="M135.655 362.391C135.651 362.375 135.619 362.391 135.614 362.396C135.63 362.409 135.644 362.405 135.655 362.391Z" fill="#EBB096"/>
<path fill-rule="evenodd" clip-rule="evenodd" d="M135.605 362.314C135.58 362.278 135.538 362.265 135.502 362.242C135.495 362.265 135.477 362.247 135.454 362.247C135.501 362.281 135.549 362.283 135.605 362.314Z" fill="#EBB096"/>
<path fill-rule="evenodd" clip-rule="evenodd" d="M135.481 362.238C135.474 362.217 135.447 362.222 135.431 362.215C135.438 362.233 135.454 362.245 135.481 362.238Z" fill="#EBB096"/>
<path fill-rule="evenodd" clip-rule="evenodd" d="M135.416 362.204C135.4 362.193 135.393 362.172 135.37 362.168C135.364 362.184 135.386 362.211 135.416 362.204Z" fill="#EBB096"/>
<path fill-rule="evenodd" clip-rule="evenodd" d="M135.397 362.145C135.379 362.129 135.377 362.116 135.372 362.1C135.35 362.107 135.341 362.102 135.334 362.132C135.357 362.109 135.372 362.147 135.397 362.145Z" fill="#EBB096"/>
<path fill-rule="evenodd" clip-rule="evenodd" d="M135.205 362.335C135.223 362.321 135.189 362.308 135.176 362.31C135.176 362.324 135.183 362.328 135.185 362.337C135.196 362.337 135.201 362.324 135.205 362.337V362.335Z" fill="#EBB096"/>
<path fill-rule="evenodd" clip-rule="evenodd" d="M135.14 362.055C135.14 362.055 135.147 362.053 135.147 362.048V362.035C135.122 362.044 135.095 361.998 135.054 362.003C135.054 362.01 135.054 362.014 135.05 362.016C135.075 362.021 135.093 362.037 135.12 362.037C135.124 362.071 135.099 362.044 135.088 362.059C135.088 362.077 135.124 362.05 135.124 362.068C135.133 362.068 135.129 362.028 135.142 362.053L135.14 362.055Z" fill="#EBB096"/>
<path fill-rule="evenodd" clip-rule="evenodd" d="M135.131 362.287C135.109 362.267 135.082 362.251 135.045 362.249C135.07 362.269 135.1 362.278 135.131 362.287Z" fill="#EBB096"/>
<path fill-rule="evenodd" clip-rule="evenodd" d="M135.032 361.99C135.019 361.981 135.039 361.956 135.021 361.942C135.016 361.962 135.005 361.969 134.982 361.96C134.992 361.981 135.014 361.983 135.035 361.99H135.032Z" fill="#EBB096"/>
<path fill-rule="evenodd" clip-rule="evenodd" d="M134.984 361.996C134.973 361.974 134.946 361.974 134.918 361.969C134.939 361.996 134.955 361.987 134.984 361.996Z" fill="#EBB096"/>
<path fill-rule="evenodd" clip-rule="evenodd" d="M134.813 361.863C134.813 361.863 134.813 361.883 134.802 361.885C134.827 361.906 134.881 361.89 134.89 361.931C134.921 361.89 134.829 361.897 134.815 361.863H134.813Z" fill="#EBB096"/>
<path fill-rule="evenodd" clip-rule="evenodd" d="M134.883 361.951C134.865 361.919 134.82 361.922 134.784 361.913C134.799 361.946 134.849 361.94 134.883 361.951Z" fill="#EBB096"/>
<path fill-rule="evenodd" clip-rule="evenodd" d="M134.775 361.962C134.793 361.944 134.745 361.942 134.731 361.94C134.736 361.96 134.768 361.944 134.775 361.962Z" fill="#EBB096"/>
<path fill-rule="evenodd" clip-rule="evenodd" d="M134.779 361.926C134.761 361.904 134.749 361.874 134.707 361.886C134.743 361.886 134.743 361.926 134.779 361.926Z" fill="#EBB096"/>
<path fill-rule="evenodd" clip-rule="evenodd" d="M134.691 361.813C134.7 361.849 134.659 361.845 134.65 361.825C134.65 361.802 134.675 361.813 134.691 361.813C134.695 361.788 134.664 361.804 134.666 361.782C134.632 361.809 134.553 361.806 134.517 361.804C134.497 361.831 134.585 361.825 134.601 361.809C134.585 361.834 134.626 361.836 134.598 361.849C134.646 361.849 134.691 361.838 134.761 361.834C134.752 361.809 134.723 361.809 134.691 361.813Z" fill="#EBB096"/>
<path fill-rule="evenodd" clip-rule="evenodd" d="M134.558 361.773C134.558 361.773 134.563 361.755 134.563 361.746C134.549 361.741 134.529 361.746 134.52 361.737C134.513 361.741 134.515 361.753 134.501 361.753C134.506 361.762 134.513 361.768 134.517 361.778C134.536 361.778 134.547 361.746 134.558 361.773Z" fill="#EBB096"/>
<path fill-rule="evenodd" clip-rule="evenodd" d="M134.538 361.705C134.524 361.698 134.49 361.687 134.497 361.716C134.517 361.719 134.522 361.707 134.538 361.705Z" fill="#EBB096"/>
<path fill-rule="evenodd" clip-rule="evenodd" d="M134.479 361.732C134.499 361.721 134.463 361.716 134.468 361.698C134.452 361.71 134.456 361.714 134.434 361.707C134.436 361.73 134.465 361.719 134.477 361.73L134.479 361.732Z" fill="#EBB096"/>
<path fill-rule="evenodd" clip-rule="evenodd" d="M146.139 369.383C146.134 369.395 146.112 369.383 146.114 369.406C146.125 369.406 146.127 369.417 146.141 369.417C146.121 369.383 146.22 369.381 146.145 369.383C146.125 369.347 146.091 369.318 146.087 369.271C146.06 369.268 146.062 369.257 146.071 369.239C146.064 369.239 146.064 369.253 146.055 369.25C146.037 369.241 146.066 369.234 146.06 369.216C146.039 369.228 146.035 369.216 145.99 369.219C145.994 369.239 146.021 369.239 146.039 369.248C146.026 369.275 146.048 369.277 146.062 369.286C146.046 369.338 146.094 369.363 146.087 369.388C146.116 369.395 146.103 369.347 146.094 369.341C146.123 369.343 146.105 369.381 146.134 369.383H146.139Z" fill="#EBB096"/>
<path fill-rule="evenodd" clip-rule="evenodd" d="M146.028 368.934C146.021 368.905 146.001 368.887 145.978 368.871C145.983 368.891 145.967 368.887 145.967 368.905C146.003 368.887 146.001 368.925 146.025 368.934H146.028Z" fill="#EBB096"/>
<path fill-rule="evenodd" clip-rule="evenodd" d="M142.338 367.309C142.338 367.309 142.331 367.298 142.342 367.296C142.272 367.298 142.254 367.237 142.198 367.221C142.223 367.264 142.259 367.289 142.297 367.314C142.304 367.314 142.302 367.3 142.302 367.293C142.313 367.3 142.331 367.298 142.338 367.309Z" fill="#EBB096"/>
<path fill-rule="evenodd" clip-rule="evenodd" d="M145.916 368.224C145.916 368.203 145.886 368.203 145.875 368.192C145.884 368.205 145.891 368.226 145.916 368.224Z" fill="#EBB096"/>
<path fill-rule="evenodd" clip-rule="evenodd" d="M145.2 367.641C145.214 367.644 145.218 367.637 145.227 367.634C145.225 367.625 145.209 367.628 145.2 367.628C145.205 367.623 145.207 367.616 145.207 367.607C145.184 367.612 145.198 367.625 145.2 367.641Z" fill="#EBB096"/>
<path fill-rule="evenodd" clip-rule="evenodd" d="M145.209 368.661C145.227 368.673 145.191 368.636 145.209 368.62C145.195 368.62 145.191 368.634 145.182 368.641C145.186 368.666 145.204 368.636 145.207 368.661H145.209Z" fill="#EBB096"/>
<path fill-rule="evenodd" clip-rule="evenodd" d="M145.202 368.233C145.218 368.233 145.225 368.228 145.222 368.212C145.213 368.221 145.202 368.217 145.195 368.205C145.179 368.205 145.202 368.223 145.202 368.233Z" fill="#EBB096"/>
<path fill-rule="evenodd" clip-rule="evenodd" d="M145.159 368.354C145.159 368.354 145.143 368.361 145.146 368.375C145.162 368.377 145.173 368.375 145.18 368.368C145.18 368.354 145.157 368.363 145.159 368.347C145.153 368.347 145.155 368.354 145.159 368.354Z" fill="#EBB096"/>
<path fill-rule="evenodd" clip-rule="evenodd" d="M145.125 367.37C145.125 367.341 145.107 367.37 145.098 367.37C145.08 367.37 145.107 367.359 145.098 367.343C145.06 367.343 145.044 367.323 145.032 367.296C145.023 367.3 145.017 367.307 145.005 367.309C145.032 367.314 145.071 367.341 145.087 367.377C145.109 367.368 145.116 367.381 145.127 367.37H145.125Z" fill="#EBB096"/>
<path fill-rule="evenodd" clip-rule="evenodd" d="M145.109 368.467C145.064 368.431 145.042 368.397 144.983 368.377C144.983 368.388 144.994 368.395 144.983 368.397C144.992 368.417 144.996 368.401 145.017 368.411C144.996 368.424 145.064 368.465 145.035 368.465C145.03 368.485 145.087 368.476 145.109 368.465V368.467Z" fill="#EBB096"/>
<path fill-rule="evenodd" clip-rule="evenodd" d="M145.037 367.072C145.037 367.047 144.992 367.009 144.963 366.998C144.988 367.023 145.015 367.05 145.037 367.072Z" fill="#EBB096"/>
<path fill-rule="evenodd" clip-rule="evenodd" d="M144.924 369.462C144.938 369.451 144.94 369.469 144.963 369.462C144.951 369.435 144.94 369.446 144.926 369.442C144.917 369.444 144.926 369.451 144.924 369.462Z" fill="#EBB096"/>
<path fill-rule="evenodd" clip-rule="evenodd" d="M145.024 368.379C145.008 368.37 145.004 368.35 144.976 368.352C144.972 368.379 145.008 368.37 145.024 368.379Z" fill="#EBB096"/>
<path fill-rule="evenodd" clip-rule="evenodd" d="M144.913 367.305C144.929 367.309 144.922 367.291 144.934 367.291C144.931 367.278 144.913 367.278 144.904 367.271C144.888 367.275 144.924 367.282 144.913 367.305Z" fill="#EBB096"/>
<path fill-rule="evenodd" clip-rule="evenodd" d="M144.812 368.95C144.812 368.95 144.807 368.959 144.805 368.963C144.789 368.966 144.791 368.952 144.773 368.957C144.78 368.975 144.787 368.995 144.816 368.991C144.812 368.97 144.798 368.975 144.812 368.95Z" fill="#EBB096"/>
<path fill-rule="evenodd" clip-rule="evenodd" d="M144.651 368.386C144.624 368.379 144.644 368.363 144.624 368.345C144.602 368.354 144.602 368.357 144.583 368.359C144.606 368.363 144.633 368.393 144.651 368.384V368.386Z" fill="#EBB096"/>
<path fill-rule="evenodd" clip-rule="evenodd" d="M144.538 366.874C144.534 366.892 144.513 366.863 144.504 366.883C144.504 366.901 144.532 366.887 144.527 366.91C144.536 366.892 144.563 366.903 144.566 366.867C144.55 366.867 144.536 366.862 144.529 366.849C144.513 366.851 144.538 366.867 144.538 366.876V366.874Z" fill="#EBB096"/>
<path fill-rule="evenodd" clip-rule="evenodd" d="M144.484 366.802C144.477 366.774 144.434 366.786 144.436 366.749C144.411 366.752 144.436 366.767 144.425 366.77C144.445 366.779 144.459 366.797 144.484 366.802Z" fill="#EBB096"/>
<path fill-rule="evenodd" clip-rule="evenodd" d="M144.389 366.752C144.389 366.763 144.383 366.768 144.385 366.779C144.414 366.788 144.432 366.808 144.446 366.838C144.468 366.804 144.412 366.797 144.417 366.756C144.387 366.765 144.385 366.743 144.385 366.718C144.358 366.704 144.351 366.713 144.322 366.709C144.326 366.718 144.333 366.725 144.338 366.736C144.353 366.738 144.347 366.722 144.358 366.72C144.365 366.72 144.365 366.727 144.371 366.727C144.371 366.738 144.351 366.734 144.36 366.756C144.371 366.763 144.378 366.763 144.387 366.756L144.389 366.752Z" fill="#EBB096"/>
<path fill-rule="evenodd" clip-rule="evenodd" d="M144.132 368.996C144.132 368.996 144.137 368.989 144.132 368.989C144.132 368.98 144.132 368.971 144.139 368.968C144.139 368.959 144.123 368.964 144.114 368.964C144.117 368.977 144.128 368.984 144.132 368.996Z" fill="#EBB096"/>
<path fill-rule="evenodd" clip-rule="evenodd" d="M143.911 368.602C143.925 368.598 143.893 368.535 143.857 368.539C143.857 368.546 143.891 368.553 143.87 368.564C143.875 368.584 143.913 368.571 143.911 368.6V368.602Z" fill="#EBB096"/>
<path fill-rule="evenodd" clip-rule="evenodd" d="M143.789 368.39C143.78 368.37 143.798 368.338 143.762 368.338C143.741 368.37 143.795 368.377 143.762 368.404C143.784 368.411 143.766 368.381 143.789 368.388V368.39Z" fill="#EBB096"/>
<path fill-rule="evenodd" clip-rule="evenodd" d="M143.557 367.244C143.577 367.235 143.548 367.226 143.548 367.217C143.536 367.217 143.532 367.23 143.527 367.217C143.521 367.217 143.521 367.219 143.521 367.223V367.237C143.521 367.237 143.561 367.226 143.543 367.237C143.548 367.248 143.555 367.23 143.557 367.242V367.244Z" fill="#EBB096"/>
<path fill-rule="evenodd" clip-rule="evenodd" d="M143.426 368.013C143.437 368 143.403 367.977 143.397 367.961C143.419 367.943 143.403 367.903 143.397 367.887C143.381 367.907 143.372 367.937 143.363 367.964C143.397 367.93 143.381 367.989 143.406 368.007C143.415 367.998 143.421 367.998 143.426 368.011V368.013Z" fill="#EBB096"/>
<path fill-rule="evenodd" clip-rule="evenodd" d="M143.367 367.844C143.374 367.826 143.333 367.801 143.322 367.781C143.299 367.785 143.342 367.808 143.317 367.815C143.329 367.815 143.36 367.819 143.367 367.844Z" fill="#EBB096"/>
<path fill-rule="evenodd" clip-rule="evenodd" d="M143.353 367.932C143.376 367.935 143.362 367.919 143.353 367.919C143.353 367.907 143.358 367.901 143.365 367.898C143.362 367.889 143.351 367.889 143.349 367.88C143.349 367.892 143.335 367.921 143.328 367.88C143.319 367.883 143.324 367.898 143.324 367.907C143.342 367.907 143.351 367.914 143.353 367.932Z" fill="#EBB096"/>
<path fill-rule="evenodd" clip-rule="evenodd" d="M143.186 367.761C143.186 367.761 143.2 367.77 143.202 367.779C143.222 367.781 143.213 367.758 143.234 367.763C143.22 367.754 143.213 367.763 143.186 367.763V367.761Z" fill="#EBB096"/>
<path fill-rule="evenodd" clip-rule="evenodd" d="M142.893 367.788C142.904 367.774 142.902 367.788 142.92 367.786C142.914 367.765 142.943 367.774 142.932 367.752H142.911C142.911 367.77 142.907 367.786 142.891 367.763C142.873 367.765 142.902 367.774 142.893 367.79V367.788Z" fill="#EBB096"/>
<path fill-rule="evenodd" clip-rule="evenodd" d="M142.834 367.307C142.841 367.319 142.843 367.298 142.834 367.3C142.839 367.291 142.848 367.287 142.859 367.284C142.85 367.271 142.814 367.284 142.821 367.303C142.827 367.303 142.832 367.303 142.834 367.307Z" fill="#EBB096"/>
<path fill-rule="evenodd" clip-rule="evenodd" d="M142.778 366.495C142.778 366.495 142.771 366.492 142.771 366.495C142.75 366.497 142.764 366.456 142.735 366.472C142.732 366.501 142.755 366.497 142.766 366.51C142.773 366.508 142.769 366.497 142.778 366.495Z" fill="#EBB096"/>
<path fill-rule="evenodd" clip-rule="evenodd" d="M142.48 367.492C142.482 367.519 142.498 367.53 142.518 367.535C142.518 367.501 142.495 367.492 142.491 367.463C142.462 367.483 142.448 367.447 142.421 367.442C142.425 367.442 142.459 367.508 142.48 367.49V367.492Z" fill="#EBB096"/>
<path fill-rule="evenodd" clip-rule="evenodd" d="M142.453 367.427C142.435 367.408 142.401 367.411 142.395 367.379C142.356 367.417 142.343 367.323 142.3 367.32C142.295 367.327 142.3 367.339 142.289 367.343C142.307 367.352 142.338 367.348 142.334 367.386C142.37 367.39 142.383 367.42 142.408 367.44C142.417 367.438 142.413 367.422 142.413 367.413C142.431 367.413 142.431 367.438 142.456 367.429L142.453 367.427Z" fill="#EBB096"/>
<path fill-rule="evenodd" clip-rule="evenodd" d="M142.424 367.546C142.451 367.503 142.363 367.438 142.331 367.44C142.363 367.472 142.428 367.494 142.424 367.546Z" fill="#EBB096"/>
<path fill-rule="evenodd" clip-rule="evenodd" d="M142.178 367.278C142.166 367.262 142.153 367.246 142.139 367.235C142.128 367.251 142.162 367.273 142.178 367.278Z" fill="#EBB096"/>
<path fill-rule="evenodd" clip-rule="evenodd" d="M141.987 367.099C141.976 367.065 141.92 367.018 141.881 366.993C141.881 367.027 141.915 367.016 141.902 367.045C141.926 367.02 141.929 367.074 141.958 367.068C141.965 367.09 141.926 367.086 141.949 367.104C141.958 367.079 141.972 367.083 141.99 367.099H141.987Z" fill="#EBB096"/>
<path fill-rule="evenodd" clip-rule="evenodd" d="M141.965 367.142C141.981 367.122 141.936 367.113 141.927 367.099C141.906 367.106 141.938 367.115 141.931 367.133C141.956 367.129 141.956 367.122 141.968 367.142H141.965Z" fill="#EBB096"/>
<path fill-rule="evenodd" clip-rule="evenodd" d="M141.873 366.989C141.857 366.955 141.832 366.932 141.803 366.914C141.778 366.971 141.841 366.977 141.873 366.989Z" fill="#EBB096"/>
<path fill-rule="evenodd" clip-rule="evenodd" d="M141.494 366.63C141.485 366.619 141.471 366.614 141.448 366.6V366.621C141.475 366.612 141.471 366.637 141.494 366.63Z" fill="#EBB096"/>
<path fill-rule="evenodd" clip-rule="evenodd" d="M141.235 366.513L141.275 366.508C141.262 366.488 141.237 366.517 141.226 366.485C141.21 366.49 141.235 366.504 141.235 366.513Z" fill="#EBB096"/>
<path fill-rule="evenodd" clip-rule="evenodd" d="M141.032 366.323C141.054 366.282 140.993 366.323 141.004 366.271C141 366.276 140.993 366.28 140.984 366.28C140.986 366.31 141.016 366.307 141.029 366.323H141.032Z" fill="#EBB096"/>
<path fill-rule="evenodd" clip-rule="evenodd" d="M140.665 366.045C140.672 366.059 140.674 366.036 140.665 366.038C140.665 366.025 140.681 366.023 140.69 366.016C140.679 366.005 140.652 366.011 140.652 365.986C140.607 366.011 140.607 365.971 140.58 365.959C140.557 365.953 140.577 365.982 140.555 365.975C140.584 365.982 140.593 366.016 140.627 366.016C140.627 366.027 140.62 366.032 140.622 366.043C140.631 366.032 140.654 366.036 140.663 366.045H140.665Z" fill="#EBB096"/>
<path fill-rule="evenodd" clip-rule="evenodd" d="M140.065 365.538C140.058 365.504 140.008 365.526 140.006 365.488C139.997 365.49 140.002 365.506 140.002 365.515C140.035 365.506 140.031 365.547 140.065 365.535V365.538Z" fill="#EBB096"/>
<path fill-rule="evenodd" clip-rule="evenodd" d="M139.65 365.246C139.661 365.233 139.614 365.192 139.604 365.203C139.618 365.219 139.643 365.224 139.65 365.246Z" fill="#EBB096"/>
<path fill-rule="evenodd" clip-rule="evenodd" d="M139.336 364.867C139.322 364.872 139.316 364.883 139.304 364.89C139.311 364.903 139.325 364.906 139.341 364.908C139.343 364.89 139.325 364.897 139.318 364.89C139.318 364.876 139.347 364.901 139.336 364.867Z" fill="#EBB096"/>
<path fill-rule="evenodd" clip-rule="evenodd" d="M137.808 363.807C137.826 363.789 137.785 363.779 137.783 363.761C137.776 363.761 137.776 363.764 137.776 363.768V363.782C137.796 363.779 137.796 363.8 137.808 363.807Z" fill="#EBB096"/>
<path fill-rule="evenodd" clip-rule="evenodd" d="M137.526 361.418C137.508 361.398 137.48 361.387 137.465 361.362C137.438 361.378 137.42 361.344 137.399 361.328C137.395 361.328 137.392 361.335 137.386 361.337C137.386 361.342 137.386 361.344 137.379 361.344C137.433 361.362 137.467 361.403 137.523 361.418H137.526Z" fill="#EBB096"/>
<path fill-rule="evenodd" clip-rule="evenodd" d="M135.449 362.262C135.422 362.256 135.438 362.285 135.411 362.281C135.411 362.285 135.417 362.287 135.42 362.294H135.433C135.42 362.267 135.463 362.287 135.452 362.265L135.449 362.262Z" fill="#EBB096"/>
<path fill-rule="evenodd" clip-rule="evenodd" d="M135.296 362.107C135.292 362.068 135.276 362.139 135.262 362.111C135.244 362.12 135.269 362.139 135.285 362.129C135.28 362.116 135.285 362.109 135.296 362.107Z" fill="#EBB096"/>
<path d="M137.128 198.42C137.128 198.42 137.611 181.418 115.188 178.082C92.7641 174.746 84.3228 184.56 80.5107 190.279C76.6986 195.999 72.3854 204.499 74.191 219.169C75.3286 228.419 100.761 240.245 100.343 245.667C99.9257 251.088 137.128 198.418 137.128 198.418V198.42Z" fill="black"/>
<path d="M142.354 238.582C139.388 238.683 137.86 236.006 137.072 233.047C136.986 233.366 136.901 233.684 136.81 233.998C136.009 236.796 134.551 239.263 132.637 241.261C138.226 241.913 142.351 238.584 142.351 238.584L142.354 238.582Z" fill="black"/>
<path d="M102.404 252.347V254.372C102.404 260.61 107.462 265.666 113.698 265.666H115.484C121.722 265.666 126.778 260.608 126.778 254.372V245.292C124.78 246.134 122.611 246.612 120.359 246.662L102.402 252.35L102.404 252.347Z" fill="#FFD6CE"/>
<path d="M119.449 246.66C113.134 246.475 106.81 244.078 102.404 239.478V252.348L120.361 246.66C120.058 246.667 119.754 246.669 119.449 246.66Z" fill="#FFB4A5"/>
<path d="M137.589 202.63C136.28 198.463 128.798 194.805 125.221 193.265C122.144 198.359 113.279 211.416 101.587 214.423C99.2919 215.014 97.2176 215.56 95.3511 216.066C95.6422 218.183 95.956 220.435 96.2358 222.821C96.4886 222.742 96.7572 222.701 97.0348 222.701C98.5199 222.701 99.7252 223.907 99.7252 225.392C99.7252 226.877 98.5199 228.082 97.0348 228.082C96.9671 228.082 96.8994 228.078 96.8317 228.071C97.59 232.759 99.6123 236.562 102.404 239.478C106.81 244.078 113.132 246.475 119.449 246.66C119.754 246.669 120.059 246.667 120.361 246.66C122.614 246.61 124.785 246.132 126.78 245.29C128.99 244.36 130.985 242.985 132.639 241.259C134.553 239.261 136.012 236.794 136.813 233.996C136.903 233.682 136.989 233.364 137.075 233.045C138.203 228.793 138.891 224.108 139.226 219.772C137.944 214.348 139.235 207.866 137.589 202.63Z" fill="#FFD6CE"/>
<path fill-rule="evenodd" clip-rule="evenodd" d="M123.071 207.986C122.22 208 121.382 208.113 120.841 208.266C120.398 208.39 119.939 208.132 119.815 207.69C119.69 207.248 119.948 206.788 120.39 206.664C121.105 206.463 122.093 206.338 123.043 206.322C123.971 206.307 124.998 206.391 125.735 206.696C126.16 206.872 126.361 207.358 126.186 207.783C126.01 208.207 125.524 208.409 125.099 208.234C124.688 208.063 123.942 207.971 123.071 207.986Z" fill="#3C4558"/>
<path fill-rule="evenodd" clip-rule="evenodd" d="M133.789 208.143C132.952 208.051 132.115 208.074 131.567 208.178C131.116 208.263 130.681 207.966 130.595 207.515C130.51 207.064 130.806 206.628 131.258 206.543C132.009 206.4 133.019 206.384 133.971 206.49C134.901 206.592 135.927 206.825 136.629 207.283C137.014 207.535 137.122 208.05 136.871 208.435C136.619 208.82 136.104 208.928 135.719 208.677C135.353 208.438 134.648 208.238 133.789 208.143Z" fill="#3C4558"/>
<path d="M134 231.441C134.522 230.767 134.826 229.994 134.909 229.144C134.953 228.702 134.784 228.266 134.45 227.948C134.072 227.589 133.522 227.421 132.984 227.503C131.485 227.73 129.102 227.81 126.274 226.918C125.708 226.738 125.098 226.843 124.645 227.197C124.256 227.501 124.046 227.942 124.074 228.412C124.168 230.014 124.894 232.789 128.721 233.355C129.03 233.402 129.337 233.424 129.643 233.424C131.388 233.424 133.037 232.692 134.003 231.441H134ZM126.026 227.702C129.002 228.641 131.518 228.555 133.106 228.315C133.395 228.271 133.688 228.357 133.884 228.542C134.036 228.685 134.111 228.87 134.091 229.061C134.022 229.757 133.774 230.386 133.349 230.936C132.393 232.173 130.623 232.803 128.84 232.54C125.753 232.082 124.99 230.016 124.894 228.362C124.877 228.097 125.046 227.923 125.148 227.846C125.308 227.722 125.512 227.655 125.722 227.655C125.824 227.655 125.926 227.669 126.023 227.702H126.026Z" fill="#3C4558"/>
<path d="M101.03 189.509C95.6694 191.43 91.6541 193.527 91.6541 193.527C91.5706 194.08 91.4804 194.628 91.3833 195.172C94.1346 193.972 96.895 192.732 99.3077 190.952C99.9081 190.509 100.484 190.026 101.03 189.512V189.509Z" fill="black"/>
<path d="M124.509 190.923C124.787 190.609 125.11 190.275 125.475 189.941C124.105 188.345 122.275 187.368 120.171 186.851C121.769 188.034 123.23 189.399 124.509 190.92V190.923Z" fill="black"/>
<path d="M91.8051 210.484C92.568 209.608 93.4437 208.834 94.4007 208.177C94.1389 204.943 94.1863 202.174 94.8701 199.878C93.8522 200.273 92.8456 200.695 91.8638 201.176C91.1099 201.546 90.3651 201.959 89.6429 202.415C87.3836 209.893 84.235 215.594 82.5332 218.366C82.5422 218.844 82.558 219.323 82.5829 219.799C84.4517 219.185 88.4963 217.921 95.3486 216.068C94.9514 213.188 94.5925 210.559 94.3984 208.18C93.4414 208.836 92.5657 209.611 91.8028 210.486L91.8051 210.484Z" fill="black"/>
<path d="M81.3232 220.223C81.3232 220.223 81.7227 220.079 82.5827 219.797C82.5578 219.32 82.542 218.842 82.533 218.363C81.7927 219.571 81.3232 220.223 81.3232 220.223Z" fill="black"/>
<path d="M111.433 192.168C111.638 192.008 111.843 191.843 112.044 191.676C111.557 191.697 111.065 191.719 110.559 191.748C100.529 192.329 96.3014 195.064 94.8682 199.878C98.1612 198.605 101.59 197.653 104.801 196.184C107.155 195.107 109.385 193.757 111.43 192.168H111.433Z" fill="black"/>
<path d="M123.444 192.288C123.625 192.019 123.988 191.511 124.51 190.922C123.23 189.401 121.77 188.035 120.172 186.853C114.543 185.474 106.961 187.381 101.03 189.507C100.486 190.024 99.908 190.505 99.3077 190.947C96.8949 192.728 94.1346 193.967 91.3832 195.168C90.9273 197.723 90.3269 200.149 89.6431 202.413C90.3631 201.957 91.1079 201.544 91.864 201.174C92.8458 200.693 93.8524 200.271 94.8704 199.876C96.3036 195.062 100.531 192.326 110.561 191.746C111.067 191.717 111.559 191.694 112.046 191.674C111.843 191.841 111.64 192.006 111.435 192.166C109.39 193.755 107.16 195.104 104.806 196.181C101.592 197.648 98.1634 198.601 94.8726 199.876C94.1887 202.171 94.1413 204.943 94.4031 208.175C94.595 210.554 94.9539 213.186 95.3534 216.063C97.2199 215.56 99.2941 215.011 101.59 214.42C113.281 211.414 122.149 198.357 125.223 193.263C124.065 192.764 123.316 192.489 123.316 192.489C123.316 192.489 123.361 192.414 123.449 192.285L123.444 192.288Z" fill="black"/>
<path d="M138.431 192.049C132.835 185.269 128.089 187.555 125.475 189.943C125.613 190.105 125.748 190.272 125.877 190.446C126.058 190.692 126.234 190.945 126.396 191.218C126.396 191.218 126.387 191.234 126.374 191.261C126.225 191.015 126.064 190.782 125.9 190.559C125.771 190.385 125.638 190.218 125.5 190.056C125.137 190.387 124.816 190.722 124.539 191.033C124.017 191.62 123.656 192.125 123.476 192.392C124.207 192.523 124.9 192.672 125.561 192.836C125.577 192.807 125.593 192.78 125.611 192.753C135.025 195.123 137.587 200.799 138.846 205.952C139.482 208.559 139.686 213.838 139.227 219.772C139.295 220.061 139.37 220.35 139.453 220.632C139.453 220.632 146.493 201.817 138.433 192.049H138.431Z" fill="black"/>
<path d="M137.566 202.695C139.205 207.911 137.921 214.368 139.196 219.771C139.652 213.86 139.451 208.601 138.817 206.004C137.559 200.858 134.998 195.186 125.561 192.836C125.464 193.001 125.358 193.179 125.245 193.366C128.811 194.901 136.264 198.544 137.569 202.695H137.566Z" fill="black"/>
<path d="M123.444 192.288C123.358 192.416 123.311 192.491 123.311 192.491C123.311 192.491 124.06 192.768 125.218 193.265C125.331 193.078 125.437 192.899 125.536 192.732C124.873 192.568 124.175 192.419 123.442 192.285L123.444 192.288Z" fill="black"/>
<path d="M89.7649 246.707C89.7649 246.707 96.9874 247.384 99.6958 242.193L89.3135 232.262C89.3135 232.262 93.6018 238.582 89.7649 246.707Z" fill="black"/>
<path d="M96.2332 222.821C95.1385 223.162 94.3418 224.182 94.3418 225.39C94.3418 226.807 95.4387 227.965 96.829 228.069C96.7433 227.532 96.6711 226.983 96.6169 226.423C96.4995 225.189 96.3686 223.99 96.2309 222.819L96.2332 222.821Z" fill="#DF6F7F"/>
<path d="M99.7228 225.392C99.7228 223.907 98.5175 222.701 97.0324 222.701C96.7548 222.701 96.4862 222.744 96.2334 222.821C96.3711 223.99 96.502 225.191 96.6193 226.425C96.6713 226.985 96.7435 227.534 96.8315 228.071C96.8992 228.075 96.9647 228.082 97.0346 228.082C98.5198 228.082 99.725 226.877 99.725 225.392H99.7228Z" fill="#DF6F7F"/>
<path d="M113.38 231.391C116.465 231.391 118.966 228.89 118.966 225.805C118.966 222.72 116.465 220.219 113.38 220.219C110.295 220.219 107.794 222.72 107.794 225.805C107.794 228.89 110.295 231.391 113.38 231.391Z" fill="#FFB4A5"/>
<path d="M122.878 220.216C123.792 220.216 124.532 219.151 124.532 217.838C124.532 216.524 123.792 215.459 122.878 215.459C121.964 215.459 121.224 216.524 121.224 217.838C121.224 219.151 121.964 220.216 122.878 220.216Z" fill="black"/>
<path d="M133.601 220.216C134.514 220.216 135.255 219.151 135.255 217.838C135.255 216.524 134.514 215.459 133.601 215.459C132.687 215.459 131.946 216.524 131.946 217.838C131.946 219.151 132.687 220.216 133.601 220.216Z" fill="black"/>
<path fill-rule="evenodd" clip-rule="evenodd" d="M135.921 210.594C132.764 210.594 130.089 213.457 130.089 217.14C130.089 220.823 132.764 223.685 135.921 223.685C139.077 223.685 141.753 220.823 141.753 217.14C141.753 213.457 139.077 210.594 135.921 210.594ZM128.734 217.14C128.734 212.845 131.887 209.24 135.921 209.24C139.954 209.24 143.107 212.845 143.107 217.14C143.107 221.435 139.954 225.039 135.921 225.039C131.887 225.039 128.734 221.435 128.734 217.14Z" fill="white"/>
<path fill-rule="evenodd" clip-rule="evenodd" d="M98.793 211.272H116.849V212.626H98.793V211.272Z" fill="white"/>
<path d="M97.5517 225.597C101.837 225.597 105.311 222.123 105.311 217.837C105.311 213.552 101.837 210.078 97.5517 210.078C93.2661 210.078 89.792 213.552 89.792 217.837C89.792 222.123 93.2661 225.597 97.5517 225.597Z" fill="#FFD6CE"/>
<path d="M96.6196 215.253L100.964 218.149L96.6196 220.424" fill="#FFD6CE"/>
<path fill-rule="evenodd" clip-rule="evenodd" d="M100.522 218.126L96.4941 215.441L96.7445 215.065L101.406 218.172L96.724 220.624L96.5146 220.224L100.522 218.126Z" fill="#1E1838"/>
<path fill-rule="evenodd" clip-rule="evenodd" d="M121.858 210.369C118.375 210.369 115.504 213.323 115.504 217.027C115.504 220.732 118.375 223.685 121.858 223.685C125.34 223.685 128.211 220.732 128.211 217.027C128.211 213.323 125.34 210.369 121.858 210.369ZM114.15 217.027C114.15 212.629 117.574 209.015 121.858 209.015C126.141 209.015 129.565 212.629 129.565 217.027C129.565 221.425 126.141 225.04 121.858 225.04C117.574 225.04 114.15 221.425 114.15 217.027Z" fill="white"/>
<path d="M96.2332 222.821C95.1385 223.162 94.3418 224.182 94.3418 225.39C94.3418 226.807 95.4387 227.965 96.829 228.069C96.7433 227.532 96.6711 226.983 96.6169 226.423C96.4995 225.189 96.3686 223.99 96.2309 222.819L96.2332 222.821Z" fill="#DF6F7F"/>
<path d="M99.7228 225.392C99.7228 223.907 98.5175 222.701 97.0324 222.701C96.7548 222.701 96.4862 222.744 96.2334 222.821C96.3711 223.99 96.502 225.191 96.6193 226.425C96.6713 226.985 96.7435 227.534 96.8315 228.071C96.8992 228.075 96.9647 228.082 97.0346 228.082C98.5198 228.082 99.725 226.877 99.725 225.392H99.7228Z" fill="#DF6F7F"/>
<path d="M119.874 190.096C118.937 192.389 117.761 194.585 116.38 196.642C115.01 198.68 113.436 200.682 111.602 202.325C110.699 203.133 109.679 203.778 108.536 204.194C107.394 204.609 106.288 204.812 105.135 204.963C102.79 205.27 100.386 205.324 98.109 206.017C95.5901 206.785 93.3015 208.263 91.5658 210.242C91.2792 210.57 91.7577 211.05 92.0443 210.721C93.6039 208.942 95.6127 207.575 97.8517 206.81C100.091 206.044 102.571 205.959 104.95 205.661C106.106 205.516 107.263 205.324 108.374 204.961C109.484 204.598 110.604 204.009 111.559 203.241C112.513 202.474 113.371 201.544 114.181 200.609C114.992 199.675 115.772 198.68 116.492 197.66C118.115 195.36 119.463 192.875 120.526 190.27C120.691 189.866 120.036 189.692 119.874 190.089V190.096Z" fill="#9F9F9F"/>
<path d="M115.303 186.785C114.7 188.742 113.24 190.265 111.689 191.534C109.942 192.963 108.017 194.193 106.011 195.222C101.903 197.332 97.3752 198.393 93.1478 200.214C89.6155 201.736 86.1984 203.959 84.0971 207.261C83.0047 208.976 82.4359 210.881 82.2892 212.903C82.2034 214.104 82.2012 215.312 82.1876 216.515C82.1741 217.718 82.1809 218.95 82.2621 220.164C82.4066 222.383 82.8219 224.568 83.6412 226.64C84.4085 228.588 85.4716 230.402 86.7987 232.021C87.126 232.42 87.4691 232.804 87.8257 233.176C88.1281 233.492 88.6066 233.011 88.3042 232.698C85.37 229.642 83.5328 225.669 83.0543 221.464C82.7835 219.088 82.8467 216.68 82.9054 214.292C82.9347 213.127 82.9957 211.96 83.2778 210.825C83.499 209.936 83.8375 209.082 84.2776 208.281C86.1149 204.934 89.4214 202.641 92.825 201.09C96.9734 199.201 101.458 198.17 105.57 196.192C107.597 195.217 109.525 194.039 111.315 192.678C112.897 191.475 114.447 190.107 115.389 188.327C115.619 187.891 115.806 187.435 115.951 186.963C116.079 186.546 115.425 186.368 115.298 186.783L115.303 186.785Z" fill="#9F9F9F"/>
<path d="M125.209 191.455C125.246 191.507 125.155 191.557 125.219 191.536C125.234 191.532 125.282 191.459 125.293 191.446C125.363 191.367 125.437 191.292 125.512 191.22C125.661 191.071 125.817 190.931 125.979 190.796C126.293 190.534 126.629 190.304 126.981 190.101C127.685 189.692 128.453 189.403 129.252 189.241C130.834 188.918 132.509 189.166 133.944 189.898C134.768 190.317 135.499 190.879 136.115 191.566C136.407 191.891 136.885 191.41 136.594 191.087C135.346 189.699 133.61 188.771 131.762 188.507C129.913 188.243 127.992 188.661 126.403 189.656C125.972 189.927 125.564 190.238 125.191 190.586C124.894 190.864 124.302 191.342 124.618 191.798C124.864 192.152 125.453 191.816 125.203 191.457L125.209 191.455Z" fill="#9F9F9F"/>
<path d="M125.015 191.001C122.062 187.39 118.156 184.648 113.777 183.05C111.387 182.176 108.893 181.626 106.387 181.201C103.882 180.777 101.345 180.398 98.8105 180.188C96.0186 179.958 93.1431 180.037 90.5001 181.05C90.0984 181.203 90.2722 181.86 90.6807 181.702C92.9806 180.82 95.4476 180.662 97.8874 180.799C100.327 180.937 102.871 181.321 105.336 181.711C107.8 182.102 110.249 182.589 112.621 183.363C114.86 184.095 116.991 185.101 118.955 186.406C121.058 187.805 122.94 189.523 124.538 191.48C124.814 191.818 125.29 191.335 125.017 191.001H125.015Z" fill="#9F9F9F"/>
<path d="M104.456 183.436C103.171 188.171 98.9349 191.198 94.7526 193.261C92.3263 194.457 89.8142 195.488 87.3338 196.569L83.4156 198.278C82.2374 198.79 81.057 199.3 79.9262 199.912C77.6285 201.156 75.5024 202.921 74.5748 205.435C74.4235 205.844 75.0781 206.022 75.227 205.616C76.0463 203.392 77.9468 201.801 79.9555 200.67C81.084 200.034 82.2712 199.513 83.4584 198.996C84.7607 198.427 86.0631 197.86 87.3676 197.292C89.8571 196.206 92.376 195.168 94.8203 193.983C97.0458 192.904 99.208 191.642 101.041 189.965C102.919 188.248 104.438 186.092 105.11 183.619C105.225 183.196 104.571 183.018 104.458 183.438L104.456 183.436Z" fill="#9F9F9F"/>
<path d="M128.134 221.689L129.439 219.979C129.439 219.979 130.552 219.794 131.038 220.774C131.521 221.749 130.977 222.528 129.917 222.779" fill="#FFD6CE"/>
<path fill-rule="evenodd" clip-rule="evenodd" d="M128.969 219.974C128.941 220.202 129.102 220.409 129.33 220.438C129.953 220.516 130.296 220.678 130.476 220.837C130.639 220.983 130.699 221.152 130.692 221.358C130.685 221.581 130.597 221.846 130.444 222.124C130.294 222.398 130.097 222.658 129.908 222.863C129.752 223.032 129.763 223.295 129.932 223.451C130.101 223.606 130.364 223.596 130.52 223.427C130.746 223.181 130.986 222.867 131.174 222.524C131.36 222.185 131.511 221.788 131.524 221.386C131.538 220.966 131.4 220.545 131.028 220.215C130.672 219.899 130.141 219.701 129.433 219.612C129.206 219.584 128.998 219.746 128.969 219.974Z" fill="#3C4558"/>
<path d="M288.271 255.058C289.829 255.058 291.092 253.795 291.092 252.237C291.092 250.679 289.829 249.415 288.271 249.415C286.712 249.415 285.449 250.679 285.449 252.237C285.449 253.795 286.712 255.058 288.271 255.058Z" fill="#FFFF67"/>
<path d="M313.775 223.008C315.333 223.008 316.596 221.745 316.596 220.187C316.596 218.629 315.333 217.366 313.775 217.366C312.217 217.366 310.954 218.629 310.954 220.187C310.954 221.745 312.217 223.008 313.775 223.008Z" fill="#FFFF67"/>
<path d="M332.283 241.742C333.841 241.742 335.104 240.479 335.104 238.92C335.104 237.362 333.841 236.099 332.283 236.099C330.725 236.099 329.461 237.362 329.461 238.92C329.461 240.479 330.725 241.742 332.283 241.742Z" fill="#FFFF67"/>
<path d="M353.95 213.303C355.508 213.303 356.771 212.04 356.771 210.482C356.771 208.924 355.508 207.66 353.95 207.66C352.392 207.66 351.129 208.924 351.129 210.482C351.129 212.04 352.392 213.303 353.95 213.303Z" fill="#FFFF67"/>
<path fill-rule="evenodd" clip-rule="evenodd" d="M354.107 210.574L332.203 239.323L313.69 220.583L288.423 252.335L287.893 251.913L313.635 219.565L332.137 238.292L353.568 210.164L354.107 210.574Z" fill="#FFFF67"/>
<path d="M338.828 313.177H334.991V325.365H338.828V313.177Z" fill="#D7AED2"/>
<path d="M348.816 304.938H344.979V325.477H348.816V304.938Z" fill="#D7AED2"/>
<path d="M358.803 299.296H354.966V325.478H358.803V299.296Z" fill="#D7AED2"/>
<path d="M282.098 418.776C291.304 421.288 301.03 421.284 310.311 423.496C320.932 426.028 331.312 437.241 341.469 441.252C342.539 441.674 343.663 442.089 344.809 441.983C345.87 441.884 346.834 441.344 347.764 440.823C367.188 429.899 384.659 412.798 405.749 405.602C394.518 394.804 381.515 390.426 365.946 389.864C354.862 389.464 343.053 391.814 333.154 386.81C328.207 384.309 324.257 380.159 321.131 375.579C320.546 374.724 319.923 373.798 318.953 373.439C317.863 373.035 316.655 373.464 315.585 373.918C306.036 377.96 297.646 384.257 288.817 389.695C284.339 392.453 279.694 394.996 274.78 396.899C271.794 398.055 265.321 396.955 264.457 400.409C263.513 404.182 267.58 406.999 270.099 408.985C273.891 411.976 277.453 417.508 282.095 418.774L282.098 418.776Z" fill="#DFB7C3"/>
<path d="M282.098 415.842C291.304 418.354 301.03 418.35 310.31 420.562C320.932 423.094 330.635 428.439 340.792 432.45C341.861 432.872 342.986 433.287 344.132 433.181C345.193 433.081 346.157 432.542 347.087 432.021C366.511 421.097 386.939 411.962 408.029 404.767C396.798 393.969 381.515 387.492 365.946 386.932C354.862 386.532 343.053 388.882 333.154 383.878C328.206 381.377 324.257 377.227 321.131 372.647C320.546 371.792 319.923 370.866 318.953 370.508C317.862 370.104 316.655 370.532 315.585 370.986C306.036 375.028 297.646 381.325 288.817 386.763C284.339 389.521 279.694 392.064 274.78 393.967C271.794 395.123 263.123 395.633 262.261 399.086C261.317 402.86 266.621 407.539 269.14 409.527C272.932 412.518 277.453 414.578 282.095 415.845L282.098 415.842Z" fill="white"/>
<path fill-rule="evenodd" clip-rule="evenodd" d="M375.312 403.955C370.607 405.196 365.929 406.43 361.433 408.18C353.17 411.399 345.595 416.367 339.354 422.665L338.712 422.029C345.043 415.642 352.725 410.603 361.105 407.339L361.106 407.339C365.652 405.569 370.378 404.323 375.073 403.084C375.474 402.979 375.873 402.873 376.273 402.767C381.371 401.418 386.415 400.026 391.199 397.928L391.562 398.755C386.706 400.884 381.599 402.292 376.504 403.64C376.106 403.745 375.709 403.85 375.312 403.955Z" fill="#DFB7C3"/>
<path fill-rule="evenodd" clip-rule="evenodd" d="M361.996 400.118C357.291 401.359 352.613 402.593 348.117 404.343C339.854 407.562 332.279 412.53 326.038 418.828L325.396 418.192C331.727 411.805 339.409 406.766 347.79 403.502L347.79 403.502C352.336 401.732 357.062 400.485 361.758 399.247C362.158 399.142 362.557 399.036 362.957 398.93C368.055 397.581 373.099 396.189 377.883 394.091L378.246 394.918C373.39 397.047 368.283 398.455 363.188 399.803C362.79 399.908 362.393 400.013 361.996 400.118Z" fill="#DFB7C3"/>
<path d="M433.397 429.075C445.8 429.075 455.855 425.791 455.855 421.74C455.855 417.689 445.8 414.405 433.397 414.405C420.994 414.405 410.94 417.689 410.94 421.74C410.94 425.791 420.994 429.075 433.397 429.075Z" fill="#DFB7C3"/>
<path d="M440.661 322.9C439.509 319.765 438.778 316.474 438.487 313.147C438.349 311.565 438.313 309.963 438.609 308.403C438.907 306.834 439.534 305.351 440.157 303.882C441.22 301.375 442.283 298.867 443.47 296.418C445.319 292.61 447.481 288.913 448.644 284.844C449.35 282.368 449.671 279.802 449.989 277.247L450.74 271.203C453.386 275.908 454.099 281.468 454.072 286.866C454.031 295.66 452.149 304.44 448.585 312.477C446.59 316.975 444.087 321.223 441.586 325.462" fill="#F7E3D3"/>
<path d="M441.137 321.173C443.636 316.935 446.141 312.687 448.136 308.189C451.7 300.151 453.58 291.371 453.623 282.578C453.648 277.179 452.937 271.62 450.292 266.914L449.54 272.959C449.222 275.513 448.901 278.08 448.195 280.556C447.035 284.625 444.87 288.322 443.022 292.13C441.832 294.579 440.769 297.088 439.708 299.594C439.085 301.063 438.458 302.546 438.16 304.115C437.864 305.674 437.901 307.279 438.038 308.859C438.327 312.186 439.061 315.474 440.212 318.612" fill="white"/>
<path d="M440.356 289.875C440.365 288.101 440.41 286.207 441.417 284.745C441.546 284.56 441.697 284.375 441.909 284.298C442.241 284.178 442.622 284.368 442.832 284.652C443.042 284.937 443.119 285.296 443.187 285.641C444.482 292.297 444.338 299.138 444.189 305.918C444.173 306.588 444.155 307.275 443.907 307.897C443.606 308.647 442.986 309.249 442.318 309.683C441.194 310.41 440.882 308.01 440.735 306.97C440.442 304.893 440.686 304.367 440.562 302.275C440.318 298.147 440.338 294.008 440.358 289.875H440.356Z" fill="#F2D179"/>
<path fill-rule="evenodd" clip-rule="evenodd" d="M442.033 317.984V307.363H442.936V317.984H442.033Z" fill="#F2D179"/>
<path fill-rule="evenodd" clip-rule="evenodd" d="M438.262 320.84C438.262 320.84 438.262 320.84 438.701 320.738C439.141 320.636 439.141 320.636 439.141 320.637L439.143 320.642L439.146 320.657C439.149 320.671 439.154 320.691 439.16 320.718C439.172 320.772 439.19 320.852 439.213 320.958C439.259 321.169 439.327 321.484 439.412 321.899C439.583 322.727 439.826 323.955 440.112 325.553C440.685 328.749 441.434 333.427 442.14 339.361C443.553 351.229 444.796 368.124 444.118 388.238L443.216 388.208C443.892 368.147 442.652 351.299 441.244 339.468C440.54 333.553 439.793 328.892 439.223 325.712C438.938 324.122 438.698 322.902 438.528 322.081C438.444 321.67 438.377 321.359 438.331 321.151C438.308 321.047 438.291 320.969 438.279 320.917C438.273 320.891 438.269 320.871 438.266 320.858L438.263 320.844L438.262 320.84Z" fill="#78B385"/>
<path d="M439.844 312.192C438.623 307.491 436.734 302.869 433.576 299.178C433.549 301.966 433.538 304.753 433.542 307.541C433.545 309.051 433.552 310.563 433.743 312.059C434.019 314.217 434.669 316.305 435.323 318.379C435.953 320.381 436.592 322.388 437.425 324.315C437.953 325.536 438.558 326.721 439.201 327.883C439.738 328.854 440.327 330.393 441.164 331.093C441.988 330.517 441.638 327.626 441.645 326.685C441.657 325.046 441.598 323.408 441.465 321.776C441.205 318.542 440.663 315.332 439.849 312.192H439.844Z" fill="#78B385"/>
<path d="M440.464 319.058C441.41 317.149 442.685 315.422 443.951 313.709C447.396 309.049 450.853 304.374 454.835 300.163C455.498 302.289 455.047 304.577 454.839 306.794C454.383 311.644 455.119 316.628 453.91 321.345C453.108 324.466 451.488 327.319 449.678 329.985C448.479 331.752 443.922 338.731 441.347 336.442C438.783 334.163 438.442 328.552 438.711 325.428C438.9 323.22 439.483 321.045 440.467 319.058H440.464Z" fill="#92CAA3"/>
<path fill-rule="evenodd" clip-rule="evenodd" d="M447.171 321.699C446.637 322.875 446.105 324.046 445.616 325.228C444.053 329.002 442.902 332.945 442.192 336.967L441.748 336.888C442.464 332.834 443.624 328.86 445.199 325.055L445.199 325.055C445.691 323.865 446.226 322.687 446.76 321.512L446.799 321.427C447.321 320.28 447.841 319.136 448.323 317.983C449.311 315.619 450.134 313.226 450.472 310.711L450.919 310.772C450.573 313.343 449.734 315.778 448.74 318.157C448.255 319.317 447.732 320.466 447.211 321.611L447.171 321.699Z" fill="#78B385"/>
<path d="M434.639 341.728H448.858L459.724 414.035C460.538 419.458 456.338 424.336 450.856 424.336H436.607C431.317 424.336 427.175 419.781 427.681 414.513L434.641 341.728H434.639Z" fill="#A4B2D9"/>
<path d="M51.9503 215.989C50.6886 216.221 49.4202 216.424 48.1495 216.598L48.6889 216.526C43.9266 217.165 39.1101 217.375 34.3116 217.138C33.0138 217.074 31.7093 217 30.4182 216.833L30.9577 216.905C30.1271 216.792 29.3055 216.621 28.5268 216.3L29.0121 216.506C28.5584 216.312 28.1341 216.068 27.7414 215.768L28.1522 216.086C27.7279 215.752 27.3554 215.366 27.0191 214.944L27.3374 215.355C26.5181 214.296 25.9651 213.068 25.4483 211.84L25.6536 212.326C24.8027 210.306 23.9767 208.238 23.6697 206.053L23.7419 206.593C23.6291 205.728 23.6043 204.859 23.7149 203.993L23.6426 204.532C23.7329 203.893 23.8977 203.273 24.1437 202.677L23.9383 203.162C24.1821 202.593 24.4913 202.065 24.8637 201.573L24.5454 201.984C25.033 201.354 25.6062 200.803 26.236 200.316L25.8252 200.634C27.0643 199.686 28.4659 198.989 29.8991 198.384L29.4139 198.589C30.8064 198.005 32.2306 197.513 33.7338 197.31L33.1944 197.382C33.9302 197.287 34.6705 197.26 35.4063 197.355L34.8668 197.282C35.3228 197.346 35.7651 197.456 36.1917 197.63L35.7065 197.425C36.0134 197.558 36.3001 197.72 36.5664 197.921L36.1556 197.603C36.4061 197.799 36.6273 198.023 36.8237 198.273L36.5055 197.863C36.7041 198.127 36.8666 198.411 36.9952 198.713L36.7898 198.228C36.9275 198.576 37.0178 198.932 37.0697 199.303L36.9975 198.763C37.0584 199.264 37.0494 199.763 36.9862 200.264L37.0584 199.725C36.9614 200.42 36.7718 201.095 36.5032 201.74L36.7086 201.255C36.4242 201.921 36.054 202.541 35.6139 203.117L35.9322 202.706C35.3927 203.401 34.7608 204.013 34.0679 204.552L34.4786 204.234C33.5307 204.959 32.4857 205.541 31.3888 206.004L31.874 205.798C30.434 206.399 28.9173 206.794 27.3735 207.006L27.9129 206.934C26.2202 207.157 24.489 207.166 22.794 206.947L23.3334 207.019C22.1282 206.857 20.9432 206.568 19.817 206.101L20.3022 206.306C19.4558 205.947 18.6614 205.494 17.9323 204.934L18.3431 205.252C17.6209 204.688 16.9776 204.031 16.4156 203.307L16.7339 203.717C15.9845 202.738 15.3887 201.657 14.9102 200.521L15.1156 201.007C14.2895 199.023 13.8178 196.915 13.5289 194.791L13.6011 195.33C13.0639 191.306 13.0639 187.223 13.5966 183.199L13.5244 183.738C13.6169 183.05 13.7252 182.364 13.8471 181.682C13.9464 181.133 13.9329 180.612 13.6417 180.116C13.3957 179.693 12.9127 179.292 12.4274 179.181C11.9083 179.064 11.3238 179.089 10.8611 179.386C10.439 179.657 10.0192 180.086 9.92665 180.601C9.03286 185.566 8.89744 190.597 9.57004 195.599C10.1117 199.632 11.3012 203.72 14.0683 206.816C17.1198 210.227 21.8054 211.335 26.2269 211.143C28.0912 211.062 29.9736 210.755 31.7476 210.166C33.639 209.54 35.3679 208.647 36.9365 207.423C38.3021 206.36 39.487 204.963 40.1844 203.372C41.1707 201.128 41.568 198.427 40.2747 196.206C38.0921 192.461 33.1109 192.884 29.6034 194.163C27.7504 194.84 25.8681 195.648 24.243 196.779C23.3944 197.371 22.5683 198.03 21.9002 198.824C21.0877 199.79 20.4805 200.81 20.0652 202.006C19.264 204.306 19.5393 206.879 20.1826 209.179C20.4828 210.254 20.871 211.301 21.2908 212.335C21.7106 213.368 22.1485 214.461 22.6563 215.485C23.1641 216.51 23.7397 217.39 24.4732 218.205C25.3399 219.169 26.4255 219.823 27.6218 220.288C28.7367 220.72 29.9578 220.862 31.1405 220.977C32.3232 221.092 33.5059 221.164 34.6908 221.216C39.6608 221.437 44.6263 221.155 49.5511 220.469C50.7135 220.306 51.8713 220.119 53.0247 219.905C53.5009 219.817 54.002 219.374 54.239 218.97C54.494 218.535 54.6023 217.894 54.4443 217.404C54.2864 216.914 53.9817 216.438 53.5099 216.19C53.0044 215.921 52.5078 215.88 51.9436 215.984L51.9503 215.989Z" fill="#A4B2D9"/>
<path d="M156.893 188.318C158.107 188.318 159.385 187.79 160.245 186.93C160.707 186.501 161.035 185.993 161.224 185.404C161.52 184.84 161.658 184.23 161.633 183.578C161.579 182.352 161.175 181.082 160.245 180.226C159.315 179.371 158.177 178.838 156.893 178.838C155.679 178.838 154.401 179.366 153.541 180.226C153.079 180.655 152.751 181.163 152.562 181.752C152.266 182.316 152.128 182.926 152.153 183.578C152.207 184.803 152.611 186.074 153.541 186.93C154.471 187.785 155.609 188.318 156.893 188.318Z" fill="white"/>
<path fill-rule="evenodd" clip-rule="evenodd" d="M142.043 153.679C144.748 150.1 144.037 145.004 140.456 142.299L143.177 138.697C148.746 142.903 149.854 150.83 145.644 156.401C141.437 161.97 133.511 163.077 127.94 158.867L130.662 155.266C134.242 157.972 139.338 157.261 142.042 153.68L142.043 153.679Z" fill="#8B3DD6"/>
<path fill-rule="evenodd" clip-rule="evenodd" d="M65.389 149.732C65.9904 149.732 66.5397 150.073 66.8058 150.612L69.0022 155.063L73.913 155.777C74.5081 155.863 75.0026 156.28 75.1884 156.852C75.3743 157.424 75.2194 158.051 74.7888 158.471L71.235 161.936L72.0742 166.828C72.1758 167.42 71.9322 168.019 71.4458 168.373C70.9593 168.727 70.3143 168.773 69.782 168.493L65.389 166.185L60.996 168.493C60.4637 168.773 59.8187 168.727 59.3323 168.373C58.8458 168.019 58.6022 167.42 58.7039 166.828L59.543 161.936L55.9892 158.471C55.5587 158.051 55.4037 157.424 55.5896 156.852C55.7755 156.28 56.2699 155.863 56.865 155.777L61.7758 155.063L63.9722 150.612C64.2384 150.073 64.7876 149.732 65.389 149.732ZM65.389 154.882L64.2418 157.206C64.0117 157.673 63.5668 157.996 63.0522 158.071L60.487 158.443L62.3435 160.253C62.7158 160.616 62.8857 161.139 62.7978 161.652L62.3594 164.207L64.654 163.001C65.1142 162.76 65.6639 162.76 66.124 163.001L68.4187 164.207L67.9803 161.652C67.8924 161.139 68.0622 160.616 68.4345 160.253L70.291 158.443L67.7259 158.071C67.2112 157.996 66.7663 157.673 66.5362 157.206L65.389 154.882Z" fill="white"/>
<path d="M192.539 103.661C177.187 103.661 164.742 116.106 164.742 131.459C164.742 138.553 167.4 145.026 171.774 149.937L164.536 158.645L175.993 153.797C180.615 157.225 186.339 159.254 192.537 159.254C207.889 159.254 220.334 146.809 220.334 131.456C220.334 116.104 207.889 103.659 192.537 103.659L192.539 103.661Z" fill="#FB9CCF"/>
<path d="M182.053 135.429C184.19 135.429 185.922 133.697 185.922 131.56C185.922 129.424 184.19 127.692 182.053 127.692C179.917 127.692 178.185 129.424 178.185 131.56C178.185 133.697 179.917 135.429 182.053 135.429Z" fill="white"/>
<path d="M193.455 135.429C195.592 135.429 197.324 133.697 197.324 131.56C197.324 129.424 195.592 127.692 193.455 127.692C191.319 127.692 189.587 129.424 189.587 131.56C189.587 133.697 191.319 135.429 193.455 135.429Z" fill="white"/>
<path d="M204.86 135.429C206.997 135.429 208.729 133.697 208.729 131.56C208.729 129.424 206.997 127.692 204.86 127.692C202.724 127.692 200.992 129.424 200.992 131.56C200.992 133.697 202.724 135.429 204.86 135.429Z" fill="white"/>
<defs>
<radialGradient id="paint0_radial_4119_882" cx="0" cy="0" r="1" gradientUnits="userSpaceOnUse" gradientTransform="translate(370.725 263.544) scale(163.398 163.398)">
<stop stop-color="#701EE2"/>
<stop offset="1" stop-color="#9081E3"/>
</radialGradient>
</defs>
</svg>
