<svg width="252" height="44" viewBox="0 0 252 44" fill="none" xmlns="http://www.w3.org/2000/svg">
<rect x="2.62256" y="9.15527" width="34.754" height="33.2397" rx="5.74272" fill="#02A39F"/>
<path d="M26.2058 35.7536C26.0922 35.7536 26 35.6614 26 35.5477V28.2058C26 28.0922 26.0922 28 26.2058 28H27.4986C27.6123 28 27.7045 28.0922 27.7045 28.2058V35.5477C27.7045 35.6614 27.6123 35.7536 27.4986 35.7536H26.2058ZM27.5086 35.7536C27.3949 35.7536 27.3028 35.6614 27.3028 35.5477V34.4658C27.3028 34.3521 27.3949 34.26 27.5086 34.26H31.2984C31.4121 34.26 31.5043 34.3521 31.5043 34.4658V35.5477C31.5043 35.6614 31.4121 35.7536 31.2984 35.7536H27.5086ZM27.5086 32.5138C27.3949 32.5138 27.3028 32.4216 27.3028 32.3079V31.2809C27.3028 31.1672 27.3949 31.0751 27.5086 31.0751H30.9185C31.0321 31.0751 31.1243 31.1672 31.1243 31.2809V32.3079C31.1243 32.4216 31.0321 32.5138 30.9185 32.5138H27.5086ZM27.5086 29.4826C27.3949 29.4826 27.3028 29.3905 27.3028 29.2768V28.2058C27.3028 28.0922 27.3949 28 27.5086 28H31.2442C31.3578 28 31.45 28.0922 31.45 28.2058V29.2768C31.45 29.3905 31.3578 29.4826 31.2442 29.4826H27.5086Z" fill="white"/>
<path d="M20.5026 35.6569C20.4172 35.6569 20.3406 35.6041 20.3102 35.5243L17.514 28.1824C17.4627 28.0477 17.5622 27.9033 17.7064 27.9033H19.0867C19.1736 27.9033 19.2512 27.9579 19.2805 28.0397L21.3803 33.899C21.4283 34.0331 21.3289 34.1743 21.1865 34.1743H21.0237C20.8808 34.1743 20.7814 34.0323 20.8302 33.8981L22.9604 28.0388C22.99 27.9575 23.0673 27.9033 23.1539 27.9033H24.5121C24.6565 27.9033 24.7561 28.0483 24.7041 28.1831L21.8771 35.525C21.8465 35.6045 21.7702 35.6569 21.685 35.6569H20.5026Z" fill="white"/>
<path d="M14.9834 35.6549C14.8697 35.6549 14.7776 35.5628 14.7776 35.4491V28.1072C14.7776 27.9935 14.8697 27.9014 14.9834 27.9014H16.2766C16.3903 27.9014 16.4824 27.9935 16.4824 28.1072V35.4491C16.4824 35.5628 16.3903 35.6549 16.2766 35.6549H14.9834Z" fill="white"/>
<path d="M8.9573 35.6569C8.84362 35.6569 8.75146 35.5647 8.75146 35.451V28.1092C8.75146 27.9955 8.84362 27.9033 8.9573 27.9033H10.2505C10.3642 27.9033 10.4563 27.9955 10.4563 28.1092V35.451C10.4563 35.5647 10.3642 35.6569 10.2505 35.6569H8.9573ZM10.2713 35.6569C10.1576 35.6569 10.0654 35.5647 10.0654 35.451V34.3472C10.0654 34.2335 10.1576 34.1413 10.2713 34.1413H13.6494C13.7631 34.1413 13.8552 34.2335 13.8552 34.3472V35.451C13.8552 35.5647 13.7631 35.6569 13.6494 35.6569H10.2713Z" fill="white"/>
<ellipse cx="15.6202" cy="24.7244" rx="1.59114" ry="1.6092" fill="white"/>
<mask id="mask0_523_2183" style="mask-type:alpha" maskUnits="userSpaceOnUse" x="-1" y="4" width="41" height="14">
<rect x="-0.000152588" y="4.5" width="39.9999" height="12.6311" rx="5.74272" fill="#212938"/>
</mask>
<g mask="url(#mask0_523_2183)">
<path d="M39.9921 16.7277V6.76733C39.9921 5.52298 39.0013 4.51858 37.7739 4.51858H2.21811C0.99072 4.513 0 5.52298 0 6.76733V16.7333H39.9921V16.7277Z" fill="white"/>
<path d="M7.15078 4.50098H2.21863C0.991093 4.50098 0.000259399 5.51096 0.000259399 6.75531V11.755C2.38377 9.33886 4.76727 6.91713 7.15078 4.50098Z" fill="#02A39F"/>
<path d="M23.1116 4.50098H13.7328L1.67352 16.7268H11.0523C15.0703 12.6534 19.0937 8.57998 23.1116 4.50098Z" fill="#02A39F"/>
<path d="M38.8093 4.77468C38.5011 4.60728 38.1543 4.50684 37.7746 4.50684H29.6892C29.6892 4.50684 29.6727 4.52916 29.6617 4.54032C25.6548 8.60258 21.6423 12.6704 17.6354 16.7327H27.0142C30.9441 12.7485 34.8795 8.7644 38.8093 4.77468Z" fill="#02A39F"/>
<path d="M33.5965 16.7262H39.9999V10.2422C37.8691 12.4072 35.7328 14.5667 33.5965 16.7262Z" fill="#02A39F"/>
<g opacity="0.3">
<path opacity="0.2" d="M39.9921 10.5674H0V10.9022H39.9921V10.5674Z" fill="black"/>
<path d="M39.9921 10.4844H0V10.8192H39.9921V10.4844Z" fill="#02A39F"/>
</g>
</g>
<path d="M37.3766 16.4668H2.62256V17.1541H37.3766V16.4668Z" fill="#008F8C"/>
<path d="M59.168 20.732V26.204C63.552 26.172 67.104 26.012 71.136 25.404L71.52 28.764C66.912 29.468 62.784 29.596 57.504 29.596H54.944V9.212H69.856V12.636H59.168V17.436H68.64V20.732H59.168ZM73.664 6.78H77.92V36.284H73.664V6.78ZM93.1815 14.94V15.964C93.1815 20.188 95.4535 24.988 100.19 27.1L97.9495 30.332C94.7175 28.892 92.4135 26.14 91.1335 22.812C89.8855 26.332 87.5815 29.308 84.2535 30.812L82.0135 27.58C86.7495 25.372 88.9575 20.38 88.9575 15.964V14.94H83.0055V11.58H88.9575V7.484H93.1815V11.58H99.0375V14.94H93.1815ZM102.686 6.78H106.91V36.316H102.686V21.468H97.4695V18.044H102.686V6.78ZM111.771 33.5V10.908H116.795V33.5H111.771ZM115.643 33.5V29.084H126.811V33.5H115.643ZM129.069 33.5V10.908H134.093V33.5H129.069ZM144.844 33.5L136.14 10.908H141.516L148.14 29.18H145.932L152.652 10.908H157.964L149.164 33.5H144.844ZM159.976 33.5V10.908H165V33.5H159.976ZM163.816 33.5V29.148H176.2V33.5H163.816ZM163.816 24.06V19.868H175.08V24.06H163.816ZM163.816 15.228V10.908H176.04V15.228H163.816Z" fill="black"/>
<g clip-path="url(#clip0_523_2183)">
<path d="M199.42 35.7744L198.857 35.3893C196.112 33.5033 193.95 31.331 192.429 28.9118C190.82 26.3544 190 23.6291 190 20.815C190 18.0009 190.81 15.2953 192.409 12.7379C193.96 10.2595 196.191 8.0378 199.025 6.12221C204.89 2.16266 212.701 -0.0195312 221.005 -0.0195312C229.309 -0.0195312 237.11 2.16266 242.975 6.12221C245.809 8.0378 248.031 10.2595 249.581 12.7379C251.18 15.2953 252 18.0107 252 20.815C252 23.6193 251.19 26.3347 249.581 28.8921C248.031 31.3705 245.809 33.5922 242.975 35.5078C237.11 39.4673 229.309 41.6495 221.005 41.6495C215.801 41.6495 210.953 40.7608 206.184 38.944L205.799 38.7959L196.428 44.0193L199.42 35.7744Z" fill="#02A39F"/>
<path d="M233.109 31.301C232.761 31.301 232.479 31.019 232.479 30.6711V27.76C232.479 27.3509 232.347 27.0143 232.082 26.7501C231.827 26.4859 231.494 26.3538 231.085 26.3538C230.813 26.3538 230.57 26.4135 230.357 26.5328C230.144 26.6521 229.977 26.8183 229.858 27.0313C229.811 27.1156 229.773 27.2045 229.745 27.2981C229.683 27.4988 229.454 27.6341 229.27 27.5318C229.183 27.4833 229.128 27.3914 229.134 27.2919C229.155 26.8891 229.256 26.5295 229.436 26.2132C229.641 25.8467 229.922 25.5612 230.28 25.3567C230.646 25.1436 231.055 25.0371 231.507 25.0371C231.967 25.0371 232.376 25.1564 232.734 25.395C233.092 25.6252 233.374 25.9277 233.578 26.3027C233.783 26.6691 233.885 27.0526 233.885 27.4532V30.6711C233.885 31.019 233.603 31.301 233.255 31.301H233.109ZM228.903 31.301C228.555 31.301 228.273 31.019 228.273 30.6711V25.7949C228.273 25.447 228.555 25.1649 228.903 25.1649H229.049C229.397 25.1649 229.679 25.447 229.679 25.7949V30.6711C229.679 31.019 229.397 31.301 229.049 31.301H228.903Z" fill="white"/>
<path d="M224.138 31.4289C223.541 31.4289 223 31.2882 222.514 31.007C222.029 30.7172 221.641 30.3295 221.351 29.8437C221.07 29.3579 220.929 28.8168 220.929 28.2202C220.929 27.6236 221.07 27.0867 221.351 26.6095C221.641 26.1322 222.029 25.753 222.514 25.4717C223 25.182 223.541 25.0371 224.138 25.0371C224.743 25.0371 225.288 25.1777 225.774 25.459C226.26 25.7402 226.643 26.1237 226.925 26.6095C227.214 27.0867 227.359 27.6236 227.359 28.2202C227.359 28.8168 227.214 29.3579 226.925 29.8437C226.643 30.3295 226.26 30.7172 225.774 31.007C225.288 31.2882 224.743 31.4289 224.138 31.4289ZM224.138 30.0738C224.487 30.0738 224.794 29.9971 225.058 29.8437C225.331 29.6818 225.54 29.4602 225.685 29.179C225.838 28.8977 225.915 28.5781 225.915 28.2202C225.915 27.8623 225.838 27.5469 225.685 27.2742C225.531 27.0015 225.322 26.7884 225.058 26.635C224.794 26.4731 224.487 26.3922 224.138 26.3922C223.797 26.3922 223.49 26.4731 223.217 26.635C222.953 26.7884 222.744 27.0015 222.591 27.2742C222.446 27.5469 222.374 27.8623 222.374 28.2202C222.374 28.5781 222.446 28.8977 222.591 29.179C222.744 29.4602 222.953 29.6818 223.217 29.8437C223.49 29.9971 223.797 30.0738 224.138 30.0738Z" fill="white"/>
<path d="M217.191 31.4289C216.594 31.4289 216.053 31.2882 215.567 31.007C215.081 30.7172 214.694 30.3295 214.404 29.8437C214.123 29.3579 213.982 28.8168 213.982 28.2202C213.982 27.6236 214.123 27.0867 214.404 26.6095C214.694 26.1322 215.081 25.753 215.567 25.4717C216.053 25.182 216.594 25.0371 217.191 25.0371C217.796 25.0371 218.341 25.1777 218.827 25.459C219.313 25.7402 219.696 26.1237 219.977 26.6095C220.267 27.0867 220.412 27.6236 220.412 28.2202C220.412 28.8168 220.267 29.3579 219.977 29.8437C219.696 30.3295 219.313 30.7172 218.827 31.007C218.341 31.2882 217.796 31.4289 217.191 31.4289ZM217.191 30.0738C217.54 30.0738 217.847 29.9971 218.111 29.8437C218.384 29.6818 218.593 29.4602 218.737 29.179C218.891 28.8977 218.968 28.5781 218.968 28.2202C218.968 27.8623 218.891 27.5469 218.737 27.2742C218.584 27.0015 218.375 26.7884 218.111 26.635C217.847 26.4731 217.54 26.3922 217.191 26.3922C216.85 26.3922 216.543 26.4731 216.27 26.635C216.006 26.7884 215.797 27.0015 215.644 27.2742C215.499 27.5469 215.426 27.8623 215.426 28.2202C215.426 28.5781 215.499 28.8977 215.644 29.179C215.797 29.4602 216.006 29.6818 216.27 29.8437C216.543 29.9971 216.85 30.0738 217.191 30.0738Z" fill="white"/>
<path d="M210.29 31.4297C209.582 31.4297 208.981 31.3019 208.487 31.0462C208.144 30.8685 207.825 30.6333 207.531 30.3404C207.304 30.1146 207.328 29.7505 207.555 29.5243L207.62 29.4585C207.899 29.1804 208.358 29.2302 208.654 29.4889C208.774 29.5939 208.902 29.6869 209.037 29.7679C209.378 29.9639 209.812 30.0619 210.341 30.0619C210.835 30.0619 211.227 29.9596 211.517 29.7551C211.815 29.5505 211.964 29.2693 211.964 28.9114C211.964 28.6131 211.888 28.3702 211.734 28.1827C211.581 27.9952 211.376 27.8418 211.121 27.7225C210.873 27.5947 210.596 27.4839 210.29 27.3901C209.991 27.2879 209.689 27.1771 209.382 27.0578C209.084 26.9299 208.807 26.7723 208.551 26.5848C208.304 26.3973 208.104 26.1544 207.95 25.8561C207.797 25.5578 207.72 25.1786 207.72 24.7184C207.72 24.19 207.848 23.7426 208.104 23.3761C208.368 23.0011 208.722 22.7156 209.165 22.5196C209.608 22.3236 210.102 22.2256 210.648 22.2256C211.236 22.2256 211.76 22.3406 212.22 22.5707C212.499 22.7075 212.746 22.8669 212.961 23.0488C213.207 23.2568 213.185 23.6258 212.957 23.8538L212.835 23.9758C212.578 24.2327 212.163 24.2088 211.868 23.9975C211.765 23.9244 211.661 23.8621 211.555 23.8107C211.283 23.6659 210.967 23.5934 210.609 23.5934C210.166 23.5934 209.817 23.6829 209.561 23.8619C209.314 24.0408 209.19 24.2923 209.19 24.6161C209.19 24.8888 209.267 25.1104 209.42 25.2808C209.574 25.4428 209.774 25.5834 210.021 25.7027C210.277 25.8135 210.554 25.92 210.852 26.0223C211.159 26.1246 211.461 26.2396 211.76 26.3674C212.067 26.4953 212.344 26.6615 212.591 26.866C212.846 27.062 213.051 27.3177 213.204 27.633C213.358 27.9483 213.434 28.3446 213.434 28.8219C213.434 29.623 213.149 30.2579 212.578 30.7266C212.015 31.1953 211.253 31.4297 210.29 31.4297Z" fill="white"/>
<path d="M238.102 22.4817C237.455 22.4817 236.888 22.3623 236.402 22.1237C236.083 21.9725 235.804 21.779 235.566 21.5432C235.349 21.3281 235.384 20.9818 235.6 20.7657L235.651 20.7149C235.915 20.4501 236.347 20.484 236.65 20.7044C236.759 20.7835 236.872 20.8518 236.99 20.9093C237.306 21.0627 237.685 21.1394 238.128 21.1394C238.682 21.1394 239.121 20.9945 239.445 20.7047C239.769 20.4235 239.93 20.0357 239.93 19.5415V18.089C239.93 18.0517 239.934 18.0145 239.94 17.9779L240.154 16.7886C240.167 16.7154 240.167 16.6405 240.154 16.5673L239.94 15.3647C239.934 15.3284 239.93 15.2915 239.93 15.2546V14.291C239.93 13.9431 240.212 13.661 240.56 13.661H240.707C241.055 13.661 241.337 13.9431 241.337 14.291V19.5415C241.337 20.1295 241.2 20.6408 240.928 21.0755C240.655 21.5186 240.276 21.8638 239.79 22.1109C239.304 22.3581 238.742 22.4817 238.102 22.4817ZM238.038 19.6693C237.493 19.6693 236.999 19.5372 236.556 19.273C236.121 19.0003 235.776 18.6296 235.52 18.1608C235.273 17.6921 235.149 17.168 235.149 16.5885C235.149 16.0089 235.273 15.4891 235.52 15.0289C235.776 14.5687 236.121 14.2065 236.556 13.9423C236.999 13.6696 237.493 13.5332 238.038 13.5332C238.524 13.5332 238.95 13.6312 239.317 13.8272C239.683 14.0232 239.969 14.296 240.173 14.6454C240.378 14.9863 240.48 15.3868 240.48 15.847V17.3555C240.48 17.8072 240.374 18.2077 240.161 18.5571C239.956 18.9065 239.671 19.1793 239.304 19.3753C238.938 19.5713 238.516 19.6693 238.038 19.6693ZM238.32 18.3398C238.661 18.3398 238.959 18.2674 239.215 18.1225C239.47 17.9776 239.666 17.7773 239.803 17.5217C239.947 17.2575 240.02 16.9507 240.02 16.6012C240.02 16.2518 239.947 15.9493 239.803 15.6936C239.666 15.4294 239.47 15.2249 239.215 15.08C238.959 14.9351 238.661 14.8627 238.32 14.8627C237.979 14.8627 237.676 14.9351 237.412 15.08C237.156 15.2249 236.956 15.4294 236.811 15.6936C236.666 15.9493 236.594 16.2518 236.594 16.6012C236.594 16.9421 236.666 17.2447 236.811 17.5089C236.956 17.7731 237.156 17.9776 237.412 18.1225C237.676 18.2674 237.979 18.3398 238.32 18.3398Z" fill="white"/>
<path d="M233.595 19.7971C233.248 19.7971 232.966 19.5151 232.966 19.1672V16.2561C232.966 15.847 232.833 15.5104 232.569 15.2462C232.314 14.982 231.981 14.8499 231.572 14.8499C231.299 14.8499 231.057 14.9096 230.843 15.0289C230.63 15.1482 230.464 15.3144 230.345 15.5274C230.298 15.6117 230.26 15.7006 230.231 15.7942C230.17 15.9949 229.94 16.1302 229.757 16.0279C229.67 15.9794 229.615 15.8875 229.62 15.788C229.641 15.3852 229.742 15.0256 229.923 14.7093C230.128 14.3428 230.409 14.0573 230.767 13.8528C231.133 13.6397 231.542 13.5332 231.994 13.5332C232.454 13.5332 232.863 13.6525 233.221 13.8911C233.579 14.1212 233.86 14.4238 234.065 14.7988C234.269 15.1652 234.372 15.5487 234.372 15.9493V19.1672C234.372 19.5151 234.09 19.7971 233.742 19.7971H233.595ZM229.39 19.7971C229.042 19.7971 228.76 19.5151 228.76 19.1672V14.291C228.76 13.9431 229.042 13.661 229.39 13.661H229.536C229.884 13.661 230.166 13.9431 230.166 14.291V19.1672C230.166 19.5151 229.884 19.7971 229.536 19.7971H229.39Z" fill="white"/>
<path d="M226.662 19.7971C226.314 19.7971 226.032 19.5151 226.032 19.1672V14.2909C226.032 13.943 226.314 13.661 226.662 13.661H226.809C227.156 13.661 227.438 13.943 227.438 14.2909V19.1672C227.438 19.5151 227.156 19.7971 226.809 19.7971H226.662ZM226.735 12.5361C226.497 12.5361 226.296 12.4551 226.135 12.2932C225.981 12.1312 225.904 11.931 225.904 11.6923C225.904 11.4537 225.981 11.2534 226.135 11.0915C226.296 10.9296 226.497 10.8486 226.735 10.8486C226.983 10.8486 227.183 10.9296 227.336 11.0915C227.49 11.2534 227.566 11.4537 227.566 11.6923C227.566 11.931 227.49 12.1312 227.336 12.2932C227.183 12.4551 226.983 12.5361 226.735 12.5361Z" fill="white"/>
<path d="M215.895 19.7971C215.547 19.7971 215.265 19.5151 215.265 19.1672V14.291C215.265 13.9431 215.547 13.661 215.895 13.661H216.041C216.389 13.661 216.671 13.9431 216.671 14.291V19.1672C216.671 19.5151 216.389 19.7971 216.041 19.7971H215.895ZM219.973 19.7971C219.625 19.7971 219.343 19.5151 219.343 19.1672V16.141C219.343 15.732 219.215 15.4166 218.959 15.1951C218.703 14.965 218.388 14.8499 218.013 14.8499C217.757 14.8499 217.527 14.901 217.323 15.0033C217.127 15.1056 216.969 15.2547 216.85 15.4507C216.805 15.5212 216.769 15.5977 216.741 15.6802C216.673 15.8789 216.445 16.0151 216.262 15.9129C216.175 15.8643 216.12 15.7724 216.125 15.6729C216.146 15.272 216.247 14.921 216.428 14.6198C216.632 14.2789 216.909 14.0147 217.259 13.8272C217.608 13.6312 218 13.5332 218.435 13.5332C218.87 13.5332 219.262 13.6269 219.611 13.8144C219.96 14.0019 220.237 14.2661 220.442 14.607C220.647 14.9479 220.749 15.357 220.749 15.8342V19.1672C220.749 19.5151 220.467 19.7971 220.119 19.7971H219.973ZM224.05 19.7971C223.703 19.7971 223.421 19.5151 223.421 19.1672V16.141C223.421 15.732 223.293 15.4166 223.037 15.1951C222.781 14.965 222.466 14.8499 222.091 14.8499C221.844 14.8499 221.618 14.901 221.414 15.0033C221.209 15.1056 221.047 15.2547 220.928 15.4507C220.899 15.4961 220.874 15.5439 220.852 15.5942C220.744 15.8416 220.478 16.0362 220.226 15.9387C220.066 15.8769 219.964 15.716 219.995 15.5475C220.06 15.1983 220.183 14.8891 220.365 14.6198C220.595 14.2789 220.889 14.0147 221.247 13.8272C221.614 13.6312 222.014 13.5332 222.449 13.5332C222.892 13.5332 223.293 13.6269 223.651 13.8144C224.009 14.0019 224.294 14.2661 224.507 14.607C224.72 14.9479 224.827 15.357 224.827 15.8342V19.1672C224.827 19.5151 224.545 19.7971 224.197 19.7971H224.05Z" fill="white"/>
<path d="M211.129 19.925C210.533 19.925 209.991 19.7843 209.506 19.5031C209.02 19.2133 208.632 18.8256 208.342 18.3398C208.061 17.854 207.92 17.3129 207.92 16.7163C207.92 16.1197 208.061 15.5828 208.342 15.1056C208.632 14.6283 209.02 14.2491 209.506 13.9678C209.991 13.6781 210.533 13.5332 211.129 13.5332C211.734 13.5332 212.28 13.6738 212.765 13.9551C213.251 14.2363 213.635 14.6198 213.916 15.1056C214.206 15.5828 214.351 16.1197 214.351 16.7163C214.351 17.3129 214.206 17.854 213.916 18.3398C213.635 18.8256 213.251 19.2133 212.765 19.5031C212.28 19.7843 211.734 19.925 211.129 19.925ZM211.129 18.5699C211.478 18.5699 211.785 18.4932 212.049 18.3398C212.322 18.1779 212.531 17.9563 212.676 17.6751C212.829 17.3938 212.906 17.0742 212.906 16.7163C212.906 16.3584 212.829 16.043 212.676 15.7703C212.522 15.4976 212.314 15.2845 212.049 15.1311C211.785 14.9692 211.478 14.8883 211.129 14.8883C210.788 14.8883 210.481 14.9692 210.209 15.1311C209.944 15.2845 209.736 15.4976 209.582 15.7703C209.437 16.043 209.365 16.3584 209.365 16.7163C209.365 17.0742 209.437 17.3938 209.582 17.6751C209.736 17.9563 209.944 18.1779 210.209 18.3398C210.481 18.4932 210.788 18.5699 211.129 18.5699Z" fill="white"/>
<path d="M204.278 19.9239C203.63 19.9239 203.029 19.8088 202.475 19.5787C201.93 19.3401 201.453 19.012 201.043 18.5944C200.634 18.1682 200.319 17.6782 200.098 17.1243C199.876 16.5618 199.765 15.961 199.765 15.3218C199.765 14.6826 199.876 14.0861 200.098 13.5321C200.319 12.9696 200.634 12.4796 201.043 12.062C201.453 11.6444 201.93 11.3163 202.475 11.0777C203.029 10.839 203.63 10.7197 204.278 10.7197C205.002 10.7197 205.629 10.839 206.157 11.0777C206.492 11.2289 206.803 11.4144 207.09 11.6342C207.366 11.8457 207.364 12.2486 207.118 12.4946L207.032 12.5799C206.778 12.8339 206.365 12.8169 206.065 12.6193C205.92 12.5234 205.763 12.44 205.594 12.3688C205.219 12.2069 204.781 12.1259 204.278 12.1259C203.835 12.1259 203.43 12.2026 203.063 12.356C202.697 12.5094 202.377 12.731 202.105 13.0208C201.84 13.302 201.636 13.6386 201.491 14.0307C201.346 14.4227 201.274 14.8531 201.274 15.3218C201.274 15.7905 201.346 16.2209 201.491 16.6129C201.636 17.005 201.84 17.3458 202.105 17.6356C202.377 17.9168 202.697 18.1342 203.063 18.2876C203.43 18.441 203.835 18.5177 204.278 18.5177C204.823 18.5177 205.283 18.4367 205.658 18.2748C205.828 18.1995 205.985 18.1126 206.131 18.0141C206.429 17.8132 206.842 17.7969 207.096 18.0509L207.186 18.1407C207.43 18.3849 207.435 18.7846 207.161 18.9948C206.865 19.2222 206.539 19.4125 206.182 19.5659C205.629 19.8045 204.994 19.9239 204.278 19.9239Z" fill="white"/>
</g>
<defs>
<clipPath id="clip0_523_2183">
<rect width="62" height="44" fill="white" transform="translate(190)"/>
</clipPath>
</defs>
</svg>
