<svg xmlns="http://www.w3.org/2000/svg" width="48" height="49" viewBox="0 0 48 49" fill="none">
<path fill-rule="evenodd" clip-rule="evenodd" d="M9.47307 34.992C11.762 34.992 13.8697 35.5888 15.5014 36.591L15.626 5.55724C15.626 4.3749 16.5212 3.37272 17.711 3.23759L45.371 0.0171104C46.7761 -0.151796 48.0113 0.951726 47.9999 2.35928L47.7053 38.3251C47.7053 42.1987 43.4674 45.3291 38.2322 45.3291C32.9971 45.3291 28.7592 42.1874 28.7592 38.3251C28.7592 34.4628 33.0084 31.3211 38.2322 31.3211C40.8271 31.3211 43.1841 32.0981 44.8951 33.348L45.0311 9.75739L18.9688 13.2143V41.996C18.9688 45.8696 14.7195 49 9.4844 49C4.24928 49 0 45.8696 0 41.996C0 38.1224 4.24928 34.992 9.47307 34.992Z" fill="#C1D8D8"/>
</svg>