<svg width="308" height="174" viewBox="0 0 308 174" fill="none" xmlns="http://www.w3.org/2000/svg">
<mask id="path-1-inside-1_4218_73418" fill="white">
<path d="M0 0L308 0V174L0 174L0 0Z"/>
</mask>
<path d="M0 0L308 0V174L0 174L0 0Z" fill="#F2EEFB"/>
<path d="M0 0L0 -1L-1 -1V0L0 0ZM308 0L309 0V-1H308V0ZM0 1L308 1V-1L0 -1L0 1ZM307 0V174H309V0L307 0ZM1 174L1 0L-1 0L-1 174H1Z" fill="#F3ECFB" mask="url(#path-1-inside-1_4218_73418)"/>
<mask id="mask0_4218_73418" style="mask-type:alpha" maskUnits="userSpaceOnUse" x="0" y="0" width="308" height="174">
<path d="M0 0L308 0V174L0 174L0 0Z" fill="#F0ECF9"/>
</mask>
<g mask="url(#mask0_4218_73418)">
<path d="M124 119.5L163.5 123.5L189.5 59L364.515 210L256.5 234L124 119.5Z" fill="url(#paint0_linear_4218_73418)"/>
<path d="M154 126.803C182.719 126.803 206 109.163 206 87.4017C206 65.6408 182.719 48 154 48C125.281 48 102 65.6408 102 87.4017C102 109.163 125.281 126.803 154 126.803Z" fill="white"/>
<path d="M154 110.768C143.194 110.768 132.878 106.727 124.948 99.3884L123.164 97.7393C120.284 95.0737 118.63 91.2904 118.63 87.3637C118.63 79.5694 124.97 73.2302 132.764 73.2302H175.245C183.039 73.2302 189.378 79.5694 189.378 87.3637C189.378 91.2904 187.725 95.0695 184.844 97.7393L183.06 99.3884C175.131 106.727 164.81 110.768 154.008 110.768H154Z" fill="url(#paint1_radial_4218_73418)"/>
<path d="M154 74.4829H132.76C125.644 74.4829 119.875 80.2527 119.875 87.368C119.875 90.9572 121.372 94.3862 124.008 96.8241L125.792 98.4732C133.468 105.576 143.54 109.519 153.996 109.519C164.451 109.519 174.523 105.576 182.199 98.4732L183.984 96.8241C186.62 94.3862 188.117 90.9572 188.117 87.368C188.117 80.2527 182.347 74.4829 175.232 74.4829H153.991H154Z" fill="url(#paint2_radial_4218_73418)"/>
<path d="M146.185 95.2722L150.721 84.0051H152.5L157.019 95.2722H154.695L151.201 86.0245H152.003L148.461 95.2722H146.185ZM148.589 93.1726V91.3455H154.647V93.1726H148.589ZM158.029 95.2722V84.0051H160.209V95.2722H158.029Z" fill="white"/>
<path d="M107.972 69.0717C104.164 74.5504 102 80.7842 102 87.406C102 94.0278 104.164 100.262 107.972 105.74C111.591 101.295 113.885 94.7364 113.885 87.406C113.885 80.0756 111.591 73.5171 107.972 69.0717Z" fill="#9594BB"/>
<path d="M200.028 69.0717C196.409 73.5171 194.115 80.0756 194.115 87.406C194.115 94.7364 196.409 101.295 200.028 105.74C203.837 100.262 206 94.0278 206 87.406C206 80.7842 203.837 74.5504 200.028 69.0717Z" fill="#9594BB"/>
</g>
<defs>
<linearGradient id="paint0_linear_4218_73418" x1="143.627" y1="96.9973" x2="298.245" y2="220.258" gradientUnits="userSpaceOnUse">
<stop stop-color="#6740CC" stop-opacity="0.3"/>
<stop offset="1" stop-color="#D9D9D9" stop-opacity="0"/>
</linearGradient>
<radialGradient id="paint1_radial_4218_73418" cx="0" cy="0" r="1" gradientUnits="userSpaceOnUse" gradientTransform="translate(166.83 116.053) scale(141.221 141.221)">
<stop offset="0.47" stop-color="#BEBDC7"/>
<stop offset="1" stop-color="#D6D6D6"/>
</radialGradient>
<radialGradient id="paint2_radial_4218_73418" cx="0" cy="0" r="1" gradientUnits="userSpaceOnUse" gradientTransform="translate(173.663 118.393) scale(54.0246 54.0246)">
<stop stop-color="#15152E"/>
<stop offset="0.250594" stop-color="#414168"/>
<stop offset="1" stop-color="#1B203C"/>
</radialGradient>
</defs>
</svg>
