<svg width="322" height="72" viewBox="0 0 322 72" fill="none" xmlns="http://www.w3.org/2000/svg">
<rect width="68" height="72" rx="10.0031" fill="#02A39F"/>
<path fill-rule="evenodd" clip-rule="evenodd" d="M10.9647 10.9824H13.296C13.9865 10.9824 14.5464 11.5422 14.5464 12.2328V14.7318C14.5464 15.4224 13.9865 15.9822 13.296 15.9822H10.9647C10.2742 15.9822 9.71436 15.4224 9.71436 14.7318V12.2328C9.71436 11.5422 10.2742 10.9824 10.9647 10.9824ZM55.8936 10.9824H58.2248C58.9154 10.9824 59.4752 11.5422 59.4752 12.2328V14.7318C59.4752 15.4224 58.9154 15.9822 58.2248 15.9822H55.8936C55.203 15.9822 54.6432 15.4224 54.6432 14.7318V12.2328C54.6432 11.5422 55.203 10.9824 55.8936 10.9824ZM55.8936 22.235H58.2248C58.9154 22.235 59.4752 22.7948 59.4752 23.4854V25.9844C59.4752 26.675 58.9154 27.2348 58.2248 27.2348H55.8936C55.203 27.2348 54.6432 26.675 54.6432 25.9844V23.4854C54.6432 22.7948 55.203 22.235 55.8936 22.235ZM58.2248 33.4859H55.8936C55.203 33.4859 54.6432 34.0457 54.6432 34.7363V37.2353C54.6432 37.9259 55.203 38.4857 55.8936 38.4857H58.2248C58.9154 38.4857 59.4752 37.9259 59.4752 37.2353V34.7363C59.4752 34.0457 58.9154 33.4859 58.2248 33.4859ZM55.8936 44.7383H58.2248C58.9154 44.7383 59.4752 45.2981 59.4752 45.9887V48.4877C59.4752 49.1783 58.9154 49.7381 58.2248 49.7381H55.8936C55.203 49.7381 54.6432 49.1783 54.6432 48.4877V45.9887C54.6432 45.2981 55.203 44.7383 55.8936 44.7383ZM58.2248 55.9892H55.8936C55.203 55.9892 54.6432 56.549 54.6432 57.2396V59.7386C54.6432 60.4292 55.203 60.989 55.8936 60.989H58.2248C58.9154 60.989 59.4752 60.4292 59.4752 59.7386V57.2396C59.4752 56.549 58.9154 55.9892 58.2248 55.9892ZM13.296 22.235H10.9648C10.2742 22.235 9.71443 22.7948 9.71443 23.4854V25.9844C9.71443 26.675 10.2742 27.2348 10.9648 27.2348H13.296C13.9866 27.2348 14.5464 26.675 14.5464 25.9844V23.4854C14.5464 22.7948 13.9866 22.235 13.296 22.235ZM10.9648 33.4859H13.296C13.9866 33.4859 14.5464 34.0457 14.5464 34.7363V37.2353C14.5464 37.9259 13.9866 38.4857 13.296 38.4857H10.9648C10.2742 38.4857 9.71443 37.9259 9.71443 37.2353V34.7363C9.71443 34.0457 10.2742 33.4859 10.9648 33.4859ZM13.296 44.7383H10.9648C10.2742 44.7383 9.71443 45.2981 9.71443 45.9887V48.4877C9.71443 49.1783 10.2742 49.7381 10.9648 49.7381H13.296C13.9866 49.7381 14.5464 49.1783 14.5464 48.4877V45.9887C14.5464 45.2981 13.9866 44.7383 13.296 44.7383ZM10.9648 55.9892H13.296C13.9866 55.9892 14.5464 56.549 14.5464 57.2396V59.7386C14.5464 60.4292 13.9866 60.989 13.296 60.989H10.9648C10.2742 60.989 9.71443 60.4292 9.71443 59.7386V57.2396C9.71443 56.549 10.2742 55.9892 10.9648 55.9892Z" fill="white"/>
<path d="M43.0644 34.3386C44.8885 35.3035 44.8885 37.9163 43.0645 38.8811L28.0577 46.8188C26.3465 47.7239 24.287 46.4834 24.287 44.5475L24.287 28.6722C24.287 26.7364 26.3465 25.4959 28.0577 26.401L43.0644 34.3386Z" fill="white"/>
<path d="M96.3901 59.5V13.9209H103.621L121.568 41.8752H117.888L135.771 13.9209H143.067V59.5H132.931V31.0292L134.739 31.4811L123.053 49.6869H116.339L104.718 31.4811L106.461 31.0292V59.5H96.3901ZM152.324 11.2739H179.633C179.633 29.6089 175.308 44.9095 153.164 56.2075L148.645 49.6224C158.393 44.7804 164.139 39.2283 167.496 32.7077L150.259 34.3863L149.161 27.1556L169.949 25.929C170.53 23.4757 170.982 20.8933 171.176 18.0527H152.324V11.2739ZM203.779 28.2531V35.2901H195.45V64.923H186.928V5.52811H195.45V28.2531H203.779ZM247.739 5.52811H256.26V65.1813H247.739V5.52811ZM224.303 9.72449C233.277 9.72449 239.927 17.859 239.927 30.9001C239.927 44.0057 233.277 52.2048 224.303 52.2048C215.33 52.2048 208.68 44.0057 208.68 30.9001C208.68 17.859 215.33 9.72449 224.303 9.72449ZM224.303 17.4071C219.913 17.4071 216.879 22.1199 216.879 30.9001C216.879 39.7447 219.913 44.4576 224.303 44.4576C228.694 44.4576 231.728 39.7447 231.728 30.9001C231.728 22.1199 228.694 17.4071 224.303 17.4071ZM265.1 51.0427H318.943V58.0151H265.1V51.0427ZM270.781 9.46625H279.239V19.0856H304.675V9.46625H313.068V41.1651H270.781V9.46625ZM279.239 25.7353V34.3863H304.675V25.7353H279.239Z" fill="black"/>
</svg>
