<svg width="71" height="59" viewBox="0 0 71 59" fill="none" xmlns="http://www.w3.org/2000/svg">
<path fill-rule="evenodd" clip-rule="evenodd" d="M4.43258 4.72458V54.2751H66.5674V4.72458H4.43258ZM2.85955 0.791992C1.55641 0.791992 0.5 1.8484 0.5 3.15154V55.8482C0.5 57.1513 1.55641 58.2077 2.85955 58.2077H68.1404C69.4436 58.2077 70.5 57.1513 70.5 55.8482V3.15154C70.5 1.8484 69.4436 0.791992 68.1404 0.791992H2.85955ZM44.4408 41.4079C43.8033 42.1718 42.6121 42.1146 42.0507 41.2931L28.7386 21.8119C28.143 20.9403 26.8573 20.9403 26.2617 21.8119L8.60346 47.6532C7.92313 48.6488 8.63609 49.9995 9.84192 49.9995H37.259C37.2635 49.9995 37.266 50.0049 37.2631 50.0084C37.2615 50.0103 37.2615 50.0128 37.2626 50.0147L37.2651 50.0168L37.2673 50.0173H61.9544C63.2267 50.0173 63.9213 48.5329 63.1061 47.5561L52.3595 34.6794C51.7599 33.9609 50.6559 33.9609 50.0562 34.6794L44.4408 41.4079ZM55.7191 20.4382C58.3254 20.4382 60.4382 18.3254 60.4382 15.7191C60.4382 13.1128 58.3254 11 55.7191 11C53.1128 11 51 13.1128 51 15.7191C51 18.3254 53.1128 20.4382 55.7191 20.4382Z" fill="#C1D8D8"/>
</svg>
