<svg width="308" height="174" viewBox="0 0 308 174" fill="none" xmlns="http://www.w3.org/2000/svg">
<mask id="path-1-inside-1_4218_73262" fill="white">
<path d="M0 0L308 0V174L0 174L0 0Z"/>
</mask>
<path d="M0 0L308 0V174L0 174L0 0Z" fill="#F2EEFB"/>
<path d="M0 0L0 -1L-1 -1V0L0 0ZM308 0L309 0V-1H308V0ZM0 1L308 1V-1L0 -1L0 1ZM307 0V174H309V0L307 0ZM1 174L1 0L-1 0L-1 174H1Z" fill="#F3ECFB" mask="url(#path-1-inside-1_4218_73262)"/>
<mask id="mask0_4218_73262" style="mask-type:alpha" maskUnits="userSpaceOnUse" x="0" y="0" width="308" height="174">
<path d="M0 0L308 0V174L0 174L0 0Z" fill="#F0ECF9"/>
</mask>
<g mask="url(#mask0_4218_73262)">
<path d="M107.324 112.136L162.324 82.6359L193.161 51.1358L368.176 202.136L239.824 226.636L107.324 112.136Z" fill="url(#paint0_linear_4218_73262)"/>
<path d="M112.139 47.4433C113.544 46.4973 115.316 46.2793 116.909 46.8566L150.003 58.8525C150.003 58.8525 150.006 58.8547 150.009 58.8547L150.028 58.8614C150.028 58.8614 150.026 58.8614 150.024 58.8614C150.404 58.9995 150.77 59.1865 151.12 59.4081C152.898 60.5336 154.21 62.6244 154.21 64.5494V74.0393L114.375 59.5995V50.7397L109.72 49.072L112.139 47.4433Z" fill="white"/>
<path d="M196.28 47.4438C194.875 46.4975 193.102 46.2794 191.509 46.8567L158.416 58.8525C158.416 58.8525 158.412 58.8547 158.41 58.8547L158.391 58.8614C158.391 58.8614 158.392 58.8614 158.394 58.8614C158.014 58.9995 157.649 59.1865 157.3 59.4081C155.52 60.5336 154.209 62.6244 154.209 64.5494V74.0393L194.043 59.6007V50.7397L198.698 49.072L196.28 47.4438Z" fill="white"/>
<path d="M154.209 64.4715C152.008 64.4715 149.807 64.0228 147.734 63.1277V69.0695C149.807 69.9657 152.008 70.4133 154.209 70.4133C156.41 70.4133 158.611 69.9657 160.684 69.0695V63.1277C158.611 64.0239 156.41 64.4715 154.209 64.4715Z" fill="white"/>
<path d="M200.013 48.601L162.461 64.1552H160.333C156.117 65.8942 152.303 65.8942 148.087 64.1552V63.7274C148.087 62.8315 147.524 62.0321 146.681 61.7299L112.593 49.5174L108.405 48.601L109.122 52.8993L109.122 53.9602L108.405 111.909L147.625 126.125V127.462C151.841 129.201 156.578 129.201 160.793 127.462V126.125L200.013 111.909V49.8846L200.888 49.7167L200.013 48.5999V48.601Z" fill="#A9BAE8"/>
<path d="M108.405 48.601L147.313 63.5082L148.086 64.1552C152.301 65.8942 156.116 65.8942 160.331 64.1552V63.7274C160.331 62.8315 160.894 62.0321 161.738 61.7299L195.825 49.5174L200.013 48.601L199.297 52.8993L199.297 53.9602L200.013 111.909L160.793 126.125V127.462C156.577 129.201 151.841 129.201 147.625 127.462V126.125L108.405 111.909V49.8846L107 49.3747L108.405 48.5999V48.601Z" fill="#A9BAE8"/>
<path d="M160.996 65.4066V129.236C160.996 130.095 160.481 130.881 159.663 131.145C157.89 131.715 156.05 132 154.21 132V66.7515C156.516 66.7515 158.823 66.3028 160.996 65.4077V65.4066Z" fill="#5D76B8"/>
<path d="M198.574 48.4856C199.957 47.9842 201.418 49.0089 201.418 50.4804L201.418 110.906C201.418 113.138 200.021 115.132 197.922 115.893L182.006 121.662V54.4907L198.574 48.4856Z" fill="#A9BAE8"/>
<path d="M162.593 63.4482L182.006 56.412V121.661L162.593 128.698V63.4482Z" fill="#A9BAE8"/>
<path d="M161.618 62.3561L162.593 63.4482V128.698L160.996 129.278V65.4066L160.332 64.1552H161.553L161.618 62.3561Z" fill="#A9BAE8"/>
<path d="M147.423 65.4066V129.236C147.423 130.095 147.938 130.881 148.756 131.145C150.528 131.715 152.369 132 154.209 132V66.7515C151.902 66.7515 149.595 66.3028 147.423 65.4077V65.4066Z" fill="#A9BAE8"/>
<path d="M162.593 63.4482V128.698L182.006 121.661V56.412L162.593 63.4482Z" fill="#A9BAE8"/>
<path d="M201.419 50.7776L182.006 56.412V121.661L197.922 115.893C200.021 115.132 201.419 113.138 201.419 110.906V50.7776Z" fill="#A9BAE8"/>
<path d="M109.845 48.4856C108.461 47.9842 107 49.0089 107 50.4804L107 110.906C107 113.138 108.398 115.132 110.497 115.893L126.413 121.662V54.4907L109.845 48.4856Z" fill="#A9BAE8"/>
<path d="M145.826 63.4482L126.413 56.412V121.661L145.826 128.698V63.4482Z" fill="#A9BAE8"/>
<path d="M168.531 73.4537V76.0722L177.128 72.9561V70.3375L168.531 73.4537Z" fill="#5D76B8"/>
<path d="M185.726 67.2213L177.128 70.3375V72.956L185.726 69.8398V67.2213Z" fill="#5D76B8"/>
<path d="M168.531 118.162V119.952L174.41 117.821V116.031L168.531 118.162Z" fill="#5D76B8"/>
<path d="M180.29 113.9L174.411 116.031V117.821L180.29 115.69V113.9Z" fill="#5D76B8"/>
<path d="M168.382 82.5797V86.7279L182.006 81.7892V77.641L168.382 82.5797Z" fill="#5D76B8"/>
<path d="M195.63 72.7021L182.006 77.6408V81.7891L195.63 76.8504V72.7021Z" fill="#5D76B8"/>
<path d="M147.423 65.4066L148.087 64.1553C148.087 64.1553 151.26 65.459 154.21 65.459C157.16 65.459 160.333 64.1553 160.333 64.1553L160.997 65.4066C160.997 65.4066 158.288 66.7504 154.21 66.7504C150.132 66.7504 147.424 65.4066 147.424 65.4066H147.423Z" fill="#A9BAE8"/>
<path d="M146.8 62.3561L145.825 63.4482V128.698L147.423 129.278V65.4066L148.087 64.1552H146.866L146.8 62.3561Z" fill="#A9BAE8"/>
<path d="M161.619 62.3561L161.636 63.5083L160.333 64.1552L160.996 65.4066V129.278L162.593 128.698V63.4482L161.619 62.3561Z" fill="#A9BAE8"/>
</g>
<defs>
<linearGradient id="paint0_linear_4218_73262" x1="142.452" y1="56.1333" x2="297.07" y2="179.394" gradientUnits="userSpaceOnUse">
<stop stop-color="#6740CC" stop-opacity="0.3"/>
<stop offset="1" stop-color="#D9D9D9" stop-opacity="0"/>
</linearGradient>
</defs>
</svg>
