<svg width="50" height="63" viewBox="0 0 50 63" fill="none" xmlns="http://www.w3.org/2000/svg">
<path fill-rule="evenodd" clip-rule="evenodd" d="M4.34238 0.404297C2.0504 0.404297 0.192383 2.26231 0.192383 4.5543V58.4441C0.192383 60.736 2.0504 62.5941 4.34238 62.5941H45.0002C47.2922 62.5941 49.1502 60.736 49.1502 58.4441L49.1502 18.6822C49.1502 17.5021 48.6478 16.3778 47.7687 15.5905L31.9916 1.46267C31.2305 0.781143 30.2447 0.404297 29.2231 0.404297H4.34238ZM4.49238 58.2941V4.7043H26.6562V19.0942C26.6562 20.2816 27.6188 21.2442 28.8062 21.2442H44.8502L44.8502 58.2941H4.49238ZM30.9562 16.9442V6.30763L42.8345 16.9442H30.9562ZM19.3024 41.7496C19.1643 41.7496 19.0524 41.8615 19.0524 41.9996V44.0401C19.0524 44.1782 19.1643 44.2901 19.3024 44.2901H23.5879L18.7981 50.861C18.7669 50.9037 18.7501 50.9553 18.7501 51.0082V52.6709C18.7501 52.809 18.862 52.9209 19.0001 52.9209H27.1018C27.2399 52.9209 27.3518 52.809 27.3518 52.6709V50.6303C27.3518 50.4923 27.2399 50.3803 27.1018 50.3803H22.6255L27.4397 43.7947C27.471 43.7519 27.4878 43.7002 27.4878 43.6472V41.9996C27.4878 41.8615 27.3759 41.7496 27.2378 41.7496H19.3024ZM28.6192 41.7496C28.4812 41.7496 28.3692 41.8615 28.3692 41.9996V52.6709C28.3692 52.809 28.4812 52.9209 28.6192 52.9209H30.9923C31.1304 52.9209 31.2423 52.809 31.2423 52.6709V41.9996C31.2423 41.8615 31.1304 41.7496 30.9923 41.7496H28.6192ZM32.8961 41.7496C32.758 41.7496 32.6461 41.8615 32.6461 41.9996V52.6709C32.6461 52.809 32.758 52.9209 32.8961 52.9209H35.2692C35.4072 52.9209 35.5192 52.809 35.5192 52.6709V49.0363H37.3551C38.0647 49.0363 38.7133 48.8931 39.2958 48.6018L39.2991 48.6001C39.8815 48.2981 40.3438 47.8748 40.6807 47.3318C41.0315 46.7725 41.2025 46.1205 41.2025 45.3854C41.2025 44.6513 41.032 44.0041 40.6809 43.4544C40.3439 42.901 39.8806 42.4765 39.2958 42.1841C38.7133 41.8928 38.0647 41.7496 37.3551 41.7496H32.8961ZM35.5192 46.6923V44.0937H37.0074C37.264 44.0937 37.4923 44.1465 37.6967 44.2486C37.8964 44.3485 38.0526 44.4923 38.1693 44.6841C38.2824 44.8698 38.3445 45.1001 38.3445 45.3854C38.3445 45.6824 38.2817 45.9172 38.1693 46.1019C38.0526 46.2936 37.8964 46.4374 37.6967 46.5373C37.4923 46.6395 37.264 46.6923 37.0074 46.6923H35.5192Z" fill="#C1D8D8"/>
</svg>
