<svg width="585" height="221" viewBox="0 0 585 221" fill="none" xmlns="http://www.w3.org/2000/svg">
<circle cx="474.503" cy="110.497" r="110.009" fill="#E8F6F6" stroke="#8CD5D3" stroke-width="0.981014"/>
<circle cx="110.5" cy="110.497" r="110.009" fill="#E8F6F6" stroke="#8CD5D3" stroke-width="0.981014"/>
<g style="mix-blend-mode:plus-darker">
<circle cx="292.5" cy="110.497" r="110.5" fill="#36BAC1"/>
</g>
<path d="M76.6448 90.7129V92.1889H67.0508V90.7129H70.9208V89.0389H72.7748V90.7129H76.6448ZM69.6788 95.8609C69.6788 96.8149 70.5428 97.3909 71.8388 97.3909C73.1348 97.3909 74.0168 96.8149 74.0168 95.8609C74.0168 94.8889 73.1348 94.3129 71.8388 94.3129C70.5428 94.3129 69.6788 94.8889 69.6788 95.8609ZM75.7808 95.8609C75.7808 97.6249 74.1788 98.8129 71.8388 98.8129C69.4988 98.8129 67.8968 97.6249 67.8968 95.8609C67.8968 94.0789 69.4988 92.8909 71.8388 92.8909C74.1788 92.8909 75.7808 94.0789 75.7808 95.8609ZM69.0308 101.585V100.091H79.7228V105.383H77.8688V101.585H69.0308ZM82.0268 93.4849V95.0149H79.7228V99.2989H77.8688V89.1289H79.7228V93.4849H82.0268ZM97.1454 93.9889L96.4794 95.4289C93.8334 95.0689 91.6374 93.8449 90.5754 92.1529C89.5314 93.8449 87.3354 95.0689 84.6894 95.4289L84.0054 93.9889C87.2634 93.5749 89.6214 91.8109 89.6214 89.9209V89.2909H91.5294V89.9209C91.5294 91.7929 93.9234 93.5749 97.1454 93.9889ZM94.1934 103.709V101.963H86.8674V103.709H94.1934ZM94.1934 100.541V98.8849H96.0474V105.185H85.0314V98.8849H86.8674V100.541H94.1934ZM83.2134 96.4009H97.9374V97.8769H83.2134V96.4009ZM105.424 92.2789V93.8269C105.424 96.5269 107.098 99.3349 109.636 100.415L108.61 101.873C106.72 101.045 105.262 99.2809 104.506 97.1749C103.786 99.4429 102.328 101.369 100.42 102.287L99.358 100.811C101.878 99.6409 103.552 96.6169 103.552 93.8269V92.2789H99.934V90.7489H109.042V92.2789H105.424ZM110.932 89.1289H112.804V105.383H110.932V89.1289ZM114.927 107.237L119.931 89.6149H121.371L116.367 107.237H114.927ZM133.01 96.8329L133.118 98.2189C131.57 98.4349 129.968 98.5789 128.366 98.6689V104.483H126.494V98.7409C125.054 98.7949 123.668 98.8129 122.408 98.8129L122.174 97.2829C124.316 97.2829 126.746 97.2649 129.194 97.1209C129.374 96.2749 129.518 95.5189 129.59 94.8169L123.47 95.3209L123.2 93.7549L129.716 93.4489C129.77 92.8189 129.788 92.2609 129.788 91.7749H123.578V90.2629H131.606V91.1089C131.606 92.3869 131.606 94.2589 131.066 97.0129C131.732 96.9769 132.362 96.9049 133.01 96.8329ZM134.036 89.1289H135.89V105.383H134.036V89.1289ZM139.867 99.1909L139.111 97.7149C142.279 97.1929 144.853 94.9609 144.853 92.5129V92.1349H139.687V90.6229H151.963V92.1349H146.797V92.5129C146.797 94.9609 149.389 97.1569 152.611 97.6429L151.855 99.1189C149.191 98.6149 146.887 97.1389 145.825 95.0509C144.781 97.1569 142.495 98.6869 139.867 99.1909ZM138.481 101.819H153.205V103.331H138.481V101.819ZM86.2295 115.713V117.189H76.6355V115.713H80.5055V114.039H82.3595V115.713H86.2295ZM79.2635 120.861C79.2635 121.815 80.1275 122.391 81.4235 122.391C82.7195 122.391 83.6015 121.815 83.6015 120.861C83.6015 119.889 82.7195 119.313 81.4235 119.313C80.1275 119.313 79.2635 119.889 79.2635 120.861ZM85.3655 120.861C85.3655 122.625 83.7635 123.813 81.4235 123.813C79.0835 123.813 77.4815 122.625 77.4815 120.861C77.4815 119.079 79.0835 117.891 81.4235 117.891C83.7635 117.891 85.3655 119.079 85.3655 120.861ZM78.6155 126.585V125.091H89.3075V130.383H87.4535V126.585H78.6155ZM91.6115 118.485V120.015H89.3075V124.299H87.4535V114.129H89.3075V118.485H91.6115ZM103.094 119.817V123.597H101.348V114.435H103.094V118.305H104.804V114.147H106.568V124.119H104.804V119.817H103.094ZM100.97 121.581L99.9801 122.967C98.5401 122.409 97.5321 121.329 96.9201 120.033C96.3261 121.527 95.2641 122.787 93.6981 123.471L92.7261 122.049C94.9041 121.059 96.0021 119.025 96.0021 117.171V115.119H97.8021V117.171C97.8021 118.971 98.8641 120.753 100.97 121.581ZM101.15 128.961C103.436 128.961 104.804 128.403 104.804 127.413C104.804 126.405 103.436 125.847 101.15 125.847C98.8641 125.847 97.4961 126.405 97.4961 127.413C97.4961 128.403 98.8641 128.961 101.15 128.961ZM101.15 124.425C104.534 124.425 106.658 125.541 106.658 127.413C106.658 129.267 104.534 130.383 101.15 130.383C97.7661 130.383 95.6421 129.267 95.6421 127.413C95.6421 125.541 97.7661 124.425 101.15 124.425ZM125.118 120.591L123.3 120.393C123.714 118.791 123.732 117.621 123.732 116.397H114.408V114.903H125.568V116.271C125.568 117.567 125.568 118.917 125.118 120.591ZM119.988 128.961C122.382 128.961 123.822 128.367 123.822 127.341C123.822 126.333 122.382 125.739 119.988 125.739C117.576 125.739 116.1 126.333 116.1 127.341C116.1 128.367 117.576 128.961 119.988 128.961ZM119.988 124.317C123.444 124.317 125.676 125.469 125.676 127.341C125.676 129.231 123.444 130.383 119.988 130.383C116.478 130.383 114.264 129.231 114.264 127.341C114.264 125.469 116.478 124.317 119.988 124.317ZM120.348 121.563H127.368V123.057H112.716V121.563H118.476V118.575H120.348V121.563ZM136.222 116.217C133.882 116.217 132.352 117.009 132.352 118.305C132.352 119.619 133.882 120.411 136.222 120.411C138.544 120.411 140.074 119.619 140.074 118.305C140.074 117.009 138.544 116.217 136.222 116.217ZM136.222 121.905C132.784 121.905 130.444 120.501 130.444 118.305C130.444 116.127 132.784 114.723 136.222 114.723C139.642 114.723 141.982 116.127 141.982 118.305C141.982 120.501 139.642 121.905 136.222 121.905ZM143.62 123.291L143.638 124.821H139.966V130.383H138.076V124.821H134.368V130.383H132.478V124.821H128.878V123.291H143.62Z" fill="#414141"/>
<path d="M244.809 96.6169V100.019C247.473 100.001 249.507 99.8929 251.793 99.4789L251.991 100.991C249.489 101.441 247.311 101.549 244.305 101.549H242.973V95.1229H248.535V92.0809H242.937V90.5689H250.371V96.6169H244.809ZM257.445 95.4469V96.9949H254.943V105.401H253.071V89.0929H254.943V95.4469H257.445ZM270.025 89.1109H271.897V105.419H270.025V89.1109ZM263.239 90.3169C265.669 90.3169 267.433 92.5489 267.433 96.0409C267.433 99.5689 265.669 101.783 263.239 101.783C260.827 101.783 259.063 99.5689 259.063 96.0409C259.063 92.5489 260.827 90.3169 263.239 90.3169ZM263.239 91.9909C261.835 91.9909 260.845 93.5209 260.845 96.0409C260.845 98.5969 261.835 100.127 263.239 100.127C264.661 100.127 265.651 98.5969 265.651 96.0409C265.651 93.5209 264.661 91.9909 263.239 91.9909ZM274.722 101.819H289.446V103.349H274.722V101.819ZM276.378 90.2449H278.214V93.0889H285.918V90.2449H287.754V98.8129H276.378V90.2449ZM278.214 94.5649V97.3189H285.918V94.5649H278.214ZM298.131 102.377V103.745H308.175V105.185H296.313V101.027H305.781V99.8029H296.277V98.3629H307.617V102.377H298.131ZM307.149 95.6089H309.273V97.0849H294.621V95.6089H305.295C305.439 94.9789 305.511 94.4029 305.565 93.8629L296.241 94.2589L296.025 92.8369L305.655 92.5489C305.673 92.0989 305.673 91.6849 305.673 91.2709H296.457V89.8129H307.491V91.1269C307.491 92.4049 307.491 93.8269 307.149 95.6089ZM313.088 96.7789V100.091C314.78 100.073 316.364 99.9829 318.218 99.6769L318.38 101.189C316.202 101.567 314.402 101.621 312.404 101.621H311.306V95.2849H315.59V92.3149H311.27V90.8029H317.372V96.7789H313.088ZM322.898 89.1289H324.662V105.365H322.898V96.9229H320.972V104.573H319.226V89.4529H320.972V95.4109H322.898V89.1289ZM341.095 97.0669L340.285 98.5969C337.639 98.0569 335.353 96.3649 334.291 94.1329C333.229 96.3649 330.943 98.0569 328.297 98.5969L327.505 97.0669C330.709 96.4729 333.319 93.9709 333.319 91.3969V90.1729H335.281V91.3969C335.281 93.9889 337.891 96.4909 341.095 97.0669ZM327.001 101.765H341.725V103.295H327.001V101.765ZM244.756 129.181C243.268 126.749 242.388 124.173 242.388 120.989C242.388 117.837 243.268 115.229 244.756 112.813L245.908 113.309C244.532 115.613 243.892 118.317 243.892 120.989C243.892 123.677 244.532 126.381 245.908 128.669L244.756 129.181ZM253.659 114.637C251.579 114.637 250.219 115.341 250.219 116.509C250.219 117.693 251.579 118.397 253.659 118.397C255.723 118.397 257.083 117.693 257.083 116.509C257.083 115.341 255.723 114.637 253.659 114.637ZM253.659 119.725C250.603 119.725 248.523 118.477 248.523 116.509C248.523 114.557 250.603 113.309 253.659 113.309C256.699 113.309 258.779 114.557 258.779 116.509C258.779 118.477 256.699 119.725 253.659 119.725ZM260.235 120.957V122.317H254.459V127.229H252.811V122.317H247.131V120.957H260.235ZM264.026 119.421V122.461C266.314 122.445 268.314 122.333 270.602 121.965L270.778 123.309C268.298 123.741 266.138 123.821 263.594 123.821H262.362V118.093H267.402V115.405H262.33V114.061H269.066V119.421H264.026ZM271.802 112.749H273.466V127.261H271.802V112.749ZM287.763 114.189V115.501H279.235V114.189H282.675V112.701H284.323V114.189H287.763ZM281.571 118.765C281.571 119.613 282.339 120.125 283.491 120.125C284.643 120.125 285.427 119.613 285.427 118.765C285.427 117.901 284.643 117.389 283.491 117.389C282.339 117.389 281.571 117.901 281.571 118.765ZM286.995 118.765C286.995 120.333 285.571 121.389 283.491 121.389C281.411 121.389 279.987 120.333 279.987 118.765C279.987 117.181 281.411 116.125 283.491 116.125C285.571 116.125 286.995 117.181 286.995 118.765ZM280.995 123.853V122.525H290.499V127.229H288.851V123.853H280.995ZM292.547 116.653V118.013H290.499V121.821H288.851V112.781H290.499V116.653H292.547ZM303.665 115.645V115.469H294.913V114.125H305.313V115.645C305.313 117.453 305.313 119.389 304.801 122.189L303.153 121.997C303.665 119.357 303.665 117.405 303.665 115.645ZM301.825 123.981H306.673V125.341H293.617V123.981H296.625V119.309H298.257V123.981H300.193V119.309H301.825V123.981ZM313.072 126.205C310.464 126.205 308.688 124.781 308.688 120.941V114.205H310.544V121.069C310.544 123.725 311.6 124.589 313.072 124.589C314.56 124.589 315.648 123.725 315.648 121.069V114.205H317.44V120.941C317.44 124.781 315.68 126.205 313.072 126.205ZM320.167 125.997V114.205H324.023C326.455 114.205 328.279 115.085 328.279 117.629C328.279 119.453 327.303 120.541 325.815 121.005L328.695 125.997H326.599L323.927 121.245H322.023V125.997H320.167ZM322.023 119.757H323.799C325.511 119.757 326.439 119.053 326.439 117.629C326.439 116.205 325.511 115.709 323.799 115.709H322.023V119.757ZM330.347 125.997V114.205H332.203V124.429H337.195V125.997H330.347ZM339.284 129.181L338.132 128.669C339.508 126.381 340.148 123.677 340.148 120.989C340.148 118.317 339.508 115.613 338.132 113.309L339.284 112.813C340.788 115.229 341.668 117.837 341.668 120.989C341.668 124.173 340.788 126.749 339.284 129.181Z" fill="white"/>
<path d="M432.835 90.7128V92.1888H423.241V90.7128H427.111V89.0388H428.965V90.7128H432.835ZM425.869 95.8608C425.869 96.8148 426.733 97.3908 428.029 97.3908C429.325 97.3908 430.207 96.8148 430.207 95.8608C430.207 94.8888 429.325 94.3128 428.029 94.3128C426.733 94.3128 425.869 94.8888 425.869 95.8608ZM431.971 95.8608C431.971 97.6248 430.369 98.8128 428.029 98.8128C425.689 98.8128 424.087 97.6248 424.087 95.8608C424.087 94.0788 425.689 92.8908 428.029 92.8908C430.369 92.8908 431.971 94.0788 431.971 95.8608ZM425.221 101.585V100.091H435.913V105.383H434.059V101.585H425.221ZM438.217 93.4848V95.0148H435.913V99.2988H434.059V89.1288H435.913V93.4848H438.217ZM453.336 93.9888L452.67 95.4288C450.024 95.0688 447.828 93.8448 446.766 92.1528C445.722 93.8448 443.526 95.0688 440.88 95.4288L440.196 93.9888C443.454 93.5748 445.812 91.8108 445.812 89.9208V89.2908H447.72V89.9208C447.72 91.7928 450.114 93.5748 453.336 93.9888ZM450.384 103.709V101.963H443.058V103.709H450.384ZM450.384 100.541V98.8848H452.238V105.185H441.222V98.8848H443.058V100.541H450.384ZM439.404 96.4008H454.128V97.8768H439.404V96.4008ZM461.615 92.2788V93.8268C461.615 96.5268 463.289 99.3348 465.827 100.415L464.801 101.873C462.911 101.045 461.453 99.2808 460.697 97.1748C459.977 99.4428 458.519 101.369 456.611 102.287L455.549 100.811C458.069 99.6408 459.743 96.6168 459.743 93.8268V92.2788H456.125V90.7488H465.233V92.2788H461.615ZM467.123 89.1288H468.995V105.383H467.123V89.1288ZM471.117 107.237L476.121 89.6148H477.561L472.557 107.237H471.117ZM488.085 90.7128V92.1888H478.491V90.7128H482.361V89.0388H484.215V90.7128H488.085ZM481.119 95.8608C481.119 96.8148 481.983 97.3908 483.279 97.3908C484.575 97.3908 485.457 96.8148 485.457 95.8608C485.457 94.8888 484.575 94.3128 483.279 94.3128C481.983 94.3128 481.119 94.8888 481.119 95.8608ZM487.221 95.8608C487.221 97.6248 485.619 98.8128 483.279 98.8128C480.939 98.8128 479.337 97.6248 479.337 95.8608C479.337 94.0788 480.939 92.8908 483.279 92.8908C485.619 92.8908 487.221 94.0788 487.221 95.8608ZM480.471 101.585V100.091H491.163V105.383H489.309V101.585H480.471ZM493.467 93.4848V95.0148H491.163V99.2988H489.309V89.1288H491.163V93.4848H493.467ZM504.95 94.8168V98.5968H503.204V89.4348H504.95V93.3048H506.66V89.1468H508.424V99.1188H506.66V94.8168H504.95ZM502.826 96.5808L501.836 97.9668C500.396 97.4088 499.388 96.3288 498.776 95.0328C498.182 96.5268 497.12 97.7868 495.554 98.4708L494.582 97.0488C496.76 96.0588 497.858 94.0248 497.858 92.1708V90.1188H499.658V92.1708C499.658 93.9708 500.72 95.7528 502.826 96.5808ZM503.006 103.961C505.292 103.961 506.66 103.403 506.66 102.413C506.66 101.405 505.292 100.847 503.006 100.847C500.72 100.847 499.352 101.405 499.352 102.413C499.352 103.403 500.72 103.961 503.006 103.961ZM503.006 99.4248C506.39 99.4248 508.514 100.541 508.514 102.413C508.514 104.267 506.39 105.383 503.006 105.383C499.622 105.383 497.498 104.267 497.498 102.413C497.498 100.541 499.622 99.4248 503.006 99.4248ZM522.462 92.7468H519.096V94.2768H522.462V92.7468ZM517.278 95.5188V93.3948H513.444V95.5188H517.278ZM519.096 95.7168V96.9948H511.608V89.8488H513.444V91.9728H517.278V89.8488H519.096V91.3248H522.462V89.1288H524.334V97.5528H522.462V95.7168H519.096ZM515.604 103.727H524.874V105.185H513.768V100.973H522.498V99.7308H513.75V98.2728H524.334V102.341H515.604V103.727ZM453.638 121.599V125.019C456.212 125.001 458.462 124.875 461.036 124.461L461.234 125.973C458.444 126.459 456.014 126.549 453.152 126.549H451.766V120.105H457.436V117.081H451.73V115.569H459.308V121.599H453.638ZM462.386 114.093H464.258V130.419H462.386V114.093ZM472.501 117.081V122.085H476.245V117.081H472.501ZM475.291 126.927H481.789V128.457H467.029V126.927H473.437V123.579H468.307V122.085H470.647V117.081H468.253V115.587H480.475V117.081H478.081V122.085H480.439V123.579H475.291V126.927ZM496.331 122.715V124.209H485.063V115.443H496.205V116.937H486.953V119.025H495.845V120.483H486.953V122.715H496.331ZM483.245 126.873H497.987V128.385H483.245V126.873Z" fill="#414141"/>
<path d="M376.979 112.801V109.204H393.44V112.801H376.979ZM383.324 102.693H387.132V119.276H383.324V102.693Z" fill="white"/>
<path d="M194.487 112.801V109.204H211.061V112.801H194.487ZM200.876 102.693H204.71V119.276H200.876V102.693Z" fill="white"/>
</svg>
