<svg width="75" height="50" viewBox="0 0 75 50" fill="none" xmlns="http://www.w3.org/2000/svg">
<path d="M66.201 47.7202C66.201 47.2546 66.6386 47.0311 69.5304 47.0311C72.4222 47.0311 72.8597 47.2732 72.8597 47.7202C72.8597 48.1951 72.4222 48.4279 69.5304 48.4279C66.6386 48.4279 66.201 48.1765 66.201 47.7202ZM64.5363 47.7202C64.5363 49.0984 65.5446 49.8201 69.5304 49.8201C73.5161 49.8201 74.5244 49.1962 74.5244 47.7202C74.5244 46.3513 73.5161 45.6297 69.5304 45.6297C65.5446 45.6297 64.5363 46.2536 64.5363 47.7202ZM60.7313 46.0953H62.1582V38.6457H53.1213V40.0425H60.7313V46.0953ZM52.17 49.3545H63.1094V47.9577H57.8775V42.8361H56.4507V47.9577H52.17V49.3545ZM65.0119 42.3705H74.0488V40.9737H66.4388V39.5769H74.0488V38.1801H65.0119V42.3705ZM75 43.3017H64.0607V44.6985H75V43.3017Z" fill="white"/>
<path d="M8.85093 8.84797C8.85093 10.1333 7.80745 11.1764 6.52174 11.1764C5.23602 11.1764 4.19255 10.1333 4.19255 8.84797C4.19255 7.56269 5.23602 6.51956 6.52174 6.51956C7.80745 6.51956 8.85093 7.56269 8.85093 8.84797ZM14.441 17.6959H18.6335V0H14.441V6.98524H12.7686C11.9674 4.2936 9.47515 2.32841 6.52174 2.32841C2.92081 2.32841 0 5.24825 0 8.84797C0 12.4477 2.92081 15.3675 6.52174 15.3675C9.47515 15.3675 11.9674 13.4024 12.7686 10.7107H14.441V17.6959ZM19.5652 17.6959H23.7578V0H19.5652V17.6959ZM10.2484 22.8185H20.0311V26.0782H10.2484V22.8185ZM6.52174 29.8037H23.7578V19.093H6.52174V29.8037ZM27.4845 21.4214H41.9255V17.2303H31.677V13.9705H40.9938V9.31366H31.677V6.05388H41.9255V1.86273H27.4845V21.4214ZM44.2547 25.1469H48.4472V0H44.2547V25.1469ZM61.9565 6.05388H67.5466V2.32841H61.9565V0H57.2981V2.32841H51.7081V6.05388H57.2981V11.1764L51.2422 20.9557L54.5031 23.2841L59.6273 14.9019L64.7515 23.2841L68.0124 20.9557L61.9565 11.1764V6.05388ZM70.3416 25.1469H74.5342V0H70.3416V7.91661H65.6832V12.1078H70.3416V25.1469ZM74.5342 27.941H27.4845V29.338H74.5342V27.941Z" fill="white"/>
</svg>
