<svg width="75" height="50" viewBox="0 0 75 50" fill="none" xmlns="http://www.w3.org/2000/svg">
<path fill-rule="evenodd" clip-rule="evenodd" d="M71.3829 38.2994H68.0753V37H66.6577V38.2994H63.35V39.717H71.3829V38.2994ZM52.945 42.0796L52.4725 40.8983L56.7252 39.9532V39.2445H52.945V37.8269H61.923V39.2445H58.1428V39.9532L62.3955 40.8983L61.923 42.0796C61.923 42.0796 59.0548 41.5173 57.434 41.1346C55.7991 41.5409 52.945 42.0796 52.945 42.0796ZM56.7252 44.4423H52V43.0247H62.868V44.4423H58.1428V45.3968C61.5166 45.4819 62.3955 46.2095 62.3955 47.509C62.3955 49.0069 61.3938 49.6401 57.434 49.6401C53.4743 49.6401 52.4725 48.9029 52.4725 47.509C52.4725 46.115 53.4648 45.4724 56.7252 45.3968V44.4423ZM57.434 48.2225C60.307 48.2225 60.7417 47.9862 60.7417 47.5043C60.7417 47.0506 60.307 46.8049 57.434 46.8049C54.5611 46.8049 54.1264 47.0412 54.1264 47.5043C54.1264 47.9673 54.5611 48.2225 57.434 48.2225ZM71.8554 45.3873H63.8225V46.8049H71.8554V49.64H73.273V45.3873H71.8554ZM67.3806 40.1896C68.1792 40.1896 68.9636 40.3408 69.0108 40.3503C70.0787 40.5865 70.6127 41.0118 70.8112 41.645C70.8726 41.8387 70.9009 42.0655 70.9009 42.3065V42.316C70.9009 42.5522 70.8726 42.779 70.8112 42.9775C70.6127 43.6107 70.0787 44.0312 69.0108 44.2722C68.9636 44.2816 68.1792 44.4329 67.3806 44.4329H67.3428C66.5443 44.4329 65.7599 44.2816 65.7126 44.2722C64.6447 44.0359 64.1108 43.6107 63.9123 42.9775C63.8509 42.7838 63.8225 42.5569 63.8225 42.316V42.3065C63.8225 42.0702 63.8509 41.8434 63.9123 41.645C64.1108 41.0118 64.6447 40.5912 65.7126 40.3503C65.7599 40.3408 66.5443 40.1896 67.3428 40.1896H67.3806ZM69.077 42.6987C69.2093 42.5995 69.2471 42.4719 69.2471 42.3254V42.316V42.3065C69.2471 42.16 69.2093 42.0372 69.077 41.9332C69.077 41.9332 68.6754 41.5835 67.357 41.5835C66.0387 41.5835 65.637 41.9332 65.637 41.9332C65.5047 42.0324 65.4669 42.16 65.4669 42.3065V42.316V42.3254C65.4669 42.4719 65.5047 42.5947 65.637 42.6987C65.637 42.6987 66.0387 43.0484 67.357 43.0484C68.6754 43.0484 69.077 42.6987 69.077 42.6987ZM73.2635 37.3545V40.1896H74.6811V41.6072H73.2635V41.9616V43.8564V44.3242V44.4423H71.846V44.3242V43.8564V37.3545H73.2635Z" fill="white"/>
<path d="M8.85093 8.84797C8.85093 10.1333 7.80745 11.1764 6.52174 11.1764C5.23602 11.1764 4.19255 10.1333 4.19255 8.84797C4.19255 7.56269 5.23602 6.51956 6.52174 6.51956C7.80745 6.51956 8.85093 7.56269 8.85093 8.84797ZM14.441 17.6959H18.6335V0H14.441V6.98524H12.7686C11.9674 4.2936 9.47515 2.32841 6.52174 2.32841C2.92081 2.32841 0 5.24825 0 8.84797C0 12.4477 2.92081 15.3675 6.52174 15.3675C9.47515 15.3675 11.9674 13.4024 12.7686 10.7107H14.441V17.6959ZM19.5652 17.6959H23.7578V0H19.5652V17.6959ZM10.2484 22.8185H20.0311V26.0782H10.2484V22.8185ZM6.52174 29.8037H23.7578V19.093H6.52174V29.8037ZM27.4845 21.4214H41.9255V17.2303H31.677V13.9705H40.9938V9.31366H31.677V6.05388H41.9255V1.86273H27.4845V21.4214ZM44.2547 25.1469H48.4472V0H44.2547V25.1469ZM61.9565 6.05388H67.5466V2.32841H61.9565V0H57.2981V2.32841H51.7081V6.05388H57.2981V11.1764L51.2422 20.9557L54.5031 23.2841L59.6273 14.9019L64.7515 23.2841L68.0124 20.9557L61.9565 11.1764V6.05388ZM70.3416 25.1469H74.5342V0H70.3416V7.91661H65.6832V12.1078H70.3416V25.1469ZM74.5342 27.941H27.4845V29.338H74.5342V27.941Z" fill="white"/>
</svg>
