<svg width="75" height="50" viewBox="0 0 75 50" fill="none" xmlns="http://www.w3.org/2000/svg">
<path d="M66.3819 47.723C66.3819 47.2573 66.8058 47.0338 69.6428 47.0338C72.4797 47.0338 72.9036 47.2759 72.9036 47.723C72.9036 48.198 72.4797 48.4308 69.6428 48.4308C66.8058 48.4308 66.3819 48.1794 66.3819 47.723ZM64.7515 47.723C64.7515 49.1014 65.739 49.8232 69.6428 49.8232C73.5465 49.8232 74.5341 49.1992 74.5341 47.723C74.5341 46.3539 73.5465 45.6321 69.6428 45.6321C65.739 45.6321 64.7515 46.2561 64.7515 47.723ZM58.6956 42.3723V40.9752H62.4223V39.5782H58.6956V38.1812H56.8322V39.5782H53.1055V40.9752H56.8322V42.3723L52.6397 44.4679L53.3384 45.6321L57.7639 43.3037L62.1894 45.6321L62.8881 44.4679L58.6956 42.3723ZM52.1738 49.3575H63.354V47.9605H58.6956V45.1664H56.8322V47.9605H52.1738V49.3575ZM65.2173 42.3723H74.0682V40.9752H66.6148V39.5782H74.0682V38.1812H65.2173V42.3723ZM74.9999 43.3037H64.2856V44.7007H74.9999V43.3037Z" fill="white"/>
<path d="M8.85093 8.84797C8.85093 10.1333 7.80745 11.1764 6.52174 11.1764C5.23602 11.1764 4.19255 10.1333 4.19255 8.84797C4.19255 7.56269 5.23602 6.51956 6.52174 6.51956C7.80745 6.51956 8.85093 7.56269 8.85093 8.84797ZM14.441 17.6959H18.6335V0H14.441V6.98524H12.7686C11.9674 4.2936 9.47515 2.32841 6.52174 2.32841C2.92081 2.32841 0 5.24825 0 8.84797C0 12.4477 2.92081 15.3675 6.52174 15.3675C9.47515 15.3675 11.9674 13.4024 12.7686 10.7107H14.441V17.6959ZM19.5652 17.6959H23.7578V0H19.5652V17.6959ZM10.2484 22.8185H20.0311V26.0782H10.2484V22.8185ZM6.52174 29.8037H23.7578V19.093H6.52174V29.8037ZM27.4845 21.4214H41.9255V17.2303H31.677V13.9705H40.9938V9.31366H31.677V6.05388H41.9255V1.86273H27.4845V21.4214ZM44.2547 25.1469H48.4472V0H44.2547V25.1469ZM61.9565 6.05388H67.5466V2.32841H61.9565V0H57.2981V2.32841H51.7081V6.05388H57.2981V11.1764L51.2422 20.9557L54.5031 23.2841L59.6273 14.9019L64.7515 23.2841L68.0124 20.9557L61.9565 11.1764V6.05388ZM70.3416 25.1469H74.5342V0H70.3416V7.91661H65.6832V12.1078H70.3416V25.1469ZM74.5342 27.941H27.4845V29.338H74.5342V27.941Z" fill="white"/>
</svg>
