<svg width="75" height="30" viewBox="0 0 75 30" fill="none" xmlns="http://www.w3.org/2000/svg">
<path d="M8.85093 8.84797C8.85093 10.1333 7.80745 11.1764 6.52174 11.1764C5.23602 11.1764 4.19255 10.1333 4.19255 8.84797C4.19255 7.56269 5.23602 6.51956 6.52174 6.51956C7.80745 6.51956 8.85093 7.56269 8.85093 8.84797ZM14.441 17.6959H18.6335V0H14.441V6.98524H12.7686C11.9674 4.2936 9.47515 2.32841 6.52174 2.32841C2.92081 2.32841 0 5.24825 0 8.84797C0 12.4477 2.92081 15.3675 6.52174 15.3675C9.47515 15.3675 11.9674 13.4024 12.7686 10.7107H14.441V17.6959ZM19.5652 17.6959H23.7578V0H19.5652V17.6959ZM10.2484 22.8185H20.0311V26.0782H10.2484V22.8185ZM6.52174 29.8037H23.7578V19.093H6.52174V29.8037ZM27.4845 21.4214H41.9255V17.2303H31.677V13.9705H40.9938V9.31366H31.677V6.05388H41.9255V1.86273H27.4845V21.4214ZM44.2547 25.1469H48.4472V0H44.2547V25.1469ZM61.9565 6.05388H67.5466V2.32841H61.9565V0H57.2981V2.32841H51.7081V6.05388H57.2981V11.1764L51.2422 20.9557L54.5031 23.2841L59.6273 14.9019L64.7515 23.2841L68.0124 20.9557L61.9565 11.1764V6.05388ZM70.3416 25.1469H74.5342V0H70.3416V7.91661H65.6832V12.1078H70.3416V25.1469ZM74.5342 27.941H27.4845V29.338H74.5342V27.941Z" fill="white"/>
</svg>
