<svg width="131" height="57" viewBox="0 0 131 57" fill="none" xmlns="http://www.w3.org/2000/svg">
<path d="M42.0707 0L32.436 6.98275L22.7936 0H0.26416V56.323H22.7936V49.3402L32.436 56.323L42.0707 49.3402V56.323H130.736V0H42.0707Z" fill="#C43CB4"/>
<path fill-rule="evenodd" clip-rule="evenodd" d="M121.18 7.4957H117.95V14.031H114.059V17.3312H117.95V28.0264H121.18V7.4957ZM103.272 9.15735V12.4576H107.869V16.5446L102.652 24.5112L105.338 26.3456L109.488 20.0098L113.638 26.3456L116.324 24.5112L111.107 16.5446V12.4576H115.711V9.15735H111.107V7.11963H107.877V9.15735H103.272ZM100.846 7.4957H97.6159V28.0264H100.846V7.4957ZM95.37 9.10746H84.035V25.4783H95.6854V22.178H87.265V18.943H94.8141V15.6427H87.265V12.4077H95.37V9.10746ZM81.0341 7.51873H77.8041V22.0898H81.0341V7.51873ZM67.4005 9.04222C64.5054 9.04222 62.1509 11.4473 62.1499 14.4051C62.1509 17.363 64.5054 19.7719 67.4005 19.7719C69.7329 19.7719 71.7159 18.21 72.3995 16.0572H73.714V22.0859H76.944V7.51873H73.714V12.7569H72.3995C71.7159 10.6041 69.7329 9.04222 67.4005 9.04222ZM67.4906 31.8754H81.1129V23.0952H67.4906V31.8754ZM121.187 30.1831H84.0049V31.3612H121.187V30.1831ZM70.7153 26.3989H77.8739V28.5748H70.7153V26.3989ZM65.3711 14.4105C65.3711 13.2708 66.2762 12.3459 67.3917 12.3459C68.5072 12.3459 69.4123 13.2746 69.4123 14.4105C69.4123 15.5464 68.5034 16.4751 67.3917 16.4751C66.28 16.4751 65.3711 15.5503 65.3711 14.4105ZM104.032 45.1607H107.803V45.9184C105.201 45.9784 104.409 46.4885 104.409 47.595C104.409 48.7015 105.209 49.2867 108.369 49.2867C111.529 49.2867 112.329 48.784 112.329 47.595C112.329 46.5635 111.627 45.9859 108.935 45.9184V45.1607H112.706V44.0354H104.032V45.1607ZM111.009 47.5913C111.009 47.9738 110.662 48.1614 108.369 48.1614C106.076 48.1614 105.729 47.9588 105.729 47.5913C105.729 47.2237 106.076 47.0361 108.369 47.0361C110.662 47.0361 111.009 47.2312 111.009 47.5913ZM104.787 43.285L104.41 42.3473L107.804 41.5971V41.0345H104.787V39.9092H111.952V41.0345H108.935V41.5971L112.329 42.3473L111.952 43.285C111.952 43.285 109.663 42.8386 108.369 42.5348C107.065 42.8574 104.787 43.285 104.787 43.285ZM119.879 45.9106H113.468V47.0359H119.879V49.2865H121.01V45.9106H119.879ZM116.307 41.7844C116.945 41.7844 117.571 41.9044 117.609 41.912C118.461 42.0995 118.887 42.4371 119.045 42.9397C119.094 43.0935 119.117 43.2735 119.117 43.4648V43.4723C119.117 43.6599 119.094 43.8399 119.045 43.9975C118.887 44.5001 118.461 44.8339 117.609 45.0252C117.571 45.0327 116.945 45.1527 116.307 45.1527H116.277C115.64 45.1527 115.014 45.0327 114.976 45.0252C114.124 44.8377 113.698 44.5001 113.539 43.9975C113.49 43.8437 113.468 43.6636 113.468 43.4723V43.4648C113.468 43.2773 113.49 43.0972 113.539 42.9397C113.698 42.4371 114.124 42.1032 114.976 41.912C115.014 41.9044 115.64 41.7844 116.277 41.7844H116.307ZM117.661 43.7761C117.767 43.6974 117.797 43.5961 117.797 43.4798V43.4723V43.4648C117.797 43.3485 117.767 43.251 117.661 43.1685C117.661 43.1685 117.341 42.8909 116.289 42.8909C115.236 42.8909 114.916 43.1685 114.916 43.1685C114.81 43.2473 114.78 43.3485 114.78 43.4648V43.4723V43.4798C114.78 43.5961 114.81 43.6936 114.916 43.7761C114.916 43.7761 115.236 44.0537 116.289 44.0537C117.341 44.0537 117.661 43.7761 117.661 43.7761ZM119.501 40.2847H116.861V39.2532H115.73V40.2847H113.09V41.4099H119.501V40.2847ZM121.002 39.5344V41.785H122.134V42.9102H121.002V43.1916V44.6957V45.067V45.1608H119.871V45.067V44.6957V39.5344H121.002Z" fill="white"/>
</svg>
