<svg width="152" height="32" viewBox="0 0 152 32" fill="none" xmlns="http://www.w3.org/2000/svg">
<g clip-path="url(#clip0_5223_40820)">
<path d="M0 3V27H5H18V22H5V17.75H16.5V12.25H5V8H18V3H5H0Z" fill="#02A39F"/>
<path d="M26.25 0H21.25V32H26.25V0Z" fill="#02A39F"/>
<path d="M76 2.25H68V22.25V22.75V29.75H87V22.25H76V2.25Z" fill="#02A39F"/>
<path d="M98.5 2.25H90.5V29.75H98.5V2.25Z" fill="#02A39F"/>
<path d="M53.5 10.75H48V15.75H53.5V32H58.5V0H53.5V10.75Z" fill="#02A39F"/>
<path d="M152 8.75V2.25H140H132V29.75H140H152V23.25H140V19H150.5V12.5H140V8.75H152Z" fill="#02A39F"/>
<path d="M42.75 14.5V8H50V3.25H42.75V0H37.25V3.25H30V8H37.25V14.5L29.5 26L33.25 29.25L40.0025 19.0075L46.755 29.25L50.505 26L42.755 14.5H42.75Z" fill="#02A39F"/>
<path d="M121.5 2.25H121L115.25 17L109.5 2.25H109H107H101.5L112.25 29.75H115.25H118.25L129 2.25H123.5H121.5Z" fill="#02A39F"/>
</g>
<defs>
<clipPath id="clip0_5223_40820">
<rect width="152" height="32" fill="white"/>
</clipPath>
</defs>
</svg>
