<svg width="120" height="51" viewBox="0 0 120 51" fill="none" xmlns="http://www.w3.org/2000/svg">
<g id="mteacher_KR">
<path id="Vector" d="M38.4514 0L29.5859 6.32074L20.7204 0H0V51H20.7204V44.6793L29.5859 51L38.4514 44.6793V51H120V0H38.4514Z" fill="#02A39F"/>
<path id="Vector_2" d="M78.335 28.3425H113.194" stroke="white" stroke-width="2"/>
<path id="Vector_3" d="M91.0967 25.8148H94.1291V6.90686H91.0967V25.8148Z" fill="white"/>
<path id="Vector_4" d="M81.3947 17.454H88.4704V14.4103H81.3947V11.4317H88.9893V8.38794H78.3623V23.4709H89.2866V20.4326H81.3947V17.454Z" fill="white"/>
<path id="Vector_5" d="M110.163 6.901V12.9233H106.52V15.9616H110.163V25.8144H113.195V6.901H110.163Z" fill="white"/>
<path id="Vector_6" d="M100.718 6.5592V8.43644H96.3991V11.4747H100.718V15.2401L95.8262 22.5808L98.3451 24.2681L102.232 18.4357L106.123 24.2681L108.642 22.5808L103.75 15.2401V11.4747H108.064V8.43644H103.75V6.5592H100.718Z" fill="white"/>
<path id="Vector_7" d="M65.8811 24.3174H72.5946V26.3194H65.8811V24.3174ZM62.8486 29.3577H75.6216V21.2737H62.8486V29.3577Z" fill="white"/>
<path id="Vector_8" d="M72.5195 20.3457H75.552V6.92297H72.5195V20.3457Z" fill="white"/>
<path id="Vector_9" d="M60.8688 13.2708C60.8688 12.2237 61.7175 11.3719 62.7661 11.3719C63.8094 11.3719 64.6634 12.2237 64.6634 13.2708C64.6634 14.3179 63.8148 15.1752 62.7661 15.1752C61.7175 15.1697 60.8688 14.3179 60.8688 13.2708ZM67.4526 14.7899H68.685V20.3457H71.7175V6.92834H68.685V11.7516H67.4526C66.8148 9.7659 64.9553 8.32813 62.7661 8.32813C60.0526 8.32813 57.8418 10.5472 57.8418 13.2708C57.8418 15.9944 60.0472 18.2135 62.7661 18.2135C64.9499 18.2135 66.8094 16.7757 67.4526 14.7899Z" fill="white"/>
</g>
</svg>
