<svg width="124" height="32" viewBox="0 0 124 32" fill="none" xmlns="http://www.w3.org/2000/svg">
<g id="M&#236;&#185;&#180;&#236;&#157;&#180;&#235;&#184;&#140; : 124x32px" clip-path="url(#clip0_4738_280)">
<path id="Vector" d="M58.75 0H53.75V32H58.75V18.25H63.25V13.25H58.75V0Z" fill="#02A39F"/>
<path id="Vector_2" d="M92.5 0H87.5V32H92.5V0Z" fill="#02A39F"/>
<path id="Vector_3" d="M116.5 20.75H122V1.75H116.5V6.75H103.5V1.75H98V20.75H116.5ZM103.5 11.75H116.5V15.75H103.5V11.75Z" fill="#02A39F"/>
<path id="Vector_4" d="M124 25H96V30H124V25Z" fill="#02A39F"/>
<path id="Vector_5" d="M34.75 2.25V7.25H45.75V13.75H36.25V18.75H45.75V28.75H50.75V2.25H45.75H34.75Z" fill="#02A39F"/>
<path id="Vector_6" d="M21 2.25L14.5 12.75L8 2.25H7.5H0V29.75H7.5V16.25L14.5 27.25L21.5 16.25V29.75H29V2.25H21.5H21Z" fill="#02A39F"/>
<path id="Vector_7" d="M75.5 2C70.53 2 66.5 6.03 66.5 11V20C66.5 24.97 70.53 29 75.5 29C80.47 29 84.5 24.97 84.5 20V11C84.5 6.03 80.47 2 75.5 2ZM79.5 20C79.5 22.21 77.71 24 75.5 24C73.29 24 71.5 22.21 71.5 20V11C71.5 8.79 73.29 7 75.5 7C77.71 7 79.5 8.79 79.5 11V20Z" fill="#02A39F"/>
</g>
<defs>
<clipPath id="clip0_4738_280">
<rect width="124" height="32" fill="white"/>
</clipPath>
</defs>
</svg>
