<svg width="131" height="57" viewBox="0 0 131 57" fill="none" xmlns="http://www.w3.org/2000/svg">
<path d="M41.8066 0L32.1718 6.98275L22.5294 0H0V56.323H22.5294V49.3402L32.1718 56.323L41.8066 49.3402V56.323H130.472V0H41.8066Z" fill="#02A39F"/>
<path fill-rule="evenodd" clip-rule="evenodd" d="M123.773 7.49399H120.458V14.0293H116.464V17.3295H120.458V28.0247H123.773V7.49399ZM105.391 9.15564V12.4559H110.11V16.5428L104.755 24.5095L107.512 26.3438L111.772 20.0081L116.032 26.3438L118.788 24.5095L113.433 16.5428V12.4559H118.16V9.15564H113.433V7.11792H110.118V9.15564H105.391ZM102.897 7.49399H99.5813V28.0247H102.897V7.49399ZM97.2758 9.10575H85.6405V25.4766H97.5997V22.1763H88.9561V18.9413H96.7052V15.641H88.9561V12.406H97.2758V9.10575ZM82.5602 7.51702H79.2446V22.088H82.5602V7.51702ZM68.5655 9.04051C65.5937 9.04051 63.1768 11.4456 63.1758 14.4034C63.1768 17.3613 65.5937 19.7702 68.5655 19.7702C70.9596 19.7702 72.9952 18.2083 73.6969 16.0555H75.0462V22.0842H78.3618V7.51702H75.0462V12.7552H73.6969C72.9952 10.6024 70.9596 9.04051 68.5655 9.04051ZM68.658 31.8737H82.6411V23.0935H68.658V31.8737ZM123.777 30.1814H85.6097V31.3595H123.777V30.1814ZM123.742 42.7147C123.773 42.4576 123.773 42.0086 123.742 41.6901H123.738C123.113 41.6813 120.329 41.6858 118.663 41.6885H118.661H118.66L118.652 41.6885C118.125 41.6894 117.711 41.6901 117.516 41.6901V40.4352C118.287 40.4582 122.856 40.4582 123.634 40.4352C123.677 40.1243 123.677 39.7214 123.634 39.4106C122.647 39.3799 117.312 39.3569 116.29 39.4106C116.24 40.1666 116.228 41.9395 116.29 42.7147C117.323 42.7454 122.867 42.7569 123.742 42.7147ZM106.555 41.3834L106.555 41.3869L106.548 41.3831L106.555 41.3834ZM109.775 41.4061C108.355 41.4061 107.043 41.4061 106.555 41.3834C106.513 41.0536 106.513 40.5991 106.555 40.3009C107.076 40.2894 108.367 40.2778 109.782 40.2778C109.775 39.8864 109.782 39.472 109.802 39.1573C110.176 39.1266 110.781 39.1266 111.07 39.1573C111.089 39.4681 111.101 39.8826 111.089 40.2778C112.358 40.2778 113.588 40.2894 114.324 40.3009C114.355 40.6232 114.355 41.0991 114.324 41.3869C113.773 41.3984 112.481 41.4099 111.089 41.4099V42.3923C111.556 42.6291 112.071 42.8892 112.578 43.1451L112.579 43.1456L112.582 43.1472C113.339 43.5294 114.077 43.902 114.605 44.1729C114.524 44.4646 114.22 44.9788 114.023 45.1668C113.306 44.8253 111.702 44.0386 110.453 43.3747C109.204 44.0693 107.631 44.8867 106.906 45.2513C106.717 45.0747 106.386 44.5567 106.301 44.2765C106.91 43.9375 107.795 43.4628 108.665 42.9959L108.665 42.9959L108.666 42.9957C109.046 42.7916 109.424 42.5891 109.775 42.4V41.4061ZM105.993 48.2752C107.284 48.3174 113.9 48.3366 114.879 48.2752H114.883C114.914 47.9298 114.914 47.5269 114.883 47.2161C114.393 47.2084 112.801 47.1969 111.074 47.1969C111.074 47.0295 111.074 46.8481 111.075 46.6621V46.6599C111.076 45.985 111.077 45.2511 111.062 44.9174C110.75 44.8637 110.083 44.856 109.825 44.9174C109.802 45.3011 109.794 46.3987 109.813 47.1969C108.271 47.1969 106.783 47.2046 105.993 47.2161C105.962 47.5423 105.962 47.9759 105.993 48.2752ZM116.001 46.9513C116.001 48.0987 116.814 48.7012 120.018 48.7012C123.118 48.7012 124.035 48.1831 124.035 46.9513C124.035 45.8115 123.118 45.2129 120.018 45.2129C116.918 45.2129 116.001 45.731 116.001 46.9513ZM115.577 44.5068C117.161 44.549 123.183 44.5605 124.463 44.5068C124.494 44.196 124.494 43.77 124.463 43.4898C123.122 43.4591 117.782 43.4515 115.577 43.4898C115.546 43.793 115.546 44.2267 115.577 44.5068ZM71.9688 26.3977H79.3208V28.5736H71.9688V26.3977ZM120.013 46.249C117.588 46.249 117.226 46.4754 117.226 46.9513C117.226 47.4271 117.592 47.6766 120.013 47.6766C122.435 47.6766 122.801 47.4387 122.801 46.9513C122.801 46.4985 122.438 46.249 120.013 46.249ZM66.4854 14.4093C66.4854 13.2696 67.4145 12.3447 68.5595 12.3447C69.7045 12.3447 70.6336 13.2734 70.6336 14.4093C70.6336 15.5452 69.7007 16.4739 68.5595 16.4739C67.4183 16.4739 66.4854 15.5491 66.4854 14.4093Z" fill="white"/>
</svg>
