<svg width="131" height="57" viewBox="0 0 131 57" fill="none" xmlns="http://www.w3.org/2000/svg">
<path d="M42.3344 0L32.6997 6.98275L23.0573 0H0.527832V56.323H23.0573V49.3402L32.6997 56.323L42.3344 49.3402V56.323H131V0H42.3344Z" fill="#7547D9"/>
<path fill-rule="evenodd" clip-rule="evenodd" d="M118.612 40.441C119.382 40.464 123.963 40.464 124.748 40.441C124.791 40.1301 124.791 39.7272 124.748 39.4164C123.759 39.3857 118.403 39.3626 117.383 39.4164C117.328 40.1762 117.321 41.9453 117.383 42.7205C118.415 42.7512 123.975 42.7627 124.853 42.7205C124.884 42.4634 124.884 42.0144 124.853 41.6958C124.229 41.6871 121.439 41.6916 119.767 41.6943H119.765C119.23 41.6952 118.81 41.6958 118.612 41.6958V40.441ZM124.625 7.49595H121.299V14.0312H117.294V17.3315H121.299V28.0266H124.625V7.49595ZM106.189 9.15759V12.4579H110.922V16.5448L105.551 24.5115L108.316 26.3458L112.588 20.0101L116.861 26.3458L119.625 24.5115L114.255 16.5448V12.4579H118.995V9.15759H114.255V7.11987H110.929V9.15759H106.189ZM103.691 7.49595H100.366V28.0266H103.691V7.49595ZM98.0539 9.1077H86.3847V25.4785H98.3786V22.1783H89.7099V18.9432H97.4816V15.643H89.7099V12.408H98.0539V9.1077ZM83.2954 7.51897H79.9701V22.09H83.2954V7.51897ZM69.2599 9.04246C66.2794 9.04246 63.8555 11.4475 63.8545 14.4054C63.8555 17.3632 66.2794 19.7721 69.2599 19.7721C71.661 19.7721 73.7025 18.2103 74.4062 16.0574H75.7595V22.0862H79.0847V7.51897H75.7595V12.7572H74.4062C73.7025 10.6043 71.661 9.04246 69.2599 9.04246ZM69.3527 31.8757H83.3766V23.0954H69.3527V31.8757ZM124.632 30.1833H86.3538V31.3614H124.632V30.1833ZM107.674 39.7234C107.631 40.0227 107.631 40.5024 107.674 40.8017C108.265 40.8227 110.118 40.815 111.81 40.8081H111.81H111.811L111.815 40.808H111.815C112.602 40.8048 113.353 40.8017 113.926 40.8017C113.907 41.3274 113.907 45.0767 113.926 45.7291C114.216 45.7713 114.904 45.7713 115.155 45.7291C115.21 45.0575 115.21 40.6444 115.155 39.7234C114.092 39.6696 108.571 39.6927 107.674 39.7234ZM107.059 48.2772C108.354 48.3194 114.989 48.3386 115.971 48.2772C116.002 47.9356 116.002 47.5327 115.971 47.2219C115.418 47.2142 113.477 47.2027 111.494 47.2027C111.505 46.0322 111.494 43.557 111.482 42.9891C111.181 42.9354 110.523 42.9277 110.253 42.9891C110.233 43.5148 110.222 46.013 110.233 47.2027C108.927 47.2027 107.74 47.2103 107.059 47.2219C107.028 47.5442 107.028 47.9778 107.059 48.2772ZM117.096 46.9532C117.096 48.1007 117.912 48.7031 121.125 48.7031C124.234 48.7031 125.154 48.1851 125.154 46.9532C125.154 45.8135 124.234 45.2148 121.125 45.2148C118.017 45.2148 117.096 45.7329 117.096 46.9532ZM116.671 44.5087C118.256 44.551 124.3 44.5625 125.584 44.5087C125.614 44.1979 125.614 43.7719 125.584 43.4918C124.238 43.4611 118.883 43.4534 116.671 43.4918C116.64 43.795 116.64 44.2286 116.671 44.5087ZM72.6743 26.3997H80.0439V28.5755H72.6743V26.3997ZM121.114 46.251C118.682 46.251 118.319 46.4774 118.319 46.9532C118.319 47.4291 118.686 47.6785 121.114 47.6785C123.543 47.6785 123.91 47.4406 123.91 46.9532C123.91 46.5004 123.546 46.251 121.114 46.251ZM67.1719 14.4113C67.1719 13.2715 68.1037 12.3467 69.2521 12.3467C70.4004 12.3467 71.3323 13.2754 71.3323 14.4113C71.3323 15.5472 70.3966 16.4758 69.2521 16.4758C68.1076 16.4758 67.1719 15.551 67.1719 14.4113Z" fill="white"/>
</svg>
