<?xml version="1.0" encoding="UTF-8"?>
<svg version="1.1" xmlns="http://www.w3.org/2000/svg" xmlns:xlink="http://www.w3.org/1999/xlink">
    <symbol id="icon-captions" viewBox="0 0 14 14" xmlns="http://www.w3.org/2000/svg">
        <g fill="#fff">
          <rect x="0.875" y="2.04175" width="12.25" height="9.91667" fill="white"/>
          <path d="M6.12516 7.72925V8.75008H3.2085V5.54175H6.12516V6.56258" stroke="black" stroke-width="1.02083"/>
          <path d="M10.7917 7.72925V8.75008H7.875V5.54175H10.7917V6.56258" stroke="black" stroke-width="1.02083"/>
        </g>
        <g fill="#000">
          <rect x="1.45833" y="2.62508" width="11.0833" height="8.75" stroke="white" stroke-width="1.16667"/>
          <path d="M6.12516 7.72925V8.75008H3.2085V5.54175H6.12516V6.56258" stroke="white" stroke-width="1.02083"/>
          <path d="M10.7917 7.72925V8.75008H7.875V5.54175H10.7917V6.56258" stroke="white" stroke-width="1.02083"/>
        </g>
    </symbol>
    <symbol id="icon-chapters" viewBox="0 0 16.6 13" xmlns="http://www.w3.org/2000/svg"><path d="M1.5,0A1.54,1.54,0,0,1,3,1.5,1.54,1.54,0,0,1,1.5,3,1.54,1.54,0,0,1,0,1.5,1.47,1.47,0,0,1,1.5,0ZM6.6,0h8.5a1.47,1.47,0,0,1,1.5,1.5A1.54,1.54,0,0,1,15.1,3H6.6A1.47,1.47,0,0,1,5.1,1.5,1.37,1.37,0,0,1,6.6,0ZM1.5,5A1.54,1.54,0,0,1,3,6.5,1.54,1.54,0,0,1,1.5,8,1.54,1.54,0,0,1,0,6.5,1.47,1.47,0,0,1,1.5,5ZM6.6,5h8.5a1.47,1.47,0,0,1,1.5,1.5A1.54,1.54,0,0,1,15.1,8H6.6A1.47,1.47,0,0,1,5.1,6.5,1.37,1.37,0,0,1,6.6,5ZM1.5,10a1.5,1.5,0,0,1,0,3A1.54,1.54,0,0,1,0,11.5,1.47,1.47,0,0,1,1.5,10Zm5.1,0h8.5a1.47,1.47,0,0,1,1.5,1.5A1.54,1.54,0,0,1,15.1,13H6.6a1.47,1.47,0,0,1-1.5-1.5A1.37,1.37,0,0,1,6.6,10Z"/></symbol>
    <symbol id="icon-fullscreen" viewBox="0 0 14 14" xmlns="http://www.w3.org/2000/svg">
      <path fill-rule="evenodd" clip-rule="evenodd" d="M5.24984 1.16675H1.74984H1.1665L1.1665 1.75008L1.1665 5.25008H2.33317L2.33317 3.15837L4.83736 5.66256L5.66232 4.8376L3.15813 2.33341L5.24984 2.33341V1.16675ZM8.74984 12.8334H12.2498H12.8332V12.2501L12.8332 8.75008H11.6665L11.6665 10.8418L9.16232 8.3376L8.33736 9.16256L10.8415 11.6667H8.74984V12.8334ZM12.8332 1.75008V5.25008H11.6665V3.15837L9.16232 5.66256L8.33736 4.8376L10.8415 2.33342L8.74984 2.33341L8.74984 1.16675L12.2498 1.16675L12.8332 1.16675V1.75008ZM3.15813 11.6667H5.24984L5.24984 12.8334H1.74984H1.1665V12.2501L1.1665 8.75008H2.33317L2.33317 10.8418L4.83736 8.3376L5.66232 9.16256L3.15813 11.6667Z" fill="white"/>

    </symbol>
    <symbol id="icon-unfullscreen" viewBox="0 0 14 14" xmlns="http://www.w3.org/2000/svg">
      <path fill-rule="evenodd" clip-rule="evenodd" d="M12.8332 4.6667L9.86651 4.6667L12.6624 1.87086L11.8374 1.0459L9.33317 3.55013L9.33317 1.1667L8.1665 1.1667L8.16651 5.83337L12.8332 5.83337V4.6667ZM1.1665 4.6667V5.83337H5.83317V1.1667H4.6665V3.8418L2.16227 1.33757L1.33731 2.16252L3.84149 4.6667H1.1665ZM12.8332 9.33337V8.1667H8.1665L8.1665 12.8334H9.33317L9.33317 10.1583L11.9832 12.8083L12.8082 11.9834L10.1582 9.33337H12.8332ZM4.6665 12.8334H5.83317L5.83317 8.1667H1.1665L1.1665 9.33337H3.84149L1.19148 11.9834L2.01644 12.8083L4.6665 10.1583L4.6665 12.8334Z" fill="white"/>
    </symbol>
    <symbol id="icon-mute" viewBox="0 0 13 14" xmlns="http://www.w3.org/2000/svg">
        <g clip-path="url(#clip0_5511_11533)">
        <path d="M6.68088 0.0390857C6.50055 -0.0407422 6.29365 0.00293719 6.15664 0.15205L2.4087 4.18863H0.480901C0.215287 4.18863 0 4.42058 0 4.70676V9.29008C0 9.57626 0.215287 9.80821 0.480901 9.80821H2.4087L6.15664 13.8463C6.24891 13.9457 6.37193 13.9984 6.49635 13.9984C6.55786 13.9984 6.62077 13.9849 6.68088 13.9593C6.86122 13.8794 6.97865 13.6897 6.97865 13.4803V0.518053C6.97865 0.308693 6.86122 0.118914 6.68088 0.0390857Z" fill="white"/>
        <path d="M8.62245 9.87449C8.48406 9.87449 8.34566 9.81725 8.23941 9.70429C8.02832 9.47686 8.02692 9.10784 8.23941 8.8789C8.70493 8.37583 8.96216 7.70859 8.96216 6.99918C8.96216 6.28977 8.70633 5.62102 8.24081 5.12097C8.02972 4.89353 8.02972 4.52301 8.24081 4.29558C8.4519 4.06814 8.7944 4.06814 9.00689 4.29558C9.67652 5.01704 10.0456 5.97799 10.0456 6.99918C10.0456 8.02037 9.67652 8.97981 9.00689 9.70278C8.90065 9.81725 8.76225 9.87449 8.62385 9.87449H8.62245Z" fill="white"/>
        <path d="M10.5296 12.1655C10.2305 12.1655 9.98863 11.905 9.98863 11.5826C9.98863 11.426 10.0459 11.2784 10.1466 11.1684C11.1811 10.0539 11.7501 8.57328 11.7501 6.99932C11.7501 5.42535 11.1811 3.94327 10.1466 2.83019C9.93551 2.60276 9.93551 2.23374 10.1466 2.0048C10.3577 1.77737 10.7002 1.77737 10.9127 2.0048C12.1513 3.33778 12.8335 5.11207 12.8335 6.99932C12.8335 8.88657 12.1555 10.6488 10.9239 11.9818C10.8246 12.0947 10.6848 12.164 10.531 12.164L10.5296 12.1655Z" fill="white"/>
        </g>
        <defs>
        <clipPath id="clip0_5511_11533">
        <rect width="12.8333" height="14" fill="white"/>
        </clipPath>
        </defs>
    </symbol>
    <symbol id="icon-unmute" viewBox="0 0 15 14" xmlns="http://www.w3.org/2000/svg">
      <g clip-path="url(#clip0_5511_11529)">
        <path d="M7.19806 0.0390857C7.00377 -0.0407422 6.78085 0.00293719 6.63324 0.15205L2.59666 4.18863H0.518128C0.231953 4.18863 0 4.42058 0 4.70676V9.29008C0 9.57626 0.231953 9.80821 0.518128 9.80821H2.59516L6.63174 13.8463C6.73115 13.9457 6.86369 13.9984 6.99925 13.9984C7.06552 13.9984 7.1333 13.9849 7.19806 13.9593C7.39236 13.8794 7.51737 13.6897 7.51737 13.4803V0.518053C7.51737 0.308693 7.39086 0.118914 7.19806 0.0390857Z" fill="white"/>
        <path d="M12.4246 6.98715L14.2998 5.12099C14.5288 4.89355 14.5288 4.52454 14.3014 4.2956C14.0739 4.06816 13.7049 4.06666 13.476 4.29409L11.5962 6.16478L9.71652 4.29409C9.48758 4.06666 9.11857 4.06816 8.89113 4.2956C8.6637 4.52454 8.6652 4.89355 8.89264 5.12099L10.7678 6.98715L8.89113 8.85332C8.66219 9.08075 8.66219 9.44977 8.88963 9.67871C9.0041 9.79318 9.15321 9.85041 9.30383 9.85041C9.45445 9.85041 9.60205 9.79318 9.71502 9.68021L11.5947 7.80953L13.4745 9.68021C13.5889 9.79318 13.7365 9.85041 13.8856 9.85041C14.0348 9.85041 14.1854 9.79318 14.2983 9.67871C14.5258 9.44977 14.5243 9.08075 14.2968 8.85332L12.4216 6.98715H12.4246Z" fill="white"/>
      </g>
        <defs>
        <clipPath id="clip0_5511_11529">
        <rect width="14.4714" height="14" fill="white"/>
        </clipPath>
        </defs>
    </symbol>
    <symbol id="icon-play" viewBox="0 0 10 14" xmlns="http://www.w3.org/2000/svg">
      <path d="M10 7L-6.11959e-07 14L0 -4.37114e-07L10 7Z" fill="white"/>
    </symbol>
    <symbol id="icon-pause" viewBox="0 0 10 14" xmlns="http://www.w3.org/2000/svg">
      <rect width="3" height="14" fill="white"/>
      <rect x="7" width="3" height="14" fill="white"/>
    </symbol>
    <symbol id="icon-replay" viewBox="0 0 14 14" xmlns="http://www.w3.org/2000/svg">
      <path fill-rule="evenodd" clip-rule="evenodd" d="M1.99134 5.78273C2.31966 4.75202 3.00895 3.87442 3.93253 3.31122C4.8561 2.74802 5.95191 2.53707 7.01857 2.71713C8.08522 2.89719 9.05106 3.45616 9.73859 4.29132L10.6393 3.54983C9.7732 2.49773 8.55648 1.79357 7.21276 1.56674C5.86904 1.33991 4.48859 1.60566 3.32512 2.31515C2.16165 3.02463 1.29332 4.13019 0.879707 5.42864C0.466098 6.72709 0.535002 8.13119 1.07375 9.3829C1.61251 10.6346 2.58491 11.6498 3.81226 12.242C5.03961 12.8342 6.43944 12.9635 7.7545 12.6062C9.06955 12.2489 10.2115 11.4289 10.9704 10.2971C11.5417 9.44518 11.8169 8.52685 11.8461 7.54809L12.8625 8.49523L13.6538 7.63796L11.1709 5.33126L8.68799 7.63796L9.47932 8.49523L10.6805 7.37595C10.704 8.20607 10.5026 8.89998 10.0014 9.64737C9.39897 10.5458 8.4925 11.1967 7.4486 11.4803C6.4047 11.7639 5.2935 11.6613 4.31922 11.1912C3.34494 10.7212 2.57304 9.91528 2.14537 8.92166C1.71771 7.92804 1.66301 6.81345 1.99134 5.78273Z" fill="white"/>
    </symbol>
    <symbol id="icon-overlay-play" viewBox="0 0 90 90" xmlns="http://www.w3.org/2000/svg">
      <path fill-rule="evenodd" clip-rule="evenodd" d="M45 1.5C20.9884 1.5 1.5 20.9884 1.5 45C1.5 69.0116 20.9884 88.5 45 88.5C69.0116 88.5 88.5 69.0116 88.5 45C88.5 20.9884 69.0116 1.5 45 1.5ZM45 0C20.16 0 0 20.16 0 45C0 69.84 20.16 90 45 90C69.84 90 90 69.84 90 45C90 20.16 69.84 0 45 0Z" fill="#02A39F"/>
      <path d="M58.1464 41.7704C60.6886 43.173 60.6886 46.827 58.1464 48.2296L40.4704 57.9819C38.012 59.3382 35 57.5599 35 54.7523L35 35.2477C35 32.4401 38.012 30.6618 40.4704 32.0181L58.1464 41.7704Z" fill="#02A39F"/>
    </symbol>
    <symbol id="icon-loading-spinner" viewBox="0 0 88 90" xmlns="http://www.w3.org/2000/svg">
      <path d="M44.4207 20.25C49.981 20.25 54.4884 15.7169 54.4884 10.125C54.4884 4.53312 49.981 0 44.4207 0C38.8605 0 34.353 4.53312 34.353 10.125C34.353 15.7169 38.8605 20.25 44.4207 20.25Z" fill="#02A39F"/>
      <path opacity="0.9" d="M20.4109 27.9624C25.2305 27.9624 29.1376 24.073 29.1376 19.2752C29.1376 14.4773 25.2305 10.5879 20.4109 10.5879C15.5912 10.5879 11.6841 14.4773 11.6841 19.2752C11.6841 24.073 15.5912 27.9624 20.4109 27.9624Z" fill="#02A39F"/>
      <path opacity="0.8" d="M7.7001 49.3637C11.9527 49.3637 15.4002 45.9318 15.4002 41.6984C15.4002 37.465 11.9527 34.0332 7.7001 34.0332C3.44745 34.0332 0 37.465 0 41.6984C0 45.9318 3.44745 49.3637 7.7001 49.3637Z" fill="#02A39F"/>
      <path opacity="0.7" d="M12.4524 74.1585C16.4215 74.1585 19.6391 70.9555 19.6391 67.0043C19.6391 63.0531 16.4215 59.8501 12.4524 59.8501C8.48325 59.8501 5.26562 63.0531 5.26562 67.0043C5.26562 70.9555 8.48325 74.1585 12.4524 74.1585Z" fill="#02A39F"/>
      <path opacity="0.6" d="M32.4327 90C36.1183 90 39.1061 87.0258 39.1061 83.3568C39.1061 79.6879 36.1183 76.7136 32.4327 76.7136C28.7471 76.7136 25.7593 79.6879 25.7593 83.3568C25.7593 87.0258 28.7471 90 32.4327 90Z" fill="#02A39F"/>
      <path opacity="0.5" d="M58.2953 89.2336C61.6975 89.2336 64.4554 86.4881 64.4554 83.1014C64.4554 79.7147 61.6975 76.9692 58.2953 76.9692C54.8932 76.9692 52.1353 79.7147 52.1353 83.1014C52.1353 86.4881 54.8932 89.2336 58.2953 89.2336Z" fill="#02A39F"/>
      <path opacity="0.4" d="M77.9368 71.9709C81.0554 71.9709 83.5835 69.4542 83.5835 66.3497C83.5835 63.2452 81.0554 60.7285 77.9368 60.7285C74.8182 60.7285 72.29 63.2452 72.29 66.3497C72.29 69.4542 74.8182 71.9709 77.9368 71.9709Z" fill="#02A39F"/>
      <path opacity="0.3" d="M82.9206 46.0006C85.7258 45.5917 87.6669 42.9965 87.2562 40.204C86.8455 37.4115 84.2384 35.4792 81.4332 35.8881C78.6281 36.297 76.687 38.8922 77.0977 41.6847C77.5084 44.4771 80.1155 46.4094 82.9206 46.0006Z" fill="#02A39F"/>
      <path opacity="0.2" d="M69.0117 23.3843C71.5633 23.3843 73.6317 21.3252 73.6317 18.7852C73.6317 16.2451 71.5633 14.186 69.0117 14.186C66.4601 14.186 64.3916 16.2451 64.3916 18.7852C64.3916 21.3252 66.4601 23.3843 69.0117 23.3843Z" fill="#02A39F"/>
    </symbol>
    <symbol id="icon-overlay-pause" viewBox="0 0 90 90" xmlns="http://www.w3.org/2000/svg">
      <path fill-rule="evenodd" clip-rule="evenodd" d="M45 1.5C20.9884 1.5 1.5 20.9884 1.5 45C1.5 69.0116 20.9884 88.5 45 88.5C69.0116 88.5 88.5 69.0116 88.5 45C88.5 20.9884 69.0116 1.5 45 1.5ZM45 0C20.16 0 0 20.16 0 45C0 69.84 20.16 90 45 90C69.84 90 90 69.84 90 45C90 20.16 69.84 0 45 0Z" fill="#02A39F"/>
      <rect x="34" y="30" width="6.3" height="30" rx="3.15" fill="#02A39F"/>
      <rect x="48.7002" y="30" width="6.3" height="30" rx="3.15" fill="#02A39F"/>
    </symbol>
</svg>
