<svg xmlns="http://www.w3.org/2000/svg">
  <symbol id="icon-close-round" viewBox="0 0 40 40">
    <circle cx="20" cy="20" r="20" fill="currentColor"/>
    <path fill-rule="evenodd" clip-rule="evenodd" d="M18.5659 19.7884L12 26.3543L13.7678 28.1221L20.3337 21.5561L26.4454 27.6678L28.2131 25.9L22.1015 19.7884L28.2131 13.6767L26.4453 11.909L20.3337 18.0206L13.7678 11.4547L12 13.2224L18.5659 19.7884Z" fill="white"/>
  </symbol>
  <symbol id="icon-check" viewBox="0 0 48 48">
    <path fill-rule="evenodd" clip-rule="evenodd" d="M17.9315 37L4.23264 23.5171L7.03851 20.6663L18.0063 31.4612L41.2716 9.76782L43.9995 12.6934L17.9315 37Z" fill="currentColor"/>
  </symbol>
  <symbol id="icon-plus" viewBox="0 0 48 48">
    <path fill-rule="evenodd" clip-rule="evenodd" d="M22 26L22 42H26V26H42V22H26V6H22L22 22H6V26H22Z" fill="currentColor"/>
  </symbol>
  <symbol id="icon-close" viewBox="0 0 12 12">
    <path d="M2.5 2.5L9.5 9.5" stroke="currentColor"/>
    <path d="M2.5 9.5L9.5 2.5" stroke="currentColor"/>
  </symbol>
  <symbol id="icon-search" viewBox="0 0 48 48">
    <path fill-rule="evenodd" clip-rule="evenodd" d="M33.5 21C33.5 27.9036 27.9036 33.5 21 33.5C14.0964 33.5 8.5 27.9036 8.5 21C8.5 14.0964 14.0964 8.5 21 8.5C27.9036 8.5 33.5 14.0964 33.5 21ZM31.1675 33.996C28.3655 36.1913 24.8356 37.5 21 37.5C11.8873 37.5 4.5 30.1127 4.5 21C4.5 11.8873 11.8873 4.5 21 4.5C30.1127 4.5 37.5 11.8873 37.5 21C37.5 24.8356 36.1913 28.3655 33.996 31.1675L44.1644 41.3359L41.3359 44.1644L31.1675 33.996Z" fill="currentColor"/>
  </symbol>
  <symbol id="icon-file" viewBox="0 0 48 48">
    <path fill-rule="evenodd" clip-rule="evenodd" d="M11 4H31.6905L41 14.1961V40V44H37H11H7V40V8V4H11ZM37 19H28H26V17V8H11V40H37V19ZM36.3175 15L30 8.08086V15H36.3175Z" fill="currentColor"/>
  </symbol>
  <symbol id="icon-folder" viewBox="0 0 48 48">
    <path fill-rule="evenodd" clip-rule="evenodd" d="M18.5279 17L15.5279 11H8V37H40V17H18.5279ZM18 7L21 13H44V41H4V7H18Z" fill="currentColor"/>
  </symbol>
  <symbol id="icon-pin" viewBox="0 0 48 48">
    <path fill-rule="evenodd" clip-rule="evenodd" d="M10.8927 30L14.6667 23.3956V8H33.3333V23.3956L37.1073 30H10.8927ZM37.3333 4H10.6667V22.3333L4 34H22V44H26V34H44L37.3333 22.3333V4Z" fill="currentColor"/>
  </symbol>
  <symbol id="icon-pin-diagonal" viewBox="0 0 48 48">
    <path fill-rule="evenodd" clip-rule="evenodd" d="M16.7095 16.2235L17.7343 15.944L18.4855 15.1929L27.9309 5.74738L40.127 17.9435L30.6816 27.389L29.9304 28.1401L29.6509 29.1649L28.1171 34.789L11.0855 17.7573L16.7095 16.2235ZM27.9309 0.0905224L25.1025 2.91895L15.657 12.3644L7.82781 14.4997L3.38314 15.7119L6.64078 18.9695L15.3583 27.687L3.35851 39.6868L6.18694 42.5152L18.1867 30.5154L26.9049 39.2336L30.1626 42.4913L31.3748 38.0466L33.51 30.2174L42.9555 20.7719L45.7839 17.9435L42.9555 15.1151L30.7594 2.91895L27.9309 0.0905224Z" fill="currentColor"/>
  </symbol>
  <symbol id="icon-download" viewBox="0 0 48 48">
    <path fill-rule="evenodd" clip-rule="evenodd" d="M26.0001 4L26.0001 26.6878L35.7082 18.4732L38.292 21.5268L25.292 32.5268L24.0001 33.6199L22.7082 32.5268L9.70823 21.5268L12.292 18.4732L22.0001 26.6878L22.0001 4H26.0001ZM4 43.9999H44V39.9999H4V43.9999Z" fill="currentColor"/>
  </symbol>
  <symbol id="icon-copy" viewBox="0 0 48 48">
    <path fill-rule="evenodd" clip-rule="evenodd" d="M8 8H32V32H8V8ZM4 4H8H32H36V8V10H42H44V12V42V44H42H12H10V42V36H8H4V32V8V4ZM14 36V40H40V14H36V32V36H32H14Z" fill="currentColor"/>
  </symbol>
  <symbol id="icon-book" viewBox="0 0 48 48">
    <path fill-rule="evenodd" clip-rule="evenodd" d="M17.2641 6L23.9997 11L30.7356 6H42.2223H46.2223V10V35.3333V39.3333H42.2223H30.928L23.9998 46L17.0716 39.3333H5.77783H1.77783V35.3333V10V6H5.77783H17.2641ZM26.3839 14.2118L32.0579 10H42.2223V35.3333H30.928H29.316L28.1545 36.451L26.0001 38.5241L26.0001 14.4967L26.3839 14.2118ZM22.0001 14.4972L21.6156 14.2118L15.9417 10H5.77783V35.3333H17.0716H18.6836L19.8451 36.451L22.0001 38.5246L22.0001 14.4972Z" fill="currentColor"/>
  </symbol>
  <symbol id="icon-board-list" viewBox="0 0 14 12">
    <rect x="0.5" y="8.5" width="3" height="3" rx="1" fill="currentColor"/>
    <rect x="4.5" y="8.5" width="9" height="3" rx="1" fill="currentColor"/>
    <rect x="0.5" y="4.5" width="3" height="3" rx="1" fill="currentColor"/>
    <rect x="4.5" y="4.5" width="9" height="3" rx="1" fill="currentColor"/>
    <rect x="0.5" y="0.5" width="3" height="3" rx="1" fill="currentColor"/>
    <rect x="4.5" y="0.5" width="9" height="3" rx="1" fill="currentColor"/>
  </symbol>
  <symbol id="icon-menu" viewBox="0 0 48 48">
    <path fill-rule="evenodd" clip-rule="evenodd" d="M44 14H4V10H44V14ZM44 26H4V22H44V26ZM4 38H44V34H4V38Z" fill="currentColor"/>
  </symbol>
  <symbol id="icon-pause" viewBox="0 0 48 48">
    <path fill-rule="evenodd" clip-rule="evenodd" d="M15.25 39L15.25 9H10.75L10.75 39H15.25ZM37.25 39L37.25 9H32.75L32.75 39H37.25Z" fill="currentColor"/>
  </symbol>
  <symbol id="icon-play" viewBox="0 0 48 48">
    <path d="M38 24L14 39L14 9L38 24Z" fill="currentColor"/>
  </symbol>
  <symbol id="icon-link" viewBox="0 0 48 48">
    <path fill-rule="evenodd" clip-rule="evenodd" d="M32.9786 10.1016C35.2574 8.28035 38.5658 8.65008 40.3743 10.9128C42.181 13.1733 41.8137 16.4846 39.5355 18.3054L30.1258 25.826C27.8471 27.6473 24.5386 27.2776 22.7301 25.0148C22.0405 24.152 20.782 24.0116 19.9191 24.7012C19.0563 25.3908 18.9159 26.6493 19.6055 27.5122C22.7998 31.5088 28.627 32.1446 32.6232 28.9507L42.0328 21.4301C46.0295 18.2357 46.6906 12.4089 43.4989 8.41549C40.3046 4.41883 34.4775 3.78306 30.4813 6.977L23.8602 12.2689C22.9973 12.9585 22.8569 14.217 23.5465 15.0798C24.2362 15.9427 25.4947 16.0831 26.3575 15.3935L32.9786 10.1016ZM15.0214 37.8983C12.7427 39.7195 9.43424 39.3498 7.62575 37.087C5.81909 34.8266 6.18634 31.5153 8.46459 29.6944L17.8742 22.1738C20.153 20.3526 23.4614 20.7223 25.2699 22.9851C25.9595 23.8479 27.2181 23.9883 28.0809 23.2987C28.9437 22.6091 29.0842 21.3506 28.3945 20.4877C25.2002 16.491 19.3731 15.8553 15.3769 19.0492L5.96725 26.5698C1.97055 29.7642 1.30944 35.591 4.50112 39.5844C7.69543 43.5811 13.5226 44.2168 17.5188 41.0229L24.1399 35.731C25.0027 35.0414 25.1431 33.7829 24.4535 32.92C23.7639 32.0572 22.5054 31.9168 21.6425 32.6064L15.0214 37.8983Z" fill="currentColor"/>
  </symbol>
  <symbol id="icon-new-windows" viewBox="0 0 48 48">
    <path fill-rule="evenodd" clip-rule="evenodd" d="M38.2751 7.75H31.2878V4.25H44.25V17.2121H40.75V10.2249L24.2095 26.7653L21.7347 24.2905L38.2751 7.75ZM28.111 9.38867H10.9443V16.5835H3.75V44.7502H31.9167L31.9167 37.5553H39.111V21.2696H35.611V34.0553H14.4443V12.8887H28.111V9.38867ZM7.25 20.0835H10.9443V37.5553H28.4167L28.4167 41.2502H7.25V20.0835Z" fill="currentColor"/>
  </symbol>
  <symbol id="icon-share" viewBox="0 0 48 48">
    <path fill-rule="evenodd" clip-rule="evenodd" d="M37 14.5C38.933 14.5 40.5 12.933 40.5 11C40.5 9.067 38.933 7.5 37 7.5C35.067 7.5 33.5 9.067 33.5 11C33.5 12.933 35.067 14.5 37 14.5ZM37 18C40.866 18 44 14.866 44 11C44 7.13401 40.866 4 37 4C33.134 4 30 7.13401 30 11C30 11.4854 30.0494 11.9592 30.1434 12.4167L15.2774 19.4585C14.0945 18.5441 12.6108 18 11 18C7.13401 18 4 21.134 4 25C4 28.866 7.13401 32 11 32C12.9772 32 14.7629 31.1803 16.0358 29.8621L30.0352 36.2935C30.0119 36.5258 30 36.7615 30 37C30 40.866 33.134 44 37 44C40.866 44 44 40.866 44 37C44 33.134 40.866 30 37 30C34.6206 30 32.5184 31.1872 31.2536 33.0016L17.7651 26.8049C17.9183 26.2291 18 25.6241 18 25C18 24.0421 17.8076 23.1292 17.4594 22.2978L31.6873 15.5582C32.9711 17.0531 34.875 18 37 18ZM37 40.5C38.933 40.5 40.5 38.933 40.5 37C40.5 35.067 38.933 33.5 37 33.5C35.067 33.5 33.5 35.067 33.5 37C33.5 38.933 35.067 40.5 37 40.5ZM14.5 25C14.5 26.933 12.933 28.5 11 28.5C9.067 28.5 7.5 26.933 7.5 25C7.5 23.067 9.067 21.5 11 21.5C12.933 21.5 14.5 23.067 14.5 25Z" fill="currentColor"/>
  </symbol>
  <symbol id="icon-home" viewBox="0 0 48 48">
    <path d="M3.37587 24.0377L23.8643 5.12522C23.941 5.0545 24.059 5.0545 24.1357 5.12522L44.6241 24.0377C44.7579 24.1611 44.6705 24.3846 44.4885 24.3846H38.2C38.0895 24.3846 38 24.4742 38 24.5846V40.8C38 40.9105 37.9105 41 37.8 41H28.4C28.2895 41 28.2 40.9105 28.2 40.8V33.5077C28.2 33.3972 28.1105 33.3077 28 33.3077H20C19.8895 33.3077 19.8 33.3972 19.8 33.5077V40.8C19.8 40.9105 19.7105 41 19.6 41H10.2C10.0895 41 10 40.9105 10 40.8V24.5846C10 24.4742 9.91046 24.3846 9.8 24.3846H3.51153C3.32947 24.3846 3.24209 24.1611 3.37587 24.0377Z" fill="currentColor"/>
  </symbol>
  <symbol id="icon-file-filled" viewBox="0 0 48 48">
    <path id="Vector" d="M27.0588 13.2V0L40 13.2H27.0588Z" fill="white"/>
    <path id="Exclude" fill-rule="evenodd" clip-rule="evenodd" d="M0 0V48H40V16H24V0H0ZM17.6574 37.2648L29.4116 26.5415L27.0587 23.8582L17.7671 32.3349L12.9995 27.5712L10.5296 30.1429L17.6574 37.2648Z" fill="white"/>
  </symbol>
  <symbol id="icon-setting" viewBox="0 0 48 48">
    <path d="M27.0171 43.9996H20.978C20.3716 44.0101 19.7807 43.8073 19.3086 43.4267C18.8365 43.0461 18.5131 42.5118 18.3948 41.9171L17.8946 39.0597C17.8071 38.6451 17.6266 38.2557 17.3667 37.921C17.1068 37.5862 16.7743 37.3148 16.3942 37.1272C16.2317 37.0497 16.0867 36.9722 15.8816 36.8547C15.4047 36.5738 14.8622 36.4238 14.3087 36.4197C13.9892 36.4189 13.672 36.473 13.3709 36.5797L10.5402 37.5797C9.96658 37.7845 9.34058 37.7892 8.76397 37.5931C8.18736 37.397 7.69407 37.0117 7.36432 36.4997L4.36352 31.4998C4.04864 30.9933 3.93435 30.3874 4.04306 29.801C4.15177 29.2146 4.47564 28.69 4.95118 28.3299L7.2843 26.4824C7.61258 26.221 7.87434 25.8856 8.04818 25.5037C8.22203 25.1218 8.30303 24.7041 8.28457 24.285V23.7125C8.30509 23.2934 8.22499 22.8754 8.05098 22.4936C7.87697 22.1117 7.61409 21.7771 7.2843 21.5175L4.95118 19.6825C4.47538 19.3199 4.1511 18.7937 4.04115 18.2058C3.9312 17.6179 4.0434 17.0101 4.35602 16.5001L7.35682 11.5002C7.5999 11.1163 7.93636 10.8003 8.33476 10.5817C8.73315 10.3631 9.18048 10.249 9.63493 10.2502C9.94677 10.2501 10.2563 10.3034 10.5502 10.4077L13.3684 11.4077C13.6693 11.515 13.9867 11.5692 14.3062 11.5677C14.8598 11.5644 15.4025 11.4142 15.8791 11.1327C15.9691 11.0902 16.0567 11.0402 16.1292 10.9927L16.1717 11.0002C16.2442 10.9577 16.3167 10.9177 16.4017 10.8777C16.782 10.6904 17.1147 10.4191 17.3747 10.0843C17.6346 9.74948 17.815 9.35997 17.9021 8.94521L18.4023 6.10026C18.5176 5.50409 18.8387 4.9673 19.3094 4.58353C19.7801 4.19976 20.3706 3.99335 20.978 4.0003H27.0171C27.6245 3.99106 28.2159 4.19596 28.6873 4.57903C29.1587 4.96211 29.4802 5.49891 29.5953 6.09526L30.0954 8.94021C30.1863 9.35348 30.3681 9.74131 30.6277 10.0756C30.8872 10.4098 31.2179 10.6821 31.5958 10.8727C31.7308 10.9427 31.8759 11.0177 31.9984 11.0877L32.111 11.1452C32.5887 11.424 33.1307 11.5739 33.6839 11.5802C33.9977 11.5824 34.3094 11.5282 34.6041 11.4202L37.4399 10.4202C37.7356 10.3164 38.0467 10.2631 38.3601 10.2627C38.8148 10.2604 39.2626 10.3739 39.6612 10.5926C40.0598 10.8113 40.396 11.128 40.6382 11.5127L43.6515 16.5126C43.9609 17.0252 44.0693 17.6342 43.9557 18.222C43.842 18.8098 43.5145 19.3346 43.0364 19.695L40.7083 21.5275C40.3833 21.7913 40.1239 22.1268 39.9504 22.5076C39.7768 22.8884 39.6939 23.3042 39.708 23.7225V24.295C39.6937 24.7136 39.7765 25.1298 39.9501 25.5111C40.1236 25.8923 40.3831 26.2282 40.7083 26.4924L43.0364 28.3399C43.5142 28.6953 43.8422 29.2163 43.956 29.8008C44.0698 30.3853 43.9612 30.9912 43.6515 31.4998L40.6382 36.4997C40.3955 36.8839 40.0591 37.2002 39.6606 37.4188C39.2622 37.6375 38.8147 37.7513 38.3601 37.7497C38.0467 37.7488 37.7357 37.6955 37.4399 37.5922L34.6041 36.5922C34.3107 36.486 34.0009 36.4319 33.6889 36.4322C33.1332 36.4374 32.5885 36.5873 32.1084 36.8672L31.8784 36.9947L31.8059 37.0322L31.5933 37.1547C31.2172 37.3446 30.8877 37.6151 30.6284 37.947C30.369 38.2789 30.1862 38.664 30.0929 39.0747L29.5928 41.9196C29.4747 42.5128 29.1522 43.0458 28.6816 43.4258C28.211 43.8059 27.622 44.0089 27.0171 43.9996ZM23.9988 17.3376C22.6807 17.3376 21.3922 17.7283 20.2963 18.4604C19.2004 19.1925 18.3462 20.233 17.8418 21.4504C17.3374 22.6678 17.2054 24.0073 17.4625 25.2997C17.7197 26.5921 18.3544 27.7792 19.2864 28.711C20.2184 29.6427 21.4059 30.2773 22.6986 30.5343C23.9914 30.7914 25.3314 30.6595 26.5491 30.1552C27.7668 29.6509 28.8076 28.797 29.5399 27.7014C30.2722 26.6058 30.6631 25.3176 30.6631 24C30.6617 22.2334 29.9592 20.5396 28.7097 19.2904C27.4602 18.0412 25.7658 17.3389 23.9988 17.3376Z" fill="currentColor"/>
  </symbol>
  <symbol id="icon-myfile" viewBox="0 0 48 48">
    <path fill-rule="evenodd" clip-rule="evenodd" d="M18.6034 6H11C7.134 6 4 9.13401 4 13V34.3332C4 38.1992 7.13401 41.3332 11 41.3332H37C40.866 41.3332 44 38.1992 44 34.3332V18.9998C44 15.1338 40.866 11.9998 37 11.9998H25.9467L24.8445 9.82994C23.651 7.48023 21.2389 6 18.6034 6ZM21.2782 11.6414C20.7667 10.6344 19.7329 10 18.6034 10H11C9.34315 10 8 11.3431 8 13V34.3332C8 35.99 9.34315 37.3332 11 37.3332H37C38.6569 37.3332 40 35.99 40 34.3332V18.9998C40 17.343 38.6569 15.9998 37 15.9998H25.333C24.2035 15.9998 23.1698 15.3655 22.6583 14.3584L21.2782 11.6414ZM22.9393 19.9393C23.0832 19.7955 23.2489 19.687 23.4258 19.6138C23.6027 19.5405 23.7966 19.5 24 19.5C24.3839 19.5 24.7678 19.6464 25.0607 19.9393L30.0607 24.9393C30.6464 25.5251 30.6464 26.4749 30.0607 27.0607C29.4749 27.6464 28.5251 27.6464 27.9393 27.0607L25.5 24.6213V31C25.5 31.8284 24.8284 32.5 24 32.5C23.1716 32.5 22.5 31.8284 22.5 31V24.6213L20.0607 27.0607C19.4749 27.6464 18.5251 27.6464 17.9393 27.0607C17.3536 26.4749 17.3536 25.5251 17.9393 24.9393L22.9393 19.9393Z" fill="currentColor"/>
  </symbol>

  <symbol id="icon-faq" viewBox="0 0 32 32">
    <path d="M16.0001 25.3332H6.66675V6.6665H30.6667V25.3332H26.1201L25.7334 25.7198L21.3467 30.1065L16.9601 25.7198L16.5734 25.3332H16.0267H16.0001Z" stroke="currentColor" stroke-width="1.5"/>
    <path d="M25.3333 6.66683V1.3335H1.33325V19.9468L6.66659 20.0002" stroke="currentColor" stroke-width="1.5" stroke-miterlimit="10"/>
    <clipPath id="clip0_1175_2855">
    <rect width="32" height="32" fill="white"/>
    </clipPath>
  </symbol>
  <symbol id="icon-ask" viewBox="0 0 32 32">
    <path d="M6.21362 12.3865V10.4265C6.21362 8.3065 7.08029 6.37317 8.46696 4.97317C9.85362 3.57317 11.8536 2.6665 14.027 2.6665H17.987C22.307 2.6665 25.8003 6.1465 25.8003 10.4265V12.3865" stroke="currentColor" stroke-width="1.5" stroke-linejoin="bevel"/>
    <path d="M5.39992 21.8667H6.21325V12.3867H5.39992H1.33325V16.4534V17.8001V21.8667H5.39992Z" stroke="currentColor" stroke-width="1.5" stroke-miterlimit="10"/>
    <path d="M26.5997 21.8667H25.7864V12.3867H26.5997H30.6664V16.4534V17.8001V21.8667H26.5997Z" stroke="currentColor" stroke-width="1.5" stroke-miterlimit="10"/>
    <path d="M25.7864 21.8667V24.8934L22.213 28.3734H18.6797" stroke="currentColor" stroke-width="1.5" stroke-miterlimit="10"/>
    <path d="M16.6135 30.4C17.7549 30.4 18.6802 29.4926 18.6802 28.3733C18.6802 27.254 17.7549 26.3467 16.6135 26.3467C15.4722 26.3467 14.5469 27.254 14.5469 28.3733C14.5469 29.4926 15.4722 30.4 16.6135 30.4Z" stroke="currentColor" stroke-width="1.5" stroke-linejoin="bevel"/>
  </symbol>
  <symbol id="icon-remote" viewBox="0 0 32 32">
    <path d="M30.6666 2.6665H1.33325V22.6665H30.6666V2.6665Z" stroke="currentColor" stroke-width="1.5" stroke-miterlimit="10"/>
    <path d="M7.38672 29.3335H24.6134" stroke="currentColor" stroke-width="1.5" stroke-linejoin="round"/>
    <path d="M13.2267 22.6665L11.28 29.3332" stroke="currentColor" stroke-width="1.5" stroke-linejoin="round"/>
    <path d="M18.7734 22.6665L20.7201 29.3332" stroke="currentColor" stroke-width="1.5" stroke-linejoin="round"/>
    <path d="M10.1067 10.0264C11.7067 8.69307 13.76 7.89307 16 7.89307C18.24 7.89307 20.2934 8.69307 21.8934 10.0264" stroke="currentColor" stroke-width="1.5" stroke-miterlimit="10"/>
    <path d="M19.7732 13.4797C18.7199 12.6797 17.4132 12.1997 15.9999 12.1997C14.5866 12.1997 13.2799 12.6797 12.2266 13.4797" stroke="currentColor" stroke-width="1.5" stroke-miterlimit="10"/>
    <path d="M16.0001 17.3332C16.7365 17.3332 17.3334 16.7362 17.3334 15.9998C17.3334 15.2635 16.7365 14.6665 16.0001 14.6665C15.2637 14.6665 14.6667 15.2635 14.6667 15.9998C14.6667 16.7362 15.2637 17.3332 16.0001 17.3332Z" fill="currentColor"/>
  </symbol>
  <symbol id="icon-map" viewBox="0 0 32 32">
    <path d="M11.817 23.9208L11.228 23.6308L10.639 23.9208L2 28.1728V6.51181L11.152 3.13281L21.183 8.07181L21.772 8.36181L22.361 8.07181L31 3.81881V24.2788L21.773 28.8218L11.817 23.9208Z" stroke="currentColor" stroke-width="1.5"/>
    <path d="M21.7461 7.96777V28.9678" stroke="currentColor" stroke-width="1.5"/>
    <path d="M11.094 3.20801V24.208" stroke="currentColor" stroke-width="1.5"/>
  </symbol>
  <symbol id="icon-telephone" viewBox="0 0 32 32">
    <path d="M24.6669 23.7201L21.2535 20.3068H18.8135L16.3202 22.8001L8.1202 14.6001L10.6135 12.1068V9.66675L7.2002 6.25342H4.7602L3.26687 7.74675C2.3602 8.65342 -0.41313 12.1068 3.01354 15.5334L15.4002 27.9201C19.3869 31.9068 22.5335 28.3068 23.1869 27.6668L24.6802 26.1734V23.7334L24.6669 23.7201Z" stroke="currentColor" stroke-width="1.5" stroke-miterlimit="10"/>
    <path d="M30.1731 17.8133C29.8931 13.8533 28.2531 9.96 25.2398 6.93333C22.2264 3.90667 18.3198 2.28 14.3464 2" stroke="currentColor " stroke-width="1.5" stroke-miterlimit="10"/>
    <path d="M14.3464 6.16016C17.2398 6.42682 20.0664 7.66682 22.2798 9.88016C24.4931 12.0935 25.7331 14.9202 25.9998 17.8135" stroke="currentColor" stroke-width="1.5" stroke-miterlimit="10"/>
    <path d="M14.3464 10.3467C16.1731 10.6 17.9331 11.4133 19.3331 12.8267C20.7331 14.24 21.5598 16 21.8131 17.8133" stroke="currentColor" stroke-width="1.5" stroke-miterlimit="10"/>
    <path d="M21.8131 17.8133C21.5598 15.9867 20.7464 14.2267 19.3331 12.8267C17.9198 11.4267 16.1598 10.6 14.3464 10.3467" stroke="currentColor" stroke-width="1.5" stroke-miterlimit="10"/>
  </symbol>
  <symbol id="icon-telephone-talk" viewBox="0 0 20 20">
    <path d="M0 9.98579C0 12.6556 1.03745 15.1634 2.92049 17.0475C4.80637 18.9329 7.31472 19.9716 9.98224 19.9716C11.6009 19.9716 13.2097 19.5752 14.6365 18.825L14.7303 18.7752L20 20L18.775 14.7315L18.8247 14.6377C20.8428 10.8056 20.1123 5.98892 17.0468 2.92413C15.1595 1.03865 12.6512 0 9.98366 0C7.31614 0 4.80779 1.03865 2.92049 2.92555C1.03745 4.80818 0 7.316 0 9.98579ZM13.8961 15.8227L12.9624 16.4223C12.6938 16.5942 12.3783 16.6823 12.023 16.6823C10.1755 16.6823 7.50799 14.2711 6.42649 11.6255C5.51695 9.39045 5.50131 6.45212 6.38954 4.78971C6.73488 4.1418 7.20387 3.74112 7.74533 3.62887L8.83252 3.4058C8.86094 3.40011 8.88936 3.39727 8.91779 3.39727C9.20628 3.39727 9.50046 3.69707 9.70511 4.19722C10.0718 5.09662 10.0718 6.38107 9.70511 6.94516C9.63263 7.05598 9.55589 7.12418 9.47346 7.14976L8.41043 7.48508L8.35501 7.55754C7.76238 8.3447 7.71548 9.62063 8.23137 10.888C8.74156 12.1398 9.69232 13.0435 10.663 13.1927L10.7553 13.2069L11.7359 12.7011C11.8113 12.6627 11.9179 12.657 12.0443 12.6854C12.7706 12.8474 13.6403 13.8491 13.9672 14.649C14.1931 15.2018 14.1661 15.6522 13.8961 15.8255V15.8227Z" fill="currentColor"/>
  </symbol>
  <symbol id="icon-kakao" viewBox="0 0 32 32">
    <path d="M15.99 2.62109C7.75003 2.62109 1.10303 7.93709 1.10303 14.3921C1.10303 18.5811 3.86703 22.2501 8.01403 24.3451L6.61403 29.5871C6.58623 29.6655 6.58206 29.7503 6.60203 29.8311C6.62079 29.9123 6.66163 29.9867 6.72003 30.0461C6.80547 30.1212 6.91526 30.1628 7.02903 30.1631C7.12269 30.1552 7.21151 30.1181 7.28303 30.0571L13.323 25.9841C14.2145 26.1066 15.1131 26.1704 16.013 26.1751C24.241 26.1751 30.899 20.8591 30.899 14.3931C30.899 7.92709 24.219 2.62109 15.99 2.62109Z" stroke="currentColor" stroke-width="1.5"/>
    <path d="M6.31201 12.5312H4.68401C4.48245 12.5349 4.2839 12.4819 4.11101 12.3782C4.03397 12.3294 3.96764 12.2654 3.91601 12.1902C3.86561 12.1151 3.83155 12.0303 3.81601 11.9412C3.81068 11.8847 3.81068 11.8277 3.81601 11.7712C3.81093 11.6665 3.83087 11.5621 3.87417 11.4666C3.91747 11.3711 3.98289 11.2874 4.06501 11.2222C4.25056 11.0885 4.47434 11.0184 4.70301 11.0222H9.60301C9.80651 11.0144 10.0074 11.07 10.178 11.1812C10.2574 11.2275 10.3257 11.2906 10.378 11.3662C10.4298 11.4417 10.4639 11.5278 10.478 11.6182C10.4833 11.6711 10.4833 11.7243 10.478 11.7772C10.4833 11.8845 10.463 11.9914 10.4188 12.0893C10.3747 12.1872 10.3079 12.2732 10.224 12.3402C10.0432 12.475 9.82127 12.5429 9.59601 12.5322H8.02401V18.1252C8.03011 18.2443 8.01173 18.3635 7.97001 18.4752C7.92805 18.5875 7.86297 18.6897 7.77901 18.7752C7.6993 18.857 7.6032 18.9211 7.49701 18.9632C7.39031 19.0045 7.27637 19.0239 7.16201 19.0202C6.96258 19.0257 6.76744 18.9617 6.61001 18.8392C6.45957 18.7199 6.35758 18.5501 6.32301 18.3612C6.31245 18.2836 6.31245 18.2048 6.32301 18.1272L6.31201 12.5312Z" fill="currentColor"/>
    <path d="M10.949 11.4349C10.9958 11.2599 11.1059 11.1084 11.258 11.0099C11.4194 10.9182 11.6036 10.8741 11.789 10.8829H12.194C12.391 10.8751 12.5861 10.9229 12.757 11.0209C12.9387 11.1427 13.0679 11.3283 13.119 11.5409L15.246 17.5499C15.3007 17.7067 15.3467 17.8662 15.384 18.0279C15.3879 18.0946 15.3879 18.1613 15.384 18.2279C15.3879 18.3315 15.3689 18.4346 15.3285 18.53C15.288 18.6254 15.2271 18.7107 15.15 18.7799C15.0759 18.8565 14.9867 18.9168 14.8881 18.9571C14.7895 18.9973 14.6835 19.0167 14.577 19.0139C14.4131 19.0298 14.2485 18.9901 14.1098 18.9013C13.971 18.8124 13.8662 18.6795 13.812 18.5239L13.366 17.2169H10.566L10.12 18.5269C10.0676 18.6858 9.96153 18.8216 9.82005 18.9109C9.67844 18.9994 9.51084 19.0368 9.34505 19.0169C9.16513 19.0214 8.98897 18.965 8.84505 18.8569C8.70487 18.7459 8.61053 18.5871 8.58005 18.4109C8.57343 18.3511 8.57343 18.2908 8.58005 18.2309C8.56153 18.1254 8.56153 18.0175 8.58005 17.9119C8.59935 17.7858 8.63885 17.6635 8.69705 17.5499L10.949 11.4349ZM12.012 12.8279L11.002 16.0179H13.012L12.012 12.8279Z" fill="currentColor"/>
    <path d="M15.627 11.7761C15.6214 11.6579 15.6392 11.5397 15.6793 11.4283C15.7195 11.317 15.7812 11.2146 15.861 11.1271C15.9419 11.0444 16.0398 10.9803 16.148 10.9391C16.2557 10.8965 16.3712 10.8771 16.487 10.8821C16.6864 10.8805 16.881 10.944 17.041 11.0631C17.1883 11.1882 17.2865 11.3615 17.318 11.5521C17.3286 11.6264 17.3286 11.7018 17.318 11.7761V17.3691H20.242C20.4444 17.3665 20.6432 17.422 20.815 17.5291C20.8928 17.5767 20.9597 17.6401 21.0114 17.7152C21.0631 17.7903 21.0984 17.8755 21.115 17.9651V18.1241C21.1205 18.2303 21.1 18.3362 21.0554 18.4328C21.0108 18.5293 20.9434 18.6135 20.859 18.6781C20.6734 18.8118 20.4496 18.882 20.221 18.8781H16.627C16.398 18.8926 16.1705 18.833 15.978 18.7081C15.8066 18.5795 15.6924 18.3889 15.66 18.1771C15.652 18.0603 15.652 17.943 15.66 17.8261L15.627 11.7761Z" fill="currentColor"/>
    <path d="M21.306 11.7769C21.296 11.6639 21.3096 11.5501 21.3459 11.4427C21.3822 11.3353 21.4404 11.2366 21.5168 11.1528C21.5933 11.0691 21.6862 11.0021 21.7899 10.9562C21.8935 10.9102 22.0056 10.8863 22.119 10.8859C22.3336 10.8754 22.5453 10.9385 22.719 11.0649C22.87 11.1884 22.9718 11.3618 23.006 11.5539C23.0113 11.6284 23.0113 11.7033 23.006 11.7779V14.3819L25.696 11.2819C25.7996 11.175 25.9098 11.0748 26.026 10.9819C26.1349 10.9152 26.2603 10.8805 26.388 10.8819C26.5735 10.8808 26.7548 10.9363 26.908 11.0409C26.9803 11.0891 27.042 11.1517 27.089 11.2249C27.1384 11.2975 27.1725 11.3796 27.189 11.4659C27.193 11.487 27.193 11.5087 27.189 11.5299C27.1838 11.5546 27.1838 11.5801 27.189 11.6049C27.189 11.7165 27.1597 11.8261 27.104 11.9229C27.0483 12.0257 26.9812 12.122 26.904 12.2099L25.133 14.1449L27.26 17.4449V17.5519C27.3712 17.704 27.4576 17.8727 27.516 18.0519V18.1049C27.5286 18.2282 27.511 18.3528 27.4646 18.4678C27.4183 18.5828 27.3446 18.6848 27.25 18.7649C27.0725 18.898 26.8558 18.9684 26.634 18.9649C26.4857 18.9692 26.3389 18.9348 26.208 18.8649C26.0663 18.7702 25.9496 18.6425 25.868 18.4929L23.891 15.3039L22.944 16.2919V18.0679C22.9507 18.3058 22.8675 18.5376 22.711 18.7169C22.6268 18.7988 22.5268 18.8628 22.4172 18.9049C22.3075 18.947 22.1904 18.9664 22.073 18.9619C21.8769 18.9657 21.6854 18.9018 21.531 18.7809C21.3806 18.6616 21.2786 18.4917 21.244 18.3029C21.2334 18.2252 21.2334 18.1465 21.244 18.0689L21.306 11.7769Z" fill="currentColor"/>
  </symbol>
  <symbol id="icon-star" viewBox="0 0 16 16">
    <path stroke="currentColor" stroke-linecap="round" stroke-linejoin="round" d="M9.037 2.867l1.055 2.129c.144.296.528.58.852.635l1.914.32c1.224.206 1.512 1.101.63 1.985L12 9.436c-.252.254-.39.744-.312 1.095l.426 1.856c.336 1.47-.438 2.039-1.728 1.27l-1.793-1.07c-.324-.194-.858-.194-1.188 0l-1.794 1.07c-1.284.769-2.064.194-1.728-1.27l.426-1.857c.078-.35-.06-.84-.312-1.094l-1.488-1.5c-.876-.884-.594-1.779.63-1.985l1.914-.32c.318-.055.702-.339.846-.635l1.056-2.13c.576-1.155 1.512-1.155 2.082 0z"/>
  </symbol>
  <symbol id="icon-quick-miraen" viewBox="0 0 34 34"><rect width="34" height="34" fill="#fff" rx="14"/>
    <path fill="currentColor" d="M19.698 9l-2.699 2.636L14.302 9H8v16h6.3v-3.289l2.7 1.983 2.7-1.983V25H26V9h-6.302z" opacity=".5"/>
  </symbol>
  <symbol id="icon-quick-user" viewBox="0 0 12 12">
    <path fill-rule="evenodd" clip-rule="evenodd" d="M6 0.5C5.33696 0.5 4.70107 0.763392 4.23223 1.23223C3.76339 1.70107 3.5 2.33696 3.5 3C3.5 3.49445 3.64662 3.9778 3.92133 4.38892C4.19603 4.80005 4.58648 5.12048 5.04329 5.3097C5.50011 5.49892 6.00277 5.54843 6.48773 5.45196C6.97268 5.3555 7.41813 5.1174 7.76777 4.76777C8.1174 4.41813 8.3555 3.97268 8.45196 3.48773C8.54843 3.00277 8.49892 2.50011 8.3097 2.04329C8.12048 1.58648 7.80005 1.19603 7.38893 0.921326C6.9778 0.646622 6.49445 0.5 6 0.5ZM4.93934 1.93934C5.22064 1.65804 5.60217 1.5 6 1.5C6.29667 1.5 6.58668 1.58797 6.83335 1.7528C7.08003 1.91762 7.27229 2.15189 7.38582 2.42597C7.49935 2.70006 7.52905 3.00166 7.47118 3.29264C7.4133 3.58361 7.27044 3.85088 7.06066 4.06066C6.85088 4.27044 6.58361 4.4133 6.29263 4.47118C6.00166 4.52905 5.70006 4.49935 5.42597 4.38582C5.15189 4.27229 4.91762 4.08003 4.7528 3.83335C4.58797 3.58668 4.5 3.29667 4.5 3C4.5 2.60218 4.65804 2.22064 4.93934 1.93934ZM3.14536 6.5H2.94019L2.79415 6.64412L0.648787 8.76136L0.5 8.90819V9.11723V12H1.5V9.32628L3.35054 7.5H8.89285L10.5 8.92528V12H11.5V8.7004V8.47552L11.3318 8.32631L9.41437 6.62591L9.27239 6.5H9.08262H3.14536Z" fill="currentColor"/>
  </symbol>
  <symbol id="icon-quick-password" viewBox="0 0 12 12">
    <path fill-rule="evenodd" clip-rule="evenodd" d="M9 2.53455V5H10H11V6V10.2975L9.22242 12H2H1.00083H1L1.00029 11L1.00201 5H3V2.53455L4.19267 1H7.80649L9 2.53455ZM4 5H8V2.87765L7.3174 2H4.68197L4 2.87746V5ZM2.00172 6L2.00029 11H8.82079L10 9.8706V6H2.00172ZM5.5 10V8H6.5V10H5.5Z" fill="currentColor"/>
  </symbol>
  <symbol id="icon-circle-plus" viewBox="0 0 40 40">
    <path d="M40 20C40 31.0457 31.0457 40 20 40C8.9543 40 0 31.0457 0 20C0 8.9543 8.9543 0 20 0C31.0457 0 40 8.9543 40 20Z" fill="currentColor"/>
    <path fill-rule="evenodd" clip-rule="evenodd" d="M28 21H12V18H28V21Z" fill="white"/>
    <path fill-rule="evenodd" clip-rule="evenodd" d="M18.5 27.5L18.5 11.5L21.5 11.5L21.5 27.5L18.5 27.5Z" fill="white"/>
  </symbol>
  <symbol id="icon-circle-minus" viewBox="0 0 40 40">
    <path d="M40 20C40 31.0457 31.0457 40 20 40C8.9543 40 0 31.0457 0 20C0 8.9543 8.9543 0 20 0C31.0457 0 40 8.9543 40 20Z" fill="currentColor"/>
    <path fill-rule="evenodd" clip-rule="evenodd" d="M28 21.5H12V18.5H28V21.5Z" fill="white"/>
  </symbol>
  <symbol id="icon-recently" viewBox="0 0 24 28">
    <path fill="currentColor" d="M0 1a1 1 0 0 1 1-1h22a1 1 0 0 1 1 1v25.408a1 1 0 0 1-1.434.9l-10.132-4.884a1 1 0 0 0-.868 0L1.434 27.308a1 1 0 0 1-1.434-.9V1z"/>
    <path fill="#fff" d="M4.567 11.778l-.59-1.01c1.37-.36 2.02-1.22 2.11-2.14h-1.84v-1.05h1.85v-1h1.33v1h1.87v1.05h-1.86c.09.88.76 1.71 2.11 2.06l-.58 1c-1.06-.27-1.78-.86-2.19-1.62-.41.8-1.14 1.42-2.21 1.71zm2.86-.27v1.34c.74-.05 1.47-.11 2.17-.22l.08.96c-1.98.4-4.15.41-5.73.42l-.17-1.07c.68 0 1.48 0 2.32-.03v-1.4h1.33zm2.67-5.02h1.32v9.24h-1.32v-9.24zm5.009 5.94v2.07h5.25v1.05h-6.57v-3.12h1.32zm4.79-1.85h1.18v1.05h-8.34v-1.05h5.84c.2-1.02.23-1.8.23-2.52h-5.04v-1.05h6.34v.8c0 .78 0 1.65-.21 2.77z"/>
  </symbol>
  <symbol id="icon-gallery" viewBox="0 0 16 16">
  <rect x="2.5" y="2.5" width="5" height="5" rx="1" fill="currentColor"/>
  <rect x="2.5" y="9.5" width="5" height="5" rx="1" fill="currentColor"/>
  <rect x="8.5" y="2.5" width="5" height="5" rx="1" fill="currentColor"/>
  <rect x="8.5" y="9.5" width="5" height="5" rx="1" fill="currentColor"/>

  </symbol>
  <symbol id="icon-caution-line" viewBox="0 0 18 18">
  <path fill-rule="evenodd" clip-rule="evenodd" d="M8.99935 16.291C13.0264 16.291 16.291 13.0264 16.291 8.99935C16.291 4.97227 13.0264 1.70768 8.99935 1.70768C4.97227 1.70768 1.70768 4.97227 1.70768 8.99935C1.70768 13.0264 4.97227 16.291 8.99935 16.291ZM8.99935 17.3327C13.6017 17.3327 17.3327 13.6017 17.3327 8.99935C17.3327 4.39698 13.6017 0.666016 8.99935 0.666016C4.39698 0.666016 0.666015 4.39698 0.666015 8.99935C0.666015 13.6017 4.39698 17.3327 8.99935 17.3327Z" fill="currentColor"/>
  <path d="M8.01522 5.45608C7.98384 4.89124 8.4334 4.41602 8.99911 4.41602C9.56481 4.41602 10.0144 4.89124 9.98299 5.45608L9.73207 9.97264C9.71046 10.3617 9.38871 10.666 8.99911 10.666C8.6095 10.666 8.28775 10.3616 8.26614 9.97264L8.01522 5.45608Z" fill="currentColor"/>
  <path d="M9.83268 12.3333C9.83268 12.7936 9.45959 13.1667 8.99935 13.1667C8.53911 13.1667 8.16602 12.7936 8.16602 12.3333C8.16602 11.8731 8.53911 11.5 8.99935 11.5C9.45959 11.5 9.83268 11.8731 9.83268 12.3333Z" fill="currentColor"/>
  </symbol>
  <symbol id="icon-kebab" viewBox="0 0 20 20">
    <circle cx="10.2083" cy="3.12496" r="1.45833" fill="currentColor"/>
    <circle cx="10.2083" cy="10.2083" r="1.45833" fill="currentColor"/>
    <circle cx="10.2083" cy="16.875" r="1.45833" fill="currentColor"/>
  </symbol>
  <symbol id="icon-like" viewBox="0 0 12 12">
    <path d="M9.54433 5.20214H7.80442C7.45307 5.20214 7.23047 4.78748 7.39892 4.44701C7.5 4.24431 7.59866 4.04427 7.66003 3.91046C7.86699 3.46136 8.20631 2.43464 7.62874 1.81596C7.3159 1.48079 7.01508 1.46489 6.79248 1.53113C6.59996 1.58942 6.43752 1.73118 6.32321 1.91135L4.25 5.19287V10.5H7.90068C8.12328 10.5 8.3158 10.4457 8.47945 10.3755C8.84764 10.2178 9.13522 9.89324 9.30368 9.49978C9.53831 8.94999 10.1147 7.604 10.3866 6.74818C10.892 5.16107 9.54433 5.20082 9.54433 5.20082V5.20214Z" stroke="currentColor" stroke-linecap="round" stroke-linejoin="round"/>
    <path d="M4.25 5.25H1.5V10.5H4.25V5.25Z" stroke="currentColor" stroke-linecap="round" stroke-linejoin="round"/>
  </symbol>
  <symbol id="icon-modify" viewBox="0 0 16 16" fill="none">
    <path fill-rule="evenodd" clip-rule="evenodd" d="M9.84494 1.83078L9.37354 1.35938L8.90213 1.83078L1.53193 9.20098L1.33667 9.39624L1.33667 9.67239L1.33667 13.3333H1.3335V14.6667H14.6668V13.3333H7.65465L14.0297 6.95831L14.5011 6.48691L14.0297 6.01551L9.84494 1.83078ZM2.67 9.94853L9.37354 3.24499L12.6155 6.48691L5.91015 13.1922L2.67 13.213L2.67 9.94853Z" fill="currentColor"/>
  </symbol>
  <symbol id="icon-calendar" viewBox="0 0 48 48">
    <path fill-rule="evenodd" clip-rule="evenodd" d="M12 13.5V11H8V18H40V11H36V13.5H32V11H16V13.5H12ZM32 7H16V4H12V7H8H4V11V40V44H8H40H44V40V11V7H40H36V4H32V7ZM8 22V40H40V22H8Z" fill="currentColor"/>
  </symbol>
  <symbol id="icon-del" viewBox="0 0 48 48">
  <path fill-rule="evenodd" clip-rule="evenodd" d="M16 2H14V4V10H12H8H2.94727V14H8V41V45H12H36H40V41V14H45.0525V10H40H36H34V4V2H32H16ZM30 10V6H18V10H30ZM14 14H12V41H36V14H34H30H18H14ZM18 33V21H22V33H18ZM26 21V33H30V21H26Z" fill="currentColor"/>
  </symbol>
  <symbol id="icon-inquire" viewBox="0 0 48 48">
    <path fill-rule="evenodd" clip-rule="evenodd" d="M46 5.5H2V42.5172C2 44.4772 4.36973 45.4587 5.75563 44.0728L13.3284 36.5H46V5.5ZM6 38.1716V9.5H42V32.5H11.6716L6 38.1716ZM15 23.5C16.3807 23.5 17.5 22.3807 17.5 21C17.5 19.6193 16.3807 18.5 15 18.5C13.6193 18.5 12.5 19.6193 12.5 21C12.5 22.3807 13.6193 23.5 15 23.5ZM26.5 21C26.5 22.3807 25.3807 23.5 24 23.5C22.6193 23.5 21.5 22.3807 21.5 21C21.5 19.6193 22.6193 18.5 24 18.5C25.3807 18.5 26.5 19.6193 26.5 21ZM33 23.5C34.3807 23.5 35.5 22.3807 35.5 21C35.5 19.6193 34.3807 18.5 33 18.5C31.6193 18.5 30.5 19.6193 30.5 21C30.5 22.3807 31.6193 23.5 33 23.5Z" fill="currentColor"/>
  </symbol>
  <symbol id="icon-reload" viewBox="0 0 48 48" fill="none">
    <path fill-rule="evenodd" clip-rule="evenodd" d="M6.828 19.8261C7.95369 16.2922 10.317 13.2833 13.4835 11.3523C16.65 9.42138 20.4071 8.69811 24.0642 9.31546C27.7213 9.9328 31.0328 11.8493 33.39 14.7127L36.4782 12.1704C33.5087 8.56324 29.3371 6.14896 24.73 5.37126C20.123 4.59356 15.39 5.5047 11.401 7.93722C7.41191 10.3697 4.43478 14.1602 3.0167 18.612C1.59861 23.0639 1.83485 27.8779 3.682 32.1695C5.52915 36.4611 8.86311 39.9419 13.0712 41.9721C17.2792 44.0024 22.0786 44.4458 26.5874 43.2207C31.0962 41.9957 35.0113 39.1845 37.6134 35.3039C39.572 32.383 40.5155 29.2345 40.6157 25.8787L44.1007 29.1261L46.8138 26.1869L38.301 18.2782L29.788 26.1869L32.5011 29.1261L36.6195 25.2886C36.7001 28.1347 36.0093 30.5138 34.2911 33.0763C32.2256 36.1567 29.1177 38.3882 25.5386 39.3607C21.9595 40.3331 18.1497 39.9812 14.8093 38.3695C11.4689 36.7579 8.82241 33.9948 7.35612 30.5881C5.88984 27.1814 5.70231 23.36 6.828 19.8261Z" fill="currentColor"/>
  </symbol>
  <symbol id="icon-close-white" viewBox="0 0 38 36" fill="none">
    <path d="M1.90625 33.9707L35.8981 1.95885" stroke="#fff" stroke-width="3" stroke-linecap="round"/>
    <path d="M35.9062 34.041L1.91435 2.02916" stroke="#fff" stroke-width="3" stroke-linecap="round"/>
  </symbol>
  <symbol id="icon-list" viewBox="0 0 48 48" fill="none">
    <path fill-rule="evenodd" clip-rule="evenodd" d="M9 11H4V16H9V11ZM13 16L44 16V11L13 11V16ZM44 27L13 27V22L44 22V27ZM9 22H4V27H9V22ZM44 38L13 38V33L44 33V38ZM9 33H4V38H9V33Z" fill="currentColor"/>
  </symbol>
  <symbol id="icon-folder-arrow-up" viewBox="0 0 48 48" fill="none">
    <path fill-rule="evenodd" clip-rule="evenodd" d="M18.6034 6H11C7.134 6 4 9.13401 4 13V34.3332C4 38.1992 7.13401 41.3332 11 41.3332H37C40.866 41.3332 44 38.1992 44 34.3332V18.9998C44 15.1338 40.866 11.9998 37 11.9998H25.9467L24.8445 9.82994C23.651 7.48023 21.2389 6 18.6034 6ZM21.2782 11.6414C20.7667 10.6344 19.7329 10 18.6034 10H11C9.34315 10 8 11.3431 8 13V34.3332C8 35.99 9.34315 37.3332 11 37.3332H37C38.6569 37.3332 40 35.99 40 34.3332V18.9998C40 17.343 38.6569 15.9998 37 15.9998H25.333C24.2035 15.9998 23.1698 15.3655 22.6583 14.3584L21.2782 11.6414ZM22.9393 19.9393C23.0832 19.7955 23.2489 19.687 23.4258 19.6138C23.6027 19.5405 23.7966 19.5 24 19.5C24.3839 19.5 24.7678 19.6464 25.0607 19.9393L30.0607 24.9393C30.6464 25.5251 30.6464 26.4749 30.0607 27.0607C29.4749 27.6464 28.5251 27.6464 27.9393 27.0607L25.5 24.6213V31C25.5 31.8284 24.8284 32.5 24 32.5C23.1716 32.5 22.5 31.8284 22.5 31V24.6213L20.0607 27.0607C19.4749 27.6464 18.5251 27.6464 17.9393 27.0607C17.3536 26.4749 17.3536 25.5251 17.9393 24.9393L22.9393 19.9393Z" fill="currentColor"/>
  </symbol>
  <symbol id="icon-logout" viewBox="0 0 18 18" fill="none">
    <path d="M3.75 3.75H9V2.25H3.75C2.925 2.25 2.25 2.925 2.25 3.75V14.25C2.25 15.075 2.925 15.75 3.75 15.75H9V14.25H3.75V3.75ZM15.75 9L12.75 6V8.25H6.75V9.75H12.75V12L15.75 9Z" fill="currentColor"/>
  </symbol>
  <symbol id="icon-login" viewBox="0 0 18 18" fill="none">
    <path d="M3.75 3.75H9V2.25H3.75C2.925 2.25 2.25 2.925 2.25 3.75V14.25C2.25 15.075 2.925 15.75 3.75 15.75H9V14.25H3.75V3.75Z" fill="currentColor"/>
    <path d="M9.75 12L6.75 9L9.75 6L9.75 8.25L15.75 8.25L15.75 9.75L9.75 9.75L9.75 12Z" fill="currentColor"/>
  </symbol>
  <symbol id="icon-minus" viewBox="0 0 48 48" fill="none">
    <path fill-rule="evenodd" clip-rule="evenodd" d="M42 26H6V22H42V26Z" fill="currentColor"/>
  </symbol>
  <symbol id="icon-trash-can" viewBox="0 0 16 16" fill="none">
    <path fill-rule="evenodd" clip-rule="evenodd" d="M5.33333 0.666504H4.66667V1.33317V3.33317H4H2.66667H0.982422V4.6665H2.66667V13.6665V14.9998H4H12H13.3333V13.6665V4.6665H15.0175V3.33317H13.3333H12H11.3333V1.33317V0.666504H10.6667H5.33333ZM10 3.33317V1.99984H6V3.33317H10ZM4.66667 4.6665H4V13.6665H12V4.6665H11.3333H10H6H4.66667ZM6 10.9998V6.99984H7.33333V10.9998H6ZM8.66667 6.99984V10.9998H10V6.99984H8.66667Z" fill="currentColor"/>
  </symbol>
  <symbol id="icon-new-windows-single" viewBox="0 0 16 16" fill="none">
    <path fill-rule="evenodd" clip-rule="evenodd" d="M12.5572 2.66683H9.58988V1.3335H14.1667H14.8333V2.00016V6.57695H13.5V3.60967L8.00004 9.10964L7.05723 8.16683L12.5572 2.66683ZM1.33337 3.00016H2.00004H8.45837V4.3335H2.66671V13.3335H11.6667V7.91088H13V14.0002V14.6668H12.3334H2.00004H1.33337V14.0002V3.66683V3.00016Z" fill="currentColor"/>
  </symbol>
  <symbol id="icon-question" viewBox="0 0 23 23" fill="none">
    <path d="M11.0128 21.6925C9.45785 21.6925 8.01112 21.4152 6.67266 20.8605C5.33419 20.3058 4.16303 19.5332 3.15918 18.5426C2.17501 17.5521 1.39752 16.4031 0.826701 15.0956C0.275567 13.7683 0 12.3419 0 10.8165C0 9.27132 0.275567 7.84496 0.826701 6.53747C1.37783 5.22997 2.14549 4.09087 3.12965 3.12016C4.1335 2.12963 5.29482 1.36693 6.61361 0.832041C7.95208 0.277347 9.3988 0 10.9538 0C12.5285 0 13.9752 0.277347 15.294 0.832041C16.6324 1.36693 17.7938 2.12963 18.7779 3.12016C19.7818 4.09087 20.5593 5.23988 21.1104 6.56718C21.6615 7.87468 21.9371 9.30103 21.9371 10.8463C21.9371 12.3717 21.6615 13.798 21.1104 15.1253C20.5593 16.4328 19.7818 17.5818 18.7779 18.5724C17.7938 19.5431 16.6423 20.3058 15.3235 20.8605C14.0047 21.4152 12.5678 21.6925 11.0128 21.6925ZM21.6653 21.6392C20.92 22.3893 19.7065 22.3893 18.9612 21.6392L11.9047 14.5372C11.1662 13.7938 11.1662 12.5938 11.9047 11.8504C12.65 11.1003 13.8635 11.1003 14.6088 11.8504L21.6653 18.9525C22.4038 19.6958 22.4038 20.8959 21.6653 21.6392ZM10.9538 17.4432C12.2135 17.4432 13.3059 17.1658 14.2311 16.6111C15.1562 16.0564 15.8746 15.2838 16.3864 14.2933C16.9178 13.2829 17.1836 12.124 17.1836 10.8165C17.1836 9.82601 17.0359 8.93454 16.7407 8.14212C16.4454 7.32989 16.0223 6.63652 15.4711 6.06202C14.92 5.4677 14.2606 5.02196 13.4929 4.72481C12.745 4.40784 11.8986 4.24935 10.9538 4.24935C9.71374 4.24935 8.63115 4.5267 7.70603 5.0814C6.78092 5.61628 6.05263 6.37898 5.52118 7.36951C5.00941 8.34022 4.75353 9.48923 4.75353 10.8165C4.75353 11.8071 4.90115 12.7084 5.19641 13.5207C5.49166 14.3329 5.91485 15.0362 6.46598 15.6305C7.01712 16.205 7.66667 16.6507 8.41463 16.9677C9.18228 17.2847 10.0287 17.4432 10.9538 17.4432Z" fill="currentColor"/>
  </symbol>
  <symbol id="icon-search-lg" viewBox="0 0 28 29" fill="none">
    <path fill-rule="evenodd" clip-rule="evenodd" d="M20.5 12C20.5 16.4183 16.9183 20 12.5 20C8.08172 20 4.5 16.4183 4.5 12C4.5 7.58172 8.08172 4 12.5 4C16.9183 4 20.5 7.58172 20.5 12ZM18.8535 22.1819C17.011 23.3341 14.8333 24 12.5 24C5.87258 24 0.5 18.6274 0.5 12C0.5 5.37258 5.87258 0 12.5 0C19.1274 0 24.5 5.37258 24.5 12C24.5 14.848 23.5079 17.4642 21.8504 19.522L27.4142 25.0858C28.1953 25.8668 28.1953 27.1332 27.4142 27.9142C26.6332 28.6953 25.3668 28.6953 24.5858 27.9142L18.8535 22.1819Z" fill="#02A39F"/>
  </symbol>
  <symbol id="icon-reple" viewBox="0 0 12 12" fill="none">
    <path fill-rule="evenodd" clip-rule="evenodd" d="M2 2.25H1V8.75H7.5L7.5 10.25L11 8.25L7.5 6.25L7.5 7.75H2V2.25Z" fill="currentColor"/>
  </symbol>
  <symbol id="icon-check-half-rounded" viewBox="0 0 10 10" fill="none">
    <path d="M3.3501 4.5L4.8501 6L8.8501 2.5" stroke="currentColor" stroke-width="1.5" stroke-linecap="round" stroke-linejoin="round"/>
    <path d="M8.68863 5.12607C8.34062 5.12541 8.06142 5.40337 7.98159 5.7421C7.64719 7.16104 6.37282 8.21716 4.85177 8.21716C3.07591 8.21716 1.63629 6.77754 1.63629 5.00167C1.63629 3.22581 3.07591 1.78619 4.85177 1.78619C5.22681 1.78619 5.58686 1.8504 5.92152 1.96842C6.25988 2.08775 6.65859 1.99225 6.83858 1.68187V1.68187C7.01474 1.37808 6.91525 0.984253 6.59139 0.848443C6.0562 0.624006 5.46847 0.5 4.85177 0.5C2.36557 0.5 0.350098 2.51547 0.350098 5.00167C0.350098 7.48788 2.36557 9.50335 4.85177 9.50335C7.07023 9.50335 8.91389 7.89861 9.28525 5.7866C9.34819 5.42864 9.05208 5.12676 8.68863 5.12607V5.12607Z" fill="currentColor"/>
  </symbol>
  <symbol id="icon-tv" viewBox="0 0 16 16" fill="none">
    <path fill-rule="evenodd" clip-rule="evenodd" d="M13.334 3.66634H2.66732V10.1663H7.33398H8.66732H13.334V3.66634ZM2.66732 11.4997H7.33398V13.333H4.66732V14.6663H11.334V13.333H8.66732V11.4997H13.334H14.6673V10.1663V3.66634V2.33301H13.334H2.66732H1.33398V3.66634V10.1663V11.4997H2.66732Z" fill="currentColor"/>
  </symbol>
  <symbol id="icon-play-rounded" viewBox="0 0 16 16" fill="none">
    <path d="M11.3093 7.15209C11.936 7.54376 11.936 8.45642 11.3093 8.84808L6.19609 12.0438C5.53004 12.4601 4.66609 11.9813 4.66609 11.1958L4.66609 4.80433C4.66609 4.0189 5.53004 3.54005 6.19609 3.95633L11.3093 7.15209Z" fill="currentColor"/>
  </symbol>
  <symbol id="logo-mirae-n" viewBox="0 0 112 30" fill="none">
    <path d="M26.4079 9.12981C25.917 9.13757 25.4431 8.95032 25.0901 8.60913C24.7371 8.26794 24.5338 7.80067 24.5249 7.30981V6.53681C24.5398 6.0479 24.7449 5.58411 25.0966 5.24417C25.4483 4.90424 25.9188 4.71502 26.4079 4.71681H26.5909C27.0798 4.71529 27.5499 4.90465 27.9012 5.24459C28.2526 5.58452 28.4573 6.04817 28.4719 6.53681V7.30981C28.4632 7.8004 28.2603 8.26752 27.9077 8.60871C27.5551 8.9499 27.0815 9.1373 26.5909 9.12981H26.4079Z" fill="currentColor"/>
    <path d="M18.747 27.7508C18.2671 27.7513 17.8067 27.5613 17.4669 27.2224C17.1271 26.8836 16.9358 26.4236 16.935 25.9438V11.2888C15.682 13.5398 13.176 18.0178 13.176 18.0178C12.9282 18.5269 12.5371 18.9525 12.0506 19.2423C11.5642 19.532 11.0037 19.6733 10.438 19.6488C9.87188 19.6697 9.31184 19.5259 8.82583 19.2348C8.33982 18.9437 7.94873 18.5178 7.70002 18.0088L3.95002 11.2878V25.9438C3.94949 26.1816 3.90213 26.417 3.81063 26.6365C3.71914 26.856 3.5853 27.0554 3.41676 27.2232C3.24822 27.391 3.04828 27.5239 2.82836 27.6145C2.60844 27.705 2.37284 27.7513 2.13502 27.7508H1.81002C1.33066 27.7502 0.871037 27.5598 0.531797 27.2211C0.192556 26.8824 0.00134053 26.4231 1.80784e-05 25.9438V7.34078C-0.00135198 6.97139 0.0751642 6.60587 0.224576 6.26805C0.373987 5.93022 0.592937 5.6277 0.867144 5.38019C1.14135 5.13269 1.46465 4.94577 1.81597 4.83163C2.16728 4.7175 2.5387 4.6787 2.90602 4.71778C3.43328 4.70168 3.95449 4.83369 4.41053 5.09882C4.86656 5.36396 5.23915 5.75161 5.48602 6.21778C5.48602 6.21778 9.44502 13.2678 10.437 15.0388C11.58 13.0098 15.39 6.22278 15.39 6.22278C15.6367 5.75468 16.0097 5.36514 16.4666 5.0984C16.9235 4.83166 17.4461 4.6984 17.975 4.71378C18.342 4.67496 18.713 4.71398 19.0639 4.82829C19.4147 4.94259 19.7376 5.12962 20.0112 5.37716C20.2849 5.62469 20.5033 5.92717 20.6521 6.26484C20.801 6.6025 20.8769 6.96777 20.875 7.33678V25.9368C20.874 26.4164 20.6827 26.876 20.3432 27.2148C20.0037 27.5535 19.5436 27.7438 19.064 27.7438L18.747 27.7508Z" fill="currentColor"/>
    <path d="M26.4019 27.7481C25.9154 27.7505 25.4471 27.563 25.0966 27.2256C24.7461 26.8882 24.541 26.4274 24.5249 25.9411V12.2951C24.5426 11.81 24.7484 11.3509 25.0987 11.0149C25.4491 10.6789 25.9165 10.4925 26.4019 10.4952H26.5969C27.0823 10.4922 27.5497 10.6786 27.9 11.0147C28.2502 11.3507 28.4557 11.81 28.4729 12.2951V25.9481C28.4573 26.4344 28.2525 26.8953 27.9021 27.2328C27.5517 27.5703 27.0834 27.7577 26.5969 27.7551L26.4019 27.7481Z" fill="currentColor"/>
    <path d="M49.6451 27.9032C45.7631 27.9032 43.4451 25.7752 43.4451 22.2182V21.8602C43.4451 17.0792 47.1261 16.3672 49.3191 16.3672H53.8751C53.8401 14.5222 53.4071 13.9802 51.0871 13.9802H47.2091H46.3821C46.1462 13.9995 45.9089 13.9703 45.6848 13.8943C45.4607 13.8183 45.2545 13.6972 45.079 13.5385C44.9035 13.3798 44.7624 13.1867 44.6643 12.9714C44.5663 12.756 44.5135 12.5228 44.5091 12.2862V12.1222C44.501 11.8711 44.5475 11.6212 44.6454 11.3898C44.7433 11.1585 44.8903 10.9511 45.0762 10.7822C45.2621 10.6132 45.4825 10.4866 45.7221 10.4111C45.9617 10.3357 46.2149 10.3132 46.4641 10.3452H51.0871C55.5591 10.3452 57.8281 12.4732 57.8281 16.6632V22.7662C57.8281 25.8352 55.4501 27.9032 51.9111 27.9032H49.6451ZM49.2951 19.9952C48.0181 19.9952 47.3951 20.4752 47.3951 21.4672V22.4592C47.3951 23.4542 47.5661 24.2742 49.6461 24.2742H52.3791C52.5748 24.2813 52.7699 24.2488 52.9527 24.1786C53.1355 24.1084 53.3022 24.002 53.4428 23.8657C53.5834 23.7294 53.6949 23.566 53.7708 23.3855C53.8466 23.205 53.8852 23.011 53.8841 22.8152V19.9952H49.2951Z" fill="currentColor"/>
    <path d="M67.8701 10.3418C72.1701 10.3418 74.6291 12.4668 74.6291 16.0258V16.3838C74.6291 21.1598 70.9501 21.8738 68.7551 21.8738H64.2021C64.2351 23.7218 64.6701 24.2638 66.9901 24.2638H71.6801H72.3101C72.5461 24.2439 72.7836 24.2727 73.008 24.3485C73.2324 24.4242 73.4388 24.5453 73.6144 24.7041C73.79 24.863 73.9312 25.0562 74.029 25.2719C74.1268 25.4875 74.1793 25.721 74.1831 25.9578V26.1188C74.1918 26.37 74.1458 26.6201 74.0482 26.8517C73.9507 27.0834 73.8039 27.2911 73.6182 27.4604C73.4324 27.6297 73.212 27.7566 72.9724 27.8323C72.7327 27.908 72.4794 27.9307 72.2301 27.8988H66.9901C62.5151 27.8988 60.2461 25.7708 60.2461 21.5778V16.3288C60.2461 12.9878 62.7931 10.3418 66.7091 10.3418H67.8701ZM68.7811 18.2478C69.0296 18.2712 69.2802 18.2409 69.516 18.1588C69.7517 18.0768 69.967 17.945 70.1473 17.7723C70.3275 17.5996 70.4685 17.3902 70.5606 17.1582C70.6527 16.9262 70.6938 16.6771 70.6811 16.4278V16.0868C70.6811 14.8928 70.0651 13.9688 67.9881 13.9688H66.4321C66.1411 13.9439 65.848 13.9812 65.5725 14.0782C65.297 14.1752 65.0452 14.3297 64.834 14.5314C64.6227 14.7331 64.4567 14.9774 64.3471 15.2482C64.2374 15.5189 64.1867 15.8099 64.1981 16.1018V18.2478H68.7811Z" fill="currentColor"/>
    <path d="M33.99 27.7509C33.5039 27.7527 33.0362 27.565 32.6863 27.2276C32.3364 26.8902 32.1318 26.4297 32.116 25.9439V16.0219C32.116 12.2639 34.094 10.3579 38.373 10.3579H40.598C42.629 10.3579 42.734 11.7689 42.734 12.0519V12.2709C42.734 12.5559 42.634 13.9889 40.598 13.9889H38.162C36.708 13.9889 36.062 14.7379 36.062 16.4159V25.9469C36.0458 26.433 35.8409 26.8936 35.4906 27.231C35.1403 27.5684 34.6723 27.756 34.186 27.7539L33.99 27.7509Z" fill="currentColor"/>
    <path d="M95.5901 0C81.4421 0 79.1841 6.719 79.1841 15.005C79.1841 20.731 80.2671 25.711 85.6161 28.235V8.656C85.5767 8.31661 85.6134 7.97272 85.7236 7.6493C85.8338 7.32589 86.0146 7.03108 86.253 6.7863C86.4913 6.54152 86.7812 6.35292 87.1016 6.23421C87.422 6.11549 87.7648 6.06965 88.1051 6.1C89.4361 6.1 90.0151 6.047 91.0051 7.334L100.652 19.912V8.353C100.652 6.639 101.359 6.096 102.726 6.096H103.632C104.732 6.096 105.567 6.877 105.567 8.353V28.236C110.916 25.709 111.996 20.736 111.996 15.006C112 6.719 109.748 0 95.5901 0Z" fill="currentColor"/>
    <path d="M90.2561 13.5068V29.6068C92.0202 29.8852 93.8042 30.019 95.5901 30.0068C97.8001 30.0368 100.007 29.8236 102.17 29.3708L90.2561 13.5068Z" fill="currentColor"/>
  </symbol>
  <symbol id="icon-rewind" viewBox="0 0 12 12" fill="none">
    <path fill-rule="evenodd" clip-rule="evenodd" d="M10.125 2.25L4.125 6L10.125 9.75L10.125 2.25ZM3.125 9.75L3.125 2.25L1.875 2.25L1.875 9.75L3.125 9.75Z" fill="currentColor"/>
  </symbol>
  <symbol id="icon-forward" viewBox="0 0 12 12" fill="none">
    <path fill-rule="evenodd" clip-rule="evenodd" d="M1.875 9.75L7.875 6L1.875 2.25L1.875 9.75ZM8.875 2.25V9.75H10.125V2.25H8.875Z" fill="currentColor"/>
  </symbol>
  <!-- ============== mobile ============== -->
  <symbol id="icon-user" viewBox="0 0 48 48" fill="none">
    <path fill-rule="evenodd" clip-rule="evenodd" d="M44 44V26H4V44H8V30H40V44H44Z" fill="currentColor"/>
    <path fill-rule="evenodd" clip-rule="evenodd" d="M24 18C26.7614 18 29 15.7614 29 13C29 10.2386 26.7614 8 24 8C21.2386 8 19 10.2386 19 13C19 15.7614 21.2386 18 24 18ZM24 22C28.9706 22 33 17.9706 33 13C33 8.02944 28.9706 4 24 4C19.0294 4 15 8.02944 15 13C15 17.9706 19.0294 22 24 22Z" fill="currentColor"/>
  </symbol>
  <symbol id="icon-history" viewBox="0 0 48 48" fill="none">
    <path fill-rule="evenodd" clip-rule="evenodd" d="M24 42C33.9411 42 42 33.9411 42 24C42 14.0589 33.9411 6 24 6C14.0589 6 6 14.0589 6 24C6 33.9411 14.0589 42 24 42ZM24 46C36.1503 46 46 36.1503 46 24C46 11.8497 36.1503 2 24 2C11.8497 2 2 11.8497 2 24C2 36.1503 11.8497 46 24 46Z" fill="currentColor"/>
    <path fill-rule="evenodd" clip-rule="evenodd" d="M20 15H24V24H33V28H20V15Z" fill="currentColor"/>
  </symbol>
  <symbol id="icon-history" viewBox="0 0 48 48" fill="none">
    <path fill-rule="evenodd" clip-rule="evenodd" d="M24 42C33.9411 42 42 33.9411 42 24C42 14.0589 33.9411 6 24 6C14.0589 6 6 14.0589 6 24C6 33.9411 14.0589 42 24 42ZM24 46C36.1503 46 46 36.1503 46 24C46 11.8497 36.1503 2 24 2C11.8497 2 2 11.8497 2 24C2 36.1503 11.8497 46 24 46Z" fill="currentColor"/>
    <path fill-rule="evenodd" clip-rule="evenodd" d="M20 15H24V24H33V28H20V15Z" fill="currentColor"/>
  </symbol>
  <symbol id="icon-home-lined" viewBox="0 0 24 24" fill="none">
    <path d="M3.75 21.25V9.04446L12 2.93335L20.25 9.04446V18.339L17.1061 21.25H3.75Z" stroke="currentColor" stroke-width="1.5"/>
    <path d="M16 15H10V21" stroke="currentColor" stroke-width="1.5"/>
  </symbol>
  <symbol id="icon-filter" viewBox="0 0 20 20" fill="none">
    <path fill-rule="evenodd" clip-rule="evenodd" d="M4.79166 8.27022C5.59707 8.27022 6.24999 7.61731 6.24999 6.81189C6.24999 6.00647 5.59707 5.35356 4.79166 5.35356C3.98624 5.35356 3.33332 6.00647 3.33332 6.81189C3.33332 7.61731 3.98624 8.27022 4.79166 8.27022ZM4.79166 9.93689C6.22116 9.93689 7.42648 8.97706 7.7983 7.66671L18.3333 7.66671V6.00004L7.81016 6.00005C7.45273 4.66776 6.23674 3.68689 4.79166 3.68689C3.06577 3.68689 1.66666 5.086 1.66666 6.81189C1.66666 8.53778 3.06577 9.93689 4.79166 9.93689ZM12.1898 12.6667C12.5472 11.3344 13.7632 10.3536 15.2083 10.3536C16.9342 10.3536 18.3333 11.7527 18.3333 13.4786C18.3333 15.2044 16.9342 16.6036 15.2083 16.6036C13.7788 16.6036 12.5735 15.6437 12.2017 14.3334L1.66666 14.3334V12.6667L12.1898 12.6667ZM16.6667 13.4786C16.6667 14.284 16.0137 14.9369 15.2083 14.9369C14.4029 14.9369 13.75 14.284 13.75 13.4786C13.75 12.6731 14.4029 12.0202 15.2083 12.0202C16.0137 12.0202 16.6667 12.6731 16.6667 13.4786Z" fill="currentColor"/>
  </symbol>
  
</svg>