<svg width="48" height="48" viewBox="0 0 48 48" fill="none" xmlns="http://www.w3.org/2000/svg">
<path fill-rule="evenodd" clip-rule="evenodd" d="M24 41.5C33.665 41.5 41.5 33.665 41.5 24C41.5 14.335 33.665 6.5 24 6.5C14.335 6.5 6.5 14.335 6.5 24C6.5 33.665 14.335 41.5 24 41.5ZM24 44C35.0457 44 44 35.0457 44 24C44 12.9543 35.0457 4 24 4C12.9543 4 4 12.9543 4 24C4 35.0457 12.9543 44 24 44Z" fill="#02A39F"/>
<path d="M21.6387 15.4962C21.5634 14.1405 22.6424 13 24.0001 13C25.3577 13 26.4367 14.1406 26.3614 15.4962L25.7592 26.3359C25.7073 27.2695 24.9351 28 24.0001 28C23.065 28 22.2928 27.2695 22.2409 26.3359L21.6387 15.4962Z" fill="#02A39F"/>
<path d="M26 32C26 33.1046 25.1046 34 24 34C22.8954 34 22 33.1046 22 32C22 30.8954 22.8954 30 24 30C25.1046 30 26 30.8954 26 32Z" fill="#02A39F"/>
</svg>
