<svg width="32" height="32" viewBox="0 0 32 32" fill="none" xmlns="http://www.w3.org/2000/svg">
<g clip-path="url(#clip0_1175_2762)">
<g filter="url(#filter0_d_1175_2762)">
<path d="M14.795 29.0025C21.6727 29.0025 27.2481 23.4271 27.2481 16.5494C27.2481 9.67167 21.6727 4.09619 14.795 4.09619C7.91727 4.09619 2.3418 9.67167 2.3418 16.5494C2.3418 23.4271 7.91727 29.0025 14.795 29.0025Z" fill="#02A39F"/>
<path d="M19.7191 11.6875L16.8559 17.7836L13.623 14.5507L19.7191 11.6875Z" fill="white"/>
<path d="M10.0181 21.3915L12.8823 15.2954L16.1151 18.5283L10.0181 21.3915Z" fill="white"/>
<path d="M18.2799 1.10889H11.3062V3.10139H18.2799V1.10889Z" fill="#02A39F"/>
</g>
<g filter="url(#filter1_d_1175_2762)">
<path d="M23.8391 16.6874C23.9194 16.5481 24.0327 16.4329 24.1682 16.353C24.3036 16.273 24.4566 16.231 24.6121 16.231C24.7677 16.231 24.9207 16.273 25.0561 16.353C25.1916 16.4329 25.3049 16.5481 25.3852 16.6874L27.2365 19.8992C27.2988 20.0075 27.3813 20.1016 27.4791 20.1758C27.577 20.2501 27.6881 20.303 27.806 20.3315L31.3031 21.1776C31.4542 21.2146 31.5936 21.2916 31.7079 21.4012C31.8222 21.5109 31.9074 21.6494 31.9554 21.8036C32.0034 21.9577 32.0126 22.1221 31.982 22.281C31.9513 22.4399 31.882 22.5878 31.7806 22.7105L29.4322 25.5412C29.353 25.6366 29.293 25.7476 29.2557 25.8676C29.2184 25.9877 29.2045 26.1144 29.215 26.2402L29.5252 29.9753C29.5387 30.1371 29.5119 30.2999 29.4473 30.4478C29.3828 30.5956 29.2827 30.7235 29.1569 30.8191C29.031 30.9146 28.8836 30.9746 28.7291 30.993C28.5745 31.0115 28.4179 30.988 28.2747 30.9246L24.9644 29.4633C24.8531 29.414 24.7335 29.3886 24.6126 29.3886C24.4918 29.3886 24.3721 29.414 24.2609 29.4633L20.9555 30.9256C20.8122 30.989 20.6557 31.0126 20.5011 30.9941C20.3465 30.9756 20.1991 30.9157 20.0733 30.8201C19.9474 30.7246 19.8474 30.5966 19.7828 30.4488C19.7183 30.3009 19.6915 30.1382 19.705 29.9763L20.0152 26.2412C20.0256 26.1154 20.0118 25.9887 19.9745 25.8687C19.9372 25.7486 19.8771 25.6376 19.7979 25.5422L17.4495 22.7115C17.3482 22.5888 17.2788 22.4409 17.2482 22.282C17.2176 22.1231 17.2267 21.9587 17.2747 21.8046C17.3227 21.6505 17.408 21.5119 17.5223 21.4022C17.6365 21.2926 17.776 21.2156 17.927 21.1787L21.4242 20.3325C21.542 20.3041 21.6532 20.2511 21.751 20.1769C21.8489 20.1026 21.9314 20.0085 21.9937 19.9002L23.8391 16.6874Z" fill="#F2E387"/>
</g>
</g>
<defs>
<filter id="filter0_d_1175_2762" x="0.341797" y="1.10889" width="28.9062" height="31.8936" filterUnits="userSpaceOnUse" color-interpolation-filters="sRGB">
<feFlood flood-opacity="0" result="BackgroundImageFix"/>
<feColorMatrix in="SourceAlpha" type="matrix" values="0 0 0 0 0 0 0 0 0 0 0 0 0 0 0 0 0 0 127 0" result="hardAlpha"/>
<feOffset dy="2"/>
<feGaussianBlur stdDeviation="1"/>
<feComposite in2="hardAlpha" operator="out"/>
<feColorMatrix type="matrix" values="0 0 0 0 0 0 0 0 0 0 0 0 0 0 0 0 0 0 0.05 0"/>
<feBlend mode="normal" in2="BackgroundImageFix" result="effect1_dropShadow_1175_2762"/>
<feBlend mode="normal" in="SourceGraphic" in2="effect1_dropShadow_1175_2762" result="shape"/>
</filter>
<filter id="filter1_d_1175_2762" x="15.2305" y="16.231" width="18.7693" height="18.769" filterUnits="userSpaceOnUse" color-interpolation-filters="sRGB">
<feFlood flood-opacity="0" result="BackgroundImageFix"/>
<feColorMatrix in="SourceAlpha" type="matrix" values="0 0 0 0 0 0 0 0 0 0 0 0 0 0 0 0 0 0 127 0" result="hardAlpha"/>
<feOffset dy="2"/>
<feGaussianBlur stdDeviation="1"/>
<feComposite in2="hardAlpha" operator="out"/>
<feColorMatrix type="matrix" values="0 0 0 0 0 0 0 0 0 0 0 0 0 0 0 0 0 0 0.05 0"/>
<feBlend mode="normal" in2="BackgroundImageFix" result="effect1_dropShadow_1175_2762"/>
<feBlend mode="normal" in="SourceGraphic" in2="effect1_dropShadow_1175_2762" result="shape"/>
</filter>
<clipPath id="clip0_1175_2762">
<rect width="32" height="32" fill="white"/>
</clipPath>
</defs>
</svg>
