<svg width="32" height="32" viewBox="0 0 32 32" fill="none" xmlns="http://www.w3.org/2000/svg">
<g clip-path="url(#clip0_1726_67282)">
<path d="M25.2012 26.1008V0L2.00048 0V26.1008H25.2012Z" fill="#24A29E"/>
<path fill-rule="evenodd" clip-rule="evenodd" d="M21.8667 5.07227H13.3027V6.62961H21.8667V5.07227ZM17.9738 8.18599H13.3027V9.74334H17.9738V8.18599Z" fill="white"/>
<path fill-rule="evenodd" clip-rule="evenodd" d="M8.62659 14.8735L6.97137 13.2212L5.87305 14.3195L7.52537 15.9718L5.87401 17.6261L6.97137 18.7273L8.62272 17.076L10.2741 18.7273L11.3753 17.6261L9.72395 15.9747L11.3792 14.3195L10.2779 13.2212L8.62659 14.8735Z" fill="white"/>
<path d="M8.27939 9.66865C9.61431 9.66865 10.6965 8.58648 10.6965 7.25156C10.6965 5.91664 9.61431 4.83447 8.27939 4.83447C6.94447 4.83447 5.8623 5.91664 5.8623 7.25156C5.8623 8.58648 6.94447 9.66865 8.27939 9.66865Z" stroke="white" stroke-width="1.5"/>
<g filter="url(#filter0_d_1726_67282)">
<path d="M30 22C30 18.134 26.866 15 23 15C19.134 15 16 18.134 16 22C16 25.866 19.134 29 23 29C26.866 29 30 25.866 30 22Z" fill="#EE8C9D"/>
</g>
<path d="M20 21.7578L22.3072 24.3946L26.1524 20" stroke="white" stroke-width="2"/>
</g>
<defs>
<filter id="filter0_d_1726_67282" x="14" y="15" width="18" height="18" filterUnits="userSpaceOnUse" color-interpolation-filters="sRGB">
<feFlood flood-opacity="0" result="BackgroundImageFix"/>
<feColorMatrix in="SourceAlpha" type="matrix" values="0 0 0 0 0 0 0 0 0 0 0 0 0 0 0 0 0 0 127 0" result="hardAlpha"/>
<feOffset dy="2"/>
<feGaussianBlur stdDeviation="1"/>
<feComposite in2="hardAlpha" operator="out"/>
<feColorMatrix type="matrix" values="0 0 0 0 0 0 0 0 0 0 0 0 0 0 0 0 0 0 0.1 0"/>
<feBlend mode="normal" in2="BackgroundImageFix" result="effect1_dropShadow_1726_67282"/>
<feBlend mode="normal" in="SourceGraphic" in2="effect1_dropShadow_1726_67282" result="shape"/>
</filter>
<clipPath id="clip0_1726_67282">
<rect width="32" height="32" fill="white"/>
</clipPath>
</defs>
</svg>
