<svg width="32" height="31" viewBox="0 0 32 31" fill="none" xmlns="http://www.w3.org/2000/svg">
<g filter="url(#filter0_d_1726_67356)">
<rect x="2" width="23.4667" height="26.6667" fill="#24A29E"/>
</g>
<circle cx="7.5" cy="5.5" r="1.5" stroke="white" stroke-width="1.5"/>
<path d="M9 5.5H19C20 5.5 22 6.5 22 8.5C22 10.5 20 11.5 19 11.5H9C8 11.5 6 12.5 6 14.5C6 16.5 8 17.5 9 17.5H14" stroke="white" stroke-width="1.5"/>
<circle cx="22.501" cy="21.501" r="6.5" fill="#FFA114"/>
<path fill-rule="evenodd" clip-rule="evenodd" d="M25.3087 15.637L22.1926 21.0343L20.0237 19.7821C20.7893 18.3417 21.0012 16.7455 20.7271 15.2457C20.3975 15.339 20.0785 15.4576 19.7725 15.5993C19.9592 16.8226 19.7704 18.1112 19.1571 19.2817L16.9999 18.0363C16.8225 18.3174 16.666 18.6131 16.5326 18.9212L18.6213 20.1271C17.9373 21.0312 17.032 21.6958 16.0269 22.0884C16.0576 22.4314 16.115 22.7668 16.1969 23.0923C17.4846 22.6327 18.644 21.7958 19.4932 20.6304L21.6926 21.9003L18.8269 26.8638C19.1011 27.0519 19.3903 27.2196 19.6925 27.3645L22.5586 22.4003L24.7581 23.6701C24.1734 24.9883 24.0284 26.4109 24.2742 27.7559C24.6038 27.6626 24.9227 27.544 25.2288 27.4023C25.0659 26.3351 25.1888 25.2183 25.6299 24.1735L27.7176 25.3788C27.9164 25.1118 28.0952 24.8289 28.2518 24.5325L26.0942 23.2868C26.801 22.1707 27.8222 21.3631 28.9744 20.9131C28.9437 20.5701 28.8863 20.2348 28.8044 19.9092C27.3685 20.4217 26.0921 21.4034 25.2275 22.7865L23.0586 21.5343L26.1743 16.1377C25.9002 15.9496 25.6109 15.7819 25.3087 15.637Z" fill="#E47D1E"/>
<defs>
<filter id="filter0_d_1726_67356" x="0" y="0" width="27.4668" height="30.6665" filterUnits="userSpaceOnUse" color-interpolation-filters="sRGB">
<feFlood flood-opacity="0" result="BackgroundImageFix"/>
<feColorMatrix in="SourceAlpha" type="matrix" values="0 0 0 0 0 0 0 0 0 0 0 0 0 0 0 0 0 0 127 0" result="hardAlpha"/>
<feOffset dy="2"/>
<feGaussianBlur stdDeviation="1"/>
<feComposite in2="hardAlpha" operator="out"/>
<feColorMatrix type="matrix" values="0 0 0 0 0 0 0 0 0 0 0 0 0 0 0 0 0 0 0.1 0"/>
<feBlend mode="normal" in2="BackgroundImageFix" result="effect1_dropShadow_1726_67356"/>
<feBlend mode="normal" in="SourceGraphic" in2="effect1_dropShadow_1726_67356" result="shape"/>
</filter>
</defs>
</svg>
