<svg width="31" height="32" viewBox="0 0 31 32" fill="none" xmlns="http://www.w3.org/2000/svg">
<g filter="url(#filter0_d_1726_67386)">
<rect x="2" width="23.4667" height="26.6667" fill="#24A29E"/>
</g>
<path d="M14 18C13.9892 17.9965 11.3714 17.1393 9.625 15.4286C7.875 13.7143 7 11.5967 7 9.42857C7 7.53502 8.567 6 10.5 6C12.4294 6 13.9942 7.52932 14 9.41801C14.0058 7.52932 15.5706 6 17.5 6C19.433 6 21 7.53502 21 9.42857" stroke="white" stroke-width="1.5" stroke-linecap="square" stroke-linejoin="round"/>
<g filter="url(#filter1_d_1726_67386)">
<path fill-rule="evenodd" clip-rule="evenodd" d="M22.5 15L22.5 17.25C23.0523 17.25 23.5 17.6977 23.5 18.25C23.5 18.8023 23.0523 19.25 22.5 19.25L22.5 21.5L20.25 21.5C20.25 20.9477 19.8023 20.5 19.25 20.5C18.6977 20.5 18.25 20.9477 18.25 21.5L16 21.5C16 20.6464 16.1681 19.8012 16.4948 19.0126C16.8214 18.2239 17.3002 17.5074 17.9038 16.9038C18.5074 16.3002 19.2239 15.8214 20.0126 15.4948C20.8012 15.1681 21.6464 15 22.5 15Z" fill="#FFA3A3"/>
<path fill-rule="evenodd" clip-rule="evenodd" d="M22.5 28L22.5 25.75C21.9477 25.75 21.5 25.3023 21.5 24.75C21.5 24.1977 21.9477 23.75 22.5 23.75L22.5 21.5L24.75 21.5C24.75 22.0523 25.1977 22.5 25.75 22.5C26.3023 22.5 26.75 22.0523 26.75 21.5L29 21.5C29 22.3536 28.8319 23.1988 28.5052 23.9874C28.1786 24.7761 27.6998 25.4926 27.0962 26.0962C26.4926 26.6998 25.7761 27.1786 24.9874 27.5052C24.1988 27.8319 23.3536 28 22.5 28Z" fill="#8FE96F"/>
<path fill-rule="evenodd" clip-rule="evenodd" d="M24.75 21.5017L24.75 21.4892L22.5 21.4892V19.2555C23.0523 19.2554 23.5 18.8085 23.5 18.2571C23.5 17.7058 23.0523 17.2588 22.5 17.2588V15C23.3536 15 24.1988 15.1679 24.9874 15.494C25.7761 15.8201 26.4926 16.2981 27.0962 16.9006C27.6998 17.5032 28.1786 18.2186 28.5052 19.0059C28.8319 19.7932 29 20.637 29 21.4892L26.7499 21.4892L26.75 21.5017C26.75 22.053 26.3023 22.5 25.75 22.5C25.1977 22.5 24.75 22.053 24.75 21.5017Z" fill="#57A4FF"/>
<path fill-rule="evenodd" clip-rule="evenodd" d="M20.25 21.4983L20.25 21.5109L22.5 21.5109V23.7446C21.9477 23.7446 21.5 24.1915 21.5 24.7429C21.5 25.2942 21.9477 25.7412 22.5 25.7412V28C21.6464 28 20.8012 27.8321 20.0126 27.506C19.2239 27.1799 18.5074 26.7019 17.9038 26.0994C17.3002 25.4968 16.8214 24.7814 16.4948 23.9941C16.1681 23.2068 16 22.363 16 21.5109L18.2501 21.5109L18.25 21.4983C18.25 20.947 18.6977 20.5 19.25 20.5C19.8023 20.5 20.25 20.947 20.25 21.4983Z" fill="#FFD260"/>
</g>
<defs>
<filter id="filter0_d_1726_67386" x="0" y="0" width="27.4668" height="30.6665" filterUnits="userSpaceOnUse" color-interpolation-filters="sRGB">
<feFlood flood-opacity="0" result="BackgroundImageFix"/>
<feColorMatrix in="SourceAlpha" type="matrix" values="0 0 0 0 0 0 0 0 0 0 0 0 0 0 0 0 0 0 127 0" result="hardAlpha"/>
<feOffset dy="2"/>
<feGaussianBlur stdDeviation="1"/>
<feComposite in2="hardAlpha" operator="out"/>
<feColorMatrix type="matrix" values="0 0 0 0 0 0 0 0 0 0 0 0 0 0 0 0 0 0 0.1 0"/>
<feBlend mode="normal" in2="BackgroundImageFix" result="effect1_dropShadow_1726_67386"/>
<feBlend mode="normal" in="SourceGraphic" in2="effect1_dropShadow_1726_67386" result="shape"/>
</filter>
<filter id="filter1_d_1726_67386" x="14" y="15" width="17" height="17" filterUnits="userSpaceOnUse" color-interpolation-filters="sRGB">
<feFlood flood-opacity="0" result="BackgroundImageFix"/>
<feColorMatrix in="SourceAlpha" type="matrix" values="0 0 0 0 0 0 0 0 0 0 0 0 0 0 0 0 0 0 127 0" result="hardAlpha"/>
<feOffset dy="2"/>
<feGaussianBlur stdDeviation="1"/>
<feComposite in2="hardAlpha" operator="out"/>
<feColorMatrix type="matrix" values="0 0 0 0 0 0 0 0 0 0 0 0 0 0 0 0 0 0 0.1 0"/>
<feBlend mode="normal" in2="BackgroundImageFix" result="effect1_dropShadow_1726_67386"/>
<feBlend mode="normal" in="SourceGraphic" in2="effect1_dropShadow_1726_67386" result="shape"/>
</filter>
</defs>
</svg>
