<svg width="16" height="16" viewBox="0 0 16 16" fill="none" xmlns="http://www.w3.org/2000/svg">
<path d="M6.72626 2.06823C7.28742 1.08834 8.71258 1.08834 9.27374 2.06823L10.471 4.15891C10.6796 4.52317 11.0369 4.78036 11.451 4.86435L13.828 5.34641C14.942 5.57234 15.3824 6.91519 14.6152 7.74674L12.9782 9.5209C12.693 9.83002 12.5565 10.2462 12.6039 10.6623L12.8756 13.0509C13.003 14.1705 11.85 15.0004 10.8147 14.5344L8.6057 13.5402C8.22083 13.367 7.77917 13.367 7.3943 13.5402L5.18533 14.5344C4.14999 15.0004 2.997 14.1705 3.12438 13.0509L3.39614 10.6623C3.44349 10.2462 3.30701 9.83002 3.02179 9.5209L1.38481 7.74674C0.617564 6.91519 1.05797 5.57234 2.17203 5.34641L4.54895 4.86435C4.96309 4.78036 5.3204 4.52317 5.529 4.15891L6.72626 2.06823Z" fill="#02A39F"/>
</svg>
