<svg width="34" height="32" viewBox="0 0 34 32" fill="none" xmlns="http://www.w3.org/2000/svg">
<g filter="url(#filter0_d_1726_67303)">
<rect x="2" width="23.4667" height="26.6667" fill="#24A29E"/>
</g>
<path d="M5.13672 11.6573L8.28672 3.71484H9.88422L13.0042 11.6573H11.1367L8.75172 5.06484H9.38922L6.96672 11.6573H5.13672ZM6.92922 10.2173V8.77734H11.2567V10.2173H6.92922Z" fill="white"/>
<path d="M15.8682 11.6573V3.71484H17.6082V11.6573H15.8682ZM17.2182 11.6573V10.2848H19.0857C19.4307 10.2848 19.7007 10.1798 19.8957 9.97734C20.0907 9.77484 20.1882 9.52734 20.1882 9.23484C20.1882 9.03234 20.1432 8.85234 20.0532 8.69484C19.9632 8.53734 19.8357 8.40984 19.6782 8.32734C19.5132 8.23734 19.3182 8.19234 19.0857 8.19234H17.2182V6.85734H18.9357C19.2282 6.85734 19.4682 6.78234 19.6482 6.63984C19.8282 6.49734 19.9182 6.27234 19.9182 5.97234C19.9182 5.67234 19.8282 5.46234 19.6482 5.31234C19.4682 5.16234 19.2282 5.09484 18.9357 5.09484H17.2182V3.72234H19.2732C19.7832 3.72234 20.2182 3.81984 20.5707 4.00734C20.9232 4.19484 21.2007 4.44984 21.3882 4.76484C21.5757 5.07984 21.6732 5.43234 21.6732 5.81484C21.6732 6.30234 21.5157 6.71484 21.2007 7.05234C20.8857 7.38984 20.4207 7.62234 19.8057 7.74984L19.8507 7.15734C20.5182 7.28484 21.0357 7.54734 21.3957 7.92984C21.7557 8.31984 21.9432 8.79984 21.9432 9.36984C21.9432 9.80484 21.8382 10.1948 21.6207 10.5473C21.4107 10.8998 21.0957 11.1698 20.6982 11.3723C20.3007 11.5748 19.8132 11.6798 19.2507 11.6798H17.2182V11.6573Z" fill="white"/>
<path d="M9.50172 22.285C8.90922 22.285 8.36172 22.18 7.85172 21.9775C7.34922 21.775 6.89922 21.4825 6.52422 21.1075C6.14922 20.7325 5.84922 20.2975 5.63922 19.795C5.42922 19.2925 5.32422 18.76 5.32422 18.1825C5.32422 17.605 5.42922 17.065 5.63922 16.57C5.84922 16.075 6.14172 15.64 6.51672 15.2725C6.89172 14.905 7.33422 14.62 7.83672 14.41C8.34672 14.2075 8.89422 14.1025 9.48672 14.1025C10.1167 14.1025 10.6792 14.2 11.1667 14.4025C11.6542 14.605 12.0892 14.8825 12.4567 15.235L11.2792 16.4275C11.0692 16.2025 10.8142 16.03 10.5217 15.895C10.2217 15.7675 9.88422 15.7 9.49422 15.7C9.14922 15.7 8.83422 15.76 8.54172 15.8725C8.24922 15.985 8.00172 16.1575 7.79922 16.375C7.58922 16.5925 7.43172 16.855 7.31172 17.1625C7.19172 17.47 7.13922 17.8075 7.13922 18.175C7.13922 18.5425 7.19922 18.895 7.31172 19.195C7.43172 19.5025 7.58922 19.765 7.79922 19.9825C8.00172 20.2 8.24922 20.3725 8.54172 20.4925C8.83422 20.6125 9.14922 20.6725 9.49422 20.6725C9.89922 20.6725 10.2517 20.6125 10.5517 20.4775C10.8517 20.35 11.1067 20.1775 11.3317 19.9525L12.5242 21.145C12.1417 21.4975 11.7067 21.775 11.2117 21.9775C10.7167 22.18 10.1542 22.285 9.50922 22.285H9.50172Z" fill="white"/>
<path d="M22.3863 18.1718C22.1587 18.4046 22.0312 18.7173 22.0312 19.0428C22.0312 19.3684 22.1587 19.681 22.3863 19.9138L24.8963 22.4608C25.008 22.5753 25.1416 22.6662 25.289 22.7283C25.4364 22.7904 25.5948 22.8224 25.7548 22.8224C25.9147 22.8224 26.0731 22.7904 26.2205 22.7283C26.3679 22.6662 26.5015 22.5753 26.6133 22.4608L30.5853 18.4308C30.8128 18.198 30.9403 17.8854 30.9403 17.5598C30.9403 17.2343 30.8128 16.9216 30.5853 16.6888L28.0683 14.1418C27.9565 14.0274 27.823 13.9364 27.6755 13.8744C27.5281 13.8123 27.3697 13.7803 27.2098 13.7803C27.0498 13.7803 26.8914 13.8123 26.744 13.8744C26.5966 13.9364 26.463 14.0274 26.3513 14.1418L22.3793 18.1688L22.3863 18.1718Z" fill="#F56A3C"/>
<path d="M24.7403 15.4502L29.2953 20.0692L27.8353 21.5512L23.2803 16.9322L24.7403 15.4502Z" fill="#F1F1F1"/>
<path d="M18.0843 22.2021L20.3593 24.5101L22.6373 26.8211L18.7533 27.8071L17.1133 26.1431L18.0843 22.2021Z" fill="#FAE4D4"/>
<path d="M17.1115 26.1431L18.7515 27.8071L16.5645 28.3611L17.1115 26.1431Z" fill="black"/>
<path fill-rule="evenodd" clip-rule="evenodd" d="M23.282 16.9292L24.719 18.3882L19.519 23.6622L18.082 22.2032L23.282 16.9292ZM26.397 20.0882L27.835 21.5472L22.635 26.8212L21.197 25.3622L19.519 23.6622L24.719 18.3882L26.397 20.0882Z" fill="#3E6CF2"/>
<defs>
<filter id="filter0_d_1726_67303" x="0" y="0" width="27.4668" height="30.6665" filterUnits="userSpaceOnUse" color-interpolation-filters="sRGB">
<feFlood flood-opacity="0" result="BackgroundImageFix"/>
<feColorMatrix in="SourceAlpha" type="matrix" values="0 0 0 0 0 0 0 0 0 0 0 0 0 0 0 0 0 0 127 0" result="hardAlpha"/>
<feOffset dy="2"/>
<feGaussianBlur stdDeviation="1"/>
<feComposite in2="hardAlpha" operator="out"/>
<feColorMatrix type="matrix" values="0 0 0 0 0 0 0 0 0 0 0 0 0 0 0 0 0 0 0.1 0"/>
<feBlend mode="normal" in2="BackgroundImageFix" result="effect1_dropShadow_1726_67303"/>
<feBlend mode="normal" in="SourceGraphic" in2="effect1_dropShadow_1726_67303" result="shape"/>
</filter>
</defs>
</svg>
