<svg width="32" height="32" viewBox="0 0 32 32" fill="none" xmlns="http://www.w3.org/2000/svg">
<g clip-path="url(#clip0_1739_20959)">
<path d="M25.2012 26.1008V0L2.00048 0V26.1008H25.2012Z" fill="#24A29E"/>
<path fill-rule="evenodd" clip-rule="evenodd" d="M21.8667 5.07227H13.3027V6.62961H21.8667V5.07227ZM17.9738 8.18599H13.3027V9.74334H17.9738V8.18599Z" fill="white"/>
<path fill-rule="evenodd" clip-rule="evenodd" d="M8.62659 14.873L6.97137 13.2207L5.87305 14.319L7.52537 15.9713L5.87401 17.6256L6.97137 18.7268L8.62272 17.0755L10.2741 18.7268L11.3753 17.6256L9.72395 15.9742L11.3792 14.319L10.2779 13.2207L8.62659 14.873Z" fill="white"/>
<path d="M8.27939 9.66914C9.61431 9.66914 10.6965 8.58697 10.6965 7.25205C10.6965 5.91713 9.61431 4.83496 8.27939 4.83496C6.94447 4.83496 5.8623 5.91713 5.8623 7.25205C5.8623 8.58697 6.94447 9.66914 8.27939 9.66914Z" stroke="white" stroke-width="1.5"/>
<g filter="url(#filter0_d_1739_20959)">
<path d="M30 22C30 18.134 26.866 15 23 15C19.134 15 16 18.134 16 22C16 25.866 19.134 29 23 29C26.866 29 30 25.866 30 22Z" fill="#EE8C9D"/>
</g>
<path d="M20 21.7578L22.3072 24.3946L26.1524 20" stroke="white" stroke-width="2"/>
</g>
<defs>
<filter id="filter0_d_1739_20959" x="14" y="15" width="18" height="18" filterUnits="userSpaceOnUse" color-interpolation-filters="sRGB">
<feFlood flood-opacity="0" result="BackgroundImageFix"/>
<feColorMatrix in="SourceAlpha" type="matrix" values="0 0 0 0 0 0 0 0 0 0 0 0 0 0 0 0 0 0 127 0" result="hardAlpha"/>
<feOffset dy="2"/>
<feGaussianBlur stdDeviation="1"/>
<feComposite in2="hardAlpha" operator="out"/>
<feColorMatrix type="matrix" values="0 0 0 0 0 0 0 0 0 0 0 0 0 0 0 0 0 0 0.1 0"/>
<feBlend mode="normal" in2="BackgroundImageFix" result="effect1_dropShadow_1739_20959"/>
<feBlend mode="normal" in="SourceGraphic" in2="effect1_dropShadow_1739_20959" result="shape"/>
</filter>
<clipPath id="clip0_1739_20959">
<rect width="32" height="32" fill="white"/>
</clipPath>
</defs>
</svg>
