<svg width="35" height="34" viewBox="0 0 35 34" fill="none" xmlns="http://www.w3.org/2000/svg">
<g filter="url(#filter0_d_1726_67337)">
<rect x="2" width="23.4667" height="26.6667" fill="#24A29E"/>
</g>
<mask id="mask0_1726_67337" style="mask-type:alpha" maskUnits="userSpaceOnUse" x="2" y="0" width="24" height="27">
<rect x="2" width="23.4667" height="26.6667" fill="#24A29E"/>
</mask>
<g mask="url(#mask0_1726_67337)">
<path fill-rule="evenodd" clip-rule="evenodd" d="M8.50006 7.93945L17.5001 16.9395L22.0001 12.4395L27.0304 17.4698L25.9697 18.5304L22.0001 14.5608L17.5001 19.0608L8.50006 10.0608L0.0303867 18.5304L-1.03027 17.4698L8.50006 7.93945Z" fill="white"/>
</g>
<circle cx="18" cy="6" r="2" stroke="white" stroke-width="1.5"/>
<g filter="url(#filter1_d_1726_67337)">
<mask id="mask1_1726_67337" style="mask-type:alpha" maskUnits="userSpaceOnUse" x="21" y="13" width="12" height="13">
<path d="M29.5264 14.4553C30.2081 13.8175 31.2727 13.8352 31.9328 14.4953C32.5929 15.1554 32.6107 16.2201 31.9729 16.9018L24.0822 25.3367L21.0915 22.346L29.5264 14.4553Z" fill="#D9D9D9"/>
</mask>
<g mask="url(#mask1_1726_67337)">
<path d="M29.5264 14.4552C30.2081 13.8175 31.2727 13.8352 31.9328 14.4953C32.5929 15.1554 32.6107 16.2201 31.9729 16.9018L24.0822 25.3367L21.0915 22.346L29.5264 14.4552Z" fill="#E4B182"/>
<path d="M20.7178 17.4858L28.1945 24.9626L25.9515 27.2057L18.4748 19.7289L20.7178 17.4858Z" fill="#F1F1F1"/>
</g>
<path fill-rule="evenodd" clip-rule="evenodd" d="M21.3141 22.569C20.4171 22.6269 19.4369 23.0329 18.6754 23.7943C18.0279 24.4419 17.8252 25.0597 17.6056 25.7294C17.3457 26.5218 17.062 27.3868 15.9893 28.4594C17.8742 29.2134 20.6545 29.7317 22.6336 27.7526C23.3951 26.9911 23.8011 26.0109 23.859 25.1139L21.3141 22.569Z" fill="#FF9B3F"/>
<mask id="mask2_1726_67337" style="mask-type:alpha" maskUnits="userSpaceOnUse" x="15" y="22" width="9" height="8">
<path d="M22.6341 27.7526C20.6549 29.7318 17.8747 29.2134 15.9898 28.4595C17.9689 26.4803 17.2621 25.2081 18.6758 23.7944C20.0895 22.3807 22.2572 22.1922 23.2467 23.1818C24.2363 24.1714 24.0477 26.3389 22.6341 27.7526Z" fill="#EE8585"/>
</mask>
<g mask="url(#mask2_1726_67337)">
<path d="M14.0001 25.9999L14 25.9999L13.5 30.9999C17.3333 31.1666 24.7985 28.9999 21.5 28.9999C17.0001 28.9999 19.3974 26.9486 17.5 25.9999C16.5 25.4999 14.8334 25.8332 14.0001 25.9999Z" fill="#EF7300"/>
</g>
</g>
<defs>
<filter id="filter0_d_1726_67337" x="0" y="0" width="27.4668" height="30.6665" filterUnits="userSpaceOnUse" color-interpolation-filters="sRGB">
<feFlood flood-opacity="0" result="BackgroundImageFix"/>
<feColorMatrix in="SourceAlpha" type="matrix" values="0 0 0 0 0 0 0 0 0 0 0 0 0 0 0 0 0 0 127 0" result="hardAlpha"/>
<feOffset dy="2"/>
<feGaussianBlur stdDeviation="1"/>
<feComposite in2="hardAlpha" operator="out"/>
<feColorMatrix type="matrix" values="0 0 0 0 0 0 0 0 0 0 0 0 0 0 0 0 0 0 0.1 0"/>
<feBlend mode="normal" in2="BackgroundImageFix" result="effect1_dropShadow_1726_67337"/>
<feBlend mode="normal" in="SourceGraphic" in2="effect1_dropShadow_1726_67337" result="shape"/>
</filter>
<filter id="filter1_d_1726_67337" x="13.9893" y="13.9883" width="20.4502" height="19.144" filterUnits="userSpaceOnUse" color-interpolation-filters="sRGB">
<feFlood flood-opacity="0" result="BackgroundImageFix"/>
<feColorMatrix in="SourceAlpha" type="matrix" values="0 0 0 0 0 0 0 0 0 0 0 0 0 0 0 0 0 0 127 0" result="hardAlpha"/>
<feOffset dy="2"/>
<feGaussianBlur stdDeviation="1"/>
<feComposite in2="hardAlpha" operator="out"/>
<feColorMatrix type="matrix" values="0 0 0 0 0 0 0 0 0 0 0 0 0 0 0 0 0 0 0.1 0"/>
<feBlend mode="normal" in2="BackgroundImageFix" result="effect1_dropShadow_1726_67337"/>
<feBlend mode="normal" in="SourceGraphic" in2="effect1_dropShadow_1726_67337" result="shape"/>
</filter>
</defs>
</svg>
