<svg xmlns="http://www.w3.org/2000/svg" width="35" height="34" viewBox="0 0 35 34" fill="none">
  <g filter="url(#filter0_d_4214_36121)">
    <rect x="2" width="23.4667" height="26.6667" fill="#88A8A7"/>
  </g>
  <path d="M12.8203 11.2888L15.4666 8.53409C16.1924 7.80824 17.3852 7.82425 18.1307 8.5698C18.8763 9.31535 18.8923 10.5081 18.1664 11.2339L17.2114 12.2453" stroke="white" stroke-linecap="round" stroke-linejoin="round"/>
  <path d="M10.3345 14.1094C10.0794 14.3645 9.5518 14.874 9.5518 14.874C8.82595 15.5998 8.80625 16.8935 9.5518 17.6391C10.2973 18.3846 11.4901 18.4006 12.216 17.6748L14.798 15.3306" stroke="white" stroke-linecap="round" stroke-linejoin="round"/>
  <path d="M12.9331 13.8985C12.5868 13.5522 12.3979 13.1094 12.3676 12.6617C12.3327 12.1456 12.5087 11.623 12.8974 11.2344" stroke="white" stroke-linecap="round" stroke-linejoin="round"/>
  <path d="M14.7617 12.6641C15.5073 13.4096 15.5233 14.6024 14.7974 15.3282" stroke="white" stroke-linecap="round" stroke-linejoin="round"/>
  <g filter="url(#filter1_d_4214_36121)">
    <path d="M24.6087 15.4564C24.6889 15.3172 24.8022 15.202 24.9377 15.122C25.0731 15.042 25.2261 15 25.3817 15C25.5373 15 25.6902 15.042 25.8257 15.122C25.9611 15.202 26.0745 15.3172 26.1547 15.4564L28.006 18.6683C28.0683 18.7765 28.1508 18.8706 28.2487 18.9449C28.3465 19.0191 28.4577 19.0721 28.5755 19.1005L32.0727 19.9467C32.2237 19.9836 32.3632 20.0606 32.4774 20.1703C32.5917 20.2799 32.677 20.4185 32.725 20.5726C32.773 20.7267 32.7821 20.8911 32.7515 21.05C32.7209 21.2089 32.6515 21.3568 32.5502 21.4795L30.2018 24.3102C30.1226 24.4056 30.0625 24.5166 30.0252 24.6367C29.9879 24.7568 29.9741 24.8834 29.9845 25.0092L30.2947 28.7443C30.3082 28.9062 30.2814 29.069 30.2169 29.2168C30.1523 29.3647 30.0523 29.4926 29.9264 29.5881C29.8006 29.6837 29.6532 29.7436 29.4986 29.7621C29.344 29.7806 29.1875 29.757 29.0442 29.6936L25.7339 28.2323C25.6227 28.183 25.503 28.1577 25.3822 28.1577C25.2613 28.1577 25.1417 28.183 25.0304 28.2323L21.725 29.6947C21.5818 29.758 21.4252 29.7816 21.2706 29.7631C21.1161 29.7446 20.9687 29.6847 20.8428 29.5892C20.717 29.4936 20.6169 29.3657 20.5524 29.2178C20.4878 29.07 20.461 28.9072 20.4745 28.7453L20.7847 25.0102C20.7952 24.8845 20.7813 24.7578 20.744 24.6377C20.7067 24.5176 20.6467 24.4066 20.5675 24.3113L18.2191 21.4806C18.1177 21.3579 18.0484 21.2099 18.0177 21.051C17.9871 20.8922 17.9963 20.7277 18.0443 20.5736C18.0923 20.4195 18.1775 20.2809 18.2918 20.1713C18.4061 20.0616 18.5455 19.9846 18.6966 19.9477L22.1937 19.1016C22.3116 19.0731 22.4227 19.0202 22.5206 18.9459C22.6184 18.8716 22.7009 18.7776 22.7632 18.6693L24.6087 15.4564Z" fill="#F2E387"/>
  </g>
  <defs>
    <filter id="filter0_d_4214_36121" x="0" y="0" width="27.4668" height="30.667" filterUnits="userSpaceOnUse" color-interpolation-filters="sRGB">
      <feFlood flood-opacity="0" result="BackgroundImageFix"/>
      <feColorMatrix in="SourceAlpha" type="matrix" values="0 0 0 0 0 0 0 0 0 0 0 0 0 0 0 0 0 0 127 0" result="hardAlpha"/>
      <feOffset dy="2"/>
      <feGaussianBlur stdDeviation="1"/>
      <feComposite in2="hardAlpha" operator="out"/>
      <feColorMatrix type="matrix" values="0 0 0 0 0 0 0 0 0 0 0 0 0 0 0 0 0 0 0.1 0"/>
      <feBlend mode="normal" in2="BackgroundImageFix" result="effect1_dropShadow_4214_36121"/>
      <feBlend mode="normal" in="SourceGraphic" in2="effect1_dropShadow_4214_36121" result="shape"/>
    </filter>
    <filter id="filter1_d_4214_36121" x="16" y="15" width="18.7695" height="18.7695" filterUnits="userSpaceOnUse" color-interpolation-filters="sRGB">
      <feFlood flood-opacity="0" result="BackgroundImageFix"/>
      <feColorMatrix in="SourceAlpha" type="matrix" values="0 0 0 0 0 0 0 0 0 0 0 0 0 0 0 0 0 0 127 0" result="hardAlpha"/>
      <feOffset dy="2"/>
      <feGaussianBlur stdDeviation="1"/>
      <feComposite in2="hardAlpha" operator="out"/>
      <feColorMatrix type="matrix" values="0 0 0 0 0 0 0 0 0 0 0 0 0 0 0 0 0 0 0.05 0"/>
      <feBlend mode="normal" in2="BackgroundImageFix" result="effect1_dropShadow_4214_36121"/>
      <feBlend mode="normal" in="SourceGraphic" in2="effect1_dropShadow_4214_36121" result="shape"/>
    </filter>
  </defs>
</svg>