<svg width="35" height="32" viewBox="0 0 35 32" fill="none" xmlns="http://www.w3.org/2000/svg">
<g filter="url(#filter0_d_1726_67289)">
<rect x="2" width="23.4667" height="26.6667" fill="#24A29E"/>
</g>
<path fill-rule="evenodd" clip-rule="evenodd" d="M5.2666 4.4668H16.9999V5.53346H5.2666V4.4668ZM5.2666 7.6668H11.6666V8.73346H5.2666V7.6668ZM13.7999 10.8668H5.2666V11.9335H13.7999V10.8668Z" fill="white"/>
<g filter="url(#filter1_d_1726_67289)">
<circle cx="26.5" cy="21.5" r="6.5" fill="white"/>
</g>
<path d="M25.3811 28.0002C24.0621 27.7703 22.8505 27.1382 21.8849 26.1613C20.7995 25.0695 20.1495 23.6584 19.998 22.1323H22.901C23.0272 24.3352 23.9107 26.4103 25.3747 28.0002H25.3811Z" fill="#F7B50D"/>
<path d="M28.8272 22.1323C28.701 24.0989 27.868 25.9506 26.4986 27.3362C25.1355 25.9506 24.3088 24.1117 24.1699 22.1323H28.8272Z" fill="#F7B50D"/>
<path d="M32.9958 22.1323C32.8569 23.652 32.2006 25.0695 31.1152 26.1613C30.1496 27.1446 28.9317 27.7767 27.6064 28.0002C29.0831 26.4039 29.9666 24.3224 30.0865 22.1323H32.9958Z" fill="#F7B50D"/>
<path d="M32.9983 20.8551H30.0954C29.9944 18.665 29.1425 16.5963 27.71 15C30.5371 15.5363 32.7206 17.918 32.9983 20.8551Z" fill="#F7B50D"/>
<path d="M28.831 20.8552H24.1611C24.2684 18.8503 25.1077 16.9731 26.4961 15.562C27.8844 16.9667 28.7174 18.8439 28.831 20.8552Z" fill="#F7B50D"/>
<path d="M25.2864 15C23.8476 16.609 22.9956 18.6778 22.901 20.8551H19.998C20.2757 17.9244 22.4655 15.5363 25.2864 15Z" fill="#F7B50D"/>
<defs>
<filter id="filter0_d_1726_67289" x="0" y="0" width="27.4668" height="30.6665" filterUnits="userSpaceOnUse" color-interpolation-filters="sRGB">
<feFlood flood-opacity="0" result="BackgroundImageFix"/>
<feColorMatrix in="SourceAlpha" type="matrix" values="0 0 0 0 0 0 0 0 0 0 0 0 0 0 0 0 0 0 127 0" result="hardAlpha"/>
<feOffset dy="2"/>
<feGaussianBlur stdDeviation="1"/>
<feComposite in2="hardAlpha" operator="out"/>
<feColorMatrix type="matrix" values="0 0 0 0 0 0 0 0 0 0 0 0 0 0 0 0 0 0 0.1 0"/>
<feBlend mode="normal" in2="BackgroundImageFix" result="effect1_dropShadow_1726_67289"/>
<feBlend mode="normal" in="SourceGraphic" in2="effect1_dropShadow_1726_67289" result="shape"/>
</filter>
<filter id="filter1_d_1726_67289" x="18" y="15" width="17" height="17" filterUnits="userSpaceOnUse" color-interpolation-filters="sRGB">
<feFlood flood-opacity="0" result="BackgroundImageFix"/>
<feColorMatrix in="SourceAlpha" type="matrix" values="0 0 0 0 0 0 0 0 0 0 0 0 0 0 0 0 0 0 127 0" result="hardAlpha"/>
<feOffset dy="2"/>
<feGaussianBlur stdDeviation="1"/>
<feComposite in2="hardAlpha" operator="out"/>
<feColorMatrix type="matrix" values="0 0 0 0 0 0 0 0 0 0 0 0 0 0 0 0 0 0 0.1 0"/>
<feBlend mode="normal" in2="BackgroundImageFix" result="effect1_dropShadow_1726_67289"/>
<feBlend mode="normal" in="SourceGraphic" in2="effect1_dropShadow_1726_67289" result="shape"/>
</filter>
</defs>
</svg>
