<svg width="32" height="31" viewBox="0 0 32 31" fill="none" xmlns="http://www.w3.org/2000/svg">
<g filter="url(#filter0_d_3822_1359)">
<rect x="2" width="23.4667" height="26.6667" fill="#24A29E"/>
</g>
<path d="M13.4286 12.8531V7H18V8.66675H14.5714V14.7782C14.5713 15.2674 14.4052 15.7428 14.0988 16.1309C13.7924 16.5189 13.363 16.7978 12.8769 16.9244C12.3909 17.0509 11.8755 17.018 11.4107 16.8307C10.9459 16.6434 10.5576 16.3123 10.3061 15.8886C10.0546 15.4649 9.95387 14.9724 10.0196 14.4874C10.0853 14.0024 10.3138 13.552 10.6696 13.2062C11.0254 12.8603 11.4886 12.6382 11.9874 12.5743C12.4863 12.5105 12.9928 12.6085 13.4286 12.8531Z" fill="white"/>
<g filter="url(#filter1_d_3822_1359)">
<rect x="16" y="14" width="14" height="14" rx="1" fill="#EAEDEF"/>
<rect x="24" y="14" width="3" height="6" fill="#5B5B5B"/>
<path fill-rule="evenodd" clip-rule="evenodd" d="M22 14H19V20H20L20 28H21L21 20H22V14Z" fill="#5B5B5B"/>
<line x1="25.5" y1="20" x2="25.5" y2="28" stroke="#5B5B5B"/>
</g>
<defs>
<filter id="filter0_d_3822_1359" x="0" y="0" width="27.4668" height="30.6666" filterUnits="userSpaceOnUse" color-interpolation-filters="sRGB">
<feFlood flood-opacity="0" result="BackgroundImageFix"/>
<feColorMatrix in="SourceAlpha" type="matrix" values="0 0 0 0 0 0 0 0 0 0 0 0 0 0 0 0 0 0 127 0" result="hardAlpha"/>
<feOffset dy="2"/>
<feGaussianBlur stdDeviation="1"/>
<feComposite in2="hardAlpha" operator="out"/>
<feColorMatrix type="matrix" values="0 0 0 0 0 0 0 0 0 0 0 0 0 0 0 0 0 0 0.1 0"/>
<feBlend mode="normal" in2="BackgroundImageFix" result="effect1_dropShadow_3822_1359"/>
<feBlend mode="normal" in="SourceGraphic" in2="effect1_dropShadow_3822_1359" result="shape"/>
</filter>
<filter id="filter1_d_3822_1359" x="14" y="13" width="18" height="18" filterUnits="userSpaceOnUse" color-interpolation-filters="sRGB">
<feFlood flood-opacity="0" result="BackgroundImageFix"/>
<feColorMatrix in="SourceAlpha" type="matrix" values="0 0 0 0 0 0 0 0 0 0 0 0 0 0 0 0 0 0 127 0" result="hardAlpha"/>
<feOffset dy="1"/>
<feGaussianBlur stdDeviation="1"/>
<feComposite in2="hardAlpha" operator="out"/>
<feColorMatrix type="matrix" values="0 0 0 0 0 0 0 0 0 0 0 0 0 0 0 0 0 0 0.15 0"/>
<feBlend mode="normal" in2="BackgroundImageFix" result="effect1_dropShadow_3822_1359"/>
<feBlend mode="normal" in="SourceGraphic" in2="effect1_dropShadow_3822_1359" result="shape"/>
</filter>
</defs>
</svg>
