<svg width="34" height="32" viewBox="0 0 34 32" fill="none" xmlns="http://www.w3.org/2000/svg">
<g filter="url(#filter0_d_1739_20980)">
<rect x="2" width="23.4667" height="26.6667" fill="#24A29E"/>
</g>
<path d="M22.386 18.1718C22.1584 18.4046 22.031 18.7173 22.031 19.0428C22.031 19.3684 22.1584 19.681 22.386 19.9138L24.896 22.4608C25.0078 22.5753 25.1413 22.6662 25.2887 22.7283C25.4362 22.7904 25.5945 22.8224 25.7545 22.8224C25.9145 22.8224 26.0728 22.7904 26.2203 22.7283C26.3677 22.6662 26.5012 22.5753 26.613 22.4608L30.585 18.4308C30.8126 18.198 30.94 17.8854 30.94 17.5598C30.94 17.2343 30.8126 16.9216 30.585 16.6888L28.068 14.1418C27.9562 14.0274 27.8227 13.9364 27.6753 13.8744C27.5278 13.8123 27.3695 13.7803 27.2095 13.7803C27.0495 13.7803 26.8912 13.8123 26.7437 13.8744C26.5963 13.9364 26.4628 14.0274 26.351 14.1418L22.379 18.1688L22.386 18.1718Z" fill="#F56A3C"/>
<path d="M24.74 15.4502L29.295 20.0692L27.835 21.5512L23.28 16.9322L24.74 15.4502Z" fill="#F1F1F1"/>
<path d="M18.084 22.2021L20.359 24.5101L22.637 26.8211L18.753 27.8071L17.113 26.1431L18.084 22.2021Z" fill="#FAE4D4"/>
<path d="M17.1119 26.1426L18.7519 27.8066L16.5649 28.3606L17.1119 26.1426Z" fill="black"/>
<path fill-rule="evenodd" clip-rule="evenodd" d="M23.282 16.9287L24.719 18.3877L19.519 23.6617L18.082 22.2027L23.282 16.9287ZM26.397 20.0877L27.835 21.5467L22.635 26.8207L21.197 25.3617L19.519 23.6617L24.719 18.3877L26.397 20.0877Z" fill="#EF808E"/>
<path d="M12.8571 4H6V5.63265H12.8571V4Z" fill="white"/>
<path d="M11.2246 4.00028V10.8574H12.8573V4.00028H11.2246Z" fill="white"/>
<path d="M15.1429 10.8574H22V9.22477H15.1429V10.8574Z" fill="white"/>
<path d="M16.7756 10.8571V4H15.143V10.8571H16.7756Z" fill="white"/>
<path d="M6.00003 20H12.8572V18.3673H6.00003V20Z" fill="white"/>
<path d="M6.00003 14.7754H12.8572V13.1427H6.00003V14.7754Z" fill="white"/>
<path d="M7.63281 19.9997V13.1426H6.00016V19.9997H7.63281Z" fill="white"/>
<defs>
<filter id="filter0_d_1739_20980" x="0" y="0" width="27.4666" height="30.667" filterUnits="userSpaceOnUse" color-interpolation-filters="sRGB">
<feFlood flood-opacity="0" result="BackgroundImageFix"/>
<feColorMatrix in="SourceAlpha" type="matrix" values="0 0 0 0 0 0 0 0 0 0 0 0 0 0 0 0 0 0 127 0" result="hardAlpha"/>
<feOffset dy="2"/>
<feGaussianBlur stdDeviation="1"/>
<feComposite in2="hardAlpha" operator="out"/>
<feColorMatrix type="matrix" values="0 0 0 0 0 0 0 0 0 0 0 0 0 0 0 0 0 0 0.1 0"/>
<feBlend mode="normal" in2="BackgroundImageFix" result="effect1_dropShadow_1739_20980"/>
<feBlend mode="normal" in="SourceGraphic" in2="effect1_dropShadow_1739_20980" result="shape"/>
</filter>
</defs>
</svg>
