<svg width="120" height="53" viewBox="0 0 120 53" fill="none" xmlns="http://www.w3.org/2000/svg">
<rect x="44" y="4" width="71" height="44" fill="white"/>
<path d="M72.4659 24.8628H65.7627V26.9121H72.4659V24.8628Z" fill="#02A39F"/>
<path d="M109.567 43.5596C107.356 43.5596 107.026 43.7728 107.026 44.221C107.026 44.6692 107.36 44.9041 109.567 44.9041C111.775 44.9041 112.109 44.68 112.109 44.221C112.109 43.7945 111.778 43.5596 109.567 43.5596Z" fill="#02A39F"/>
<path d="M38.451 0L29.5896 6.57078L20.7212 0H0V53H20.7212V46.4292L29.5896 53L38.451 46.4292V53H120V0H38.451ZM109.972 7.05871H112.995V26.3952H109.972V16.3221H106.33V13.2139H109.972V7.05871ZM96.2348 11.732V8.6237H100.544V6.70451H103.567V8.6237H107.877V11.732H103.567V15.5812L108.45 23.0845L105.936 24.8121L102.052 18.8449L98.1681 24.8121L95.6548 23.0845L100.537 15.5812V11.732H96.2278H96.2348ZM90.9376 7.05871H93.9606V26.3952H90.9376V7.05871ZM78.2272 8.57672H88.8356V11.685H81.2502V14.7319H88.3154V17.8402H81.2502V20.887H89.1309V23.9953H78.2272V8.56949V8.57672ZM72.3958 7.0804H75.4187V20.8039H72.3958V7.0804ZM57.7451 13.5681C57.7451 10.7814 59.949 8.51527 62.6591 8.51527C64.842 8.51527 66.6979 9.98629 67.3376 12.0139H68.5679V7.0804H71.5908V20.8003H68.5679V15.1222H67.3376C66.6979 17.1498 64.842 18.6208 62.6591 18.6208C59.949 18.6208 57.7451 16.3511 57.7451 13.5644V13.5681ZM75.4925 30.0203H62.7435V21.7508H75.4925V30.0203ZM78.1991 28.4264H112.998V29.536H78.1991V28.4264ZM112.966 39.2657C112.995 39.5657 112.995 39.9885 112.966 40.2307C112.168 40.2705 107.114 40.2596 106.172 40.2307C106.116 39.5006 106.126 37.8308 106.172 37.1188C107.103 37.0682 111.968 37.0899 112.868 37.1188C112.907 37.4116 112.907 37.791 112.868 38.0838C112.158 38.1055 107.993 38.1055 107.29 38.0838V39.2657C108.028 39.2657 112.211 39.2548 112.963 39.2657H112.966ZM97.2963 38.9802C97.2577 38.6693 97.2577 38.2392 97.2963 37.9573C97.7709 37.9465 98.9484 37.9356 100.238 37.9356C100.231 37.567 100.238 37.1766 100.256 36.8802C100.597 36.8513 101.149 36.8513 101.412 36.8802C101.43 37.173 101.441 37.5633 101.43 37.9356C102.586 37.9356 103.708 37.9465 104.379 37.9573C104.407 38.2609 104.407 38.7091 104.379 38.9802C103.877 38.991 102.699 39.0018 101.43 39.0018V39.9271C102.492 40.4837 103.831 41.1776 104.636 41.6041C104.562 41.8788 104.284 42.3631 104.105 42.5402C103.451 42.2186 101.989 41.4776 100.85 40.8524C99.7112 41.5065 98.277 42.2764 97.6162 42.6197C97.444 42.4535 97.1417 41.9656 97.0644 41.7017C97.8623 41.2427 99.1804 40.5198 100.231 39.9343V38.9982C98.9308 38.9982 97.7287 38.9982 97.2893 38.9765L97.2963 38.9802ZM104.885 45.4678C103.993 45.5256 97.9607 45.5076 96.7831 45.4678C96.755 45.1859 96.755 44.7775 96.7831 44.4703C97.5037 44.4594 98.8605 44.4522 100.267 44.4522C100.249 43.7004 100.256 42.6667 100.277 42.3053C100.513 42.2475 101.121 42.2547 101.405 42.3053C101.423 42.7065 101.416 43.7221 101.416 44.4522C102.991 44.4522 104.442 44.463 104.889 44.4703C104.917 44.763 104.917 45.1425 104.889 45.4678H104.885ZM109.571 45.869C106.65 45.869 105.908 45.3016 105.908 44.2209C105.908 43.0715 106.745 42.5836 109.571 42.5836C112.397 42.5836 113.234 43.1474 113.234 44.2209C113.234 45.3811 112.397 45.869 109.571 45.869ZM113.624 41.9186C112.457 41.9692 106.966 41.9583 105.522 41.9186C105.493 41.6547 105.493 41.2463 105.522 40.9608C107.532 40.9246 112.4 40.9319 113.624 40.9608C113.652 41.2246 113.652 41.6258 113.624 41.9186Z" fill="#02A39F"/>
<path d="M62.6557 11.6272C61.6118 11.6272 60.7646 12.4982 60.7646 13.5717C60.7646 14.6451 61.6153 15.5162 62.6557 15.5162C63.6962 15.5162 64.5468 14.6415 64.5468 13.5717C64.5468 12.5019 63.6997 11.6272 62.6557 11.6272Z" fill="#02A39F"/>
</svg>
