<svg xmlns="http://www.w3.org/2000/svg" width="24.08" height="31.626" viewBox="0 0 24.08 31.626">
  <g id="그룹_1688" data-name="그룹 1688" transform="translate(-47.3 -16.448)">
    <path id="패스_5547" data-name="패스 5547" d="M2.673-1.707H1.6V.163H.557v-5.2H2.751a1.751,1.751,0,0,1,1.21.4A1.586,1.586,0,0,1,4.413-3.39a1.625,1.625,0,0,1-.451,1.3A1.943,1.943,0,0,1,2.673-1.707Zm.492-1.083a.766.766,0,0,0,.205-.593.716.716,0,0,0-.207-.579.878.878,0,0,0-.579-.173H1.6V-2.6h.981A.84.84,0,0,0,3.165-2.791ZM7.3.163H5.132v-5.2H7.3a2.571,2.571,0,0,1,.779.113,1.669,1.669,0,0,1,.858.66,2.352,2.352,0,0,1,.359.84,4.156,4.156,0,0,1,.1.861,3.547,3.547,0,0,1-.4,1.757A1.809,1.809,0,0,1,7.3.163Zm.783-3.874a1.011,1.011,0,0,0-.96-.423H6.154V-.741h.971A1.051,1.051,0,0,0,8.164-1.5a2.753,2.753,0,0,0,.161-.991A2.533,2.533,0,0,0,8.085-3.711Zm5.6-.406H11.163v1.2h2.211v.9H11.163V.163H10.117V-5.031h3.572Z" transform="translate(52.5 43.191)" fill="#c1d8d8"/>
    <path id="패스_5546" data-name="패스 5546" d="M1071.34,599.934a2.074,2.074,0,0,0-2.04,2.111V629.45a2.074,2.074,0,0,0,2.04,2.11h19.99a2.082,2.082,0,0,0,2.05-2.11V609.229a2.153,2.153,0,0,0-.68-1.572l-7.76-7.185a2.014,2.014,0,0,0-1.36-.539Zm.08,29.44V602.121h10.89v7.318a1.08,1.08,0,0,0,1.06,1.093h7.89v18.842Zm13.01-21.028v-5.409l5.84,5.409Z" transform="translate(-1022 -583.486)" fill="#c1d8d8" fill-rule="evenodd"/>
  </g>
</svg>
