<svg xmlns="http://www.w3.org/2000/svg" width="16.5" height="16.79" viewBox="0 0 16.5 16.79">
  <path id="icon-monitor" d="M6.333,18a8.02,8.02,0,0,1,4.167-.833m0,0A8.02,8.02,0,0,1,14.667,18M10.5,17.167v-2.5m-4.833,0h9.667a4.14,4.14,0,0,0,1.757-.182,1.666,1.666,0,0,0,.728-.728A4.14,4.14,0,0,0,18,12V5.667a4.14,4.14,0,0,0-.182-1.757,1.666,1.666,0,0,0-.728-.728A4.141,4.141,0,0,0,15.333,3H5.667a4.141,4.141,0,0,0-1.757.182,1.667,1.667,0,0,0-.728.728A4.141,4.141,0,0,0,3,5.667V12a4.141,4.141,0,0,0,.182,1.757,1.666,1.666,0,0,0,.728.728A4.14,4.14,0,0,0,5.667,14.667Z" transform="translate(-2.25 -2.25)" fill="none" stroke="#fff" stroke-linecap="round" stroke-linejoin="round" stroke-width="1.5"/>
</svg>
