<svg xmlns="http://www.w3.org/2000/svg" width="25.08" height="22.88" viewBox="0 0 25.08 22.88"><path fill="#c1d8d8" fill-rule="evenodd" d="M17.857 3.082c.993-.776 2.8-.556 3.966 1.1a3.2 3.2 0 0 1-.14 4.311l-5.963 4.663c-.991.775-2.794.555-3.965-1.1A1.214 1.214 0 0 0 10 11.784a1.365 1.365 0 0 0-.258 1.846c1.768 2.5 5.086 3.513 7.475 1.646l5.963-4.663c2.389-1.868 2.425-5.5.657-8S18.751-.9 16.361.968l-3.874 3.029a1.365 1.365 0 0 0-.258 1.846 1.214 1.214 0 0 0 1.755.272zM7.22 19.803c-.993.776-2.8.556-3.966-1.1a3.2 3.2 0 0 1 .14-4.311l5.963-4.661c.991-.775 2.794-.555 3.965 1.1a1.214 1.214 0 0 0 1.755.272 1.365 1.365 0 0 0 .258-1.846c-1.768-2.5-5.086-3.513-7.475-1.646l-5.967 4.661c-2.389 1.868-2.425 5.5-.657 8s5.086 3.513 7.476 1.644l3.881-3.024a1.365 1.365 0 0 0 .258-1.846 1.214 1.214 0 0 0-1.755-.272z"/></svg>