<svg xmlns="http://www.w3.org/2000/svg" width="13.34" height="13.334" viewBox="0 0 13.34 13.334">
  <path id="icon-share" d="M1800.33,365.833a1.167,1.167,0,1,0-1.16-1.166A1.166,1.166,0,0,0,1800.33,365.833Zm0,1.167a2.333,2.333,0,1,0-2.33-2.333,2.452,2.452,0,0,0,.05.472l-4.96,2.347a2.311,2.311,0,0,0-1.42-.486,2.334,2.334,0,1,0,0,4.667,2.3,2.3,0,0,0,1.67-.713l4.67,2.144a1.83,1.83,0,0,0-.01.235,2.337,2.337,0,1,0,.42-1.333l-4.5-2.065a2.392,2.392,0,0,0,.08-.6,2.253,2.253,0,0,0-.18-.9l4.74-2.247A2.328,2.328,0,0,0,1800.33,367Zm0,7.5a1.167,1.167,0,1,0-1.16-1.167A1.166,1.166,0,0,0,1800.33,374.5Zm-7.5-5.167a1.165,1.165,0,1,1-1.16-1.166A1.164,1.164,0,0,1,1792.83,369.333Z" transform="translate(-1789.33 -362.333)" fill="#a4a4a4" fill-rule="evenodd"/>
</svg>
