<svg xmlns="http://www.w3.org/2000/svg" width="24" height="21.2" viewBox="0 0 24 21.2">
  <path id="icon-folder-arrow-up" d="M12.762,6H8.2A4.2,4.2,0,0,0,4,10.2V23a4.2,4.2,0,0,0,4.2,4.2H23.8A4.2,4.2,0,0,0,28,23V13.8a4.2,4.2,0,0,0-4.2-4.2H17.168l-.661-1.3A4.2,4.2,0,0,0,12.762,6Zm1.6,3.385a1.8,1.8,0,0,0-1.6-.985H8.2a1.8,1.8,0,0,0-1.8,1.8V23a1.8,1.8,0,0,0,1.8,1.8H23.8A1.8,1.8,0,0,0,25.6,23V13.8A1.8,1.8,0,0,0,23.8,12h-7a1.8,1.8,0,0,1-1.6-.985Zm1,4.979a.9.9,0,0,1,1.273,0l3,3a.9.9,0,0,1-1.273,1.273L16.9,17.173V21a.9.9,0,1,1-1.8,0V17.173l-1.464,1.464a.9.9,0,0,1-1.273-1.273Z" transform="translate(-4 -6)" fill="#fff" fill-rule="evenodd"/>
</svg>
