<svg xmlns="http://www.w3.org/2000/svg" width="24" height="21.2" viewBox="0 0 24 21.2"><path fill="#fff" fill-rule="evenodd" d="M8.762 0H4.2A4.2 4.2 0 0 0 0 4.2V17a4.2 4.2 0 0 0 4.2 4.2h15.6A4.2 4.2 0 0 0 24 17V7.8a4.2 4.2 0 0 0-4.2-4.2h-6.632l-.661-1.3A4.2 4.2 0 0 0 8.762 0zm1.6 3.385a1.8 1.8 0 0 0-1.6-.985H4.2a1.8 1.8 0 0 0-1.8 1.8V17a1.8 1.8 0 0 0 1.8 1.8h15.6a1.8 1.8 0 0 0 1.8-1.8V7.8A1.8 1.8 0 0 0 19.8 6h-7a1.8 1.8 0 0 1-1.6-.985zm1 4.979a.9.9 0 0 1 1.273 0l3 3a.9.9 0 0 1-1.273 1.273L12.9 11.173V15a.9.9 0 1 1-1.8 0v-3.827l-1.464 1.464a.9.9 0 0 1-1.273-1.273z"/></svg>