<svg xmlns="http://www.w3.org/2000/svg" width="16.08" height="19.626" viewBox="0 0 16.08 19.626">
  <path id="패스_5546" data-name="패스 5546" d="M1075.34,600.934a2.074,2.074,0,0,0-2.04,2.111V618.45a2.074,2.074,0,0,0,2.04,2.11h11.99a2.082,2.082,0,0,0,2.05-2.11V608.229a2.153,2.153,0,0,0-.68-1.572l-4.76-5.185a2.014,2.014,0,0,0-1.36-.539Zm.08,17.44V603.121h5.89v5.318a1.08,1.08,0,0,0,1.06,1.093h4.89v8.842Zm8.01-11.028v-3.409l2.84,3.409Z" transform="translate(-1073.3 -600.934)" fill="#fff" fill-rule="evenodd"/>
</svg>
