<svg xmlns="http://www.w3.org/2000/svg" width="13.34" height="11.778" viewBox="0 0 13.34 11.778">
  <path id="패스_4221" data-name="패스 4221" d="M1808.2,286h-2.53a2.338,2.338,0,0,0-2.34,2.333v7.111a2.339,2.339,0,0,0,2.34,2.334h8.66a2.339,2.339,0,0,0,2.34-2.334v-5.111a2.338,2.338,0,0,0-2.34-2.333h-3.68l-.37-.723A2.333,2.333,0,0,0,1808.2,286Zm.89,1.88a.994.994,0,0,0-.89-.547h-2.53a1,1,0,0,0-1,1v7.111a1,1,0,0,0,1,1h8.66a1,1,0,0,0,1-1v-5.111a1,1,0,0,0-1-1h-3.89a1,1,0,0,1-.89-.547Zm.56,2.766a.415.415,0,0,1,.16-.108.493.493,0,0,1,.54.108l1.67,1.667a.492.492,0,0,1,0,.707.5.5,0,0,1-.71,0l-.81-.813v2.126a.5.5,0,0,1-1,0v-2.126l-.81.813a.5.5,0,0,1-.71,0,.492.492,0,0,1,0-.707Z" transform="translate(-1803.33 -286)" fill="#838383" fill-rule="evenodd"/>
</svg>
