<svg xmlns="http://www.w3.org/2000/svg" width="29.5" height="24.332" viewBox="0 0 29.5 24.332">
  <path id="패스_2959" data-name="패스 2959" d="M1065.675,395.236V415.8h25.739V395.236Zm-.657-1.633a.979.979,0,0,0-.977.98v21.873a.978.978,0,0,0,.977.979h27.045a.973.973,0,0,0,.977-.979V394.583a.974.974,0,0,0-.977-.98Zm17.23,16.859a.616.616,0,0,1-.986-.048l-5.519-8.086a.622.622,0,0,0-1.028,0l-7.313,10.725a.62.62,0,0,0,.514.974h11.357v.007H1089.5a.623.623,0,0,0,.48-1.021l-4.457-5.345a.618.618,0,0,0-.952,0Zm4.676-8.7a1.959,1.959,0,1,0-1.955-1.959A1.958,1.958,0,0,0,1086.923,401.758Z" transform="translate(-1063.79 -393.353)" fill="#c1d8d8" stroke="#c1d8d8" stroke-width="0.5" fill-rule="evenodd"/>
</svg>
