<svg xmlns="http://www.w3.org/2000/svg" width="25.079" height="22.884" viewBox="0 0 25.079 22.884">
  <path id="패스_5543" data-name="패스 5543" d="M65.064,23.251c.993-.776,2.8-.556,3.966,1.1a3.2,3.2,0,0,1-.14,4.311l-5.963,4.663c-.991.775-2.794.555-3.965-1.1a1.214,1.214,0,0,0-1.755-.272,1.365,1.365,0,0,0-.258,1.846c1.768,2.5,5.086,3.513,7.475,1.646l5.963-4.663c2.389-1.868,2.425-5.5.657-8s-5.086-3.513-7.476-1.645l-3.874,3.029a1.365,1.365,0,0,0-.258,1.846,1.214,1.214,0,0,0,1.755.272ZM54.427,39.972c-.993.776-2.8.556-3.966-1.1a3.2,3.2,0,0,1,.14-4.311L56.564,29.9c.991-.775,2.794-.555,3.965,1.1a1.214,1.214,0,0,0,1.755.272,1.365,1.365,0,0,0,.258-1.846c-1.768-2.5-5.086-3.513-7.475-1.646L49.1,32.441c-2.389,1.868-2.425,5.5-.657,8s5.086,3.513,7.476,1.644L59.8,39.061a1.365,1.365,0,0,0,.258-1.846,1.214,1.214,0,0,0-1.755-.272Z" transform="translate(-47.207 -20.169)" fill="#c1d8d8" fill-rule="evenodd"/>
</svg>
