<svg xmlns="http://www.w3.org/2000/svg" width="25" height="25.004" viewBox="0 0 25 25.004">
  <path id="icon-favorite" d="M1760.988,370.539l.6-.164.442-.444,5.569-5.566,7.2,7.187-5.569,5.568-.442.442-.177.6-.9,3.313-10.025-10.037Zm6.613-9.509-1.662,1.667-5.569,5.566-4.615,1.259-2.617.714,1.91,1.92,5.145,5.138-7.072,7.072,1.662,1.667,7.072-7.072L1767,384.1l1.927,1.92.707-2.62,1.255-4.615,5.569-5.566,1.662-1.667-1.662-1.667-7.2-7.187Z" transform="translate(-1753.12 -361.03)" fill="#c1d8d8" fill-rule="evenodd"/>
</svg>
