<svg xmlns="http://www.w3.org/2000/svg" width="13.34" height="11.78" viewBox="0 0 13.34 11.78"><path fill="#838383" fill-rule="evenodd" d="M4.87 0H2.34A2.338 2.338 0 0 0 0 2.333v7.111a2.339 2.339 0 0 0 2.34 2.334H11a2.339 2.339 0 0 0 2.34-2.334V4.333A2.338 2.338 0 0 0 11 2H7.32l-.37-.723A2.333 2.333 0 0 0 4.87 0zm.89 1.88a.994.994 0 0 0-.89-.547H2.34a1 1 0 0 0-1 1v7.111a1 1 0 0 0 1 1H11a1 1 0 0 0 1-1V4.333a1 1 0 0 0-1-1H7.11a1 1 0 0 1-.89-.547zm.56 2.766a.415.415 0 0 1 .16-.108.493.493 0 0 1 .54.108l1.67 1.667a.492.492 0 0 1 0 .707.5.5 0 0 1-.71 0l-.81-.813v2.126a.5.5 0 0 1-1 0V6.207l-.81.813a.5.5 0 0 1-.71 0 .492.492 0 0 1 0-.707z"/></svg>