<svg xmlns="http://www.w3.org/2000/svg" width="6.045" height="7.027" viewBox="0 0 6.045 7.027">
  <path id="패스_5578" data-name="패스 5578" d="M12343.7,20487.113v5.4a.161.161,0,0,0,.045.135c.044.045.088.092.134.133s.089.047.179.047a.327.327,0,0,0,.179-.047l4.331-2.678c.044-.043.089-.088.134-.135s.044-.088.044-.176a.165.165,0,0,0-.044-.135l-.134-.135-4.331-2.678a.338.338,0,0,0-.179-.045c-.09,0-.135,0-.179.045-.046,0-.09.043-.134.09A.327.327,0,0,0,12343.7,20487.113Z" transform="translate(-12343.201 -20486.301)" fill="#fff" stroke="#fff" stroke-width="1"/>
</svg>
