<svg xmlns="http://www.w3.org/2000/svg" width="19.413" height="17.148" viewBox="0 0 19.413 17.148">
  <path id="icon-folder-arrow-up" d="M11.087,6H7.4A3.4,3.4,0,0,0,4,9.4V19.751a3.4,3.4,0,0,0,3.4,3.4H20.016a3.4,3.4,0,0,0,3.4-3.4V12.309a3.4,3.4,0,0,0-3.4-3.4H14.651l-.535-1.053A3.4,3.4,0,0,0,11.087,6Zm1.3,2.738a1.456,1.456,0,0,0-1.3-.8H7.4A1.456,1.456,0,0,0,5.941,9.4V19.751A1.456,1.456,0,0,0,7.4,21.207H20.016a1.456,1.456,0,0,0,1.456-1.456V12.309a1.456,1.456,0,0,0-1.456-1.456H14.354a1.456,1.456,0,0,1-1.3-.8Zm.806,4.027a.728.728,0,0,1,1.03,0l2.427,2.427a.728.728,0,1,1-1.03,1.03l-1.184-1.184v3.1a.728.728,0,1,1-1.456,0v-3.1l-1.184,1.184a.728.728,0,0,1-1.03-1.03Z" transform="translate(-4 -6)" fill="#fff" fill-rule="evenodd"/>
</svg>
