<svg xmlns="http://www.w3.org/2000/svg" width="20" height="20" viewBox="0 0 20 20">
  <g id="icon-share" transform="translate(-46.5 -9.5)">
    <rect id="_20" data-name="20" width="20" height="20" transform="translate(46.5 9.5)" fill="rgba(245,0,255,0.13)" opacity="0"/>
    <path id="icon-share-2" data-name="icon-share" d="M1802.08,366.39a1.352,1.352,0,1,0-1.344-1.352A1.351,1.351,0,0,0,1802.08,366.39Zm0,1.353a2.7,2.7,0,1,0-2.7-2.7,2.833,2.833,0,0,0,.058.547l-5.749,2.72a2.678,2.678,0,0,0-1.646-.563,2.7,2.7,0,1,0,0,5.409,2.665,2.665,0,0,0,1.936-.826l5.413,2.485a2.145,2.145,0,0,0-.011.272,2.708,2.708,0,1,0,.487-1.545l-5.216-2.393a2.773,2.773,0,0,0,.093-.7,2.611,2.611,0,0,0-.209-1.043l5.494-2.6A2.7,2.7,0,0,0,1802.08,367.742Zm0,8.693a1.352,1.352,0,1,0-1.344-1.353A1.351,1.351,0,0,0,1802.08,376.435Zm-8.693-5.989a1.35,1.35,0,1,1-1.344-1.352A1.349,1.349,0,0,1,1793.387,370.447Z" transform="translate(-1740.891 -350.895)" fill="#838383" fill-rule="evenodd"/>
  </g>
</svg>
