<svg xmlns="http://www.w3.org/2000/svg" width="29.5" height="24.33" viewBox="0 0 29.5 24.33"><path fill="#c1d8d8" fill-rule="evenodd" stroke="#c1d8d8" stroke-width=".5" d="M1.885 1.883v20.564h25.739V1.883zM1.228.25a.979.979 0 0 0-.977.98v21.873a.978.978 0 0 0 .977.979h27.045a.973.973 0 0 0 .977-.979V1.23a.974.974 0 0 0-.977-.98zm17.23 16.859a.616.616 0 0 1-.986-.048l-5.519-8.086a.622.622 0 0 0-1.028 0L3.612 19.7a.62.62 0 0 0 .514.974h11.357v.007H25.71a.623.623 0 0 0 .48-1.021l-4.457-5.345a.618.618 0 0 0-.952 0zm4.676-8.7a1.959 1.959 0 1 0-1.955-1.959 1.958 1.958 0 0 0 1.954 1.955z"/></svg>