<svg xmlns="http://www.w3.org/2000/svg" width="19.41" height="17.15" viewBox="0 0 19.41 17.15"><path fill="#fff" fill-rule="evenodd" d="M7.087 0H3.4A3.4 3.4 0 0 0 0 3.4v10.351a3.4 3.4 0 0 0 3.4 3.4h12.616a3.4 3.4 0 0 0 3.4-3.4V6.309a3.4 3.4 0 0 0-3.4-3.4h-5.365l-.535-1.053A3.4 3.4 0 0 0 7.087 0zm1.3 2.738a1.456 1.456 0 0 0-1.3-.8H3.4A1.456 1.456 0 0 0 1.941 3.4v10.351A1.456 1.456 0 0 0 3.4 15.207h12.616a1.456 1.456 0 0 0 1.456-1.456V6.309a1.456 1.456 0 0 0-1.456-1.456h-5.662a1.456 1.456 0 0 1-1.3-.8zm.806 4.027a.728.728 0 0 1 1.03 0l2.427 2.427a.728.728 0 1 1-1.03 1.03l-1.184-1.184v3.1a.728.728 0 1 1-1.456 0v-3.1l-1.184 1.184a.728.728 0 0 1-1.03-1.03z"/></svg>