<svg xmlns="http://www.w3.org/2000/svg" width="66.387" height="58.688" viewBox="0 0 66.387 58.688">
  <path id="패스_3000" data-name="패스 3000" d="M1116.468,716.073c2.647-1.994,7.412-1.427,10.51,2.822s2.25,9.069-.371,11.058l-15.778,11.958c-2.621,1.985-7.412,1.422-10.51-2.827a3.263,3.263,0,0,0-4.633-.7,3.424,3.424,0,0,0-.688,4.734c4.686,6.417,13.475,9.011,19.775,4.222l15.8-11.958c6.327-4.792,6.406-14.113,1.721-20.527-4.659-6.417-13.448-9.011-19.775-4.217l-10.271,7.767a3.42,3.42,0,0,0-.662,4.733,3.262,3.262,0,0,0,4.633.7Zm-28.141,42.881c-2.647,1.991-7.413,1.424-10.51-2.825s-2.25-9.067.371-11.055l15.778-11.958c2.647-1.988,7.412-1.424,10.51,2.825a3.265,3.265,0,0,0,4.633.7,3.4,3.4,0,0,0,.688-4.736c-4.686-6.417-13.448-9.011-19.775-4.22l-15.8,11.958c-6.3,4.789-6.406,14.11-1.721,20.527s13.448,9.009,19.775,4.217l10.271-7.767a3.452,3.452,0,0,0,.688-4.736,3.3,3.3,0,0,0-4.659-.7Z" transform="translate(-1069.208 -708.169)" fill="#cad7db" fill-rule="evenodd"/>
</svg>
