<svg xmlns="http://www.w3.org/2000/svg" width="16.667" height="16.264" viewBox="0 0 16.667 16.264">
  <g id="그룹_1092" data-name="그룹 1092" transform="translate(-33.166 -22.652)">
    <path id="패스_4905" data-name="패스 4905" d="M44.269,24.75a6.829,6.829,0,0,0-2.985-.271h0a6.586,6.586,0,0,0-6.341,6.5,6.209,6.209,0,0,0,1.592,4.185A6.478,6.478,0,0,0,41.5,37.128a6.822,6.822,0,0,0,2.19-.333,2.968,2.968,0,0,0,1.554-1.1,1.242,1.242,0,0,0,.2-1.033v0a2.084,2.084,0,0,0-.192-.385l-.053-.089c-.086-.143-.2-.333-.29-.524l0,0a3.783,3.783,0,0,1-.351-1.559,2.338,2.338,0,0,1,.68-1.743l0,0a4.2,4.2,0,0,1,1.126-.719c.161-.074.324-.142.471-.2l.046-.019c.164-.069.309-.131.445-.2.491-.236.73-.206.73-.926a2.39,2.39,0,0,0-.129-.789.9.9,0,0,1,.547-1.138.887.887,0,0,1,1.131.551,4.187,4.187,0,0,1,.228,1.377,2.535,2.535,0,0,1-1.742,2.54c-.18.086-.362.163-.525.232l-.044.019c-.151.064-.287.12-.419.181a2.471,2.471,0,0,0-.661.408l-.6-.657.6.655a.6.6,0,0,0-.112.431,1.99,1.99,0,0,0,.179.793c.051.107.109.2.188.336l.081.137a3.79,3.79,0,0,1,.349.73,3.03,3.03,0,0,1-.409,2.594v0a4.729,4.729,0,0,1-2.45,1.795,8.574,8.574,0,0,1-2.77.431,8.239,8.239,0,0,1-6.268-2.536,8,8,0,0,1-2.065-5.4,8.369,8.369,0,0,1,8.02-8.287,8.513,8.513,0,0,1,3.591.343.894.894,0,0,1-.508,1.714Z" fill="#fff" fill-rule="evenodd"/>
    <path id="패스_4906" data-name="패스 4906" d="M42.829,36.141a1.072,1.072,0,1,0-1.065-1.072A1.068,1.068,0,0,0,42.829,36.141Z" fill="#fff"/>
    <path id="패스_4907" data-name="패스 4907" d="M42.032,27.308a1.072,1.072,0,1,0-1.065-1.072A1.068,1.068,0,0,0,42.032,27.308Z" fill="#fff"/>
    <path id="패스_4908" data-name="패스 4908" d="M38.31,28.65a1.072,1.072,0,1,0-1.065-1.072A1.068,1.068,0,0,0,38.31,28.65Z" fill="#fff"/>
    <path id="패스_4909" data-name="패스 4909" d="M36.713,32.394a1.072,1.072,0,1,0-1.065-1.072A1.068,1.068,0,0,0,36.713,32.394Z" fill="#fff"/>
    <path id="패스_4910" data-name="패스 4910" d="M38.842,35.609a1.072,1.072,0,1,0-1.065-1.072A1.068,1.068,0,0,0,38.842,35.609Z" fill="#fff"/>
    <path id="패스_4911" data-name="패스 4911" d="M43.785,30.235l1.079-1.154,4.337-4.76A.72.72,0,0,0,48.189,23.3l-4.728,4.37-1.147,1.083" fill="#fff"/>
    <path id="패스_4912" data-name="패스 4912" d="M43.231,31.828a4.194,4.194,0,0,1-4.292.833c1.432-1.395.289-2.509,1.432-3.617a2.06,2.06,0,0,1,2.859,0,1.957,1.957,0,0,1,.572,1.108A1.93,1.93,0,0,1,43.231,31.828Z" fill="#fff"/>
  </g>
</svg>
