<svg xmlns="http://www.w3.org/2000/svg" width="18.048" height="18.048" viewBox="0 0 18.048 18.048">
  <path id="icon-drag" d="M13.229,4.729a.808.808,0,0,0,0-1.142L10.945,1.3a1.616,1.616,0,0,0-2.285,0L6.375,3.586A.808.808,0,1,0,7.517,4.729L9.035,3.211V9.085H3.161L4.678,7.568A.808.808,0,1,0,3.536,6.425L1.251,8.71a1.616,1.616,0,0,0,0,2.285l2.285,2.285a.808.808,0,1,0,1.142-1.142L3.242,10.7H9.035v5.793L7.517,14.976a.808.808,0,1,0-1.142,1.142L8.66,18.4a1.616,1.616,0,0,0,2.285,0l2.285-2.285a.808.808,0,1,0-1.142-1.142l-1.436,1.436V10.7h5.712l-1.436,1.436a.808.808,0,1,0,1.142,1.142l2.285-2.285a1.615,1.615,0,0,0,0-2.285L16.068,6.425a.808.808,0,0,0-1.142,1.142l1.518,1.518H10.651V3.292l1.436,1.436A.808.808,0,0,0,13.229,4.729Z" transform="translate(-0.778 -0.828)" fill="#fff"/>
</svg>
