<svg xmlns="http://www.w3.org/2000/svg" width="18.488" height="18.49" viewBox="0 0 18.488 18.49">
  <path id="icon-favorite" d="M1758.938,368.061l.445-.122.327-.328,4.119-4.116,5.321,5.315-4.119,4.117-.327.327-.131.447-.667,2.45-7.413-7.422Zm4.89-7.031-1.229,1.233-4.118,4.116-3.413.931-1.935.528,1.412,1.42,3.8,3.8-5.23,5.23,1.229,1.233,5.23-5.23,3.8,3.8,1.425,1.42.523-1.938.928-3.412,4.118-4.116,1.229-1.233-1.229-1.233-5.321-5.315Z" transform="translate(-1753.12 -361.03)" fill="#cbcbcb" fill-rule="evenodd"/>
</svg>
