<svg xmlns="http://www.w3.org/2000/svg" width="16.692" height="18.182" viewBox="0 0 16.692 18.182">
  <path id="패스_6720" data-name="패스 6720" d="M17.28,6.574a1.149,1.149,0,0,1-1.149,1.149H11.113a19.771,19.771,0,0,0,5.711,6.626,1.365,1.365,0,0,1,.23,1.913,1.133,1.133,0,0,1-1.561.259,22.389,22.389,0,0,1-5.285-6.208v7.582a1.2,1.2,0,1,1-2.4,0V10.409a21.218,21.218,0,0,1-5.322,6.22,1.127,1.127,0,0,1-1.544-.237,1.359,1.359,0,0,1,.232-1.923A19.218,19.218,0,0,0,6.831,7.722H1.925a1.149,1.149,0,0,1,0-2.3H7.812V2.107a1.2,1.2,0,0,1,2.4,0V5.425h5.924A1.149,1.149,0,0,1,17.28,6.574Z" transform="translate(-0.65 -0.909)"/>
</svg>
