<svg id="하단페이징" xmlns="http://www.w3.org/2000/svg" xmlns:xlink="http://www.w3.org/1999/xlink" width="119" height="30" viewBox="0 0 119 30">
  <defs>
    <linearGradient id="linear-gradient" x1="0.5" x2="0.5" y2="1" gradientUnits="objectBoundingBox">
      <stop offset="0" stop-color="#fff"/>
      <stop offset="1" stop-color="#efefef"/>
    </linearGradient>
  </defs>
  <g id="그룹_1096" data-name="그룹 1096" transform="translate(38.248 3)">
    <path id="패스_5870" data-name="패스 5870" d="M4.428.18A5.474,5.474,0,0,1,2.151-.279,4.573,4.573,0,0,1,.432-1.62l1.4-1.4A2.658,2.658,0,0,0,2.9-2.106a3.293,3.293,0,0,0,1.494.342,2.871,2.871,0,0,0,1.332-.288,2.147,2.147,0,0,0,.873-.81,2.288,2.288,0,0,0,.315-1.206A2.265,2.265,0,0,0,6.6-5.292a2.093,2.093,0,0,0-.9-.783,3.261,3.261,0,0,0-1.413-.279,5.1,5.1,0,0,0-.666.045,3.3,3.3,0,0,0-.612.135l.918-1.188a6.247,6.247,0,0,1,.8-.243,3.59,3.59,0,0,1,.819-.1A3.355,3.355,0,0,1,7.3-7.236,3.379,3.379,0,0,1,8.541-5.931,4.037,4.037,0,0,1,9-3.96,4.037,4.037,0,0,1,8.424-1.8a3.927,3.927,0,0,1-1.6,1.458A5.213,5.213,0,0,1,4.428.18ZM3.006-6.174V-7.4l3.366-3.924,2.484-.054L5.346-7.344ZM1.062-10.746V-12.6H8.856v1.224l-1.782.63Z" transform="translate(-0.248 18)" fill="#376ec5"/>
    <path id="패스_5869" data-name="패스 5869" d="M.126.56l3.92-10.92H5.488L1.568.56Z" transform="translate(13.752 17)" fill="#717171"/>
    <path id="패스_5868" data-name="패스 5868" d="M.594-1.026,5.2-5.886A13.028,13.028,0,0,0,6.3-7.137a4.154,4.154,0,0,0,.567-.981,2.613,2.613,0,0,0,.171-.936,1.889,1.889,0,0,0-.612-1.494,2.306,2.306,0,0,0-1.584-.54,3.046,3.046,0,0,0-1.674.459A4.052,4.052,0,0,0,1.89-9.216L.7-10.206a5.219,5.219,0,0,1,1.782-1.845A4.628,4.628,0,0,1,4.9-12.672a4.251,4.251,0,0,1,2.007.45,3.229,3.229,0,0,1,1.323,1.26,3.711,3.711,0,0,1,.468,1.89,4.693,4.693,0,0,1-.189,1.386,4.175,4.175,0,0,1-.666,1.251A16.909,16.909,0,0,1,6.516-4.914L2.79-1.08ZM.594,0V-1.026l1.44-.486H8.982V0ZM13.95.18a5.4,5.4,0,0,1-2.277-.459A4.458,4.458,0,0,1,9.99-1.62l1.152-1.152a2.9,2.9,0,0,0,1.143,1,3.555,3.555,0,0,0,1.629.369A3.242,3.242,0,0,0,15.4-1.728a2.505,2.505,0,0,0,1.008-.909,2.56,2.56,0,0,0,.369-1.395,2.6,2.6,0,0,0-.36-1.4,2.33,2.33,0,0,0-.963-.873,2.953,2.953,0,0,0-1.323-.3,4.678,4.678,0,0,0-1.341.18,3.366,3.366,0,0,0-1.143.612l.018-1.08a2.607,2.607,0,0,1,.7-.612,3.361,3.361,0,0,1,.9-.36,4.854,4.854,0,0,1,1.17-.126,4.2,4.2,0,0,1,2.2.54,3.617,3.617,0,0,1,1.377,1.458,4.383,4.383,0,0,1,.477,2.052A3.924,3.924,0,0,1,17.9-1.818,4.054,4.054,0,0,1,16.29-.351,5.017,5.017,0,0,1,13.95.18Zm-2.3-5.994-.918-.918.558-5.76h1.548L12.2-6.57Zm-.018-5.166-.342-1.512h6.57v1.512Z" transform="translate(23.752 18)" fill="#717171"/>
  </g>
  <g id="그룹_1097" data-name="그룹 1097" transform="translate(8.248 7)">
    <rect id="사각형_3756" data-name="사각형 3756" width="20" height="20" transform="translate(-0.248)" fill="rgba(194,0,219,0.13)" opacity="0"/>
    <path id="패스_5374" data-name="패스 5374" d="M929.083,1050.51l8.043-8,1.21,1.084-6.957,6.916,6.957,6.916-1.21,1.084Z" transform="translate(-924.921 -1040.51)" fill-rule="evenodd" opacity="0.5"/>
  </g>
  <g id="그룹_1098" data-name="그룹 1098" transform="translate(97.248 7)">
    <rect id="사각형_3756-2" data-name="사각형 3756" width="20" height="20" transform="translate(-0.248)" fill="rgba(194,0,219,0.13)" opacity="0"/>
    <path id="패스_5374-2" data-name="패스 5374" d="M938.336,1050.51l-8.043-8-1.21,1.084,6.957,6.916-6.957,6.916,1.21,1.084Z" transform="translate(-922.174 -1040.51)" fill="#1e51a1" fill-rule="evenodd"/>
  </g>
  <g id="그룹_1634" data-name="그룹 1634" transform="translate(47.248 -3)">
    <g id="타원_247" data-name="타원 247" transform="translate(-47.248 3)" stroke="#eee" stroke-width="1" fill="url(#linear-gradient)">
      <circle cx="15" cy="15" r="15" stroke="none"/>
      <circle cx="15" cy="15" r="14.5" fill="none"/>
    </g>
    <path id="패스_4406" data-name="패스 4406" d="M35.553,566.893l7.831-8.266,1.178,1.116-6.774,7.149,6.774,7.15-1.178,1.116Z" transform="translate(-73.182 -549)" fill-rule="evenodd" opacity="0.2"/>
  </g>
  <g id="그룹_1635" data-name="그룹 1635" transform="translate(89)">
    <g id="타원_247-2" data-name="타원 247" stroke="#eee" stroke-width="1" fill="url(#linear-gradient)">
      <circle cx="15" cy="15" r="15" stroke="none"/>
      <circle cx="15" cy="15" r="14.5" fill="none"/>
    </g>
    <path id="패스_4406-2" data-name="패스 4406" d="M44.562,566.893l-7.831-8.266-1.178,1.116,6.774,7.15-6.774,7.15,1.178,1.116Z" transform="translate(-24.18 -552)" fill-rule="evenodd" opacity="0.2"/>
  </g>
</svg>
