<svg xmlns="http://www.w3.org/2000/svg" xmlns:xlink="http://www.w3.org/1999/xlink" width="19.312" height="19.917" viewBox="0 0 19.312 19.917">
  <defs>
    <clipPath id="clip-path">
      <rect id="사각형_4021" data-name="사각형 4021" width="7.751" height="20.005" fill="none"/>
    </clipPath>
  </defs>
  <g id="그룹_1787" data-name="그룹 1787" transform="translate(13.643) rotate(43)" clip-path="url(#clip-path)">
    <path id="패스_5684" data-name="패스 5684" d="M8.315,14.263A1.219,1.219,0,0,1,7.1,15.479H3.093a1.219,1.219,0,0,1-1.216-1.216V3.582A1.219,1.219,0,0,1,3.093,2.365H7.1A1.218,1.218,0,0,1,8.316,3.581Z" transform="translate(-0.892 -1.124)" fill="#fff"/>
    <path id="패스_5685" data-name="패스 5685" d="M.877,10v7.8a1.22,1.22,0,0,0,1.216,1.216H6.1A1.219,1.219,0,0,0,7.316,17.8V10Z" transform="translate(-0.417 -4.751)" fill="#ff725d"/>
    <path id="패스_5686" data-name="패스 5686" d="M1.873,14.426h0A1.874,1.874,0,0,1,0,12.554V1.873A1.877,1.877,0,0,1,1.873,0H5.879A1.874,1.874,0,0,1,7.751,1.873V12.554A1.875,1.875,0,0,1,5.88,14.426Zm0-13.115a.563.563,0,0,0-.561.56V12.554a.561.561,0,0,0,.561.56H5.879a.563.563,0,0,0,.56-.559V1.872a.562.562,0,0,0-.558-.56Z" transform="translate(0 0)" fill="#333"/>
    <path id="패스_5687" data-name="패스 5687" d="M1.25,24.785l3.22,6.343,3.219-6.343Z" transform="translate(-0.594 -11.779)" fill="#fff"/>
    <path id="패스_5688" data-name="패스 5688" d="M3.875,31.19a.656.656,0,0,1-.585-.359L.071,24.488a.655.655,0,0,1,.585-.952H7.095a.656.656,0,0,1,.585.952L4.46,30.831a.656.656,0,0,1-.585.359M1.724,24.847l2.151,4.238,2.151-4.238Z" transform="translate(0 -11.185)" fill="#333"/>
    <rect id="사각형_4019" data-name="사각형 4019" width="5.127" height="1.551" transform="translate(1.312 3.277)" fill="#e6e6e6"/>
    <rect id="사각형_4020" data-name="사각형 4020" width="5.127" height="1.551" transform="translate(1.312 4.829)" fill="#333"/>
  </g>
</svg>
