<svg xmlns="http://www.w3.org/2000/svg" width="15.404" height="24.848" viewBox="0 0 15.404 24.848">
  <g id="icon-click" transform="translate(9 0.744)">
    <path id="touch-svgrepo-com" d="M5.011,16.666A3.848,3.848,0,0,0,7.73,17.777H12.4a3.848,3.848,0,0,0,2.718-1.112c2.205-2.174,1.926-4.719,2.245-6.035A3.752,3.752,0,0,0,15.436,6.8h0c-1.288-.716-2.479-.373-4.937-.462V3.372A2.36,2.36,0,0,0,8.566,1.031a2.331,2.331,0,0,0-1.879.508,2.283,2.283,0,0,0-.822,1.748v7.765a2.4,2.4,0,0,0-2.893-.17,2.274,2.274,0,0,0-.293,3.483ZM3.871,12.122a.853.853,0,0,1,1.055.146l1.166,1.151a.776.776,0,0,0,.839.164.763.763,0,0,0,.475-.7V3.288a.76.76,0,0,1,.272-.58.785.785,0,0,1,.641-.172.833.833,0,0,1,.639.839V7.1a.766.766,0,0,0,.77.763c3.525.07,4.159-.173,4.953.267a2.242,2.242,0,0,1,1.161,2.288c-.317,1.373-.046,3.432-1.808,5.171a2.309,2.309,0,0,1-1.631.663H7.73A2.309,2.309,0,0,1,6.1,15.585l-2.331-2.3a.758.758,0,0,1,.1-1.163Z" transform="translate(-11.002 6.326)" fill="#fff"/>
    <path id="cursor-click-svgrepo-com" d="M1.832,1.627a.206.206,0,0,0-.144.352l.834.834a.206.206,0,0,0,.292-.291l-.835-.834a.2.2,0,0,0-.147-.061ZM0,5.962a.2.2,0,0,1,.206-.206l1.242.009a.21.21,0,0,1,.209.209.2.2,0,0,1-.206.206L.209,6.171A.21.21,0,0,1,0,5.962ZM5.962,0a.21.21,0,0,1,.209.209L6.18,1.451a.2.2,0,0,1-.206.206.21.21,0,0,1-.209-.209L5.757.206A.2.2,0,0,1,5.962,0Z" transform="translate(-2.234 0.104) rotate(45)" fill="none" stroke="#fff" stroke-width="1.2"/>
  </g>
</svg>
