<svg xmlns="http://www.w3.org/2000/svg" width="100" height="90" viewBox="0 0 100 90">
  <g id="icon" transform="translate(-75 -319)">
    <rect id="사각형_3806" data-name="사각형 3806" width="98" height="88" transform="translate(76 320)" fill="none" stroke="#02a39f" stroke-width="2"/>
    <g id="그룹_1280" data-name="그룹 1280">
      <circle id="타원_255" data-name="타원 255" cx="11" cy="11" r="11" transform="translate(80 351.5)" fill="#f7f7f7"/>
      <path id="패스_5519" data-name="패스 5519" d="M84.89,329.14H90v-1.89H83v7h1.89Z" transform="translate(-203.09 189.738) rotate(-45)" fill="#02a39f" fill-rule="evenodd"/>
    </g>
    <g id="그룹_1281" data-name="그룹 1281" transform="translate(148 351.5)">
      <circle id="타원_255-2" data-name="타원 255" cx="11" cy="11" r="11" fill="#f7f7f7"/>
      <path id="패스_5519-2" data-name="패스 5519" d="M1.89,5.11H7V7H0V0H1.89Z" transform="translate(10.05 15.899) rotate(-135)" fill="#02a39f" fill-rule="evenodd"/>
    </g>
    <g id="페이징" transform="translate(-288 -183)">
      <text id="_1_2" data-name="1 / 2" transform="translate(414 581.5)" fill="#c7c7c7" font-size="12" font-family="Outfit-Medium, Outfit" font-weight="500" letter-spacing="-0.014em"><tspan x="-9.846" y="0">1 /</tspan><tspan y="0" fill="#838383"> </tspan><tspan y="0" fill="#01a39f">2</tspan></text>
      <path id="패스_5520" data-name="패스 5520" d="M84.414,328.665h3.824V327.25H83v5.239h1.415Z" transform="translate(101.91 404.738) rotate(-45)" fill="#afafaf" fill-rule="evenodd"/>
      <path id="패스_5521" data-name="패스 5521" d="M1.415,3.825H5.239V5.24H0V0H1.414Z" transform="translate(431.704 581.154) rotate(-135)" fill="#02a39f" fill-rule="evenodd"/>
    </g>
  </g>
</svg>
