<svg xmlns="http://www.w3.org/2000/svg" width="15.675" height="16.397" viewBox="0 0 15.675 16.397">
  <path id="패스_6735" data-name="패스 6735" d="M8.493-7.486A9.187,9.187,0,0,1,11.077-7.9,10.755,10.755,0,0,1,8.7-4.332a21.94,21.94,0,0,1-.209-3.116ZM4.9-2.128c-.608,0-.874-.323-.874-.912A4.922,4.922,0,0,1,6.384-6.5a26.227,26.227,0,0,0,.4,3.762A4,4,0,0,1,4.9-2.128Zm6.973-8.816A10.883,10.883,0,0,1,11.7-9.823h-.323a12.653,12.653,0,0,0-2.812.342c.019-.57.076-1.14.133-1.691a54.67,54.67,0,0,0,6.688-.684l-.019-2.166a31.381,31.381,0,0,1-6.384.8c.057-.361.114-.7.19-1.007a7.309,7.309,0,0,1,.266-1.007L6.973-15.3a7.513,7.513,0,0,1-.057,1.121L6.8-13.167H6.08A30.9,30.9,0,0,1,2.6-13.414l.076,2.185c.874.038,2.337.114,3.325.114h.608c-.076.76-.133,1.558-.19,2.356C3.8-7.524,1.8-4.978,1.8-2.584A2.445,2.445,0,0,0,4.351.171a6.622,6.622,0,0,0,2.907-.76c.076.266.171.532.247.76L9.671-.475c-.152-.456-.3-.912-.437-1.406a14.63,14.63,0,0,0,3.971-5.7A2.8,2.8,0,0,1,15.143-4.94c0,1.843-1.482,3.667-5.111,4.066L11.286,1.1C15.9.418,17.48-2.185,17.48-4.826a4.857,4.857,0,0,0-3.629-4.617c.114-.361.247-.76.342-.969Z" transform="translate(-1.805 15.295)"/>
</svg>
