<svg xmlns="http://www.w3.org/2000/svg" width="13.637" height="18.182" viewBox="0 0 13.637 18.182">
  <g id="그룹_1168" data-name="그룹 1168" transform="translate(-1040.682 -1008.91)">
    <path id="패스_4965" data-name="패스 4965" d="M944.267,39.287l-.424-.9a1.4,1.4,0,0,0,.364-.932,1.368,1.368,0,0,0-.133-.6l-1.154-2.431a.541.541,0,0,0,.185-.4.563.563,0,0,0-.568-.559h-.073l-1.906-4.008A3.36,3.36,0,0,0,941,27.8a3.44,3.44,0,0,0-2.238-3.2V23.145a1.255,1.255,0,0,0-2.509,0V24.6a3.44,3.44,0,0,0-2.238,3.2,3.387,3.387,0,0,0,.439,1.659l-1.906,4.008h-.073a.563.563,0,0,0-.568.559.549.549,0,0,0,.185.4l-1.154,2.431a1.369,1.369,0,0,0-.133.6,1.4,1.4,0,0,0,.364.932l-.424.9a.5.5,0,0,0-.06.241.562.562,0,0,0,.327.509.58.58,0,0,0,.24.055.572.572,0,0,0,.517-.323l.424-.9h.032a1.442,1.442,0,0,0,1.3-.809l1.647-3.467h1.079v.613a1.255,1.255,0,0,0,2.51,0V34.6h1.079l1.647,3.467a1.432,1.432,0,0,0,1.3.809h.033l.424.9a.567.567,0,0,0,.517.323.572.572,0,0,0,.567-.563.537.537,0,0,0-.055-.236ZM942.9,37.723a.3.3,0,0,1-.125.027.292.292,0,0,1-.263-.164l-3.238-6.817a.412.412,0,0,0,.041-.023l.047-.032a1.79,1.79,0,0,0,.156-.1l.056-.041a1.646,1.646,0,0,0,.166-.132l3.284,6.912a.289.289,0,0,1,.028.123.278.278,0,0,1-.166.259Zm-10.412-.136a.291.291,0,0,1-.263.164l-.106-.018-.019-.009a.283.283,0,0,1-.166-.259.3.3,0,0,1,.028-.123l3.285-6.912c.055.045.11.091.17.132l.06.041c.051.036.106.073.157.1l.042.027c.013.009.027.014.041.023l-3.238,6.816Zm4.415-12.024.041-.009.134-.027h.009a1.169,1.169,0,0,1,.125-.018h.009l.134-.014h.277a.661.661,0,0,1,.133.014h.01c.041,0,.087.014.129.018h.009l.134.027.041.009a2.328,2.328,0,0,1,1.758,2.245,2.271,2.271,0,0,1-.4,1.281l-.018.027a1.73,1.73,0,0,1-.106.141c-.037.045-.074.086-.111.127l-.019.018-.115.109-.009.009c-.037.032-.074.064-.115.1l-.037.027-.12.086-.028.018-.115.073-.028.018c-.046.027-.1.05-.143.073l-.018.009c-.056.023-.107.045-.157.064l-.023.009a2.317,2.317,0,0,1-.8.136,2.424,2.424,0,0,1-.8-.136l-.024-.009c-.05-.018-.106-.041-.156-.064l-.019-.009a1.342,1.342,0,0,1-.143-.073l-.028-.014-.115-.073-.028-.018-.119-.086-.037-.032c-.042-.032-.079-.064-.116-.1l-.009-.009-.115-.109-.019-.018-.11-.123v0a1.742,1.742,0,0,1-.107-.141l-.018-.023a2.285,2.285,0,0,1-.4-1.286,2.333,2.333,0,0,1,1.758-2.245Zm.715-1.191c-.042,0-.079,0-.12,0s-.079,0-.12,0V23.145a.12.12,0,0,1,.24,0Zm-.826,6.8a3.655,3.655,0,0,0,.706.077,3.612,3.612,0,0,0,.706-.077l1.093,2.3h-.544v-.468a1.255,1.255,0,0,0-2.51,0v.468H935.7Zm.59,1.831a.12.12,0,0,1,.24,0v2.2a.12.12,0,0,1-.24,0Z" transform="translate(110 987)" fill="#fff"/>
    <path id="패스_4966" data-name="패스 4966" d="M937.5,29.552a1.745,1.745,0,1,0-1.771-1.745A1.759,1.759,0,0,0,937.5,29.552Zm0-2.372a.627.627,0,1,1-.636.627A.633.633,0,0,1,937.5,27.18Z" transform="translate(110 987)" fill="#fff"/>
  </g>
</svg>
