<svg xmlns="http://www.w3.org/2000/svg" width="13.681" height="18.182" viewBox="0 0 13.681 18.182">
  <g id="그룹_1172" data-name="그룹 1172" transform="translate(6948.32 20973.09)">
    <path id="패스_4979" data-name="패스 4979" d="M1326.29,21.909h-9.54a2.07,2.07,0,0,0-2.07,2.066v14.05a2.07,2.07,0,0,0,2.07,2.066h9.54a2.07,2.07,0,0,0,2.07-2.066V23.975A2.07,2.07,0,0,0,1326.29,21.909Zm-9.54,1.653h9.54a.41.41,0,0,1,.41.413v5.636h-10.37V23.975A.419.419,0,0,1,1316.75,23.562Zm9.85,14.727h-3.17V33.331h3.27v4.694A.413.413,0,0,1,1326.6,38.289Zm-10.27-.264v-1.8h3.27v2.066h-3.16A.414.414,0,0,1,1316.33,38.025Zm4.1.264V36.223h2.18v2.066Zm2.18-2.892h-2.18V33.331h2.18Zm-2.18-2.893V30.438h2.18V32.5Zm-.83,0h-3.27V30.438h3.27Zm0,.826V35.4h-3.27V33.331Zm3.83-.826V30.438h3.27V32.5Z" transform="translate(-8263 -20995)" fill="#fff"/>
    <path id="패스_4980" data-name="패스 4980" d="M1326.03,24.616h-9.02v4.1h9.02Z" transform="translate(-8263 -20995)" fill="#fff"/>
  </g>
</svg>
