<svg xmlns="http://www.w3.org/2000/svg" width="18.012" height="17.898" viewBox="0 0 18.012 17.898">
  <path id="패스_6734" data-name="패스 6734" d="M12.73-10.7a15.317,15.317,0,0,1-3.1,5.263A16.346,16.346,0,0,1,6.213-10.7Zm5.453,0v-2.2H9.918l1.634-.513a16.217,16.217,0,0,0-1.292-2.869l-2.413.7A14.529,14.529,0,0,1,8.911-12.9H.893v2.2H3.876a21.325,21.325,0,0,0,4.047,6.84A19.516,19.516,0,0,1,.532-.494,11.369,11.369,0,0,1,1.9,1.615,21.061,21.061,0,0,0,9.6-2.223,19,19,0,0,0,17.024,1.5a10.446,10.446,0,0,1,1.52-2.109,18.406,18.406,0,0,1-7.182-3.287,19.934,19.934,0,0,0,3.914-6.8Z" transform="translate(-0.532 16.283)" fill="#fff"/>
</svg>
