<svg xmlns="http://www.w3.org/2000/svg" width="16.666" height="17" viewBox="0 0 16.666 17">
  <g id="그룹_1156" data-name="그룹 1156" transform="translate(-770.2 -1008.417)">
    <path id="패스_4953" data-name="패스 4953" d="M671.948,21.452a.833.833,0,0,1,.558,1.038l-.625,2.083a.833.833,0,1,1-1.6-.479l.625-2.083A.834.834,0,0,1,671.948,21.452Z" transform="translate(108.967 987)"/>
    <path id="패스_4954" data-name="패스 4954" d="M676.256,24.507a.834.834,0,1,0-1.179-1.179l-2.5,2.5a.834.834,0,0,0,1.179,1.179Z" transform="translate(108.405 987)"/>
    <path id="패스_4955" data-name="패스 4955" d="M666.722,23.5a1.561,1.561,0,0,1,1.108.464l5.939,5.943a1.566,1.566,0,0,1,.372,1.651,1.585,1.585,0,0,1-1.363,1.045,9.572,9.572,0,0,0-3.33,1.026,6.962,6.962,0,0,0-.663.395l2.121,1.13,1.61.855-1.366,1.206-.71.625-.653.578-3.348-1.771-.366-.193a3.435,3.435,0,0,1-4.4-5.243l1.111-1.111.009-.01c.086-.089.181-.187.281-.3l.407-.5a6.933,6.933,0,0,0,.632-1.007,9.6,9.6,0,0,0,1.026-3.327,1.581,1.581,0,0,1,1.038-1.363A1.6,1.6,0,0,1,666.722,23.5Zm-4.159,8.6a2.172,2.172,0,0,0,2.619,3.418l.984-.919.436-.4-3.067-3.068Zm4.494,3.44,2.549,1.351,0-.006.71-.625-2.6-1.379-.095.088Zm5.6-4.2a.334.334,0,0,0,.294-.218l0,0a.307.307,0,0,0-.076-.325l-5.945-5.946a.288.288,0,0,0-.215-.095.3.3,0,0,0-.107.019.334.334,0,0,0-.218.29,10.84,10.84,0,0,1-1.155,3.784,7.858,7.858,0,0,1-.767,1.218l-.091.11,3.171,3.172.11-.092a7.866,7.866,0,0,1,1.219-.767A10.849,10.849,0,0,1,672.661,31.344Z" transform="translate(110 987)" fill-rule="evenodd"/>
    <path id="패스_4956" data-name="패스 4956" d="M677.209,28.864a.833.833,0,1,0-.585-1.561l-1.667.625a.833.833,0,0,0,.585,1.561Z" transform="translate(108.405 986.38)"/>
    <path id="패스_5483" data-name="패스 5483" d="M418.833,22.667a1.666,1.666,0,0,0-1.666,1.667V37.667a1.666,1.666,0,0,0,1.666,1.667h13.334a1.666,1.666,0,0,0,1.666-1.667V24.334a1.666,1.666,0,0,0-1.666-1.667ZM425.5,34.75A3.75,3.75,0,1,0,421.75,31,3.75,3.75,0,0,0,425.5,34.75Z" transform="translate(353.033 985.75)" fill-rule="evenodd" opacity="0"/>
  </g>
</svg>
