<svg xmlns="http://www.w3.org/2000/svg" width="21.4" height="16.093" viewBox="0 0 21.4 16.093">
  <g id="각도기" transform="translate(0.2 -75.993)">
    <path id="패스_6716" data-name="패스 6716" d="M407.3,378.878h-.342a.418.418,0,0,0,0,.837h.342a.418.418,0,0,0,0-.837Z" transform="translate(-389.861 -290.27)"/>
    <path id="패스_6715" data-name="패스 6715" d="M17.925,79.268A10.5,10.5,0,0,0,0,86.693v4.775a.418.418,0,0,0,.418.418H20.582A.418.418,0,0,0,21,91.468V86.693A10.431,10.431,0,0,0,17.925,79.268ZM20.163,91.05H.837V89.444H15.594a.418.418,0,1,0,0-.837H.837V87.133h.8a.418.418,0,0,0,0-.837H.845a9.6,9.6,0,0,1,.567-2.89l.724.3a.418.418,0,1,0,.32-.773l-.725-.3a9.7,9.7,0,0,1,1.63-2.447l.546.546A.418.418,0,1,0,4.5,80.14l-.547-.547A9.7,9.7,0,0,1,6.388,77.95l.295.711a.418.418,0,0,0,.773-.32l-.3-.716a9.6,9.6,0,0,1,2.88-.584v.769a.418.418,0,1,0,.837,0v-.772a9.6,9.6,0,0,1,2.885.558l-.295.712a.418.418,0,1,0,.773.32l.3-.715a9.7,9.7,0,0,1,2.45,1.622l-.545.545a.418.418,0,0,0,.592.592l.548-.548a9.7,9.7,0,0,1,1.652,2.432l-.721.3a.418.418,0,1,0,.32.773l.727-.3a9.6,9.6,0,0,1,.593,2.884h-.79a.418.418,0,1,0,0,.837h.8Z" stroke="#000" stroke-linecap="round" stroke-width="0.4"/>
    <path id="패스_6714" data-name="패스 6714" d="M98.466,169.087a6.745,6.745,0,0,0-6.738,6.738.418.418,0,0,0,.418.418h4.709a.418.418,0,0,0,.418-.418,1.192,1.192,0,1,1,2.384,0,.418.418,0,0,0,.418.418h4.709a.418.418,0,0,0,.418-.418A6.745,6.745,0,0,0,98.466,169.087Zm1.985,6.319a2.029,2.029,0,0,0-3.971,0h-3.9a5.9,5.9,0,0,1,11.773,0Z" transform="translate(-87.966 -89.084)" stroke="#000" stroke-linejoin="round" stroke-width="0.25"/>
  </g>
</svg>
