<svg xmlns="http://www.w3.org/2000/svg" width="12.844" height="12.85" viewBox="0 0 12.844 12.85">
  <path id="패스_5536" data-name="패스 5536" d="M16.229,12.325a1.878,1.878,0,0,0-.7-.485,5.053,5.053,0,0,0-1.3-.34,10.438,10.438,0,0,0-1.453-.092q-.2,0-.4.006c-.343-.383-.712-.822-1.108-1.325-.31-.391-.591-.719-.835-1.022-.082-.1-.16-.2-.234-.3.018-.045.035-.086.051-.131A7.571,7.571,0,0,0,10.743,6c0-.16-.008-.326-.017-.494V5.457h-.01a2.216,2.216,0,0,0-.271-.957,1.122,1.122,0,0,0-.341-.361A.9.9,0,0,0,9.631,4a.944.944,0,0,0-.535.174,1.515,1.515,0,0,0-.521.69A2.764,2.764,0,0,0,8.388,5.9c0,.039,0,.08,0,.121v0A6.43,6.43,0,0,0,8.6,7.507a4.717,4.717,0,0,0,.644,1.381c-.23.547-.5,1.094-.761,1.672-.189.42-.48,1.014-.816,1.647-.24.086-.472.178-.7.279A6.96,6.96,0,0,0,4.6,14.224a2.631,2.631,0,0,0-.445.655A1.54,1.54,0,0,0,4,15.525a1.073,1.073,0,0,0,.066.377.9.9,0,0,0,.353.443,1,1,0,0,0,.544.154,1.435,1.435,0,0,0,.624-.154A2.4,2.4,0,0,0,6.2,15.91l0,0a6.84,6.84,0,0,0,.87-1.053,21.441,21.441,0,0,0,1.182-1.95,13.969,13.969,0,0,1,1.963-.447,17.814,17.814,0,0,1,1.8-.184c.23.244.451.465.665.662a4.513,4.513,0,0,0,1.762,1.1,2.425,2.425,0,0,0,.628.086,1.663,1.663,0,0,0,.976-.285,1.115,1.115,0,0,0,.322-.354.962.962,0,0,0,.127-.473,1.056,1.056,0,0,0-.271-.686Zm-6.8-7.293a.522.522,0,0,1,.144-.164.119.119,0,0,1,.059-.025l.016.006a.425.425,0,0,1,.133.2,1.918,1.918,0,0,1,.109.631c.006.107.012.217.012.32a6.421,6.421,0,0,1-.277,1.846c-.012-.025-.025-.051-.037-.076a4.854,4.854,0,0,1-.357-1.776V5.9a1.7,1.7,0,0,1,.2-.873Zm-3.8,10.263h0l0,0a1.592,1.592,0,0,1-.4.289.589.589,0,0,1-.259.07.176.176,0,0,1-.07-.012c-.02-.01-.023-.012-.031-.023a.192.192,0,0,1-.021-.1.722.722,0,0,1,.076-.291,1.825,1.825,0,0,1,.308-.445v0a6.044,6.044,0,0,1,1.768-1.372c-.2.338-.41.664-.613.955a6.132,6.132,0,0,1-.759.926Zm4.464-3.671c-.455.072-.886.158-1.3.258.183-.367.343-.7.466-.971.189-.418.386-.83.576-1.25.242.3.5.6.778.953.244.309.478.594.706.864-.449.039-.868.092-1.225.146Zm5.554,1.444a.357.357,0,0,1-.164.135.951.951,0,0,1-.4.08,1.643,1.643,0,0,1-.41-.057,3.723,3.723,0,0,1-1.413-.912c-.019-.018-.039-.037-.057-.055a9.061,9.061,0,0,1,.921.076,4.291,4.291,0,0,1,1.083.279,1.11,1.11,0,0,1,.394.26.227.227,0,0,1,.068.139.117.117,0,0,1-.016.055Z" transform="translate(-3.825 -3.825)" fill="#a4a4a4" stroke="#a4a4a4" stroke-width="0.35"/>
</svg>
