<svg xmlns="http://www.w3.org/2000/svg" width="16.666" height="16.668" viewBox="0 0 16.666 16.668">
  <g id="그룹_1158" data-name="그룹 1158" transform="translate(-898.667 -1009.666)">
    <path id="패스_4960" data-name="패스 4960" d="M801.332,23.571v-.542a.367.367,0,0,0-.37-.362h-.077a.367.367,0,0,0-.37.362v.542h-6.958v-.542a.367.367,0,0,0-.37-.362h-.077a.367.367,0,0,0-.37.362v.542h-2.182a1.872,1.872,0,0,0-1.891,1.85V37.484a1.872,1.872,0,0,0,1.891,1.85h12.884a1.872,1.872,0,0,0,1.891-1.85V25.421a1.872,1.872,0,0,0-1.891-1.85Zm2.515,13.913a.4.4,0,0,1-.409.4H790.553a.4.4,0,0,1-.409-.4V25.421a.4.4,0,0,1,.409-.4h2.182v.671a.368.368,0,0,0,.371.363h.077a.367.367,0,0,0,.37-.363v-.671h6.957v.671a.367.367,0,0,0,.371.363h.077a.367.367,0,0,0,.37-.363v-.671h2.106a.4.4,0,0,1,.408.4V37.484Z" transform="translate(110 987)" fill="#fff" fill-rule="evenodd"/>
    <path id="패스_4961" data-name="패스 4961" d="M798.25,28.084v6.25h-1.333v-5.07H795.75v-1.18Z" transform="translate(110 987)" fill="#fff"/>
  </g>
</svg>
