<svg xmlns="http://www.w3.org/2000/svg" width="18.18" height="18.178" viewBox="0 0 18.18 18.178">
  <path id="패스_5445" data-name="패스 5445" d="M1083.59,21.909l-14.18,14.18,4,4,.56-.561,13.62-13.618Zm-11.47,13.722.48.482.56-.562-.48-.482.74-.741,1.01,1,.56-.562-1.01-1,.75-.741.48.482.56-.561-.48-.482.74-.741,1,1,.56-.561-1-1,.74-.741.48.482.56-.561-.48-.482.74-.741,1,1,.57-.561-1.01-1,.74-.741.49.482.56-.562-.48-.482.74-.741,1,1,.56-.561-1-1,.74-.741.48.482.56-.562-.48-.482.46-.462,1.75,1.744-11.93,11.93-1.75-1.744.46-.462Z" transform="translate(-1069.41 -21.91)" fill="#fff"/>
</svg>
