<svg xmlns="http://www.w3.org/2000/svg" xmlns:xlink="http://www.w3.org/1999/xlink" width="278.659" height="232.279" viewBox="0 0 278.659 232.279">
  <defs>
    <clipPath id="clip-path">
      <rect id="사각형_4122" data-name="사각형 4122" width="106.163" height="25.554" fill="#fff" stroke="#707070" stroke-width="1"/>
    </clipPath>
    <clipPath id="clip-path-2">
      <rect id="사각형_4121" data-name="사각형 4121" width="51.759" height="51.913" fill="none"/>
    </clipPath>
    <clipPath id="clip-path-3">
      <rect id="사각형_4120" data-name="사각형 4120" width="65.666" height="65.223" fill="none"/>
    </clipPath>
    <clipPath id="clip-path-4">
      <rect id="사각형_4119" data-name="사각형 4119" width="210.482" height="172.287" fill="none"/>
    </clipPath>
    <clipPath id="clip-path-6">
      <rect id="사각형_4093" data-name="사각형 4093" width="187.267" height="100.121" fill="rgba(0,0,0,0)"/>
    </clipPath>
    <clipPath id="clip-path-7">
      <rect id="사각형_4110" data-name="사각형 4110" width="137.991" height="5.935" fill="none"/>
    </clipPath>
    <clipPath id="clip-path-8">
      <rect id="사각형_4112" data-name="사각형 4112" width="5.936" height="6.121" fill="none"/>
    </clipPath>
    <clipPath id="clip-path-11">
      <rect id="사각형_4123" data-name="사각형 4123" width="29.41" height="29.519" transform="translate(-1)" fill="none"/>
    </clipPath>
  </defs>
  <g id="그룹_2265" data-name="그룹 2265" transform="translate(-806.266 -306.362)">
    <g id="마스크_그룹_10" data-name="마스크 그룹 10" transform="translate(956.649 513.086)" clip-path="url(#clip-path)">
      <g id="그룹_2264" data-name="그룹 2264" transform="translate(29.944 -33.572)">
        <path id="패스_5858" data-name="패스 5858" d="M96.837,141.252l-1.2-.321-.449,1.681,2.171.583,1.587-1.588-1.233-1.233Z" transform="translate(-59.878 -88.3)" fill="#e0ded6"/>
        <path id="패스_5859" data-name="패스 5859" d="M54.925,132.771l-3.6-.966.449-1.685,3.6.968Zm-7.206-1.929-3.6-.966.451-1.683,3.6.965Zm-7.205-1.932-3.605-.966.45-1.683,3.607.964Z" transform="translate(-23.217 -79.422)" fill="#e0ded6"/>
        <path id="패스_5860" data-name="패스 5860" d="M22.531,122.767l-2.169-.582-.583-2.17,1.685-.45.321,1.2,1.2.322Z" transform="translate(-12.442 -75.211)" fill="#e0ded6"/>
        <path id="패스_5861" data-name="패스 5861" d="M10.676,79.3l-1.682.453-.967-3.6L9.71,75.7ZM8.743,72.094l-1.682.453-.965-3.6,1.682-.452ZM6.814,64.887l-1.684.454-.964-3.608,1.682-.45Z" transform="translate(-2.621 -38.549)" fill="#e0ded6"/>
        <path id="패스_5862" data-name="패스 5862" d="M0,44.245l.58,2.169,1.682-.45-.321-1.2.878-.878L1.588,42.657Z" transform="translate(0 -26.832)" fill="#e0ded6"/>
        <path id="패스_5863" data-name="패스 5863" d="M11.389,13.186l1.231,1.23,2.637-2.636L14.026,10.55Zm5.275-5.275L17.9,9.142,20.534,6.5,19.3,5.271ZM24.575,0,21.94,2.634l1.232,1.234,2.636-2.636Z" transform="translate(-7.164 0.001)" fill="#e0ded6"/>
        <path id="패스_5864" data-name="패스 5864" d="M144.163,43.53l-1.684.453-.967-3.6,1.685-.451Zm-1.931-7.205-1.683.449-.967-3.6,1.683-.451ZM140.3,29.12l-1.685.451-.967-3.606,1.685-.451Z" transform="translate(-86.587 -16.049)" fill="#e0ded6"/>
        <path id="패스_5865" data-name="패스 5865" d="M152.324,84.243l.321,1.2-.878.878L153,87.551l1.587-1.588-.579-2.172Z" transform="translate(-95.467 -52.708)" fill="#e0ded6"/>
        <path id="패스_5866" data-name="패스 5866" d="M123.527,98.95l-2.636,2.637-1.233-1.232,2.637-2.637Zm-5.274,5.274-2.638,2.64-1.234-1.233,2.639-2.64Zm-5.278,5.278-2.636,2.637-1.233-1.235,2.637-2.637Z" transform="translate(-68.632 -61.468)" fill="#e0ded6"/>
      </g>
    </g>
    <g id="그룹_2263" data-name="그룹 2263" transform="translate(806.266 418.981)">
      <g id="그룹_2262" data-name="그룹 2262" clip-path="url(#clip-path-2)">
        <path id="패스_5857" data-name="패스 5857" d="M28.253,51.913l-.843-4.32a21.768,21.768,0,0,1-6.843-.549L18.98,51.057l-5.1-2.022,1.575-3.961a21.392,21.392,0,0,1-5.475-4.242L6.545,43.3,3.351,38.845l3.44-2.461a21.285,21.285,0,0,1-2.262-6.549l-4.251.22L0,24.579l4.3-.215c0-.044.008-.088.012-.132A21.428,21.428,0,0,1,5.976,17.7L2.167,15.522l2.726-4.756,3.879,2.228a21.489,21.489,0,0,1,4.959-4.608L11.613,4.318l4.865-2.527,2.15,4.146a21.28,21.28,0,0,1,6.554-1.183L25.617,0l5.459.5-.45,4.822A21.268,21.268,0,0,1,36.718,7.8l3.014-3.865,4.32,3.376L41.012,11.2a21.5,21.5,0,0,1,3.811,5.316l4.655-1.632,1.809,5.175-4.632,1.615a21.454,21.454,0,0,1,.388,6.5c0,.018,0,.037-.005.055l4.722,1.126L50.484,34.69l-4.65-1.117a21.3,21.3,0,0,1-3.227,5.818l3.247,3.378-3.956,3.8-3.181-3.321a21.417,21.417,0,0,1-5.949,3.216l.866,4.4ZM14.663,48.7l3.98,1.579L20.2,46.333l.256.066a21.161,21.161,0,0,0,7.165.573l.27-.025.831,4.262,4.2-.824-.851-4.324.249-.084a20.832,20.832,0,0,0,6.234-3.371l.214-.168,3.141,3.279L45,42.753,41.81,39.429l.165-.205a20.711,20.711,0,0,0,3.385-6.1l.09-.256,4.591,1.1,1-4.164-4.65-1.108.028-.263q.017-.154.031-.309a20.831,20.831,0,0,0-.433-6.578l-.06-.262,4.571-1.594L49.11,15.647l-4.589,1.609-.117-.238a20.91,20.91,0,0,0-4-5.583l-.188-.188,3-3.829L39.836,4.781,36.861,8.595l-.229-.141a20.676,20.676,0,0,0-6.394-2.6L29.98,5.8l.442-4.749L26.16.653l-.429,4.7-.271,0A20.7,20.7,0,0,0,18.584,6.59l-.247.09L16.222,2.6l-3.8,1.974,2.09,4.015-.227.148a20.907,20.907,0,0,0-5.2,4.829l-.16.209-3.813-2.19L2.986,15.3l3.758,2.15-.111.248a20.822,20.822,0,0,0-1.72,6.591c-.012.128-.022.257-.032.385l-.02.264-4.232.211.217,4.276,4.189-.216.042.267a20.708,20.708,0,0,0,2.366,6.853l.13.234L4.189,38.984l2.494,3.48,3.384-2.43.18.2a20.8,20.8,0,0,0,5.73,4.439l.238.126Zm9.919-7.677A15.254,15.254,0,1,1,41.174,27.235,15.271,15.271,0,0,1,24.582,41.022m2.75-29.781A14.654,14.654,0,1,0,40.577,27.18,14.671,14.671,0,0,0,27.332,11.24" fill="#30afac" stroke="#30afac" stroke-width="1"/>
      </g>
    </g>
    <g id="그룹_2261" data-name="그룹 2261" transform="translate(1019.259 318)">
      <g id="그룹_2260" data-name="그룹 2260" clip-path="url(#clip-path-3)">
        <path id="패스_5856" data-name="패스 5856" d="M55.807,56.23,51.52,52.686A27.5,27.5,0,0,1,44.4,57.637l1.667,5.192-6.6,2.112-1.637-5.132a27.023,27.023,0,0,1-8.749.246L27.7,65.224l-6.692-1.791,1.386-5.162a26.9,26.9,0,0,1-7.461-4.583l-3.976,3.623L6.3,52.187l4.031-3.661-.094-.138a27.073,27.073,0,0,1-3.615-7.71L1.151,41.6,0,34.771l5.574-.934a27.143,27.143,0,0,1,1.148-8.476L1.393,23.086l2.725-6.369,5.424,2.326A26.891,26.891,0,0,1,15,12.632L11.608,7.64l5.736-3.885,3.428,5.07A26.893,26.893,0,0,1,28.707,6.36L28.553.168,35.478,0l.145,6.232a27.174,27.174,0,0,1,7.985,2.136l3.238-5.326,5.916,3.6-3.229,5.292a27.108,27.108,0,0,1,5.595,6.043l.039.058,5.515-2.687,3.029,6.23L58.274,24.22a26.907,26.907,0,0,1,1.513,8.271l5.88.7-.821,6.879-5.77-.693a27.063,27.063,0,0,1-3.232,7.911l4.372,3.6Zm-15.85,7.757,5.153-1.649-1.638-5.1.3-.141a26.72,26.72,0,0,0,7.458-5.185l.244-.241,4.229,3.5,3.444-4.173-4.3-3.541.176-.282a26.316,26.316,0,0,0,3.385-8.291l.074-.335,5.7.684.641-5.372-5.785-.685,0-.333a26.155,26.155,0,0,0-1.589-8.676l-.117-.321,5.369-2.6-2.366-4.866L54.9,19.012l-.183-.279c-.072-.109-.144-.218-.218-.327a26.326,26.326,0,0,0-5.7-6.077l-.268-.207L51.721,6.9,47.1,4.085,43.908,9.336,43.6,9.2a26.43,26.43,0,0,0-8.386-2.244l-.335-.033L34.739.777l-5.409.13.153,6.111-.337.045a26.134,26.134,0,0,0-8.33,2.587l-.3.151L17.141,4.808l-4.48,3.034,3.345,4.93-.263.22a26.152,26.152,0,0,0-5.721,6.723L9.853,20,4.517,17.712,2.389,22.687,7.65,24.932l-.1.327a26.4,26.4,0,0,0-1.2,8.883l.012.332-5.48.918.9,5.336,5.394-.914.091.331a26.307,26.307,0,0,0,3.6,7.816c.092.135.184.269.278.4l.192.274-3.964,3.6,3.641,4,3.918-3.57.255.226a26.16,26.16,0,0,0,7.806,4.8l.314.124L21.937,62.9l5.227,1.4,1.357-5.086.334.049A26.288,26.288,0,0,0,38.01,59l.334-.069Zm3.532-15.452A19.276,19.276,0,1,1,48.64,21.766a19.3,19.3,0,0,1-5.151,26.769M22.3,17.243a18.518,18.518,0,1,0,25.717,4.948A18.539,18.539,0,0,0,22.3,17.243" transform="translate(0 -0.001)" fill="#cecabd"/>
      </g>
    </g>
    <g id="그룹_2258" data-name="그룹 2258" transform="translate(841.412 342.818)">
      <g id="그룹_2257" data-name="그룹 2257" clip-path="url(#clip-path-4)">
        <g id="그룹_2256" data-name="그룹 2256">
          <g id="그룹_2255" data-name="그룹 2255" clip-path="url(#clip-path-4)">
            <path id="패스_5815" data-name="패스 5815" d="M513.949,522.859a5.311,5.311,0,0,1-5.269,5.349H495.724a5.349,5.349,0,0,1,0-10.7H508.68a5.309,5.309,0,0,1,5.269,5.349" transform="translate(-338.637 -357.316)" fill="#9f9d97"/>
            <path id="패스_5816" data-name="패스 5816" d="M82.69,522.488c0,2.053-6.43,3.714-14.362,3.714H33.017c-7.932,0-14.362-1.661-14.362-3.714s6.431-3.717,14.362-3.717H68.328c7.932,0,14.362,1.665,14.362,3.717" transform="translate(-12.88 -358.187)" fill="#9f9d97"/>
            <path id="패스_5817" data-name="패스 5817" d="M315.833,453.479c0,2.378-.909,3.229-3.447,3.229h-38.48c-2.539,0-4.023-.852-4.023-3.229l4.54-25.1c0-2.38,1.483-3.228,4.021-3.228h29.4c2.539,0,3.446.848,3.446,3.228Z" transform="translate(-186.342 -293.547)" fill="#9f9d97"/>
            <path id="패스_5818" data-name="패스 5818" d="M216.493,127.877c0,10.73-4.1,14.568-15.555,14.568H27.232c-11.456,0-18.149-3.838-18.149-14.568V14.567C9.083,3.841,15.776,0,27.232,0H200.937c11.454,0,15.555,3.842,15.555,14.568Z" transform="translate(-6.271 0.001)" fill="#ebebeb"/>
            <path id="패스_5819" data-name="패스 5819" d="M225.023,134c0,9.012-3.826,12.239-14.515,12.239H48.415c-10.69,0-16.936-3.228-16.936-12.239V38.819c0-9.01,6.247-12.238,16.936-12.238H210.508c10.689,0,14.515,3.228,14.515,12.238Z" transform="translate(-21.735 -18.353)" fill="#9f9d97"/>
            <path id="패스_5820" data-name="패스 5820" d="M338.679,425.851a4.41,4.41,0,1,1-4.411-4.409,4.411,4.411,0,0,1,4.411,4.409" transform="translate(-227.751 -290.986)" fill="#706f6b"/>
            <path id="패스_5821" data-name="패스 5821" d="M341.424,430.824a2.179,2.179,0,1,1-2.18-2.179,2.18,2.18,0,0,1,2.18,2.179" transform="translate(-232.727 -295.959)" fill="#404041"/>
            <g id="그룹_2242" data-name="그룹 2242" transform="translate(12.884 24.734)" opacity="0.94">
              <g id="그룹_2241" data-name="그룹 2241">
                <g id="그룹_2240" data-name="그룹 2240" clip-path="url(#clip-path-6)">
                  <path id="패스_5822" data-name="패스 5822" d="M228.888,168.631c0,8.392-3.7,11.4-14.045,11.4H58.007c-10.343,0-16.386-3-16.386-11.4V79.99c-.05,1.429,186.943-.5,187.267,0Z" transform="translate(-41.621 -79.905)" fill="#fff"/>
                </g>
              </g>
            </g>
            <path id="패스_5823" data-name="패스 5823" d="M306.626,511.823c0,1.845-.432,3.341-2.835,3.341H248.55c-2.4,0-2.837-1.5-2.837-3.341s.435-3.341,2.837-3.341h55.241c2.4,0,2.835,1.5,2.835,3.341" transform="translate(-169.653 -351.083)" fill="#8f8d84"/>
            <path id="패스_5824" data-name="패스 5824" d="M210.482,535.333c0,2.147-.139,3.889-4.164,3.889H4.164C.14,539.222,0,537.48,0,535.333s.14-3.893,4.164-3.893H206.318c4.025,0,4.164,1.744,4.164,3.893" transform="translate(0 -366.935)" fill="#ebebeb"/>
            <rect id="사각형_4094" data-name="사각형 4094" width="60.041" height="3.393" transform="translate(129.307 40.616)" fill="#cecabc"/>
            <rect id="사각형_4095" data-name="사각형 4095" width="60.041" height="3.393" transform="translate(129.307 48.532)" fill="#cecabc"/>
            <rect id="사각형_4096" data-name="사각형 4096" width="35.318" height="3.393" transform="translate(129.307 55.883)" fill="#cecabc"/>
            <rect id="사각형_4097" data-name="사각형 4097" width="62.267" height="3.393" transform="translate(128.565 66.213)" fill="#cecabc"/>
            <rect id="사각형_4098" data-name="사각형 4098" width="62.267" height="3.393" transform="translate(128.565 80.809)" fill="#cecabc"/>
            <rect id="사각형_4099" data-name="사각형 4099" width="56.699" height="3.393" transform="translate(128.565 91.992)" fill="#cecabc"/>
            <rect id="사각형_4100" data-name="사각형 4100" width="62.267" height="3.393" transform="translate(128.565 99.479)" fill="#cecabc"/>
            <rect id="사각형_4101" data-name="사각형 4101" width="40.493" height="3.393" transform="translate(128.565 106.492)" fill="#cecabc"/>
            <rect id="사각형_4102" data-name="사각형 4102" width="36.627" height="3.393" transform="translate(128.565 73.564)" fill="#cecabc"/>
            <rect id="사각형_4103" data-name="사각형 4103" width="64.794" height="42.38" transform="translate(23.236 36.867)" fill="#92d0ce"/>
            <path id="패스_5825" data-name="패스 5825" d="M138.986,161.3H74.061V118.615h64.925Zm-64.307-.618h63.689V119.234H74.679Z" transform="translate(-51.136 -81.898)" fill="#fff"/>
            <rect id="사각형_4104" data-name="사각형 4104" width="0.623" height="77.423" transform="translate(23.065 37.128) rotate(-56.812)" fill="#fff"/>
            <rect id="사각형_4105" data-name="사각형 4105" width="77.423" height="0.623" transform="matrix(0.837, -0.548, 0.548, 0.837, 23.07, 78.994)" fill="#fff"/>
            <rect id="사각형_4106" data-name="사각형 4106" width="26.711" height="17.471" transform="translate(92.666 63.573) rotate(-15.262)" fill="#bce2e2"/>
            <path id="패스_5826" data-name="패스 5826" d="M329.261,198.885,302.9,206.078l-4.762-17.451,26.365-7.194Zm-25.931,6.434,25.172-6.868-4.436-16.258-25.172,6.868Z" transform="translate(-205.847 -125.271)" fill="#fff"/>
            <rect id="사각형_4107" data-name="사각형 4107" width="0.251" height="31.189" transform="translate(92.781 63.244) rotate(-72.074)" fill="#fff"/>
            <rect id="사각형_4108" data-name="사각형 4108" width="31.189" height="0.251" transform="translate(97.219 79.512) rotate(-48.45)" fill="#fff"/>
            <g id="그룹_2245" data-name="그룹 2245" transform="translate(47.402 15.228)" opacity="0.35">
              <g id="그룹_2244" data-name="그룹 2244">
                <g id="그룹_2243" data-name="그룹 2243" clip-path="url(#clip-path-7)">
                  <rect id="사각형_4109" data-name="사각형 4109" width="137.991" height="5.935" transform="translate(0 0)" fill="#fff"/>
                </g>
              </g>
            </g>
            <g id="그룹_2248" data-name="그룹 2248" transform="translate(39.532 15.123)" opacity="0.6">
              <g id="그룹_2247" data-name="그룹 2247">
                <g id="그룹_2246" data-name="그룹 2246" clip-path="url(#clip-path-8)">
                  <rect id="사각형_4111" data-name="사각형 4111" width="5.936" height="6.122" transform="translate(0 0)" fill="#464543"/>
                </g>
              </g>
            </g>
            <g id="그룹_2251" data-name="그룹 2251" transform="translate(31.741 15.123)" opacity="0.78">
              <g id="그룹_2250" data-name="그룹 2250">
                <g id="그룹_2249" data-name="그룹 2249" clip-path="url(#clip-path-8)">
                  <rect id="사각형_4113" data-name="사각형 4113" width="5.936" height="6.122" transform="translate(0 0)" fill="#464543"/>
                </g>
              </g>
            </g>
            <g id="그룹_2254" data-name="그룹 2254" transform="translate(23.826 15.123)" opacity="0.6">
              <g id="그룹_2253" data-name="그룹 2253">
                <g id="그룹_2252" data-name="그룹 2252" clip-path="url(#clip-path-8)">
                  <rect id="사각형_4115" data-name="사각형 4115" width="5.936" height="6.122" transform="translate(0 0)" fill="#464543"/>
                </g>
              </g>
            </g>
            <path id="패스_5827" data-name="패스 5827" d="M390.686,177.987a.444.444,0,0,1-.352-.715l3.066-3.985-3.381-4a.444.444,0,1,1,.678-.574l3.612,4.269a.443.443,0,0,1,.013.557l-3.284,4.269a.442.442,0,0,1-.352.173" transform="translate(-269.217 -116.383)" fill="#464543"/>
            <path id="패스_5828" data-name="패스 5828" d="M325.745,177.987a.444.444,0,0,0,.352-.715l-3.065-3.985,3.381-4a.444.444,0,1,0-.678-.574l-3.612,4.269a.443.443,0,0,0-.013.557l3.284,4.269a.443.443,0,0,0,.352.173" transform="translate(-222.337 -116.383)" fill="#464543"/>
            <path id="패스_5829" data-name="패스 5829" d="M362.2,112.617h-.145a.373.373,0,0,1-.371-.371V90.085a.373.373,0,0,1,.371-.371h.145a.373.373,0,0,1,.371.371v22.16a.373.373,0,0,1-.371.371" transform="translate(-249.723 -61.943)" fill="#706f6b"/>
            <path id="패스_5830" data-name="패스 5830" d="M358.068,81.688h-.8a2.048,2.048,0,0,1-2.043-2.043v-.8a2.048,2.048,0,0,1,2.043-2.043h.8a2.049,2.049,0,0,1,2.043,2.043v.8a2.049,2.049,0,0,1-2.043,2.043" transform="translate(-245.267 -53.03)" fill="#9f9d97"/>
            <path id="패스_5831" data-name="패스 5831" d="M342.79,160.608h-8.449a.662.662,0,0,1-.266-1.269l2.911-1.277,5.537-2.43a.661.661,0,0,1,.532,0l5.537,2.43,2.911,1.277a.662.662,0,0,1-.266,1.269Z" transform="translate(-230.389 -107.418)" fill="#706f6b"/>
            <path id="패스_5832" data-name="패스 5832" d="M359.5,160.2h-.573a1.469,1.469,0,0,1-1.464-1.464v-2.7a1.469,1.469,0,0,1,1.464-1.464h.573a1.469,1.469,0,0,1,1.464,1.464v2.7A1.469,1.469,0,0,1,359.5,160.2" transform="translate(-246.809 -106.727)" fill="#464543"/>
            <path id="패스_5833" data-name="패스 5833" d="M369.583,162.455a1.23,1.23,0,1,1-1.23-1.23,1.23,1.23,0,0,1,1.23,1.23" transform="translate(-253.481 -111.318)" fill="#9f9d97"/>
            <path id="패스_5834" data-name="패스 5834" d="M369.919,163.064a.957.957,0,1,1-.956-.956.956.956,0,0,1,.956.956" transform="translate(-254.091 -111.928)" fill="#c4c2be"/>
            <path id="패스_5835" data-name="패스 5835" d="M370.76,164.588a.273.273,0,1,1-.273-.273.273.273,0,0,1,.273.273" transform="translate(-255.615 -113.452)" fill="#9f9d97"/>
            <path id="패스_5836" data-name="패스 5836" d="M354.76,162.455a1.23,1.23,0,1,1-1.23-1.23,1.23,1.23,0,0,1,1.23,1.23" transform="translate(-243.246 -111.318)" fill="#9f9d97"/>
            <path id="패스_5837" data-name="패스 5837" d="M355.1,163.064a.957.957,0,1,1-.956-.956.956.956,0,0,1,.956.956" transform="translate(-243.856 -111.928)" fill="#c4c2be"/>
            <path id="패스_5838" data-name="패스 5838" d="M355.937,164.588a.273.273,0,1,1-.273-.273.273.273,0,0,1,.273.273" transform="translate(-245.38 -113.452)" fill="#9f9d97"/>
            <path id="패스_5839" data-name="패스 5839" d="M167.226,295.809a.444.444,0,0,1-.352-.715l3.065-3.985-3.381-4a.444.444,0,1,1,.678-.574l3.612,4.269a.444.444,0,0,1,.013.557l-3.284,4.269a.443.443,0,0,1-.352.173" transform="translate(-114.928 -197.734)" fill="#464543"/>
            <path id="패스_5840" data-name="패스 5840" d="M102.285,295.809a.444.444,0,0,0,.352-.715l-3.065-3.985,3.381-4a.444.444,0,1,0-.678-.574l-3.612,4.269a.444.444,0,0,0-.013.557l3.284,4.269a.443.443,0,0,0,.352.173" transform="translate(-68.048 -197.734)" fill="#464543"/>
            <path id="패스_5841" data-name="패스 5841" d="M138.737,143.768h-.145a.373.373,0,0,1-.371-.371V82.378a.373.373,0,0,1,.371-.371h.145a.373.373,0,0,1,.371.371V143.4a.373.373,0,0,1-.371.371" transform="translate(-95.434 -56.622)" fill="#706f6b"/>
            <path id="패스_5842" data-name="패스 5842" d="M134.608,80.1h-.8a2.048,2.048,0,0,1-2.043-2.043v-.8a2.048,2.048,0,0,1,2.043-2.043h.8a2.049,2.049,0,0,1,2.043,2.043v.8a2.049,2.049,0,0,1-2.043,2.043" transform="translate(-90.978 -51.936)" fill="#9f9d97"/>
            <path id="패스_5843" data-name="패스 5843" d="M119.33,278.43h-8.449a.663.663,0,0,1-.266-1.269l2.911-1.277,5.537-2.43a.661.661,0,0,1,.532,0l5.537,2.43,2.911,1.277a.662.662,0,0,1-.266,1.269Z" transform="translate(-76.1 -188.769)" fill="#706f6b"/>
            <path id="패스_5844" data-name="패스 5844" d="M136.035,278.02h-.573A1.469,1.469,0,0,1,134,276.556v-2.7a1.469,1.469,0,0,1,1.464-1.464h.573a1.469,1.469,0,0,1,1.464,1.464v2.7a1.469,1.469,0,0,1-1.464,1.465" transform="translate(-92.519 -188.077)" fill="#464543"/>
            <path id="패스_5845" data-name="패스 5845" d="M146.123,280.277a1.23,1.23,0,1,1-1.23-1.23,1.23,1.23,0,0,1,1.23,1.23" transform="translate(-99.193 -192.669)" fill="#9f9d97"/>
            <path id="패스_5846" data-name="패스 5846" d="M146.459,280.887a.956.956,0,1,1-.956-.957.956.956,0,0,1,.956.957" transform="translate(-99.802 -193.278)" fill="#c4c2be"/>
            <path id="패스_5847" data-name="패스 5847" d="M147.3,282.41a.273.273,0,1,1-.273-.273.273.273,0,0,1,.273.273" transform="translate(-101.326 -194.802)" fill="#9f9d97"/>
            <path id="패스_5848" data-name="패스 5848" d="M131.3,280.277a1.23,1.23,0,1,1-1.23-1.23,1.23,1.23,0,0,1,1.23,1.23" transform="translate(-88.958 -192.669)" fill="#9f9d97"/>
            <path id="패스_5849" data-name="패스 5849" d="M131.636,280.887a.956.956,0,1,1-.956-.957.956.956,0,0,1,.956.957" transform="translate(-89.568 -193.278)" fill="#c4c2be"/>
            <path id="패스_5850" data-name="패스 5850" d="M132.477,282.41a.273.273,0,1,1-.273-.273.273.273,0,0,1,.273.273" transform="translate(-91.091 -194.802)" fill="#9f9d97"/>
            <rect id="사각형_4117" data-name="사각형 4117" width="14.887" height="43.909" transform="translate(30.95 106.143) rotate(-71.362)" fill="#fff"/>
            <g id="그룹_2259" data-name="그룹 2259" transform="translate(36.435 98.428)">
              <path id="패스_5851" data-name="패스 5851" d="M123.1,320.812l-1.766-.886-.271-1.957-1.388,1.405-1.945-.347.908,1.755-.931,1.742,1.949-.321,1.369,1.424.3-1.953Z" transform="translate(-117.705 -317.969)" fill="#02a39f"/>
              <path id="패스_5852" data-name="패스 5852" d="M147.318,328.981l-1.766-.886-.271-1.957-1.388,1.405-1.945-.347.908,1.755-.931,1.742,1.949-.321,1.369,1.424.3-1.953Z" transform="translate(-134.427 -323.61)" fill="#02a39f"/>
              <path id="패스_5853" data-name="패스 5853" d="M172.086,337.335l-1.766-.886-.271-1.957-1.388,1.405-1.945-.347.908,1.755-.931,1.742,1.949-.321,1.369,1.424.3-1.953Z" transform="translate(-151.528 -329.378)" fill="#02a39f"/>
              <path id="패스_5854" data-name="패스 5854" d="M196.125,345.442l-1.766-.886-.271-1.957L192.7,344l-1.945-.347.908,1.755-.931,1.742,1.949-.321,1.369,1.424.3-1.953Z" transform="translate(-168.126 -334.976)" fill="#02a39f"/>
              <path id="패스_5855" data-name="패스 5855" d="M221.258,353.919l-1.766-.886-.271-1.957-1.388,1.405-1.945-.347.908,1.755-.931,1.742,1.949-.321,1.369,1.424.3-1.953Z" transform="translate(-185.48 -340.829)" fill="#02a39f"/>
            </g>
          </g>
        </g>
      </g>
    </g>
    <g id="그룹_2267" data-name="그룹 2267" transform="translate(995.508 306.362)" opacity="0.8">
      <g id="그룹_2266" data-name="그룹 2266" transform="translate(0 0)" clip-path="url(#clip-path-11)">
        <path id="패스_5867" data-name="패스 5867" d="M29.41,12.594l-.669-2.732-2.694.662q-.033-.084-.066-.169A12.171,12.171,0,0,0,24,7.052l1.935-2.033L23.895,3.082,21.954,5.129A12.248,12.248,0,0,0,18.382,3.3l.531-2.77L16.151,0l-.523,2.755a12.1,12.1,0,0,0-4.017.356L10.579.543,7.97,1.593,8.993,4.127a12.1,12.1,0,0,0-3.242,2.48L3.576,5.062,1.95,7.356,4.091,8.872a12.249,12.249,0,0,0-1.411,3.9L.129,12.65,0,15.459l2.508.113a12.167,12.167,0,0,0,.866,3.884q.043.1.086.208L1.33,20.9,2.741,23.33l2.1-1.222a12.123,12.123,0,0,0,3.06,2.929L6.8,27.186l2.5,1.283,1.1-2.153a12.2,12.2,0,0,0,4.163.777l.234,2.425,2.8-.273-.241-2.452a12.3,12.3,0,0,0,3.876-1.616l1.558,1.977L25,25.413,23.413,23.4a12.2,12.2,0,0,0,2.339-3.417l2.488.858.915-2.659-2.532-.868a12.121,12.121,0,0,0,.129-4.076ZM17.953,22.625a8.614,8.614,0,1,1,4.774-11.207,8.614,8.614,0,0,1-4.774,11.207" transform="translate(0 0)" fill="#1ca8a5"/>
      </g>
    </g>
  </g>
</svg>
