<svg width="32" height="32" viewBox="0 0 32 32" fill="none" xmlns="http://www.w3.org/2000/svg">
<g id="Icon/Main/middle/Type6">
<path id="Rectangle 155028" d="M4 24C2.89543 24 2 23.1046 2 22L2 5C2 3.89543 2.89543 3 4 3L28 3C29.1046 3 30 3.89543 30 5L30 22C30 23.1046 29.1046 24 28 24L4 24Z" fill="#9973ED"/>
<path id="Rectangle 155030" d="M2.5 29C2.22386 29 2 28.7761 2 28.5C2 28.2239 2.22386 28 2.5 28L29.5 28C29.7761 28 30 28.2239 30 28.5C30 28.7761 29.7761 29 29.5 29L2.5 29Z" fill="#9973ED"/>
<path id="Rectangle 155031" d="M2.5 29C2.22386 29 2 28.7761 2 28.5C2 28.2239 2.22386 28 2.5 28L10.5 28C10.7761 28 11 28.2239 11 28.5C11 28.7761 10.7761 29 10.5 29L2.5 29Z" fill="#D984CF"/>
<path id="&#236;&#130;&#172;&#234;&#176;&#129;&#237;&#152;&#149; 2064" d="M14 28C14 26.3431 12.6569 25 11 25C9.34315 25 8 26.3431 8 28C8 29.6569 9.34315 31 11 31C12.6569 31 14 29.6569 14 28Z" fill="#D984CF"/>
<path id="Polygon 12" d="M19.4505 12.6284C20.1302 13.0107 20.1302 13.9892 19.4505 14.3716L14.4903 17.1617C13.8237 17.5367 13 17.055 13 16.2901L13 10.7098C13 9.945 13.8237 9.46328 14.4903 9.83825L19.4505 12.6284Z" fill="white"/>
</g>
</svg>
