<svg width="32" height="32" viewBox="0 0 32 32" fill="none" xmlns="http://www.w3.org/2000/svg">
<g id="Icon/Main/middle/Type5" clip-path="url(#clip0_59_31968)">
<path id="Rectangle 155028" d="M3 1H23C24.1046 1 25 1.89543 25 3V27C25 28.1046 24.1046 29 23 29H3V1Z" fill="#9973ED"/>
<path id="Rectangle 155029" d="M0 4C0 2.34315 1.34315 1 3 1V29C1.34315 29 0 27.6569 0 26V4Z" fill="#6BBFE5"/>
<path id="Union" fill-rule="evenodd" clip-rule="evenodd" d="M7 8.625C7 7.72754 7.72754 7 8.625 7C9.07789 7 9.48751 7.18527 9.7822 7.48416L9.78385 7.4825L17.832 16.0496V10.25C17.832 8.45507 19.2871 7 21.082 7V18.375C21.082 19.2725 20.3545 20 19.457 20C19.0085 20 18.6024 19.8183 18.3084 19.5244L18.3066 19.5261L10.25 10.95V16.75C10.25 18.5449 8.79493 20 7 20V8.625Z" fill="white"/>
<path id="&#237;&#140;&#168;&#236;&#138;&#164; 14300" d="M23.3863 17.3916C23.1587 17.6244 23.0312 17.937 23.0312 18.2626C23.0312 18.5881 23.1587 18.9008 23.3863 19.1336L25.8963 21.6806C26.008 21.795 26.1416 21.886 26.289 21.948C26.4364 22.0101 26.5948 22.0421 26.7548 22.0421C26.9147 22.0421 27.0731 22.0101 27.2205 21.948C27.3679 21.886 27.5015 21.795 27.6133 21.6806L31.5853 17.6506C31.8128 17.4178 31.9403 17.1051 31.9403 16.7796C31.9403 16.454 31.8128 16.1414 31.5853 15.9086L29.0683 13.3616C28.9565 13.2471 28.823 13.1562 28.6755 13.0941C28.5281 13.032 28.3697 13 28.2098 13C28.0498 13 27.8914 13.032 27.744 13.0941C27.5966 13.1562 27.463 13.2471 27.3513 13.3616L23.3793 17.3886L23.3863 17.3916Z" fill="#F56A3C"/>
<path id="&#237;&#140;&#168;&#236;&#138;&#164; 14301" d="M25.7413 14.6696L30.2962 19.2886L28.8363 20.7706L24.2812 16.1516L25.7413 14.6696Z" fill="#F1F1F1"/>
<path id="&#237;&#140;&#168;&#236;&#138;&#164; 14302" d="M19.0843 21.4216L21.3593 23.7296L23.6373 26.0406L19.7533 27.0266L18.1133 25.3626L19.0843 21.4216Z" fill="#FAE4D4"/>
<path id="&#237;&#140;&#168;&#236;&#138;&#164; 14303" d="M18.1134 25.3626L19.7534 27.0266L17.5664 27.5806L18.1134 25.3626Z" fill="black"/>
<path id="&#237;&#140;&#168;&#236;&#138;&#164; 14304" fill-rule="evenodd" clip-rule="evenodd" d="M24.282 16.1486L25.719 17.6076L20.519 22.8816L19.082 21.4226L24.282 16.1486ZM27.397 19.3076L28.835 20.7666L23.635 26.0406L22.197 24.5816L20.519 22.8816L25.719 17.6076L27.397 19.3076Z" fill="#3E6CF2"/>
</g>
<defs>
<clipPath id="clip0_59_31968">
<rect width="32" height="32" fill="white"/>
</clipPath>
</defs>
</svg>
