<svg width="32" height="32" viewBox="0 0 32 32" fill="none" xmlns="http://www.w3.org/2000/svg">
<g clip-path="url(#clip0_59_31960)">
<path d="M9 14C12.3137 14 15 11.3137 15 8C15 4.68629 12.3137 2 9 2C5.68629 2 3 4.68629 3 8C3 11.3137 5.68629 14 9 14Z" fill="#6BBFE5"/>
<path d="M19.5 13C21.433 13 23 11.433 23 9.5C23 7.567 21.433 6 19.5 6C17.567 6 16 7.567 16 9.5C16 11.433 17.567 13 19.5 13Z" fill="#6BBFE5"/>
<path d="M2 29V11H24.235V16.237L29 14.273V25.727L24.235 23.763V29H2Z" fill="#9973ED"/>
<path d="M16.8203 22.4265V18H17.8047V22.4265H16.8203ZM17.5727 22.4265V21.5738H19.9991V22.4265H17.5727ZM17.5727 20.5769V19.7556H19.7797V20.5769H17.5727ZM17.5727 18.8464V18H19.9678V18.8464H17.5727Z" fill="white"/>
<path d="M13.7308 22.4265L12.0254 18H13.0787L14.3766 21.5801H13.944L15.2606 18H16.3014L14.5772 22.4265H13.7308Z" fill="white"/>
<path d="M10.5137 22.4265V18H11.498V22.4265H10.5137Z" fill="white"/>
<path d="M7 22.4265V18H7.98437V22.4265H7ZM7.75866 22.4265V21.5613H9.94684V22.4265H7.75866Z" fill="white"/>
</g>
<defs>
<clipPath id="clip0_59_31960">
<rect width="32" height="32" fill="white"/>
</clipPath>
</defs>
</svg>
