<svg width="32" height="32" viewBox="0 0 32 32" fill="none" xmlns="http://www.w3.org/2000/svg">
<g id="Icon/Main/middle/Type7">
<path id="&#236;&#130;&#172;&#234;&#176;&#129;&#237;&#152;&#149; 2063" d="M25.6008 28.8V0L-3.8147e-06 0V28.8H25.6008Z" fill="#9973ED"/>
<path id="&#237;&#140;&#168;&#236;&#138;&#164; 14293" fill-rule="evenodd" clip-rule="evenodd" d="M21.9211 5.59785H12.4712V7.31625H21.9211V5.59785ZM17.6255 9.03359H12.4712V10.752H17.6255V9.03359Z" fill="white"/>
<path id="&#237;&#140;&#168;&#236;&#138;&#164; 14294" fill-rule="evenodd" clip-rule="evenodd" d="M7.31531 16.4096L5.48912 14.5867L4.27734 15.7984L6.10034 17.6213L4.27841 19.4464L5.48912 20.6613L7.31104 18.8395L9.13297 20.6613L10.3479 19.4464L8.52601 17.6245L10.3522 15.7984L9.13724 14.5867L7.31531 16.4096Z" fill="white"/>
<path id="&#237;&#131;&#128;&#236;&#155;&#144; 177" d="M6.9336 10.6667C8.40641 10.6667 9.60035 9.47275 9.60035 7.99999C9.60035 6.52724 8.40641 5.33333 6.9336 5.33333C5.46079 5.33333 4.26685 6.52724 4.26685 7.99999C4.26685 9.47275 5.46079 10.6667 6.9336 10.6667Z" stroke="white" stroke-width="1.5"/>
<path id="&#236;&#130;&#172;&#234;&#176;&#129;&#237;&#152;&#149; 2064" d="M32.001 24.5333C32.001 20.4096 28.6579 17.0667 24.534 17.0667C20.4102 17.0667 17.0671 20.4096 17.0671 24.5333C17.0671 28.6571 20.4102 32 24.534 32C28.6579 32 32.001 28.6571 32.001 24.5333Z" fill="#D984CF"/>
<path id="&#237;&#140;&#168;&#236;&#138;&#164; 14272" fill-rule="evenodd" clip-rule="evenodd" d="M24.0007 20.2667H25.0676V24.7463L26.8805 22.9333L27.6344 23.6872L25.3718 25.95L24.6179 26.7039L23.864 25.95L21.6014 23.6872L22.3553 22.9333L24.0007 24.5787V20.2667ZM21.3343 26.6669V27.7339H27.734V26.6669H28.8009V28.8H20.2673V26.6669H21.3343Z" fill="white"/>
</g>
</svg>
