<svg width="120" height="54" viewBox="0 0 120 54" fill="none" xmlns="http://www.w3.org/2000/svg">
<rect x="44" y="4" width="71" height="44" fill="white"/>
<path d="M72.4663 25.2135H65.7666V27.2788H72.4663V25.2135Z" fill="#7547D9"/>
<path d="M109.803 44.0565C107.592 44.0565 107.262 44.2714 107.262 44.7231C107.262 45.1748 107.596 45.4116 109.803 45.4116C112.011 45.4116 112.344 45.1857 112.344 44.7231C112.344 44.2933 112.014 44.0565 109.803 44.0565Z" fill="#7547D9"/>
<path d="M62.6557 11.8745C61.6118 11.8745 60.7646 12.7524 60.7646 13.8342C60.7646 14.9161 61.6153 15.7939 62.6557 15.7939C63.6962 15.7939 64.5468 14.9124 64.5468 13.8342C64.5468 12.756 63.6997 11.8745 62.6557 11.8745Z" fill="#7547D9"/>
<path d="M38.451 0.156372L29.5896 6.77855L20.7212 0.156372H0V53.5709H20.7212V46.9487L29.5896 53.5709L38.451 46.9487V53.5709H120V0.156372H38.451ZM113.107 38.5417C112.393 38.5635 108.228 38.5635 107.529 38.5417V39.7328C108.27 39.7328 112.453 39.7219 113.202 39.7328C113.23 40.0351 113.23 40.4613 113.202 40.7054C112.404 40.7454 107.349 40.7345 106.411 40.7054C106.355 39.9696 106.362 38.2903 106.411 37.5691C107.339 37.5181 112.207 37.54 113.107 37.5691C113.146 37.8642 113.146 38.2466 113.107 38.5417ZM109.972 7.27029H112.994V26.758H109.972V16.6062H106.33V13.4736H109.972V7.27029ZM96.2348 11.9801V8.84752H100.544V6.91332H103.567V8.84752H107.877V11.9801H103.567V15.8595L108.45 23.4214L105.936 25.1626L102.052 19.1487L98.1681 25.1626L95.6548 23.4214L100.537 15.8595V11.9801H96.2278H96.2348ZM90.9411 7.27029H93.9641V26.758H90.9411V7.27029ZM78.2308 8.80017H88.8391V11.9328H81.2537V15.0035H88.3189V18.1361H81.2537V21.2067H89.1344V24.3393H78.2308V8.79289V8.80017ZM72.3993 7.29215H75.4223V21.123H72.3993V7.29215ZM57.7486 13.8305C57.7486 11.0221 59.9525 8.73825 62.6626 8.73825C64.8455 8.73825 66.7014 10.2208 67.3411 12.2642H68.5714V7.29215H71.5944V21.1193H68.5714V15.3968H67.3411C66.7014 17.4403 64.8455 18.9228 62.6626 18.9228C59.9525 18.9228 57.7486 16.6353 57.7486 13.8269V13.8305ZM75.4961 30.4115H62.747V22.0773H75.4961V30.4115ZM78.2026 28.8051H113.002V29.9234H78.2026V28.8051ZM97.5846 38.8841C97.5459 38.6 97.5459 38.1446 97.5846 37.8605C98.4001 37.8314 103.42 37.8095 104.386 37.8605C104.435 38.7347 104.435 42.9237 104.386 43.5611C104.158 43.6012 103.532 43.6012 103.268 43.5611C103.251 42.9419 103.251 39.3831 103.268 38.8841C101.627 38.8841 98.3719 38.9132 97.5846 38.8841ZM105.128 45.9798C104.235 46.0381 98.2032 46.0199 97.0257 45.9798C96.9976 45.6957 96.9976 45.2841 97.0257 44.9781C97.6443 44.9672 98.7234 44.9599 99.9115 44.9599C99.901 43.8307 99.9115 41.4594 99.9291 40.9603C100.175 40.9021 100.773 40.9093 101.047 40.9603C101.057 41.4994 101.068 43.8489 101.057 44.9599C102.861 44.9599 104.625 44.9708 105.128 44.9781C105.156 45.2731 105.156 45.6556 105.128 45.9798ZM109.813 46.3841C106.892 46.3841 106.151 45.8122 106.151 44.7231C106.151 43.5648 106.987 43.073 109.813 43.073C112.64 43.073 113.476 43.6413 113.476 44.7231C113.476 45.8924 112.64 46.3841 109.813 46.3841ZM113.866 42.4028C112.699 42.4538 107.205 42.4429 105.764 42.4028C105.736 42.1369 105.736 41.7253 105.764 41.4375C107.775 41.4011 112.643 41.4084 113.866 41.4375C113.894 41.7034 113.894 42.1078 113.866 42.4028Z" fill="#7547D9"/>
</svg>
