<svg xmlns="http://www.w3.org/2000/svg" width="45.25" height="40" viewBox="0 0 45.25 40"><path fill="#2e63b5" fill-rule="evenodd" d="M32.211 5.388c1.8-1.359 5.052-.973 7.163 1.923s1.534 6.181-.253 7.537l-10.754 8.15c-1.787 1.353-5.052.969-7.163-1.927a2.224 2.224 0 0 0-3.158-.475 2.334 2.334 0 0 0-.469 3.226c3.194 4.374 9.184 6.142 13.478 2.878l10.772-8.15C46.139 15.284 46.194 8.931 43 4.559 39.824.185 33.834-1.583 29.522 1.685l-7 5.294a2.331 2.331 0 0 0-.451 3.226 2.223 2.223 0 0 0 3.158.476zm-19.18 29.226c-1.8 1.357-5.052.971-7.163-1.925s-1.534-6.18.253-7.535l10.754-8.15c1.8-1.355 5.052-.971 7.163 1.925a2.226 2.226 0 0 0 3.158.476 2.319 2.319 0 0 0 .469-3.228c-3.193-4.374-9.166-6.142-13.478-2.876l-10.772 8.15c-4.294 3.264-4.366 9.617-1.173 13.991s9.166 6.14 13.478 2.874l7-5.294a2.353 2.353 0 0 0 .469-3.228 2.246 2.246 0 0 0-3.176-.475z"/></svg>