<svg xmlns="http://www.w3.org/2000/svg" width="45.248" height="40" viewBox="0 0 45.248 40">
  <path id="패스_3000" data-name="패스 3000" d="M1101.419,713.557c1.8-1.359,5.052-.973,7.163,1.923s1.534,6.181-.253,7.537l-10.754,8.15c-1.787,1.353-5.052.969-7.163-1.927a2.224,2.224,0,0,0-3.158-.475,2.334,2.334,0,0,0-.469,3.226c3.194,4.374,9.184,6.142,13.478,2.878l10.772-8.15c4.312-3.266,4.367-9.619,1.173-13.991-3.176-4.374-9.166-6.142-13.478-2.874l-7,5.294a2.331,2.331,0,0,0-.451,3.226,2.223,2.223,0,0,0,3.158.476Zm-19.18,29.226c-1.8,1.357-5.052.971-7.163-1.925s-1.534-6.18.253-7.535l10.754-8.15c1.8-1.355,5.052-.971,7.163,1.925a2.226,2.226,0,0,0,3.158.476,2.319,2.319,0,0,0,.469-3.228c-3.193-4.374-9.166-6.142-13.478-2.876l-10.772,8.15c-4.294,3.264-4.366,9.617-1.173,13.991s9.166,6.14,13.478,2.874l7-5.294a2.353,2.353,0,0,0,.469-3.228,2.246,2.246,0,0,0-3.176-.475Z" transform="translate(-1069.208 -708.169)" fill="#2e63b5" fill-rule="evenodd"/>
</svg>
