<svg xmlns="http://www.w3.org/2000/svg" width="16.25" height="16.257" viewBox="0 0 16.25 16.257">
  <g id="그룹_1687" data-name="그룹 1687" transform="translate(0.125 0.125)">
    <path id="패스_5535" data-name="패스 5535" d="M4.574,13.819h0v0Z" transform="translate(-3.687 -1.183)" fill="#fff"/>
    <path id="패스_5536" data-name="패스 5536" d="M19.66,14.661a2.4,2.4,0,0,0-.892-.621,6.471,6.471,0,0,0-1.664-.435,13.368,13.368,0,0,0-1.861-.118q-.259,0-.517.007c-.44-.49-.912-1.053-1.419-1.7-.4-.5-.757-.921-1.069-1.309-.1-.13-.2-.258-.3-.38.022-.058.045-.11.065-.168a9.7,9.7,0,0,0,.632-3.378c0-.205-.01-.418-.022-.633V5.866H12.6a2.837,2.837,0,0,0-.347-1.226,1.437,1.437,0,0,0-.437-.463A1.158,1.158,0,0,0,11.21,4a1.208,1.208,0,0,0-.685.223,1.941,1.941,0,0,0-.667.883,3.539,3.539,0,0,0-.24,1.334c0,.05,0,.1,0,.155V6.6A8.234,8.234,0,0,0,9.9,8.491a6.04,6.04,0,0,0,.824,1.769c-.295.7-.637,1.4-.974,2.142-.242.538-.615,1.3-1.044,2.109-.307.11-.6.228-.892.358A8.913,8.913,0,0,0,4.77,17.093a3.37,3.37,0,0,0-.57.838,1.972,1.972,0,0,0-.2.828,1.374,1.374,0,0,0,.085.483,1.152,1.152,0,0,0,.452.568,1.274,1.274,0,0,0,.7.2,1.838,1.838,0,0,0,.8-.2,3.073,3.073,0,0,0,.78-.558l0,0A8.759,8.759,0,0,0,7.93,17.9a27.458,27.458,0,0,0,1.514-2.5,17.889,17.889,0,0,1,2.513-.573,22.813,22.813,0,0,1,2.306-.235c.295.313.577.6.852.848a5.779,5.779,0,0,0,2.256,1.414,3.106,3.106,0,0,0,.8.11,2.129,2.129,0,0,0,1.249-.365,1.428,1.428,0,0,0,.412-.453A1.232,1.232,0,0,0,20,15.544a1.352,1.352,0,0,0-.347-.878Zm-8.71-9.34a.669.669,0,0,1,.185-.21.152.152,0,0,1,.075-.033l.02.007a.544.544,0,0,1,.17.258,2.456,2.456,0,0,1,.14.808c.007.138.015.278.015.41A8.223,8.223,0,0,1,11.2,8.926c-.015-.033-.032-.065-.047-.1A6.217,6.217,0,0,1,10.7,6.554V6.437a2.179,2.179,0,0,1,.255-1.118ZM6.079,18.464h0l0,0a2.039,2.039,0,0,1-.507.37.755.755,0,0,1-.332.09.225.225,0,0,1-.09-.015c-.025-.013-.03-.015-.04-.03a.246.246,0,0,1-.027-.125.924.924,0,0,1,.1-.373,2.337,2.337,0,0,1,.395-.57v0a7.74,7.74,0,0,1,2.264-1.756c-.26.433-.525.851-.785,1.224a7.853,7.853,0,0,1-.972,1.186Zm5.716-4.7c-.582.093-1.134.2-1.661.33.235-.47.44-.9.6-1.244.242-.535.495-1.063.737-1.6.31.38.64.771,1,1.221.312.4.612.76.9,1.106-.575.05-1.112.118-1.569.188Zm7.113,1.849a.457.457,0,0,1-.21.173,1.218,1.218,0,0,1-.517.1,2.1,2.1,0,0,1-.525-.073,4.767,4.767,0,0,1-1.809-1.168c-.025-.023-.05-.047-.072-.07a11.6,11.6,0,0,1,1.179.1,5.5,5.5,0,0,1,1.387.358,1.421,1.421,0,0,1,.5.333.29.29,0,0,1,.087.178.15.15,0,0,1-.02.07Z" transform="translate(-4 -4)" fill="#a4a4a4" stroke="#a4a4a4" stroke-width="0.25"/>
  </g>
</svg>
