<svg xmlns="http://www.w3.org/2000/svg" width="15.91" height="15.91" viewBox="0 0 15.91 15.91"><path fill="#fff" fill-rule="evenodd" d="M14.461 0l-.033.033-.033.033-.032.033-.033.033-.033.033-.033.033-.032.033-.033.033-.033.033-.032.033-.033.033-.032.033-.032.032-.033.032-.032.032-.032.032-.033.032-.032.032-.032.032-.032.032-.032.032-.032.032-.032.032-.032.032-.032.032-.032.032-.032.032-.031.032-.032.032-.032.031-.031.032-.032.031-.031.031-.032.031-.031.031-.032.031-.031.031-.032.031-.031.031-.031.031-.032.031-.031.031-.031.031-.031.031-.031.031-.031.031-.031.031-.031.031-.031.031-.031.031-.031.031-.031.03-.03.03-.031.03-.031.03-.031.03-.029.03-.031.03-.029.03-.031.03-.029.03-.031.03-.02.029-.031.03-.029.03-.029.03-.031.03-.029.03-.029.03-.029.03-.029.03-.031.03-.029.029-.029.03-.029.029-.029.029-.029.029-.029.029-.029.029-.03.026-.029.029-.029.029-.029.029-.029.029-.028.029-.029.029-.029.029-.028.029-.029.029-.028.029-.029.029-.028.029-.029.029-.028.029-.029.029-.028.029-.028.029-.029.029-.028.029-.028.029-.028.028-.029.028-.028.028-.028.028-.028.028-.028.028-.028.028-.028.028-.028.028-.028.028-.028.028-.028.028-.028.028-.028.028-.028.028-.028.028-.027.028-.028.028-.028.028-.028.028-.027.028-.028.028-.028.028-.027.028-.028.028-.027.028-.028.028-.028.028-.027.028-.028.028-.027.028-.027.027-.028.027-.027.027-.028.027-.027.027-.027.027-.028.027-.027.027-.027.027-.027.027-.028.027-.027.027-.027.027-.027.027-.027.027-.028.027-.027.027-.027.027-.027.027-.027.027-.027.027-.027.027-.027.027-.027.027-.027.027-.027.027-.027.027-.027.027-.026.027-.027.027-.027.027-.027.027-.027.027-.027.027-.026.027-.027.027-.027.027-.027.027-.026.027-.027.027-.027.027-.026.027-.027.027-.027.027-.026.027-.027.027-.027.027-.026.027-.027.027-.026.027-.027.026-.026.026-.027.026-.026.027-.027.026-.026.026-.027.026-.026.026-.027.026-.026.026-.027.026-.026.026-.026.026-.027.026-.026.026-.027.026-.026.026-.026.026-.027.026-.026.026-.026.026-.026.026-.027.026-.026.026-.026.026-.027.026-.026.026-.026.026-.026.026-.027.026-.026.026-.026.026-.026.026-.026.026-.027.026-.026.026-.026.026-.026.026-.026.026-.026.026-.027.026-.026.026-.026.026-.026.026-.026.026-.034.031-.026.026-.029-.026-.026-.026-.026-.026-.026-.026-.026-.026-.026-.026-.027-.026-.026-.026-.026-.026-.026-.026-.026-.026-.026-.026-.027-.026-.026-.026-.026-.026-.026-.026-.026-.026-.027-.027-.026-.026-.026-.026-.026-.026-.027-.026-.026-.026-.026-.026-.027-.026-.026-.026-.026-.026-.026-.026-.027-.026-.026-.026-.026-.026-.027-.026-.026-.026-.027-.026-.026-.026-.026-.026-.027-.026-.026-.026-.027-.026-.026-.026-.027-.026-.026-.026-.027-.026-.026-.027-.027-.026-.026-.026-.027-.026-.026-.027-.027-.027-.026-.027-.027-.027-.027-.027-.026-.027-.027-.027-.027-.027-.022-.028-.027-.027-.027-.027-.026-.027-.027-.027-.027-.027-.027-.027-.026-.027-.027-.027-.027-.027-.027-.027-.027-.027-.027-.027-.026-.027-.027-.027-.027-.027-.027-.027-.027-.027-.027-.027-.027-.027-.027-.027-.027-.027-.027-.027-.027-.027-.027-.027-.027-.027-.028-.027-.027-.027-.027-.027-.027-.027-.027-.027-.028-.027-.027-.027-.027-.027-.027-.027-.028-.027-.027-.027-.027-.027-.028-.027-.027-.027L5.4 3.96l-.027-.027-.027-.028-.028-.028-.027-.028-.028-.028-.028-.028-.027-.028-.028-.028-.027-.028-.028-.028-.028-.028-.027-.028-.028-.028-.028-.028-.028-.028-.027-.028-.026-.031-.028-.028-.028-.028-.028-.028-.028-.028-.028-.028-.028-.028-.028-.028-.028-.028-.028-.028-.028-.028-.028-.028-.028-.028-.028-.028-.029-.028-.028-.028-.03-.028-.028-.029-.029-.029-.028-.029-.028-.029-.029-.029-.028-.029-.029-.029-.028-.029-.029-.029-.028-.029-.029-.029-.028-.029-.029-.029-.029-.029-.028-.029-.029-.029-.029-.029-.029-.029-.038-.03-.028-.029-.029-.029-.029-.029-.029-.029-.029-.029-.029-.029-.029-.03-.029-.029-.031-.03-.029-.03-.029-.03-.029-.03-.029-.03-.031-.03-.029-.03-.029-.03-.031-.03-.029-.03-.031-.03-.029-.03-.031-.03-.029-.03-.031-.03-.029-.03-.031-.03-.031-.03-.031-.03-.029-.03-.031-.03-.031-.031-.031-.031-.031-.031-.031-.031-.031-.031-.031-.031-.031-.031-.031-.031-.031-.031-.031-.031-.032-.031-.031-.031-.031-.031-.032-.031-.031-.031-.032-.031-.031-.031-.032-.031-.026-.03L2.45 1 2.419.968 2.387.937 2.355.905 2.324.873 2.292.841 2.26.809 2.228.777 2.196.745 2.164.713 2.132.681 2.1.649 2.068.617 2.036.585 2.004.553 1.971.521 1.939.489 1.907.457 1.874.425 1.842.393 1.81.36 1.777.327 1.745.294 1.712.261 1.679.228 1.647.195 1.614.162 1.581.129 1.548.096 1.516.063l-.034-.03L1.449 0 .002 1.446l.033.033.033.033.033.033.033.033.032.033.033.033.033.033.032.033.033.033.033.033.032.033.033.033.032.032.032.032.033.032.032.032.032.032.032.032.032.032.033.032.032.032.032.032.032.032.031.032.032.032.032.032.032.032.032.032.032.032.031.032.032.031.031.031.032.031.032.031.031.031.031.031.032.031.031.031.031.031.032.031.031.031.031.031.031.031.032.031.031.031.031.031.031.031.031.031.031.031.029.031.031.031.031.03.031.03.031.03.029.03.031.03.031.03.029.03.031.03.029.03.031.03.029.03.031.03.03.03.031.03.029.03.03.03.029.03.031.03.03.03.029.03.03.03.029.03.029.029.029.029.029.029.029.029.029.029.029.029.029.029.029.029.029.029.028.029.029.029.029.029.028.029.029.029.029.029.028.029.029.029.028.029.029.029.028.029.029.029.028.029.028.029.029.029.028.029.028.029.029.029.028.028.028.028.028.028.028.028.028.028.03.028.028.028.028.028.028.028.028.028.028.028.028.028.027.028.028.028.028.028.028.028.028.028.028.028.027.028.028.028.028.028.027.028.028.028.028.028.027.028.028.028.027.028.028.028.028.028.027.028.027.028.028.027.027.027.028.027.027.027.027.027.028.027.027.027.027.027.028.027.027.027.027.027.027.027.028.027.027.027.027.027.027.027.027.027.027.027.027.027.027.027.027.027.027.027.027.027.027.027.027.027.027.027.027.027.027.027.027.027.027.027.027.027.026.027.027.027.027.027.027.027.027.027.026.027.027.027.027.027.027.027.026.027.027.027.027.027.026.027.027.027.026.027.027.027.027.027.026.027.027.027.026.026.027.026.026.027.027.026.026.026.027.026.026.026.027.026.026.026.027.026.026.026.026.026.027.026.026.026.027.026.026.026.026.026.027.026.026.026.026.026.027.026.026.026.026.026.027.026.026.026.026.026.026.026.027.026.026.026.026.026.026.026.026.026.027.026.026.026.026.026.026.026.026.026.027.026.026.026.026.026.026.026.026.026.026.026.027.026.026.026.026.026.026.026-.028.029-.026.026-.026.026-.027.026-.026.026-.026.026-.026.026-.026.026-.026.026-.027.026-.026.026-.026.026-.026.026-.026.026-.027.026-.026.026-.026.026-.026.026-.026.026-.027.026-.026.026-.026.026-.026.026-.027.026-.026.026-.026.026-.027.026-.026.026-.026.026-.027.026-.026.026-.026.026-.027.026-.026.026-.027.026-.026.026-.026.026-.027.026-.026.026-.027.026-.026.026-.027.026-.026.026-.027.026-.026.026-.027.026-.026.027-.027.026-.026.027-.027.027-.027.027-.026.027-.027.027-.026.027-.027.027-.027.027-.026.027-.027.027-.027.027-.027.027-.026.027-.027.027-.027.027-.027.027-.027.027-.026.027-.027.027-.027.027-.027.027-.027.027-.027.027-.027.027-.027.027-.027.027-.027.027-.027.027-.027.027-.027.027-.027.027-.027.027-.027.027-.027.027-.027.027-.027.027-.028.027-.027.027-.027.027-.027.027-.028.027-.027.027-.027.027-.028.027-.027.027-.027.027-.028.027-.027.027-.028.027-.027.028-.027.028-.028.028-.028.028-.027.028-.028.028-.027.028-.028.028-.028.028-.027.028-.028.028-.028.028-.027.028-.028.028-.028.028-.028.028-.028.028-.028.028-.027.028-.028.028-.028.028-.028.028-.028.028-.028.028-.028.028-.03.028-.028.028-.028.028-.028.028-.028.028-.028.028-.029.029-.028.029-.028.029-.029.029-.028.029-.028.029-.029.029-.028.029-.029.029-.028.029-.029.029-.028.029-.029.029-.029.029-.028.029-.029.029-.029.029-.028.029-.029.029-.029.029-.029.029-.029.029-.029.029-.029.029-.029.029-.029.029-.029.03-.029.029-.03.03-.029.03-.03.03-.031.03-.029.03-.03.03-.029.03-.031.03-.03.03-.031.03-.029.03-.031.03-.029.03-.031.03-.029.03-.031.03-.031.03-.029.03-.031.03-.031.03-.031.03-.031.031-.029.031-.031.031-.031.031-.031.031-.031.031-.031.031-.032.031-.031.031-.031.031-.031.031-.032.031-.031.031-.031.031-.032.031-.031.031-.032.031-.031.031-.032.031-.031.031-.032.032-.031.031-.032.032-.032.032-.032.032-.032.032-.032.032-.031.032-.032.032-.032.032-.032.032-.033.032-.032.032-.032.032-.032.032-.032.032-.033.032-.032.032-.032.032-.033.033-.032.033-.033.033-.033.033-.032.033-.033.033-.033.033-.032.033-.033.033-.033.033-.033.033-.033.033 1.447 1.446.033-.033.033-.033.032-.033.033-.033.033-.033.033-.033.032-.033.033-.033.033-.033.032-.033.033-.033.032-.033.032-.032.033-.032.032-.032.032-.032.033-.032.032-.032.032-.032.032-.032.032-.032.032-.032.032-.032.032-.032.032-.032.032-.032.032-.032.031-.032.032-.032.032-.032.031-.032.032-.031.031-.031.032-.031.031-.031.032-.031.031-.031.032-.031.031-.031.031-.031.032-.031.031-.031.031-.031.031-.031.031-.031.031-.031.031-.031.031-.031.031-.031.031-.031.031-.031.031-.03.029-.03.031-.03.031-.03.031-.03.029-.03.031-.03.029-.03.031-.03.029-.03.031-.03.029-.03.031-.03.029-.03.029-.03.031-.03.029-.03.029-.03.029-.03.029-.03.031-.03.029-.03.029-.03.029-.029.029-.029.029-.029.029-.029.029-.029.028-.029.029-.029.029-.029.029-.029.029-.029.028-.029.029-.029.029-.029.028-.029.029-.029.028-.029.029-.029.028-.029.029-.029.028-.029.029-.029.028-.029.028-.029.029-.029.028-.029.028-.029.028-.028.029-.028.028-.028.028-.028.028-.028.028-.028.028-.028.028-.028.028-.028.028-.028.028-.028.028-.028.028-.028.028-.028.028-.028.028-.028.027-.028.028-.028.028-.028.028-.028.027-.028.028-.028.028-.028.027-.028.028-.028.027-.028.028-.028.028-.028.027-.028.028-.028.027-.027.027-.028.028-.027.027-.027.028-.027.027-.027.027-.027.028-.027.027-.027.027-.027.027-.027.028-.027.027-.027.027-.027.027-.027.027-.027.028-.027.027-.027.027-.027.027-.027.027-.027.027-.027.027-.027.027-.027.027-.027.027-.027.027-.027.027-.027.027-.027.026-.027.027-.027.027-.027.027-.027.027-.027.027-.027.026-.027.027-.027.027-.027.027-.027.026-.027.027-.027.027-.027.026-.027.027-.027.027-.027.026-.027.027-.027.027-.027.026-.027.027-.027.026-.026.027-.027.026-.026.027-.026.026-.026.027-.026.026-.026.027-.026.026-.026.027-.026.026-.026.027-.026.026-.026.026-.026.027-.026.026-.026.027-.026.026-.026.026-.026.027-.026.026-.026.026-.026.026-.026.027-.026.026-.026.026-.026.027-.026.026-.026.026-.026.026-.026.027-.026.026-.026.026-.026.026-.026.026-.026.027-.026.026-.026.026-.026.026-.026.026-.026.026-.026.027-.026.026-.026.026-.026.026-.026.026-.026.026-.026.026-.026.026.026.026.026.026.026.026.026.026.026.026.026.027.026.026.026.026.026.026.026.026.026.026.026.027.026.026.026.026.026.026.026.026.026.027.026.026.026.026.026.026.026.027.026.026.026.026.026.027.026.026.026.026.026.026.026.027.026.026.026.026.026.027.026.026.026.027.026.026.026.026.026.027.026.026.026.027.026.026.026.027.026.026.026.027.026.026.026.027.026.026.026.027.027.026.026.027.027.026.027.027.027.027.027.026.027.027.027.027.027.026.027.027.027.027.027.026.027.027.027.027.027.027.027.026.027.027.027.027.027.027.027.027.027.027.027.026.027.027.027.027.027.027.027.027.027.027.027.027.027.027.027.027.027.027.027.027.027.027.027.027.027.028.027.027.027.027.027.027.027.027.027.028.027.027.027.027.027.027.027.028.027.027.027.027.027.028.027.027.027.028.027.027.028.027.027.028.028.027.028.028.028.028.028.027.028.028.028.027.028.028.028.028.028.027.028.028.028.028.028.028.028.027.028.028.028.028.028.028.028.028.028.028.028.028.028.028.028.028.028.028.028.028.028.028.028.028.028.028.028.028.028.029.028.028.028.028.029.028.029.029.029.028.029.028.029.029.029.028.029.029.029.028.029.029.029.028.029.029.029.028.029.029.029.029.029.028.029.029.029.029.029.029.029.029.029.028.029.029.029.029.029.029.029.029.029.029.029.029.03.029.03.031.03.029.03.029.03.029.03.029.03.031.03.029.03.029.03.031.03.029.03.031.03.029.03.031.03.029.03.031.03.029.03.031.03.031.03.031.03.03.03.031.03.031.031.031.031.031.031.031.031.031.031.031.031.031.031.031.031.031.031.031.031.032.031.031.031.031.031.032.031.031.031.032.031.031.031.032.031.031.031.032.031.031.032.032.032.032.032.031.032.032.032.032.032.032.032.032.032.032.032.032.032.032.032.032.032.032.032.032.032.033.032.032.032.032.032.033.032.032.032.032.033.033.033.032.033.033.033.033.033.032.033.033.033.033.033.033.033.032.033.033.033.033.033 1.447-1.446-.033-.033-.033-.033-.033-.033-.033-.033-.032-.033-.033-.033-.033-.033-.032-.033-.033-.033-.033-.033-.032-.033-.033-.033-.026-.03-.032-.032-.033-.032-.032-.032-.032-.032-.032-.032-.032-.032-.033-.032-.032-.032-.032-.032-.032-.032-.031-.032-.032-.032-.032-.032-.032-.032-.032-.032-.032-.032-.031-.031-.032-.032-.031-.031-.032-.031-.032-.031-.031-.031-.031-.031-.032-.031-.031-.031-.031-.031-.032-.031-.031-.031-.031-.031-.031-.031-.032-.031-.031-.031-.031-.031-.031-.031-.031-.031-.031-.031-.03-.031-.031-.031-.031-.03-.031-.03-.031-.03-.029-.03-.031-.03-.031-.03-.029-.03-.031-.03-.029-.03-.031-.03-.029-.03-.031-.03-.029-.03-.031-.03-.029-.03-.029-.03-.029-.03-.031-.03-.029-.03-.029-.03-.029-.03-.029-.029-.029-.03-.029-.029-.029-.029-.029-.029-.026-.03-.029-.029-.029-.029-.029-.029-.029-.029-.028-.029-.029-.029-.029-.029-.028-.029-.029-.029-.029-.029-.028-.029-.029-.029-.028-.029-.029-.029-.028-.029-.029-.029-.028-.029-.028-.029-.036-.031-.028-.029-.028-.029-.029-.029-.028-.028-.028-.028-.028-.028-.028-.028-.028-.028-.029-.028-.028-.028-.028-.028-.028-.028-.028-.028-.028-.028-.028-.028-.027-.028-.028-.028-.028-.028-.028-.028-.028-.028-.028-.028-.027-.028-.028-.028-.028-.028-.027-.028-.028-.028-.028-.028-.027-.028-.028-.028-.027-.028-.028-.028-.028-.028-.027-.028-.027-.028-.028-.027-.027-.027-.028-.027-.027-.027-.027-.027-.028-.027-.027-.027-.027-.027-.028-.027-.027-.027-.027-.027-.027-.027-.028-.027-.027-.027-.027-.027-.027-.027-.027-.027-.038-.029-.027-.027-.027-.027-.027-.027-.027-.027-.027-.027-.027-.027-.027-.027-.027-.027-.027-.027-.027-.027-.027-.027-.027-.027-.027-.027-.026-.027-.027-.027-.027-.027-.027-.027-.027-.027-.026-.027-.027-.027-.027-.027-.027-.027-.026-.027-.027-.027-.027-.027-.026-.027-.027-.027-.026-.027-.027-.027-.027-.027-.026-.027-.027-.026-.026-.027-.027-.026-.026-.026-.027-.026-.026-.026-.027-.026-.026-.026-.027-.026-.026-.026-.027-.026-.026-.026-.026-.026-.027-.026-.026-.026-.027-.026-.026-.026-.026-.026-.027-.026-.026-.026-.026-.026-.027-.026-.026-.026-.026-.026-.027-.026-.026-.026-.026-.026-.026-.026-.027-.026-.026-.026-.026-.026-.026-.026-.026-.026-.027-.026-.026-.026-.026-.026-.026-.026-.026-.026-.027-.026-.026-.026-.026-.026-.026-.026-.026-.026-.026-.026-.011-.025-.026-.026-.026-.026-.026-.026.026-.026.026-.026.026-.026.027-.026.026-.026.026-.026.026-.026.026-.026.026-.026.027-.026.026-.026.026-.026.026-.026.026-.026.027-.026.026-.026.026-.026.026-.026.026-.026.027-.026.026-.026.026-.026.026-.026.027-.026.026-.026.026-.026.027-.026.026-.026.026-.026.027-.026.026-.026.026-.026.027-.026.026-.026.027-.026.026-.026.026-.026.027-.026.026-.026.027-.026.026-.026.027-.026.026-.026.027-.026.026-.027.027-.026.026-.026.027-.027.026-.027.027-.027.027-.027.026-.027.027-.027.026-.027.027-.027.027-.027.026-.027.027-.027.027-.027.027-.027.026-.027.027-.027.027-.027.027-.027.027-.027.026-.027.027-.027.027-.027.027-.027.027-.027.027-.027.027-.027.027-.027.027-.027.027-.027.027-.027.027-.027.027-.027.027-.027.027-.027.027-.027.027-.027.027-.027.027-.027.028-.027.027-.027.027-.027.027-.027.028-.027.027-.027.027-.027.028-.027.027-.027.027-.027.028-.027.027-.027.028-.027.027-.028.027-.028.028-.028.028-.028.027-.028.028-.028.027-.028.028-.028.028-.028.027-.028.028-.028.028-.028.027-.028.028-.028.028-.028.028-.028.028-.028.028-.028.027-.028.028-.028.028-.028.028-.028.028-.028.028-.028.028-.028.029-.028.028-.028.028-.028.028-.028.028-.028.028-.028.029-.029.028-.029.028-.029.029-.029.028-.029.028-.029.029-.029.028-.029.029-.029.028-.029.029-.029.028-.029.029-.029.029-.029.028-.029.029-.029.029-.029.028-.029.029-.029.029-.029.029-.029.031-.032.029-.029.029-.029.029-.029.029-.029.029-.029.029-.03.029-.03.029-.03.029-.03.031-.03.029-.03.029-.03.029-.03.031-.03.029-.03.031-.03.029-.03.031-.03.029-.03.031-.03.029-.03.031-.03.031-.03.029-.03.031-.03.031-.03.031-.03.031-.031.03-.031.031-.031.031-.031.031-.031.031-.031.031-.031.032-.031.031-.031.031-.031.031-.031.032-.031.031-.031.031-.031.032-.031.031-.031.031-.031.032-.031.032-.031.031-.031.032-.031.031-.032.032-.032.032-.032.032-.032.032-.032.032-.032.031-.032.032-.032.032-.032.032-.032.033-.032.032-.032.032-.032.032-.032.032-.032.033-.032.029-.032.032-.032.033-.033.032-.033.033-.033.033-.033.032-.033.033-.033.033-.033.032-.033.033-.033.033-.033.033-.033.033-.033z"/></svg>