<svg xmlns="http://www.w3.org/2000/svg" width="15.91" height="15.91" viewBox="0 0 15.91 15.91"><path id="icon-close" fill="#fff" fill-rule="evenodd" d="M356.979 17.518l-.033.033-.033.033-.032.033-.033.033-.033.033-.033.033-.032.033-.033.033-.033.033-.032.033-.033.033-.032.033-.032.032-.033.032-.032.032-.032.032-.033.032-.032.032-.032.032-.032.032-.032.032-.032.032-.032.032-.032.032-.032.032-.032.032-.032.032-.031.032-.032.032-.032.031-.031.032-.032.031-.031.031-.032.031-.031.031-.032.031-.031.031-.032.031-.031.031-.031.031-.032.031-.031.031-.031.031-.031.031-.031.031-.031.031-.031.031-.031.031-.031.031-.031.031-.031.031-.031.03-.03.03-.031.03-.031.03-.031.03-.029.03-.031.03-.029.03-.031.03-.029.03-.031.03-.02.029-.031.03-.029.03-.029.03-.031.03-.029.03-.029.03-.029.03-.029.03-.031.03-.029.029-.029.03-.029.029-.029.029-.029.029-.029.029-.029.029-.03.026-.029.029-.029.029-.029.029-.029.029-.028.029-.029.029-.029.029-.028.029-.029.029-.028.029-.029.029-.028.029-.029.029-.028.029-.029.029-.028.029-.028.029-.029.029-.028.029-.028.029-.028.028-.029.028-.028.028-.028.028-.028.028-.028.028-.028.028-.028.028-.028.028-.028.028-.028.028-.028.028-.028.028-.028.028-.028.028-.028.028-.027.028-.028.028-.028.028-.028.028-.027.028-.028.028-.028.028-.027.028-.028.028-.027.028-.028.028-.028.028-.027.028-.028.028-.027.028-.027.027-.028.027-.027.027-.028.027-.027.027-.027.027-.028.027-.027.027-.027.027-.027.027-.028.027-.027.027-.027.027-.027.027-.027.027-.028.027-.027.027-.027.027-.027.027-.027.027-.027.027-.027.027-.027.027-.027.027-.027.027-.027.027-.027.027-.027.027-.026.027-.027.027-.027.027-.027.027-.027.027-.027.027-.026.027-.027.027-.027.027-.027.027-.026.027-.027.027-.027.027-.026.027-.027.027-.027.027-.026.027-.027.027-.027.027-.026.027-.027.027-.026.027-.027.026-.026.026-.027.026-.026.027-.027.026-.026.026-.027.026-.026.026-.027.026-.026.026-.027.026-.026.026-.026.026-.027.026-.026.026-.027.026-.026.026-.026.026-.027.026-.026.026-.026.026-.026.026-.027.026-.026.026-.026.026-.027.026-.026.026-.026.026-.026.026-.027.026-.026.026-.026.026-.026.026-.026.026-.027.026-.026.026-.026.026-.026.026-.026.026-.026.026-.027.026-.026.026-.026.026-.026.026-.026.026-.034.031-.026.026-.029-.026-.026-.026-.026-.026-.026-.026-.026-.026-.026-.026-.027-.026-.026-.026-.026-.026-.026-.026-.026-.026-.026-.026-.027-.026-.026-.026-.026-.026-.026-.026-.026-.026-.027-.027-.026-.026-.026-.026-.026-.026-.027-.026-.026-.026-.026-.026-.027-.026-.026-.026-.026-.026-.026-.026-.027-.026-.026-.026-.026-.026-.027-.026-.026-.026-.027-.026-.026-.026-.026-.026-.027-.026-.026-.026-.027-.026-.026-.026-.027-.026-.026-.026-.027-.026-.026-.027-.027-.026-.026-.026-.027-.026-.026-.027-.027-.027-.026-.027-.027-.027-.027-.027-.026-.027-.027-.027-.027-.027-.022-.028-.027-.027-.027-.027-.026-.027-.027-.027-.027-.027-.027-.027-.026-.027-.027-.027-.027-.027-.027-.027-.027-.027-.027-.027-.026-.027-.027-.027-.027-.027-.027-.027-.027-.027-.027-.027-.027-.027-.027-.027-.027-.027-.027-.027-.027-.027-.027-.027-.027-.027-.028-.027-.027-.027-.027-.027-.027-.027-.027-.027-.028-.027-.027-.027-.027-.027-.027-.027-.028-.027-.027-.027-.027-.027-.028-.027-.027-.027-.028-.027-.027-.027-.027-.028-.028-.028-.027-.028-.028-.028-.028-.028-.027-.028-.028-.028-.027-.028-.028-.028-.028-.028-.027-.028-.028-.028-.028-.028-.028-.028-.027-.028-.026-.031-.028-.028-.028-.028-.028-.028-.028-.028-.028-.028-.028-.028-.028-.028-.028-.028-.028-.028-.028-.028-.028-.028-.028-.028-.028-.028-.029-.028-.028-.028-.03-.028-.028-.029-.029-.029-.028-.029-.028-.029-.029-.029-.028-.029-.029-.029-.028-.029-.029-.029-.028-.029-.029-.029-.028-.029-.029-.029-.029-.029-.028-.029-.029-.029-.029-.029-.029-.029-.038-.03-.028-.029-.029-.029-.029-.029-.029-.029-.029-.029-.029-.029-.029-.03-.029-.029-.031-.03-.029-.03-.029-.03-.029-.03-.029-.03-.031-.03-.029-.03-.029-.03-.031-.03-.029-.03-.031-.03-.029-.03-.031-.03-.029-.03-.031-.03-.029-.03-.031-.03-.031-.03-.031-.03-.029-.03-.031-.03-.031-.031-.031-.031-.031-.031-.031-.031-.031-.031-.031-.031-.031-.031-.031-.031-.031-.031-.031-.031-.032-.031-.031-.031-.031-.031-.032-.031-.031-.031-.032-.031-.031-.031-.032-.031-.026-.03-.032-.031-.031-.032-.032-.031-.032-.032-.031-.032-.032-.032-.032-.032-.032-.032-.032-.032-.032-.032-.032-.032-.032-.032-.032-.032-.032-.032-.032-.032-.033-.032-.032-.032-.032-.032-.033-.032-.032-.032-.032-.033-.033-.033-.032-.033-.033-.033-.033-.033-.032-.033-.033-.033-.033-.033-.033-.033-.032-.033-.034-.03-.033-.033-1.447 1.446.033.033.033.033.033.033.033.033.032.033.033.033.033.033.032.033.033.033.033.033.032.033.033.033.032.032.032.032.033.032.032.032.032.032.032.032.032.032.033.032.032.032.032.032.032.032.031.032.032.032.032.032.032.032.032.032.032.032.031.032.032.031.031.031.032.031.032.031.031.031.031.031.032.031.031.031.031.031.032.031.031.031.031.031.031.031.032.031.031.031.031.031.031.031.031.031.031.031.029.031.031.031.031.03.031.03.031.03.029.03.031.03.031.03.029.03.031.03.029.03.031.03.029.03.031.03.03.03.031.03.029.03.03.03.029.03.031.03.03.03.029.03.03.03.029.03.029.029.029.029.029.029.029.029.029.029.029.029.029.029.029.029.029.029.028.029.029.029.029.029.028.029.029.029.029.029.028.029.029.029.028.029.029.029.028.029.029.029.028.029.028.029.029.029.028.029.028.029.029.029.028.028.028.028.028.028.028.028.028.028.03.028.028.028.028.028.028.028.028.028.028.028.028.028.027.028.028.028.028.028.028.028.028.028.028.028.027.028.028.028.028.028.027.028.028.028.028.028.027.028.028.028.027.028.028.028.028.028.027.028.027.028.028.027.027.027.028.027.027.027.027.027.028.027.027.027.027.027.028.027.027.027.027.027.027.027.028.027.027.027.027.027.027.027.027.027.027.027.027.027.027.027.027.027.027.027.027.027.027.027.027.027.027.027.027.027.027.027.027.027.027.027.027.027.026.027.027.027.027.027.027.027.027.027.026.027.027.027.027.027.027.027.026.027.027.027.027.027.026.027.027.027.026.027.027.027.027.027.026.027.027.027.026.026.027.026.026.027.027.026.026.026.027.026.026.026.027.026.026.026.027.026.026.026.026.026.027.026.026.026.027.026.026.026.026.026.027.026.026.026.026.026.027.026.026.026.026.026.027.026.026.026.026.026.026.026.027.026.026.026.026.026.026.026.026.026.027.026.026.026.026.026.026.026.026.026.027.026.026.026.026.026.026.026.026.026.026.026.027.026.026.026.026.026.026.026-.028.029-.026.026-.026.026-.027.026-.026.026-.026.026-.026.026-.026.026-.026.026-.027.026-.026.026-.026.026-.026.026-.026.026-.027.026-.026.026-.026.026-.026.026-.026.026-.027.026-.026.026-.026.026-.026.026-.027.026-.026.026-.026.026-.027.026-.026.026-.026.026-.027.026-.026.026-.026.026-.027.026-.026.026-.027.026-.026.026-.026.026-.027.026-.026.026-.027.026-.026.026-.027.026-.026.026-.027.026-.026.026-.027.026-.026.027-.027.026-.026.027-.027.027-.027.027-.026.027-.027.027-.026.027-.027.027-.027.027-.026.027-.027.027-.027.027-.027.027-.026.027-.027.027-.027.027-.027.027-.027.027-.026.027-.027.027-.027.027-.027.027-.027.027-.027.027-.027.027-.027.027-.027.027-.027.027-.027.027-.027.027-.027.027-.027.027-.027.027-.027.027-.027.027-.027.027-.027.027-.028.027-.027.027-.027.027-.027.027-.028.027-.027.027-.027.027-.028.027-.027.027-.027.027-.028.027-.027.027-.028.027-.027.028-.027.028-.028.028-.028.028-.027.028-.028.028-.027.028-.028.028-.028.028-.027.028-.028.028-.028.028-.027.028-.028.028-.028.028-.028.028-.028.028-.028.028-.027.028-.028.028-.028.028-.028.028-.028.028-.028.028-.028.028-.03.028-.028.028-.028.028-.028.028-.028.028-.028.028-.029.029-.028.029-.028.029-.029.029-.028.029-.028.029-.029.029-.028.029-.029.029-.028.029-.029.029-.028.029-.029.029-.029.029-.028.029-.029.029-.029.029-.028.029-.029.029-.029.029-.029.029-.029.029-.029.029-.029.029-.029.029-.029.029-.029.03-.029.029-.03.03-.029.03-.03.03-.031.03-.029.03-.03.03-.029.03-.031.03-.03.03-.031.03-.029.03-.031.03-.029.03-.031.03-.029.03-.031.03-.031.03-.029.03-.031.03-.031.03-.031.03-.031.031-.029.031-.031.031-.031.031-.031.031-.031.031-.031.031-.032.031-.031.031-.031.031-.031.031-.032.031-.031.031-.031.031-.032.031-.031.031-.032.031-.031.031-.032.031-.031.031-.032.032-.031.031-.032.032-.032.032-.032.032-.032.032-.032.032-.031.032-.032.032-.032.032-.032.032-.033.032-.032.032-.032.032-.032.032-.032.032-.033.032-.032.032-.032.032-.033.033-.032.033-.033.033-.033.033-.032.033-.033.033-.033.033-.032.033-.033.033-.033.033-.033.033-.033.033 1.447 1.446.033-.033.033-.033.032-.033.033-.033.033-.033.033-.033.032-.033.033-.033.033-.033.032-.033.033-.033.032-.033.032-.032.033-.032.032-.032.032-.032.033-.032.032-.032.032-.032.032-.032.032-.032.032-.032.032-.032.032-.032.032-.032.032-.032.032-.032.031-.032.032-.032.032-.032.031-.032.032-.031.031-.031.032-.031.031-.031.032-.031.031-.031.032-.031.031-.031.031-.031.032-.031.031-.031.031-.031.031-.031.031-.031.031-.031.031-.031.031-.031.031-.031.031-.031.031-.031.031-.03.029-.03.031-.03.031-.03.031-.03.029-.03.031-.03.029-.03.031-.03.029-.03.031-.03.029-.03.031-.03.029-.03.029-.03.031-.03.029-.03.029-.03.029-.03.029-.03.031-.03.029-.03.029-.03.029-.029.029-.029.029-.029.029-.029.029-.029.028-.029.029-.029.029-.029.029-.029.029-.029.028-.029.029-.029.029-.029.028-.029.029-.029.028-.029.029-.029.028-.029.029-.029.028-.029.029-.029.028-.029.028-.029.029-.029.028-.029.028-.029.028-.028.029-.028.028-.028.028-.028.028-.028.028-.028.028-.028.028-.028.028-.028.028-.028.028-.028.028-.028.028-.028.028-.028.028-.028.028-.028.027-.028.028-.028.028-.028.028-.028.027-.028.028-.028.028-.028.027-.028.028-.028.027-.028.028-.028.028-.028.027-.028.028-.028.027-.027.027-.028.028-.027.027-.027.028-.027.027-.027.027-.027.028-.027.027-.027.027-.027.027-.027.028-.027.027-.027.027-.027.027-.027.027-.027.028-.027.027-.027.027-.027.027-.027.027-.027.027-.027.027-.027.027-.027.027-.027.027-.027.027-.027.027-.027.027-.027.026-.027.027-.027.027-.027.027-.027.027-.027.027-.027.026-.027.027-.027.027-.027.027-.027.026-.027.027-.027.027-.027.026-.027.027-.027.027-.027.026-.027.027-.027.027-.027.026-.027.027-.027.026-.026.027-.027.026-.026.027-.026.026-.026.027-.026.026-.026.027-.026.026-.026.027-.026.026-.026.027-.026.026-.026.026-.026.027-.026.026-.026.027-.026.026-.026.026-.026.027-.026.026-.026.026-.026.026-.026.027-.026.026-.026.026-.026.027-.026.026-.026.026-.026.026-.026.027-.026.026-.026.026-.026.026-.026.026-.026.027-.026.026-.026.026-.026.026-.026.026-.026.026-.026.027-.026.026-.026.026-.026.026-.026.026-.026.026-.026.026-.026.026.026.026.026.026.026.026.026.026.026.026.026.027.026.026.026.026.026.026.026.026.026.026.026.027.026.026.026.026.026.026.026.026.026.027.026.026.026.026.026.026.026.027.026.026.026.026.026.027.026.026.026.026.026.026.026.027.026.026.026.026.026.027.026.026.026.027.026.026.026.026.026.027.026.026.026.027.026.026.026.027.026.026.026.027.026.026.026.027.026.026.026.027.027.026.026.027.027.026.027.027.027.027.027.026.027.027.027.027.027.026.027.027.027.027.027.026.027.027.027.027.027.027.027.026.027.027.027.027.027.027.027.027.027.027.027.026.027.027.027.027.027.027.027.027.027.027.027.027.027.027.027.027.027.027.027.027.027.027.027.027.027.028.027.027.027.027.027.027.027.027.027.028.027.027.027.027.027.027.027.028.027.027.027.027.027.028.027.027.027.028.027.027.028.027.027.028.028.027.028.028.028.028.028.027.028.028.028.027.028.028.028.028.028.027.028.028.028.028.028.028.028.027.028.028.028.028.028.028.028.028.028.028.028.028.028.028.028.028.028.028.028.028.028.028.028.028.028.028.028.028.028.029.028.028.028.028.029.028.029.029.029.028.029.028.029.029.029.028.029.029.029.028.029.029.029.028.029.029.029.028.029.029.029.029.029.028.029.029.029.029.029.029.029.029.029.028.029.029.029.029.029.029.029.029.029.029.029.029.03.029.03.031.03.029.03.029.03.029.03.029.03.031.03.029.03.029.03.031.03.029.03.031.03.029.03.031.03.029.03.031.03.029.03.031.03.031.03.031.03.03.03.031.03.031.031.031.031.031.031.031.031.031.031.031.031.031.031.031.031.031.031.031.031.032.031.031.031.031.031.032.031.031.031.032.031.031.031.032.031.031.031.032.031.031.032.032.032.032.032.031.032.032.032.032.032.032.032.032.032.032.032.032.032.032.032.032.032.032.032.032.032.033.032.032.032.032.032.033.032.032.032.032.033.033.033.032.033.033.033.033.033.032.033.033.033.033.033.033.033.032.033.033.033.033.033 1.447-1.446-.033-.033-.033-.033-.033-.033-.033-.033-.032-.033-.033-.033-.033-.033-.032-.033-.033-.033-.033-.033-.032-.033-.033-.033-.026-.03-.032-.032-.033-.032-.032-.032-.032-.032-.032-.032-.032-.032-.033-.032-.032-.032-.032-.032-.032-.032-.031-.032-.032-.032-.032-.032-.032-.032-.032-.032-.032-.032-.031-.031-.032-.032-.031-.031-.032-.031-.032-.031-.031-.031-.031-.031-.032-.031-.031-.031-.031-.031-.032-.031-.031-.031-.031-.031-.031-.031-.032-.031-.031-.031-.031-.031-.031-.031-.031-.031-.031-.031-.03-.031-.031-.031-.031-.03-.031-.03-.031-.03-.029-.03-.031-.03-.031-.03-.029-.03-.031-.03-.029-.03-.031-.03-.029-.03-.031-.03-.029-.03-.031-.03-.029-.03-.029-.03-.029-.03-.031-.03-.029-.03-.029-.03-.029-.03-.029-.029-.029-.03-.029-.029-.029-.029-.029-.029-.026-.03-.029-.029-.029-.029-.029-.029-.029-.029-.028-.029-.029-.029-.029-.029-.028-.029-.029-.029-.029-.029-.028-.029-.029-.029-.028-.029-.029-.029-.028-.029-.029-.029-.028-.029-.028-.029-.036-.031-.028-.029-.028-.029-.029-.029-.028-.028-.028-.028-.028-.028-.028-.028-.028-.028-.029-.028-.028-.028-.028-.028-.028-.028-.028-.028-.028-.028-.028-.028-.027-.028-.028-.028-.028-.028-.028-.028-.028-.028-.028-.028-.027-.028-.028-.028-.028-.028-.027-.028-.028-.028-.028-.028-.027-.028-.028-.028-.027-.028-.028-.028-.028-.028-.027-.028-.027-.028-.028-.027-.027-.027-.028-.027-.027-.027-.027-.027-.028-.027-.027-.027-.027-.027-.028-.027-.027-.027-.027-.027-.027-.027-.028-.027-.027-.027-.027-.027-.027-.027-.027-.027-.038-.029-.027-.027-.027-.027-.027-.027-.027-.027-.027-.027-.027-.027-.027-.027-.027-.027-.027-.027-.027-.027-.027-.027-.027-.027-.027-.027-.026-.027-.027-.027-.027-.027-.027-.027-.027-.027-.026-.027-.027-.027-.027-.027-.027-.027-.026-.027-.027-.027-.027-.027-.026-.027-.027-.027-.026-.027-.027-.027-.027-.027-.026-.027-.027-.026-.026-.027-.027-.026-.026-.026-.027-.026-.026-.026-.027-.026-.026-.026-.027-.026-.026-.026-.027-.026-.026-.026-.026-.026-.027-.026-.026-.026-.027-.026-.026-.026-.026-.026-.027-.026-.026-.026-.026-.026-.027-.026-.026-.026-.026-.026-.027-.026-.026-.026-.026-.026-.026-.026-.027-.026-.026-.026-.026-.026-.026-.026-.026-.026-.027-.026-.026-.026-.026-.026-.026-.026-.026-.026-.027-.026-.026-.026-.026-.026-.026-.026-.026-.026-.026-.026-.011-.025-.026-.026-.026-.026-.026-.026.026-.026.026-.026.026-.026.027-.026.026-.026.026-.026.026-.026.026-.026.026-.026.027-.026.026-.026.026-.026.026-.026.026-.026.027-.026.026-.026.026-.026.026-.026.026-.026.027-.026.026-.026.026-.026.026-.026.027-.026.026-.026.026-.026.027-.026.026-.026.026-.026.027-.026.026-.026.026-.026.027-.026.026-.026.027-.026.026-.026.026-.026.027-.026.026-.026.027-.026.026-.026.027-.026.026-.026.027-.026.026-.027.027-.026.026-.026.027-.027.026-.027.027-.027.027-.027.026-.027.027-.027.026-.027.027-.027.027-.027.026-.027.027-.027.027-.027.027-.027.026-.027.027-.027.027-.027.027-.027.027-.027.026-.027.027-.027.027-.027.027-.027.027-.027.027-.027.027-.027.027-.027.027-.027.027-.027.027-.027.027-.027.027-.027.027-.027.027-.027.027-.027.027-.027.027-.027.027-.027.028-.027.027-.027.027-.027.027-.027.028-.027.027-.027.027-.027.028-.027.027-.027.027-.027.028-.027.027-.027.028-.027.027-.028.027-.028.028-.028.028-.028.027-.028.028-.028.027-.028.028-.028.028-.028.027-.028.028-.028.028-.028.027-.028.028-.028.028-.028.028-.028.028-.028.028-.028.027-.028.028-.028.028-.028.028-.028.028-.028.028-.028.028-.028.029-.028.028-.028.028-.028.028-.028.028-.028.028-.028.029-.029.028-.029.028-.029.029-.029.028-.029.028-.029.029-.029.028-.029.029-.029.028-.029.029-.029.028-.029.029-.029.029-.029.028-.029.029-.029.029-.029.028-.029.029-.029.029-.029.029-.029.031-.032.029-.029.029-.029.029-.029.029-.029.029-.029.029-.03.029-.03.029-.03.029-.03.031-.03.029-.03.029-.03.029-.03.031-.03.029-.03.031-.03.029-.03.031-.03.029-.03.031-.03.029-.03.031-.03.031-.03.029-.03.031-.03.031-.03.031-.03.031-.031.03-.031.031-.031.031-.031.031-.031.031-.031.031-.031.032-.031.031-.031.031-.031.031-.031.032-.031.031-.031.031-.031.032-.031.031-.031.031-.031.032-.031.032-.031.031-.031.032-.031.031-.032.032-.032.032-.032.032-.032.032-.032.032-.032.031-.032.032-.032.032-.032.032-.032.033-.032.032-.032.032-.032.032-.032.032-.032.033-.032.029-.032.032-.032.033-.033.032-.033.033-.033.033-.033.032-.033.033-.033.033-.033.032-.033.033-.033.033-.033.033-.033.033-.033z" transform="translate(-342.518 -17.518)"/></svg>