<svg width="32" height="32" viewBox="0 0 32 32" fill="none" xmlns="http://www.w3.org/2000/svg">
<path fill-rule="evenodd" clip-rule="evenodd" d="M21.3033 9.51814L21.2764 9.54509L21.2495 9.57199L21.2226 9.59884L21.1958 9.62565L21.169 9.65241L21.1423 9.67912L21.1157 9.70579L21.089 9.73242L21.0624 9.759L21.0359 9.78553L21.0094 9.81202L20.983 9.83847L20.9566 9.86487L20.9302 9.89123L20.9039 9.91755L20.8776 9.94382L20.8514 9.97005L20.8252 9.99623L20.7991 10.0224L20.773 10.0485L20.7469 10.0745L20.7209 10.1005L20.6949 10.1265L20.669 10.1524L20.6431 10.1783L20.6173 10.2042L20.5915 10.23L20.5657 10.2557L20.54 10.2815L20.5143 10.3071L20.4887 10.3328L20.4631 10.3584L20.4375 10.3839L20.412 10.4095L20.3865 10.4349L20.3611 10.4604L20.3357 10.4858L20.3103 10.5111L20.285 10.5365L20.2597 10.5617L20.2345 10.587L20.2093 10.6122L20.1841 10.6373L20.159 10.6625L20.1339 10.6875L20.1088 10.7126L20.0838 10.7376L20.0589 10.7626L20.0339 10.7875L20.009 10.8124L19.9842 10.8373L19.9593 10.8621L19.9346 10.8869L19.9098 10.9116L19.8851 10.9363L19.8604 10.961L19.8358 10.9857L19.8112 11.0103L19.7866 11.0348L19.7621 11.0594L19.7376 11.0839L19.7131 11.1083L19.6887 11.1328L19.6643 11.1572L19.6399 11.1815L19.6156 11.2058L19.5913 11.2301L19.5671 11.2544L19.5428 11.2786L19.5187 11.3028L19.4945 11.3269L19.4704 11.3511L19.4463 11.3751L19.4222 11.3992L19.3982 11.4232L19.3742 11.4472L19.3503 11.4712L19.3264 11.4951L19.3025 11.519L19.2786 11.5428L19.2548 11.5667L19.231 11.5905L19.2072 11.6142L19.1835 11.638L19.1598 11.6617L19.1361 11.6853L19.1125 11.709L19.0889 11.7326L19.0653 11.7562L19.0417 11.7797L19.0182 11.8032L18.9947 11.8267L18.9713 11.8502L18.9478 11.8736L18.9244 11.897L18.9011 11.9204L18.8777 11.9437L18.8544 11.967L18.8311 11.9903L18.8079 12.0136L18.7846 12.0368L18.7614 12.06L18.7383 12.0832L18.7151 12.1063L18.692 12.1294L18.6689 12.1525L18.6458 12.1756L18.6228 12.1986L18.5998 12.2216L18.5768 12.2446L18.5539 12.2676L18.5309 12.2905L18.508 12.3134L18.4851 12.3363L18.4623 12.3592L18.4395 12.382L18.4167 12.4048L18.3939 12.4276L18.3711 12.4503L18.3484 12.473L18.3257 12.4957L18.303 12.5184L18.2804 12.5411L18.2577 12.5637L18.2351 12.5863L18.2126 12.6089L18.19 12.6315L18.1675 12.654L18.1449 12.6765L18.1225 12.699L18.1 12.7215L18.0775 12.7439L18.0551 12.7663L18.0327 12.7887L18.0103 12.8111L17.988 12.8335L17.9657 12.8558L17.9433 12.8781L17.9211 12.9004L17.8988 12.9227L17.8765 12.9449L17.8543 12.9671L17.8321 12.9893L17.8099 13.0115L17.7877 13.0337L17.7656 13.0558L17.7435 13.078L17.7214 13.1001L17.6993 13.1222L17.6772 13.1442L17.6552 13.1663L17.6331 13.1883L17.6111 13.2103L17.5891 13.2323L17.5671 13.2543L17.5452 13.2763L17.5233 13.2982L17.5013 13.3201L17.4794 13.342L17.4575 13.3639L17.4357 13.3858L17.4138 13.4076L17.392 13.4295L17.3702 13.4513L17.3484 13.4731L17.3266 13.4949L17.3048 13.5166L17.2831 13.5384L17.2613 13.5601L17.2396 13.5818L17.2179 13.6035L17.1962 13.6252L17.1746 13.6469L17.1529 13.6685L17.1313 13.6902L17.1096 13.7118L17.088 13.7334L17.0664 13.755L17.0448 13.7766L17.0233 13.7982L17.0017 13.8198L16.9801 13.8413L16.9586 13.8628L16.9371 13.8843L16.9156 13.9059L16.8941 13.9273L16.8726 13.9488L16.8512 13.9703L16.8297 13.9917L16.8083 14.0132L16.7868 14.0346L16.7654 14.056L16.744 14.0774L16.7226 14.0988L16.7012 14.1202L16.6798 14.1416L16.6585 14.163L16.6371 14.1843L16.6158 14.2057L16.5945 14.227L16.5731 14.2483L16.5518 14.2696L16.5305 14.2909L16.5092 14.3122L16.4879 14.3335L16.4667 14.3548L16.4454 14.376L16.4241 14.3973L16.4029 14.4185L16.3817 14.4398L16.3604 14.461L16.3392 14.4822L16.318 14.5034L16.2968 14.5247L16.2756 14.5459L16.2544 14.567L16.2332 14.5882L16.212 14.6094L16.1909 14.6306L16.1697 14.6517L16.1485 14.6729L16.1274 14.694L16.1063 14.7152L16.0851 14.7363L16.064 14.7575L16.0429 14.7786L16.0217 14.7997L16.0006 14.8208L16 14.8214L15.9994 14.8208L15.9783 14.7997L15.9571 14.7786L15.936 14.7575L15.9149 14.7363L15.8937 14.7152L15.8726 14.694L15.8515 14.6729L15.8303 14.6517L15.8091 14.6306L15.788 14.6094L15.7668 14.5882L15.7456 14.567L15.7244 14.5459L15.7032 14.5247L15.682 14.5034L15.6608 14.4822L15.6396 14.461L15.6183 14.4398L15.5971 14.4185L15.5759 14.3973L15.5546 14.376L15.5333 14.3548L15.5121 14.3335L15.4908 14.3122L15.4695 14.2909L15.4482 14.2696L15.4269 14.2483L15.4055 14.227L15.3842 14.2057L15.3629 14.1843L15.3415 14.163L15.3202 14.1416L15.2988 14.1202L15.2774 14.0988L15.256 14.0774L15.2346 14.056L15.2132 14.0346L15.1917 14.0132L15.1703 13.9917L15.1488 13.9703L15.1274 13.9488L15.1059 13.9273L15.0844 13.9059L15.0629 13.8843L15.0414 13.8628L15.0199 13.8413L14.9983 13.8198L14.9767 13.7982L14.9552 13.7766L14.9336 13.755L14.912 13.7334L14.8904 13.7118L14.8687 13.6902L14.8471 13.6685L14.8254 13.6469L14.8038 13.6252L14.7821 13.6035L14.7604 13.5818L14.7387 13.5601L14.7169 13.5384L14.6952 13.5166L14.6734 13.4949L14.6516 13.4731L14.6298 13.4513L14.608 13.4294L14.5862 13.4076L14.5643 13.3858L14.5425 13.3639L14.5206 13.342L14.4987 13.3201L14.4767 13.2982L14.4548 13.2763L14.4329 13.2543L14.4109 13.2323L14.3889 13.2103L14.3669 13.1883L14.3448 13.1663L14.3228 13.1442L14.3007 13.1222L14.2786 13.1001L14.2565 13.078L14.2344 13.0558L14.2123 13.0337L14.1901 13.0115L14.1679 12.9893L14.1457 12.9671L14.1235 12.9449L14.1012 12.9227L14.0789 12.9004L14.0567 12.8781L14.0343 12.8558L14.012 12.8335L13.9897 12.8111L13.9673 12.7887L13.9449 12.7663L13.9225 12.7439L13.9 12.7215L13.8775 12.699L13.8551 12.6765L13.8325 12.654L13.81 12.6315L13.7874 12.6089L13.7649 12.5863L13.7423 12.5637L13.7196 12.5411L13.697 12.5184L13.6743 12.4957L13.6516 12.473L13.6289 12.4503L13.6061 12.4276L13.5833 12.4048L13.5605 12.382L13.5377 12.3592L13.5149 12.3363L13.492 12.3134L13.4691 12.2905L13.4461 12.2676L13.4232 12.2446L13.4002 12.2216L13.3772 12.1986L13.3542 12.1756L13.3311 12.1525L13.308 12.1294L13.2849 12.1063L13.2617 12.0832L13.2386 12.06L13.2154 12.0368L13.1921 12.0136L13.1689 11.9903L13.1456 11.967L13.1223 11.9437L13.0989 11.9204L13.0756 11.897L13.0522 11.8736L13.0287 11.8502L13.0053 11.8267L12.9818 11.8032L12.9583 11.7797L12.9347 11.7562L12.9111 11.7326L12.8875 11.709L12.8639 11.6853L12.8402 11.6617L12.8165 11.638L12.7928 11.6142L12.769 11.5905L12.7452 11.5667L12.7214 11.5428L12.6975 11.519L12.6736 11.4951L12.6497 11.4712L12.6258 11.4472L12.6018 11.4232L12.5778 11.3992L12.5537 11.3751L12.5296 11.3511L12.5055 11.3269L12.4813 11.3028L12.4572 11.2786L12.4329 11.2544L12.4087 11.2301L12.3844 11.2058L12.3601 11.1815L12.3357 11.1572L12.3113 11.1328L12.2869 11.1083L12.2624 11.0839L12.2379 11.0594L12.2134 11.0348L12.1888 11.0103L12.1642 10.9857L12.1396 10.961L12.1149 10.9363L12.0902 10.9116L12.0654 10.8869L12.0407 10.8621L12.0158 10.8373L11.991 10.8124L11.9661 10.7875L11.9411 10.7626L11.9162 10.7376L11.8912 10.7126L11.8661 10.6875L11.841 10.6625L11.8159 10.6373L11.7907 10.6122L11.7655 10.587L11.7403 10.5617L11.715 10.5364L11.6897 10.5111L11.6643 10.4858L11.6389 10.4604L11.6135 10.4349L11.588 10.4095L11.5625 10.3839L11.5369 10.3584L11.5113 10.3328L11.4857 10.3071L11.46 10.2815L11.4343 10.2557L11.4085 10.23L11.3827 10.2042L11.3569 10.1783L11.331 10.1524L11.3051 10.1265L11.2791 10.1005L11.2531 10.0745L11.227 10.0485L11.2009 10.0224L11.1748 9.99623L11.1486 9.97004L11.1224 9.94382L11.0961 9.91755L11.0698 9.89123L11.0434 9.86487L11.017 9.83847L10.9906 9.81202L10.9641 9.78553L10.9376 9.759L10.911 9.73241L10.8843 9.70579L10.8577 9.67912L10.831 9.6524L10.8042 9.62564L10.7774 9.59884L10.7505 9.57199L10.7236 9.54509L10.6967 9.51814L9.51819 10.6967L9.54513 10.7236L9.57203 10.7505L9.59888 10.7773L9.62569 10.8042L9.65245 10.8309L9.67917 10.8576L9.70583 10.8843L9.73246 10.9109L9.75904 10.9375L9.78558 10.964L9.81207 10.9905L9.83851 11.017L9.86492 11.0434L9.89128 11.0697L9.91759 11.0961L9.94386 11.1223L9.97009 11.1486L9.99627 11.1747L10.0224 11.2009L10.0485 11.227L10.0746 11.253L10.1006 11.2791L10.1266 11.305L10.1525 11.331L10.1784 11.3568L10.2042 11.3827L10.23 11.4085L10.2558 11.4343L10.2815 11.46L10.3072 11.4857L10.3328 11.5113L10.3584 11.5369L10.384 11.5625L10.4095 11.588L10.435 11.6134L10.4604 11.6389L10.4858 11.6643L10.5112 11.6896L10.5365 11.715L10.5618 11.7402L10.587 11.7655L10.6122 11.7907L10.6374 11.8158L10.6625 11.841L10.6876 11.8661L10.7126 11.8911L10.7377 11.9161L10.7626 11.9411L10.7876 11.966L10.8125 11.9909L10.8373 12.0158L10.8621 12.0406L10.8869 12.0654L10.9117 12.0901L10.9364 12.1149L10.9611 12.1395L10.9857 12.1642L11.0103 12.1888L11.0349 12.2133L11.0594 12.2379L11.0839 12.2624L11.1084 12.2868L11.1328 12.3113L11.1572 12.3357L11.1816 12.36L11.2059 12.3843L11.2302 12.4086L11.2544 12.4329L11.2786 12.4571L11.3028 12.4813L11.327 12.5054L11.3511 12.5296L11.3752 12.5537L11.3992 12.5777L11.4233 12.6017L11.4473 12.6257L11.4712 12.6497L11.4951 12.6736L11.519 12.6975L11.5429 12.7213L11.5667 12.7452L11.5905 12.769L11.6143 12.7927L11.638 12.8165L11.6617 12.8402L11.6854 12.8638L11.709 12.8875L11.7326 12.9111L11.7562 12.9347L11.7798 12.9582L11.8033 12.9817L11.8268 13.0052L11.8502 13.0287L11.8736 13.0521L11.8971 13.0755L11.9204 13.0989L11.9438 13.1222L11.9671 13.1455L11.9904 13.1688L12.0136 13.1921L12.0369 13.2153L12.0601 13.2385L12.0832 13.2617L12.1064 13.2848L12.1295 13.308L12.1526 13.331L12.1756 13.3541L12.1987 13.3771L12.2217 13.4002L12.2447 13.4231L12.2676 13.4461L12.2906 13.469L12.3135 13.4919L12.3363 13.5148L12.3592 13.5377L12.382 13.5605L12.4048 13.5833L12.4276 13.6061L12.4504 13.6288L12.4731 13.6515L12.4958 13.6743L12.5185 13.6969L12.5411 13.7196L12.5637 13.7422L12.5864 13.7648L12.6089 13.7874L12.6315 13.81L12.654 13.8325L12.6765 13.855L12.699 13.8775L12.7215 13.9L12.7439 13.9224L12.7664 13.9448L12.7888 13.9672L12.8111 13.9896L12.8335 14.012L12.8558 14.0343L12.8781 14.0566L12.9004 14.0789L12.9227 14.1012L12.945 14.1234L12.9672 14.1457L12.9894 14.1679L13.0116 14.19L13.0337 14.2122L13.0559 14.2344L13.078 14.2565L13.1001 14.2786L13.1222 14.3007L13.1443 14.3228L13.1663 14.3448L13.1884 14.3668L13.2104 14.3888L13.2324 14.4108L13.2543 14.4328L13.2763 14.4548L13.2982 14.4767L13.3202 14.4986L13.3421 14.5205L13.3639 14.5424L13.3858 14.5643L13.4077 14.5861L13.4295 14.608L13.4513 14.6298L13.4731 14.6516L13.4949 14.6734L13.5167 14.6951L13.5384 14.7169L13.5601 14.7386L13.5819 14.7603L13.6036 14.782L13.6253 14.8037L13.6469 14.8254L13.6686 14.8471L13.6902 14.8687L13.7119 14.8903L13.7335 14.9119L13.7551 14.9335L13.7767 14.9551L13.7982 14.9767L13.8198 14.9983L13.8413 15.0198L13.8629 15.0413L13.8844 15.0629L13.9059 15.0844L13.9274 15.1059L13.9489 15.1273L13.9703 15.1488L13.9918 15.1703L14.0132 15.1917L14.0347 15.2131L14.0561 15.2346L14.0775 15.256L14.0989 15.2774L14.1203 15.2987L14.1416 15.3201L14.163 15.3415L14.1844 15.3628L14.2057 15.3842L14.227 15.4055L14.2484 15.4268L14.2697 15.4481L14.291 15.4694L14.3123 15.4907L14.3335 15.512L14.3548 15.5333L14.3761 15.5546L14.3973 15.5758L14.4186 15.5971L14.4398 15.6183L14.4611 15.6395L14.4823 15.6607L14.5035 15.682L14.5247 15.7032L14.5459 15.7244L14.5671 15.7456L14.5883 15.7667L14.6095 15.7879L14.6306 15.8091L14.6518 15.8303L14.6729 15.8514L14.6941 15.8726L14.7152 15.8937L14.7364 15.9148L14.7575 15.936L14.7786 15.9571L14.7998 15.9782L14.8209 15.9993L14.8215 16L14.8209 16.0006L14.7998 16.0217L14.7786 16.0428L14.7575 16.0639L14.7364 16.0851L14.7152 16.1062L14.6941 16.1274L14.6729 16.1485L14.6518 16.1697L14.6306 16.1908L14.6094 16.212L14.5883 16.2332L14.5671 16.2544L14.5459 16.2755L14.5247 16.2967L14.5035 16.318L14.4823 16.3392L14.4611 16.3604L14.4398 16.3816L14.4186 16.4029L14.3973 16.4241L14.3761 16.4454L14.3548 16.4666L14.3335 16.4879L14.3123 16.5092L14.291 16.5305L14.2697 16.5518L14.2484 16.5731L14.227 16.5944L14.2057 16.6157L14.1844 16.6371L14.163 16.6584L14.1416 16.6798L14.1203 16.7012L14.0989 16.7226L14.0775 16.744L14.0561 16.7654L14.0347 16.7868L14.0132 16.8082L13.9918 16.8297L13.9703 16.8511L13.9489 16.8726L13.9274 16.8941L13.9059 16.9156L13.8844 16.9371L13.8629 16.9586L13.8413 16.9801L13.8198 17.0017L13.7982 17.0232L13.7767 17.0448L13.7551 17.0664L13.7335 17.088L13.7119 17.1096L13.6902 17.1312L13.6686 17.1529L13.6469 17.1745L13.6253 17.1962L13.6036 17.2179L13.5819 17.2396L13.5601 17.2613L13.5384 17.283L13.5167 17.3048L13.4949 17.3266L13.4731 17.3483L13.4513 17.3701L13.4295 17.392L13.4077 17.4138L13.3858 17.4356L13.3639 17.4575L13.3421 17.4794L13.3202 17.5013L13.2982 17.5232L13.2763 17.5452L13.2543 17.5671L13.2324 17.5891L13.2104 17.6111L13.1884 17.6331L13.1663 17.6551L13.1443 17.6772L13.1222 17.6992L13.1001 17.7213L13.078 17.7434L13.0559 17.7656L13.0337 17.7877L13.0116 17.8099L12.9894 17.8321L12.9672 17.8543L12.945 17.8765L12.9227 17.8987L12.9004 17.921L12.8781 17.9433L12.8558 17.9656L12.8335 17.9879L12.8111 18.0103L12.7888 18.0327L12.7664 18.0551L12.7439 18.0775L12.7215 18.0999L12.699 18.1224L12.6765 18.1449L12.654 18.1674L12.6315 18.19L12.6089 18.2125L12.5864 18.2351L12.5637 18.2577L12.5411 18.2803L12.5185 18.303L12.4958 18.3257L12.4731 18.3484L12.4504 18.3711L12.4276 18.3938L12.4048 18.4166L12.382 18.4394L12.3592 18.4623L12.3363 18.4851L12.3135 18.508L12.2906 18.5309L12.2676 18.5538L12.2447 18.5768L12.2217 18.5998L12.1987 18.6228L12.1756 18.6458L12.1526 18.6689L12.1295 18.692L12.1064 18.7151L12.0832 18.7382L12.06 18.7614L12.0368 18.7846L12.0136 18.8078L11.9904 18.8311L11.9671 18.8544L11.9438 18.8777L11.9204 18.901L11.897 18.9244L11.8736 18.9478L11.8502 18.9712L11.8268 18.9947L11.8033 19.0182L11.7798 19.0417L11.7562 19.0652L11.7326 19.0888L11.709 19.1124L11.6854 19.1361L11.6617 19.1597L11.638 19.1834L11.6143 19.2072L11.5905 19.2309L11.5667 19.2547L11.5429 19.2786L11.519 19.3024L11.4951 19.3263L11.4712 19.3502L11.4473 19.3742L11.4233 19.3982L11.3992 19.4222L11.3752 19.4463L11.3511 19.4703L11.327 19.4945L11.3028 19.5186L11.2786 19.5428L11.2544 19.567L11.2302 19.5913L11.2059 19.6156L11.1816 19.6399L11.1572 19.6643L11.1328 19.6886L11.1084 19.7131L11.0839 19.7375L11.0594 19.762L11.0349 19.7866L11.0103 19.8111L10.9857 19.8357L10.9611 19.8604L10.9364 19.8851L10.9117 19.9098L10.8869 19.9345L10.8621 19.9593L10.8373 19.9841L10.8125 20.009L10.7876 20.0339L10.7626 20.0588L10.7376 20.0838L10.7126 20.1088L10.6876 20.1339L10.6625 20.1589L10.6374 20.1841L10.6122 20.2092L10.587 20.2344L10.5618 20.2597L10.5365 20.285L10.5112 20.3103L10.4858 20.3356L10.4604 20.361L10.435 20.3865L10.4095 20.4119L10.384 20.4375L10.3584 20.463L10.3328 20.4886L10.3072 20.5143L10.2815 20.5399L10.2558 20.5657L10.23 20.5914L10.2042 20.6172L10.1784 20.6431L10.1525 20.669L10.1266 20.6949L10.1006 20.7209L10.0746 20.7469L10.0485 20.7729L10.0224 20.799L9.99627 20.8252L9.97009 20.8514L9.94386 20.8776L9.91759 20.9039L9.89127 20.9302L9.86491 20.9565L9.83851 20.9829L9.81207 21.0094L9.78557 21.0359L9.75904 21.0624L9.73246 21.089L9.70583 21.1156L9.67916 21.1423L9.65245 21.169L9.62569 21.1958L9.59888 21.2226L9.57203 21.2494L9.54513 21.2763L9.51819 21.3033L10.6967 22.4818L10.7236 22.4548L10.7505 22.4279L10.7774 22.4011L10.8042 22.3743L10.831 22.3475L10.8577 22.3208L10.8843 22.2941L10.911 22.2675L10.9375 22.2409L10.9641 22.2144L10.9906 22.1879L11.017 22.1614L11.0434 22.135L11.0698 22.1087L11.0961 22.0824L11.1224 22.0561L11.1486 22.0299L11.1748 22.0037L11.2009 21.9775L11.227 21.9514L11.2531 21.9254L11.2791 21.8994L11.3051 21.8734L11.331 21.8475L11.3569 21.8216L11.3827 21.7957L11.4085 21.7699L11.4343 21.7442L11.46 21.7185L11.4857 21.6928L11.5113 21.6671L11.5369 21.6415L11.5625 21.616L11.588 21.5905L11.6135 21.565L11.6389 21.5395L11.6643 21.5141L11.6897 21.4888L11.715 21.4635L11.7403 21.4382L11.7655 21.4129L11.7907 21.3877L11.8159 21.3626L11.841 21.3375L11.8661 21.3124L11.8911 21.2873L11.9162 21.2623L11.9411 21.2373L11.9661 21.2124L11.991 21.1875L12.0158 21.1626L12.0406 21.1378L12.0654 21.113L12.0902 21.0883L12.1149 21.0636L12.1396 21.0389L12.1642 21.0143L12.1888 20.9896L12.2134 20.9651L12.2379 20.9405L12.2624 20.916L12.2869 20.8916L12.3113 20.8672L12.3357 20.8428L12.3601 20.8184L12.3844 20.7941L12.4087 20.7698L12.4329 20.7455L12.4572 20.7213L12.4813 20.6971L12.5055 20.673L12.5296 20.6489L12.5537 20.6248L12.5778 20.6007L12.6018 20.5767L12.6258 20.5527L12.6497 20.5288L12.6736 20.5048L12.6975 20.4809L12.7214 20.4571L12.7452 20.4332L12.769 20.4095L12.7928 20.3857L12.8165 20.362L12.8402 20.3383L12.8639 20.3146L12.8875 20.2909L12.9111 20.2673L12.9347 20.2438L12.9583 20.2202L12.9818 20.1967L13.0053 20.1732L13.0287 20.1497L13.0522 20.1263L13.0756 20.1029L13.0989 20.0795L13.1223 20.0562L13.1456 20.0329L13.1689 20.0096L13.1921 19.9863L13.2154 19.9631L13.2386 19.9399L13.2617 19.9167L13.2849 19.8936L13.308 19.8705L13.3311 19.8474L13.3542 19.8243L13.3772 19.8013L13.4002 19.7783L13.4232 19.7553L13.4461 19.7323L13.4691 19.7094L13.492 19.6865L13.5149 19.6636L13.5377 19.6408L13.5605 19.6179L13.5833 19.5951L13.6061 19.5724L13.6289 19.5496L13.6516 19.5269L13.6743 19.5042L13.697 19.4815L13.7196 19.4588L13.7423 19.4362L13.7649 19.4136L13.7874 19.391L13.81 19.3685L13.8325 19.3459L13.8551 19.3234L13.8775 19.3009L13.9 19.2785L13.9225 19.256L13.9449 19.2336L13.9673 19.2112L13.9897 19.1888L14.012 19.1665L14.0343 19.1441L14.0567 19.1218L14.0789 19.0995L14.1012 19.0773L14.1235 19.055L14.1457 19.0328L14.1679 19.0106L14.1901 18.9884L14.2123 18.9662L14.2344 18.9441L14.2565 18.9219L14.2786 18.8998L14.3007 18.8777L14.3228 18.8557L14.3448 18.8336L14.3669 18.8116L14.3889 18.7896L14.4109 18.7676L14.4328 18.7456L14.4548 18.7237L14.4767 18.7017L14.4987 18.6798L14.5206 18.6579L14.5425 18.636L14.5643 18.6141L14.5862 18.5923L14.608 18.5705L14.6298 18.5486L14.6516 18.5268L14.6734 18.5051L14.6952 18.4833L14.7169 18.4615L14.7387 18.4398L14.7604 18.4181L14.7821 18.3964L14.8038 18.3747L14.8254 18.353L14.8471 18.3314L14.8687 18.3097L14.8904 18.2881L14.912 18.2665L14.9336 18.2449L14.9552 18.2233L14.9767 18.2017L14.9983 18.1802L15.0198 18.1586L15.0414 18.1371L15.0629 18.1156L15.0844 18.0941L15.1059 18.0726L15.1274 18.0511L15.1488 18.0296L15.1703 18.0082L15.1917 17.9867L15.2132 17.9653L15.2346 17.9439L15.256 17.9225L15.2774 17.9011L15.2988 17.8797L15.3202 17.8583L15.3415 17.8369L15.3629 17.8156L15.3842 17.7943L15.4055 17.7729L15.4269 17.7516L15.4482 17.7303L15.4695 17.709L15.4908 17.6877L15.5121 17.6664L15.5333 17.6451L15.5546 17.6239L15.5758 17.6026L15.5971 17.5814L15.6183 17.5601L15.6396 17.5389L15.6608 17.5177L15.682 17.4965L15.7032 17.4753L15.7244 17.4541L15.7456 17.4329L15.7668 17.4117L15.788 17.3905L15.8091 17.3693L15.8303 17.3482L15.8515 17.327L15.8726 17.3059L15.8937 17.2847L15.9149 17.2636L15.936 17.2425L15.9571 17.2213L15.9783 17.2002L15.9994 17.1791L16 17.1785L16.0006 17.1791L16.0217 17.2002L16.0429 17.2213L16.064 17.2425L16.0851 17.2636L16.1063 17.2847L16.1274 17.3059L16.1485 17.327L16.1697 17.3482L16.1909 17.3693L16.212 17.3905L16.2332 17.4117L16.2544 17.4329L16.2756 17.4541L16.2968 17.4753L16.318 17.4965L16.3392 17.5177L16.3604 17.5389L16.3817 17.5601L16.4029 17.5814L16.4242 17.6026L16.4454 17.6239L16.4667 17.6451L16.4879 17.6664L16.5092 17.6877L16.5305 17.709L16.5518 17.7303L16.5731 17.7516L16.5945 17.7729L16.6158 17.7943L16.6371 17.8156L16.6585 17.8369L16.6798 17.8583L16.7012 17.8797L16.7226 17.9011L16.744 17.9225L16.7654 17.9439L16.7868 17.9653L16.8083 17.9867L16.8297 18.0082L16.8512 18.0296L16.8726 18.0511L16.8941 18.0726L16.9156 18.0941L16.9371 18.1156L16.9586 18.1371L16.9802 18.1586L17.0017 18.1802L17.0233 18.2017L17.0448 18.2233L17.0664 18.2449L17.088 18.2665L17.1096 18.2881L17.1313 18.3097L17.1529 18.3314L17.1746 18.353L17.1962 18.3747L17.2179 18.3964L17.2396 18.4181L17.2613 18.4398L17.2831 18.4615L17.3048 18.4833L17.3266 18.5051L17.3484 18.5268L17.3702 18.5486L17.392 18.5705L17.4138 18.5923L17.4357 18.6141L17.4575 18.636L17.4794 18.6579L17.5013 18.6798L17.5233 18.7017L17.5452 18.7237L17.5671 18.7456L17.5891 18.7676L17.6111 18.7896L17.6331 18.8116L17.6552 18.8336L17.6772 18.8557L17.6993 18.8777L17.7214 18.8998L17.7435 18.9219L17.7656 18.9441L17.7877 18.9662L17.8099 18.9884L17.8321 19.0106L17.8543 19.0328L17.8765 19.055L17.8988 19.0773L17.9211 19.0995L17.9433 19.1218L17.9657 19.1441L17.988 19.1665L18.0103 19.1888L18.0327 19.2112L18.0551 19.2336L18.0775 19.256L18.1 19.2785L18.1225 19.3009L18.1449 19.3234L18.1675 19.3459L18.19 19.3685L18.2126 19.391L18.2351 19.4136L18.2577 19.4362L18.2804 19.4588L18.303 19.4815L18.3257 19.5042L18.3484 19.5269L18.3711 19.5496L18.3939 19.5724L18.4167 19.5951L18.4395 19.6179L18.4623 19.6408L18.4851 19.6636L18.508 19.6865L18.5309 19.7094L18.5539 19.7323L18.5768 19.7553L18.5998 19.7783L18.6228 19.8013L18.6458 19.8243L18.6689 19.8474L18.692 19.8705L18.7151 19.8936L18.7383 19.9167L18.7614 19.9399L18.7846 19.9631L18.8079 19.9863L18.8311 20.0096L18.8544 20.0329L18.8777 20.0562L18.9011 20.0795L18.9244 20.1029L18.9478 20.1263L18.9713 20.1497L18.9947 20.1732L19.0182 20.1967L19.0417 20.2202L19.0653 20.2438L19.0889 20.2673L19.1125 20.2909L19.1361 20.3146L19.1598 20.3383L19.1835 20.362L19.2072 20.3857L19.231 20.4095L19.2548 20.4333L19.2786 20.4571L19.3025 20.4809L19.3264 20.5048L19.3503 20.5288L19.3742 20.5527L19.3982 20.5767L19.4222 20.6007L19.4463 20.6248L19.4704 20.6489L19.4945 20.673L19.5187 20.6971L19.5428 20.7213L19.5671 20.7455L19.5913 20.7698L19.6156 20.7941L19.6399 20.8184L19.6643 20.8428L19.6887 20.8672L19.7131 20.8916L19.7376 20.916L19.7621 20.9405L19.7866 20.9651L19.8112 20.9896L19.8358 21.0143L19.8604 21.0389L19.8851 21.0636L19.9098 21.0883L19.9346 21.113L19.9594 21.1378L19.9842 21.1626L20.009 21.1875L20.0339 21.2124L20.0589 21.2373L20.0838 21.2623L20.1089 21.2873L20.1339 21.3124L20.159 21.3375L20.1841 21.3626L20.2093 21.3877L20.2345 21.4129L20.2597 21.4382L20.285 21.4635L20.3103 21.4888L20.3357 21.5141L20.3611 21.5395L20.3865 21.565L20.412 21.5905L20.4375 21.616L20.4631 21.6415L20.4887 21.6671L20.5143 21.6928L20.54 21.7185L20.5657 21.7442L20.5915 21.7699L20.6173 21.7957L20.6431 21.8216L20.669 21.8475L20.6949 21.8734L20.7209 21.8994L20.7469 21.9254L20.773 21.9514L20.7991 21.9775L20.8252 22.0037L20.8514 22.0299L20.8776 22.0561L20.9039 22.0824L20.9302 22.1087L20.9566 22.135L20.983 22.1614L21.0094 22.1879L21.0359 22.2144L21.0625 22.2409L21.089 22.2675L21.1157 22.2941L21.1423 22.3208L21.169 22.3475L21.1958 22.3743L21.2226 22.4011L21.2495 22.4279L21.2764 22.4548L21.3033 22.4818L22.4818 21.3033L22.4549 21.2763L22.428 21.2494L22.4011 21.2226L22.3743 21.1958L22.3476 21.169L22.3208 21.1423L22.2942 21.1156L22.2675 21.089L22.241 21.0624L22.2144 21.0359L22.1879 21.0094L22.1615 20.9829L22.1351 20.9565L22.1087 20.9302L22.0824 20.9039L22.0561 20.8776L22.0299 20.8514L22.0037 20.8252L21.9776 20.799L21.9515 20.7729L21.9254 20.7469L21.8994 20.7209L21.8734 20.6949L21.8475 20.669L21.8216 20.6431L21.7958 20.6172L21.77 20.5914L21.7442 20.5657L21.7185 20.5399L21.6928 20.5143L21.6672 20.4886L21.6416 20.463L21.616 20.4375L21.5905 20.4119L21.565 20.3865L21.5396 20.361L21.5142 20.3356L21.4888 20.3103L21.4635 20.285L21.4382 20.2597L21.413 20.2344L21.3878 20.2092L21.3626 20.1841L21.3375 20.1589L21.3124 20.1339L21.2874 20.1088L21.2624 20.0838L21.2374 20.0588L21.2124 20.0339L21.1875 20.009L21.1627 19.9841L21.1379 19.9593L21.1131 19.9345L21.0883 19.9098L21.0636 19.8851L21.0389 19.8604L21.0143 19.8357L20.9897 19.8111L20.9651 19.7866L20.9406 19.762L20.9161 19.7375L20.8916 19.7131L20.8672 19.6886L20.8428 19.6643L20.8184 19.6399L20.7941 19.6156L20.7698 19.5913L20.7456 19.567L20.7214 19.5428L20.6972 19.5186L20.673 19.4945L20.6489 19.4703L20.6248 19.4463L20.6008 19.4222L20.5767 19.3982L20.5527 19.3742L20.5288 19.3502L20.5049 19.3263L20.481 19.3024L20.4571 19.2786L20.4333 19.2547L20.4095 19.2309L20.3857 19.2072L20.362 19.1834L20.3383 19.1597L20.3146 19.1361L20.291 19.1124L20.2674 19.0888L20.2438 19.0652L20.2202 19.0417L20.1967 19.0182L20.1732 18.9947L20.1498 18.9712L20.1264 18.9478L20.103 18.9244L20.0796 18.901L20.0562 18.8777L20.0329 18.8544L20.0096 18.8311L19.9864 18.8078L19.9632 18.7846L19.94 18.7614L19.9168 18.7382L19.8936 18.7151L19.8705 18.692L19.8474 18.6689L19.8244 18.6458L19.8013 18.6228L19.7783 18.5998L19.7553 18.5768L19.7324 18.5538L19.7094 18.5309L19.6865 18.508L19.6637 18.4851L19.6408 18.4623L19.618 18.4394L19.5952 18.4166L19.5724 18.3938L19.5496 18.3711L19.5269 18.3484L19.5042 18.3257L19.4815 18.303L19.4589 18.2803L19.4363 18.2577L19.4136 18.2351L19.3911 18.2125L19.3685 18.19L19.346 18.1674L19.3235 18.1449L19.301 18.1224L19.2785 18.0999L19.2561 18.0775L19.2336 18.0551L19.2112 18.0327L19.1889 18.0103L19.1665 17.9879L19.1442 17.9656L19.1219 17.9433L19.0996 17.921L19.0773 17.8987L19.055 17.8765L19.0328 17.8543L19.0106 17.8321L18.9884 17.8099L18.9663 17.7877L18.9441 17.7656L18.922 17.7434L18.8999 17.7213L18.8778 17.6992L18.8557 17.6772L18.8337 17.6551L18.8116 17.6331L18.7896 17.6111L18.7676 17.5891L18.7457 17.5671L18.7237 17.5452L18.7018 17.5232L18.6798 17.5013L18.6579 17.4794L18.6361 17.4575L18.6142 17.4356L18.5923 17.4138L18.5705 17.392L18.5487 17.3701L18.5269 17.3483L18.5051 17.3266L18.4833 17.3048L18.4616 17.283L18.4399 17.2613L18.4181 17.2396L18.3964 17.2179L18.3747 17.1962L18.3531 17.1745L18.3314 17.1529L18.3098 17.1312L18.2881 17.1096L18.2665 17.088L18.2449 17.0664L18.2233 17.0448L18.2018 17.0232L18.1802 17.0017L18.1587 16.9801L18.1371 16.9586L18.1156 16.9371L18.0941 16.9156L18.0726 16.8941L18.0511 16.8726L18.0297 16.8511L18.0082 16.8297L17.9868 16.8082L17.9653 16.7868L17.9439 16.7654L17.9225 16.744L17.9011 16.7226L17.8797 16.7012L17.8584 16.6798L17.837 16.6584L17.8156 16.6371L17.7943 16.6157L17.773 16.5944L17.7516 16.5731L17.7303 16.5518L17.709 16.5305L17.6877 16.5092L17.6665 16.4879L17.6452 16.4666L17.6239 16.4454L17.6027 16.4241L17.5814 16.4029L17.5602 16.3816L17.5389 16.3604L17.5177 16.3392L17.4965 16.318L17.4753 16.2967L17.4541 16.2755L17.4329 16.2544L17.4117 16.2332L17.3906 16.212L17.3694 16.1908L17.3482 16.1697L17.3271 16.1485L17.3059 16.1274L17.2848 16.1062L17.2636 16.0851L17.2425 16.0639L17.2214 16.0428L17.2002 16.0217L17.1791 16.0006L17.1785 16L17.1791 15.9993L17.2002 15.9782L17.2214 15.9571L17.2425 15.936L17.2636 15.9148L17.2848 15.8937L17.3059 15.8726L17.3271 15.8514L17.3482 15.8303L17.3694 15.8091L17.3905 15.7879L17.4117 15.7667L17.4329 15.7456L17.4541 15.7244L17.4753 15.7032L17.4965 15.682L17.5177 15.6607L17.5389 15.6395L17.5602 15.6183L17.5814 15.5971L17.6027 15.5758L17.6239 15.5546L17.6452 15.5333L17.6665 15.512L17.6877 15.4907L17.709 15.4694L17.7303 15.4481L17.7516 15.4268L17.773 15.4055L17.7943 15.3842L17.8156 15.3628L17.837 15.3415L17.8584 15.3201L17.8797 15.2987L17.9011 15.2774L17.9225 15.256L17.9439 15.2346L17.9653 15.2131L17.9868 15.1917L18.0082 15.1703L18.0297 15.1488L18.0511 15.1273L18.0726 15.1059L18.0941 15.0844L18.1156 15.0629L18.1371 15.0413L18.1587 15.0198L18.1802 14.9983L18.2018 14.9767L18.2233 14.9551L18.2449 14.9335L18.2665 14.9119L18.2881 14.8903L18.3098 14.8687L18.3314 14.8471L18.3531 14.8254L18.3747 14.8037L18.3964 14.782L18.4181 14.7603L18.4399 14.7386L18.4616 14.7169L18.4833 14.6951L18.5051 14.6734L18.5269 14.6516L18.5487 14.6298L18.5705 14.608L18.5923 14.5861L18.6142 14.5643L18.6361 14.5424L18.6579 14.5205L18.6798 14.4986L18.7018 14.4767L18.7237 14.4548L18.7457 14.4328L18.7676 14.4108L18.7896 14.3888L18.8116 14.3668L18.8337 14.3448L18.8557 14.3228L18.8778 14.3007L18.8999 14.2786L18.922 14.2565L18.9441 14.2344L18.9663 14.2122L18.9884 14.19L19.0106 14.1679L19.0328 14.1457L19.055 14.1234L19.0773 14.1012L19.0996 14.0789L19.1219 14.0566L19.1442 14.0343L19.1665 14.012L19.1889 13.9896L19.2112 13.9672L19.2336 13.9448L19.2561 13.9224L19.2785 13.9L19.301 13.8775L19.3235 13.855L19.346 13.8325L19.3685 13.81L19.3911 13.7874L19.4136 13.7648L19.4363 13.7422L19.4589 13.7196L19.4815 13.6969L19.5042 13.6743L19.5269 13.6515L19.5496 13.6288L19.5724 13.6061L19.5952 13.5833L19.618 13.5605L19.6408 13.5377L19.6637 13.5148L19.6865 13.4919L19.7094 13.469L19.7324 13.4461L19.7553 13.4231L19.7783 13.4002L19.8013 13.3771L19.8244 13.3541L19.8474 13.331L19.8705 13.308L19.8936 13.2848L19.9168 13.2617L19.9399 13.2385L19.9631 13.2153L19.9864 13.1921L20.0096 13.1688L20.0329 13.1455L20.0562 13.1222L20.0796 13.0989L20.1029 13.0755L20.1264 13.0521L20.1498 13.0287L20.1732 13.0052L20.1967 12.9817L20.2202 12.9582L20.2438 12.9347L20.2674 12.9111L20.291 12.8875L20.3146 12.8638L20.3383 12.8402L20.362 12.8165L20.3857 12.7927L20.4095 12.769L20.4333 12.7452L20.4571 12.7213L20.481 12.6975L20.5049 12.6736L20.5288 12.6497L20.5527 12.6257L20.5767 12.6017L20.6008 12.5777L20.6248 12.5537L20.6489 12.5296L20.673 12.5055L20.6972 12.4813L20.7214 12.4571L20.7456 12.4329L20.7698 12.4086L20.7941 12.3843L20.8184 12.36L20.8428 12.3357L20.8672 12.3113L20.8916 12.2868L20.9161 12.2624L20.9406 12.2379L20.9651 12.2133L20.9897 12.1888L21.0143 12.1642L21.0389 12.1395L21.0636 12.1149L21.0883 12.0901L21.1131 12.0654L21.1379 12.0406L21.1627 12.0158L21.1875 11.9909L21.2124 11.966L21.2374 11.9411L21.2623 11.9161L21.2874 11.8911L21.3124 11.8661L21.3375 11.841L21.3626 11.8158L21.3878 11.7907L21.413 11.7655L21.4382 11.7402L21.4635 11.715L21.4888 11.6896L21.5142 11.6643L21.5396 11.6389L21.565 11.6134L21.5905 11.588L21.616 11.5625L21.6416 11.5369L21.6672 11.5113L21.6928 11.4857L21.7185 11.46L21.7442 11.4343L21.77 11.4085L21.7958 11.3827L21.8216 11.3568L21.8475 11.331L21.8734 11.305L21.8994 11.2791L21.9254 11.253L21.9515 11.227L21.9776 11.2009L22.0037 11.1747L22.0299 11.1486L22.0561 11.1223L22.0824 11.0961L22.1087 11.0697L22.1351 11.0434L22.1615 11.017L22.1879 10.9905L22.2144 10.964L22.241 10.9375L22.2675 10.9109L22.2942 10.8843L22.3208 10.8576L22.3476 10.8309L22.3743 10.8042L22.4011 10.7773L22.428 10.7505L22.4549 10.7236L22.4818 10.6967L21.3033 9.51814Z" fill="white"/>
</svg>
