<svg width="21" height="20" viewBox="0 0 21 20" fill="none" xmlns="http://www.w3.org/2000/svg">
<path fill-rule="evenodd" clip-rule="evenodd" d="M13.2699 3.75019C12.2387 3.44009 11.8067 3.39357 10.2854 3.47885L10.2841 3.47893C6.03615 3.71064 3.9434 7.22548 3.9434 9.98047C3.9434 11.4729 4.47148 13.0099 5.53502 14.1658C6.58449 15.3063 8.20325 16.1284 10.5003 16.1284C11.224 16.1284 12.0044 16.0339 12.6901 15.7956C13.3748 15.5576 13.911 15.1963 14.2438 14.6968C14.4809 14.3383 14.5384 13.9433 14.4454 13.6641L14.4449 13.6625C14.4115 13.5617 14.3537 13.4486 14.2531 13.2777C14.2372 13.2507 14.2193 13.2208 14.2 13.1886C14.1143 13.0454 14.0009 12.8558 13.9098 12.6648L13.908 12.6611C13.7022 12.2243 13.5573 11.6624 13.5566 11.1021C13.556 10.5513 13.699 9.86136 14.2365 9.35891L14.2388 9.35675C14.6018 9.01974 15.0086 8.80168 15.3652 8.63742C15.526 8.56339 15.689 8.49489 15.8359 8.4332C15.8514 8.42666 15.8668 8.4202 15.882 8.41382C16.0463 8.34469 16.1911 8.28291 16.3275 8.21749C16.8187 7.98161 17.0572 8.01188 17.0572 7.29185C17.0572 7.01011 17.0133 6.74985 16.9279 6.5025C16.7667 6.03604 17.0117 5.52637 17.475 5.36413C17.9383 5.20188 18.4445 5.44849 18.6057 5.91495C18.7585 6.35721 18.8337 6.81653 18.8337 7.29185C18.8337 8.4981 18.365 9.22081 17.0918 9.83195C16.9118 9.91832 16.7302 9.99531 16.5668 10.064C16.5521 10.0702 16.5374 10.0764 16.523 10.0825C16.3716 10.1461 16.2362 10.203 16.1042 10.2638C15.8159 10.3966 15.6047 10.5214 15.4429 10.6716L14.8408 10.0142L15.4452 10.6695C15.4094 10.703 15.3327 10.817 15.3331 11.1001C15.3334 11.3728 15.4095 11.674 15.5122 11.8929C15.5632 11.9996 15.6207 12.0959 15.7 12.229C15.7248 12.2705 15.7517 12.3157 15.7813 12.3659C15.8918 12.5536 16.033 12.8038 16.1299 13.0962C16.4385 14.0234 16.1835 14.9917 15.7213 15.6897L15.7201 15.6915C15.1074 16.6119 14.1939 17.1649 13.2699 17.4861C12.3465 17.8071 11.3587 17.9169 10.5003 17.9169C7.74588 17.9169 5.64207 16.9138 4.23186 15.3812C2.83572 13.8639 2.16699 11.8798 2.16699 9.98047C2.16699 6.46924 4.81658 1.98643 10.1873 1.69312C11.8746 1.59859 12.5166 1.65709 13.7783 2.03654C14.2483 2.17789 14.5156 2.67608 14.3752 3.1493C14.2348 3.62251 13.7399 3.89154 13.2699 3.75019Z" fill="white"/>
<path d="M11.8293 15.1408C12.4173 15.1408 12.894 14.6609 12.894 14.0689C12.894 13.477 12.4173 12.9971 11.8293 12.9971C11.2413 12.9971 10.7646 13.477 10.7646 14.0689C10.7646 14.6609 11.2413 15.1408 11.8293 15.1408Z" fill="white"/>
<path d="M11.0324 6.30782C11.6204 6.30782 12.0971 5.82792 12.0971 5.23594C12.0971 4.64396 11.6204 4.16406 11.0324 4.16406C10.4444 4.16406 9.96777 4.64396 9.96777 5.23594C9.96777 5.82792 10.4444 6.30782 11.0324 6.30782Z" fill="white"/>
<path d="M7.30977 7.64962C7.89776 7.64962 8.37442 7.16972 8.37442 6.57774C8.37442 5.98576 7.89776 5.50586 7.30977 5.50586C6.72178 5.50586 6.24512 5.98576 6.24512 6.57774C6.24512 7.16972 6.72178 7.64962 7.30977 7.64962Z" fill="white"/>
<path d="M5.71309 11.3938C6.30108 11.3938 6.77774 10.9139 6.77774 10.3219C6.77774 9.7299 6.30108 9.25 5.71309 9.25C5.1251 9.25 4.64844 9.7299 4.64844 10.3219C4.64844 10.9139 5.1251 11.3938 5.71309 11.3938Z" fill="white"/>
<path d="M7.842 14.6086C8.42999 14.6086 8.90665 14.1287 8.90665 13.5367C8.90665 12.9447 8.42999 12.4648 7.842 12.4648C7.25401 12.4648 6.77734 12.9447 6.77734 13.5367C6.77734 14.1287 7.25401 14.6086 7.842 14.6086Z" fill="white"/>
<path d="M12.7858 9.23474L13.8654 8.08041L18.2022 3.32067C18.3362 3.17825 18.4032 2.99836 18.3995 2.81471C18.3995 2.63107 18.325 2.45492 18.1873 2.31251C17.9155 2.03891 17.4688 2.03142 17.1896 2.29751L12.462 6.66748L11.3154 7.7506" fill="white"/>
<path d="M12.232 10.8284C11.0883 11.9367 9.08408 12.2179 7.94043 11.661C9.37283 10.266 8.22917 9.15226 9.37283 8.044C9.84275 7.58636 10.4825 7.40441 11.0883 7.48712C11.5073 7.54777 11.9093 7.72972 12.232 8.044C12.5547 8.35828 12.7415 8.74976 12.8038 9.15226C12.8944 9.74223 12.7019 10.3708 12.232 10.8284Z" fill="white"/>
</svg>
