<svg width="21" height="20" viewBox="0 0 21 20" fill="none" xmlns="http://www.w3.org/2000/svg">
<path d="M19.6667 3.33301C19.6667 4.71372 18.5474 5.83301 17.1667 5.83301C15.786 5.83301 14.6667 4.71372 14.6667 3.33301C14.6667 1.9523 15.786 0.833008 17.1667 0.833008C18.5474 0.833008 19.6667 1.9523 19.6667 3.33301Z" fill="white"/>
<path d="M13.7556 3.67551L11.779 5.045C11.5026 5.23645 11.125 5.03867 11.125 4.7025V4.16634H4.66667V13.333H3V2.49967H11.125V1.96352C11.125 1.62734 11.5026 1.42957 11.779 1.62102L13.7556 2.99051C13.9948 3.15621 13.9948 3.5098 13.7556 3.67551Z" fill="white"/>
<path d="M9.875 15.833L16.3333 15.833L16.3333 6.66634H18L18 17.4997L9.875 17.4997V18.0358C9.875 18.372 9.49738 18.5698 9.22104 18.3783L7.24435 17.0088C7.00518 16.8431 7.00518 16.4895 7.24435 16.3238L9.22104 14.9544C9.49738 14.7629 9.875 14.9607 9.875 15.2969V15.833Z" fill="white"/>
<path d="M1.75 14.583H5.91667V18.7497H1.75V14.583Z" fill="white"/>
</svg>
