<svg width="20" height="20" viewBox="0 0 20 20" fill="none" xmlns="http://www.w3.org/2000/svg">
<g id="Function/shpae">
<g id="Union">
<path d="M8.33203 3.75016H16.2487V11.6668H14.5305C14.5645 11.9398 14.582 12.2179 14.582 12.5002C14.582 12.7824 14.5645 13.0605 14.5305 13.3335H17.9154V2.0835H6.66536V5.95049C7.07026 5.87369 7.48812 5.8335 7.91536 5.8335C8.0553 5.8335 8.19423 5.83781 8.33203 5.84631V3.75016Z" fill="white"/>
<path fill-rule="evenodd" clip-rule="evenodd" d="M2.08203 12.5002C2.08203 15.7218 4.6937 18.3335 7.91536 18.3335C11.137 18.3335 13.7487 15.7218 13.7487 12.5002C13.7487 9.2785 11.137 6.66683 7.91536 6.66683C4.6937 6.66683 2.08203 9.2785 2.08203 12.5002ZM11.9987 13.3335H6.66536V8.52425C4.9749 9.05519 3.7487 10.6345 3.7487 12.5002C3.7487 14.8013 5.61418 16.6668 7.91536 16.6668C9.93116 16.6668 11.6126 15.2354 11.9987 13.3335ZM8.33203 8.35407V11.6668H11.9987C11.6396 9.89764 10.1595 8.53551 8.33203 8.35407Z" fill="white"/>
</g>
</g>
</svg>
