<svg width="20" height="20" viewBox="0 0 20 20" fill="none" xmlns="http://www.w3.org/2000/svg">
<g id="Function/invisible">
<path id="Union" fill-rule="evenodd" clip-rule="evenodd" d="M7.63675 6.22935L4.34062 2.9165L3.16211 4.10099L5.77376 6.72589C5.77371 6.7259 5.77367 6.72592 5.77362 6.72593L7.10731 8.06634C7.10735 8.06633 7.10738 8.06632 7.10742 8.06631L8.06934 9.03311C8.06932 9.03313 8.06931 9.03315 8.06929 9.03317L11.2725 12.2525L11.5881 12.5697L12.338 13.3234L16.0788 17.0832L17.2573 15.8987L15.4012 14.0332C16.1026 13.6865 16.7052 13.2932 17.2096 12.8935C18.7096 11.7049 18.7096 9.55098 17.2096 8.36234C15.6958 7.16275 13.2969 6.02136 10.0013 6.02136C9.1539 6.02136 8.36578 6.09683 7.63675 6.22935ZM9.1277 7.72787L9.55319 8.15552C9.69858 8.12907 9.84834 8.11526 10.0013 8.11526C11.382 8.11526 12.5013 9.24023 12.5013 10.6279C12.5013 10.7817 12.4876 10.9322 12.4613 11.0783L14.1369 12.7624C14.9427 12.4213 15.6042 12.0069 16.1256 11.5937C16.7797 11.0754 16.7797 10.1804 16.1256 9.66216C14.8899 8.68295 12.8671 7.69648 10.0013 7.69648C9.70086 7.69648 9.40968 7.70733 9.1277 7.72787ZM6.03904 8.42213C5.15424 8.77585 4.43527 9.21975 3.87697 9.66216C3.22291 10.1804 3.22291 11.0754 3.87697 11.5937C5.11268 12.5729 7.13549 13.5594 10.0013 13.5594C10.3826 13.5594 10.749 13.5419 11.1006 13.5094L12.5712 14.9874C11.7854 15.1441 10.9289 15.2345 10.0013 15.2345C6.70572 15.2345 4.30681 14.0931 2.79298 12.8935C1.29296 11.7049 1.29296 9.55098 2.79298 8.36234C3.33648 7.93166 3.99408 7.50848 4.76629 7.14293L6.03904 8.42213ZM7.58602 9.97696C7.53076 10.1846 7.5013 10.4028 7.5013 10.6279C7.5013 12.0157 8.62059 13.1406 10.0013 13.1406C10.2253 13.1406 10.4424 13.111 10.649 13.0555L7.58602 9.97696Z" fill="white"/>
</g>
</svg>
