<svg width="21" height="20" viewBox="0 0 21 20" fill="none" xmlns="http://www.w3.org/2000/svg">
<path fill-rule="evenodd" clip-rule="evenodd" d="M7.46219 6.76011L7.88921 6.64365L8.20218 6.33068L12.1378 2.39507L17.2195 7.47677L13.2839 11.4124L12.9709 11.7254L12.8545 12.1524L12.2154 14.4957L5.11884 7.39921L7.46219 6.76011ZM12.1378 0.0380431L10.9593 1.21655L7.02367 5.15217L3.76148 6.04186L1.90954 6.54693L3.26689 7.90428L6.89918 11.5366L1.89928 16.5365L3.07779 17.715L8.0777 12.7151L11.7103 16.3477L13.0676 17.705L13.5727 15.8531L14.4624 12.5909L18.398 8.65529L19.5765 7.47677L18.398 6.29826L13.3163 1.21655L12.1378 0.0380431Z" fill="white"/>
</svg>
