<svg width="20" height="20" viewBox="0 0 20 20" fill="none" xmlns="http://www.w3.org/2000/svg">
<path d="M11.3815 19.1662H8.6136C8.33566 19.171 8.06486 19.078 7.84848 18.9036C7.63209 18.7291 7.48385 18.4843 7.42964 18.2117L7.20041 16.902C7.1603 16.712 7.07756 16.5335 6.95844 16.3801C6.83932 16.2267 6.68692 16.1023 6.51272 16.0163C6.43823 15.9808 6.37175 15.9453 6.27777 15.8914C6.05921 15.7627 5.81052 15.6939 5.55684 15.6921C5.41043 15.6917 5.26504 15.7165 5.12704 15.7654L3.82961 16.2237C3.56672 16.3176 3.2798 16.3197 3.01552 16.2298C2.75124 16.14 2.52515 15.9634 2.37401 15.7287L0.998645 13.4371C0.854325 13.2049 0.801944 12.9272 0.851769 12.6585C0.901594 12.3897 1.05003 12.1492 1.26799 11.9842L2.33734 11.1374C2.4878 11.0176 2.60777 10.8639 2.68745 10.6889C2.76713 10.5138 2.80425 10.3224 2.79579 10.1303V9.86789C2.8052 9.6758 2.76849 9.48425 2.68873 9.30923C2.60898 9.13422 2.48849 8.98083 2.33734 8.86186L1.26799 8.02083C1.04991 7.85464 0.901285 7.61346 0.850891 7.34399C0.800497 7.07452 0.851922 6.79595 0.995207 6.56221L2.37057 4.27059C2.48199 4.09464 2.6362 3.94981 2.81879 3.84962C3.00139 3.74943 3.20642 3.69716 3.41471 3.69768C3.55763 3.69764 3.69951 3.72206 3.8342 3.76987L5.1259 4.22819C5.26382 4.2774 5.40926 4.30222 5.5557 4.30152C5.80942 4.3 6.05819 4.23121 6.27662 4.10215C6.31788 4.08267 6.358 4.05976 6.39123 4.03799L6.41072 4.04142C6.44396 4.02194 6.47719 4.00361 6.51616 3.98528C6.69046 3.89943 6.84294 3.77508 6.96208 3.62163C7.08122 3.46818 7.16389 3.28966 7.20385 3.09956L7.43308 1.79563C7.48594 1.52238 7.63308 1.27635 7.84882 1.10046C8.06457 0.924563 8.33523 0.829959 8.6136 0.833145H11.3815C11.6599 0.828912 11.931 0.922821 12.147 1.0984C12.3631 1.27398 12.5104 1.52001 12.5632 1.79334L12.7924 3.09727C12.8341 3.28668 12.9174 3.46444 13.0364 3.61765C13.1553 3.77085 13.3069 3.89565 13.4801 3.98299C13.542 4.01507 13.6085 4.04944 13.6646 4.08153L13.7162 4.10788C13.9352 4.23569 14.1836 4.30439 14.4371 4.30725C14.581 4.30825 14.7239 4.28342 14.8589 4.23392L16.1586 3.77559C16.2942 3.728 16.4368 3.7036 16.5804 3.70341C16.7888 3.70235 16.994 3.75439 17.1767 3.85463C17.3594 3.95487 17.5135 4.1 17.6246 4.27631L19.0057 6.56794C19.1475 6.80287 19.1971 7.08201 19.145 7.35141C19.093 7.62082 18.9428 7.86136 18.7237 8.02656L17.6566 8.86644C17.5077 8.98736 17.3888 9.14111 17.3093 9.31565C17.2297 9.49019 17.1917 9.68078 17.1982 9.87247V10.1349C17.1916 10.3267 17.2296 10.5175 17.3091 10.6922C17.3887 10.867 17.5076 11.0209 17.6566 11.142L18.7237 11.9888C18.9427 12.1517 19.093 12.3905 19.1452 12.6584C19.1973 12.9263 19.1476 13.204 19.0057 13.4371L17.6246 15.7287C17.5133 15.9048 17.3591 16.0498 17.1765 16.15C16.9939 16.2502 16.7888 16.3024 16.5804 16.3016C16.4368 16.3012 16.2942 16.2768 16.1586 16.2294L14.8589 15.7711C14.7244 15.7224 14.5825 15.6976 14.4394 15.6978C14.1847 15.7002 13.9351 15.7689 13.7151 15.8972L13.6096 15.9556L13.5764 15.9728L13.479 16.0289C13.3066 16.1159 13.1556 16.2399 13.0367 16.392C12.9178 16.5442 12.834 16.7207 12.7913 16.9089L12.5621 18.2128C12.5079 18.4847 12.3601 18.729 12.1444 18.9032C11.9287 19.0774 11.6588 19.1704 11.3815 19.1662ZM9.99814 6.94606C9.39402 6.94606 8.80347 7.12515 8.30117 7.46068C7.79886 7.79622 7.40737 8.27312 7.17618 8.83109C6.945 9.38907 6.88451 10.003 7.00236 10.5954C7.12022 11.1877 7.41113 11.7318 7.83831 12.1589C8.26548 12.5859 8.80973 12.8767 9.40224 12.9946C9.99475 13.1124 10.6089 13.0519 11.167 12.8208C11.7252 12.5897 12.2022 12.1983 12.5378 11.6961C12.8735 11.194 13.0526 10.6036 13.0526 9.99965C13.052 9.18998 12.73 8.41364 12.1573 7.84111C11.5846 7.26858 10.808 6.94667 9.99814 6.94606Z" fill="white"/>
</svg>
