<svg width="20" height="20" viewBox="0 0 20 20" fill="none" xmlns="http://www.w3.org/2000/svg">
<g id="Function/emoticon">
<g id="Union">
<path d="M7.70703 9.5835C8.28233 9.5835 8.7487 9.11713 8.7487 8.54183C8.7487 7.96653 8.28233 7.50016 7.70703 7.50016C7.13173 7.50016 6.66536 7.96653 6.66536 8.54183C6.66536 9.11713 7.13173 9.5835 7.70703 9.5835Z" fill="white"/>
<path d="M13.332 8.54183C13.332 9.11713 12.8657 9.5835 12.2904 9.5835C11.7151 9.5835 11.2487 9.11713 11.2487 8.54183C11.2487 7.96653 11.7151 7.50016 12.2904 7.50016C12.8657 7.50016 13.332 7.96653 13.332 8.54183Z" fill="white"/>
<path d="M7.20417 12.0089C6.93284 11.7113 6.47165 11.69 6.17407 11.9614C5.8765 12.2327 5.85523 12.6939 6.12656 12.9915C7.13524 14.0977 8.5904 14.7935 10.207 14.7935C11.8237 14.7935 13.2788 14.0977 14.2875 12.9915C14.5588 12.6939 14.5376 12.2327 14.24 11.9614C13.9424 11.69 13.4812 11.7113 13.2099 12.0089C12.4659 12.8248 11.3966 13.3351 10.207 13.3351C9.01748 13.3351 7.94815 12.8248 7.20417 12.0089Z" fill="white"/>
<path fill-rule="evenodd" clip-rule="evenodd" d="M17.9154 10.0002C17.9154 14.3724 14.371 17.9168 9.9987 17.9168C5.62644 17.9168 2.08203 14.3724 2.08203 10.0002C2.08203 5.62791 5.62644 2.0835 9.9987 2.0835C14.371 2.0835 17.9154 5.62791 17.9154 10.0002ZM16.2487 10.0002C16.2487 13.4519 13.4505 16.2502 9.9987 16.2502C6.54692 16.2502 3.7487 13.4519 3.7487 10.0002C3.7487 6.54838 6.54692 3.75016 9.9987 3.75016C13.4505 3.75016 16.2487 6.54838 16.2487 10.0002Z" fill="white"/>
</g>
</g>
</svg>
