<svg xmlns="http://www.w3.org/2000/svg" width="15.69" height="17.721" viewBox="0 0 15.69 17.721">
  <g id="패스_5377" data-name="패스 5377" fill="#fff" fill-rule="evenodd">
    <path d="M 14.1210298538208 16.92070579528809 C 14.02813339233398 16.92070579528809 13.93612766265869 16.90312767028809 13.84676265716553 16.86837959289551 L 8.985639572143555 13.36919689178467 L 8.9268798828125 13.32689666748047 L 8.861479759216309 13.29583644866943 C 8.545909881591797 13.14595603942871 8.194439888000488 13.06673622131348 7.845079898834229 13.06673622131348 C 7.495709896087646 13.06673622131348 7.144239902496338 13.14595603942871 6.828670024871826 13.29583644866943 L 6.763279914855957 13.32689666748047 L 6.704519748687744 13.36919689178467 L 1.84343421459198 16.86836051940918 C 1.754063725471497 16.90310287475586 1.662052989006042 16.92067718505859 1.569129943847656 16.92067718505859 C 1.19923985004425 16.92067718505859 0.7999998927116394 16.62591743469238 0.7999998927116394 16.14972686767578 L 0.7999998927116394 2.696746587753296 L 0.7999998927116394 1.569016456604004 C 0.7999998927116394 1.144976496696472 1.144979953765869 0.7999964952468872 1.569019913673401 0.7999964952468872 L 2.451589822769165 0.7999964952468872 L 14.12113952636719 0.7999964952468872 C 14.54518032073975 0.7999964952468872 14.89015960693359 1.144976496696472 14.89015960693359 1.569016456604004 L 14.89015960693359 9.316036224365234 L 14.89015960693359 16.14972686767578 C 14.89015960693359 16.62592697143555 14.4909200668335 16.92069625854492 14.1210298538208 16.92070579528809 Z" stroke="none"/>
    <path d="M 14.09016036987305 16.05787658691406 L 14.09016036987305 1.599996566772461 L 1.599999904632568 1.599996566772461 L 1.600089311599731 16.05781936645508 L 6.354660034179688 12.63532638549805 L 6.485459804534912 12.57320690155029 C 6.907589912414551 12.37271690368652 7.377739906311035 12.26673698425293 7.845079898834229 12.26673698425293 C 8.312419891357422 12.26673698425293 8.782569885253906 12.37271690368652 9.204699516296387 12.57320690155029 L 9.33549976348877 12.63532638549805 L 14.09016036987305 16.05787658691406 M 14.12105274200439 17.720703125 C 13.89816665649414 17.7207088470459 13.66946029663086 17.67224311828613 13.44795989990234 17.5670166015625 L 8.518269538879395 14.01847648620605 C 8.092281341552734 13.8161563873291 7.597870826721191 13.8161563873291 7.171889781951904 14.01847648620605 L 2.242209911346436 17.5670166015625 C 1.201119780540466 18.06149291992188 -1.011657744243166e-07 17.30232620239258 -1.011657744243166e-07 16.14972686767578 L -1.011657744243166e-07 1.569016456604004 C -1.011657744243166e-07 0.7024765014648438 0.7024698853492737 -3.485717797957477e-06 1.569019913673401 -3.485717797957477e-06 L 14.12113952636719 -3.485717797957477e-06 C 14.98770999908447 -3.485717797957477e-06 15.69015979766846 0.7024765014648438 15.69015979766846 1.569016456604004 L 15.69015979766846 16.14972686767578 C 15.69015979766846 17.05708885192871 14.94571781158447 17.72068023681641 14.12105274200439 17.720703125 Z" stroke="none" fill="#cbcbcb"/>
  </g>
</svg>
