<svg xmlns="http://www.w3.org/2000/svg" width="12.964" height="12.964" viewBox="0 0 12.964 12.964">
  <path id="패스_5446" data-name="패스 5446" d="M21.3,9.518l-.027.027-.027.027-.027.027-.027.027-.027.027-.027.027-.027.027-.027.027-.027.027-.027.027-.027.026-.026.026-.026.026-.026.026-.026.026-.026.026-.026.026L20.825,10l-.026.026-.026.026-.026.026-.026.026-.026.026-.026.026-.026.026-.026.026-.026.026-.026.026-.026.026-.026.026-.026.026-.026.026-.026.025-.025.026-.026.025-.025.025-.025.025-.025.025-.025.025-.025.025-.025.025-.025.025-.025.025-.025.025-.025.025-.025.025-.025.025-.025.025-.025.025-.025.025-.025.025-.025.025-.025.025-.025.025-.025.025-.025.025-.025.025-.025.025-.025.024-.024.025-.024.025-.024.024-.024.024-.024.024-.024.024-.024.024-.024.024-.024.024-.024.024-.024.024-.024.024-.024.024-.024.024-.024.024-.024.024-.024.024-.024.024-.024.024-.024.024-.024.024-.024.024-.024.024-.024.024-.024.024-.024.024-.024.024-.024.024-.024.024-.024.024-.024.024-.024.023-.024.024-.023.023-.024.023-.023.023-.023.023-.023.023-.023.023-.023.023-.023.023-.023.023-.023.023-.023.023-.023.023-.023.023-.023.023-.023.023-.023.023-.023.023-.023.023-.023.023-.023.023-.023.023-.023.023-.023.023-.023.023-.023.023-.023.023-.023.023-.023.023-.023.023-.023.023-.023.023-.023.023-.023.023-.022.023-.023.023-.023.023-.023.023-.022.023-.022.023-.023.022-.022.022-.022.022-.022.022-.022.022-.022.022-.022.022-.022.022-.022.022-.022.022-.022.022-.022.022-.022.022-.022.022-.022.022-.022.022-.022.022-.022.022-.022.022-.022.022-.022.022-.022.022-.022.022-.022.022-.022.022-.022.022-.022.022-.022.022-.022.022-.022.022-.022.022-.022.022-.022.022-.022.022-.022.022-.022.022-.022.022-.022.022-.022.022-.022.022-.022.022-.022.022-.022.022-.022.022-.022.022-.022.022-.022.022-.022.022-.021.022L17,13.82l-.022.021-.022.021-.021.022-.021.022-.021.021-.021.021-.021.021-.021.021-.021.021-.021.021-.021.021-.021.021-.021.021-.021.021-.021.021-.021.021-.021.021-.021.021-.021.021-.021.021-.021.021-.021.021-.021.021-.021.021-.021.021-.021.021-.021.021-.021.021-.021.021-.021.021-.021.021-.021.021-.021.021-.021.021-.021.021-.021.021-.021.021-.021.021-.021.021-.021.021-.021.021-.021.021-.021.021-.021.021-.021.021-.021.021L16,14.821h0l-.021-.021-.021-.021-.021-.021-.021-.021-.021-.021-.021-.021-.021-.021-.021-.021-.021-.021-.021-.021-.021-.021-.021-.021-.021-.021-.021-.021-.021-.021-.021-.021-.021-.021-.021-.021-.021-.021-.021-.021-.021-.021-.021-.021-.021-.021-.021-.021-.021-.021-.021-.021-.021-.021-.021-.021-.021-.021-.021-.021-.021-.021-.021-.021L15.3,14.12l-.021-.021-.021-.021-.021-.021-.021-.021-.021-.021-.021-.021-.021-.021-.021-.021-.022-.021-.021-.021-.022-.022-.021-.022-.021-.021L15,13.82l-.022-.022-.021-.022-.022-.022-.022-.022-.022-.022-.022-.022-.022-.022-.022-.022-.022-.022-.022-.022-.022-.022-.022-.022-.022-.022-.022-.022-.022-.022-.022-.022-.022-.022-.022-.022-.022-.022-.022-.022-.022-.022-.022-.022L14.5,13.32l-.022-.022-.022-.022-.022-.022-.022-.022-.022-.022-.022-.022-.022-.022-.022-.022-.022-.022-.022-.022-.022-.022-.022-.022-.022-.022-.022-.022-.022-.022-.022-.022-.022-.022-.022-.022-.022-.022-.022-.022-.022-.022-.022-.022-.022-.022-.022-.022-.022-.022-.022-.022-.023-.022-.023-.023-.022-.023-.023-.023-.023-.023-.023-.023-.023-.023-.023-.023-.023-.023-.023-.023-.023-.023-.023-.023-.023-.023-.023-.023-.023-.023-.023-.023-.023-.023-.023-.023-.023-.023-.023-.023-.023-.023-.023-.023-.023-.023-.023-.023-.023-.023-.023-.023-.023-.023-.023-.023-.023-.023-.023-.023-.023-.023-.023-.023-.023-.023-.023-.023-.023-.023L13.1,11.92l-.023-.023-.023-.023-.024-.023-.023-.023-.023-.024-.024-.023-.024-.024-.024-.024-.024-.024-.024-.024-.024-.024-.024-.024-.024-.024-.024-.024-.024-.024-.024-.024-.024-.024-.024-.024-.024-.024-.024-.024-.024-.024-.024-.024-.024-.024-.024-.024-.024-.024-.024-.024-.024-.024-.024-.024-.024-.024-.024-.024-.024-.024-.024-.024-.024-.024-.024-.024-.024-.024-.024-.025-.024-.025-.025-.024-.025-.025-.025-.025-.025-.025-.025-.025-.025-.025-.025-.025-.025-.025-.025-.025-.025-.025-.025-.025-.025-.025-.025-.025-.025-.025-.025-.025-.025-.025-.025-.025-.025-.025-.025-.025-.025-.025-.025-.025-.025-.025-.025-.025-.025-.025-.025-.025-.026-.026-.026-.025-.026-.026-.026-.026-.026-.026-.026-.026-.026-.026-.026-.026-.026-.026-.026-.026-.026-.026-.026-.026-.026-.026-.026-.026-.026-.026L11.175,10l-.026-.026-.026-.026L11.1,9.918l-.026-.026-.026-.026-.026-.026-.026-.026-.026-.026-.026-.027-.027-.027-.027-.027-.027-.027-.027-.027L10.8,9.626,10.777,9.6l-.027-.027-.027-.027L10.7,9.518,9.518,10.7l.027.027.027.027.027.027.027.027.027.027.027.027.027.027.027.027.027.027.027.026.026.027.026.026.026.026.026.026.026.026.026.026.026.026.026.026.026.026.026.026.026.026.026.026.026.026.026.026.026.026.026.026.026.026.026.026.026.026.026.026.026.026.026.026.026.026.026.026.026.025.025.025.025.025.025.025.025.025.025.025.025.025.025.025.025.025.025.025.025.025.025.025.025.025.025.025.025.025.025.025.025.025.025.025.025.025.025.025.025.025.025.025.025.025.025.025.025.024.024.025.025.024.024.024.024.024.024.024.024.024.024.024.024.024.024.024.024.024.024.024.024.024.024.024.024.024.024.024.024.024.024.024.024.024.024.024.024.024.024.024.024.024.024.024.024.024.024.024.024.024.024.024.024.024.024.024.024.024.024.024.023.023.024.024.023.023.023.023.024.023.023.023.023.023.023.023.023.023.023.023.023.023.023.023.023.023.023.023.023.023.023.023.023.023.023.023.023.023.023.023.023.023.023.023.023.023.023.023.023.023.023.023.023.023.023.023.023.023.023.023.023.023.023.023.023.023.023.023.023.023.023.023.023.023.023.023.023.022.023.023.023.023.022.022.023.022.022.022.022.022.022.022.022.022.022.022.022.022.022.022.022.022.022.022.022.022.022.022.022.022.022.022.022.022.022.022.022.022.022.022.022.022.022.022.022.022.022.022.022.022.022.022.022.022.022.022.022.022.022.022.022.022.022.022.022.022.022.022.022.022.022.022.022.022.022.022.022.022.022.022.022.022.022.022.022.022.022.022.022.022.022.022.022.022.022.022.022.022.021.022L13.82,15l.021.022.022.021.022.022.021.022.021.021.022.021.021.021.022.021.021.021.022.021.021.021.021.021.021.021.021.021.021.021.021.021.021.021.021.021.021.021.021.021.021.021.021.021.021.021.021.021.021.021.021.021.021.021.021.021.021.021.021.021.021.021.021.021.021.021.021.021.021.021.021.021.021.021.021.021.021.021.021.021.021.021.021.021.021.021.021.021.021.021.021.021.021.021h0l-.021.021-.021.021-.021.021-.021.021-.021.021-.021.021-.021.021-.021.021-.021.021-.021.021-.021.021-.021.021-.021.021-.021.021-.021.021-.021.021-.021.021-.021.021-.021.021-.021.021-.021.021-.021.021-.021.021-.021.021-.021.021-.021.021-.021.021-.021.021-.021.021-.021.021-.021.021-.021.021-.021.021-.021.021-.021.021-.021.021-.021.021-.022.021-.021.021-.022.021-.021.021-.022.021-.021.021-.021.021-.022.021-.022.022L13.82,17l-.022.021-.021.022-.022.022-.022.022-.022.022-.022.022-.022.022-.022.022-.022.022-.022.022-.022.022-.022.022-.022.022-.022.022-.022.022-.022.022-.022.022-.022.022-.022.022-.022.022-.022.022-.022.022-.022.022-.022.022-.022.022-.022.022-.022.022-.022.022-.022.022-.022.022-.022.022-.022.022-.022.022-.022.022-.022.022-.022.022-.022.022-.022.022-.022.022-.022.022-.022.022-.022.022-.022.022-.022.022-.022.022-.022.022-.022.022-.022.022-.023.022-.022.022-.023.023-.023.022-.023.023-.023.023-.023.022-.023.023-.023.023-.023.023-.023.023-.023.023-.023.023-.023.023-.023.023-.023.023-.023.023-.023.023-.023.023-.023.023-.023.023-.023.023-.023.023-.023.023-.023.023-.023.023-.023.023-.023.023-.023.023-.023.023-.023.023-.023.023-.023.023-.023.023-.023.023-.023.023-.023.023-.023.023-.023.023-.023.023-.023.023-.024.024-.023.024-.024.024-.024.024-.024.024-.024.024-.024.024-.024.024-.024.024-.024.024-.024.024-.024.024-.024.024-.024.024-.024.024-.024.024-.024.024-.024.024-.024.024-.024.024-.024.024-.024.024-.024.024-.024.024-.024.024-.024.024-.024.024-.024.024-.024.024-.024.024-.024.024-.025.024-.024.025-.025.024-.025.025-.025.025-.025.025-.025.025-.025.025-.025.025-.025.025-.025.025-.025.025-.025.025-.025.025-.025.025-.025.025-.025.025-.025.025-.025.025-.025.025-.025.025-.025.025-.025.025-.025.025-.025.025-.025.025-.026.025-.026.026-.026.025-.026.026-.026.026-.026.026-.026.026-.026.026-.026.026-.026.026-.026.026-.026.026-.026.026-.026.026-.026.026-.026.026L10,20.825l-.026.026-.026.026-.026.026-.026.026-.026.026-.026.026-.026.026-.026.027-.027.027-.027.027-.027.027-.027.027-.027.027-.027.027-.027.027-.027.027-.027.027-.027.027L10.7,22.482l.027-.027.027-.027.027-.027.027-.027.027-.027.027-.027.027-.027.027-.027.026-.027.027-.027.026-.026.026-.027.026-.026.026-.026.026-.026.026-.026.026-.026L11.175,22l.026-.026.026-.026.026-.026.026-.026.026-.026.026-.026.026-.026.026-.026.026-.026.026-.026.026-.026.026-.026.026-.026.026-.026.026-.026.026-.025.025-.025.025-.026.025-.025.025-.025.025-.025.025-.025.025-.025.025-.025.025-.025.025-.025.025-.025.025-.025.025-.025.025-.025.025-.025.025-.025.025-.025.025-.025.025-.025.025-.025.025-.025.025-.025.025-.025.025-.025.025-.024.024-.025.024-.024.024-.024.024-.024.024-.024.024-.024.024-.024.024-.024.024-.024.024-.024.024-.024.024-.024.024-.024.024-.024.024-.024.024-.024.024-.024.024-.024.024-.024.024-.024.024-.024.024-.024.024-.024.024-.024.024-.024.024-.024.024-.024.024-.024.024-.024.024-.024.024-.024.024-.024.023-.023.023-.024.024-.023.023-.023.023-.023.023-.023.023-.023.023-.023.023-.023.023-.023.023-.023.023-.023.023-.023.023-.023.023-.023.023-.023.023-.023.023-.023.023-.023.023-.023.023-.023.023-.023.023-.023.023-.023.023-.023.023-.023.023-.023.023-.023.023-.023.023-.023.023-.023.023-.023.023-.023.023-.023.023-.023.023-.023.023-.023.023-.022.022-.023.023-.022.023-.022.022-.022.022-.022.022-.022.022-.022.022-.022.022-.022.022-.022.022-.022.022-.022.022-.022.022-.022.022-.022.022-.022.022-.022.022-.022.022-.022.022-.022.022-.022.022-.022.022-.022.022-.022.022-.022.022-.022.022-.022.022-.022.022-.022.022-.022.022-.022.022-.022.022-.022.022-.022.022-.022.022-.022.022-.022.022-.022.022-.022.022-.022.022-.022.022-.022.022-.022.022-.022.022-.022.022-.022.022-.022.022-.022.022-.022.022-.022.021-.022L15,18.18l.022-.022.022-.021.021-.021.022-.021.021-.022.022-.021.021-.021.021-.021.021-.021.021-.021.021-.021.021-.021.021-.021.021-.021.021-.021.021-.021.021-.021.021-.021.021-.021.021-.021.021-.021.021-.021.021-.021.021-.021.021-.021.021-.021.021-.021.021-.021.021-.021.021-.021.021-.021.021-.021.021-.021.021-.021.021-.021.021-.021.021-.021.021-.021.021-.021.021-.021.021-.021.021-.021.021-.021.021-.021.021-.021.021-.021L16,17.179h0l.021.021.021.021.021.021.021.021.021.021.021.021.021.021.021.021.021.021.021.021.021.021.021.021.021.021.021.021.021.021.021.021.021.021.021.021.021.021.021.021.021.021.021.021.021.021.021.021.021.021.021.021.021.021.021.021.021.021.021.021.021.021.021.021.021.021.021.021.021.021.021.021.021.021.021.021.021.021.021.021.021.021.021.021.021.022.021.021.021.021.022.021L17,18.18l.022.021.021.022.022.022.022.022.022.022.022.022.022.022.022.022.022.022.022.022.022.022.022.022.022.022.022.022.022.022.022.022.022.022.022.022.022.022.022.022.022.022.022.022.022.022.022.022.022.022.022.022.022.022.022.022.022.022.022.022.022.022.022.022.022.022.022.022.022.022.022.022.022.022.022.022.022.022.022.022.022.022.022.022.022.022.022.022.022.022.022.022.022.022.022.022.022.022.023.022.022.022.022.023.023.022.023.023.023.023.022.023.023.023.023.023.023.023.023.023.023.023.023.023.023.023.023.023.023.023.023.023.023.023.023.023.023.023.023.023.023.023.023.023.023.023.023.023.023.023.023.023.023.023.023.023.023.023.023.023.023.023.023.023.023.023.023.023.023.023.023.023.023.023.024.023.023.024.024.023.024.024.024.024.024.024.024.024.024.024.024.024.024.024.024.024.024.024.024.024.024.024.024.024.024.024.024.024.024.024.024.024.024.024.024.024.024.024.024.024.024.024.024.024.024.024.024.024.024.024.024.024.024.024.024.024.024.024.024.024.024.024.024.025.025.024.025.025.025.025.025.025.025.025.025.025.025.025.025.025.025.025.025.025.025.025.025.025.025.025.025.025.025.025.025.025.025.025.025.025.025.025.025.025.025.025.025.025.025.025.025.026.026.025.025.025.026.026.026.026.026.026.026.026.026.026.026.026.026.026.026.026.026.026.026.026.026.026.026.026.026.026.026.026.026.026.026.026.026.026.026.026.026.026.026.026.026.026.026.027.027.026.027.027.027.027.027.027.027.027.027.027.027.027.027.027.027.027.027.027.027.027L22.482,21.3l-.027-.027-.027-.027-.027-.027-.027-.027-.027-.027-.027-.027-.027-.027-.027-.027-.027-.027-.027-.027-.026-.027-.026-.026-.026-.026-.026-.026-.026-.026-.026-.026-.026-.026L22,20.825l-.026-.026-.026-.026-.026-.026-.026-.026-.026-.026-.026-.026-.026-.026-.026-.026-.026-.026-.026-.026-.026-.026-.026-.026-.026-.026-.026-.026-.026-.025-.025-.026-.025-.025-.025-.025-.025-.025-.025-.025-.025-.025-.025-.025-.025-.025-.025-.025-.025-.025-.025-.025-.025-.025-.025-.025-.025-.025-.025-.025-.025-.025-.025-.025-.025-.025-.025-.025-.025-.025-.025-.025-.025-.025-.025-.025-.025-.025-.025-.025-.025-.024-.024-.025-.024-.024-.024-.024-.024-.024-.024-.024-.024-.024-.024-.024-.024-.024-.024-.024-.024-.024-.024-.024-.024-.024-.024-.024-.024-.024-.024-.024-.024-.024-.024-.024-.024-.024-.024-.024-.024-.024-.024-.024-.024-.024-.024-.024-.024-.024-.024-.024-.024-.024-.024-.024-.024-.024-.024-.024-.024-.024-.024-.024-.024-.024-.023-.024-.023-.023-.023-.023-.023-.023L20.08,18.9l-.023-.023-.023-.023-.023-.023-.023-.023-.023-.023-.023-.023-.023-.023-.023-.023-.023-.023-.023-.023-.023-.023-.023-.023-.023-.023-.023-.023-.023-.023-.023-.023-.023-.023-.023-.023-.023-.023-.023-.023-.023-.023-.023-.023-.023-.023-.023-.023-.023-.023-.023-.023-.023-.023-.023-.023-.023-.023-.023-.023-.023-.022-.022-.023-.023-.023-.022-.022-.023-.023-.022-.022-.022-.022-.022-.022-.022-.022-.022-.022-.022-.022-.022-.022-.022-.022-.022-.022-.022-.022-.022-.022-.022-.022-.022-.022-.022-.022-.022-.022-.022-.022-.022-.022-.022-.022-.022-.022-.022-.022-.022-.022-.022-.022-.022-.022-.022-.022-.022-.022-.022-.022L18.68,17.5l-.022-.022-.022-.022-.022-.022-.022-.022-.022-.022-.022-.022-.022-.022-.022-.022-.022-.022-.022-.022-.022-.022-.022-.022-.022-.022-.022-.022-.022-.022-.022-.022-.022-.022-.022-.022-.022-.022-.022-.022-.022-.022-.022-.022L18.18,17l-.021-.022-.022-.022-.021-.021-.021-.021-.022-.021-.021-.021-.021-.021-.021-.021-.021-.021-.021-.021-.021-.021-.021-.021-.021-.021L17.88,16.7l-.021-.021-.021-.021-.021-.021-.021-.021-.021-.021-.021-.021-.021-.021-.021-.021-.021-.021-.021-.021-.021-.021-.021-.021-.021-.021-.021-.021-.021-.021-.021-.021-.021-.021-.021-.021-.021-.021-.021-.021-.021-.021-.021-.021-.021-.021-.021-.021-.021-.021-.021-.021-.021-.021-.021-.021-.021-.021-.021-.021-.021-.021-.021-.021L17.179,16h0l.021-.021.021-.021.021-.021.021-.021.021-.021.021-.021.021-.021.021-.021.021-.021.021-.021.021-.021.021-.021.021-.021.021-.021.021-.021.021-.021.021-.021.021-.021.021-.021.021-.021.021-.021.021-.021.021-.021.021-.021.021-.021.021-.021.021-.021.021-.021.021-.021.021-.021.021-.021.021-.021.021-.021.021-.021.021-.021.021-.021.021-.021.021-.021.021-.021.021-.021.021-.021.021-.021.022-.021.021-.022.021-.022.022-.021L18.18,15l.022-.022.022-.022.022-.022.022-.022.022-.022.022-.022.022-.022.022-.022.022-.022.022-.022.022-.022.022-.022.022-.022.022-.022.022-.022.022-.022.022-.022.022-.022.022-.022.022-.022.022-.022.022-.022.022-.022.022-.022.022-.022.022-.022.022-.022.022-.022.022-.022.022-.022.022-.022.022-.022.022-.022.022-.022.022-.022.022-.022.022-.022.022-.022.022-.022.022-.022.022-.022.022-.022.022-.022.022-.022.022-.022.022-.022.022-.022.022-.022.022-.022.022-.022.023-.023.022-.023.023-.022.022-.023.023-.023.023-.023.023-.023.023-.023.023-.023.023-.023.023-.023.023-.023.023-.023.023-.023.023-.023.023-.023.023-.023.023-.023.023-.023.023-.023.023-.023.023-.023.023-.023.023-.023.023-.023.023-.023.023-.023.023-.023.023-.023.023-.023.023-.023.023-.023.023-.023.023-.023.023-.023.023-.023.024-.023.023-.023.023-.023.023-.024.024-.023.024-.024.024-.024.024-.024.024-.024.024-.024.024-.024.024-.024.024-.024.024-.024.024-.024.024-.024.024-.024.024-.024.024-.024.024-.024.024-.024.024-.024.024-.024.024-.024.024-.024.024-.024.024-.024.024-.024.024-.024.024-.024.024-.024.024-.024.024-.024.024-.024.024-.024.024-.025.025-.024.025-.025.025-.025.025-.025.025-.025.025-.025.025-.025.025-.025.025-.025.025-.025.025-.025.025-.025.025-.025.025-.025.025-.025.025-.025.025-.025.025-.025.025-.025.025-.025.025-.025.025-.025.025-.025.025-.025.025-.025.025-.026.026-.026.026-.026.026-.026.026-.026.026-.026.026-.026.026-.026.026-.026.026-.026.026-.026.026-.026.026-.026.026-.026.026-.026L22,11.175l.026-.026.026-.026.026-.026.026-.026.026-.026.026-.026.026-.026.026-.027.027-.026.027-.027.027-.027.027-.027.027-.027.027-.027.027-.027.027-.027.027-.027.027-.027Z" transform="translate(-9.518 -9.518)" fill="#fff" fill-rule="evenodd"/>
</svg>
