<svg id="스크랩아이콘" xmlns="http://www.w3.org/2000/svg" width="50.148" height="72.436" viewBox="0 0 50.148 72.436">
  <path id="패스_5560" data-name="패스 5560" d="M47.555,0H2.594A2.82,2.82,0,0,0,0,3V69.435a3.1,3.1,0,0,0,1.349,2.633,2.3,2.3,0,0,0,2.644-.107l21.08-15.634L46.155,71.962a2.344,2.344,0,0,0,1.4.475,2.319,2.319,0,0,0,1.244-.368,3.1,3.1,0,0,0,1.349-2.633V3a2.82,2.82,0,0,0-2.594-3" fill="#ededed"/>
  <path id="패스_5561" data-name="패스 5561" d="M140.055,119.78l-1.57,1.575-5.26,5.257-4.359,1.19-2.472.675,1.808,1.815,4.861,4.855-6.688,6.682,1.57,1.575,6.682-6.682,4.861,4.856,1.821,1.815.668-2.476,1.186-4.359,5.262-5.257,1.57-1.576-1.569-1.581-6.8-6.788Z" transform="translate(-112.657 -100.524)" fill="#fff" fill-rule="evenodd"/>
</svg>
