<svg xmlns="http://www.w3.org/2000/svg" width="16.666" height="16.666" viewBox="0 0 16.666 16.666">
  <g id="그룹_1155" data-name="그룹 1155" transform="translate(-649.167 -1009.666)">
    <path id="패스_4939" data-name="패스 4939" d="M547.414,24.341a.394.394,0,0,0,.4-.388v-.9a.4.4,0,0,0-.795,0v.9a.394.394,0,0,0,.4.388Z" transform="translate(110 987)" fill="#fff"/>
    <path id="패스_4940" data-name="패스 4940" d="M544.54,24.806a.407.407,0,0,0,.544.143.386.386,0,0,0,.147-.531l-.461-.775a.407.407,0,0,0-.544-.143.387.387,0,0,0-.148.531Z" transform="translate(110 987)" fill="#fff"/>
    <path id="패스_4941" data-name="패스 4941" d="M543.379,26.609a.4.4,0,0,1-.545.143l-.795-.45a.382.382,0,0,1-.147-.531.4.4,0,0,1,.544-.143l.8.45a.384.384,0,0,1,.143.531Z" transform="translate(110 987)" fill="#fff"/>
    <path id="패스_4942" data-name="패스 4942" d="M541.438,29.268h.919a.388.388,0,1,0,0-.775h-.919a.388.388,0,1,0,0,.775Z" transform="translate(110 987)" fill="#fff"/>
    <path id="패스_4943" data-name="패스 4943" d="M541.892,31.989a.386.386,0,0,1,.147-.531l.795-.45a.407.407,0,0,1,.545.143.387.387,0,0,1-.147.531l-.8.45a.405.405,0,0,1-.54-.143Z" transform="translate(110 987)" fill="#fff"/>
    <path id="패스_4944" data-name="패스 4944" d="M551.991,31.008a.4.4,0,0,0-.545.143.383.383,0,0,0,.147.531l.795.45a.4.4,0,0,0,.545-.143.383.383,0,0,0-.147-.531Z" transform="translate(110 987)" fill="#fff"/>
    <path id="패스_4945" data-name="패스 4945" d="M552.468,29.268a.388.388,0,1,1,0-.775h.918a.388.388,0,1,1,0,.775Z" transform="translate(110 987)" fill="#fff"/>
    <path id="패스_4946" data-name="패스 4946" d="M551.991,26.752l.795-.45a.386.386,0,0,0,.147-.531.407.407,0,0,0-.545-.143l-.795.45a.386.386,0,0,0-.147.531.407.407,0,0,0,.545.143Z" transform="translate(110 987)" fill="#fff"/>
    <path id="패스_4947" data-name="패스 4947" d="M550.285,24.8a.4.4,0,0,1-.545.143.384.384,0,0,1-.147-.531l.461-.775a.4.4,0,0,1,.545-.143.382.382,0,0,1,.147.531Z" transform="translate(110 987)" fill="#fff"/>
    <path id="패스_4948" data-name="패스 4948" d="M547.017,31.9V30.83l-.752-.733a.379.379,0,0,1,0-.547.4.4,0,0,1,.561,0l.588.574.633-.616a.4.4,0,0,1,.56,0,.379.379,0,0,1,0,.547l-.795.775V31.9a.4.4,0,0,1-.795,0Z" transform="translate(110 987)" fill="#fff"/>
    <path id="패스_4949" data-name="패스 4949" d="M553.128,33.675l-2.887-1.694a.9.9,0,0,1,.231-.45,4.019,4.019,0,0,0,1.149-2.818,4.158,4.158,0,0,0-4.211-4.1,2.566,2.566,0,0,0-.3.012,4.169,4.169,0,0,0-3.908,3.826c0,.089-.008.178-.008.267a4.031,4.031,0,0,0,1.117,2.779,1.017,1.017,0,0,1,.278.585l-2.719,1.6a2.913,2.913,0,0,0-1.455,2.508v2.376a.8.8,0,0,0,1.59,0V36.182A1.366,1.366,0,0,1,542.691,35l1.765-1.035.819,2.058a.392.392,0,0,0,.314.244.406.406,0,0,0,.374-.151l.354-.457-.207,3.159a.4.4,0,0,0,.8.058l.191-2.938a1.632,1.632,0,0,0,.863-.008l.2,2.946a.4.4,0,0,0,.425.388.412.412,0,0,0,.37-.446l-.207-3.159.354.457a.407.407,0,0,0,.374.151.392.392,0,0,0,.314-.244l.8-2.023,1.718,1a1.368,1.368,0,0,1,.684,1.178v2.376a.8.8,0,0,0,1.59,0V36.182A2.913,2.913,0,0,0,553.128,33.675Zm-8.33-5.128a2.6,2.6,0,0,1,2.429-2.376c.064,0,.128-.008.187-.008a2.632,2.632,0,0,1,1.853.748,2.5,2.5,0,0,1,.052,3.558,2.483,2.483,0,0,0-.692,1.733v.322a.774.774,0,0,0,.08.333l-.788.636h-.775l-.97-.783a.7.7,0,0,0,.024-.186V32.2a2.564,2.564,0,0,0-.712-1.756,2.513,2.513,0,0,1-.7-1.729v-.17Zm.966,6.55-.612-1.535.485-.283.946.76Zm1.094-.128.544-.705h.255l.537.7a.014.014,0,0,0-.012.008.984.984,0,0,1-.664.256.972.972,0,0,1-.66-.259Zm3.037-1.38-.6,1.5-.816-1.055.918-.74Z" transform="translate(110 987)" fill="#fff" fill-rule="evenodd"/>
    <path id="패스_5482" data-name="패스 5482" d="M418.833,22.667a1.666,1.666,0,0,0-1.666,1.667V37.667a1.666,1.666,0,0,0,1.666,1.667h13.334a1.666,1.666,0,0,0,1.666-1.667V24.334a1.666,1.666,0,0,0-1.666-1.667ZM425.5,34.75A3.75,3.75,0,1,0,421.75,31a3.75,3.75,0,0,0,3.75,3.75Z" transform="translate(232 986.999)" fill="#fff" fill-rule="evenodd" opacity="0"/>
  </g>
</svg>
