<svg xmlns="http://www.w3.org/2000/svg" width="11.994" height="12" viewBox="0 0 11.994 12">
  <path id="패스_5536" data-name="패스 5536" d="M15.74,11.992a1.8,1.8,0,0,0-.669-.465,4.851,4.851,0,0,0-1.247-.326,10.021,10.021,0,0,0-1.4-.088q-.194,0-.388.006c-.33-.368-.684-.79-1.064-1.272-.3-.375-.568-.69-.8-.981-.079-.1-.154-.193-.225-.285.017-.043.034-.083.049-.126a7.268,7.268,0,0,0,.474-2.532c0-.154-.008-.313-.017-.475V5.4h-.009a2.127,2.127,0,0,0-.26-.919,1.078,1.078,0,0,0-.328-.347A.868.868,0,0,0,9.405,4a.906.906,0,0,0-.513.167,1.455,1.455,0,0,0-.5.662,2.653,2.653,0,0,0-.18,1c0,.038,0,.077,0,.116v0A6.173,6.173,0,0,0,8.42,7.367a4.528,4.528,0,0,0,.618,1.326c-.221.525-.478,1.05-.73,1.605-.182.4-.461.973-.783,1.581-.23.083-.453.171-.669.268a6.681,6.681,0,0,0-2.279,1.667,2.526,2.526,0,0,0-.427.628,1.478,1.478,0,0,0-.15.621,1.03,1.03,0,0,0,.064.362.863.863,0,0,0,.339.426A.955.955,0,0,0,4.925,16a1.378,1.378,0,0,0,.6-.148,2.3,2.3,0,0,0,.584-.418l0,0a6.566,6.566,0,0,0,.835-1.011,20.584,20.584,0,0,0,1.135-1.872,13.41,13.41,0,0,1,1.884-.429,17.1,17.1,0,0,1,1.729-.176c.221.234.433.446.639.636a4.332,4.332,0,0,0,1.691,1.06,2.328,2.328,0,0,0,.6.083,1.6,1.6,0,0,0,.936-.274,1.071,1.071,0,0,0,.309-.34.924.924,0,0,0,.122-.454,1.014,1.014,0,0,0-.26-.658Zm-6.529-7a.5.5,0,0,1,.139-.158.114.114,0,0,1,.056-.024l.015.006a.408.408,0,0,1,.127.193,1.841,1.841,0,0,1,.1.606c.006.1.011.208.011.308A6.164,6.164,0,0,1,9.4,7.693c-.011-.024-.024-.049-.036-.073a4.66,4.66,0,0,1-.343-1.7V5.827a1.634,1.634,0,0,1,.191-.838ZM5.558,14.843h0l0,0a1.529,1.529,0,0,1-.38.278.566.566,0,0,1-.249.068.169.169,0,0,1-.067-.011c-.019-.009-.022-.011-.03-.023a.184.184,0,0,1-.021-.094.693.693,0,0,1,.073-.28,1.752,1.752,0,0,1,.3-.428v0a5.8,5.8,0,0,1,1.7-1.317c-.195.325-.393.638-.588.917a5.887,5.887,0,0,1-.729.889Zm4.285-3.524c-.436.069-.85.152-1.246.248.176-.353.33-.673.448-.932.182-.4.371-.8.553-1.2.232.285.479.578.747.915.234.3.459.57.678.829-.431.037-.833.088-1.176.141ZM15.176,12.7a.342.342,0,0,1-.157.129.913.913,0,0,1-.388.077,1.578,1.578,0,0,1-.393-.054,3.574,3.574,0,0,1-1.356-.876c-.019-.017-.037-.036-.054-.053a8.7,8.7,0,0,1,.884.073,4.12,4.12,0,0,1,1.039.268,1.066,1.066,0,0,1,.378.249.218.218,0,0,1,.066.133.112.112,0,0,1-.015.053Z" transform="translate(-4 -4)" fill="#fff"/>
</svg>
