<svg xmlns="http://www.w3.org/2000/svg" width="18.18" height="18.176" viewBox="0 0 18.18 18.176">
  <g id="그룹_1170" data-name="그룹 1170" transform="translate(7078.59 20973.09)">
    <path id="패스_4974" data-name="패스 4974" d="M1202.35,22.153a.858.858,0,0,0-.59-.244h-.39a.8.8,0,0,0-.58.244l-16.14,16.132a.846.846,0,0,0-.24.583v.392a.838.838,0,0,0,.24.583.858.858,0,0,0,.59.244h16.52a.84.84,0,0,0,.59-.244.854.854,0,0,0,.24-.583V22.736A.838.838,0,0,0,1202.35,22.153Zm-2.53,16.285V37.8h-.83v.636h-1.14V37.8h-.83v.636h-1.14V37.8h-.82v.636h-1.14V37.8h-.83v.636h-1.14V37.8h-.83v.636h-1.14V37.8h-.82v.636h-2.32l14.1-14.1v14.1Z" transform="translate(-8263 -20995)"/>
    <path id="패스_4975" data-name="패스 4975" d="M1199.01,28.6h-.39a.84.84,0,0,0-.59.244l-6.29,6.3a.813.813,0,0,0-.25.583v.393a.807.807,0,0,0,.25.583.817.817,0,0,0,.58.244h6.69a.8.8,0,0,0,.58-.244.846.846,0,0,0,.24-.583v-6.69a.8.8,0,0,0-.24-.583A.853.853,0,0,0,1199.01,28.6Zm-5.09,6.69,4.26-4.26v4.26Z" transform="translate(-8263 -20995)"/>
  </g>
</svg>
