<svg xmlns="http://www.w3.org/2000/svg" width="13.922" height="13.922" viewBox="0 0 13.922 13.922">
  <path id="icon-group-active" d="M.337,4.025,6.671,6.9a.7.7,0,0,0,.579,0l6.334-2.873a.608.608,0,0,0,0-1.088L7.25.062a.7.7,0,0,0-.579,0L.337,2.936a.608.608,0,0,0,0,1.089Zm13.247,2.4L12,5.709,7.61,7.7a1.567,1.567,0,0,1-1.3,0L1.917,5.709l-1.58.716a.607.607,0,0,0,0,1.088l6.334,2.871a.7.7,0,0,0,.579,0l6.334-2.871a.607.607,0,0,0,0-1.088Zm0,3.475-1.574-.713-4.4,2a1.567,1.567,0,0,1-1.3,0l-4.4-2L.337,9.9a.607.607,0,0,0,0,1.088l6.334,2.871a.7.7,0,0,0,.579,0l6.334-2.871a.607.607,0,0,0,0-1.088Z" transform="translate(0 0.001)" fill="#fff"/>
</svg>
