<svg xmlns="http://www.w3.org/2000/svg" width="18.338" height="18.333" viewBox="0 0 18.338 18.333">
  <path id="패스_5372" data-name="패스 5372" d="M1457.38,40.166h-2.76a1.189,1.189,0,0,1-1.19-.954l-.23-1.31a1.265,1.265,0,0,0-.69-.886c-.07-.035-.14-.071-.23-.125a1.452,1.452,0,0,0-.72-.2,1.271,1.271,0,0,0-.43.073l-1.3.458a1.224,1.224,0,0,1-.81.006,1.206,1.206,0,0,1-.64-.5L1447,34.437a1.12,1.12,0,0,1-.15-.779,1.094,1.094,0,0,1,.42-.674l1.07-.847a1.226,1.226,0,0,0,.35-.449,1.2,1.2,0,0,0,.11-.559v-.262a1.2,1.2,0,0,0-.11-.559,1.215,1.215,0,0,0-.35-.447l-1.07-.841a1.1,1.1,0,0,1-.42-.677,1.078,1.078,0,0,1,.15-.782l1.37-2.292a1.238,1.238,0,0,1,1.05-.573,1.29,1.29,0,0,1,.42.072l1.29.458a1.257,1.257,0,0,0,.43.073,1.446,1.446,0,0,0,.72-.2.775.775,0,0,0,.11-.064l.02,0c.04-.02.07-.038.11-.056a1.31,1.31,0,0,0,.44-.364,1.284,1.284,0,0,0,.25-.522l.22-1.3a1.2,1.2,0,0,1,1.19-.963h2.76a1.173,1.173,0,0,1,1.18.96l.23,1.3a1.424,1.424,0,0,0,.25.52,1.337,1.337,0,0,0,.44.365l.19.1.05.026a1.473,1.473,0,0,0,.72.2,1.187,1.187,0,0,0,.42-.073l1.3-.458a1.3,1.3,0,0,1,.42-.072,1.229,1.229,0,0,1,.6.151,1.247,1.247,0,0,1,.45.422l1.38,2.292a1.13,1.13,0,0,1,.14.784,1.19,1.19,0,0,1-.42.675l-1.07.84a1.242,1.242,0,0,0-.35.449,1.188,1.188,0,0,0-.11.557v.262a1.19,1.19,0,0,0,.11.557,1.243,1.243,0,0,0,.35.45l1.07.847a1.174,1.174,0,0,1,.42.67,1.117,1.117,0,0,1-.14.779l-1.38,2.292a1.332,1.332,0,0,1-.45.421,1.233,1.233,0,0,1-.6.152,1.315,1.315,0,0,1-.42-.072l-1.3-.458a1.224,1.224,0,0,0-.42-.073,1.463,1.463,0,0,0-.72.2l-.11.058-.03.017-.1.056a1.338,1.338,0,0,0-.44.363,1.41,1.41,0,0,0-.25.517l-.23,1.3a1.182,1.182,0,0,1-.41.69A1.208,1.208,0,0,1,1457.38,40.166ZM1456,27.946a3.041,3.041,0,0,0-2.82,1.885A3.131,3.131,0,0,0,1453,31.6a3.057,3.057,0,0,0,5.54,1.1,3.094,3.094,0,0,0,.51-1.7,3.047,3.047,0,0,0-3.05-3.054Z" transform="translate(-1446.831 -21.833)" fill="#fff"/>
</svg>
