<svg xmlns="http://www.w3.org/2000/svg" width="16.661" height="16.666" viewBox="0 0 16.661 16.666">
  <g id="그룹_1154" data-name="그룹 1154" transform="translate(-399.165 -1009.668)">
    <path id="패스_4925" data-name="패스 4925" d="M297.215,37.661q.143.006.285.006v.061a.834.834,0,0,1,0,1.531v.075a8.3,8.3,0,0,1-3.519-.777h-.008q-.213-.1-.418-.21l-.019-.011a8.343,8.343,0,0,1-3.593-10.85.036.036,0,0,0,0-.009q.1-.213.21-.418l.011-.02a8.341,8.341,0,0,1,10.851-3.591h.008c.141.066.281.136.418.21l.018.01a8.367,8.367,0,0,1,1.606,1.133l.233-.233a.416.416,0,0,1,.71.268l.124,1.941a.417.417,0,0,1-.443.442l-1.941-.124a.417.417,0,0,1-.268-.71l.4-.4a6.638,6.638,0,0,0-3.694-1.612h-.026l-.187-.016-.188-.011h-.008q-.143-.006-.285-.006a6.638,6.638,0,0,0-4.206,1.494l-.013.01c-.1.079-.191.161-.283.245h0a6.65,6.65,0,0,0-2.127,4.221v.026c-.007.062-.012.125-.016.187s-.009.125-.011.188a.019.019,0,0,0,0,.007q-.006.142-.006.286a6.639,6.639,0,0,0,1.494,4.206l.011.013c.079.1.16.191.244.283h0a6.651,6.651,0,0,0,4.221,2.127h.026l.187.016.188.011Z" transform="translate(110 987)" fill="#fff"/>
    <path id="패스_4926" data-name="패스 4926" d="M297.5,25.375a.833.833,0,0,1,.833.833v4.446l3.089,3.089a.833.833,0,1,1-1.178,1.179l-3.577-3.577V26.209a.833.833,0,0,1,.833-.834Z" transform="translate(110 987)" fill="#fff"/>
    <path id="패스_4927" data-name="패스 4927" d="M305.334,28.153a.834.834,0,0,0-1.567.57c.043.117.082.235.118.355a.835.835,0,1,0,1.6-.481Q305.414,28.372,305.334,28.153Z" transform="translate(110 987)" fill="#fff"/>
    <path id="패스_4928" data-name="패스 4928" d="M305.825,31.368a.833.833,0,0,0-1.665-.074c0,.062-.006.125-.011.188s-.01.125-.016.187a.833.833,0,1,0,1.658.166c.008-.077.015-.155.02-.233S305.822,31.445,305.825,31.368Z" transform="translate(110 987)" fill="#fff"/>
    <path id="패스_4929" data-name="패스 4929" d="M305.052,34.527a.833.833,0,1,0-1.51-.705c-.053.113-.108.224-.167.334a.833.833,0,1,0,1.467.789Q304.953,34.74,305.052,34.527Z" transform="translate(110 987)" fill="#fff"/>
    <path id="패스_4930" data-name="패스 4930" d="M303.127,37.147A.834.834,0,0,0,302,35.918c-.092.084-.186.166-.283.245a.833.833,0,0,0,1.055,1.29Q302.955,37.3,303.127,37.147Z" transform="translate(110 987)" fill="#fff"/>
    <path id="패스_4931" data-name="패스 4931" d="M300.347,38.834a.833.833,0,0,0-.57-1.566c-.117.042-.235.082-.355.118a.835.835,0,1,0,.481,1.6Q300.128,38.914,300.347,38.834Z" transform="translate(110 987)" fill="#fff"/>
  </g>
</svg>
