<svg xmlns="http://www.w3.org/2000/svg" width="20" height="20" viewBox="0 0 20 20">
  <path id="icon-help" d="M10.5,20A10,10,0,1,0,.5,10,10,10,0,0,0,10.5,20ZM10.37,8.77a.5.5,0,0,0-.5.5v2.235a.914.914,0,0,0,1.825.062l.036-.528a1.141,1.141,0,0,1,.654-.917,4.426,4.426,0,0,0,.444-.258A3.668,3.668,0,0,0,14.5,6.727,3.661,3.661,0,0,0,14,4.8a3.444,3.444,0,0,0-1.414-1.324A4.347,4.347,0,0,0,10.519,3,4.471,4.471,0,0,0,8.1,3.662,3.971,3.971,0,0,0,6.833,4.92a.82.82,0,0,0,.2,1.065,1.231,1.231,0,0,0,1.623-.239,2.441,2.441,0,0,1,1.748-.722,2.313,2.313,0,0,1,1.06.227,1.631,1.631,0,0,1,.688.643,1.923,1.923,0,0,1,.242.984,1.914,1.914,0,0,1-.26,1,1.728,1.728,0,0,1-.707.662A2.313,2.313,0,0,1,10.37,8.77ZM9.756,16.6a1.325,1.325,0,0,0,.986.4,1.265,1.265,0,0,0,.967-.4,1.413,1.413,0,0,0,.391-1,1.371,1.371,0,0,0-.391-1,1.265,1.265,0,0,0-.967-.4,1.325,1.325,0,0,0-.986.4,1.409,1.409,0,0,0-.372,1A1.452,1.452,0,0,0,9.756,16.6Z" transform="translate(-0.5)" fill="#1d1d1d" fill-rule="evenodd"/>
</svg>
