<svg xmlns="http://www.w3.org/2000/svg" width="12.964" height="12.964" viewBox="0 0 12.964 12.964">
  <path id="패스_5412" data-name="패스 5412" d="M269.3,23.518l-.027.027-.027.027-.026.027-.027.027-.027.027-.027.027-.026.027-.027.027-.027.027-.026.026-.027.027-.026.026-.026.026-.027.026-.026.026-.026.026-.027.026-.026.026-.026.026-.026.026-.026.026-.026.026-.026.026-.026.026-.026.026-.026.026-.026.026-.025.026-.026.026-.026.026-.025.026-.026.026-.025.025-.026.026-.025.025-.026.025-.025.025-.026.025-.025.025-.025.025-.026.025-.025.025-.025.025-.025.025-.025.025-.025.025-.025.025-.025.025-.025.025-.025.025-.025.025-.025.025-.024.025-.025.025-.025.025-.025.025-.024.025-.025.025-.024.024-.025.025-.024.024-.025.024-.024.024-.025.024-.024.024-.024.024-.025.024-.024.024-.024.024-.024.024-.024.024-.025.024-.024.024-.024.024-.024.024-.024.024-.024.024-.024.024-.024.024-.023.024-.024.024-.024.024-.024.024-.024.024-.023.024-.024.024-.024.024-.023.024-.024.024-.023.023-.024.024-.023.024-.024.024-.023.023-.024.023-.023.023-.023.023-.024.023-.023.023-.023.023-.023.023-.024.023-.023.023-.023.023-.023.023-.023.023-.023.023-.023.023-.023.023-.023.023-.023.023-.023.023-.023.023-.023.023-.023.023-.023.023-.022.023-.023.023-.023.023-.023.023-.022.023-.023.023-.023.023-.022.023-.023.023-.022.023-.023.023-.023.022-.022.023-.023.022-.022.023-.022.022-.023.022-.022.022-.023.022-.022.022-.022.022-.023.022-.022.022-.022.022-.022.022-.023.022-.022.022-.022.022-.022.022-.022.022-.023.022-.022.022-.022.022-.022.022-.022.022-.022.022-.022.022-.022.022-.022.022-.022.022-.022.022-.022.022-.022.022-.021.022-.022.022-.022.022-.022.022-.022.022-.022.022-.021.022-.022.022-.022.022-.022.022-.021.022-.022.022-.022.022-.021.022-.022.022-.022.022-.021.022-.022.022-.022.022-.021.022-.022.022L265,27.82l-.022.021-.021.022-.022.021-.021.022-.022.021-.021.021-.022.022-.021.021-.022.022-.021.021-.022.021-.021.021-.021.021-.022.021-.021.021-.022.021-.021.021-.021.021-.022.021-.021.021-.021.021-.021.021-.022.021-.021.021-.021.021-.022.021-.021.021-.021.021-.021.021-.022.021-.021.021-.021.021-.021.021-.021.021-.022.021-.021.021-.021.021-.021.021-.021.021-.021.021-.022.021-.021.021-.021.021-.021.021-.021.021-.021.021-.021.021h0l-.021-.021-.021-.021-.021-.021-.021-.021-.021-.021-.021-.021-.022-.021-.021-.021-.021-.021-.021-.021-.021-.021-.021-.021-.022-.021-.021-.021-.021-.021-.021-.021-.021-.021-.022-.021-.021-.021-.021-.021-.021-.021-.022-.021-.021-.021-.021-.021-.022-.021-.021-.021-.021-.021-.021-.021-.022-.021-.021-.021-.021-.021-.022-.021-.021-.021-.022-.021-.021-.021-.021-.021-.022-.021-.021-.021-.022-.022-.021-.021-.022-.022-.021-.021-.022-.021-.021-.022-.022-.021-.021-.022L263,27.82l-.021-.022-.022-.022-.021-.022-.022-.022-.022-.022-.021-.022-.022-.022-.022-.022-.021-.022-.022-.022-.022-.022-.021-.022-.022-.022-.022-.022-.022-.022-.021-.022-.022-.022-.022-.022-.022-.022-.022-.022-.022-.022-.021-.022-.022-.022-.022-.022-.022-.022-.022-.022-.022-.022-.022-.022-.022-.022-.022-.022-.022-.022-.022-.022-.022-.022-.022-.022-.023-.022-.022-.022-.022-.022-.022-.022-.022-.022-.023-.022-.022-.022-.022-.022-.022-.022-.023-.022-.022-.022-.022-.022-.023-.022-.022-.022-.023-.022-.022-.022-.022-.023-.023-.022-.022-.023-.023-.022-.023-.023-.022-.023-.023-.023-.022-.023-.023-.023-.023-.023-.022-.023-.023-.023-.023-.023-.023-.023-.022-.023-.023-.023-.023-.023-.023-.023-.023-.023-.023-.023-.023-.023-.023-.023-.023-.023-.023-.023-.023-.023-.023-.023-.023-.023-.023-.023-.023-.023-.024-.023-.023-.023-.023-.023-.023-.023-.024-.023-.023-.023-.023-.023-.024-.023-.023-.023-.024-.024-.023-.024-.024-.024-.023-.023-.024-.024-.023-.024-.024-.024-.024-.024-.023-.024-.024-.024-.024-.024-.024-.024-.024-.024-.023-.024-.024-.024-.024-.024-.024-.024-.024-.024-.024-.024-.024-.024-.024-.024-.025-.024-.024-.024-.024-.024-.024-.024-.024-.024-.025-.024-.024-.024-.024-.024-.025-.024-.024-.024-.025-.024-.024-.024-.025-.025-.024-.024-.025-.025-.024-.025-.025-.025-.025-.025-.025-.025-.024-.025-.025-.025-.025-.025-.025-.025-.025-.025-.025-.025-.025-.025-.025-.025-.025-.025-.025-.025-.025-.025-.025-.025-.026-.025-.025-.025-.025-.025-.026-.025-.025-.025-.026-.025-.025-.025-.026-.026-.025-.025-.026-.026-.025-.026-.026-.026-.026-.026-.025-.026-.026-.026-.026-.026-.026-.026-.026-.026-.026-.026-.026-.026-.026-.026-.026-.026L259.175,24l-.026-.026-.027-.026-.026-.026-.026-.026-.027-.026-.026-.026-.026-.026-.027-.027-.026-.026-.027-.027-.027-.027-.026-.027-.027-.027-.027-.027-.027-.027-.026-.027-.027-.027-.027-.027L257.518,24.7l.027.027.027.027.027.027.027.027.026.027.027.027.027.027.026.027.027.027.027.027.026.026.027.027.026.026.026.026.027.026.026.026.026.026.026.026.026.026.027.026.026.026.026.026.026.026.025.026.026.026.026.026.026.026.026.026.026.026.025.026.026.026.025.026.026.026.026.025.025.025.025.026.026.025.025.025.025.025.026.025.025.025.025.025.025.025.026.025.025.025.025.025.025.025.025.025.025.025.024.025.025.025.025.025.025.025.025.025.024.025.025.025.025.025.024.025.025.024.024.025.025.024.024.024.025.024.024.024.025.024.024.024.024.024.024.024.025.024.024.024.024.024.024.024.024.024.024.024.024.024.024.024.024.024.024.024.024.024.024.024.024.024.024.024.023.024.024.024.024.024.023.024.024.024.024.024.023.024.024.024.023.024.024.023.023.024.024.023.023.023.023.023.024.023.023.023.023.023.024.023.023.023.023.023.023.023.023.023.023.023.024.023.023.023.023.023.023.023.023.023.023.023.023.023.022.023.023.023.023.023.023.023.023.023.023.023.022.023.023.023.023.023.022.023.023.023.023.023.022.023.023.023.022.023.023.023.023.022.022.023.022.022.023.022.022.022.023.022.022.022.022.022.023.022.022.022.022.022.023.022.022.022.022.022.022.022.023.022.022.022.022.022.022.022.022.022.022.022.022.022.022.022.022.022.022.022.022.022.022.022.022.022.022.022.022.022.022.022.022.022.022.022.022.022.021.022.022.022.022.022.022.022.022.022.021.022.022.022.022.022.022.022.021.022.022.022.022.022.021.022.022.022.021.022.022.022.022.022.021.022.022.022.021.021.022.021.021.022.022.021.021.021.022.021.021.021.022.021.021.021.022.021.021.021.021.021.022.021.021.021.022.021.021.021.021.021.022.021.021.021.021.021.022.021.021.021.021.021.022.021.021.021.021.021.021.021.022.021.021.021.021.021.021.021.021.021.022.021.021.021.021.021.021.021.021.021.022.021.021.021.021.021.021.021.021.021.021.021.022.021.021.021.021.021.021.021h0l-.021.021-.021.021-.021.021-.022.021-.021.021-.021.021-.021.021-.021.021-.021.021-.022.021-.021.021-.021.021-.021.021-.021.021-.022.021-.021.021-.021.021-.021.021-.021.021-.022.021-.021.021-.021.021-.021.021-.022.021-.021.021-.021.021-.022.021-.021.021-.021.021-.022.021-.021.021-.021.021-.022.021-.021.021-.022.021-.021.021-.021.021-.022.021-.021.021-.022.021-.021.021-.022.021-.021.021-.022.021-.021.021-.022.022L261.82,31l-.022.021-.021.022-.022.022-.022.022-.021.022-.022.022-.021.022-.022.022-.022.022-.021.022-.022.022-.022.022-.022.022-.021.022-.022.022-.022.022-.022.022-.022.022-.021.022-.022.022-.022.022-.022.022-.022.022-.022.022-.022.022-.022.022-.022.022-.022.022-.022.022-.022.022-.022.022-.022.022-.022.022-.022.022-.022.022-.022.022-.022.022-.023.022-.022.022-.022.022-.022.022-.023.022-.022.022-.022.022-.023.022-.022.022-.022.022-.023.022-.022.022-.023.022-.022.022-.022.023-.023.022-.023.023-.022.023-.023.023-.022.023-.023.023-.023.023-.022.023-.023.023-.023.023-.022.023-.023.023-.023.023-.023.023-.023.023-.023.023-.022.023-.023.023-.023.023-.023.023-.023.023-.023.023-.023.023-.024.023-.023.023-.023.023-.023.023-.023.023-.023.023-.024.023-.023.023-.023.023-.024.023-.023.023-.023.023-.024.023-.023.024-.024.023-.023.023-.024.024-.023.024-.024.024-.024.024-.023.024-.024.024-.024.024-.023.024-.024.024-.024.024-.024.024-.024.024-.024.024-.024.024-.024.024-.024.024-.024.024-.024.024-.024.024-.024.024-.024.024-.025.024-.024.024-.024.024-.024.024-.025.024-.024.024-.025.025-.024.024-.025.025-.024.025-.025.025-.024.025-.025.025-.025.025-.024.025-.025.025-.025.025-.025.025-.025.025-.024.025-.025.025-.025.025-.025.025-.025.025-.025.025-.026.025-.025.025-.025.025-.025.025-.026.025-.025.025-.025.025-.026.025-.025.026-.026.025-.025.026-.026.026-.025.026-.026.026-.025.026-.026.026-.026.026-.026.026-.026.026-.026.026-.025.026-.026.026-.026.026-.026.026-.027.026-.026.026-.026.026-.026.026-.026.026-.027.026-.026.026-.026.026-.027.027-.026.027-.027.027-.027.027-.026.027-.027.027-.027.027-.026.027-.027.027-.027.027-.027.027-.027.027,1.179,1.179.027-.027.027-.027.026-.027.027-.027.027-.027.027-.027.026-.027.027-.027.027-.027.026-.026.027-.027.026-.027.026-.026.027-.026.026-.026.026-.026.027-.026.026-.026.026-.026.026-.026.026-.026.026-.026.026-.026.026-.026.026-.026.026-.026.026-.026.025-.026.026-.026.026-.026.025-.026.026-.026.025-.025.026-.026.025-.026.026-.025.025-.025.026-.025.025-.025.025-.025.026-.025.025-.025.025-.025.025-.025.025-.025.025-.025.025-.025.025-.025.025-.025.025-.025.025-.025.025-.025.024-.025.025-.025.025-.025.025-.025.024-.025.025-.025.024-.025.025-.025.024-.024.025-.024.024-.024.025-.024.024-.024.024-.024.025-.024.024-.024.024-.024.024-.024.024-.024.025-.024.024-.024.024-.024.024-.024.024-.024.024-.024.024-.024.024-.024.023-.024.024-.024.024-.024.024-.024.024-.024.023-.024.024-.024.024-.024.023-.024.024-.023.023-.024.024-.023.023-.024.024-.023.023-.023.024-.023.023-.023.023-.023.024-.023.023-.023.023-.023.023-.023.024-.023.023-.023.023-.023.023-.023.023-.023.023-.023.023-.023.023-.023.023-.023.023-.023.023-.023.023-.023.023-.023.023-.023.023-.023.022-.023.023-.023.023-.023.023-.023.022-.023.023-.023.023-.023.022-.023.023-.023.022-.023.023-.022.023-.023.022-.023.023-.022.022-.022.022-.022.023-.022.022-.022.023-.022.022-.022.022-.022.023-.022.022-.022.022-.022.022-.022.023-.022.022-.022.022-.022.022-.022.022-.022.023-.022.022-.022.022-.022.022-.022.022-.022.022-.022.022-.022.022-.022.022-.022.022-.022.022-.022.022-.022.022-.022.021-.022.022-.022.022-.022.022-.022.022-.022.022-.022.021-.022.022-.022.022-.022.022-.022.021-.022.022-.022.022-.022.021-.022.022-.022.022-.022.021-.022.022-.022.022-.022.021-.022.022-.022L263,32.18l.022-.022.021-.021.022-.021.021-.021.022-.021.021-.021.022-.022.021-.021.022-.022.021-.021.022-.021.021-.021.021-.021.022-.021.021-.021.022-.021.021-.021.021-.021.022-.021.021-.021.021-.021.021-.021.022-.021.021-.021.021-.021.022-.021.021-.021.021-.021.021-.021.022-.021.021-.021.021-.021.021-.021.021-.021.022-.021.021-.021.021-.021.021-.021.021-.021.021-.021.022-.021.021-.021.021-.021.021-.021.021-.021.021-.021.021-.021h0l.021.021.021.021.021.021.021.021.021.021.021.021.022.021.021.021.021.021.021.021.021.021.021.021.022.021.021.021.021.021.021.021.021.021.022.021.021.021.021.021.021.021.022.021.021.021.021.021.022.021.021.021.021.021.021.021.022.021.021.021.021.021.022.021.021.021.022.021.021.021.021.021.022.021.021.021.022.022.021.021.022.022.021.021.022.021.021.021.022.021.021.021.022.022.021.021.022.022.021.022.022.022.022.022.021.022.022.022.022.022.021.022.022.022.022.022.021.022.022.022.022.022.022.022.021.022.022.022.022.022.022.022.022.022.022.022.021.022.022.022.022.022.022.022.022.022.022.022.022.022.022.022.022.022.022.022.022.022.022.022.022.022.023.022.022.022.022.022.022.022.022.022.023.022.022.022.022.022.022.022.023.022.022.022.022.022.023.022.022.022.023.022.022.022.022.022.023.022.022.023.023.023.023.022.022.023.023.023.022.023.023.023.023.023.022.023.023.023.023.023.023.023.022.023.023.023.023.023.023.023.023.023.023.023.023.023.023.023.023.023.023.023.023.023.023.023.023.023.023.023.023.023.024.023.023.023.023.023.023.023.024.023.023.023.023.023.024.023.023.023.024.023.023.024.024.023.023.024.024.023.023.024.024.024.024.024.023.024.024.024.024.024.024.024.024.024.023.024.024.024.024.024.024.024.024.024.024.024.024.024.024.024.025.024.024.024.024.024.024.024.024.024.025.024.024.024.024.024.025.024.024.024.025.024.024.024.025.025.024.025.025.025.024.025.025.025.025.025.025.025.024.025.025.025.025.025.025.025.025.025.025.025.025.025.025.025.025.025.025.025.025.025.025.025.026.025.025.025.025.025.026.025.025.025.026.025.025.026.026.026.025.025.026.026.025.026.026.026.026.026.025.026.026.026.026.026.026.026.026.026.026.026.026.026.026.026.026.026.026.026.026.026.027.026.026.026.026.026.027.026.026.026.026.027.027.027.026.026.027.027.027.027.026.027.027.027.027.027.027.027.026.027.027.027.027.027,1.179-1.179-.027-.027-.027-.027-.027-.027-.027-.027-.026-.027-.027-.027-.027-.027-.026-.027-.027-.027-.027-.027-.026-.027-.027-.027-.026-.026-.026-.026-.027-.026-.026-.026-.026-.026L270,34.825l-.026-.026-.027-.026-.026-.026-.026-.026-.026-.026-.025-.026-.026-.026-.026-.026-.026-.026-.026-.026-.026-.026-.025-.026-.026-.026-.025-.026-.026-.026-.026-.026-.025-.025-.025-.026-.026-.025-.025-.025-.025-.025-.026-.025-.025-.025-.025-.025-.025-.025-.026-.025-.025-.025-.025-.025-.025-.025-.025-.025-.025-.025-.024-.025-.025-.025-.025-.025-.025-.025-.025-.025-.024-.025-.025-.025-.025-.025-.024-.025-.025-.025-.024-.025-.025-.025-.024-.024-.025-.025-.024-.024-.025-.024-.024-.024-.024-.024-.024-.024-.025-.024-.024-.024-.024-.024-.024-.024-.024-.024-.024-.024-.024-.024-.024-.024-.024-.024-.024-.024-.024-.024-.024-.024-.024-.024-.024-.024-.023-.024-.024-.024-.024-.024-.023-.024-.024-.024-.024-.024-.023-.024-.024-.024-.023-.023-.024-.023-.023-.024-.024-.023-.023-.023-.023-.023-.024-.023-.023-.023-.023-.023-.024-.023-.023-.023-.023-.023-.023-.023-.023-.023-.023-.023-.024-.023-.023-.023-.023-.023-.023-.023-.023-.023-.023-.023-.023-.023-.022-.023-.023-.023-.023-.023-.023-.023-.023-.023-.023-.023-.022-.023-.023-.023-.023-.023-.022-.023-.023-.023-.023-.023-.022-.023-.023-.023-.022-.023-.023-.023-.023-.022-.022-.023-.022-.022-.023-.022-.022-.022-.023-.022-.022-.022-.022-.022-.023-.022-.022-.022-.022-.022-.023-.022-.022-.022-.022-.022-.022-.022-.023-.022-.022-.022-.022-.022-.022-.022-.022-.022-.022-.022-.022-.022-.022-.022-.022-.022-.022-.022-.022-.022-.022-.022-.022-.022-.022-.022-.022-.022-.022-.022-.022-.022-.022-.022-.022-.022-.021-.022-.022-.022-.022-.022-.022-.022-.022-.022-.021-.022-.022-.022-.022-.022-.022-.022-.021-.022-.022-.022-.022-.022-.021-.022-.022-.022-.021-.022-.022-.022-.022-.022-.021-.022L266.18,31l-.021-.022-.022-.022-.021-.021-.022-.021-.021-.021-.022-.021-.021-.021-.022-.021-.021-.021-.022-.021-.021-.021-.021-.021-.022-.021-.021-.021-.022-.021-.021-.021-.021-.021-.022-.021-.021-.021-.021-.021-.022-.021-.021-.021-.021-.021-.022-.021-.021-.021-.021-.021-.021-.021-.022-.021-.021-.021-.021-.021-.021-.021-.021-.021-.022-.021-.021-.021-.021-.021-.021-.021-.021-.021-.022-.021-.021-.021-.021-.021-.021-.021-.021-.021-.021-.021-.022-.021-.021-.021-.021-.021L265.179,30h0l.021-.021.021-.021.021-.021.022-.021.021-.021.021-.021.021-.021.021-.021.021-.021.022-.021.021-.021.021-.021.021-.021.021-.021.022-.021.021-.021.021-.021.021-.021.021-.021.022-.021.021-.021.021-.021.021-.021.022-.021.021-.021.021-.021.022-.021.021-.021.021-.021.022-.021.021-.021.021-.021.022-.021.021-.021.022-.021.021-.021.021-.021.022-.021.021-.021.022-.021.021-.021.022-.021.021-.021.022-.021.021-.022.022-.021L266.18,29l.022-.022.021-.022.022-.022.022-.022.021-.022.022-.022.021-.022.022-.022.022-.022.021-.022.022-.022.022-.022.022-.022.021-.022.022-.022.022-.022.022-.022.022-.022.021-.022.022-.022.022-.022.022-.022.022-.022.022-.022.022-.022.022-.022.022-.022.022-.022.022-.022.022-.022.022-.022.022-.022.022-.022.022-.022.022-.022.022-.022.022-.022.023-.022.022-.022.022-.022.022-.022.023-.022.022-.022.022-.022.023-.022.022-.022.022-.022.023-.022.022-.022.023-.022.022-.022.022-.023.023-.022.023-.023.022-.023.023-.023.022-.023.023-.023.023-.023.022-.023.023-.023.023-.023.022-.023.023-.023.023-.023.023-.023.023-.023.023-.023.022-.023.023-.023.023-.023.023-.023.023-.023.023-.023.023-.023.024-.023.023-.023.023-.023.023-.023.023-.023.023-.023.024-.023.023-.023.023-.023.024-.023.023-.023.023-.023.024-.023.023-.024.024-.023.023-.024.024-.024.023-.024.024-.024.024-.024.023-.024.024-.024.024-.024.023-.024.024-.024.024-.024.024-.024.024-.024.024-.024.024-.024.024-.024.024-.024.024-.024.024-.024.024-.024.024-.024.024-.024.025-.024.024-.024.024-.024.024-.024.025-.024.024-.024.025-.024.024-.024.025-.024.024-.025.025-.024.024-.025.025-.025.025-.025.024-.025.025-.025.025-.025.025-.025.025-.025.024-.025.025-.025.025-.025.025-.025.025-.025.025-.025.026-.025.025-.025.025-.025.025-.025.026-.025.025-.025.025-.025.026-.025.025-.026.025-.025.026-.025.026-.026.025-.026.026-.026.025-.026.026-.026.026-.026.026-.026.026-.026.026-.026.025-.026.026-.026.026-.026.026-.026.027-.026.026-.026.026-.026.026-.026.026-.026.027-.026.026-.026.026-.026.027-.027.026-.026.027-.027.027-.027.026-.027.027-.027.027-.027.026-.027.027-.027.027-.027.027-.027.027-.027Z" transform="translate(-257.518 -23.518)" fill-rule="evenodd"/>
</svg>
