<svg xmlns="http://www.w3.org/2000/svg" width="21.352" height="21.352" viewBox="0 0 21.352 21.352">
  <path id="패스_5412" data-name="패스 5412" d="M276.929,23.518l-.044.044-.044.044-.043.044-.044.044-.044.044-.044.044-.043.044-.044.044-.044.044-.043.044-.044.044-.043.044-.043.043-.044.043-.043.043-.043.043-.044.043-.043.043-.043.043-.043.043-.043.043-.043.043-.043.043-.043.043-.043.043-.043.043-.043.042-.041.042-.043.042-.043.042-.041.042-.043.042-.041.042-.043.042-.041.042-.043.042-.041.042-.043.042-.041.042-.041.042-.043.042-.041.042-.041.041-.041.042-.041.041-.041.041-.041.041-.041.041-.041.041-.041.041-.041.041-.041.041-.04.041-.041.041-.041.041-.041.041-.039.041-.041.041-.04.04-.041.041-.039.04-.041.04-.04.04-.041.04-.04.04-.04.04-.041.04-.04.04-.04.04-.039.04-.04.04-.041.04-.039.04-.04.04-.04.04-.04.04-.04.04-.04.039-.04.039-.038.039-.039.039-.04.039-.04.039-.04.039-.038.039-.04.039-.039.039-.038.039-.04.039-.038.039-.039.039-.038.039-.04.039-.038.039-.039.039-.038.039-.038.038-.039.038-.038.038-.038.038-.038.038-.04.038-.038.038-.038.038-.038.038-.038.038-.038.038-.038.038-.038.038-.038.038-.038.038-.038.038-.038.038-.038.038-.038.038-.038.038-.036.038-.038.038-.038.037-.038.037-.036.037-.038.037-.038.037-.036.037-.038.037-.036.037-.038.037-.038.037-.036.037-.038.037-.036.037-.036.037-.038.037-.036.037-.038.037-.036.037-.036.037-.038.037-.036.037-.036.037-.036.037-.038.037-.036.037-.036.037-.036.037-.036.036-.038.037-.036.036-.036.036-.036.036-.036.036-.036.036-.036.036-.036.036-.036.036-.036.036-.036.036-.036.036-.036.036-.035.036-.036.036-.036.036-.036.036-.036.036-.036.036-.035.036-.036.036-.036.036-.036.036-.035.036-.036.036-.036.036-.035.036-.036.036-.036.036-.035.036-.036.036-.036.036-.035.036-.036.036-.035.036-.036.035-.035.035-.036.035-.035.036-.036.035-.035.035-.036.035-.035.035-.036.035-.035.035-.036.035-.035.035-.035.035-.036.035-.035.035-.036.035-.035.035-.035.035-.036.035-.035.035-.035.035-.035.035-.036.035-.035.035-.035.035-.036.035-.035.035-.035.035-.035.035-.036.035-.035.035-.035.035-.035.035-.035.035-.036.035-.035.035-.035.035-.035.035-.035.035-.035.035-.036.035-.035.035-.035.035-.035.035-.035.035-.035.035-.035.035h0l-.035-.035-.035-.035-.035-.035-.035-.035-.035-.035-.035-.035-.036-.035-.035-.035-.035-.035-.035-.035-.035-.035-.035-.035-.036-.035-.035-.035-.035-.035-.035-.035-.035-.035-.036-.035-.035-.035-.035-.035-.035-.035-.036-.035-.035-.035-.035-.035-.036-.035-.035-.035-.035-.035-.035-.035-.036-.035-.035-.035-.035-.035-.036-.035-.035-.035L267,31.063l-.035-.035-.035-.035-.036-.035-.035-.035-.036-.035-.035-.035-.036-.035-.035-.035-.036-.035-.035-.036-.036-.035-.035-.035-.036-.035-.035-.036-.036-.036-.035-.036-.036-.036-.036-.036-.035-.036-.036-.036-.036-.036-.035-.036-.036-.036-.036-.036-.035-.036-.036-.036-.036-.036-.036-.036-.035-.036L265.938,30l-.036-.036-.036-.036-.036-.036-.036-.036-.035-.036-.036-.036-.036-.036-.036-.036-.036-.036-.036-.036-.036-.036-.036-.036-.036-.036-.036-.036-.036-.036-.036-.036-.036-.036-.038-.037-.036-.036-.036-.037-.036-.037-.036-.037-.038-.037-.036-.037-.036-.037-.036-.037-.038-.037-.036-.037-.036-.037-.038-.037-.036-.037-.038-.037-.036-.037-.036-.037-.038-.037-.036-.037-.038-.037-.038-.037-.036-.037-.038-.037-.036-.037-.038-.037-.038-.037-.036-.037-.038-.037-.038-.037-.038-.038-.036-.038-.038-.038-.038-.038-.038-.038-.038-.038-.038-.038-.038-.038-.038-.038-.038-.038-.038-.038-.038-.038-.038-.038-.038-.038-.038-.038-.038-.038-.04-.038-.038-.038-.038-.038-.038-.038-.04-.038-.038-.038-.038-.039-.039-.039-.038-.039-.04-.039-.038-.039-.039-.039-.038-.039-.04-.039-.038-.039-.039-.039-.04-.039-.038-.039-.04-.039-.039-.039-.04-.039-.039-.039-.038-.039-.04-.039-.04-.039-.04-.04-.04-.04-.039-.04-.04-.04-.039-.04-.041-.04-.04-.04-.04-.04-.04-.04-.04-.04-.041-.04-.04-.04-.04-.04-.041-.04-.04-.04-.041-.04-.039-.04-.041-.041-.04-.04-.041-.041-.04-.041-.041-.041-.041-.041-.041-.041-.04-.041-.041-.041-.041-.041-.041-.041-.041-.041-.041-.041-.041-.041-.041-.041-.041-.041-.041-.042-.041-.041-.041-.042-.043-.042-.041-.042-.041-.042-.043-.042-.041-.042-.043-.042-.041-.042-.043-.042-.041-.042-.043-.042-.041-.042-.043-.042-.043-.042-.041-.042-.043-.042-.043-.043-.043-.043-.043-.043-.043-.043-.043-.043-.043-.043-.043-.043-.043-.043-.043-.043-.044-.043-.043-.043-.043-.043-.044-.043-.043-.043L259.944,24l-.044-.044-.043-.044-.044-.044-.044-.044-.043-.044-.044-.044-.044-.044-.044-.044-.043-.044-.044-.044-.044-.044-1.942,1.941.044.044.044.044.044.044.044.044.043.044.044.044.044.044.043.044.044.044.044.044.043.044.044.044.043.043.043.043.044.043.043.043.043.043.043.043.043.043.044.043.043.043.043.043.043.043.041.043.043.042.043.043.043.042.043.042.043.042.041.042.043.042.041.042.043.042.043.042.041.042.041.042.043.042.041.042.041.042.043.042.041.042.041.042.041.041.043.042.041.041.041.041.041.041.041.041.041.041.04.041.041.041.041.041.041.041.041.041.04.041.041.041.041.041.04.041.041.04.039.041.041.04.039.04.041.04.04.04.041.04.039.04.04.04.04.04.041.04.04.04.04.04.04.04.04.04.039.04.04.04.04.04.04.04.04.039.04.039.04.039.039.039.04.039.038.039.04.039.039.039.038.039.04.039.039.039.038.039.04.039.038.039.039.039.038.039.04.039.038.039.038.039.04.038.038.038.038.038.04.038.038.038.038.038.038.038.038.038.038.038.04.038.038.038.038.038.038.038.038.038.038.038.038.038.036.038.038.038.038.038.038.038.038.038.038.038.036.037.038.037.038.038.036.037.038.037.038.037.036.037.038.037.036.037.038.037.038.037.036.037.036.037.038.037.036.037.038.037.036.037.036.037.038.037.036.037.036.037.038.037.036.037.036.037.036.037.038.036.036.037.036.037.036.036.036.036.036.036.036.036.036.036.036.036.036.036.036.036.036.036.036.036.036.036.036.036.036.036.036.036.036.036.036.036.035.036.036.036.036.036.036.036.036.036.035.036.036.036.036.036.036.036.035.036.036.036.036.036.035.036.036.036.035.036.036.036.036.036.035.036.036.036.035.035.036.035.035.036.036.035.035.035.036.035.035.035.036.035.035.035.036.035.035.035.035.035.036.035.035.035.036.035.035.035.035.035.036.035.035.035.035.035.036.035.035.035.035.035.036.035.035.035.035.035.035.035.036.035.035.035.035.035.035.035.035.035.036.035.035.035.035.035.035.035.035.035.036.035.035.035.035.035.035.035.035.035.035.035.036.035.035.035.035.035.035.035h0l-.035.035-.035.035-.035.035-.036.035-.035.035-.035.035-.035.035-.035.035-.035.035-.036.035-.035.035-.035.035-.035.035-.035.035-.036.035-.035.035-.035.035-.035.035-.035.035-.036.035-.035.035-.035.035L265.45,35l-.036.035-.035.035-.035.035-.036.035-.035.035-.035.035-.036.035-.035.035-.035.035-.036.035-.035.035-.036.035-.035.035-.035.035-.036.035-.035.035-.036.035-.035.035-.036.035-.035.035-.036.035-.035.035-.036.035-.035.036-.036.035-.035.036-.036.036-.036.036-.035.036-.036.036-.035.036-.036.036-.036.036-.035.036-.036.036-.036.036-.036.036-.035.036-.036.036-.036.036-.036.036-.036.036-.035.036-.036.036-.036.036-.036.036-.036.036-.036.036-.036.036-.036.036-.036.036-.036.036-.036.036-.036.036-.036.036-.036.036-.036.036-.036.036-.036.037-.036.036-.036.037-.038.037-.036.037-.036.037-.036.037-.038.037-.036.037-.036.037-.038.037-.036.037-.036.037-.038.037-.036.037-.038.037-.036.037-.036.037-.038.037-.038.037-.036.037-.038.037-.036.037-.038.037-.038.037-.036.037-.038.037-.038.037-.036.037-.038.038-.038.038-.038.038-.038.038-.038.038-.036.038-.038.038-.038.038-.038.038-.038.038-.038.038-.038.038-.04.038-.038.038-.038.038-.038.038-.038.038-.038.038-.04.038-.038.038-.038.038-.04.038-.038.039-.038.039-.04.039-.038.039-.039.039-.038.039-.04.039-.038.039-.039.039-.04.039-.038.039-.039.039-.04.039-.038.039-.04.039-.039.039-.04.039-.04.039-.04.039-.04.04-.04.04-.04.04-.039.04-.04.04-.04.04-.04.04-.04.04-.041.04-.04.04-.04.04-.039.04-.041.04-.04.04-.041.04-.039.04-.041.04-.039.041-.041.04-.04.041-.041.041-.041.041-.04.041-.041.041-.041.041-.041.041-.041.041-.04.041-.041.041-.041.041-.041.041-.041.041-.041.041-.043.042-.041.041-.041.042-.041.042-.043.042-.041.042-.041.042-.043.042-.041.042-.043.042-.041.042-.043.042-.041.042-.043.042-.041.042-.043.042-.043.042-.043.042-.043.043-.043.043-.041.043-.043.043-.043.043-.043.043-.044.043-.043.043-.043.043-.043.043-.043.043-.044.043-.043.043-.043.043-.044.044-.043.044-.044.044-.044.044-.043.044-.044.044-.044.044-.043.044-.044.044-.044.044-.044.044-.044.044,1.942,1.941.044-.044.044-.044.043-.044.044-.044.044-.044.044-.044.043-.044.044-.044.044-.044.043-.044.044-.044.043-.044.043-.043.044-.043.043-.043.043-.043.044-.043.043-.043.043-.043.043-.043.043-.043.043-.043.043-.043.043-.043.043-.043.043-.043.043-.042.041-.042.043-.042.043-.042.041-.042.043-.042.041-.042.043-.042.041-.042.043-.042.041-.042.043-.042.041-.042.041-.042.043-.042.041-.042.041-.041.041-.041.041-.041.041-.041.041-.041.041-.041.041-.041.041-.041.041-.041.041-.041.04-.041.041-.041.041-.041.041-.041.04-.041.041-.041.04-.04.041-.041.039-.04.041-.04.04-.04.041-.04.04-.04.04-.04.041-.04.04-.04.04-.04.04-.04.04-.04.041-.04.039-.04.04-.04.039-.04.04-.04.04-.039.04-.04.04-.039.038-.039.039-.039.04-.039.039-.039.04-.039.038-.039.04-.039.039-.039.038-.039.04-.039.038-.039.039-.039.038-.039.04-.039.038-.039.039-.039.038-.039.038-.038.04-.038.038-.038.038-.038.038-.038.04-.038.038-.038.038-.038.038-.038.038-.038.038-.038.038-.038.038-.038.038-.038.038-.038.038-.038.038-.038.038-.038.038-.038.038-.038.036-.038.038-.037.038-.038.038-.037.036-.037.038-.037.038-.037.036-.037.038-.037.036-.037.038-.037.038-.037.036-.037.038-.037.036-.037.036-.037.038-.037.036-.037.038-.037.036-.037.036-.037.038-.037.036-.037.036-.037.036-.037.038-.037.036-.037.036-.037.036-.037.036-.036.038-.037.036-.036.036-.036.036-.036.036-.036.036-.036.036-.036.036-.036.036-.036.036-.036.036-.036.036-.036.036-.036.035-.036.036-.036.036-.036.036-.036.036-.036.036-.036.035-.036.036-.036.036-.036.036-.036.035-.036.036-.036.036-.036.035-.036.036-.036.036-.036.035-.036.036-.036.036-.036.035-.036.036-.036.035-.035.036-.036.035-.035.036-.035.035-.035.036-.035.035-.035.036-.035.035-.035.036-.035.035-.035.036-.035.035-.035.035-.035.036-.035.035-.035.036-.035.035-.035.035-.035.036-.035.035-.035.035-.035.035-.035.036-.035.035-.035.035-.035.036-.035.035-.035.035-.035.035-.035.036-.035.035-.035.035-.035.035-.035.035-.035.036-.035.035-.035.035-.035.035-.035.035-.035.035-.035.036-.035.035-.035.035-.035.035-.035.035-.035.035-.035.035-.035h0l.035.035.035.035.035.035.035.035.035.035.035.035.036.035.035.035.035.035.035.035.035.035.035.035.036.035.035.035.035.035.035.035.035.035.036.035.035.035.035.035.035.035.036.035.035.035.035.035.036.035.035.035.035.035.035.035.036.035.035.035.035.035.036.035.035.035.036.035.035.035.035.035.036.035.035.035.036.035.035.035.036.035.035.035.036.035.035.035.036.035.035.035.036.036.035.035.036.036.035.036.036.036.036.036.035.036.036.036.036.036.035.036.036.036.036.036.035.036.036.036.036.036.036.036.035.036.036.036.036.036.036.036.036.036.036.036.035.036.036.036.036.036.036.036.036.036.036.036.036.036.036.036.036.036.036.036.036.036.036.036.036.036.038.037.036.036.036.037.036.037.036.037.038.037.036.037.036.037.036.037.038.037.036.037.036.037.038.037.036.037.038.037.036.037.036.037.038.037.036.037.038.037.038.037.036.037.038.037.036.037.038.037.038.037.036.037.038.037.038.038.038.037.036.038.038.038.038.038.038.038.038.038.038.038.038.038.038.038.038.038.038.038.038.038.038.038.038.038.038.038.038.038.04.038.038.038.038.038.038.038.039.038.038.038.038.039.039.039.038.039.04.039.038.039.039.039.038.039.04.039.038.039.039.039.04.039.038.039.04.039.04.039.04.039.039.039.038.039.04.039.04.04.04.039.04.04.04.04.04.04.039.04.041.04.04.04.039.04.04.04.04.04.041.04.04.04.04.04.041.04.04.04.041.04.039.04.041.041.04.04.041.041.039.041.041.041.041.041.041.041.04.041.041.041.041.041.041.041.041.041.041.041.041.041.041.041.041.041.041.041.041.041.041.042.043.042.041.042.041.042.043.042.041.042.043.042.041.042.043.042.041.042.043.042.041.042.043.042.043.042.041.042.043.042.043.043.043.043.043.043.043.043.043.043.043.043.043.043.043.043.043.043.044.043.043.043.043.043.044.043.043.043.043.044.044.044.043.044.044.044.044.044.043.044.044.044.044.044.044.044.043.044.044.044.044.044,1.942-1.941-.044-.044-.044-.044-.044-.044-.044-.044-.043-.044-.044-.044-.044-.044-.043-.044-.044-.044-.044-.044-.043-.044-.044-.044-.043-.043-.043-.043-.044-.043-.043-.043-.043-.043-.043-.043-.043-.043L278,42.055l-.043-.043-.043-.043-.043-.043-.041-.043-.043-.043-.043-.043-.043-.042-.043-.042-.043-.042-.041-.042-.043-.042-.041-.042-.043-.042-.043-.042-.041-.042-.041-.042-.043-.042-.041-.042-.041-.042-.043-.042-.041-.042-.041-.042-.041-.041-.043-.042L276.943,41l-.041-.041-.041-.041-.041-.041-.041-.041-.04-.041-.041-.041-.041-.041-.041-.041-.041-.041-.04-.041-.041-.041-.041-.041-.04-.041-.041-.04-.04-.041-.041-.04-.039-.04-.041-.04-.04-.04-.041-.04-.04-.04-.04-.04-.04-.04-.041-.04-.04-.04-.04-.04-.04-.04-.039-.04-.04-.04-.04-.04-.04-.04-.04-.04-.04-.039-.04-.039-.039-.039-.04-.039-.04-.039-.038-.039-.04-.039-.039-.039-.038-.039-.04-.039-.04-.039-.038-.039-.039-.039-.038-.039-.04-.039-.038-.039-.039-.039-.038-.039-.038-.039-.04-.038-.038-.038-.038-.038-.04-.038-.038-.038-.038-.038-.038-.038-.038-.038-.038-.038-.04-.038-.038-.038-.038-.038-.038-.038-.038-.038-.038-.038-.038-.038-.036-.038-.038-.038-.038-.038-.038-.038-.038-.038-.038-.038-.036-.037L274,38.062l-.038-.037-.036-.037-.038-.037-.038-.037-.036-.037-.038-.037-.036-.037-.038-.037-.038-.037-.036-.037-.036-.037-.038-.037-.036-.037-.038-.037-.036-.037-.036-.037-.038-.037-.036-.037-.036-.037-.038-.037-.036-.037-.036-.037-.036-.037-.038-.037-.036-.037-.036-.036-.036-.037-.036-.036-.036-.036-.036-.036-.036-.036-.036-.036-.036-.036-.036-.036-.036-.036-.036-.036-.036-.036-.036-.036-.036-.036-.036-.036-.036-.036-.036-.036-.035-.036-.036-.036-.036-.036-.036-.036-.036-.036-.035-.036-.036-.036-.036-.036-.036-.036-.035-.036-.036-.036-.036-.036L272,36.057l-.036-.036-.035-.036-.036-.036-.036-.036-.035-.036-.036-.035-.035-.036-.036-.035-.035-.035-.036-.035-.035-.035-.036-.035-.035-.035-.036-.035-.035-.035-.036-.035-.035-.035-.035-.035-.036-.035-.035-.035-.036-.035-.035-.035-.035-.035-.036-.035-.035-.035-.035-.035-.036-.035-.035-.035-.035-.035L270.938,35l-.035-.035-.035-.035-.035-.035-.036-.035-.035-.035-.035-.035-.035-.035-.035-.035-.036-.035-.035-.035-.035-.035-.035-.035-.035-.035-.036-.035-.035-.035-.035-.035-.035-.035-.035-.035-.035-.035-.036-.035-.035-.035-.035-.035-.035-.035h0l.035-.035.035-.035.035-.035.036-.035.035-.035.035-.035.035-.035.035-.035.035-.035.036-.035.035-.035.035-.035.035-.035.035-.035.036-.035.035-.035.035-.035.035-.035.035-.035.036-.035.035-.035.035-.035.035-.035.036-.035.035-.035.035-.035.036-.035.035-.035.035-.035.036-.035.035-.035.035-.035.036-.035.035-.035.036-.035.035-.035.035-.035.036-.035.035-.035.036-.035.035-.035.036-.035.035-.035.036-.035.035-.036.036-.035.035-.035.036-.036.035-.036.036-.036.036-.036.035-.036.036-.036.035-.036.036-.036.036-.036.035-.036.036-.036.036-.036.036-.036.035-.036.036-.036.036-.036.036-.036.036-.036.035-.036.036-.036.036-.036.036-.036.036-.036.036-.036.036-.036.036-.036.036-.036.036-.036.036-.036.036-.036.036-.036.036-.036.036-.036.036-.036.036-.036.036-.037.036-.037.038-.036.036-.037.036-.037.036-.037.038-.037.036-.037.036-.037.038-.037.036-.037.036-.037.038-.037.036-.037.038-.037.036-.037.036-.037.038-.037.038-.037.036-.037.038-.037.036-.037.038-.037.038-.037.036-.037.038-.038.038-.037.036-.037.038-.038.038-.038.038-.038.038-.038.038-.038.036-.038.038-.038.038-.038.038-.038.038-.038.038-.038.038-.038.04-.038.038-.038.038-.038.038-.038.038-.038.038-.038.04-.038.038-.038.038-.038.04-.038.038-.039.038-.039.039-.039.038-.039.04-.039.038-.039.039-.039.038-.039.04-.039.04-.039.038-.039.039-.039.04-.039.038-.039.04-.039.04-.039.039-.039.04-.039.04-.039.04-.04.04-.04.04-.04.04-.04.039-.04.04-.04.04-.04.04-.04.041-.04.04-.04.04-.04.04-.04.041-.04.04-.04.041-.04.039-.04.041-.04.04-.041.041-.04.04-.041.041-.041.041-.041.04-.041.041-.041.041-.041.041-.041.041-.041.04-.041.041-.041.041-.041.041-.041.041-.041.041-.041.043-.042.041-.041.041-.042.041-.042.043-.042.041-.042.041-.042.043-.042.041-.042.041-.042.043-.042.043-.042.041-.042.043-.042.041-.042.043-.042.043-.042.043-.042.043-.043.043-.042.041-.043.043-.043.043-.043.043-.043.044-.043.043-.043.043-.043.043-.043.043-.043.044-.043.043-.043.043-.043.044-.044.043-.044.044-.044.044-.044.043-.044.044-.044.044-.044.043-.044.044-.044.044-.044.044-.044.044-.044Z" transform="translate(-257.518 -23.518)" fill="#fff" fill-rule="evenodd"/>
</svg>
