<svg xmlns="http://www.w3.org/2000/svg" width="13" height="10.4" viewBox="0 0 13 10.4">
  <path id="패스_5485" data-name="패스 5485" d="M4.223,7.15a.465.465,0,0,0-.143.022,2.679,2.679,0,0,1-.832.14,2.682,2.682,0,0,1-.832-.14.463.463,0,0,0-.143-.022A2.275,2.275,0,0,0,0,9.438a.972.972,0,0,0,.975.962h4.55A.972.972,0,0,0,6.5,9.438,2.275,2.275,0,0,0,4.223,7.15ZM3.248,6.5A1.95,1.95,0,1,0,1.3,4.55,1.95,1.95,0,0,0,3.248,6.5ZM12.023,0h-7.8a.993.993,0,0,0-.975,1.007V1.95a2.57,2.57,0,0,1,1.3.362V1.3H11.7V7.15H10.4V5.85H7.8v1.3H6.25a2.589,2.589,0,0,1,.806,1.3h4.967A.993.993,0,0,0,13,7.443V1.007A.993.993,0,0,0,12.023,0Z" transform="translate(0.002)" fill="#fff"/>
</svg>
